<svg width="1299" height="498" viewBox="0 0 1299 498" fill="none" xmlns="http://www.w3.org/2000/svg">
<g opacity="0.2">
<path d="M428.921 228.308C410.301 228.308 390.992 226.28 372.027 222.222C319.96 211.353 279.962 194.108 241.343 177.587C193.069 156.864 142.726 135.271 69.2814 126.866L70.3158 125.417C144.795 133.967 195.138 155.705 243.757 176.573C282.031 193.093 322.029 210.194 373.406 220.918C404.439 227.439 434.783 228.598 463.747 224.396C545.123 212.512 601.672 162.081 643.05 125.272C651.67 117.736 659.601 110.49 666.842 104.694C673.048 99.6216 679.945 93.8249 687.186 87.5934C729.253 51.364 786.837 1.80223 869.247 -6.74791C903.038 -10.2259 938.554 -6.45808 974.759 4.55565C1020.62 18.6127 1058.55 37.7418 1095.1 56.1463C1153.37 85.5646 1213.37 115.997 1306.47 125.127L1305.78 126.576C1211.3 117.302 1150.96 86.7239 1092.34 57.0158C1055.79 38.6113 1018.21 19.4822 972.691 5.57008C937.52 -5.15382 902.694 -8.92168 869.936 -5.44366C789.25 2.96156 732.011 52.2335 690.289 88.1731C683.048 94.2596 676.496 100.201 669.945 105.273C662.704 111.07 654.773 118.171 646.153 125.852C604.431 162.951 547.537 213.672 464.781 225.845C453.403 227.439 441.334 228.308 428.921 228.308Z" fill="url(#paint0_linear_204_5269)"/>
<path d="M425.818 236.424C403.75 236.424 381.337 233.67 358.579 228.308C312.03 217.295 274.79 201.499 238.584 186.282C186.518 164.255 137.554 143.532 62.3851 135.271L63.4196 133.822C139.623 142.227 191.345 164.11 241.343 185.268C277.203 200.484 314.443 216.135 360.648 227.004C394.44 234.975 427.542 237.003 458.92 232.801C543.054 221.642 601.327 170.341 644.084 132.808C652.015 125.707 659.946 119.041 666.842 113.389C672.704 108.607 678.91 103.534 685.117 98.0275C728.908 60.9286 789.25 10.0626 874.074 1.9472C910.624 -1.53082 949.243 3.39638 988.897 16.439C1029.24 29.7714 1064.41 47.1615 1097.86 64.1168C1157.51 93.8249 1219.23 124.547 1313.02 133.677L1312.33 135.126C1217.51 125.997 1155.44 94.9843 1095.44 65.1313C1061.65 48.3208 1027.17 31.0756 986.828 17.7432C948.209 4.99046 910.624 0.208188 875.109 3.54129C791.664 11.3668 732.011 61.9431 688.565 98.7521C682.014 104.259 675.807 109.476 670.29 114.113C663.394 119.765 655.808 126.431 647.532 133.532C604.431 171.211 545.813 222.946 460.299 234.25C448.575 235.699 437.197 236.424 425.818 236.424Z" fill="url(#paint1_linear_204_5269)"/>
<path d="M423.404 244.974C400.991 244.974 378.233 242.22 355.131 236.714C308.237 225.7 270.652 209.904 234.102 194.832C181.345 172.805 131.348 151.937 55.144 143.821L55.8337 142.372C132.727 150.633 185.483 172.66 236.515 193.818C272.721 208.889 310.305 224.54 356.855 235.554C391.336 243.67 424.783 245.698 456.851 241.351C541.33 230.192 600.293 179.036 643.394 141.793C651.67 134.692 659.256 128.025 666.152 122.374C672.014 117.591 678.221 112.374 685.117 106.867C729.598 69.7685 790.285 18.7575 875.798 10.6422C912.693 7.16414 951.657 11.9464 991.31 24.8441C1032.69 38.3214 1068.2 55.8564 1102.68 72.8118C1162.68 102.375 1225.09 133.097 1319.23 142.227L1318.54 143.676C1223.37 134.402 1160.61 103.534 1100.27 73.8262C1065.79 56.8708 1030.62 39.4808 989.242 26.0034C950.278 13.3956 912.348 8.61331 876.488 12.0913C792.354 20.0618 732.011 70.638 687.875 107.592C681.324 113.099 675.117 118.316 668.911 123.098C662.014 128.75 654.084 135.416 646.153 142.517C602.707 180.051 543.399 231.641 457.54 242.945C446.506 244.249 434.783 244.974 423.404 244.974Z" fill="url(#paint2_linear_204_5269)"/>
<path d="M420.645 253.669C397.888 253.669 374.785 250.915 351.338 245.409C304.099 234.395 266.169 218.744 229.274 203.527C175.484 181.5 124.796 160.632 47.5581 152.372L48.2477 150.922C126.175 159.183 179.621 181.065 231.343 202.368C267.893 217.44 305.823 232.946 352.717 243.959C387.543 252.075 421.68 254.104 454.092 249.901C538.916 238.742 598.569 187.731 642.015 150.633C650.291 143.676 657.877 137.01 665.118 131.359C671.324 126.576 677.531 121.214 684.427 115.707C729.253 78.4636 790.974 27.5975 877.177 19.3372C914.417 15.7143 953.381 20.4966 993.379 33.2493C1035.79 46.8716 1072 64.4066 1107.17 81.5068C1167.85 111.07 1230.61 141.503 1325.43 150.777L1324.74 152.227C1228.89 142.807 1165.79 112.084 1104.75 82.3764C1069.58 65.421 1033.38 47.7411 991.31 34.2637C952.002 21.6559 914.072 17.1634 877.867 20.6415C793.388 28.7569 732.011 79.3331 687.53 116.287C680.634 121.939 674.427 127.156 668.221 131.938C660.98 137.59 653.394 144.256 645.118 151.212C601.327 188.601 541.33 239.902 455.127 251.205C444.093 252.944 432.369 253.669 420.645 253.669Z" fill="url(#paint3_linear_204_5269)"/>
<path d="M416.508 262.219C390.992 262.219 364.786 258.741 338.235 251.93C296.168 241.061 260.652 226.714 226.171 212.947C170.656 190.63 118.245 169.472 39.9723 161.502L40.6619 160.052C119.969 168.023 175.139 190.34 228.24 211.788C262.376 225.555 297.892 239.902 339.614 250.626C376.854 260.19 413.404 262.944 447.886 258.886C535.123 248.452 597.19 197.006 642.36 159.473C650.291 152.806 657.877 146.43 665.118 140.923C671.669 135.851 678.565 130.199 685.806 124.258C730.287 87.8834 790.974 38.1767 875.798 28.902C910.969 25.1341 947.864 28.6121 985.449 39.1911C1034.76 53.1032 1075.79 72.667 1115.1 91.6513C1175.79 120.78 1238.54 150.778 1332.33 159.907L1331.64 161.357C1236.47 152.227 1173.37 121.939 1112.34 92.6657C1073.03 73.8264 1032.34 54.2625 983.38 40.4954C946.485 30.0613 910.624 26.7282 876.488 30.3511C793.043 39.336 732.701 88.8978 688.565 124.982C681.324 130.924 674.428 136.576 667.876 141.648C660.635 147.155 653.049 153.531 645.118 160.197C599.603 198.021 537.192 249.901 448.575 260.335C438.231 261.495 427.542 262.219 416.508 262.219Z" fill="url(#paint4_linear_204_5269)"/>
<path d="M413.749 271.204C387.888 271.204 361.338 267.726 334.097 260.915C291.685 250.046 255.825 235.844 220.999 222.077C164.794 199.615 111.348 178.457 32.0415 170.631L32.7311 169.182C113.072 177.007 166.518 198.455 223.068 220.917C257.549 234.685 293.409 248.887 335.477 259.61C373.406 269.32 410.301 272.073 445.472 267.871C533.054 257.437 595.81 206.136 641.67 168.747C649.601 162.081 657.532 155.849 664.428 150.343C670.979 145.27 677.876 139.619 685.461 133.532C730.287 97.1579 792.009 47.3062 877.177 38.0315C912.693 34.1187 949.588 37.5967 987.517 48.0308C1037.86 62.0878 1079.58 81.7966 1119.93 100.781C1180.96 129.764 1244.4 159.762 1338.88 168.892L1338.19 170.341C1242.68 161.067 1178.89 130.924 1117.51 101.65C1077.51 82.6661 1036.14 62.9573 985.793 49.1901C948.553 38.901 912.348 35.5679 878.212 39.3357C794.078 48.4656 733.046 98.0274 688.565 134.112C681.324 140.053 674.083 145.705 667.531 150.922C660.29 156.429 652.704 162.661 644.774 169.327C598.569 207.005 535.468 258.596 446.506 269.32C435.817 270.624 424.783 271.204 413.749 271.204Z" fill="url(#paint5_linear_204_5269)"/>
<path d="M410.991 280.044C384.785 280.044 357.89 276.566 330.305 269.61C287.548 258.741 251.342 244.539 216.172 230.772C158.933 208.31 104.797 187.007 24.4557 179.326L25.1453 177.877C106.176 185.702 160.657 207.005 218.24 229.612C253.066 243.38 289.272 257.437 331.684 268.161C370.303 277.87 407.887 280.623 443.403 276.421C531.33 265.987 594.776 214.831 640.981 177.442C649.256 170.921 656.842 164.689 664.083 159.183C670.979 153.965 677.876 148.314 685.462 142.227C730.977 105.853 793.043 56.0012 879.246 46.4367C914.762 42.5239 952.347 45.857 990.621 56.2911C1042 70.3481 1084.41 90.2018 1125.44 109.331C1187.16 138.169 1250.95 168.167 1345.78 177.442L1345.09 178.891C1249.23 169.472 1185.1 139.474 1123.03 110.345C1082.34 91.2162 1039.93 71.5074 988.897 57.5953C951.657 47.4511 915.107 44.118 880.281 48.0307C795.802 57.3055 733.735 106.867 688.91 143.097C681.324 149.183 674.428 154.835 667.531 160.052C660.29 165.559 652.704 171.79 644.429 178.312C597.879 215.845 534.089 267.291 444.782 278.015C433.748 279.319 422.37 280.044 410.991 280.044Z" fill="url(#paint6_linear_204_5269)"/>
<path d="M409.956 288.594C386.164 288.594 361.682 285.841 336.856 280.189C288.582 269.32 248.584 253.814 209.965 238.888C152.381 216.425 97.556 195.412 17.2146 188.021L17.9042 186.572C99.28 193.963 156.519 216.28 212.034 237.873C250.653 252.8 290.306 268.161 337.89 278.885C375.13 287.29 411.68 289.319 445.817 284.826C532.71 273.523 595.121 223.381 640.636 186.717C648.567 180.196 656.497 174.109 663.738 168.458C669.945 163.675 676.841 158.024 684.427 152.227C730.287 115.418 793.043 64.9865 879.936 54.5524C913.038 50.4947 947.519 52.9583 982.345 61.5084C1039.93 75.7104 1085.79 97.1582 1130.27 118.026C1192.34 147.155 1256.82 177.153 1352.33 186.427L1351.64 187.877C1254.75 178.602 1190.27 148.314 1127.51 119.041C1083.38 98.3175 1037.52 76.8697 980.621 62.8127C946.83 54.4075 913.038 52.0888 880.97 56.0016C795.457 66.2907 733.046 116.287 687.53 152.951C680.289 158.748 673.393 164.4 666.842 169.182C659.601 174.689 652.015 180.776 643.739 187.297C597.879 224.251 535.123 274.682 446.851 286.131C435.128 287.725 422.37 288.594 409.956 288.594Z" fill="url(#paint7_linear_204_5269)"/>
<path d="M407.198 297.434C383.061 297.434 358.234 294.68 333.063 289.029C284.444 278.16 244.101 262.799 205.137 247.872C146.519 225.41 91.0045 204.252 9.97351 197.006L10.6631 195.557C92.7286 202.948 151.002 225.265 207.551 246.858C246.515 261.784 286.513 277.145 334.787 287.869C372.716 296.275 409.611 298.303 444.438 293.811C531.675 282.507 594.776 232.511 640.636 195.847C648.567 189.47 656.497 183.384 663.738 177.877C670.29 172.95 677.186 167.443 684.772 161.501C730.977 124.692 794.767 74.2609 882.005 63.6819C915.452 59.6242 950.278 61.9429 985.104 70.3481C1043.72 84.55 1090.62 106.143 1135.79 127.156C1198.54 156.139 1263.37 186.137 1359.23 195.412L1358.54 196.861C1261.3 187.442 1196.13 157.299 1133.03 128.17C1087.86 107.302 1041.31 85.8543 983.38 71.6524C949.243 63.3921 915.452 61.2183 882.694 65.1311C796.491 75.5651 733.391 125.707 687.53 162.226C679.945 168.167 673.048 173.674 666.497 178.602C659.256 184.108 651.67 190.195 643.394 196.571C597.19 233.38 533.744 283.812 445.127 295.26C432.714 296.564 419.956 297.434 407.198 297.434Z" fill="url(#paint8_linear_204_5269)"/>
<path d="M404.094 307.433C379.613 307.433 354.441 304.535 328.58 298.883C279.617 288.015 238.929 272.653 199.276 257.727C139.623 235.264 83.0738 213.962 1.00842 206.716L1.69805 205.267C84.7979 212.512 144.106 234.83 201.689 256.567C240.998 271.349 281.686 286.71 329.96 297.434C480.298 330.62 572.363 258.451 639.602 205.701C647.532 199.325 655.463 193.383 662.704 187.876C669.255 182.949 676.496 177.297 684.082 171.356C730.977 134.547 795.112 84.1155 883.384 73.3916C917.176 69.3339 952.346 71.5076 987.517 79.9129C1047.17 94.1148 1095.1 115.852 1140.96 137.01C1204.4 165.849 1269.57 195.847 1366.47 205.267L1365.78 206.716C1268.19 197.151 1202.34 167.153 1138.55 138.025C1092.69 117.012 1045.1 95.419 985.793 81.2171C951.312 72.9568 917.176 70.928 884.418 74.8408C797.526 85.4197 733.735 135.561 687.186 172.08C679.6 178.022 672.359 183.674 665.807 188.601C658.566 194.108 650.98 200.05 642.705 206.426C609.948 232.076 569.26 263.958 518.572 284.681C481.677 299.898 443.748 307.433 404.094 307.433Z" fill="url(#paint9_linear_204_5269)"/>
<path d="M400.646 317.867C373.061 317.867 344.097 314.244 314.788 307.143C270.997 296.564 233.067 282.507 196.517 268.885C134.796 245.988 76.5224 224.395 -7.95667 217.294L-7.26704 215.845C77.9017 222.946 139.278 245.698 198.931 267.726C235.481 281.203 273.41 295.26 316.857 305.839C358.234 315.838 398.233 318.737 436.162 314.244C525.813 303.665 588.569 255.408 639.257 216.715C647.532 210.338 655.463 204.397 662.704 198.89C669.6 193.818 676.841 188.166 684.772 182.224C733.391 144.981 799.939 94.1145 889.936 84.1152C926.486 80.0575 964.415 83.1008 1002.69 93.245C1056.82 107.447 1101.65 127.59 1145.1 147.009C1209.92 176.138 1277.16 206.281 1374.74 215.555L1374.05 217.005C1275.44 207.44 1207.85 177.297 1142.68 148.024C1099.24 128.605 1054.41 108.461 1000.97 94.4044C963.381 84.55 926.486 81.5067 890.97 85.4195C802.008 95.129 736.149 145.85 687.875 182.804C679.945 188.746 672.704 194.397 665.807 199.47C658.221 204.976 650.636 210.918 642.36 217.294C591.328 256.277 528.227 304.825 437.197 315.549C424.783 317.143 412.715 317.867 400.646 317.867Z" fill="url(#paint10_linear_204_5269)"/>
<path d="M397.543 328.302C369.268 328.302 340.304 324.679 310.65 317.578C266.514 306.999 228.24 292.942 191 279.464C128.244 256.423 68.5917 234.83 -16.577 227.874L-15.8874 226.425C70.3158 233.381 133.072 256.278 193.414 278.305C230.309 291.782 268.583 305.839 312.374 316.273C354.441 326.418 395.129 329.171 433.748 324.679C524.089 314.1 587.535 265.987 638.912 227.294C647.187 221.063 654.773 215.266 662.359 209.759C669.6 204.687 676.841 199.035 684.772 192.949C734.08 155.705 801.319 104.694 892.349 94.6945C929.244 90.6368 967.518 93.5352 1006.14 103.534C1061.31 117.736 1107.17 138.025 1151.65 157.589C1217.16 186.572 1285.09 216.57 1383.02 226.135L1382.33 227.584C1283.37 218.019 1215.09 187.877 1149.23 158.603C1105.1 139.039 1059.24 118.896 1004.41 104.694C966.484 94.9843 929.244 92.086 893.383 95.9988C803.732 105.853 736.839 156.574 688.22 193.528C680.289 199.47 672.703 205.267 665.807 210.339C658.221 215.846 650.635 221.642 642.36 227.874C590.983 266.857 526.848 315.259 435.128 325.983C422.369 327.577 409.956 328.302 397.543 328.302Z" fill="url(#paint11_linear_204_5269)"/>
<path d="M393.405 339.605C367.889 339.605 342.028 336.707 315.133 330.765C265.825 319.896 224.102 304.68 183.759 290.043C120.314 267.001 60.3163 245.119 -26.2317 238.598L-25.5421 237.148C62.0403 243.815 125.141 266.857 185.828 289.029C226.171 303.666 267.893 318.882 316.512 329.606C470.643 363.517 567.88 290.623 638.912 237.438C646.843 231.642 654.084 226.135 661.325 220.918C668.911 215.556 676.496 209.614 684.772 203.383C718.219 178.312 759.596 147.01 810.629 126.431C870.626 102.375 932.003 97.5928 998.207 111.94C1062.34 125.852 1112.68 148.169 1161.65 169.617C1226.47 198.021 1293.02 227.584 1390.6 236.859L1389.91 238.308C1291.64 228.888 1224.4 199.325 1159.23 170.631C1110.62 149.183 1059.93 127.011 996.483 113.244C850.282 81.507 756.148 152.227 687.875 203.962C679.6 210.194 671.669 216.135 664.428 221.497C657.187 226.569 649.946 232.076 642.36 238.018C607.879 263.813 565.122 295.985 512.021 316.853C473.402 332.069 434.093 339.605 393.405 339.605Z" fill="url(#paint12_linear_204_5269)"/>
<path d="M390.302 350.184C364.441 350.184 338.235 347.286 310.995 341.344C261.342 330.475 218.93 315.404 178.242 300.767C113.762 277.58 52.7302 255.843 -34.8522 249.321L-34.1625 247.872C54.4543 254.538 118.589 277.435 180.656 299.753C221.344 314.389 263.411 329.461 312.719 340.185C468.574 374.095 567.191 301.347 638.912 248.307C646.842 242.51 654.083 237.148 660.98 232.076C668.566 226.714 676.496 220.773 685.117 214.396C718.908 189.181 760.975 157.878 812.353 137.3C873.04 113.244 934.761 108.317 1001.31 122.518C1066.48 136.431 1118.2 158.748 1167.85 180.486C1233.37 208.889 1300.95 238.163 1398.53 247.582L1397.84 249.032C1298.88 239.612 1230.96 210.049 1165.44 181.5C1115.79 159.907 1064.41 137.59 999.586 123.823C852.006 92.3756 757.182 163.24 687.875 214.976C679.6 221.207 671.324 227.149 663.738 232.656C656.497 237.728 649.256 243.09 641.67 248.887C606.499 274.682 563.053 306.854 509.262 327.722C470.643 342.648 431.335 350.184 390.302 350.184Z" fill="url(#paint13_linear_204_5269)"/>
<path d="M386.509 360.328C358.924 360.328 329.27 356.995 297.203 349.604C251.687 339.025 212.034 324.968 173.76 311.346C107.9 288.014 45.4892 265.987 -43.8173 259.611L-43.1276 258.161C46.8685 264.538 109.624 286.71 176.173 310.187C214.447 323.664 254.101 337.721 298.927 348.155C462.023 386.269 563.743 312.505 638.222 258.741C646.153 253.089 653.394 247.727 660.635 242.655C668.566 237.003 676.841 230.917 685.806 224.541C738.908 185.558 804.767 137.155 896.832 126.866C935.106 122.519 975.449 125.417 1016.14 135.416C1073.72 149.473 1121.99 170.052 1168.89 189.76C1237.16 218.599 1307.5 248.597 1407.15 258.016L1406.46 259.466C1306.12 249.901 1235.09 219.903 1166.48 190.92C1119.93 171.211 1071.65 150.777 1014.41 136.72C974.415 126.866 935.106 124.113 897.521 128.315C807.18 138.459 741.321 186.572 688.91 225.265C679.945 231.786 671.669 237.873 663.738 243.38C656.497 248.452 649.256 253.814 641.326 259.466C580.294 303.521 501.676 360.328 386.509 360.328Z" fill="url(#paint14_linear_204_5269)"/>
<path d="M383.061 371.052C355.131 371.052 325.132 367.719 292.375 360.183C246.515 349.604 206.517 335.547 167.553 322.07C100.314 298.738 36.8689 276.566 -53.472 270.334L-52.7824 268.885C38.5929 275.117 102.383 297.434 169.622 320.911C208.241 334.388 248.239 348.3 293.754 358.879C366.855 375.834 433.748 372.646 498.228 349.17C554.088 328.881 598.224 297.289 637.533 269.465C645.118 263.958 652.704 258.741 659.945 253.669C668.221 248.017 676.496 241.931 685.461 235.409C759.596 181.645 861.316 108.027 1018.9 145.85C1077.86 159.907 1127.17 180.63 1174.75 200.484C1243.71 229.323 1314.74 259.031 1414.74 268.595L1414.05 270.045C1313.02 260.48 1241.64 230.482 1172.34 201.499C1124.75 181.645 1075.79 161.067 1017.17 147.01C862.35 109.911 761.665 182.804 688.22 235.989C679.255 242.51 670.635 248.597 662.704 254.249C655.463 259.176 648.222 264.393 640.291 269.9C579.259 314.244 499.607 371.052 383.061 371.052Z" fill="url(#paint15_linear_204_5269)"/>
<path d="M379.958 381.631C350.304 381.631 319.615 378.008 287.893 370.617C241.688 360.038 201.345 346.126 162.036 332.649C93.763 309.172 29.2831 287 -62.0923 280.913L-61.4027 279.464C31.0071 285.551 95.8319 307.868 164.45 331.49C203.413 344.967 244.101 358.879 289.961 369.313C363.751 386.268 431.335 383.225 496.849 359.893C553.398 339.75 598.224 308.013 638.222 280.044C645.808 274.682 653.049 269.61 660.29 264.683C668.566 259.031 677.186 252.799 686.496 246.278C761.665 192.514 864.419 118.896 1023.03 156.284C1083.03 170.486 1133.37 191.209 1181.65 211.208C1251.3 239.902 1323.02 269.61 1423.71 279.174L1423.02 280.624C1321.64 270.914 1249.23 241.061 1179.58 212.222C1131.3 192.224 1080.96 171.501 1021.65 157.589C865.799 120.924 764.079 193.818 689.599 247.003C680.289 253.524 671.669 259.755 663.394 265.407C656.153 270.334 648.911 275.407 641.326 280.769C601.327 308.738 556.157 340.619 499.263 360.908C459.954 374.82 420.99 381.631 379.958 381.631Z" fill="url(#paint16_linear_204_5269)"/>
<path d="M378.578 392.935C350.993 392.935 322.719 389.891 293.065 383.95C240.998 373.371 196.172 358.154 152.726 343.373C84.1083 320.186 19.6283 298.159 -71.7471 292.362L-71.4022 290.913C21.0075 296.709 88.9357 319.896 154.795 342.214C197.896 356.85 242.722 372.067 294.444 382.646C459.609 416.266 557.536 347.72 636.153 292.507C644.084 287 651.67 281.638 658.911 276.566C666.842 271.204 675.117 265.407 683.738 259.176C754.769 208.744 861.661 132.518 1015.1 164.69C1082 178.747 1136.48 201.209 1188.89 222.801C1258.54 251.495 1330.61 281.203 1431.64 290.768L1430.95 292.217C1328.88 282.508 1256.47 252.799 1186.82 223.961C1134.41 202.368 1080.27 180.051 1013.72 165.994C947.174 152.082 884.418 157.154 821.318 181.79C767.182 202.803 722.701 234.54 687.186 259.9C678.565 266.132 670.29 272.073 662.359 277.29C654.773 282.363 647.532 287.58 639.601 293.231C600.638 320.621 556.157 351.633 500.642 371.777C460.644 385.979 420.645 392.935 378.578 392.935Z" fill="url(#paint17_linear_204_5269)"/>
<path d="M374.785 406.122C347.89 406.122 318.926 403.369 287.203 396.993C234.447 386.414 188.931 371.197 145.14 356.561C75.488 333.229 9.28391 311.201 -83.4707 305.55L-83.1259 304.1C10.6632 309.897 79.9705 332.939 147.209 355.401C191 370.038 236.516 385.109 288.582 395.688C455.816 429.309 555.122 360.763 635.119 305.694C643.05 300.333 650.291 295.116 657.877 290.188C665.807 284.826 674.428 278.885 683.393 272.653C719.943 247.148 765.113 215.266 820.283 194.108C885.108 169.037 950.278 163.675 1018.55 177.732C1086.82 191.789 1142.34 214.396 1196.13 236.134C1266.82 264.683 1339.57 294.391 1441.29 303.955L1440.6 305.405C1338.19 295.695 1264.75 265.987 1194.06 237.148C1140.61 215.411 1085.1 192.949 1017.17 179.037C950.278 165.269 886.487 170.486 822.697 195.122C767.872 216.28 722.701 247.872 686.496 273.378C677.531 279.609 669.255 285.551 660.98 290.913C653.739 295.84 646.153 300.912 638.222 306.419C572.708 351.778 493.746 406.122 374.785 406.122Z" fill="url(#paint18_linear_204_5269)"/>
<path d="M370.648 420.034C345.132 420.034 318.581 417.426 291.686 412.354C235.481 401.63 186.863 385.689 139.968 370.328C67.9021 346.561 -0.0259628 324.244 -94.5046 318.737L-94.1598 317.288C1.35329 322.795 72.7295 346.416 142.037 369.168C188.587 384.53 237.205 400.471 293.065 411.049C364.786 424.672 430.645 419.889 494.78 396.703C550.295 376.559 594.776 346.416 634.085 319.606C642.36 313.955 650.291 308.738 657.877 303.666C666.497 298.014 675.462 291.927 684.772 285.406C763.734 231.062 872.005 156.719 1034.07 193.093C1097.17 207.295 1150.27 228.453 1201.65 248.887C1274.06 277.725 1348.54 307.433 1451.29 316.998L1450.6 318.447C1346.81 308.738 1271.64 278.885 1199.23 249.901C1148.2 229.468 1095.1 208.455 1032.34 194.398C872.695 158.603 765.803 232.366 687.531 286.131C678.221 292.652 669.255 298.738 660.635 304.39C653.049 309.462 645.119 314.679 636.843 320.331C597.534 347.141 552.709 377.429 496.849 397.717C455.816 412.644 414.094 420.034 370.648 420.034Z" fill="url(#paint19_linear_204_5269)"/>
<path d="M366.51 433.077C340.304 433.077 313.753 430.468 286.168 425.251C229.274 414.527 180.311 398.731 132.727 383.225C59.2817 359.459 -10.0256 336.997 -105.884 331.635L-105.539 330.185C-8.64638 335.547 64.1091 359.169 134.451 382.066C181.69 397.427 230.654 413.223 287.203 423.802C359.614 437.424 426.507 432.787 491.332 409.745C547.536 389.747 593.052 359.314 633.05 332.649C641.326 327.142 648.911 322.07 656.497 317.143C665.118 311.491 674.427 305.26 684.082 298.738C764.079 244.394 873.729 170.051 1037.52 205.991C1102 220.193 1156.13 241.496 1208.54 261.929C1281.64 290.623 1357.16 320.331 1460.6 330.04L1459.91 331.49C1355.43 321.635 1279.57 291.927 1206.13 263.089C1154.06 242.655 1099.93 221.352 1035.79 207.295C874.764 171.935 766.148 245.698 686.841 299.463C677.186 305.984 668.221 312.216 659.256 317.867C651.67 322.795 644.084 328.012 635.808 333.374C595.465 360.183 549.95 390.761 493.401 410.904C452.713 425.686 410.646 433.077 366.51 433.077Z" fill="url(#paint20_linear_204_5269)"/>
<path d="M362.372 445.25C334.097 445.25 303.754 442.352 270.997 435.685C218.24 425.106 172.035 410.18 126.865 395.833C52.0407 371.922 -18.6459 349.314 -116.228 344.242L-115.883 342.793C-17.6115 348.01 57.2129 371.777 129.279 394.819C174.104 409.165 220.309 423.947 272.721 434.526C444.782 469.306 550.64 399.601 635.464 343.808C642.705 339.17 649.601 334.533 656.497 330.185C665.462 324.389 674.772 318.012 684.772 311.346C763.044 258.596 869.936 186.427 1031.31 216.715C1104.41 230.337 1163.37 253.524 1220.61 275.696C1293.02 303.955 1367.85 333.084 1470.6 342.648L1469.91 344.097C1366.12 334.533 1290.95 305.115 1218.2 276.711C1161.3 254.538 1102.34 231.496 1029.93 217.874C871.316 188.166 765.113 259.755 687.875 311.926C677.876 318.592 668.566 324.968 659.601 330.765C652.704 335.113 645.808 339.75 638.567 344.387C568.915 390.326 485.125 445.25 362.372 445.25Z" fill="url(#paint21_linear_204_5269)"/>
<path d="M358.234 458.003C329.615 458.003 298.927 455.104 265.825 448.438C212.723 437.859 165.829 423.078 119.969 408.731C43.4204 384.674 -28.6454 362.067 -127.607 356.995L-127.262 355.546C-27.611 360.618 48.5926 384.529 122.038 407.571C167.553 421.773 214.447 436.555 267.204 447.134C441.334 481.914 548.916 412.209 635.119 356.27C642.015 351.778 648.912 347.431 655.463 343.228C664.773 337.286 674.083 331.055 684.427 324.244C763.734 271.494 872.005 199.325 1034.76 229.178C1109.24 242.8 1169.58 265.987 1227.85 288.449C1301.3 316.563 1376.81 345.692 1480.26 355.401L1479.57 356.85C1375.43 347.141 1299.23 317.867 1225.44 289.608C1167.17 267.291 1107.17 244.104 1033.38 230.627C962.691 217.584 896.142 222.946 830.628 246.858C774.078 267.436 727.874 298.159 687.186 325.258C677.186 331.924 667.531 338.301 658.221 344.242C651.67 348.445 644.774 352.937 637.878 357.285C567.536 402.934 482.712 458.003 358.234 458.003Z" fill="url(#paint22_linear_204_5269)"/>
<path d="M353.407 470.756C320.305 470.756 286.168 466.988 250.653 459.452C201.689 449.018 156.864 435.251 114.107 422.063C35.8345 397.862 -38.3003 374.965 -138.641 370.183L-138.296 368.734C-36.921 373.661 37.2137 396.558 116.176 420.904C158.933 434.236 203.413 447.859 252.377 458.148C333.408 475.248 407.198 472.64 477.539 449.887C539.261 430.034 590.638 397.572 635.809 368.879C642.36 364.676 648.911 360.618 655.118 356.561C664.428 350.764 674.083 344.388 684.082 337.866C767.182 283.522 881.315 209.179 1049.93 244.394C1117.51 258.451 1174.75 279.899 1229.92 300.622C1306.12 329.171 1384.74 358.734 1489.91 368.444L1489.22 369.893C1383.02 360.184 1304.06 330.475 1227.51 301.782C1172.34 281.059 1115.44 259.756 1048.2 245.699C974.759 230.337 905.797 234.54 837.179 258.596C777.871 279.319 729.598 310.912 686.841 338.736C676.496 345.402 667.187 351.633 657.532 357.43C650.98 361.488 644.774 365.545 638.222 369.748C593.052 398.442 541.675 431.048 479.264 451.047C438.92 464.234 397.198 470.756 353.407 470.756Z" fill="url(#paint23_linear_204_5269)"/>
<path d="M350.648 484.233C319.615 484.233 287.892 481.044 254.79 474.668C200.31 464.234 151.691 449.308 104.452 434.961C25.49 410.904 -48.9895 388.152 -150.364 383.66L-150.02 382.211C-47.955 386.848 30.6622 410.759 106.176 433.801C153.071 448.148 201.345 462.785 255.825 473.364C335.821 488.725 408.577 485.247 478.229 462.64C539.261 442.786 589.948 410.904 634.429 382.79C640.981 378.588 647.532 374.53 654.083 370.472C663.393 364.821 672.703 358.589 683.048 351.923C765.803 298.159 879.591 224.685 1043.38 255.118C1117.86 269.03 1179.58 291.927 1239.23 314.244C1315.43 342.793 1394.4 372.211 1500.25 381.921L1499.56 383.37C1393.02 373.661 1313.71 344.097 1236.82 315.404C1177.51 293.231 1116.13 270.334 1042 256.567C880.97 226.569 768.216 299.608 686.151 352.792C676.151 359.314 666.497 365.545 657.187 371.342C650.635 375.4 644.084 379.457 637.532 383.66C592.707 411.919 542.019 443.801 480.643 463.799C438.92 477.422 395.819 484.233 350.648 484.233Z" fill="url(#paint24_linear_204_5269)"/>
<path d="M346.511 498C315.133 498 282.72 494.812 249.274 488.435C194.104 478.001 144.795 463.22 97.2112 448.873C16.8698 424.817 -58.989 401.92 -161.743 397.572L-161.398 396.123C-57.9546 400.615 22.042 424.527 99.28 447.713C146.864 461.915 195.828 476.697 250.653 487.131C331.684 502.637 405.474 499.159 476.16 476.552C537.882 456.698 589.604 424.672 635.464 396.413C641.67 392.5 648.222 388.587 654.428 384.819C663.738 379.023 673.738 372.791 684.082 366.125C768.217 312.36 883.384 238.887 1048.2 268.885C1124.06 282.652 1187.16 305.839 1247.85 328.156C1325.09 356.56 1405.09 385.979 1511.29 395.688L1510.6 397.137C1403.36 387.283 1323.02 357.865 1245.44 329.316C1184.75 306.999 1122.34 283.957 1046.83 270.189C884.418 240.626 770.286 313.52 686.841 366.849C676.496 373.516 666.497 379.747 657.187 385.544C650.98 389.312 644.774 393.224 638.222 397.137C592.362 425.541 540.64 457.713 478.229 477.566C435.472 491.189 392.026 498 346.511 498Z" fill="url(#paint25_linear_204_5269)"/>
</g>
<defs>
<linearGradient id="paint0_linear_204_5269" x1="69.2814" y1="110.154" x2="1306.47" y2="110.154" gradientUnits="userSpaceOnUse">
<stop stop-color="#E5E5E5"/>
<stop offset="0.365385" stop-color="#A1C4FF"/>
<stop offset="0.668269" stop-color="white"/>
<stop offset="1" stop-color="#A1C4FF"/>
</linearGradient>
<linearGradient id="paint1_linear_204_5269" x1="62.3851" y1="118.645" x2="1313.02" y2="118.645" gradientUnits="userSpaceOnUse">
<stop stop-color="#E5E5E5"/>
<stop offset="0.365385" stop-color="#A1C4FF"/>
<stop offset="0.668269" stop-color="white"/>
<stop offset="1" stop-color="#A1C4FF"/>
</linearGradient>
<linearGradient id="paint2_linear_204_5269" x1="55.144" y1="127.258" x2="1319.23" y2="127.258" gradientUnits="userSpaceOnUse">
<stop stop-color="#E5E5E5"/>
<stop offset="0.365385" stop-color="#A1C4FF"/>
<stop offset="0.668269" stop-color="white"/>
<stop offset="1" stop-color="#A1C4FF"/>
</linearGradient>
<linearGradient id="paint3_linear_204_5269" x1="47.5581" y1="135.915" x2="1325.43" y2="135.915" gradientUnits="userSpaceOnUse">
<stop stop-color="#E5E5E5"/>
<stop offset="0.365385" stop-color="#A1C4FF"/>
<stop offset="0.668269" stop-color="white"/>
<stop offset="1" stop-color="#A1C4FF"/>
</linearGradient>
<linearGradient id="paint4_linear_204_5269" x1="39.9723" y1="144.825" x2="1332.33" y2="144.825" gradientUnits="userSpaceOnUse">
<stop stop-color="#E5E5E5"/>
<stop offset="0.365385" stop-color="#A1C4FF"/>
<stop offset="0.668269" stop-color="white"/>
<stop offset="1" stop-color="#A1C4FF"/>
</linearGradient>
<linearGradient id="paint5_linear_204_5269" x1="32.0415" y1="153.837" x2="1338.88" y2="153.837" gradientUnits="userSpaceOnUse">
<stop stop-color="#E5E5E5"/>
<stop offset="0.365385" stop-color="#A1C4FF"/>
<stop offset="0.668269" stop-color="white"/>
<stop offset="1" stop-color="#A1C4FF"/>
</linearGradient>
<linearGradient id="paint6_linear_204_5269" x1="24.4557" y1="162.446" x2="1345.78" y2="162.446" gradientUnits="userSpaceOnUse">
<stop stop-color="#E5E5E5"/>
<stop offset="0.365385" stop-color="#A1C4FF"/>
<stop offset="0.668269" stop-color="white"/>
<stop offset="1" stop-color="#A1C4FF"/>
</linearGradient>
<linearGradient id="paint7_linear_204_5269" x1="17.2146" y1="170.62" x2="1352.33" y2="170.62" gradientUnits="userSpaceOnUse">
<stop stop-color="#E5E5E5"/>
<stop offset="0.365385" stop-color="#A1C4FF"/>
<stop offset="0.668269" stop-color="white"/>
<stop offset="1" stop-color="#A1C4FF"/>
</linearGradient>
<linearGradient id="paint8_linear_204_5269" x1="9.97351" y1="179.585" x2="1359.23" y2="179.585" gradientUnits="userSpaceOnUse">
<stop stop-color="#E5E5E5"/>
<stop offset="0.365385" stop-color="#A1C4FF"/>
<stop offset="0.668269" stop-color="white"/>
<stop offset="1" stop-color="#A1C4FF"/>
</linearGradient>
<linearGradient id="paint9_linear_204_5269" x1="1.00842" y1="189.422" x2="1366.47" y2="189.422" gradientUnits="userSpaceOnUse">
<stop stop-color="#E5E5E5"/>
<stop offset="0.365385" stop-color="#A1C4FF"/>
<stop offset="0.668269" stop-color="white"/>
<stop offset="1" stop-color="#A1C4FF"/>
</linearGradient>
<linearGradient id="paint10_linear_204_5269" x1="-7.95667" y1="200.122" x2="1374.74" y2="200.122" gradientUnits="userSpaceOnUse">
<stop stop-color="#E5E5E5"/>
<stop offset="0.365385" stop-color="#A1C4FF"/>
<stop offset="0.668269" stop-color="white"/>
<stop offset="1" stop-color="#A1C4FF"/>
</linearGradient>
<linearGradient id="paint11_linear_204_5269" x1="-16.577" y1="210.612" x2="1383.02" y2="210.612" gradientUnits="userSpaceOnUse">
<stop stop-color="#E5E5E5"/>
<stop offset="0.365385" stop-color="#A1C4FF"/>
<stop offset="0.668269" stop-color="white"/>
<stop offset="1" stop-color="#A1C4FF"/>
</linearGradient>
<linearGradient id="paint12_linear_204_5269" x1="-26.2317" y1="221.741" x2="1390.6" y2="221.741" gradientUnits="userSpaceOnUse">
<stop stop-color="#E5E5E5"/>
<stop offset="0.365385" stop-color="#A1C4FF"/>
<stop offset="0.668269" stop-color="white"/>
<stop offset="1" stop-color="#A1C4FF"/>
</linearGradient>
<linearGradient id="paint13_linear_204_5269" x1="-34.8522" y1="232.397" x2="1398.53" y2="232.397" gradientUnits="userSpaceOnUse">
<stop stop-color="#E5E5E5"/>
<stop offset="0.365385" stop-color="#A1C4FF"/>
<stop offset="0.668269" stop-color="white"/>
<stop offset="1" stop-color="#A1C4FF"/>
</linearGradient>
<linearGradient id="paint14_linear_204_5269" x1="-43.8173" y1="242.617" x2="1407.15" y2="242.617" gradientUnits="userSpaceOnUse">
<stop stop-color="#E5E5E5"/>
<stop offset="0.365385" stop-color="#A1C4FF"/>
<stop offset="0.668269" stop-color="white"/>
<stop offset="1" stop-color="#A1C4FF"/>
</linearGradient>
<linearGradient id="paint15_linear_204_5269" x1="-53.472" y1="253.256" x2="1414.74" y2="253.256" gradientUnits="userSpaceOnUse">
<stop stop-color="#E5E5E5"/>
<stop offset="0.365385" stop-color="#A1C4FF"/>
<stop offset="0.668269" stop-color="white"/>
<stop offset="1" stop-color="#A1C4FF"/>
</linearGradient>
<linearGradient id="paint16_linear_204_5269" x1="-62.0923" y1="263.864" x2="1423.71" y2="263.864" gradientUnits="userSpaceOnUse">
<stop stop-color="#E5E5E5"/>
<stop offset="0.365385" stop-color="#A1C4FF"/>
<stop offset="0.668269" stop-color="white"/>
<stop offset="1" stop-color="#A1C4FF"/>
</linearGradient>
<linearGradient id="paint17_linear_204_5269" x1="-71.7471" y1="274.975" x2="1431.64" y2="274.975" gradientUnits="userSpaceOnUse">
<stop stop-color="#E5E5E5"/>
<stop offset="0.365385" stop-color="#A1C4FF"/>
<stop offset="0.668269" stop-color="white"/>
<stop offset="1" stop-color="#A1C4FF"/>
</linearGradient>
<linearGradient id="paint18_linear_204_5269" x1="-83.4707" y1="288.118" x2="1441.29" y2="288.118" gradientUnits="userSpaceOnUse">
<stop stop-color="#E5E5E5"/>
<stop offset="0.365385" stop-color="#A1C4FF"/>
<stop offset="0.668269" stop-color="white"/>
<stop offset="1" stop-color="#A1C4FF"/>
</linearGradient>
<linearGradient id="paint19_linear_204_5269" x1="-94.5046" y1="301.74" x2="1451.29" y2="301.74" gradientUnits="userSpaceOnUse">
<stop stop-color="#E5E5E5"/>
<stop offset="0.365385" stop-color="#A1C4FF"/>
<stop offset="0.668269" stop-color="white"/>
<stop offset="1" stop-color="#A1C4FF"/>
</linearGradient>
<linearGradient id="paint20_linear_204_5269" x1="-105.884" y1="314.809" x2="1460.6" y2="314.809" gradientUnits="userSpaceOnUse">
<stop stop-color="#E5E5E5"/>
<stop offset="0.365385" stop-color="#A1C4FF"/>
<stop offset="0.668269" stop-color="white"/>
<stop offset="1" stop-color="#A1C4FF"/>
</linearGradient>
<linearGradient id="paint21_linear_204_5269" x1="-116.228" y1="327.396" x2="1470.6" y2="327.396" gradientUnits="userSpaceOnUse">
<stop stop-color="#E5E5E5"/>
<stop offset="0.365385" stop-color="#A1C4FF"/>
<stop offset="0.668269" stop-color="white"/>
<stop offset="1" stop-color="#A1C4FF"/>
</linearGradient>
<linearGradient id="paint22_linear_204_5269" x1="-127.607" y1="340.094" x2="1480.26" y2="340.094" gradientUnits="userSpaceOnUse">
<stop stop-color="#E5E5E5"/>
<stop offset="0.365385" stop-color="#A1C4FF"/>
<stop offset="0.668269" stop-color="white"/>
<stop offset="1" stop-color="#A1C4FF"/>
</linearGradient>
<linearGradient id="paint23_linear_204_5269" x1="-138.641" y1="353.014" x2="1489.91" y2="353.014" gradientUnits="userSpaceOnUse">
<stop stop-color="#E5E5E5"/>
<stop offset="0.365385" stop-color="#A1C4FF"/>
<stop offset="0.668269" stop-color="white"/>
<stop offset="1" stop-color="#A1C4FF"/>
</linearGradient>
<linearGradient id="paint24_linear_204_5269" x1="-150.364" y1="366.108" x2="1500.25" y2="366.108" gradientUnits="userSpaceOnUse">
<stop stop-color="#E5E5E5"/>
<stop offset="0.365385" stop-color="#A1C4FF"/>
<stop offset="0.668269" stop-color="white"/>
<stop offset="1" stop-color="#A1C4FF"/>
</linearGradient>
<linearGradient id="paint25_linear_204_5269" x1="-161.743" y1="379.964" x2="1511.29" y2="379.964" gradientUnits="userSpaceOnUse">
<stop stop-color="#E5E5E5"/>
<stop offset="0.365385" stop-color="#A1C4FF"/>
<stop offset="0.668269" stop-color="white"/>
<stop offset="1" stop-color="#A1C4FF"/>
</linearGradient>
</defs>
</svg>
