<svg width="177" height="107" viewBox="0 0 177 107" fill="none" xmlns="http://www.w3.org/2000/svg">
<mask id="path-1-outside-1_483_871" maskUnits="userSpaceOnUse" x="-9.71484" y="-4.0307" width="196.497" height="145.258" fill="black">
<rect fill="white" x="-9.71484" y="-4.0307" width="196.497" height="145.258"/>
<path d="M21.2743 31.3096L25.9487 12.9918L32.3924 14.6361C37.485 15.9357 39.728 17.449 38.8063 21.0606C37.9311 24.4903 35.4689 23.945 33.4804 23.6036L33.2152 24.6429C35.9688 25.4563 38.8645 26.472 37.8699 30.3694C36.8091 34.5266 32.8106 34.2535 28.0298 33.0335L21.2743 31.3096ZM28.329 21.016L31.1351 21.7321C32.824 22.163 34.0192 22.468 34.4436 20.8052C34.8679 19.1423 33.6727 18.8373 31.9838 18.4063L29.1777 17.6902L28.329 21.016ZM26.3598 28.7329L29.4777 29.5285C31.9461 30.1584 33.4011 30.5297 33.9183 28.503C34.4421 26.4504 32.987 26.0791 30.5187 25.4492L27.4007 24.6536L26.3598 28.7329ZM38.706 35.7579L41.5505 24.6113C41.9151 23.1823 42.9195 22.6083 44.3419 22.999L52.8892 25.4015L51.9609 29.0391L45.3231 27.1792L42.8633 36.8187L38.706 35.7579ZM51.2554 35.1412C51.8322 32.8807 53.5215 31.9003 57.5581 32.3493L61.8353 32.8319C62.1071 31.7666 61.4414 30.9049 59.6486 30.4474C57.9857 30.023 56.8713 30.4858 56.5663 31.6811L52.6689 30.6865C53.5176 27.3607 56.847 26.1347 60.5106 27.0696C64.1221 27.9912 66.8478 30.541 65.7472 34.8541L64.8056 38.5436L66.7024 39.0277L65.7741 42.6652L62.89 41.9293C61.6429 41.611 61.1204 40.7305 61.4386 39.4833L61.5049 39.2235L62.5523 37.8303L61.513 37.565C60.4624 39.6216 58.7185 41.1415 55.0549 40.2066C50.9756 39.1656 50.9106 36.4923 51.2554 35.1412ZM55.6115 35.4226C55.4193 36.1761 56.0871 36.5956 56.7886 36.7746C59.0751 37.358 60.8274 36.7813 61.2385 35.1703L57.7674 34.7827C56.4738 34.6463 55.8038 34.6691 55.6115 35.4226ZM77.7127 35.3338C75.4522 34.7569 73.6662 35.5742 72.7247 39.2638L71.4848 44.1225L67.3276 43.0617L70.6759 29.9404L74.8332 31.0013L74.4287 32.5862L73.0525 34.7257L74.0918 34.9909C75.2082 32.7851 77.3158 31.3581 80.122 32.0741C83.4737 32.9295 84.9302 35.6811 83.8958 39.7344L82.0857 46.8277L77.9285 45.7669L79.5729 39.3231C80.1828 36.9327 79.7134 35.8443 77.7127 35.3338ZM98.9085 51.1206L94.7513 50.0598L94.9568 49.2543L96.333 47.1148L95.2937 46.8496C94.174 48.418 92.5024 49.7626 89.2546 48.9338C85.4611 47.9658 84.36 44.3639 85.3082 40.6483C86.2563 36.9328 88.9421 34.3249 92.7356 35.2929C95.9834 36.1217 96.8062 38.1029 97.0375 40.0161L98.0768 40.2813L97.8941 37.744L99.6246 30.9625L103.782 32.0233L98.9085 51.1206ZM96.4288 43.4861C96.9924 41.2776 95.9905 39.998 93.756 39.4278C91.5215 38.8576 90.029 39.5007 89.4654 41.7092C88.9018 43.9177 89.897 45.2233 92.1316 45.7935C94.3661 46.3638 95.8652 45.6947 96.4288 43.4861ZM110.07 38.6094C108.537 38.2182 107.813 37.2586 108.158 35.9075C108.496 34.5824 109.598 34.061 111.131 34.4522C112.664 34.8434 113.433 35.8422 113.095 37.1673C112.75 38.5184 111.603 39.0006 110.07 38.6094ZM101.012 51.6573L101.94 48.0197L105.655 48.9679L107.187 42.9659L103.951 42.3062L104.88 38.6687L109.883 39.6686C111.358 39.962 111.958 40.973 111.586 42.428L109.657 49.989L113.372 50.9371L112.444 54.5747L101.012 51.6573ZM124.4 47.2478C122.14 46.6709 120.354 47.4882 119.412 51.1777L118.172 56.0365L114.015 54.9756L117.364 41.8544L121.521 42.9152L121.116 44.5002L119.74 46.6397L120.779 46.9049C121.896 44.6991 124.004 43.272 126.81 43.9881C130.161 44.8434 131.618 47.5951 130.584 51.6484L128.773 58.7417L124.616 57.6808L126.261 51.2371C126.871 48.8467 126.401 47.7583 124.4 47.2478ZM149.314 50.0077L150.458 50.2995L149.529 53.937L148.646 53.7116C148.256 53.6122 147.789 53.4928 147.365 53.6338C147.468 53.8815 147.523 54.5321 147.344 55.2337C146.714 57.702 144.004 58.6709 140.081 58.9704C143.115 59.551 145.697 61.04 144.987 63.8201C143.999 67.6915 139.34 66.9729 129.596 64.4865L130.524 60.849C139.021 63.0171 140.665 63.2983 141.029 61.8692C141.52 59.9465 136.598 59.6038 132.399 59.2517L132.554 56.8005C135.621 57.2512 138.403 57.629 140.939 57.6674L141.204 56.628C135.96 57.1163 131.072 55.1218 132.173 50.8087C133.055 47.353 136.753 46.5255 140.884 47.5798C142.885 48.0903 144.604 48.9442 145.723 50.3089C146.761 49.4945 148.145 49.7094 149.314 50.0077ZM139.327 54.7653C141.822 55.4018 142.968 55.0302 143.253 53.913C143.532 52.8217 142.71 51.9202 140.216 51.2837C137.722 50.6471 136.543 51.0381 136.264 52.1294C135.979 53.2466 136.833 54.1288 139.327 54.7653ZM157.217 68.2209C159.194 69.4608 159.611 71.3688 157.95 75.0753L156.184 79.0005C157.116 79.5848 158.139 79.2142 159.123 77.6468C160.035 76.1931 159.935 74.9906 158.89 74.335L161.027 70.9278C163.935 72.7519 164.085 76.2967 162.076 79.4995C160.095 82.6569 156.834 84.4733 153.064 82.1076L149.838 80.084L148.798 81.7421L145.618 79.747L147.199 77.2256C147.884 76.1353 148.882 75.9068 149.972 76.5908L150.199 76.7334L151.206 78.1563L151.776 77.2477C150.138 75.619 149.224 73.4942 151.233 70.2913C153.471 66.7251 156.036 67.4799 157.217 68.2209ZM155.619 72.2829C154.96 71.8696 154.356 72.3774 153.972 72.9907C152.718 74.9896 152.732 76.8343 154.14 77.7179L155.569 74.5311C156.094 73.3411 156.277 72.6962 155.619 72.2829ZM144 78.6143C146.328 78.4533 147.768 77.1174 147.505 73.3186L147.159 68.3161L151.439 68.0202L152.373 81.5297L148.093 81.8256L147.98 80.1938L148.616 77.7307L147.546 77.8046C147.178 80.2493 145.624 82.2651 142.735 82.4649C139.284 82.7035 137.038 80.5471 136.749 76.3739L136.245 69.0707L140.525 68.7748L140.983 75.4092C141.154 77.8703 141.941 78.7567 144 78.6143ZM118.924 70.2682L123.204 69.9723L123.262 70.8016L122.625 73.2647L123.696 73.1907C124.267 71.3503 125.433 69.5494 128.777 69.3182C132.683 69.0482 134.857 72.1234 135.122 75.9488C135.386 79.7743 133.654 83.0927 129.748 83.3628C126.404 83.594 125.001 81.9706 124.182 80.2264L123.112 80.3004L124.081 82.6525L124.564 89.6346L120.283 89.9306L118.924 70.2682ZM123.672 76.7404C123.829 79.0143 125.182 79.9153 127.483 79.7563C129.783 79.5972 130.999 78.5186 130.842 76.2447C130.684 73.9709 129.33 73.0431 127.029 73.2022C124.729 73.3612 123.515 74.4665 123.672 76.7404ZM102.552 90.3501C97.5226 90.6978 92.1887 89.7495 91.6283 81.6438C91.066 73.5113 96.2187 71.838 101.248 71.4903L108.203 71.0094L109.507 89.8692L102.552 90.3501ZM101.507 75.2355C98.163 75.4667 95.5331 75.9173 95.9085 81.3479C96.2821 86.7517 98.949 86.8361 102.293 86.6049L104.968 86.4199L104.182 75.0506L101.507 75.2355ZM90.1204 79.2214C90.4163 83.5016 87.678 86.2714 83.478 86.5617C79.278 86.8521 76.1633 84.5677 75.8804 80.4747L75.7879 79.1371L86.0337 78.4287C85.9264 76.8772 84.727 75.858 82.2927 76.0263C80.7946 76.1299 79.708 76.7426 79.5108 77.7777L75.2305 78.0736C75.363 76.1022 77.3707 72.8723 82.0522 72.5486C87.242 72.1898 89.8559 75.3959 90.1204 79.2214ZM86.2002 80.8364L79.9671 81.2673C80.0373 82.2839 80.8567 83.2486 83.2376 83.084C85.6184 82.9194 86.2704 81.8529 86.2002 80.8364ZM60.697 78.0301C60.5398 75.7562 62.0532 73.9313 66.708 73.6095C71.6838 73.2655 73.9626 75.1239 74.1808 78.2806L69.9006 78.5765C69.8285 77.5332 69.0433 76.6736 66.7962 76.8289C65.6459 76.9085 64.9421 77.2259 64.9865 77.8679C65.0346 78.5635 65.7965 78.699 68.0133 79.2714C70.5853 79.9269 73.708 80.383 73.917 83.4059C74.0834 85.8135 72.0127 87.3544 68.2943 87.6115C63.7198 87.9278 61.69 85.7834 61.5087 83.1617L65.789 82.8658C65.8555 83.8288 66.6278 84.5012 68.0991 84.3995C69.1156 84.3292 69.6608 84.0496 69.6238 83.5146C69.5794 82.8725 68.2141 82.5637 66.0259 82.0161C63.3451 81.3414 60.8912 80.839 60.697 78.0301ZM54.3296 89.6522C55.9079 89.543 56.896 90.2273 56.9922 91.6184C57.0865 92.9827 56.2038 93.8233 54.6255 93.9324C53.0472 94.0415 52.0037 93.3342 51.9094 91.9698C51.8132 90.5787 52.7512 89.7613 54.3296 89.6522ZM58.8406 74.4222L59.0996 78.1674L55.2741 78.4319L55.7013 84.6115L58.9807 84.2235L59.2396 87.9687L54.1753 88.5876C52.6828 88.7715 51.7962 87.9995 51.6926 86.5014L51.1544 78.7167L47.3289 78.9812L47.07 75.236L58.8406 74.4222ZM32.1692 89.8403L30.9921 89.9217L30.7332 86.1765L31.6427 86.1136C32.044 86.0858 32.5255 86.0526 32.8834 85.7859C32.7081 85.583 32.4516 84.9825 32.4016 84.2602C32.2259 81.7188 34.4958 79.9491 38.1274 78.4347C35.0639 78.8347 32.146 78.23 31.9481 75.3676C31.6725 71.3816 36.3226 70.6032 46.3544 69.9096L46.6133 73.6548C37.8656 74.2596 36.2162 74.5081 36.318 75.9794C36.4548 77.959 41.2358 76.7414 45.3342 75.7592L45.9554 78.1354C42.9012 78.6691 40.1412 79.1825 37.7208 79.9412L37.7948 81.0112C42.6217 78.9035 47.8882 79.2651 48.1952 83.7059C48.4412 87.2638 45.1889 89.2089 40.9354 89.503C38.8756 89.6454 36.9752 89.3736 35.4852 88.4283C34.7548 89.5271 33.373 89.7571 32.1692 89.8403ZM40.1611 82.1916C37.593 82.3692 36.6208 83.0815 36.7004 84.2318C36.778 85.3554 37.8408 85.9539 40.409 85.7763C42.9771 85.5987 43.9742 84.8578 43.8965 83.7343C43.817 82.584 42.7293 82.0141 40.1611 82.1916ZM20.7452 87.1358C23.0725 86.9749 24.5123 85.6389 24.2497 81.8402L23.9038 76.8377L28.184 76.5417L29.118 90.0512L24.8378 90.3472L24.725 88.7153L25.3611 86.2522L24.291 86.3262C23.9224 88.7708 22.3684 90.7867 19.4793 90.9864C16.0283 91.225 13.7826 89.0687 13.4941 84.8954L12.9892 77.5923L17.2694 77.2964L17.7281 83.9307C17.8983 86.3919 18.6853 87.2782 20.7452 87.1358Z"/>
</mask>
<path d="M21.2743 31.3096L25.9487 12.9918L32.3924 14.6361C37.485 15.9357 39.728 17.449 38.8063 21.0606C37.9311 24.4903 35.4689 23.945 33.4804 23.6036L33.2152 24.6429C35.9688 25.4563 38.8645 26.472 37.8699 30.3694C36.8091 34.5266 32.8106 34.2535 28.0298 33.0335L21.2743 31.3096ZM28.329 21.016L31.1351 21.7321C32.824 22.163 34.0192 22.468 34.4436 20.8052C34.8679 19.1423 33.6727 18.8373 31.9838 18.4063L29.1777 17.6902L28.329 21.016ZM26.3598 28.7329L29.4777 29.5285C31.9461 30.1584 33.4011 30.5297 33.9183 28.503C34.4421 26.4504 32.987 26.0791 30.5187 25.4492L27.4007 24.6536L26.3598 28.7329ZM38.706 35.7579L41.5505 24.6113C41.9151 23.1823 42.9195 22.6083 44.3419 22.999L52.8892 25.4015L51.9609 29.0391L45.3231 27.1792L42.8633 36.8187L38.706 35.7579ZM51.2554 35.1412C51.8322 32.8807 53.5215 31.9003 57.5581 32.3493L61.8353 32.8319C62.1071 31.7666 61.4414 30.9049 59.6486 30.4474C57.9857 30.023 56.8713 30.4858 56.5663 31.6811L52.6689 30.6865C53.5176 27.3607 56.847 26.1347 60.5106 27.0696C64.1221 27.9912 66.8478 30.541 65.7472 34.8541L64.8056 38.5436L66.7024 39.0277L65.7741 42.6652L62.89 41.9293C61.6429 41.611 61.1204 40.7305 61.4386 39.4833L61.5049 39.2235L62.5523 37.8303L61.513 37.565C60.4624 39.6216 58.7185 41.1415 55.0549 40.2066C50.9756 39.1656 50.9106 36.4923 51.2554 35.1412ZM55.6115 35.4226C55.4193 36.1761 56.0871 36.5956 56.7886 36.7746C59.0751 37.358 60.8274 36.7813 61.2385 35.1703L57.7674 34.7827C56.4738 34.6463 55.8038 34.6691 55.6115 35.4226ZM77.7127 35.3338C75.4522 34.7569 73.6662 35.5742 72.7247 39.2638L71.4848 44.1225L67.3276 43.0617L70.6759 29.9404L74.8332 31.0013L74.4287 32.5862L73.0525 34.7257L74.0918 34.9909C75.2082 32.7851 77.3158 31.3581 80.122 32.0741C83.4737 32.9295 84.9302 35.6811 83.8958 39.7344L82.0857 46.8277L77.9285 45.7669L79.5729 39.3231C80.1828 36.9327 79.7134 35.8443 77.7127 35.3338ZM98.9085 51.1206L94.7513 50.0598L94.9568 49.2543L96.333 47.1148L95.2937 46.8496C94.174 48.418 92.5024 49.7626 89.2546 48.9338C85.4611 47.9658 84.36 44.3639 85.3082 40.6483C86.2563 36.9328 88.9421 34.3249 92.7356 35.2929C95.9834 36.1217 96.8062 38.1029 97.0375 40.0161L98.0768 40.2813L97.8941 37.744L99.6246 30.9625L103.782 32.0233L98.9085 51.1206ZM96.4288 43.4861C96.9924 41.2776 95.9905 39.998 93.756 39.4278C91.5215 38.8576 90.029 39.5007 89.4654 41.7092C88.9018 43.9177 89.897 45.2233 92.1316 45.7935C94.3661 46.3638 95.8652 45.6947 96.4288 43.4861ZM110.07 38.6094C108.537 38.2182 107.813 37.2586 108.158 35.9075C108.496 34.5824 109.598 34.061 111.131 34.4522C112.664 34.8434 113.433 35.8422 113.095 37.1673C112.75 38.5184 111.603 39.0006 110.07 38.6094ZM101.012 51.6573L101.94 48.0197L105.655 48.9679L107.187 42.9659L103.951 42.3062L104.88 38.6687L109.883 39.6686C111.358 39.962 111.958 40.973 111.586 42.428L109.657 49.989L113.372 50.9371L112.444 54.5747L101.012 51.6573ZM124.4 47.2478C122.14 46.6709 120.354 47.4882 119.412 51.1777L118.172 56.0365L114.015 54.9756L117.364 41.8544L121.521 42.9152L121.116 44.5002L119.74 46.6397L120.779 46.9049C121.896 44.6991 124.004 43.272 126.81 43.9881C130.161 44.8434 131.618 47.5951 130.584 51.6484L128.773 58.7417L124.616 57.6808L126.261 51.2371C126.871 48.8467 126.401 47.7583 124.4 47.2478ZM149.314 50.0077L150.458 50.2995L149.529 53.937L148.646 53.7116C148.256 53.6122 147.789 53.4928 147.365 53.6338C147.468 53.8815 147.523 54.5321 147.344 55.2337C146.714 57.702 144.004 58.6709 140.081 58.9704C143.115 59.551 145.697 61.04 144.987 63.8201C143.999 67.6915 139.34 66.9729 129.596 64.4865L130.524 60.849C139.021 63.0171 140.665 63.2983 141.029 61.8692C141.52 59.9465 136.598 59.6038 132.399 59.2517L132.554 56.8005C135.621 57.2512 138.403 57.629 140.939 57.6674L141.204 56.628C135.96 57.1163 131.072 55.1218 132.173 50.8087C133.055 47.353 136.753 46.5255 140.884 47.5798C142.885 48.0903 144.604 48.9442 145.723 50.3089C146.761 49.4945 148.145 49.7094 149.314 50.0077ZM139.327 54.7653C141.822 55.4018 142.968 55.0302 143.253 53.913C143.532 52.8217 142.71 51.9202 140.216 51.2837C137.722 50.6471 136.543 51.0381 136.264 52.1294C135.979 53.2466 136.833 54.1288 139.327 54.7653ZM157.217 68.2209C159.194 69.4608 159.611 71.3688 157.95 75.0753L156.184 79.0005C157.116 79.5848 158.139 79.2142 159.123 77.6468C160.035 76.1931 159.935 74.9906 158.89 74.335L161.027 70.9278C163.935 72.7519 164.085 76.2967 162.076 79.4995C160.095 82.6569 156.834 84.4733 153.064 82.1076L149.838 80.084L148.798 81.7421L145.618 79.747L147.199 77.2256C147.884 76.1353 148.882 75.9068 149.972 76.5908L150.199 76.7334L151.206 78.1563L151.776 77.2477C150.138 75.619 149.224 73.4942 151.233 70.2913C153.471 66.7251 156.036 67.4799 157.217 68.2209ZM155.619 72.2829C154.96 71.8696 154.356 72.3774 153.972 72.9907C152.718 74.9896 152.732 76.8343 154.14 77.7179L155.569 74.5311C156.094 73.3411 156.277 72.6962 155.619 72.2829ZM144 78.6143C146.328 78.4533 147.768 77.1174 147.505 73.3186L147.159 68.3161L151.439 68.0202L152.373 81.5297L148.093 81.8256L147.98 80.1938L148.616 77.7307L147.546 77.8046C147.178 80.2493 145.624 82.2651 142.735 82.4649C139.284 82.7035 137.038 80.5471 136.749 76.3739L136.245 69.0707L140.525 68.7748L140.983 75.4092C141.154 77.8703 141.941 78.7567 144 78.6143ZM118.924 70.2682L123.204 69.9723L123.262 70.8016L122.625 73.2647L123.696 73.1907C124.267 71.3503 125.433 69.5494 128.777 69.3182C132.683 69.0482 134.857 72.1234 135.122 75.9488C135.386 79.7743 133.654 83.0927 129.748 83.3628C126.404 83.594 125.001 81.9706 124.182 80.2264L123.112 80.3004L124.081 82.6525L124.564 89.6346L120.283 89.9306L118.924 70.2682ZM123.672 76.7404C123.829 79.0143 125.182 79.9153 127.483 79.7563C129.783 79.5972 130.999 78.5186 130.842 76.2447C130.684 73.9709 129.33 73.0431 127.029 73.2022C124.729 73.3612 123.515 74.4665 123.672 76.7404ZM102.552 90.3501C97.5226 90.6978 92.1887 89.7495 91.6283 81.6438C91.066 73.5113 96.2187 71.838 101.248 71.4903L108.203 71.0094L109.507 89.8692L102.552 90.3501ZM101.507 75.2355C98.163 75.4667 95.5331 75.9173 95.9085 81.3479C96.2821 86.7517 98.949 86.8361 102.293 86.6049L104.968 86.4199L104.182 75.0506L101.507 75.2355ZM90.1204 79.2214C90.4163 83.5016 87.678 86.2714 83.478 86.5617C79.278 86.8521 76.1633 84.5677 75.8804 80.4747L75.7879 79.1371L86.0337 78.4287C85.9264 76.8772 84.727 75.858 82.2927 76.0263C80.7946 76.1299 79.708 76.7426 79.5108 77.7777L75.2305 78.0736C75.363 76.1022 77.3707 72.8723 82.0522 72.5486C87.242 72.1898 89.8559 75.3959 90.1204 79.2214ZM86.2002 80.8364L79.9671 81.2673C80.0373 82.2839 80.8567 83.2486 83.2376 83.084C85.6184 82.9194 86.2704 81.8529 86.2002 80.8364ZM60.697 78.0301C60.5398 75.7562 62.0532 73.9313 66.708 73.6095C71.6838 73.2655 73.9626 75.1239 74.1808 78.2806L69.9006 78.5765C69.8285 77.5332 69.0433 76.6736 66.7962 76.8289C65.6459 76.9085 64.9421 77.2259 64.9865 77.8679C65.0346 78.5635 65.7965 78.699 68.0133 79.2714C70.5853 79.9269 73.708 80.383 73.917 83.4059C74.0834 85.8135 72.0127 87.3544 68.2943 87.6115C63.7198 87.9278 61.69 85.7834 61.5087 83.1617L65.789 82.8658C65.8555 83.8288 66.6278 84.5012 68.0991 84.3995C69.1156 84.3292 69.6608 84.0496 69.6238 83.5146C69.5794 82.8725 68.2141 82.5637 66.0259 82.0161C63.3451 81.3414 60.8912 80.839 60.697 78.0301ZM54.3296 89.6522C55.9079 89.543 56.896 90.2273 56.9922 91.6184C57.0865 92.9827 56.2038 93.8233 54.6255 93.9324C53.0472 94.0415 52.0037 93.3342 51.9094 91.9698C51.8132 90.5787 52.7512 89.7613 54.3296 89.6522ZM58.8406 74.4222L59.0996 78.1674L55.2741 78.4319L55.7013 84.6115L58.9807 84.2235L59.2396 87.9687L54.1753 88.5876C52.6828 88.7715 51.7962 87.9995 51.6926 86.5014L51.1544 78.7167L47.3289 78.9812L47.07 75.236L58.8406 74.4222ZM32.1692 89.8403L30.9921 89.9217L30.7332 86.1765L31.6427 86.1136C32.044 86.0858 32.5255 86.0526 32.8834 85.7859C32.7081 85.583 32.4516 84.9825 32.4016 84.2602C32.2259 81.7188 34.4958 79.9491 38.1274 78.4347C35.0639 78.8347 32.146 78.23 31.9481 75.3676C31.6725 71.3816 36.3226 70.6032 46.3544 69.9096L46.6133 73.6548C37.8656 74.2596 36.2162 74.5081 36.318 75.9794C36.4548 77.959 41.2358 76.7414 45.3342 75.7592L45.9554 78.1354C42.9012 78.6691 40.1412 79.1825 37.7208 79.9412L37.7948 81.0112C42.6217 78.9035 47.8882 79.2651 48.1952 83.7059C48.4412 87.2638 45.1889 89.2089 40.9354 89.503C38.8756 89.6454 36.9752 89.3736 35.4852 88.4283C34.7548 89.5271 33.373 89.7571 32.1692 89.8403ZM40.1611 82.1916C37.593 82.3692 36.6208 83.0815 36.7004 84.2318C36.778 85.3554 37.8408 85.9539 40.409 85.7763C42.9771 85.5987 43.9742 84.8578 43.8965 83.7343C43.817 82.584 42.7293 82.0141 40.1611 82.1916ZM20.7452 87.1358C23.0725 86.9749 24.5123 85.6389 24.2497 81.8402L23.9038 76.8377L28.184 76.5417L29.118 90.0512L24.8378 90.3472L24.725 88.7153L25.3611 86.2522L24.291 86.3262C23.9224 88.7708 22.3684 90.7867 19.4793 90.9864C16.0283 91.225 13.7826 89.0687 13.4941 84.8954L12.9892 77.5923L17.2694 77.2964L17.7281 83.9307C17.8983 86.3919 18.6853 87.2782 20.7452 87.1358Z" fill="#8FD37D"/>
<path d="M21.2743 31.3096L8.68893 28.098C6.91521 35.0487 11.112 42.1212 18.0627 43.8949L21.2743 31.3096ZM25.9487 12.9918L29.1603 0.406401C22.2096 -1.36731 15.1371 2.82947 13.3633 9.78017L25.9487 12.9918ZM33.4804 23.6036L35.6781 10.8022C29.004 9.65636 22.5694 13.8305 20.895 20.392L33.4804 23.6036ZM33.2152 24.6429L20.6298 21.4313C18.9028 28.1991 22.8371 35.1208 29.5357 37.0995L33.2152 24.6429ZM28.329 21.016L15.7436 17.8044C13.9699 24.7551 18.1667 31.8276 25.1174 33.6014L28.329 21.016ZM29.1777 17.6902L32.3893 5.10484C25.4386 3.33113 18.366 7.52791 16.5923 14.4786L29.1777 17.6902ZM26.3598 28.7329L13.7744 25.5213C12.0007 32.472 16.1975 39.5445 23.1482 41.3182L26.3598 28.7329ZM27.4007 24.6536L30.6123 12.0682C23.6616 10.2945 16.5891 14.4913 14.8154 21.442L27.4007 24.6536ZM21.2743 31.3096L33.8597 34.5212L38.5341 16.2034L25.9487 12.9918L13.3633 9.78017L8.68893 28.098L21.2743 31.3096ZM25.9487 12.9918L22.7371 25.5771L29.1808 27.2215L32.3924 14.6361L35.604 2.05074L29.1603 0.406401L25.9487 12.9918ZM32.3924 14.6361L29.1808 27.2215C30.1561 27.4703 30.5743 27.6269 30.6653 27.665C30.7959 27.7195 30.0414 27.4394 29.0765 26.5547C27.9398 25.5123 26.7881 23.8757 26.2766 21.7369C25.8085 19.7794 26.0997 18.3242 26.221 17.849L38.8063 21.0606L51.3917 24.2721C51.9738 21.9911 52.3302 18.9924 51.5416 15.6948C50.7096 12.2159 48.8518 9.4425 46.6329 7.40793C42.9182 4.0018 38.1495 2.70029 35.604 2.05074L32.3924 14.6361ZM38.8063 21.0606L26.221 17.849C26.3725 17.2552 26.8579 15.7817 28.2495 14.2423C29.7543 12.5779 31.6243 11.6033 33.3336 11.1648C34.8253 10.7822 35.9299 10.8733 36.1527 10.8926C36.3093 10.9062 36.4587 10.9362 35.6781 10.8022L33.4804 23.6036L31.2826 36.405C31.4963 36.4417 32.6991 36.6678 33.9041 36.7725C35.1751 36.8829 37.3228 36.9599 39.788 36.3276C42.4709 35.6394 45.2448 34.1794 47.5196 31.6633C49.6812 29.2722 50.8026 26.5808 51.3917 24.2721L38.8063 21.0606ZM33.4804 23.6036L20.895 20.392L20.6298 21.4313L33.2152 24.6429L45.8005 27.8545L46.0657 26.8152L33.4804 23.6036ZM33.2152 24.6429L29.5357 37.0995C30.1989 37.2954 30.2888 37.3394 30.2085 37.3056C30.1359 37.275 29.2962 36.9302 28.297 36.038C27.1493 35.0131 25.9638 33.4118 25.3979 31.2862C24.8649 29.2839 25.1323 27.7543 25.2846 27.1578L37.8699 30.3694L50.4553 33.581C51.1048 31.0357 51.3833 27.9176 50.501 24.6033C49.5858 21.1657 47.6907 18.5289 45.5992 16.6613C42.1266 13.5604 37.7875 12.45 36.8947 12.1863L33.2152 24.6429ZM37.8699 30.3694L25.2846 27.1578C25.5252 26.215 26.2065 24.5551 27.8586 23.0652C29.4843 21.5992 31.179 21.0837 32.1335 20.9188C32.9776 20.773 33.382 20.8699 33.0371 20.827C32.7375 20.7898 32.1799 20.6876 31.2414 20.4481L28.0298 33.0335L24.8182 45.6188C27.2517 46.2398 31.8449 47.3309 36.5562 46.5169C39.2405 46.0531 42.4325 44.9027 45.2557 42.3568C48.1053 39.787 49.6843 36.6023 50.4553 33.581L37.8699 30.3694ZM28.0298 33.0335L31.2414 20.4481L24.4859 18.7242L21.2743 31.3096L18.0627 43.8949L24.8182 45.6188L28.0298 33.0335ZM28.329 21.016L25.1174 33.6014L27.9235 34.3174L31.1351 21.7321L34.3467 9.14671L31.5406 8.43063L28.329 21.016ZM31.1351 21.7321L27.9235 34.3174C28.2208 34.3933 29.1103 34.6276 30.0351 34.7917C30.9227 34.9493 32.7916 35.2309 35.0403 34.9204C37.597 34.5673 40.6277 33.4434 43.1788 30.8871C45.5443 28.5168 46.5629 25.843 47.0289 24.0167L34.4436 20.8052L21.8582 17.5936C22.1121 16.5987 22.8221 14.5104 24.7914 12.5371C26.9462 10.3778 29.493 9.46256 31.4867 9.18724C33.1725 8.95444 34.3994 9.18298 34.5747 9.21409C34.7872 9.2518 34.8939 9.28634 34.3467 9.14671L31.1351 21.7321ZM34.4436 20.8052L47.0289 24.0167C47.495 22.1905 47.8821 19.3555 46.9417 16.1416C45.9274 12.6755 43.8058 10.2368 41.7309 8.70182C39.906 7.35176 38.1306 6.70346 37.276 6.41641C36.3856 6.11735 35.4926 5.89677 35.1954 5.82092L31.9838 18.4063L28.7722 30.9917C29.3194 31.1313 29.2092 31.1105 29.0046 31.0418C28.8359 30.9851 27.6495 30.5978 26.2814 29.5857C24.6634 28.3887 22.8666 26.365 22.0098 23.4372C21.2269 20.7616 21.6043 18.5884 21.8582 17.5936L34.4436 20.8052ZM31.9838 18.4063L35.1954 5.82092L32.3893 5.10484L29.1777 17.6902L25.9661 30.2756L28.7722 30.9917L31.9838 18.4063ZM29.1777 17.6902L16.5923 14.4786L15.7436 17.8044L28.329 21.016L40.9144 24.2276L41.7631 20.9018L29.1777 17.6902ZM26.3598 28.7329L23.1482 41.3182L26.2661 42.1139L29.4777 29.5285L32.6893 16.9431L29.5714 16.1475L26.3598 28.7329ZM29.4777 29.5285L26.2661 42.1139C26.7629 42.2406 27.763 42.5017 28.7579 42.6873C29.6943 42.8621 31.6015 43.1723 33.8621 42.9214C36.4353 42.6359 39.6503 41.5949 42.3982 38.9286C44.9482 36.4544 46.0193 33.6125 46.5036 31.7146L33.9183 28.503L21.3329 25.2914C21.5586 24.4069 22.2539 22.2786 24.3085 20.285C26.5609 18.0995 29.161 17.3063 30.9973 17.1025C31.8265 17.0105 32.4759 17.0372 32.8488 17.0665C33.2254 17.0961 33.4715 17.1412 33.5224 17.1507C33.5341 17.1528 33.4267 17.1313 32.6893 16.9431L29.4777 29.5285ZM33.9183 28.503L46.5036 31.7146C46.9837 29.8332 47.4087 26.8472 46.3824 23.4709C45.2718 19.8174 42.9697 17.3403 40.8284 15.8295C38.9525 14.506 37.1147 13.8566 36.2024 13.5582C35.2342 13.2416 34.2255 12.9902 33.7303 12.8638L30.5187 25.4492L27.3071 38.0346C28.046 38.2232 28.1449 38.2544 28.1273 38.2487C28.0744 38.2314 27.8313 38.1508 27.4803 37.9926C27.1325 37.8359 26.5425 37.5424 25.8526 37.0556C24.3182 35.9731 22.4359 34.013 21.528 31.0261C20.7043 28.3164 21.1147 26.1465 21.3329 25.2914L33.9183 28.503ZM30.5187 25.4492L33.7303 12.8638L30.6123 12.0682L27.4007 24.6536L24.1892 37.2389L27.3071 38.0346L30.5187 25.4492ZM27.4007 24.6536L14.8154 21.442L13.7744 25.5213L26.3598 28.7329L38.9451 31.9444L39.9861 27.8652L27.4007 24.6536ZM38.706 35.7579L26.1207 32.5463C24.347 39.497 28.5437 46.5695 35.4944 48.3432L38.706 35.7579ZM44.3419 22.999L47.8567 10.4949C47.8317 10.4879 47.8068 10.4809 47.7818 10.4741L44.3419 22.999ZM52.8892 25.4015L65.4745 28.6131C67.218 21.7808 63.192 14.8054 56.4039 12.8974L52.8892 25.4015ZM51.9609 29.0391L48.4564 41.546C51.8241 42.4897 55.43 42.0353 58.4583 40.2858C61.4867 38.5363 63.6815 35.6394 64.5463 32.2507L51.9609 29.0391ZM45.3231 27.1792L48.8276 14.6722C45.4599 13.7286 41.854 14.1829 38.8257 15.9324C35.7974 17.682 33.6025 20.5788 32.7378 23.9676L45.3231 27.1792ZM42.8633 36.8187L39.6517 49.4041C46.6024 51.1778 53.6749 46.981 55.4486 40.0303L42.8633 36.8187ZM38.706 35.7579L51.2914 38.9695L54.1358 27.8229L41.5505 24.6113L28.9651 21.3997L26.1207 32.5463L38.706 35.7579ZM41.5505 24.6113L54.1358 27.8229C53.7282 29.4201 52.4416 32.4143 49.0322 34.378C45.6426 36.3303 42.4403 35.9463 40.9021 35.5239L44.3419 22.999L47.7818 10.4741C44.8211 9.66095 40.4054 9.36864 36.0669 11.8675C31.7085 14.3778 29.7374 18.3734 28.9651 21.3997L41.5505 24.6113ZM44.3419 22.999L40.8272 35.5031L49.3744 37.9056L52.8892 25.4015L56.4039 12.8974L47.8567 10.4949L44.3419 22.999ZM52.8892 25.4015L40.3038 22.1899L39.3755 25.8275L51.9609 29.0391L64.5463 32.2507L65.4745 28.6131L52.8892 25.4015ZM51.9609 29.0391L55.4654 16.5321L48.8276 14.6722L45.3231 27.1792L41.8187 39.6861L48.4564 41.546L51.9609 29.0391ZM45.3231 27.1792L32.7378 23.9676L30.2779 33.6071L42.8633 36.8187L55.4486 40.0303L57.9085 30.3908L45.3231 27.1792ZM42.8633 36.8187L46.0749 24.2334L41.9176 23.1725L38.706 35.7579L35.4944 48.3432L39.6517 49.4041L42.8633 36.8187ZM57.5581 32.3493L59.0145 19.4425C59.0076 19.4417 59.0007 19.4409 58.9938 19.4402L57.5581 32.3493ZM61.8353 32.8319L60.3789 45.7387C66.8236 46.4658 72.817 42.3276 74.4206 36.0435L61.8353 32.8319ZM56.5663 31.6811L53.3547 44.2664C60.3054 46.0401 67.378 41.8434 69.1517 34.8926L56.5663 31.6811ZM52.6689 30.6865L40.0835 27.4749C38.3098 34.4256 42.5066 41.4981 49.4573 43.2719L52.6689 30.6865ZM64.8056 38.5436L52.2203 35.3321C50.4466 42.2828 54.6433 49.3553 61.5941 51.129L64.8056 38.5436ZM66.7024 39.0277L79.2877 42.2393C81.0615 35.2885 76.8647 28.216 69.914 26.4423L66.7024 39.0277ZM65.7741 42.6652L62.5625 55.2506C69.5132 57.0243 76.5858 52.8275 78.3595 45.8768L65.7741 42.6652ZM61.5049 39.2235L51.1229 31.4184C50.0924 32.7891 49.3436 34.3503 48.9196 36.0119L61.5049 39.2235ZM62.5523 37.8303L72.9343 45.6353C75.544 42.1641 76.2461 37.6182 74.8054 33.5214C73.3648 29.4245 69.9719 26.3187 65.7639 25.2449L62.5523 37.8303ZM61.513 37.565L64.7246 24.9797C58.8437 23.4789 52.7075 26.2511 49.9463 31.656L61.513 37.565ZM61.2385 35.1703L73.8239 38.3819C74.7531 34.7407 74.0597 30.8755 71.9227 27.7843C69.7858 24.6931 66.4148 22.679 62.68 22.2619L61.2385 35.1703ZM57.7674 34.7827L59.2089 21.8743C59.1824 21.8713 59.1558 21.8684 59.1292 21.8656L57.7674 34.7827ZM51.2554 35.1412L63.8408 38.3528C63.6691 39.0255 63.2601 40.2124 62.3009 41.4893C61.2859 42.8405 59.9895 43.8446 58.6535 44.4752C56.3833 45.5467 54.9044 45.1229 56.1225 45.2584L57.5581 32.3493L58.9938 19.4402C56.1752 19.1267 51.8334 18.9686 47.5652 20.9832C42.314 23.4618 39.6899 27.9328 38.67 31.9296L51.2554 35.1412ZM57.5581 32.3493L56.1018 45.256L60.3789 45.7387L61.8353 32.8319L63.2916 19.9251L59.0145 19.4425L57.5581 32.3493ZM61.8353 32.8319L74.4206 36.0435C75.5209 31.7317 74.7062 26.7453 71.2735 22.8384C68.4537 19.6292 64.9409 18.3929 62.8602 17.862L59.6486 30.4474L56.437 43.0327C56.1492 42.9593 53.8656 42.3826 51.7589 39.985C50.5987 38.6645 49.6278 36.9273 49.1738 34.8593C48.7281 32.829 48.8953 31.0097 49.2499 29.6203L61.8353 32.8319ZM59.6486 30.4474L62.8602 17.862C60.5062 17.2613 56.7444 16.7922 52.7302 18.4149C48.0934 20.2894 45.0775 24.1725 43.981 28.4695L56.5663 31.6811L69.1517 34.8926C68.3601 37.9945 66.054 41.0485 62.4663 42.4988C59.5013 43.6974 57.1282 43.2091 56.437 43.0327L59.6486 30.4474ZM56.5663 31.6811L59.7779 19.0957L55.8805 18.1011L52.6689 30.6865L49.4573 43.2719L53.3547 44.2664L56.5663 31.6811ZM52.6689 30.6865L65.2543 33.8981C65 34.8947 64.4748 36.0216 63.5829 37.0582C62.6988 38.0857 61.6665 38.7785 60.7004 39.1973C58.8607 39.9949 57.5558 39.7205 57.299 39.655L60.5106 27.0696L63.7221 14.4842C59.8018 13.4838 55.0003 13.355 50.3679 15.3633C45.3688 17.5305 41.5237 21.8313 40.0835 27.4749L52.6689 30.6865ZM60.5106 27.0696L57.299 39.655C57.2162 39.6339 56.9067 39.547 56.4542 39.2827C55.9957 39.0148 55.2886 38.5021 54.607 37.6174C53.8919 36.6893 53.3535 35.5382 53.1241 34.2831C52.9002 33.0579 53.0397 32.1211 53.1618 31.6425L65.7472 34.8541L78.3325 38.0657C79.7603 32.4707 78.8757 26.553 75.1849 21.7627C71.8681 17.4578 67.3233 15.4032 63.7221 14.4842L60.5106 27.0696ZM65.7472 34.8541L53.1618 31.6425L52.2203 35.3321L64.8056 38.5436L77.391 41.7552L78.3325 38.0657L65.7472 34.8541ZM64.8056 38.5436L61.5941 51.129L63.4908 51.613L66.7024 39.0277L69.914 26.4423L68.0172 25.9583L64.8056 38.5436ZM66.7024 39.0277L54.117 35.8161L53.1888 39.4536L65.7741 42.6652L78.3595 45.8768L79.2877 42.2393L66.7024 39.0277ZM65.7741 42.6652L68.9857 30.0799L66.1016 29.3439L62.89 41.9293L59.6785 54.5146L62.5625 55.2506L65.7741 42.6652ZM62.89 41.9293L66.1016 29.3439C67.7946 29.7759 70.7629 31.082 72.7474 34.4264C74.7319 37.7707 74.456 41.0019 74.024 42.6949L61.4386 39.4833L48.8533 36.2717C48.103 39.2119 47.9292 43.5069 50.4072 47.6829C52.8851 51.8588 56.7383 53.7643 59.6785 54.5146L62.89 41.9293ZM61.4386 39.4833L74.024 42.6949L74.0903 42.4351L61.5049 39.2235L48.9196 36.0119L48.8533 36.2717L61.4386 39.4833ZM61.5049 39.2235L71.887 47.0285L72.9343 45.6353L62.5523 37.8303L52.1703 30.0252L51.1229 31.4184L61.5049 39.2235ZM62.5523 37.8303L65.7639 25.2449L64.7246 24.9797L61.513 37.565L58.3014 50.1504L59.3407 50.4156L62.5523 37.8303ZM61.513 37.565L49.9463 31.656C50.0962 31.3626 51.0376 29.6165 53.3869 28.4245C55.9083 27.1453 57.9592 27.5428 58.2665 27.6212L55.0549 40.2066L51.8433 52.792C55.8142 53.8053 60.5689 53.9103 65.1407 51.5907C69.5405 49.3584 71.8792 45.8241 73.0797 43.474L61.513 37.565ZM55.0549 40.2066L58.2665 27.6212C58.9195 27.7879 61.5163 28.783 63.1165 31.9873C64.4822 34.7222 64.144 37.1644 63.8408 38.3528L51.2554 35.1412L38.67 31.9296C38.022 34.4691 37.5439 38.9235 39.8758 43.5931C42.4421 48.7321 47.1111 51.5844 51.8433 52.792L55.0549 40.2066ZM55.6115 35.4226L43.0262 32.211C41.6446 37.6252 43.6554 42.5973 46.8689 45.6829C49.3875 48.1013 52.1769 49.0027 53.577 49.3599L56.7886 36.7746L60.0002 24.1892C60.6988 24.3675 62.8036 24.9695 64.861 26.9451C66.0123 28.0506 67.2829 29.7283 68.007 32.0329C68.7513 34.4016 68.6885 36.7078 68.1969 38.6342L55.6115 35.4226ZM56.7886 36.7746L53.577 49.3599C56.2594 50.0444 60.0509 50.4463 64.0258 49.0485C68.5528 47.4565 72.4571 43.7378 73.8239 38.3819L61.2385 35.1703L48.6532 31.9587C49.0678 30.3339 49.918 28.6653 51.2727 27.2386C52.6045 25.8362 54.1053 25.0003 55.4079 24.5422C57.8323 23.6897 59.6044 24.0882 60.0002 24.1892L56.7886 36.7746ZM61.2385 35.1703L62.68 22.2619L59.2089 21.8743L57.7674 34.7827L56.3259 47.6911L59.797 48.0788L61.2385 35.1703ZM57.7674 34.7827L59.1292 21.8656C58.8624 21.8375 56.1593 21.4554 53.3113 22.1232C51.4989 22.5482 49.0478 23.5022 46.8392 25.6284C44.6112 27.7734 43.5275 30.2465 43.0262 32.211L55.6115 35.4226L68.1969 38.6342C67.7918 40.2218 66.8639 42.4095 64.856 44.3426C62.8676 46.2569 60.7008 47.0725 59.2417 47.4146C57.9094 47.727 56.8967 47.7105 56.6355 47.7049C56.3233 47.6983 56.1706 47.675 56.4056 47.6998L57.7674 34.7827ZM71.4848 44.1225L68.2732 56.7079C75.2239 58.4816 82.2965 54.2848 84.0702 47.3341L71.4848 44.1225ZM67.3276 43.0617L54.7422 39.8501C52.9685 46.8008 57.1653 53.8733 64.116 55.647L67.3276 43.0617ZM70.6759 29.9404L73.8875 17.355C66.9368 15.5813 59.8643 19.7781 58.0906 26.7288L70.6759 29.9404ZM74.8332 31.0013L87.4185 34.2129C89.1922 27.2621 84.9955 20.1896 78.0447 18.4159L74.8332 31.0013ZM74.4287 32.5862L85.3526 39.6128C86.1079 38.4387 86.6689 37.1505 87.0141 35.7978L74.4287 32.5862ZM73.0525 34.7257L62.1286 27.6991C59.8699 31.2105 59.4369 35.5937 60.9649 39.4791C62.4928 43.3646 65.7954 46.2788 69.8409 47.3111L73.0525 34.7257ZM74.0918 34.9909L70.8802 47.5763C76.7789 49.0816 82.9317 46.288 85.6808 40.8562L74.0918 34.9909ZM82.0858 46.8277L78.8742 59.4131C85.8249 61.1868 92.8974 56.99 94.6711 50.0393L82.0858 46.8277ZM77.9285 45.7669L65.3432 42.5553C63.5694 49.506 67.7662 56.5785 74.7169 58.3522L77.9285 45.7669ZM77.7127 35.3338L80.9243 22.7484C77.6173 21.9045 72.2892 21.5446 67.2699 25.0621C62.7378 28.2382 60.943 32.9029 60.1393 36.0522L72.7247 39.2638L85.3101 42.4753C85.4479 41.9351 85.0169 44.3464 82.1783 46.3356C78.8524 48.6664 75.5476 48.1862 74.5011 47.9191L77.7127 35.3338ZM72.7247 39.2638L60.1393 36.0522L58.8994 40.9109L71.4848 44.1225L84.0702 47.3341L85.3101 42.4753L72.7247 39.2638ZM71.4848 44.1225L74.6964 31.5372L70.5392 30.4763L67.3276 43.0617L64.116 55.647L68.2732 56.7079L71.4848 44.1225ZM67.3276 43.0617L79.9129 46.2732L83.2613 33.152L70.6759 29.9404L58.0906 26.7288L54.7422 39.8501L67.3276 43.0617ZM70.6759 29.9404L67.4643 42.5258L71.6216 43.5866L74.8332 31.0013L78.0447 18.4159L73.8875 17.355L70.6759 29.9404ZM74.8332 31.0013L62.2478 27.7897L61.8433 29.3746L74.4287 32.5862L87.0141 35.7978L87.4185 34.2129L74.8332 31.0013ZM74.4287 32.5862L63.5048 25.5596L62.1286 27.6991L73.0525 34.7257L83.9764 41.7524L85.3526 39.6128L74.4287 32.5862ZM73.0525 34.7257L69.8409 47.3111L70.8802 47.5763L74.0918 34.9909L77.3034 22.4056L76.2641 22.1404L73.0525 34.7257ZM74.0918 34.9909L85.6808 40.8562C85.2946 41.6193 84.392 42.9332 82.5896 43.8953C80.5874 44.964 78.4684 45.0571 76.9104 44.6595L80.122 32.0741L83.3336 19.4888C78.9694 18.3751 74.3936 18.8237 70.3569 20.9784C66.52 23.0265 64.0054 26.1568 62.5028 29.1257L74.0918 34.9909ZM80.122 32.0741L76.9104 44.6595C75.641 44.3356 73.3806 43.19 72.0471 40.5354C71.4662 39.3789 71.2795 38.3345 71.2425 37.6178C71.2068 36.926 71.3073 36.5354 71.3105 36.5228L83.8958 39.7344L96.4812 42.946C97.4963 38.9683 97.7506 33.8322 95.2603 28.8747C92.6192 23.6171 87.9547 20.668 83.3336 19.4888L80.122 32.0741ZM83.8958 39.7344L71.3105 36.5228L69.5004 43.6161L82.0858 46.8277L94.6711 50.0393L96.4812 42.946L83.8958 39.7344ZM82.0858 46.8277L85.2973 34.2423L81.1401 33.1815L77.9285 45.7669L74.7169 58.3522L78.8742 59.4131L82.0858 46.8277ZM77.9285 45.7669L90.5139 48.9784L92.1582 42.5347L79.5729 39.3231L66.9875 36.1116L65.3432 42.5553L77.9285 45.7669ZM79.5729 39.3231L92.1582 42.5347C92.6001 40.8032 93.6873 36.1334 91.4273 31.2073C88.749 25.3694 83.5418 23.4164 80.9243 22.7484L77.7127 35.3338L74.5011 47.9191C73.8843 47.7618 69.9122 46.6082 67.8163 42.0397C66.9223 40.0912 66.8139 38.3873 66.8358 37.4573C66.8469 36.9848 66.8931 36.6306 66.9254 36.429C66.9581 36.2251 66.9874 36.1119 66.9875 36.1116L79.5729 39.3231ZM98.9085 51.1206L95.6969 63.706C102.648 65.4797 109.72 61.2829 111.494 54.3322L98.9085 51.1206ZM94.7513 50.0598L82.1659 46.8482C80.3922 53.7989 84.589 60.8714 91.5397 62.6451L94.7513 50.0598ZM94.9568 49.2543L84.0329 42.2277C83.2777 43.4018 82.7167 44.69 82.3715 46.0427L94.9568 49.2543ZM96.333 47.1148L107.257 54.1414C109.516 50.63 109.949 46.2468 108.421 42.3614C106.893 38.4759 103.59 35.5618 99.5446 34.5294L96.333 47.1148ZM95.2937 46.8496L98.5053 34.2642C93.3116 32.9388 87.8372 34.94 84.7227 39.3024L95.2937 46.8496ZM97.0375 40.0161L84.1428 41.5751C84.7861 46.8965 88.6323 51.2761 93.8259 52.6015L97.0375 40.0161ZM98.0768 40.2813L94.8652 52.8667C98.9107 53.899 103.206 52.9237 106.409 50.2455C109.612 47.5673 111.332 43.5126 111.032 39.3483L98.0768 40.2813ZM97.8941 37.744L85.3087 34.5324C84.9635 35.8851 84.8387 37.2846 84.939 38.677L97.8941 37.744ZM99.6246 30.9625L102.836 18.3771C95.8855 16.6034 88.813 20.8002 87.0393 27.7509L99.6246 30.9625ZM103.782 32.0233L116.367 35.2349C118.141 28.2842 113.944 21.2117 106.993 19.438L103.782 32.0233ZM98.9085 51.1206L102.12 38.5353L97.9629 37.4744L94.7513 50.0598L91.5397 62.6451L95.6969 63.706L98.9085 51.1206ZM94.7513 50.0598L107.337 53.2714L107.542 52.4659L94.9568 49.2543L82.3715 46.0427L82.1659 46.8482L94.7513 50.0598ZM94.9568 49.2543L105.881 56.2809L107.257 54.1414L96.333 47.1148L85.4091 40.0881L84.0329 42.2277L94.9568 49.2543ZM96.333 47.1148L99.5446 34.5294L98.5053 34.2642L95.2937 46.8496L92.0821 59.4349L93.1215 59.7001L96.333 47.1148ZM95.2937 46.8496L84.7227 39.3024C84.8651 39.103 85.8149 37.8029 87.7945 36.9226C89.9866 35.9478 91.8243 36.1847 92.4662 36.3485L89.2546 48.9338L86.043 61.5192C89.9328 62.5118 94.2302 62.4908 98.3499 60.6588C102.257 58.9212 104.603 56.1645 105.865 54.3967L95.2937 46.8496ZM89.2546 48.9338L92.4662 36.3485C93.2799 36.5561 94.3305 37.0135 95.3465 37.8825C96.3601 38.7493 97.0478 39.777 97.4589 40.745C98.2247 42.5485 97.9188 43.7611 97.8936 43.8599L85.3082 40.6483L72.7228 37.4367C71.7495 41.2511 71.52 46.1224 73.5477 50.8978C75.7776 56.1493 80.2576 60.0428 86.043 61.5192L89.2546 48.9338ZM85.3082 40.6483L97.8936 43.8599C97.8679 43.9603 97.5489 45.1918 95.9904 46.419C95.1557 47.0763 94.0544 47.6446 92.7531 47.9153C91.4508 48.1862 90.3215 48.0818 89.524 47.8783L92.7356 35.2929L95.9472 22.7076C90.201 21.2412 84.4112 22.4726 79.9194 26.0096C75.8325 29.2277 73.6966 33.6208 72.7228 37.4367L85.3082 40.6483ZM92.7356 35.2929L89.524 47.8783C88.8821 47.7145 87.1555 47.0419 85.6986 45.1358C84.3829 43.4147 84.1722 41.8184 84.1428 41.5751L97.0375 40.0161L109.932 38.4571C109.672 36.3006 108.934 32.7571 106.337 29.3599C103.599 25.7778 99.8369 23.7002 95.9472 22.7076L92.7356 35.2929ZM97.0375 40.0161L93.8259 52.6015L94.8652 52.8667L98.0768 40.2813L101.288 27.696L100.249 27.4307L97.0375 40.0161ZM98.0768 40.2813L111.032 39.3483L110.849 36.8109L97.8941 37.744L84.939 38.677L85.1217 41.2144L98.0768 40.2813ZM97.8941 37.744L110.479 40.9556L112.21 34.1741L99.6246 30.9625L87.0393 27.7509L85.3087 34.5324L97.8941 37.744ZM99.6246 30.9625L96.413 43.5479L100.57 44.6087L103.782 32.0233L106.993 19.438L102.836 18.3771L99.6246 30.9625ZM103.782 32.0233L91.1965 28.8118L86.3232 47.909L98.9085 51.1206L111.494 54.3322L116.367 35.2349L103.782 32.0233ZM96.4288 43.4861L109.014 46.6977C109.9 43.2262 110.068 38.1666 106.84 33.4777C103.87 29.1626 99.5963 27.5132 96.9676 26.8424L93.756 39.4278L90.5444 52.0132C90.1502 51.9125 87.4947 51.1881 85.4429 48.2075C83.1338 44.8531 83.5211 41.5376 83.8434 40.2746L96.4288 43.4861ZM93.756 39.4278L96.9676 26.8424C94.3388 26.1716 89.7975 25.5715 85.1226 27.9356C80.0427 30.5045 77.7659 35.026 76.8801 38.4976L89.4654 41.7092L102.051 44.9208C101.728 46.1838 100.48 49.2795 96.8456 51.1173C93.6165 52.7503 90.9387 52.1138 90.5444 52.0132L93.756 39.4278ZM89.4654 41.7092L76.8801 38.4976C75.995 41.966 75.8309 46.9916 79.005 51.6642C81.9509 56.001 86.2195 57.6898 88.92 58.3789L92.1316 45.7935L95.3432 33.2082C95.8091 33.3271 98.4628 34.078 100.493 37.0673C102.752 40.3924 102.372 43.6609 102.051 44.9208L89.4654 41.7092ZM92.1316 45.7935L88.92 58.3789C91.6205 59.068 96.1763 59.6311 100.84 57.2362C105.865 54.6558 108.129 50.1661 109.014 46.6977L96.4288 43.4861L83.8434 40.2746C84.1649 39.0147 85.3977 35.9638 88.9735 34.1276C92.1882 32.4768 94.8772 33.0893 95.3432 33.2082L92.1316 45.7935ZM101.012 51.6573L88.4263 48.4457C86.6526 55.3964 90.8494 62.469 97.8001 64.2427L101.012 51.6573ZM101.94 48.0197L105.152 35.4344C98.2008 33.6607 91.1283 37.8575 89.3546 44.8082L101.94 48.0197ZM105.655 48.9679L102.444 61.5533C109.395 63.327 116.467 59.1302 118.241 52.1795L105.655 48.9679ZM107.187 42.9659L119.772 46.1775C120.651 42.7332 120.08 39.0792 118.192 36.0674C116.304 33.0556 113.265 30.9491 109.782 30.239L107.187 42.9659ZM103.951 42.3062L91.3661 39.0947C90.4871 42.5389 91.0582 46.1929 92.9461 49.2047C94.8341 52.2166 97.8739 54.3231 101.357 55.0331L103.951 42.3062ZM104.88 38.6687L107.425 25.9319C100.651 24.578 94.0024 28.7634 92.2943 35.4571L104.88 38.6687ZM109.883 39.6686L107.337 52.4054L107.349 52.4078L109.883 39.6686ZM109.657 49.989L97.0714 46.7774C95.2977 53.7281 99.4945 60.8006 106.445 62.5743L109.657 49.989ZM113.372 50.9371L125.958 54.1487C127.731 47.198 123.535 40.1255 116.584 38.3518L113.372 50.9371ZM112.444 54.5747L109.232 67.1601C116.183 68.9338 123.256 64.737 125.029 57.7863L112.444 54.5747ZM110.07 38.6094L113.282 26.0241C114.312 26.287 116.908 27.1921 118.951 30.0302C121.262 33.2401 121.341 36.7769 120.743 39.1191L108.158 35.9075L95.5727 32.696C94.6302 36.3893 94.8987 41.0814 97.8683 45.2067C100.57 48.9602 104.295 50.5406 106.858 51.1948L110.07 38.6094ZM108.158 35.9075L120.743 39.1191C120.127 41.5339 118.34 44.5367 114.866 46.2222C111.757 47.7307 109.05 47.3261 107.919 47.0376L111.131 34.4522L114.342 21.8668C111.679 21.1871 107.655 20.8476 103.527 22.8503C99.0341 25.03 96.527 28.9561 95.5727 32.696L108.158 35.9075ZM111.131 34.4522L107.919 47.0376C106.789 46.7492 104.324 45.8369 102.353 43.1578C100.119 40.1214 99.8344 36.6009 100.509 33.9557L113.095 37.1673L125.68 40.3789C126.693 36.4086 126.194 31.7262 123.276 27.7613C120.621 24.1537 117.005 22.5464 114.342 21.8668L111.131 34.4522ZM113.095 37.1673L100.509 33.9557C101.166 31.3827 103.077 28.3665 106.588 26.7473C109.645 25.3371 112.25 25.7608 113.282 26.0241L110.07 38.6094L106.858 51.1948C109.423 51.8493 113.368 52.2274 117.468 50.3362C122.022 48.2359 124.679 44.3031 125.68 40.3789L113.095 37.1673ZM101.012 51.6573L113.597 54.8689L114.525 51.2313L101.94 48.0197L89.3546 44.8082L88.4263 48.4457L101.012 51.6573ZM101.94 48.0197L98.7284 60.6051L102.444 61.5533L105.655 48.9679L108.867 36.3825L105.152 35.4344L101.94 48.0197ZM105.655 48.9679L118.241 52.1795L119.772 46.1775L107.187 42.9659L94.6017 39.7543L93.0701 45.7563L105.655 48.9679ZM107.187 42.9659L109.782 30.239L106.546 29.5794L103.951 42.3062L101.357 55.0331L104.593 55.6928L107.187 42.9659ZM103.951 42.3062L116.537 45.5178L117.465 41.8803L104.88 38.6687L92.2943 35.4571L91.3661 39.0947L103.951 42.3062ZM104.88 38.6687L102.334 51.4054L107.337 52.4054L109.883 39.6686L112.428 26.9318L107.425 25.9319L104.88 38.6687ZM109.883 39.6686L107.349 52.4078C105.662 52.0723 102.475 50.8746 100.343 47.3842C98.2551 43.9668 98.6213 40.7038 99.0009 39.2164L111.586 42.428L124.172 45.6396C124.922 42.6972 125.174 38.2011 122.511 33.8412C119.802 29.4082 115.578 27.5583 112.416 26.9295L109.883 39.6686ZM111.586 42.428L99.0009 39.2164L97.0714 46.7774L109.657 49.989L122.242 53.2006L124.172 45.6396L111.586 42.428ZM109.657 49.989L106.445 62.5743L110.161 63.5225L113.372 50.9371L116.584 38.3518L112.868 37.4036L109.657 49.989ZM113.372 50.9371L100.787 47.7255L99.8587 51.3631L112.444 54.5747L125.029 57.7863L125.958 54.1487L113.372 50.9371ZM112.444 54.5747L115.656 41.9893L104.223 39.072L101.012 51.6573L97.8001 64.2427L109.232 67.1601L112.444 54.5747ZM118.172 56.0365L114.961 68.6219C121.912 70.3956 128.984 66.1988 130.758 59.2481L118.172 56.0365ZM114.015 54.9756L101.43 51.764C99.6562 58.7147 103.853 65.7873 110.804 67.561L114.015 54.9756ZM117.364 41.8544L120.575 29.269C113.624 27.4953 106.552 31.6921 104.778 38.6428L117.364 41.8544ZM121.521 42.9152L134.106 46.1268C135.88 39.1761 131.683 32.1036 124.732 30.3299L121.521 42.9152ZM121.116 44.5002L132.04 51.5268C132.796 50.3527 133.357 49.0645 133.702 47.7118L121.116 44.5002ZM119.74 46.6397L108.816 39.6131C106.558 43.1245 106.125 47.5076 107.653 51.3931C109.18 55.2786 112.483 58.1927 116.529 59.2251L119.74 46.6397ZM120.779 46.9049L117.568 59.4903C123.467 60.9956 129.619 58.2019 132.368 52.7702L120.779 46.9049ZM128.773 58.7417L125.562 71.3271C132.513 73.1008 139.585 68.904 141.359 61.9533L128.773 58.7417ZM124.616 57.6808L112.031 54.4692C110.257 61.4199 114.454 68.4925 121.405 70.2662L124.616 57.6808ZM124.4 47.2478L127.612 34.6624C124.305 33.8185 118.977 33.4585 113.958 36.9761C109.425 40.1522 107.631 44.8169 106.827 47.9661L119.412 51.1777L131.998 54.3893C132.136 53.8491 131.705 56.2603 128.866 58.2496C125.54 60.5804 122.235 60.1002 121.189 59.8331L124.4 47.2478ZM119.412 51.1777L106.827 47.9661L105.587 52.8249L118.172 56.0365L130.758 59.2481L131.998 54.3893L119.412 51.1777ZM118.172 56.0365L121.384 43.4511L117.227 42.3903L114.015 54.9756L110.804 67.561L114.961 68.6219L118.172 56.0365ZM114.015 54.9756L126.601 58.1872L129.949 45.066L117.364 41.8544L104.778 38.6428L101.43 51.764L114.015 54.9756ZM117.364 41.8544L114.152 54.4397L118.309 55.5006L121.521 42.9152L124.732 30.3299L120.575 29.269L117.364 41.8544ZM121.521 42.9152L108.935 39.7036L108.531 41.2886L121.116 44.5002L133.702 47.7118L134.106 46.1268L121.521 42.9152ZM121.116 44.5002L110.192 37.4736L108.816 39.6131L119.74 46.6397L130.664 53.6663L132.04 51.5268L121.116 44.5002ZM119.74 46.6397L116.529 59.2251L117.568 59.4903L120.779 46.9049L123.991 34.3196L122.952 34.0543L119.74 46.6397ZM120.779 46.9049L132.368 52.7702C131.982 53.5333 131.08 54.8471 129.277 55.8092C127.275 56.878 125.156 56.9711 123.598 56.5735L126.81 43.9881L130.021 31.4028C125.657 30.2891 121.081 30.7376 117.045 32.8924C113.208 34.9404 110.693 38.0707 109.19 41.0397L120.779 46.9049ZM126.81 43.9881L123.598 56.5735C122.329 56.2496 120.068 55.104 118.735 52.4494C118.154 51.2929 117.967 50.2485 117.93 49.5318C117.894 48.84 117.995 48.4494 117.998 48.4368L130.584 51.6484L143.169 54.86C144.184 50.8823 144.438 45.7462 141.948 40.7886C139.307 35.5311 134.642 32.582 130.021 31.4028L126.81 43.9881ZM130.584 51.6484L117.998 48.4368L116.188 55.5301L128.773 58.7417L141.359 61.9533L143.169 54.86L130.584 51.6484ZM128.773 58.7417L131.985 46.1563L127.828 45.0955L124.616 57.6808L121.405 70.2662L125.562 71.3271L128.773 58.7417ZM124.616 57.6808L137.202 60.8924L138.846 54.4487L126.261 51.2371L113.675 48.0255L112.031 54.4692L124.616 57.6808ZM126.261 51.2371L138.846 54.4487C139.288 52.7171 140.375 48.0474 138.115 43.1213C135.437 37.2834 130.229 35.3303 127.612 34.6624L124.4 47.2478L121.189 59.8331C120.572 59.6757 116.6 58.5222 114.504 53.9537C113.61 52.0052 113.502 50.3013 113.523 49.3713C113.535 48.8988 113.581 48.5445 113.613 48.343C113.646 48.1391 113.675 48.0258 113.675 48.0255L126.261 51.2371ZM150.458 50.2995L163.043 53.5111C164.817 46.5604 160.62 39.4878 153.669 37.7141L150.458 50.2995ZM149.529 53.937L146.318 66.5224C153.269 68.2961 160.341 64.0993 162.115 57.1486L149.529 53.937ZM147.365 53.6338L143.261 41.3106C139.838 42.4505 137.044 44.9625 135.547 48.2449C134.05 51.5272 133.986 55.2842 135.37 58.6158L147.365 53.6338ZM140.081 58.9704L139.092 46.0194C132.601 46.5151 127.48 51.7387 127.113 58.2379C126.746 64.7371 131.246 70.5043 137.64 71.7277L140.081 58.9704ZM129.596 64.4865L117.011 61.2749C115.237 68.2257 119.434 75.2982 126.384 77.0719L129.596 64.4865ZM130.524 60.849L133.736 48.2636C126.785 46.4899 119.713 50.6867 117.939 57.6374L130.524 60.849ZM132.399 59.2517L119.436 58.4318C118.99 65.4874 124.268 71.6042 131.313 72.1949L132.399 59.2517ZM132.554 56.8005L134.442 43.9498C130.849 43.4219 127.199 44.4222 124.378 46.708C121.556 48.9939 119.82 52.3565 119.591 55.9807L132.554 56.8005ZM140.939 57.6674L140.743 70.6545C146.752 70.7455 152.039 66.7021 153.525 60.8789L140.939 57.6674ZM141.204 56.628L153.79 59.8396C154.834 55.7477 153.824 51.4035 151.081 48.1923C148.338 44.9811 144.205 43.3038 140 43.6953L141.204 56.628ZM145.723 50.3089L135.677 58.5422C140.156 64.0069 148.181 64.8892 153.74 60.5279L145.723 50.3089ZM149.314 50.0077L146.103 62.5931L147.246 62.8848L150.458 50.2995L153.669 37.7141L152.526 37.4224L149.314 50.0077ZM150.458 50.2995L137.872 47.0879L136.944 50.7255L149.529 53.937L162.115 57.1486L163.043 53.5111L150.458 50.2995ZM149.529 53.937L152.741 41.3517L151.858 41.1262L148.646 53.7116L145.434 66.297L146.318 66.5224L149.529 53.937ZM148.646 53.7116L151.858 41.1262C151.793 41.1097 150.724 40.8166 149.473 40.6756C148.149 40.5263 145.873 40.4408 143.261 41.3106L147.365 53.6338L151.469 65.9571C149.281 66.6858 147.45 66.5895 146.563 66.4895C145.75 66.3977 145.109 66.214 145.434 66.297L148.646 53.7116ZM147.365 53.6338L135.37 58.6158C134.859 57.3846 134.673 56.3739 134.601 55.9149C134.511 55.3461 134.479 54.857 134.473 54.463C134.461 53.6895 134.542 52.874 134.759 52.0221L147.344 55.2337L159.93 58.4452C160.326 56.8918 160.468 55.4002 160.448 54.0641C160.433 53.0909 160.325 50.9754 159.36 48.6518L147.365 53.6338ZM147.344 55.2337L134.759 52.0221C135.128 50.5747 135.868 49.1937 136.902 48.0608C137.878 46.9915 138.851 46.4302 139.405 46.1685C140.293 45.7498 140.5 45.912 139.092 46.0194L140.081 58.9704L141.07 71.9214C143.585 71.7293 147.109 71.2573 150.49 69.6622C154.331 67.85 158.434 64.3078 159.93 58.4452L147.344 55.2337ZM140.081 58.9704L137.64 71.7277C138.205 71.8358 137.074 71.7779 135.546 70.4838C134.633 69.7116 133.419 68.3458 132.693 66.2775C131.938 64.1314 132.019 62.1077 132.402 60.6085L144.987 63.8201L157.573 67.0317C158.31 64.1425 158.334 60.8901 157.201 57.6647C156.094 54.5172 154.178 52.2217 152.33 50.6571C148.93 47.7783 144.991 46.6857 142.522 46.2132L140.081 58.9704ZM144.987 63.8201L132.402 60.6085C132.593 59.8595 132.986 58.7838 133.784 57.6388C134.608 56.4545 135.668 55.483 136.837 54.7788C137.957 54.1048 138.956 53.8079 139.588 53.6754C140.202 53.5466 140.585 53.5488 140.609 53.5489C140.643 53.549 140.492 53.5497 140.093 53.5001C139.703 53.4515 139.173 53.367 138.466 53.2287C137.022 52.9462 135.198 52.5111 132.808 51.9012L129.596 64.4865L126.384 77.0719C130.858 78.2136 136.11 79.5146 140.541 79.5261C142.906 79.5323 146.613 79.2149 150.234 77.0355C154.368 74.5471 156.63 70.7259 157.573 67.0317L144.987 63.8201ZM129.596 64.4865L142.181 67.6981L143.11 64.0606L130.524 60.849L117.939 57.6374L117.011 61.2749L129.596 64.4865ZM130.524 60.849L127.313 73.4343C131.142 74.4114 134.769 75.3364 137.443 75.6228C138.582 75.7448 141.886 76.0797 145.419 74.6094C150.463 72.5105 152.793 68.3009 153.615 65.0808L141.029 61.8692L128.444 58.6576C128.69 57.6919 129.245 56.0639 130.543 54.3837C131.929 52.5903 133.681 51.3571 135.439 50.6258C137.034 49.9619 138.372 49.8173 139.038 49.7789C139.723 49.7394 140.166 49.7886 140.21 49.7932C140.245 49.797 139.846 49.7475 138.587 49.4605C137.412 49.1927 135.863 48.8063 133.736 48.2636L130.524 60.849ZM141.029 61.8692L153.615 65.0808C154.391 62.0391 154.176 58.624 152.618 55.4687C151.203 52.602 149.135 50.8675 147.726 49.9203C145.149 48.187 142.445 47.5443 141.245 47.282C138.505 46.6836 135.17 46.4498 133.484 46.3084L132.399 59.2517L131.313 72.1949C133.827 72.4057 135.053 72.5193 135.701 72.661C136.195 72.7687 134.892 72.5942 133.23 71.4769C132.28 70.8377 130.549 69.4482 129.325 66.9697C127.959 64.2024 127.79 61.2186 128.444 58.6576L141.029 61.8692ZM132.399 59.2517L145.361 60.0715L145.516 57.6204L132.554 56.8005L119.591 55.9807L119.436 58.4318L132.399 59.2517ZM132.554 56.8005L130.666 69.6512C133.648 70.0894 137.234 70.6015 140.743 70.6545L140.939 57.6674L141.136 44.6802C139.572 44.6565 137.594 44.413 134.442 43.9498L132.554 56.8005ZM140.939 57.6674L153.525 60.8789L153.79 59.8396L141.204 56.628L128.619 53.4165L128.354 54.4558L140.939 57.6674ZM141.204 56.628L140 43.6953C138.964 43.7918 139.341 43.448 140.668 44.1928C141.472 44.6446 142.993 45.7428 144.044 47.8875C145.181 50.205 145.15 52.4844 144.758 54.0203L132.173 50.8087L119.588 47.5971C118.646 51.2895 118.813 55.4357 120.72 59.325C122.543 63.0414 125.407 65.4165 127.951 66.8449C132.758 69.5432 138.2 69.9526 142.408 69.5608L141.204 56.628ZM132.173 50.8087L144.758 54.0203C144.452 55.2199 143.777 56.5886 142.609 57.7818C141.475 58.9414 140.253 59.5524 139.346 59.8488C137.759 60.3675 137.033 60.0018 137.673 60.1651L140.884 47.5798L144.096 34.9944C140.605 34.1035 135.964 33.6244 131.275 35.1572C125.922 36.9067 121.234 41.1467 119.588 47.5971L132.173 50.8087ZM140.884 47.5798L137.673 60.1651C137.889 60.2204 137.754 60.2119 137.407 60.0223C137.039 59.8215 136.359 59.3738 135.677 58.5422L145.723 50.3089L155.769 42.0756C152.2 37.7212 147.478 35.8573 144.096 34.9944L140.884 47.5798ZM145.723 50.3089L153.74 60.5279C151.428 62.3419 149.023 62.7047 147.695 62.7278C146.546 62.7477 145.83 62.5235 146.103 62.5931L149.314 50.0077L152.526 37.4224C151.675 37.2051 144.233 34.969 137.706 40.0899L145.723 50.3089ZM139.327 54.7653L136.116 67.3507C137.952 67.8193 141.386 68.5352 145.166 67.6231C147.31 67.1057 149.783 66.0089 151.941 63.9038C154.112 61.7857 155.28 59.3123 155.839 57.1246L143.253 53.913L130.668 50.7014C131.084 49.0723 132.002 47.0643 133.8 45.3102C135.584 43.5691 137.562 42.7349 139.072 42.3705C141.584 41.7644 143.197 42.3479 142.539 42.18L139.327 54.7653ZM143.253 53.913L155.839 57.1246C156.409 54.8906 156.543 52.1576 155.654 49.2862C154.773 46.4442 153.153 44.3184 151.542 42.8449C148.676 40.2224 145.333 39.1844 143.428 38.6983L140.216 51.2837L137.004 63.869C137.594 64.0194 135.908 63.7504 134.007 62.0106C132.879 60.9785 131.568 59.3225 130.841 56.9763C130.104 54.6008 130.237 52.3897 130.668 50.7014L143.253 53.913ZM140.216 51.2837L143.428 38.6983C141.511 38.2093 138.107 37.5297 134.366 38.4315C132.272 38.9362 129.83 39.9987 127.678 42.0537C125.493 44.1407 124.264 46.6242 123.679 48.9178L136.264 52.1294L148.849 55.341C148.403 57.0889 147.427 59.1143 145.618 60.841C143.844 62.5357 141.905 63.3356 140.453 63.6857C137.994 64.2783 136.426 63.7215 137.004 63.869L140.216 51.2837ZM136.264 52.1294L123.679 48.9178C123.105 51.1642 122.968 53.9302 123.887 56.8384C124.796 59.7131 126.456 61.8377 128.075 63.2915C130.941 65.8656 134.268 66.8792 136.116 67.3507L139.327 54.7653L142.539 42.18C141.893 42.015 143.545 42.2692 145.432 43.9637C146.561 44.9778 147.905 46.6326 148.656 49.0078C149.418 51.4165 149.28 53.6532 148.849 55.341L136.264 52.1294ZM157.95 75.0753L169.795 80.405C169.798 80.3986 169.801 80.3923 169.804 80.386L157.95 75.0753ZM156.184 79.0005L144.339 73.6708C141.678 79.5852 143.787 86.5563 149.281 90.0031L156.184 79.0005ZM158.89 74.335L147.887 67.4322C146.056 70.3502 145.46 73.8761 146.229 77.234C146.997 80.5919 149.069 83.5068 151.987 85.3376L158.89 74.335ZM161.027 70.9278L167.93 59.9252C161.854 56.1129 153.837 57.9484 150.025 64.0249L161.027 70.9278ZM149.838 80.084L156.741 69.0814C153.823 67.2506 150.297 66.6541 146.939 67.4229C143.581 68.1918 140.666 70.263 138.835 73.1811L149.838 80.084ZM148.798 81.7421L141.895 92.7447C144.813 94.5755 148.339 95.172 151.697 94.4032C155.055 93.6343 157.97 91.5631 159.8 88.645L148.798 81.7421ZM145.618 79.747L134.615 72.8442C130.803 78.9207 132.638 86.9372 138.715 90.7496L145.618 79.747ZM149.972 76.5908L156.875 65.5883L149.972 76.5908ZM150.199 76.7334L160.803 69.2321C159.812 67.8321 158.555 66.6421 157.102 65.7308L150.199 76.7334ZM151.206 78.1563L140.602 85.6576C143.11 89.2029 147.224 91.2602 151.565 91.14C155.906 91.0198 159.9 88.7379 162.208 85.0591L151.206 78.1563ZM151.776 77.2477L162.778 84.1505C166.004 79.0092 165.239 72.3195 160.936 68.0391L151.776 77.2477ZM154.14 77.7179L147.237 88.7205C150.42 90.7176 154.313 91.2382 157.909 90.1477C161.505 89.0573 164.453 86.4627 165.991 83.034L154.14 77.7179ZM155.569 74.5311L167.42 79.8472C167.431 79.8229 167.442 79.7984 167.453 79.774L155.569 74.5311ZM157.217 68.2209L150.315 79.2235C149.726 78.8545 148.721 78.1025 147.798 76.7991C146.822 75.4198 146.262 73.8787 146.07 72.4139C145.743 69.9248 146.598 68.6461 146.097 69.7646L157.95 75.0753L169.804 80.386C170.963 77.7979 172.44 73.712 171.826 69.0324C171.07 63.275 167.614 59.4105 164.12 57.2184L157.217 68.2209ZM157.95 75.0753L146.106 69.7456L144.339 73.6708L156.184 79.0005L168.029 84.3302L169.795 80.405L157.95 75.0753ZM156.184 79.0005L149.281 90.0031C153.051 92.368 158.048 93.1156 162.817 91.0405C166.734 89.3359 168.984 86.3687 170.125 84.5497L159.123 77.6468L148.12 70.744C148.278 70.4924 149.525 68.4941 152.451 67.2206C154.063 66.5192 156.014 66.1255 158.122 66.325C160.191 66.5208 161.872 67.2359 163.087 67.9979L156.184 79.0005ZM159.123 77.6468L170.125 84.5497C171.416 82.4917 173.012 79.0531 172.693 74.7351C172.325 69.7472 169.549 65.6893 165.792 63.3325L158.89 74.335L151.987 85.3376C149.275 83.6363 147.072 80.5074 146.787 76.6481C146.551 73.4587 147.741 71.3482 148.12 70.744L159.123 77.6468ZM158.89 74.335L169.892 81.2379L172.03 77.8306L161.027 70.9278L150.025 64.0249L147.887 67.4322L158.89 74.335ZM161.027 70.9278L154.124 81.9303C153.253 81.3837 152.341 80.5394 151.626 79.3735C150.918 78.2178 150.573 77.0231 150.47 75.9753C150.272 73.9799 150.932 72.8212 151.073 72.5966L162.076 79.4995L173.078 86.4023C175.229 82.975 176.818 78.4425 176.321 73.4179C175.785 67.9958 172.864 63.0206 167.93 59.9252L161.027 70.9278ZM162.076 79.4995L151.073 72.5966C151.118 72.5243 151.296 72.2561 151.686 71.906C152.081 71.5513 152.785 71.0346 153.836 70.6558C154.938 70.2585 156.198 70.0975 157.464 70.2625C158.699 70.4235 159.548 70.8426 159.966 71.105L153.064 82.1076L146.161 93.1102C151.052 96.1789 156.957 97.1445 162.646 95.0935C167.758 93.2504 171.103 89.5506 173.078 86.4023L162.076 79.4995ZM153.064 82.1076L159.966 71.105L156.741 69.0814L149.838 80.084L142.935 91.0865L146.161 93.1102L153.064 82.1076ZM149.838 80.084L138.835 73.1811L137.795 74.8393L148.798 81.7421L159.8 88.645L160.841 86.9868L149.838 80.084ZM148.798 81.7421L155.701 70.7396L152.52 68.7444L145.618 79.747L138.715 90.7496L141.895 92.7447L148.798 81.7421ZM145.618 79.747L156.62 86.6498L158.202 84.1285L147.199 77.2256L136.197 70.3228L134.615 72.8442L145.618 79.747ZM147.199 77.2256L158.202 84.1285C157.273 85.6086 155.123 88.036 151.332 88.9039C147.542 89.7718 144.549 88.522 143.069 87.5934L149.972 76.5908L156.875 65.5883C154.304 63.9757 150.268 62.498 145.534 63.5818C140.801 64.6656 137.81 67.7524 136.197 70.3228L147.199 77.2256ZM149.972 76.5908L143.069 87.5934L143.296 87.7359L150.199 76.7334L157.102 65.7308L156.875 65.5883L149.972 76.5908ZM150.199 76.7334L139.595 84.2346L140.602 85.6576L151.206 78.1563L161.809 70.655L160.803 69.2321L150.199 76.7334ZM151.206 78.1563L162.208 85.0591L162.778 84.1505L151.776 77.2477L140.773 70.3448L140.203 71.2534L151.206 78.1563ZM151.776 77.2477L160.936 68.0391C161.169 68.2715 162.544 69.7014 162.962 72.3025C163.41 75.0941 162.405 76.9255 162.236 77.1942L151.233 70.2913L140.231 63.3885C138.053 66.86 136.5 71.3552 137.312 76.4172C138.094 81.2886 140.745 84.5952 142.616 86.4563L151.776 77.2477ZM151.233 70.2913L162.236 77.1942C161.878 77.765 160.137 79.9337 156.597 80.4785C153.576 80.9434 151.353 79.8753 150.315 79.2235L157.217 68.2209L164.12 57.2184C161.9 55.8255 157.805 54.0095 152.646 54.8033C146.969 55.677 142.826 59.2514 140.231 63.3885L151.233 70.2913ZM155.619 72.2829L162.522 61.2803C157.788 58.3107 152.439 58.7064 148.52 60.8236C145.447 62.4831 143.737 64.8638 142.969 66.0878L153.972 72.9907L164.974 79.8935C164.591 80.5042 163.375 82.3244 160.865 83.68C159.461 84.4385 157.475 85.1358 155.06 85.1213C152.577 85.1064 150.4 84.342 148.716 83.2854L155.619 72.2829ZM153.972 72.9907L142.969 66.0878C141.498 68.4328 139.957 71.9203 140.074 76.1322C140.207 80.9291 142.555 85.7828 147.237 88.7205L154.14 77.7179L161.043 66.7153C162.463 67.6065 163.792 68.9258 164.737 70.6517C165.665 72.3482 166.003 74.0326 166.041 75.4129C166.112 77.9818 165.191 79.5474 164.974 79.8935L153.972 72.9907ZM154.14 77.7179L165.991 83.034L167.42 79.8472L155.569 74.5311L143.718 69.215L142.289 72.4018L154.14 77.7179ZM155.569 74.5311L167.453 79.774C167.561 79.5285 168.751 77.0714 168.985 74.1555C169.134 72.2999 168.974 69.6745 167.624 66.922C166.263 64.1452 164.239 62.3578 162.522 61.2803L155.619 72.2829L148.716 83.2854C147.328 82.4146 145.528 80.8628 144.301 78.3603C143.086 75.8822 142.971 73.5698 143.091 72.0759C143.2 70.712 143.526 69.7527 143.611 69.5057C143.712 69.2104 143.781 69.0721 143.686 69.2883L155.569 74.5311ZM144.001 78.6143L143.105 65.6565L144.001 78.6143ZM147.159 68.3161L146.263 55.3584C139.107 55.8531 133.707 62.0556 134.201 69.212L147.159 68.3161ZM151.439 68.0202L164.397 67.1243C163.902 59.968 157.7 54.5677 150.543 55.0624L151.439 68.0202ZM152.373 81.5297L153.269 94.4874C160.426 93.9927 165.826 87.7902 165.331 80.6338L152.373 81.5297ZM148.093 81.8256L135.135 82.7215C135.63 89.8778 141.833 95.2781 148.989 94.7834L148.093 81.8256ZM147.98 80.1938L135.404 76.9461C135.055 78.2978 134.926 79.6969 135.023 81.0896L147.98 80.1938ZM148.616 77.7307L161.193 80.9784C162.236 76.9359 161.273 72.638 158.604 69.4274C155.935 66.2168 151.886 64.4849 147.721 64.7729L148.616 77.7307ZM147.546 77.8046L146.65 64.8469C140.577 65.2668 135.61 69.8485 134.703 75.8682L147.546 77.8046ZM142.735 82.4649L141.839 69.5071L142.735 82.4649ZM136.245 69.0707L135.349 56.113C128.192 56.6078 122.792 62.8102 123.287 69.9666L136.245 69.0707ZM140.525 68.7748L153.483 67.8789C153.245 64.4423 151.652 61.2409 149.054 58.9788C146.456 56.7168 143.066 55.5795 139.629 55.8171L140.525 68.7748ZM140.983 75.4092L128.026 76.305L140.983 75.4092ZM144.001 78.6143L144.896 91.572C148.301 91.3366 153.474 90.0081 157.137 85.0942C160.445 80.6575 160.687 75.6652 160.463 72.4228L147.505 73.3186L134.547 74.2145C134.586 74.7708 134.239 72.3459 136.311 69.567C138.738 66.3111 142.027 65.731 143.105 65.6565L144.001 78.6143ZM147.505 73.3186L160.463 72.4228L160.117 67.4203L147.159 68.3161L134.201 69.212L134.547 74.2145L147.505 73.3186ZM147.159 68.3161L148.055 81.2739L152.335 80.9779L151.439 68.0202L150.543 55.0624L146.263 55.3584L147.159 68.3161ZM151.439 68.0202L138.482 68.9161L139.416 82.4256L152.373 81.5297L165.331 80.6338L164.397 67.1243L151.439 68.0202ZM152.373 81.5297L151.478 68.5719L147.197 68.8679L148.093 81.8256L148.989 94.7834L153.269 94.4874L152.373 81.5297ZM148.093 81.8256L161.051 80.9297L160.938 79.2979L147.98 80.1938L135.023 81.0896L135.135 82.7215L148.093 81.8256ZM147.98 80.1938L160.556 83.4415L161.193 80.9784L148.616 77.7307L136.04 74.483L135.404 76.9461L147.98 80.1938ZM148.616 77.7307L147.721 64.7729L146.65 64.8469L147.546 77.8046L148.442 90.7624L149.512 90.6884L148.616 77.7307ZM147.546 77.8046L134.703 75.8682C134.83 75.0225 135.275 73.492 136.685 72.0133C138.252 70.3707 140.235 69.618 141.839 69.5071L142.735 82.4649L143.63 95.4226C148.124 95.112 152.328 93.2515 155.486 89.9399C158.487 86.7922 159.894 83.0314 160.39 79.741L147.546 77.8046ZM142.735 82.4649L141.839 69.5071C143.146 69.4168 145.651 69.796 147.75 71.8987C148.664 72.8147 149.169 73.748 149.428 74.4169C149.679 75.0627 149.706 75.465 149.707 75.478L136.749 76.3739L123.792 77.2697C124.075 81.3652 125.443 86.3221 129.363 90.249C133.519 94.4135 138.873 95.7516 143.63 95.4226L142.735 82.4649ZM136.749 76.3739L149.707 75.478L149.202 68.1749L136.245 69.0707L123.287 69.9666L123.792 77.2697L136.749 76.3739ZM136.245 69.0707L137.14 82.0285L141.421 81.7325L140.525 68.7748L139.629 55.8171L135.349 56.113L136.245 69.0707ZM140.525 68.7748L127.567 69.6707L128.026 76.305L140.983 75.4092L153.941 74.5133L153.483 67.8789L140.525 68.7748ZM140.983 75.4092L128.026 76.305C128.149 78.0879 128.581 82.8631 132.271 86.8323C136.644 91.5362 142.201 91.7583 144.896 91.572L144.001 78.6143L143.105 65.6565C143.74 65.6126 147.873 65.4627 151.296 69.1438C152.755 70.7138 153.393 72.2978 153.663 73.1878C153.801 73.64 153.868 73.9909 153.901 74.1924C153.933 74.3963 153.941 74.513 153.941 74.5133L140.983 75.4092ZM118.924 70.2682L118.028 57.3105C110.872 57.8053 105.471 64.0077 105.966 71.1641L118.924 70.2682ZM123.204 69.9723L136.162 69.0764C135.667 61.9201 129.465 56.5198 122.308 57.0146L123.204 69.9723ZM123.262 70.8016L135.838 74.0493C136.187 72.6976 136.316 71.2985 136.219 69.9057L123.262 70.8016ZM122.625 73.2647L110.049 70.017C109.005 74.0595 109.968 78.3574 112.637 81.568C115.306 84.7786 119.356 86.5104 123.521 86.2225L122.625 73.2647ZM123.696 73.1907L124.591 86.1485C129.939 85.7788 134.51 82.1622 136.1 77.0433L123.696 73.1907ZM124.182 80.2264L135.938 74.7034C133.659 69.852 128.633 66.8989 123.286 67.2686L124.182 80.2264ZM123.112 80.3004L122.216 67.3426C118.051 67.6306 114.278 69.9032 112.076 73.4506C109.874 76.9979 109.512 81.3875 111.102 85.2478L123.112 80.3004ZM124.081 82.6525L137.039 81.7566C136.942 80.3639 136.622 78.9958 136.09 77.705L124.081 82.6525ZM124.564 89.6346L125.46 102.592C132.616 102.098 138.016 95.8951 137.521 88.7388L124.564 89.6346ZM120.283 89.9306L107.326 90.8264C107.563 94.263 109.156 97.4645 111.754 99.7265C114.352 101.989 117.743 103.126 121.179 102.888L120.283 89.9306ZM127.483 79.7563L126.587 66.7985L127.483 79.7563ZM118.924 70.2682L119.82 83.226L124.1 82.93L123.204 69.9723L122.308 57.0146L118.028 57.3105L118.924 70.2682ZM123.204 69.9723L110.246 70.8682L110.304 71.6975L123.262 70.8016L136.219 69.9057L136.162 69.0764L123.204 69.9723ZM123.262 70.8016L110.685 67.5539L110.049 70.017L122.625 73.2647L135.202 76.5124L135.838 74.0493L123.262 70.8016ZM122.625 73.2647L123.521 86.2225L124.591 86.1485L123.696 73.1907L122.8 60.233L121.73 60.307L122.625 73.2647ZM123.696 73.1907L136.1 77.0433C136.027 77.2773 135.533 78.8097 133.929 80.2662C132.153 81.8791 130.334 82.2303 129.673 82.276L128.777 69.3182L127.881 56.3605C123.876 56.6374 119.802 58.0046 116.464 61.0358C113.299 63.9107 111.936 67.2637 111.291 69.3381L123.696 73.1907ZM128.777 69.3182L129.673 82.276C128.835 82.3339 127.694 82.2289 126.457 81.7223C125.222 81.2169 124.247 80.4567 123.553 79.6663C122.261 78.1938 122.171 76.9464 122.164 76.8447L135.122 75.9488L148.08 75.053C147.808 71.1258 146.499 66.4281 143.076 62.5291C139.312 58.2414 133.838 55.9487 127.881 56.3605L128.777 69.3182ZM135.122 75.9488L122.164 76.8447C122.157 76.7413 122.074 75.472 123.169 73.8179C123.756 72.9321 124.623 72.0472 125.774 71.3822C126.926 70.7167 128.031 70.4618 128.852 70.405L129.748 83.3628L130.644 96.3205C136.56 95.9115 141.672 92.927 144.828 88.1602C147.7 83.8231 148.351 78.9818 148.08 75.053L135.122 75.9488ZM129.748 83.3628L128.852 70.405C129.513 70.3593 131.363 70.4568 133.344 71.8099C135.133 73.0319 135.834 74.4816 135.938 74.7034L124.182 80.2264L112.426 85.7493C113.35 87.7154 115.161 90.8489 118.692 93.2608C122.415 95.8039 126.639 96.5974 130.644 96.3205L129.748 83.3628ZM124.182 80.2264L123.286 67.2686L122.216 67.3426L123.112 80.3004L124.008 93.2581L125.078 93.1841L124.182 80.2264ZM123.112 80.3004L111.102 85.2478L112.071 87.6L124.081 82.6525L136.09 77.705L135.121 75.3529L123.112 80.3004ZM124.081 82.6525L111.123 83.5484L111.606 90.5305L124.564 89.6346L137.521 88.7388L137.039 81.7566L124.081 82.6525ZM124.564 89.6346L123.668 76.6769L119.388 76.9728L120.283 89.9306L121.179 102.888L125.46 102.592L124.564 89.6346ZM120.283 89.9306L133.241 89.0347L131.882 69.3724L118.924 70.2682L105.966 71.1641L107.326 90.8264L120.283 89.9306ZM123.672 76.7404L110.714 77.6363C110.962 81.2106 112.388 86.0678 116.923 89.5084C121.097 92.6747 125.672 92.9011 128.378 92.714L127.483 79.7563L126.587 66.7985C126.993 66.7705 129.741 66.6259 132.624 68.813C135.868 71.2743 136.54 74.5441 136.63 75.8446L123.672 76.7404ZM127.483 79.7563L128.378 92.714C131.085 92.5269 135.585 91.673 139.284 87.9625C143.302 83.9305 144.046 78.9232 143.799 75.3489L130.842 76.2448L117.884 77.1406C117.794 75.8402 118.009 72.5091 120.884 69.6246C123.438 67.0616 126.181 66.8266 126.587 66.7985L127.483 79.7563ZM130.842 76.2448L143.799 75.3489C143.552 71.7779 142.133 66.9542 137.654 63.5122C133.497 60.3177 128.914 60.0522 126.134 60.2444L127.029 73.2022L127.925 86.1599C127.445 86.1931 124.69 86.312 121.825 84.11C118.637 81.6606 117.973 78.4378 117.884 77.1406L130.842 76.2448ZM127.029 73.2022L126.134 60.2444C123.353 60.4366 118.85 61.3303 115.173 65.0665C111.21 69.0921 110.468 74.0653 110.714 77.6363L123.672 76.7404L136.63 75.8446C136.72 77.1417 136.505 80.4253 133.686 83.29C131.15 85.8653 128.405 86.1267 127.925 86.1599L127.029 73.2022ZM108.203 71.0094L121.161 70.1136C120.923 66.6769 119.33 63.4755 116.732 61.2134C114.134 58.9514 110.744 57.8141 107.307 58.0517L108.203 71.0094ZM109.507 89.8692L110.403 102.827C113.84 102.589 117.041 100.996 119.303 98.3983C121.565 95.8002 122.703 92.41 122.465 88.9733L109.507 89.8692ZM104.968 86.4199L105.864 99.3777C109.301 99.1401 112.502 97.547 114.764 94.949C117.026 92.3509 118.163 88.9607 117.926 85.5241L104.968 86.4199ZM104.182 75.0505L117.14 74.1547C116.645 66.9983 110.443 61.598 103.286 62.0928L104.182 75.0505ZM102.552 90.3501L101.656 77.3923C101.302 77.4168 101.034 77.4235 100.837 77.4208C100.638 77.4181 100.555 77.4065 100.566 77.4079C100.577 77.4094 100.727 77.4302 100.978 77.5104C101.235 77.5923 101.611 77.7405 102.046 77.9991C103.029 78.5824 103.829 79.437 104.305 80.3239C104.722 81.0983 104.632 81.4127 104.586 80.7479L91.6283 81.6438L78.6705 82.5397C79.1611 89.6359 82.1497 96.3961 88.7821 100.335C94.3617 103.648 100.331 103.523 103.448 103.308L102.552 90.3501ZM91.6283 81.6438L104.586 80.7479C104.539 80.0713 104.672 80.3606 104.37 81.1774C104.024 82.1149 103.353 83.0715 102.459 83.7872C102.063 84.1046 101.71 84.3041 101.465 84.4216C101.226 84.5366 101.078 84.5786 101.066 84.5819C101.055 84.5851 101.134 84.5624 101.33 84.5325C101.524 84.5028 101.79 84.4725 102.144 84.448L101.248 71.4903L100.352 58.5325C97.236 58.748 91.2979 59.4458 86.2236 63.5083C80.1977 68.3327 78.1801 75.4466 78.6705 82.5397L91.6283 81.6438ZM101.248 71.4903L102.144 84.448L109.099 83.9672L108.203 71.0094L107.307 58.0517L100.352 58.5325L101.248 71.4903ZM108.203 71.0094L95.2456 71.9053L96.5495 90.7651L109.507 89.8692L122.465 88.9733L121.161 70.1136L108.203 71.0094ZM109.507 89.8692L108.611 76.9115L101.656 77.3923L102.552 90.3501L103.448 103.308L110.403 102.827L109.507 89.8692ZM101.507 75.2355L100.611 62.2778C99.6736 62.3426 93.9138 62.4389 89.2138 66.1877C83.2367 70.955 82.6474 77.8552 82.9508 82.2437L95.9085 81.3479L108.866 80.452C108.837 80.0327 108.951 80.6975 108.582 81.9108C108.141 83.3634 107.15 85.11 105.412 86.4962C103.855 87.738 102.422 88.1059 102.014 88.1976C101.672 88.2743 101.594 88.2492 102.403 88.1932L101.507 75.2355ZM95.9085 81.3479L82.9508 82.2437C83.2548 86.6407 84.8 93.3893 91.3856 97.2756C96.5471 100.322 102.249 99.6276 103.189 99.5626L102.293 86.6049L101.397 73.6471C100.589 73.703 100.659 73.6677 101.004 73.6961C101.415 73.73 102.878 73.8945 104.588 74.9034C106.499 76.0313 107.729 77.6228 108.374 79.0119C108.913 80.1729 108.894 80.8592 108.866 80.452L95.9085 81.3479ZM102.293 86.6049L103.189 99.5626L105.864 99.3777L104.968 86.4199L104.072 73.4622L101.397 73.6471L102.293 86.6049ZM104.968 86.4199L117.926 85.5241L117.14 74.1547L104.182 75.0505L91.2243 75.9464L92.0103 87.3158L104.968 86.4199ZM104.182 75.0505L103.286 62.0928L100.611 62.2778L101.507 75.2355L102.403 88.1932L105.078 88.0083L104.182 75.0505ZM83.478 86.5617L82.5821 73.604L83.478 86.5617ZM75.7879 79.1371L74.892 66.1794C71.4554 66.417 68.2539 68.01 65.9919 70.6081C63.7299 73.2061 62.5925 76.5964 62.8301 80.033L75.7879 79.1371ZM86.0337 78.4287L86.9296 91.3865C94.0859 90.8917 99.4862 84.6893 98.9915 77.5329L86.0337 78.4287ZM79.5108 77.7777L80.4066 90.7354C86.293 90.3285 91.1654 86.005 92.2699 80.209L79.5108 77.7777ZM75.2305 78.0736L62.2711 77.2026C62.0195 80.9464 63.3992 84.6161 66.055 87.2668C68.7107 89.9175 72.3831 91.2902 76.1264 91.0313L75.2305 78.0736ZM86.2002 80.8364L99.1579 79.9405C98.6631 72.7842 92.4607 67.3839 85.3043 67.8786L86.2002 80.8364ZM79.9671 81.2673L79.0712 68.3096C71.9148 68.8044 66.5145 75.0068 67.0093 82.1632L79.9671 81.2673ZM83.2376 83.084L82.3417 70.1263L83.2376 83.084ZM90.1204 79.2214L77.1627 80.1172C77.0981 79.1835 77.3722 77.2686 78.9638 75.5532C80.4591 73.9416 82.0625 73.6399 82.5821 73.604L83.478 86.5617L84.3739 99.5195C89.0935 99.1932 94.166 97.3614 98.0066 93.2223C101.943 88.9794 103.439 83.5395 103.078 78.3255L90.1204 79.2214ZM83.478 86.5617L82.5821 73.604C82.9885 73.5759 84.5221 73.6101 86.2082 74.9277C88.0597 76.3747 88.7518 78.3307 88.8381 79.5788L75.8804 80.4747L62.9226 81.3706C63.2919 86.7116 65.6828 91.8564 70.2124 95.3962C74.5766 98.8067 79.7675 99.8379 84.3739 99.5195L83.478 86.5617ZM75.8804 80.4747L88.8381 79.5788L88.7456 78.2413L75.7879 79.1371L62.8301 80.033L62.9226 81.3706L75.8804 80.4747ZM75.7879 79.1371L76.6838 92.0949L86.9296 91.3865L86.0337 78.4287L85.1378 65.471L74.892 66.1794L75.7879 79.1371ZM86.0337 78.4287L98.9915 77.5329C98.7038 73.3729 96.7215 68.8761 92.4309 65.9046C88.5514 63.2179 84.3474 62.8646 81.3968 63.0686L82.2927 76.0263L83.1885 88.9841C82.6723 89.0198 80.2851 89.0919 77.6408 87.2605C74.5853 85.1444 73.2563 81.933 73.076 79.3246L86.0337 78.4287ZM82.2927 76.0263L81.3968 63.0686C78.3013 63.2826 68.6918 65.1649 66.7517 75.3464L79.5108 77.7777L92.2699 80.209C91.5576 83.947 89.21 86.3994 87.1868 87.6357C85.3786 88.7407 83.8263 88.94 83.1885 88.9841L82.2927 76.0263ZM79.5108 77.7777L78.6149 64.8199L74.3347 65.1159L75.2305 78.0736L76.1264 91.0313L80.4066 90.7354L79.5108 77.7777ZM75.2305 78.0736L88.19 78.9446C88.0223 81.4387 86.981 83.0239 86.0809 83.9164C84.9073 85.0802 83.6243 85.4596 82.9481 85.5064L82.0522 72.5486L81.1564 59.5909C70.1175 60.3541 62.8469 68.6349 62.2711 77.2026L75.2305 78.0736ZM82.0522 72.5486L82.9481 85.5064C82.5981 85.5306 80.8356 85.4435 79.1145 83.8519C77.557 82.4115 77.2112 80.8195 77.1627 80.1172L90.1204 79.2214L103.078 78.3255C102.765 73.7978 100.98 68.69 96.7521 64.78C92.3605 60.7186 86.6961 59.2079 81.1564 59.5909L82.0522 72.5486ZM86.2002 80.8364L85.3043 67.8786L79.0712 68.3096L79.9671 81.2673L80.8629 94.2251L87.096 93.7941L86.2002 80.8364ZM79.9671 81.2673L67.0093 82.1632C67.2801 86.0793 69.1826 90.4691 73.4314 93.3588C77.2448 95.9523 81.3422 96.2348 84.1334 96.0418L83.2376 83.084L82.3417 70.1263C82.752 70.0979 85.2493 69.9803 88.0402 71.8784C91.2667 74.0727 92.7243 77.4719 92.9248 80.3715L79.9671 81.2673ZM83.2376 83.084L84.1334 96.0418C86.9154 95.8494 90.9769 95.0065 94.4159 91.8534C98.2475 88.3403 99.419 83.7164 99.1579 79.9405L86.2002 80.8364L73.2424 81.7322C73.0516 78.973 73.9323 75.3906 76.8602 72.706C79.3955 70.3815 81.9406 70.154 82.3417 70.1263L83.2376 83.084ZM74.1809 78.2806L75.0767 91.2383C82.2331 90.7435 87.6334 84.5411 87.1386 77.3847L74.1809 78.2806ZM69.9006 78.5765L56.9429 79.4724C57.1805 82.909 58.7735 86.1104 61.3716 88.3725C63.9696 90.6345 67.3599 91.7718 70.7965 91.5342L69.9006 78.5765ZM64.9865 77.8679L77.9442 76.9721L64.9865 77.8679ZM68.0133 79.2714L64.7656 91.8475C64.779 91.851 64.7924 91.8544 64.8058 91.8578L68.0133 79.2714ZM61.5087 83.1617L60.6128 70.204C53.4565 70.6987 48.0562 76.9012 48.551 84.0576L61.5087 83.1617ZM65.789 82.8658L78.7467 81.9699C78.2519 74.8136 72.0494 69.4133 64.8931 69.908L65.789 82.8658ZM68.0991 84.3995L67.2032 71.4417L68.0991 84.3995ZM69.6238 83.5146L56.666 84.4104L69.6238 83.5146ZM66.0259 82.0161L62.8554 94.6119C62.8612 94.6134 62.867 94.6149 62.8728 94.6163L66.0259 82.0161ZM60.697 78.0301L73.6547 77.1343C73.7225 78.1152 73.6406 79.5365 73.0235 81.126C72.3828 82.7764 71.3515 84.1212 70.1936 85.0822C68.1258 86.7986 66.5025 86.6434 67.6039 86.5673L66.708 73.6095L65.8121 60.6518C62.2587 60.8974 57.5514 61.8156 53.6024 65.0934C48.9518 68.9534 47.4198 74.3059 47.7392 78.926L60.697 78.0301ZM66.708 73.6095L67.6039 86.5673C68.6643 86.4939 67.1508 86.8638 65.002 85.425C63.8333 84.6425 62.8179 83.5346 62.1237 82.2138C61.4608 80.9526 61.2692 79.8434 61.2231 79.1764L74.1809 78.2806L87.1386 77.3847C86.8092 72.6197 84.6412 67.312 79.455 63.8395C74.8682 60.7684 69.7275 60.3811 65.8121 60.6518L66.708 73.6095ZM74.1809 78.2806L73.285 65.3228L69.0047 65.6187L69.9006 78.5765L70.7965 91.5342L75.0767 91.2383L74.1809 78.2806ZM69.9006 78.5765L82.8584 77.6806C82.5984 73.9212 80.8083 69.4217 76.3959 66.4641C72.5494 63.8858 68.4689 63.6936 65.9003 63.8712L66.7962 76.8289L67.692 89.7867C67.3706 89.8089 64.8063 89.9689 61.9321 88.0424C58.4922 85.7366 57.1306 82.1884 56.9429 79.4724L69.9006 78.5765ZM66.7962 76.8289L65.9003 63.8712C64.7107 63.9534 62.0351 64.2174 59.2747 65.7071C57.7527 66.5285 55.7266 67.9817 54.1523 70.4388C52.4746 73.0573 51.8377 76.0013 52.0287 78.7638L64.9865 77.8679L77.9442 76.9721C78.113 79.4136 77.5475 82.0771 76.0252 84.4531C74.6063 86.6676 72.8197 87.9161 71.612 88.5679C69.4799 89.7185 67.7314 89.784 67.692 89.7867L66.7962 76.8289ZM64.9865 77.8679L52.0287 78.7638C52.2249 81.6016 53.3268 84.6796 55.7257 87.2192C57.7108 89.3207 59.8788 90.276 60.7987 90.6497C61.8103 91.0606 62.7574 91.321 63.2137 91.4447C63.6952 91.5752 64.3608 91.743 64.7656 91.8475L68.0133 79.2714L71.2611 66.6953C70.5575 66.5137 70.2966 66.4498 70.0102 66.3722C69.6987 66.2877 70.0366 66.3635 70.5746 66.582C71.0209 66.7633 72.8508 67.5185 74.6102 69.3811C76.7834 71.6818 77.7721 74.482 77.9442 76.9721L64.9865 77.8679ZM68.0133 79.2714L64.8058 91.8578C65.2103 91.9609 65.6726 92.0718 65.914 92.1308C66.2169 92.2048 66.3937 92.2501 66.5245 92.2863C66.8448 92.375 66.5274 92.3152 65.9633 92.0283C65.3582 91.7206 64.0801 90.9576 62.9162 89.4219C61.6517 87.7532 61.0694 85.8947 60.9592 84.3018L73.917 83.4059L86.8747 82.51C86.6601 79.4056 85.6091 76.3565 83.6199 73.7316C81.7313 71.2397 79.4726 69.755 77.7393 68.8734C74.9287 67.444 71.307 66.707 71.2209 66.685L68.0133 79.2714ZM73.917 83.4059L60.9592 84.3018C60.8624 82.9017 61.08 81.213 61.8756 79.5195C62.6634 77.8427 63.7818 76.6617 64.7897 75.9089C66.5929 74.562 67.9325 74.6168 67.3984 74.6537L68.2943 87.6115L69.1902 100.569C72.3745 100.349 76.6087 99.5049 80.3353 96.7214C84.6886 93.4697 87.2747 88.2949 86.8747 82.51L73.917 83.4059ZM68.2943 87.6115L67.3984 74.6537C67.1343 74.672 68.8946 74.4871 71.0341 76.0876C73.3766 77.8398 74.3347 80.3595 74.4665 82.2658L61.5087 83.1617L48.551 84.0576C48.864 88.5856 50.9276 93.4883 55.4739 96.8891C59.8173 100.138 64.8798 100.867 69.1902 100.569L68.2943 87.6115ZM61.5087 83.1617L62.4046 96.1195L66.6848 95.8235L65.789 82.8658L64.8931 69.908L60.6128 70.204L61.5087 83.1617ZM65.789 82.8658L52.8312 83.7617C53.1043 87.7122 55.0112 91.8411 58.8579 94.5942C62.4242 97.1466 66.2797 97.5449 68.995 97.3572L68.0991 84.3995L67.2032 71.4417C68.4472 71.3557 71.1808 71.4687 73.9766 73.4696C77.0527 75.6712 78.5401 78.9824 78.7467 81.9699L65.789 82.8658ZM68.0991 84.3995L68.995 97.3572C70.1124 97.28 72.8275 97.0255 75.6253 95.4514C77.1915 94.5702 79.1742 93.0534 80.6694 90.5719C82.2364 87.9712 82.7568 85.1538 82.5815 82.6187L69.6238 83.5146L56.666 84.4104C56.5093 82.1428 56.9754 79.561 58.4188 77.1654C59.7904 74.889 61.5802 73.5468 62.8877 72.8112C65.1681 71.5282 67.1023 71.4487 67.2032 71.4417L68.0991 84.3995ZM69.6238 83.5146L82.5815 82.6187C82.2181 77.3615 79.0683 74.1555 77.2014 72.7391C75.4746 71.4289 73.7804 70.7828 73.0728 70.5251C71.6387 70.003 69.8538 69.5849 69.1789 69.416L66.0259 82.0161L62.8728 94.6163C64.3862 94.995 64.378 95.0051 64.1848 94.9347C64.0976 94.903 62.8898 94.4887 61.4998 93.4341C59.9698 92.2732 57.0073 89.3466 56.666 84.4104L69.6238 83.5146ZM66.0259 82.0161L69.1964 69.4204C68.3167 69.1989 68.0921 69.145 67.8751 69.0789C67.6979 69.0249 68.1875 69.1506 68.9178 69.5718C69.7321 70.0414 71.0043 70.9688 72.0695 72.5799C73.1661 74.2387 73.5698 75.9057 73.6547 77.1343L60.697 78.0301L47.7392 78.926C47.9213 81.559 48.7045 84.3422 50.3997 86.9062C52.0633 89.4226 54.1529 91.0444 55.9401 92.0751C58.8677 93.7635 62.3446 94.4833 62.8554 94.6119L66.0259 82.0161ZM54.3296 89.6522L53.4337 76.6944L54.3296 89.6522ZM56.9922 91.6184L44.0344 92.5143L56.9922 91.6184ZM54.6255 93.9324L53.7296 80.9746L54.6255 93.9324ZM51.9094 91.9698L38.9516 92.8657L51.9094 91.9698ZM58.8406 74.4222L71.7984 73.5264C71.5608 70.0898 69.9677 66.8883 67.3697 64.6262C64.7716 62.3642 61.3814 61.2269 57.9448 61.4645L58.8406 74.4222ZM59.0996 78.1674L59.9954 91.1252C67.1518 90.6304 72.5521 84.4279 72.0573 77.2716L59.0996 78.1674ZM55.2741 78.4319L54.3782 65.4742C47.2219 65.9689 41.8216 72.1714 42.3164 79.3278L55.2741 78.4319ZM55.7013 84.6115L42.7436 85.5074C42.9888 89.0535 44.6766 92.3443 47.4136 94.6124C50.1505 96.8806 53.6975 97.9279 57.2275 97.5102L55.7013 84.6115ZM58.9807 84.2235L71.9384 83.3276C71.6933 79.7815 70.0054 76.4907 67.2685 74.2226C64.5315 71.9545 60.9846 70.9071 57.4545 71.3248L58.9807 84.2235ZM59.2396 87.9687L60.8153 100.861C67.6724 100.023 72.6738 93.9646 72.1974 87.0728L59.2396 87.9687ZM54.1753 88.5876L52.5997 75.6949L52.5876 75.6964L54.1753 88.5876ZM51.1544 78.7167L64.1121 77.8209C63.6174 70.6645 57.4149 65.2642 50.2585 65.759L51.1544 78.7167ZM47.3289 78.9812L34.3712 79.8771C34.8659 87.0335 41.0684 92.4337 48.2248 91.939L47.3289 78.9812ZM47.07 75.236L46.1741 62.2783C39.0178 62.773 33.6175 68.9755 34.1122 76.1319L47.07 75.236ZM54.3296 89.6522L55.2254 102.61C54.1644 102.683 51.4153 102.638 48.5855 100.583C45.385 98.2595 44.2012 94.9258 44.0344 92.5143L56.9922 91.6184L69.9499 90.7225C69.687 86.9199 67.961 82.5485 63.8478 79.5622C60.1054 76.845 56.0731 76.5119 53.4337 76.6944L54.3296 89.6522ZM56.9922 91.6184L44.0344 92.5143C43.8625 90.0281 44.6182 86.6164 47.3887 83.9267C49.8683 81.5195 52.5653 81.0551 53.7296 80.9746L54.6255 93.9324L55.5214 106.89C58.264 106.701 62.1916 105.761 65.4834 102.565C69.0663 99.0872 70.2161 94.5731 69.9499 90.7225L56.9922 91.6184ZM54.6255 93.9324L53.7296 80.9746C54.8931 80.8942 57.5196 80.9878 60.2316 82.9138C63.3053 85.0966 64.6788 88.3505 64.8671 91.074L51.9094 91.9698L38.9516 92.8657C39.2343 96.9534 41.1767 101.243 45.1903 104.094C48.8422 106.687 52.7796 107.08 55.5214 106.89L54.6255 93.9324ZM51.9094 91.9698L64.8671 91.074C65.0503 93.7231 64.1809 97.1865 61.3552 99.8245C58.8942 102.122 56.2877 102.536 55.2254 102.61L54.3296 89.6522L53.4337 76.6944C50.7931 76.877 46.9284 77.7547 43.6279 80.836C39.9626 84.2578 38.6723 88.8254 38.9516 92.8657L51.9094 91.9698ZM58.8406 74.4222L45.8829 75.3181L46.1418 79.0633L59.0996 78.1674L72.0573 77.2716L71.7984 73.5264L58.8406 74.4222ZM59.0996 78.1674L58.2037 65.2097L54.3782 65.4742L55.2741 78.4319L56.17 91.3897L59.9954 91.1252L59.0996 78.1674ZM55.2741 78.4319L42.3164 79.3278L42.7436 85.5074L55.7013 84.6115L68.6591 83.7156L68.2319 77.5361L55.2741 78.4319ZM55.7013 84.6115L57.2275 97.5102L60.5068 97.1222L58.9807 84.2235L57.4545 71.3248L54.1752 71.7128L55.7013 84.6115ZM58.9807 84.2235L46.0229 85.1194L46.2819 88.8646L59.2396 87.9687L72.1974 87.0728L71.9384 83.3276L58.9807 84.2235ZM59.2396 87.9687L57.6639 75.076L52.5997 75.6949L54.1753 88.5876L55.751 101.48L60.8153 100.861L59.2396 87.9687ZM54.1753 88.5876L52.5876 75.6964C54.2942 75.4862 57.6962 75.6244 60.8153 78.2703C63.8692 80.8608 64.5445 84.0742 64.6503 85.6056L51.6926 86.5014L38.7348 87.3973C38.9443 90.4267 40.1147 94.7751 44.0109 98.0802C47.9724 101.441 52.5639 101.873 55.7631 101.479L54.1753 88.5876ZM51.6926 86.5014L64.6503 85.6056L64.1121 77.8209L51.1544 78.7167L38.1966 79.6126L38.7348 87.3973L51.6926 86.5014ZM51.1544 78.7167L50.2585 65.759L46.4331 66.0235L47.3289 78.9812L48.2248 91.939L52.0502 91.6745L51.1544 78.7167ZM47.3289 78.9812L60.2867 78.0854L60.0277 74.3402L47.07 75.236L34.1122 76.1319L34.3712 79.8771L47.3289 78.9812ZM47.07 75.236L47.9658 88.1938L59.7365 87.38L58.8406 74.4222L57.9448 61.4645L46.1741 62.2783L47.07 75.236ZM32.1692 89.8403L31.2733 76.8825L32.1692 89.8403ZM30.9921 89.9217L18.0344 90.8175C18.5291 97.9739 24.7316 103.374 31.888 102.879L30.9921 89.9217ZM30.7332 86.1765L29.8373 73.2187C22.681 73.7135 17.2807 79.916 17.7754 87.0723L30.7332 86.1765ZM31.6427 86.1136L30.7469 73.1558L31.6427 86.1136ZM32.8834 85.7859L40.644 96.2012C43.5368 94.0458 45.4028 90.7843 45.7951 87.1982C46.1873 83.6121 45.0705 80.0243 42.7121 77.2945L32.8834 85.7859ZM32.4016 84.2602L45.3594 83.3643L32.4016 84.2602ZM38.1274 78.4347L43.1266 90.4228C49.1346 87.9173 52.3602 81.3514 50.6712 75.0648C48.9823 68.7781 42.9006 64.7126 36.4459 65.5553L38.1274 78.4347ZM46.3544 69.9096L59.3121 69.0138C59.0745 65.5772 57.4815 62.3757 54.8834 60.1136C52.2854 57.8516 48.8951 56.7143 45.4585 56.9519L46.3544 69.9096ZM46.6133 73.6548L47.5092 86.6126C54.6655 86.1178 60.0658 79.9153 59.5711 72.759L46.6133 73.6548ZM45.3342 75.7592L57.9005 72.4739C56.1123 65.6341 49.1821 61.4806 42.3071 63.1282L45.3342 75.7592ZM45.9554 78.1354L48.1913 90.9302C51.7684 90.3051 54.9205 88.2111 56.8833 85.1559C58.8461 82.1007 59.4403 78.3633 58.5217 74.8501L45.9554 78.1354ZM37.7208 79.9412L33.8359 67.5471C28.1012 69.3446 24.3485 74.8416 24.7631 80.837L37.7208 79.9412ZM37.7948 81.0112L24.837 81.9071C25.1283 86.1201 27.4497 89.9286 31.0609 92.118C34.6721 94.3075 39.1223 94.6045 42.9925 92.9146L37.7948 81.0112ZM40.9354 89.503L40.0396 76.5453L40.9354 89.503ZM35.4852 88.4283L42.4435 77.4607C36.4773 73.6756 28.5798 75.3538 24.6684 81.238L35.4852 88.4283ZM32.1692 89.8403L31.2733 76.8825L30.0963 76.9639L30.9921 89.9217L31.888 102.879L33.0651 102.798L32.1692 89.8403ZM30.9921 89.9217L43.9499 89.0258L43.6909 85.2806L30.7332 86.1765L17.7754 87.0723L18.0344 90.8175L30.9921 89.9217ZM30.7332 86.1765L31.6291 99.1342L32.5386 99.0713L31.6427 86.1136L30.7469 73.1558L29.8373 73.2187L30.7332 86.1765ZM31.6427 86.1136L32.5386 99.0713C32.6053 99.0667 33.7122 99.0099 34.9439 98.7518C36.2482 98.4784 38.4367 97.8459 40.644 96.2012L32.8834 85.7859L25.1228 75.3706C26.9723 73.9925 28.741 73.5101 29.6148 73.3269C30.4159 73.159 31.0815 73.1327 30.7469 73.1558L31.6427 86.1136ZM32.8834 85.7859L42.7121 77.2945C43.5836 78.3033 44.0766 79.205 44.2893 79.6181C44.5529 80.1301 44.7361 80.5846 44.8654 80.9569C45.1192 81.6877 45.2987 82.4872 45.3594 83.3643L32.4016 84.2602L19.4439 85.1561C19.5545 86.7555 19.8872 88.2164 20.3256 89.4787C20.6449 90.3982 21.4099 92.3734 23.0548 94.2773L32.8834 85.7859ZM32.4016 84.2602L45.3594 83.3643C45.4624 84.8546 45.1932 86.3978 44.5666 87.7976C43.975 89.119 43.2271 89.957 42.7823 90.3795C42.0709 91.0553 41.8236 90.9661 43.1266 90.4228L38.1274 78.4347L33.1281 66.4466C30.7996 67.4177 27.6016 68.9706 24.8912 71.5452C21.812 74.4702 19.0266 79.12 19.4439 85.1561L32.4016 84.2602ZM38.1274 78.4347L36.4459 65.5553C35.8756 65.6298 36.9672 65.3303 38.8245 66.0799C39.9328 66.5273 41.5138 67.4435 42.8525 69.1797C44.2415 70.9812 44.7991 72.9282 44.9058 74.4717L31.9481 75.3676L18.9903 76.2635C19.196 79.2382 20.1926 82.3342 22.2801 85.0417C24.3172 87.6837 26.8563 89.2629 29.1018 90.1692C33.2333 91.8367 37.3157 91.6396 39.8088 91.3141L38.1274 78.4347ZM31.9481 75.3676L44.9058 74.4717C44.9592 75.243 44.9231 76.3876 44.5247 77.725C44.1127 79.1082 43.4115 80.3628 42.5214 81.3981C41.6694 82.3892 40.8143 82.9842 40.2554 83.3083C39.7124 83.6232 39.3486 83.741 39.3258 83.7484C39.2935 83.759 39.4368 83.7108 39.8307 83.6331C40.2164 83.5569 40.7464 83.471 41.4607 83.3807C42.9209 83.1962 44.7895 83.0375 47.2502 82.8674L46.3544 69.9096L45.4585 56.9519C40.8522 57.2703 35.4575 57.6813 31.2461 59.0595C28.9988 59.795 25.5778 61.2587 22.8228 64.4634C19.6771 68.1224 18.7274 72.46 18.9903 76.2635L31.9481 75.3676ZM46.3544 69.9096L33.3966 70.8055L33.6556 74.5507L46.6133 73.6548L59.5711 72.759L59.3121 69.0138L46.3544 69.9096ZM46.6133 73.6548L45.7174 60.6971C41.7753 60.9696 38.0408 61.2285 35.412 61.7947C34.2921 62.0359 31.0496 62.7538 28.1555 65.2577C24.0238 68.8321 23.131 73.5599 23.3602 76.8753L36.318 75.9794L49.2757 75.0835C49.3444 76.0778 49.3281 77.7977 48.6222 79.8002C47.8687 81.9374 46.5911 83.658 45.1516 84.9034C43.8448 86.0339 42.62 86.5905 41.9994 86.8358C41.3613 87.0881 40.9247 87.1804 40.8822 87.1896C40.8476 87.1971 41.2423 87.1189 42.5276 86.9968C43.7266 86.883 45.3196 86.764 47.5092 86.6126L46.6133 73.6548ZM36.318 75.9794L23.3602 76.8753C23.5767 80.0069 24.8515 83.1825 27.3201 85.6903C29.563 87.9688 32.0701 88.9676 33.7045 89.4255C36.6955 90.2633 39.4643 90.0261 40.6867 89.8987C43.4757 89.6081 46.7161 88.7845 48.3613 88.3902L45.3342 75.7592L42.3071 63.1282C39.8539 63.7161 38.6546 63.9925 37.9943 64.0613C37.492 64.1136 38.7838 63.871 40.7118 64.411C41.8147 64.72 43.8938 65.4969 45.833 67.4668C47.998 69.6662 49.0934 72.4467 49.2757 75.0835L36.318 75.9794ZM45.3342 75.7592L32.7679 79.0446L33.3891 81.4208L45.9554 78.1354L58.5217 74.8501L57.9005 72.4739L45.3342 75.7592ZM45.9554 78.1354L43.7196 65.3406C40.75 65.8595 37.184 66.4976 33.8359 67.5471L37.7208 79.9412L41.6057 92.3353C43.0985 91.8673 45.0524 91.4787 48.1913 90.9302L45.9554 78.1354ZM37.7208 79.9412L24.7631 80.837L24.837 81.9071L37.7948 81.0112L50.7525 80.1154L50.6785 79.0453L37.7208 79.9412ZM37.7948 81.0112L42.9925 92.9146C43.9462 92.4981 43.6965 92.9426 42.2031 92.6512C41.2973 92.4745 39.5092 91.9083 37.8382 90.2015C36.0325 88.3571 35.3468 86.183 35.2375 84.6017L48.1952 83.7059L61.153 82.81C60.8901 79.0083 59.431 75.1238 56.4006 72.0285C53.505 69.0707 50.041 67.7132 47.1769 67.1545C41.7668 66.0991 36.4703 67.4166 32.597 69.1079L37.7948 81.0112ZM48.1952 83.7059L35.2375 84.6017C35.1521 83.3667 35.3646 81.8552 36.0991 80.3561C36.813 78.8993 37.7817 77.936 38.55 77.3701C39.894 76.3802 40.6986 76.4997 40.0396 76.5453L40.9354 89.503L41.8313 102.461C45.4257 102.212 49.9832 101.212 53.9552 98.2867C58.4891 94.9474 61.6121 89.4512 61.153 82.81L48.1952 83.7059ZM40.9354 89.503L40.0396 76.5453C39.8166 76.5607 39.948 76.5262 40.337 76.5975C40.7489 76.6729 41.5356 76.8847 42.4435 77.4607L35.4852 88.4283L28.527 99.396C33.281 102.412 38.3497 102.701 41.8313 102.461L40.9354 89.503ZM35.4852 88.4283L24.6684 81.238C26.2953 78.7905 28.4653 77.6921 29.7194 77.2538C30.8045 76.8745 31.5541 76.8631 31.2733 76.8825L32.1692 89.8403L33.0651 102.798C33.9417 102.737 41.7094 102.528 46.3021 95.6187L35.4852 88.4283ZM40.1611 82.1916L39.2653 69.2339C37.3747 69.3646 33.8898 69.7611 30.5863 71.8124C28.7126 72.9758 26.7074 74.7928 25.3185 77.4682C23.9211 80.1602 23.5869 82.8752 23.7426 85.1277L36.7004 84.2318L49.6581 83.3359C49.7741 85.0132 49.5316 87.2078 48.3743 89.4372C47.2256 91.6499 45.6091 93.0621 44.2894 93.8815C42.0941 95.2446 40.3794 95.1962 41.057 95.1494L40.1611 82.1916ZM36.7004 84.2318L23.7426 85.1277C23.9016 87.4277 24.6306 90.0652 26.3758 92.5128C28.1032 94.9354 30.308 96.4461 32.2991 97.3404C35.8431 98.9322 39.3434 98.8697 41.3048 98.7341L40.409 85.7763L39.5131 72.8186C38.9064 72.8605 40.5912 72.5875 42.9423 73.6435C44.3371 74.2699 46.1011 75.4315 47.5271 77.4314C48.9709 79.4564 49.5379 81.5977 49.6581 83.3359L36.7004 84.2318ZM40.409 85.7763L41.3048 98.7341C43.2777 98.5977 46.7234 98.1758 49.9936 96.1464C51.8235 95.0108 53.8092 93.2364 55.2084 90.6103C56.6295 87.9433 57.0175 85.1999 56.8542 82.8384L43.8965 83.7343L30.9388 84.6301C30.8143 82.8305 31.1068 80.601 32.2825 78.3945C33.4365 76.2289 35.0269 74.8614 36.2962 74.0737C38.4453 72.74 40.1084 72.7774 39.5131 72.8186L40.409 85.7763ZM43.8965 83.7343L56.8542 82.8384C56.6943 80.5255 55.958 77.8558 54.1731 75.3824C52.4089 72.9376 50.1663 71.4405 48.1733 70.5676C44.6444 69.0219 41.1678 69.1023 39.2653 69.2339L40.1611 82.1916L41.057 95.1494C41.7227 95.1033 40.0739 95.38 37.7508 94.3624C36.3606 93.7535 34.5654 92.6035 33.1077 90.5835C31.6295 88.535 31.0589 86.3678 30.9388 84.6301L43.8965 83.7343ZM20.7452 87.1358L19.8493 74.1781L20.7452 87.1358ZM23.9038 76.8377L23.0079 63.8799C15.8516 64.3747 10.4513 70.5772 10.9461 77.7335L23.9038 76.8377ZM28.184 76.5418L41.1418 75.6459C40.647 68.4895 34.4445 63.0892 27.2882 63.584L28.184 76.5418ZM29.1181 90.0512L30.0139 103.009C37.1703 102.514 42.5706 96.3117 42.0758 89.1554L29.1181 90.0512ZM24.8378 90.3472L11.8801 91.243C12.3748 98.3994 18.5773 103.8 25.7337 103.305L24.8378 90.3472ZM24.725 88.7153L12.1489 85.4676C11.7998 86.8193 11.671 88.2185 11.7672 89.6112L24.725 88.7153ZM25.3611 86.2522L37.9372 89.4999C38.9811 85.4574 38.0182 81.1595 35.3491 77.9489C32.6801 74.7383 28.6304 73.0065 24.4652 73.2945L25.3611 86.2522ZM24.291 86.3262L23.3952 73.3684C17.3219 73.7883 12.3551 78.3701 11.4475 84.3898L24.291 86.3262ZM19.4793 90.9864L18.5834 78.0287L19.4793 90.9864ZM12.9892 77.5923L12.0933 64.6345C4.93697 65.1293 -0.463322 71.3318 0.0314508 78.4882L12.9892 77.5923ZM17.2694 77.2964L30.2272 76.4005C29.9896 72.9639 28.3965 69.7624 25.7985 67.5004C23.2004 65.2383 19.8102 64.101 16.3736 64.3386L17.2694 77.2964ZM17.7281 83.9307L4.77037 84.8266L17.7281 83.9307ZM20.7452 87.1358L21.641 100.094C25.0459 99.8582 30.2182 98.5296 33.8818 93.6158C37.1896 89.179 37.4316 84.1868 37.2074 80.9443L24.2497 81.8402L11.2919 82.7361C11.3304 83.2923 10.9838 80.8675 13.0556 78.0886C15.4831 74.8327 18.7718 74.2526 19.8493 74.1781L20.7452 87.1358ZM24.2497 81.8402L37.2074 80.9443L36.8615 75.9418L23.9038 76.8377L10.9461 77.7335L11.2919 82.7361L24.2497 81.8402ZM23.9038 76.8377L24.7997 89.7954L29.0799 89.4995L28.184 76.5418L27.2882 63.584L23.0079 63.8799L23.9038 76.8377ZM28.184 76.5418L15.2263 77.4376L16.1603 90.9471L29.1181 90.0512L42.0758 89.1554L41.1418 75.6459L28.184 76.5418ZM29.1181 90.0512L28.2222 77.0935L23.9419 77.3894L24.8378 90.3472L25.7337 103.305L30.0139 103.009L29.1181 90.0512ZM24.8378 90.3472L37.7956 89.4513L37.6827 87.8195L24.725 88.7153L11.7672 89.6112L11.8801 91.243L24.8378 90.3472ZM24.725 88.7153L37.3011 91.963L37.9372 89.4999L25.3611 86.2522L12.785 83.0045L12.1489 85.4676L24.725 88.7153ZM25.3611 86.2522L24.4652 73.2945L23.3952 73.3684L24.291 86.3262L25.1869 99.2839L26.2569 99.21L25.3611 86.2522ZM24.291 86.3262L11.4475 84.3898C11.575 83.5441 12.0201 82.0135 13.4301 80.5348C14.9963 78.8923 16.9793 78.1396 18.5834 78.0287L19.4793 90.9864L20.3751 103.944C24.8684 103.634 29.073 101.773 32.2306 98.4614C35.232 95.3137 36.6385 91.5529 37.1345 88.2626L24.291 86.3262ZM19.4793 90.9864L18.5834 78.0287C19.8903 77.9383 22.3959 78.3175 24.4944 80.4202C25.4086 81.3363 25.9133 82.2695 26.1731 82.9385C26.424 83.5842 26.451 83.9866 26.4519 83.9996L13.4941 84.8954L0.536373 85.7913C0.81952 89.8867 2.18816 94.8436 6.10718 98.7705C10.2634 102.935 15.6173 104.273 20.3751 103.944L19.4793 90.9864ZM13.4941 84.8954L26.4519 83.9996L25.9469 76.6964L12.9892 77.5923L0.0314508 78.4882L0.536373 85.7913L13.4941 84.8954ZM12.9892 77.5923L13.8851 90.55L18.1653 90.2541L17.2694 77.2964L16.3736 64.3386L12.0933 64.6345L12.9892 77.5923ZM17.2694 77.2964L4.31169 78.1922L4.77037 84.8266L17.7281 83.9307L30.6859 83.0349L30.2272 76.4005L17.2694 77.2964ZM17.7281 83.9307L4.77037 84.8266C4.89363 86.6094 5.32521 91.3846 9.01562 95.3538C13.3891 100.058 18.9461 100.28 21.641 100.094L20.7452 87.1358L19.8493 74.1781C20.4843 74.1342 24.6179 73.9843 28.0404 77.6654C29.5001 79.2354 30.1372 80.8194 30.408 81.7094C30.5456 82.1616 30.6128 82.5124 30.6453 82.714C30.6782 82.9178 30.6858 83.0345 30.6859 83.0349L17.7281 83.9307Z" fill="#36692C" mask="url(#path-1-outside-1_483_871)"/>
</svg>
