<svg width="304" height="128" viewBox="0 0 304 128" fill="none" xmlns="http://www.w3.org/2000/svg">
<mask id="path-1-outside-1_483_885" maskUnits="userSpaceOnUse" x="-10.2285" y="-128.545" width="325.006" height="325.422" fill="black">
<rect fill="white" x="-10.2285" y="-128.545" width="325.006" height="325.422"/>
<path d="M14.908 20.93C17.6818 16.1839 23.001 14.4164 28.1869 17.4472C32.7477 20.1127 34.2961 24.3721 32.4279 28.6846L28.7237 26.5197C29.6116 24.1501 28.5614 22.0144 26.3389 20.7155C23.4913 19.0512 20.5742 19.7379 18.6122 23.0948C16.6368 26.4749 17.4702 29.3536 20.3178 31.0178C22.5403 32.3168 24.9301 32.1605 26.5588 30.2239L30.2631 32.3888C27.409 36.1561 22.938 36.8975 18.3772 34.232C13.1913 31.2011 12.1207 25.6991 14.908 20.93ZM31.1392 33.522C33.5205 29.4473 37.6013 29.1612 41.2823 31.3125C44.9402 33.4504 46.6937 37.1462 44.3123 41.2209C41.9174 45.3187 37.8367 45.6048 34.1788 43.467C30.4977 41.3157 28.7443 37.6198 31.1392 33.522ZM34.8434 35.6869C33.6933 37.6547 34.3135 39.1975 36.073 40.2258C37.8094 41.2406 39.458 41.0239 40.6081 39.056C41.7446 37.1113 41.1244 35.5685 39.388 34.5537C37.6285 33.5254 35.98 33.7422 34.8434 35.6869ZM65.1315 45.2509C68.118 46.9964 67.4514 50.2096 65.6112 53.3582L62.0527 59.447L58.3485 57.2821L61.7582 51.448C63.0571 49.2255 63.052 48.3839 61.6861 47.5856C59.6719 46.4084 58.1806 47.8973 56.5298 50.7218L54.1349 54.8196L50.4307 52.6547L53.8404 46.8205C55.1393 44.598 55.1342 43.7564 53.7683 42.9581C51.7541 41.781 50.2628 43.2699 48.6121 46.0943L46.2172 50.1921L42.5129 48.0272L49.3459 36.3358L53.0501 38.5007L52.36 39.6814L50.4477 41.3591L51.3738 41.9003C53.0546 40.0873 54.9449 39.2975 57.2137 40.6235C59.4131 41.9089 59.4867 43.9087 58.6433 46.1489L59.3147 46.5413C60.9955 44.7283 62.8627 43.9249 65.1315 45.2509ZM86.7681 57.8962C89.7546 59.6416 89.0879 62.8549 87.2478 66.0035L83.6892 72.0923L79.985 69.9274L83.3947 64.0932C84.6937 61.8707 84.6886 61.0291 83.3226 60.2308C81.3085 59.0537 79.8171 60.5426 78.1664 63.367L75.7715 67.4648L72.0673 65.2999L75.477 59.4658C76.7759 57.2433 76.7708 56.4017 75.4049 55.6034C73.3907 54.4262 71.8994 55.9151 70.2486 58.7396L67.8537 62.8374L64.1495 60.6725L70.9824 48.981L74.6866 51.1459L73.9966 52.3267L72.0843 54.0044L73.0104 54.5456C74.6911 52.7326 76.5815 51.9427 78.8503 53.2687C81.0497 54.5541 81.1233 56.5539 80.2799 58.7942L80.9513 59.1866C82.6321 57.3736 84.4992 56.5702 86.7681 57.8962ZM93.1768 73.5995C95.191 74.7767 97.133 74.4829 99.0543 71.1954L101.585 66.8661L105.289 69.031L98.4558 80.7225L94.7516 78.5576L95.577 77.1453L97.4893 75.4676L96.5632 74.9264C94.8825 76.7394 92.4632 77.5307 89.9629 76.0694C86.9764 74.324 86.3342 71.2776 88.445 67.666L92.1388 61.3457L95.843 63.5105L92.4874 69.2521C91.2426 71.382 91.3941 72.5576 93.1768 73.5995ZM112.413 77.2323C110.399 76.0552 108.457 76.3489 106.535 79.6364L104.005 83.9657L100.301 81.8008L107.134 70.1094L110.838 72.2742L110.013 73.6865L108.1 75.3642L109.026 75.9054C110.707 74.0924 113.126 73.3011 115.627 74.7624C118.613 76.5078 119.256 79.5542 117.145 83.1658L113.451 89.4862L109.747 87.3213L113.102 81.5797C114.347 79.4498 114.196 78.2742 112.413 77.2323ZM127.129 80.2425C125.763 79.4442 125.332 78.3224 126.036 77.1185C126.726 75.9378 127.928 75.74 129.294 76.5383C130.66 77.3366 131.124 78.5086 130.434 79.6893C129.731 80.8932 128.495 81.0408 127.129 80.2425ZM114.827 90.2907L116.722 87.0495L120.032 88.9844L123.158 83.6364L120.229 82.1111L122.123 78.8699L126.658 81.2092C127.995 81.8974 128.293 83.0346 127.535 84.331L123.598 91.0681L126.908 93.003L125.014 96.2441L114.827 90.2907ZM132.322 96.4776L136.764 98.7628L134.869 102.004L128.692 98.704C127.391 98.0061 127.13 96.8593 127.874 95.586L131.798 88.8721L129.019 87.2484L130.914 84.0073L133.692 85.6309L134.977 83.4315L139.358 84.4389L137.396 87.7958L141.239 90.0419L139.345 93.2831L135.502 91.037L132.322 96.4776ZM152.597 96.6798L156.787 99.1288L145.012 107L142.902 110.612C142.144 111.908 141.02 112.183 139.774 111.393L134.15 107.889L136.045 104.648L140.009 107.058L141.308 104.835L142.387 90.7128L146.554 93.1483L145.363 101.086L144.28 102.938L145.206 103.48L146.289 101.628L152.597 96.6798ZM158.089 113.794L145.314 99.8595L151.54 94.1513L165.626 105.429L166.417 104.704L156.402 89.6934L162.628 83.9851L175.404 97.9197L172.241 100.819L162.003 89.6517L160.784 87.1315L159.993 87.8564L169.81 103.048L163.683 108.666L149.399 97.5695L148.608 98.2944L151.013 99.7273L161.252 110.895L158.089 113.794ZM173.849 94.2902C172.23 92.6105 172.285 90.6582 174.79 87.4613L177.45 84.0776C176.687 83.2861 175.604 83.3989 174.272 84.683C173.036 85.874 172.844 87.0652 173.7 87.9533L170.804 90.7447C168.422 88.2735 169.131 84.797 171.853 82.1731C174.536 79.5864 178.139 78.6096 181.228 81.8145L183.87 84.556L185.28 83.1975L187.885 85.9005L185.742 87.9661C184.815 88.8594 183.792 88.8406 182.898 87.9138L182.712 87.7208L182.078 86.0971L181.306 86.8415C182.503 88.8169 182.878 91.0995 180.156 93.7234C177.124 96.6451 174.817 95.2941 173.849 94.2902ZM176.38 90.7335C176.919 91.2934 177.627 90.9461 178.149 90.4436C179.848 88.806 180.279 87.0123 179.125 85.8152L176.97 88.5634C176.173 89.5918 175.84 90.1736 176.38 90.7335ZM187.93 71.8905C186.251 73.5095 186.006 75.4584 188.649 78.1999L192.129 81.8103L189.04 84.7878L179.642 75.0379L182.731 72.0604L183.866 73.2381L184.962 75.534L185.734 74.7896C184.445 72.6798 184.34 70.1367 186.425 68.1268C188.916 65.7262 192.022 65.935 194.925 68.9469L200.006 74.2176L196.917 77.1952L192.302 72.4071C190.589 70.6309 189.417 70.4576 187.93 71.8905ZM198.793 70.2469C197.174 68.5672 197.229 66.6149 199.734 63.418L202.394 60.0344C201.631 59.2428 200.548 59.3556 199.216 60.6397C197.981 61.8307 197.788 63.0219 198.644 63.91L195.748 66.7014C193.366 64.2302 194.075 60.7537 196.797 58.1298C199.481 55.5431 203.083 54.5663 206.172 57.7712L208.815 60.5127L210.224 59.1543L212.829 61.8572L210.686 63.9228C209.76 64.8161 208.736 64.7973 207.843 63.8706L207.656 63.6775L207.023 62.0538L206.25 62.7982C207.447 64.7736 207.822 67.0562 205.1 69.6801C202.068 72.6018 199.761 71.2508 198.793 70.2469ZM201.324 66.6902C201.863 67.2501 202.572 66.9028 203.093 66.4003C204.792 64.7627 205.223 62.969 204.069 61.772L201.914 64.5201C201.117 65.5485 200.784 66.1303 201.324 66.6902ZM214.846 41.1046L215.696 40.2858L218.301 42.9887L217.645 43.6214C217.355 43.9006 217.008 44.2355 216.905 44.6698C217.17 44.7126 217.752 45.0078 218.255 45.5291C220.022 47.3632 219.421 50.1779 217.612 53.672C219.702 51.3968 222.326 49.9848 224.317 52.0506C227.09 54.9273 224.028 58.5122 216.788 65.4907L214.182 62.7878C220.496 56.7025 221.6 55.4521 220.576 54.3903C219.199 52.9616 216.318 56.967 213.81 60.3535L211.807 58.9322C213.804 56.5604 215.588 54.3934 216.955 52.2566L216.211 51.4843C213.867 56.2013 209.6 59.3088 206.511 56.1039C204.036 53.5361 205.277 49.9557 208.347 46.9968C209.834 45.5639 211.464 44.5508 213.213 44.3175C213.067 43.0062 213.978 41.942 214.846 41.1046ZM213.639 52.1008C215.493 50.3142 215.78 49.1437 214.979 48.3135C214.198 47.5027 212.999 47.7271 211.145 49.5137C209.292 51.3002 209.004 52.5086 209.786 53.3195C210.586 54.1497 211.786 53.8873 213.639 52.1008ZM220.863 44.4672C217.886 41.3781 218.204 37.4962 221.235 34.5745C224.266 31.6529 228.12 31.4013 230.968 34.3553L231.898 35.3206L224.504 42.448C225.583 43.5678 227.157 43.5778 228.914 41.8843C229.995 40.8422 230.434 39.6745 229.92 38.7547L233.009 35.7772C234.174 37.3727 234.712 41.1376 231.333 44.3942C227.587 48.0045 223.524 47.228 220.863 44.4672ZM222.829 40.7104L227.327 36.3744C226.62 35.6408 225.372 35.4282 223.654 37.0844C221.936 38.7407 222.122 39.9768 222.829 40.7104ZM241.132 15.3959C243.623 12.9953 246.534 14.5091 249.065 17.1348L253.959 22.2124L250.87 25.19L246.181 20.3247C244.394 18.4712 243.583 18.2477 242.444 19.3457C240.764 20.9647 241.792 22.8042 244.063 25.1596L247.357 28.5769L244.267 31.5544L239.578 26.6891C237.791 24.8357 236.98 24.6121 235.841 25.7101C234.161 27.3291 235.189 29.1686 237.46 31.524L240.754 34.9413L237.665 37.9188L228.267 28.1689L231.356 25.1914L232.305 26.1761L233.401 28.472L234.173 27.7276C232.884 25.6178 232.637 23.584 234.529 21.7603C236.363 19.9924 238.308 20.4644 240.235 21.8842L240.795 21.3445C239.506 19.2347 239.24 17.2196 241.132 15.3959ZM259.049 16.6249C261.402 13.0375 265.258 12.4885 268.778 14.7979C272.298 17.1072 273.397 20.8104 271.146 24.2408L270.411 25.3618L261.824 19.7281C260.97 21.0285 261.309 22.5656 263.349 23.9041C264.605 24.7279 265.841 24.8973 266.624 24.1924L270.211 26.5459C268.913 28.0355 265.361 29.393 261.437 26.8189C257.087 23.9652 256.945 19.8311 259.049 16.6249ZM263.147 17.7102L268.371 21.1376C268.93 20.2856 268.862 19.0217 266.866 17.7126C264.871 16.4034 263.706 16.8583 263.147 17.7102ZM276.545 31.6809C275.476 29.6072 273.679 28.8137 270.295 30.5582L265.837 32.8556L263.872 29.042L275.909 22.8378L277.874 26.6514L276.42 27.4008L273.907 27.7915L274.398 28.7449C276.789 28.1159 279.255 28.7453 280.582 31.3195C282.167 34.3943 281.075 37.31 277.357 39.2265L270.85 42.5805L268.884 38.7668L274.795 35.72C276.988 34.5897 277.491 33.5162 276.545 31.6809ZM278.002 48.8483L280.526 53.1588L277.189 54.8788L273.744 48.7806C273.021 47.4942 273.415 46.386 274.726 45.7103L281.638 42.1475L280.164 39.2872L283.501 37.5673L284.975 40.4275L287.239 39.2604L290.397 42.4598L286.941 44.2412L288.98 48.1978L285.643 49.9178L283.604 45.9611L278.002 48.8483Z"/>
</mask>
<path d="M14.908 20.93C17.6818 16.1839 23.001 14.4164 28.1869 17.4472C32.7477 20.1127 34.2961 24.3721 32.4279 28.6846L28.7237 26.5197C29.6116 24.1501 28.5614 22.0144 26.3389 20.7155C23.4913 19.0512 20.5742 19.7379 18.6122 23.0948C16.6368 26.4749 17.4702 29.3536 20.3178 31.0178C22.5403 32.3168 24.9301 32.1605 26.5588 30.2239L30.2631 32.3888C27.409 36.1561 22.938 36.8975 18.3772 34.232C13.1913 31.2011 12.1207 25.6991 14.908 20.93ZM31.1392 33.522C33.5205 29.4473 37.6013 29.1612 41.2823 31.3125C44.9402 33.4504 46.6937 37.1462 44.3123 41.2209C41.9174 45.3187 37.8367 45.6048 34.1788 43.467C30.4977 41.3157 28.7443 37.6198 31.1392 33.522ZM34.8434 35.6869C33.6933 37.6547 34.3135 39.1975 36.073 40.2258C37.8094 41.2406 39.458 41.0239 40.6081 39.056C41.7446 37.1113 41.1244 35.5685 39.388 34.5537C37.6285 33.5254 35.98 33.7422 34.8434 35.6869ZM65.1315 45.2509C68.118 46.9964 67.4514 50.2096 65.6112 53.3582L62.0527 59.447L58.3485 57.2821L61.7582 51.448C63.0571 49.2255 63.052 48.3839 61.6861 47.5856C59.6719 46.4084 58.1806 47.8973 56.5298 50.7218L54.1349 54.8196L50.4307 52.6547L53.8404 46.8205C55.1393 44.598 55.1342 43.7564 53.7683 42.9581C51.7541 41.781 50.2628 43.2699 48.6121 46.0943L46.2172 50.1921L42.5129 48.0272L49.3459 36.3358L53.0501 38.5007L52.36 39.6814L50.4477 41.3591L51.3738 41.9003C53.0546 40.0873 54.9449 39.2975 57.2137 40.6235C59.4131 41.9089 59.4867 43.9087 58.6433 46.1489L59.3147 46.5413C60.9955 44.7283 62.8627 43.9249 65.1315 45.2509ZM86.7681 57.8962C89.7546 59.6416 89.0879 62.8549 87.2478 66.0035L83.6892 72.0923L79.985 69.9274L83.3947 64.0932C84.6937 61.8707 84.6886 61.0291 83.3226 60.2308C81.3085 59.0537 79.8171 60.5426 78.1664 63.367L75.7715 67.4648L72.0673 65.2999L75.477 59.4658C76.7759 57.2433 76.7708 56.4017 75.4049 55.6034C73.3907 54.4262 71.8994 55.9151 70.2486 58.7396L67.8537 62.8374L64.1495 60.6725L70.9824 48.981L74.6866 51.1459L73.9966 52.3267L72.0843 54.0044L73.0104 54.5456C74.6911 52.7326 76.5815 51.9427 78.8503 53.2687C81.0497 54.5541 81.1233 56.5539 80.2799 58.7942L80.9513 59.1866C82.6321 57.3736 84.4992 56.5702 86.7681 57.8962ZM93.1768 73.5995C95.191 74.7767 97.133 74.4829 99.0543 71.1954L101.585 66.8661L105.289 69.031L98.4558 80.7225L94.7516 78.5576L95.577 77.1453L97.4893 75.4676L96.5632 74.9264C94.8825 76.7394 92.4632 77.5307 89.9629 76.0694C86.9764 74.324 86.3342 71.2776 88.445 67.666L92.1388 61.3457L95.843 63.5105L92.4874 69.2521C91.2426 71.382 91.3941 72.5576 93.1768 73.5995ZM112.413 77.2323C110.399 76.0552 108.457 76.3489 106.535 79.6364L104.005 83.9657L100.301 81.8008L107.134 70.1094L110.838 72.2742L110.013 73.6865L108.1 75.3642L109.026 75.9054C110.707 74.0924 113.126 73.3011 115.627 74.7624C118.613 76.5078 119.256 79.5542 117.145 83.1658L113.451 89.4862L109.747 87.3213L113.102 81.5797C114.347 79.4498 114.196 78.2742 112.413 77.2323ZM127.129 80.2425C125.763 79.4442 125.332 78.3224 126.036 77.1185C126.726 75.9378 127.928 75.74 129.294 76.5383C130.66 77.3366 131.124 78.5086 130.434 79.6893C129.731 80.8932 128.495 81.0408 127.129 80.2425ZM114.827 90.2907L116.722 87.0495L120.032 88.9844L123.158 83.6364L120.229 82.1111L122.123 78.8699L126.658 81.2092C127.995 81.8974 128.293 83.0346 127.535 84.331L123.598 91.0681L126.908 93.003L125.014 96.2441L114.827 90.2907ZM132.322 96.4776L136.764 98.7628L134.869 102.004L128.692 98.704C127.391 98.0061 127.13 96.8593 127.874 95.586L131.798 88.8721L129.019 87.2484L130.914 84.0073L133.692 85.6309L134.977 83.4315L139.358 84.4389L137.396 87.7958L141.239 90.0419L139.345 93.2831L135.502 91.037L132.322 96.4776ZM152.597 96.6798L156.787 99.1288L145.012 107L142.902 110.612C142.144 111.908 141.02 112.183 139.774 111.393L134.15 107.889L136.045 104.648L140.009 107.058L141.308 104.835L142.387 90.7128L146.554 93.1483L145.363 101.086L144.28 102.938L145.206 103.48L146.289 101.628L152.597 96.6798ZM158.089 113.794L145.314 99.8595L151.54 94.1513L165.626 105.429L166.417 104.704L156.402 89.6934L162.628 83.9851L175.404 97.9197L172.241 100.819L162.003 89.6517L160.784 87.1315L159.993 87.8564L169.81 103.048L163.683 108.666L149.399 97.5695L148.608 98.2944L151.013 99.7273L161.252 110.895L158.089 113.794ZM173.849 94.2902C172.23 92.6105 172.285 90.6582 174.79 87.4613L177.45 84.0776C176.687 83.2861 175.604 83.3989 174.272 84.683C173.036 85.874 172.844 87.0652 173.7 87.9533L170.804 90.7447C168.422 88.2735 169.131 84.797 171.853 82.1731C174.536 79.5864 178.139 78.6096 181.228 81.8145L183.87 84.556L185.28 83.1975L187.885 85.9005L185.742 87.9661C184.815 88.8594 183.792 88.8406 182.898 87.9138L182.712 87.7208L182.078 86.0971L181.306 86.8415C182.503 88.8169 182.878 91.0995 180.156 93.7234C177.124 96.6451 174.817 95.2941 173.849 94.2902ZM176.38 90.7335C176.919 91.2934 177.627 90.9461 178.149 90.4436C179.848 88.806 180.279 87.0123 179.125 85.8152L176.97 88.5634C176.173 89.5918 175.84 90.1736 176.38 90.7335ZM187.93 71.8905C186.251 73.5095 186.006 75.4584 188.649 78.1999L192.129 81.8103L189.04 84.7878L179.642 75.0379L182.731 72.0604L183.866 73.2381L184.962 75.534L185.734 74.7896C184.445 72.6798 184.34 70.1367 186.425 68.1268C188.916 65.7262 192.022 65.935 194.925 68.9469L200.006 74.2176L196.917 77.1952L192.302 72.4071C190.589 70.6309 189.417 70.4576 187.93 71.8905ZM198.793 70.2469C197.174 68.5672 197.229 66.6149 199.734 63.418L202.394 60.0344C201.631 59.2428 200.548 59.3556 199.216 60.6397C197.981 61.8307 197.788 63.0219 198.644 63.91L195.748 66.7014C193.366 64.2302 194.075 60.7537 196.797 58.1298C199.481 55.5431 203.083 54.5663 206.172 57.7712L208.815 60.5127L210.224 59.1543L212.829 61.8572L210.686 63.9228C209.76 64.8161 208.736 64.7973 207.843 63.8706L207.656 63.6775L207.023 62.0538L206.25 62.7982C207.447 64.7736 207.822 67.0562 205.1 69.6801C202.068 72.6018 199.761 71.2508 198.793 70.2469ZM201.324 66.6902C201.863 67.2501 202.572 66.9028 203.093 66.4003C204.792 64.7627 205.223 62.969 204.069 61.772L201.914 64.5201C201.117 65.5485 200.784 66.1303 201.324 66.6902ZM214.846 41.1046L215.696 40.2858L218.301 42.9887L217.645 43.6214C217.355 43.9006 217.008 44.2355 216.905 44.6698C217.17 44.7126 217.752 45.0078 218.255 45.5291C220.022 47.3632 219.421 50.1779 217.612 53.672C219.702 51.3968 222.326 49.9848 224.317 52.0506C227.09 54.9273 224.028 58.5122 216.788 65.4907L214.182 62.7878C220.496 56.7025 221.6 55.4521 220.576 54.3903C219.199 52.9616 216.318 56.967 213.81 60.3535L211.807 58.9322C213.804 56.5604 215.588 54.3934 216.955 52.2566L216.211 51.4843C213.867 56.2013 209.6 59.3088 206.511 56.1039C204.036 53.5361 205.277 49.9557 208.347 46.9968C209.834 45.5639 211.464 44.5508 213.213 44.3175C213.067 43.0062 213.978 41.942 214.846 41.1046ZM213.639 52.1008C215.493 50.3142 215.78 49.1437 214.979 48.3135C214.198 47.5027 212.999 47.7271 211.145 49.5137C209.292 51.3002 209.004 52.5086 209.786 53.3195C210.586 54.1497 211.786 53.8873 213.639 52.1008ZM220.863 44.4672C217.886 41.3781 218.204 37.4962 221.235 34.5745C224.266 31.6529 228.12 31.4013 230.968 34.3553L231.898 35.3206L224.504 42.448C225.583 43.5678 227.157 43.5778 228.914 41.8843C229.995 40.8422 230.434 39.6745 229.92 38.7547L233.009 35.7772C234.174 37.3727 234.712 41.1376 231.333 44.3942C227.587 48.0045 223.524 47.228 220.863 44.4672ZM222.829 40.7104L227.327 36.3744C226.62 35.6408 225.372 35.4282 223.654 37.0844C221.936 38.7407 222.122 39.9768 222.829 40.7104ZM241.132 15.3959C243.623 12.9953 246.534 14.5091 249.065 17.1348L253.959 22.2124L250.87 25.19L246.181 20.3247C244.394 18.4712 243.583 18.2477 242.444 19.3457C240.764 20.9647 241.792 22.8042 244.063 25.1596L247.357 28.5769L244.267 31.5544L239.578 26.6891C237.791 24.8357 236.98 24.6121 235.841 25.7101C234.161 27.3291 235.189 29.1686 237.46 31.524L240.754 34.9413L237.665 37.9188L228.267 28.1689L231.356 25.1914L232.305 26.1761L233.401 28.472L234.173 27.7276C232.884 25.6178 232.637 23.584 234.529 21.7603C236.363 19.9924 238.308 20.4644 240.235 21.8842L240.795 21.3445C239.506 19.2347 239.24 17.2196 241.132 15.3959ZM259.049 16.6249C261.402 13.0375 265.258 12.4885 268.778 14.7979C272.298 17.1072 273.397 20.8104 271.146 24.2408L270.411 25.3618L261.824 19.7281C260.97 21.0285 261.309 22.5656 263.349 23.9041C264.605 24.7279 265.841 24.8973 266.624 24.1924L270.211 26.5459C268.913 28.0355 265.361 29.393 261.437 26.8189C257.087 23.9652 256.945 19.8311 259.049 16.6249ZM263.147 17.7102L268.371 21.1376C268.93 20.2856 268.862 19.0217 266.866 17.7126C264.871 16.4034 263.706 16.8583 263.147 17.7102ZM276.545 31.6809C275.476 29.6072 273.679 28.8137 270.295 30.5582L265.837 32.8556L263.872 29.042L275.909 22.8378L277.874 26.6514L276.42 27.4008L273.907 27.7915L274.398 28.7449C276.789 28.1159 279.255 28.7453 280.582 31.3195C282.167 34.3943 281.075 37.31 277.357 39.2265L270.85 42.5805L268.884 38.7668L274.795 35.72C276.988 34.5897 277.491 33.5162 276.545 31.6809ZM278.002 48.8483L280.526 53.1588L277.189 54.8788L273.744 48.7806C273.021 47.4942 273.415 46.386 274.726 45.7103L281.638 42.1475L280.164 39.2872L283.501 37.5673L284.975 40.4275L287.239 39.2604L290.397 42.4598L286.941 44.2412L288.98 48.1978L285.643 49.9178L283.604 45.9611L278.002 48.8483Z" fill="#8FD37D"/>
<path d="M32.4279 28.6846L25.6627 40.2602C28.9744 42.1957 32.9564 42.6201 36.6017 41.426C40.2469 40.232 43.2061 37.5338 44.7308 34.0141L32.4279 28.6846ZM28.7237 26.5197L16.1686 21.815C13.878 27.9277 16.3227 34.8016 21.9584 38.0953L28.7237 26.5197ZM26.3389 20.7155L19.5736 32.2912L26.3389 20.7155ZM26.5588 30.2239L33.3241 18.6482C27.6883 15.3544 20.4995 16.5981 16.2978 21.5939L26.5588 30.2239ZM30.2631 32.3888L40.9502 40.4851C43.2655 37.4288 44.1616 33.5276 43.412 29.7673C42.6623 26.0071 40.3387 22.7478 37.0283 20.8131L30.2631 32.3888ZM14.908 20.93L26.4837 27.6952C26.3444 27.9337 25.7045 28.7751 24.2856 29.1756C22.7634 29.6053 21.6536 29.1585 21.4216 29.0229L28.1869 17.4472L34.9522 5.87154C29.5343 2.7051 23.172 1.62661 17.0003 3.3689C10.9318 5.08203 6.24545 9.18022 3.33234 14.1647L14.908 20.93ZM28.1869 17.4472L21.4216 29.0229C21.6022 29.1284 20.7252 28.6574 20.1585 27.1405C19.5465 25.5025 19.8261 24.0452 20.125 23.355L32.4279 28.6846L44.7308 34.0141C46.898 29.0115 47.3374 23.2682 45.2781 17.756C43.264 12.365 39.3324 8.43154 34.9522 5.87154L28.1869 17.4472ZM32.4279 28.6846L39.1932 17.1089L35.489 14.944L28.7237 26.5197L21.9584 38.0953L25.6627 40.2602L32.4279 28.6846ZM28.7237 26.5197L41.2789 31.2243C42.8728 26.9707 42.8849 22.2419 41.0032 17.8924C39.2098 13.7472 36.1284 10.9072 33.1042 9.13979L26.3389 20.7155L19.5736 32.2912C18.772 31.8227 17.3269 30.7 16.3923 28.5398C15.3693 26.1752 15.4626 23.699 16.1686 21.815L28.7237 26.5197ZM26.3389 20.7155L33.1042 9.13979C29.2284 6.87459 24.0097 5.53174 18.4321 7.13842C12.9438 8.7194 9.25268 12.5377 7.03656 16.3296L18.6122 23.0948L30.1879 29.8601C29.9337 30.2951 28.6822 32.0915 25.8547 32.906C22.9381 33.7462 20.6019 32.8921 19.5736 32.2912L26.3389 20.7155ZM18.6122 23.0948L7.03656 16.3296C4.82542 20.1129 3.29602 25.2013 4.60442 30.7677C5.93614 36.4333 9.6754 40.3276 13.5525 42.5935L20.3178 31.0178L27.0831 19.4422C28.1126 20.0438 30.0113 21.6667 30.7083 24.6319C31.382 27.4978 30.4236 29.4569 30.1879 29.8601L18.6122 23.0948ZM20.3178 31.0178L13.5525 42.5935C16.6261 44.3898 20.64 45.6555 25.1283 45.1613C29.817 44.6451 33.9089 42.3149 36.8198 38.8539L26.5588 30.2239L16.2978 21.5939C17.58 20.0694 19.6626 18.7857 22.1936 18.507C24.5243 18.2504 26.2321 18.9448 27.0831 19.4422L20.3178 31.0178ZM26.5588 30.2239L19.7935 41.7996L23.4978 43.9645L30.2631 32.3888L37.0283 20.8131L33.3241 18.6482L26.5588 30.2239ZM30.2631 32.3888L19.5759 24.2925C20.0119 23.717 21.1325 22.7535 22.8676 22.4793C24.4754 22.2253 25.3231 22.7618 25.1425 22.6563L18.3772 34.232L11.6119 45.8077C15.9922 48.3676 21.3557 49.8663 27.0528 48.9661C32.8771 48.0457 37.6602 44.8279 40.9502 40.4851L30.2631 32.3888ZM18.3772 34.232L25.1425 22.6563C25.3752 22.7923 26.3134 23.5435 26.6859 25.0863C27.0328 26.523 26.6081 27.4824 26.4837 27.6952L14.908 20.93L3.33234 14.1647C0.420669 19.1467 -0.862352 25.2417 0.619457 31.3794C2.12688 37.6232 6.19334 42.6408 11.6119 45.8077L18.3772 34.232ZM39.388 34.5537L32.6228 46.1294L39.388 34.5537ZM31.1392 33.522L42.7149 40.2873C42.4963 40.6613 42.0089 41.3323 41.1208 41.9812C40.2126 42.6447 39.1417 43.0952 38.0404 43.2885C35.9041 43.6633 34.6337 42.9564 34.517 42.8882L41.2823 31.3125L48.0476 19.7369C44.2499 17.5173 39.0985 15.8779 33.4063 16.8766C27.3065 17.9468 22.507 21.7202 19.5635 26.7567L31.1392 33.522ZM41.2823 31.3125L34.517 42.8882C34.3733 42.8042 33.1324 42.0325 32.4135 39.9878C32.0432 38.9347 31.9117 37.7836 32.0441 36.6707C32.1736 35.5819 32.518 34.8297 32.7366 34.4556L44.3123 41.2209L55.888 47.9862C58.8309 42.9508 59.7609 36.924 57.7106 31.093C55.7958 25.6472 51.8493 21.9587 48.0476 19.7369L41.2823 31.3125ZM44.3123 41.2209L32.7366 34.4556C32.9468 34.0959 33.4243 33.4347 34.302 32.7908C35.2001 32.1319 36.2649 31.6789 37.3676 31.4825C39.5108 31.1007 40.8001 31.8072 40.9441 31.8913L34.1788 43.467L27.4135 55.0427C31.2153 57.2646 36.374 58.897 42.0707 57.8821C48.1671 56.7961 52.9506 53.0122 55.888 47.9862L44.3123 41.2209ZM34.1788 43.467L40.9441 31.8913C41.0609 31.9596 42.3078 32.7245 43.03 34.7797C43.4019 35.8382 43.5314 36.9914 43.3981 38.1012C43.2678 39.1854 42.925 39.9277 42.7149 40.2873L31.1392 33.522L19.5635 26.7567C16.6254 31.7839 15.6742 37.8155 17.731 43.6691C19.6514 49.1346 23.6156 52.8231 27.4135 55.0427L34.1788 43.467ZM34.8434 35.6869L23.2677 28.9216C21.3872 32.1393 19.9266 36.9071 21.5397 42.2105C23.0796 47.2727 26.6517 50.2492 29.3078 51.8015L36.073 40.2258L42.8383 28.6501C43.7349 29.1741 46.1171 30.865 47.1945 34.4069C48.3452 38.1898 47.1495 41.2024 46.4191 42.4522L34.8434 35.6869ZM36.073 40.2258L29.3078 51.8015C31.9876 53.3677 36.3391 54.9981 41.494 53.8422C46.8775 52.635 50.3036 49.0382 52.1838 45.8213L40.6081 39.056L29.0324 32.2907C29.7624 31.0416 31.7893 28.5371 35.6268 27.6766C39.2358 26.8673 41.8948 28.0987 42.8383 28.6501L36.073 40.2258ZM40.6081 39.056L52.1838 45.8213C54.08 42.5768 55.5054 37.8186 53.9019 32.5513C52.3714 27.524 48.8329 24.5441 46.1533 22.9781L39.388 34.5537L32.6228 46.1294C31.6795 45.5781 29.3194 43.8771 28.2489 40.3609C27.1055 36.605 28.2727 33.5905 29.0324 32.2907L40.6081 39.056ZM39.388 34.5537L46.1533 22.9781C43.4973 21.4258 39.1695 19.7844 34.0268 20.9053C28.6217 22.0834 25.1644 25.6762 23.2677 28.9216L34.8434 35.6869L46.4191 42.4522C45.6589 43.7528 43.5942 46.2649 39.7375 47.1055C36.143 47.889 33.5193 46.6534 32.6228 46.1294L39.388 34.5537ZM62.0527 59.447L55.2874 71.0227C61.6805 74.7591 69.892 72.6054 73.6284 66.2123L62.0527 59.447ZM58.3485 57.2821L46.7728 50.5169C44.9785 53.5869 44.4773 57.244 45.3794 60.6836C46.2816 64.1232 48.5131 67.0636 51.5832 68.8578L58.3485 57.2821ZM54.1349 54.8196L47.3696 66.3953C53.7627 70.1316 61.9742 67.9779 65.7106 61.5849L54.1349 54.8196ZM50.4307 52.6547L38.855 45.8894C37.0608 48.9595 36.5596 52.6166 37.4617 56.0562C38.3638 59.4958 40.5954 62.4361 43.6654 64.2304L50.4307 52.6547ZM53.7683 42.9581L47.003 54.5338L53.7683 42.9581ZM46.2172 50.1921L39.4519 61.7678C45.8449 65.5042 54.0565 63.3505 57.7928 56.9574L46.2172 50.1921ZM42.5129 48.0272L30.9373 41.2619C27.2009 47.655 29.3546 55.8666 35.7477 59.6029L42.5129 48.0272ZM49.3459 36.3358L56.1112 24.7601C53.0411 22.9658 49.384 22.4646 45.9444 23.3668C42.5048 24.2689 39.5645 26.5004 37.7702 29.5705L49.3459 36.3358ZM53.0501 38.5007L64.6258 45.266C66.42 42.1959 66.9212 38.5388 66.0191 35.0992C65.117 31.6596 62.8854 28.7193 59.8154 26.925L53.0501 38.5007ZM52.36 39.6814L61.2023 49.7601C62.2856 48.8097 63.2086 47.6909 63.9357 46.4467L52.36 39.6814ZM50.4477 41.3591L41.6055 31.2804C38.3657 34.1227 36.6898 38.3491 37.1013 42.6392C37.5128 46.9294 39.9615 50.7601 43.6825 52.9348L50.4477 41.3591ZM51.3738 41.9003L44.6085 53.476C50.034 56.6469 56.9339 55.6241 61.2062 51.0156L51.3738 41.9003ZM58.6433 46.1489L46.0955 41.4249C43.7927 47.5413 46.2355 54.4269 51.878 57.7246L58.6433 46.1489ZM59.3147 46.5413L52.5494 58.117C57.9749 61.2879 64.8748 60.2651 69.1471 55.6566L59.3147 46.5413ZM65.1315 45.2509L58.3662 56.8266C57.3226 56.2167 55.9806 55.0916 54.9854 53.2877C54.0015 51.5041 53.7553 49.7805 53.7755 48.5571C53.8085 46.5592 54.5254 45.7549 54.0355 46.5929L65.6112 53.3582L77.1869 60.1235C78.5373 57.813 80.5075 53.8278 80.5872 48.9998C80.6876 42.9204 77.7243 37.0811 71.8968 33.6753L65.1315 45.2509ZM65.6112 53.3582L54.0355 46.5929L50.477 52.6817L62.0527 59.447L73.6284 66.2123L77.1869 60.1235L65.6112 53.3582ZM62.0527 59.447L68.818 47.8714L65.1138 45.7065L58.3485 57.2821L51.5832 68.8578L55.2874 71.0227L62.0527 59.447ZM58.3485 57.2821L69.9242 64.0474L73.3339 58.2133L61.7582 51.448L50.1825 44.6827L46.7728 50.5169L58.3485 57.2821ZM61.7582 51.448L73.3339 58.2133C73.8223 57.3775 76.2063 53.5754 76.1273 48.7627C76.0042 41.2576 70.7828 37.3725 68.4514 36.0099L61.6861 47.5856L54.9208 59.1613C54.5236 58.9292 53.1176 58.078 51.7951 56.3438C50.2292 54.2906 49.3577 51.7673 49.3156 49.2027C49.28 47.0318 49.8526 45.5058 50.0306 45.0589C50.2295 44.5593 50.3664 44.368 50.1825 44.6827L61.7582 51.448ZM61.6861 47.5856L68.4514 36.0099C66.2311 34.7123 63.2474 33.6423 59.7203 33.7851C56.1909 33.9281 53.3431 35.2356 51.3143 36.6472C47.8588 39.0513 45.8319 42.4546 44.9541 43.9565L56.5298 50.7218L68.1055 57.4871C68.361 57.05 68.4289 56.9816 68.3297 57.1091C68.2611 57.1973 67.7157 57.903 66.6291 58.659C65.4312 59.4924 63.437 60.4719 60.8054 60.5785C58.176 60.685 56.134 59.8703 54.9208 59.1613L61.6861 47.5856ZM56.5298 50.7218L44.9541 43.9565L42.5592 48.0543L54.1349 54.8196L65.7106 61.5849L68.1055 57.4871L56.5298 50.7218ZM54.1349 54.8196L60.9002 43.2439L57.196 41.079L50.4307 52.6547L43.6654 64.2304L47.3696 66.3953L54.1349 54.8196ZM50.4307 52.6547L62.0064 59.42L65.4161 53.5858L53.8404 46.8205L42.2647 40.0553L38.855 45.8894L50.4307 52.6547ZM53.8404 46.8205L65.4161 53.5858C65.9045 52.7501 68.2885 48.948 68.2095 44.1353C68.0864 36.6301 62.8651 32.745 60.5336 31.3824L53.7683 42.9581L47.003 54.5338C46.6059 54.3017 45.1998 53.4505 43.8773 51.7163C42.3115 49.6631 41.4399 47.1398 41.3978 44.5752C41.3622 42.4043 41.9348 40.8784 42.1128 40.4314C42.3118 39.9319 42.4486 39.7406 42.2647 40.0553L53.8404 46.8205ZM53.7683 42.9581L60.5336 31.3824C58.3133 30.0848 55.3296 29.0148 51.8025 29.1577C48.2732 29.3006 45.4253 30.6082 43.3965 32.0197C39.9411 34.4238 37.9142 37.8271 37.0364 39.329L48.6121 46.0943L60.1877 52.8596C60.4432 52.4226 60.5112 52.3542 60.4119 52.4817C60.3433 52.5699 59.7979 53.2755 58.7113 54.0315C57.5135 54.8649 55.5192 55.8445 52.8876 55.951C50.2582 56.0575 48.2162 55.2429 47.003 54.5338L53.7683 42.9581ZM48.6121 46.0943L37.0364 39.329L34.6415 43.4268L46.2172 50.1921L57.7928 56.9574L60.1877 52.8596L48.6121 46.0943ZM46.2172 50.1921L52.9824 38.6164L49.2782 36.4515L42.5129 48.0272L35.7477 59.6029L39.4519 61.7678L46.2172 50.1921ZM42.5129 48.0272L54.0886 54.7925L60.9216 43.1011L49.3459 36.3358L37.7702 29.5705L30.9373 41.2619L42.5129 48.0272ZM49.3459 36.3358L42.5806 47.9115L46.2848 50.0764L53.0501 38.5007L59.8154 26.925L56.1112 24.7601L49.3459 36.3358ZM53.0501 38.5007L41.4744 31.7354L40.7843 32.9161L52.36 39.6814L63.9357 46.4467L64.6258 45.266L53.0501 38.5007ZM52.36 39.6814L43.5177 29.6027L41.6055 31.2804L50.4477 41.3591L59.29 51.4378L61.2023 49.7601L52.36 39.6814ZM50.4477 41.3591L43.6825 52.9348L44.6085 53.476L51.3738 41.9003L58.1391 30.3246L57.213 29.7834L50.4477 41.3591ZM51.3738 41.9003L61.2062 51.0156C61.1562 51.0696 59.9698 52.3869 57.5361 53.0375C54.5792 53.8281 51.9595 53.0823 50.4485 52.1992L57.2137 40.6235L63.979 29.0478C60.1991 26.8387 55.4998 25.8248 50.6104 27.132C46.2441 28.2993 43.2722 30.918 41.5414 32.785L51.3738 41.9003ZM57.2137 40.6235L50.4485 52.1992C49.7105 51.7679 48.6943 51.0054 47.7649 49.7686C46.8094 48.497 46.2034 47.0648 45.9217 45.6545C45.6532 44.3106 45.7236 43.2225 45.8218 42.5584C45.9183 41.9064 46.0642 41.5078 46.0955 41.4249L58.6433 46.1489L71.1912 50.873C72.0184 48.6757 73.1074 44.8568 72.2175 40.4017C71.186 35.2378 67.9547 31.3713 63.979 29.0478L57.2137 40.6235ZM58.6433 46.1489L51.878 57.7246L52.5494 58.117L59.3147 46.5413L66.08 34.9656L65.4086 34.5732L58.6433 46.1489ZM59.3147 46.5413L69.1471 55.6566C69.1394 55.665 67.9651 56.9908 65.5274 57.655C64.2208 58.0111 62.8001 58.103 61.3943 57.8792C60.0288 57.6619 59.0055 57.2002 58.3662 56.8266L65.1315 45.2509L71.8968 33.6753C68.1099 31.4621 63.3902 30.4444 58.4778 31.783C54.1191 32.9706 51.1708 35.6047 49.4823 37.426L59.3147 46.5413ZM83.6893 72.0923L76.924 83.668C83.317 87.4043 91.5286 85.2506 95.2649 78.8576L83.6893 72.0923ZM79.985 69.9274L68.4093 63.1621C66.6151 66.2322 66.1139 69.8893 67.016 73.3289C67.9181 76.7685 70.1497 79.7088 73.2197 81.5031L79.985 69.9274ZM75.7715 67.4648L69.0062 79.0405C75.3993 82.7769 83.6108 80.6232 87.3472 74.2301L75.7715 67.4648ZM72.0673 65.2999L60.4916 58.5346C58.6973 61.6047 58.1961 65.2618 59.0982 68.7014C60.0004 72.141 62.2319 75.0814 65.302 76.8756L72.0673 65.2999ZM75.4049 55.6034L68.6396 67.1791L75.4049 55.6034ZM67.8537 62.8374L61.0884 74.4131C67.4815 78.1494 75.693 75.9957 79.4294 69.6027L67.8537 62.8374ZM64.1495 60.6725L52.5738 53.9072C48.8374 60.3003 50.9911 68.5118 57.3842 72.2482L64.1495 60.6725ZM70.9824 48.981L77.7477 37.4054C74.6777 35.6111 71.0206 35.1099 67.581 36.012C64.1414 36.9141 61.201 39.1457 59.4067 42.2158L70.9824 48.981ZM74.6866 51.1459L86.2623 57.9112C88.0566 54.8412 88.5578 51.1841 87.6557 47.7445C86.7535 44.3049 84.522 41.3645 81.4519 39.5702L74.6866 51.1459ZM73.9966 52.3267L82.8389 62.4053C83.9222 61.4549 84.8451 60.3361 85.5723 59.0919L73.9966 52.3267ZM72.0843 54.0044L63.242 43.9257C60.0023 46.768 58.3264 50.9944 58.7379 55.2845C59.1494 59.5746 61.5981 63.4054 65.319 65.58L72.0843 54.0044ZM73.0103 54.5456L66.2451 66.1213C71.6706 69.2921 78.5705 68.2693 82.8428 63.6609L73.0103 54.5456ZM80.2799 58.7942L67.732 54.0702C65.4293 60.1866 67.8721 67.0721 73.5146 70.3699L80.2799 58.7942ZM80.9513 59.1866L74.186 70.7623C79.6115 73.9331 86.5114 72.9103 90.7837 68.3019L80.9513 59.1866ZM86.7681 57.8962L80.0028 69.4719C78.9592 68.862 77.6171 67.7368 76.622 65.9329C75.6381 64.1494 75.3919 62.4257 75.4121 61.2023C75.4451 59.2044 76.1619 58.4001 75.6721 59.2382L87.2478 66.0035L98.8235 72.7688C100.174 70.4582 102.144 66.473 102.224 61.645C102.324 55.5657 99.3608 49.7263 93.5333 46.3205L86.7681 57.8962ZM87.2478 66.0035L75.6721 59.2382L72.1136 65.327L83.6893 72.0923L95.2649 78.8576L98.8235 72.7688L87.2478 66.0035ZM83.6893 72.0923L90.4545 60.5166L86.7503 58.3517L79.985 69.9274L73.2197 81.5031L76.924 83.668L83.6893 72.0923ZM79.985 69.9274L91.5607 76.6927L94.9704 70.8585L83.3947 64.0932L71.819 57.328L68.4093 63.1621L79.985 69.9274ZM83.3947 64.0932L94.9704 70.8585C95.4589 70.0228 97.8429 66.2207 97.7639 61.408C97.6407 53.9028 92.4194 50.0177 90.0879 48.6552L83.3226 60.2308L76.5574 71.8065C76.1602 71.5744 74.7541 70.7232 73.4316 68.989C71.8658 66.9358 70.9942 64.4125 70.9521 61.8479C70.9165 59.677 71.4892 58.1511 71.6672 57.7041C71.8661 57.2046 72.003 57.0133 71.819 57.328L83.3947 64.0932ZM83.3226 60.2308L90.0879 48.6552C87.8676 47.3575 84.884 46.2875 81.3568 46.4304C77.8275 46.5733 74.9796 47.8809 72.9508 49.2924C69.4954 51.6965 67.4685 55.0998 66.5907 56.6018L78.1664 63.367L89.7421 70.1323C89.9975 69.6953 90.0655 69.6269 89.9663 69.7544C89.8976 69.8426 89.3522 70.5482 88.2656 71.3042C87.0678 72.1376 85.0736 73.1172 82.4419 73.2237C79.8125 73.3302 77.7706 72.5156 76.5574 71.8065L83.3226 60.2308ZM78.1664 63.367L66.5907 56.6018L64.1958 60.6995L75.7715 67.4648L87.3472 74.2301L89.7421 70.1323L78.1664 63.367ZM75.7715 67.4648L82.5368 55.8891L78.8325 53.7243L72.0673 65.2999L65.302 76.8756L69.0062 79.0405L75.7715 67.4648ZM72.0673 65.2999L83.6429 72.0652L87.0527 66.2311L75.477 59.4658L63.9013 52.7005L60.4916 58.5346L72.0673 65.2999ZM75.477 59.4658L87.0527 66.2311C87.5411 65.3953 89.9251 61.5932 89.8461 56.7805C89.723 49.2754 84.5016 45.3903 82.1702 44.0277L75.4049 55.6034L68.6396 67.1791C68.2424 66.9469 66.8364 66.0958 65.5139 64.3616C63.948 62.3084 63.0765 59.7851 63.0344 57.2205C62.9988 55.0495 63.5714 53.5236 63.7494 53.0767C63.9483 52.5771 64.0852 52.3858 63.9013 52.7005L75.477 59.4658ZM75.4049 55.6034L82.1702 44.0277C79.9499 42.7301 76.9662 41.6601 73.4391 41.8029C69.9097 41.9459 67.0618 43.2534 65.0331 44.665C61.5776 47.0691 59.5507 50.4724 58.6729 51.9743L70.2486 58.7396L81.8243 65.5049C82.0797 65.0678 82.1477 64.9994 82.0485 65.1269C81.9799 65.2151 81.4345 65.9208 80.3479 66.6768C79.15 67.5102 77.1558 68.4897 74.5242 68.5963C71.8947 68.7028 69.8528 67.8881 68.6396 67.1791L75.4049 55.6034ZM70.2486 58.7396L58.6729 51.9743L56.278 56.0721L67.8537 62.8374L79.4294 69.6027L81.8243 65.5049L70.2486 58.7396ZM67.8537 62.8374L74.619 51.2617L70.9148 49.0968L64.1495 60.6725L57.3842 72.2482L61.0884 74.4131L67.8537 62.8374ZM64.1495 60.6725L75.7252 67.4378L82.5581 55.7463L70.9824 48.981L59.4067 42.2158L52.5738 53.9072L64.1495 60.6725ZM70.9824 48.981L64.2171 60.5567L67.9214 62.7216L74.6866 51.1459L81.4519 39.5702L77.7477 37.4054L70.9824 48.981ZM74.6866 51.1459L63.111 44.3806L62.4209 45.5614L73.9966 52.3267L85.5723 59.0919L86.2623 57.9112L74.6866 51.1459ZM73.9966 52.3267L65.1543 42.248L63.242 43.9257L72.0843 54.0044L80.9266 64.083L82.8389 62.4053L73.9966 52.3267ZM72.0843 54.0044L65.319 65.58L66.2451 66.1213L73.0103 54.5456L79.7756 42.9699L78.8496 42.4287L72.0843 54.0044ZM73.0103 54.5456L82.8428 63.6609C82.7927 63.7149 81.6064 65.0321 79.1727 65.6828C76.2158 66.4733 73.5961 65.7276 72.085 64.8444L78.8503 53.2687L85.6156 41.6931C81.8357 39.4839 77.1364 38.4701 72.2469 39.7773C67.8807 40.9446 64.9088 43.5633 63.1779 45.4303L73.0103 54.5456ZM78.8503 53.2687L72.085 64.8444C71.347 64.4131 70.3309 63.6507 69.4014 62.4138C68.4459 61.1423 67.8399 59.71 67.5582 58.2998C67.2898 56.9559 67.3601 55.8677 67.4584 55.2037C67.5549 54.5517 67.7008 54.1531 67.732 54.0702L80.2799 58.7942L92.8278 63.5182C93.655 61.3209 94.744 57.502 93.8541 53.047C92.8225 47.883 89.5912 44.0166 85.6156 41.6931L78.8503 53.2687ZM80.2799 58.7942L73.5146 70.3699L74.186 70.7623L80.9513 59.1866L87.7166 47.6109L87.0452 47.2185L80.2799 58.7942ZM80.9513 59.1866L90.7837 68.3019C90.776 68.3102 89.6017 69.6361 87.164 70.3003C85.8574 70.6563 84.4366 70.7482 83.0309 70.5244C81.6654 70.3071 80.642 69.8455 80.0028 69.4719L86.7681 57.8962L93.5333 46.3205C89.7465 44.1073 85.0267 43.0897 80.1143 44.4282C75.7556 45.6159 72.8073 48.2499 71.1188 50.0713L80.9513 59.1866ZM101.585 66.8661L108.35 55.2904C101.957 51.5541 93.7452 53.7078 90.0089 60.1008L101.585 66.8661ZM105.289 69.031L116.864 75.7963C118.659 72.7262 119.16 69.0692 118.258 65.6296C117.356 62.19 115.124 59.2496 112.054 57.4553L105.289 69.031ZM98.4558 80.7225L91.6906 92.2981C98.0836 96.0345 106.295 93.8808 110.032 87.4878L98.4558 80.7225ZM94.7516 78.5576L83.1759 71.7923C81.3817 74.8624 80.8805 78.5194 81.7826 81.959C82.6847 85.3986 84.9163 88.339 87.9863 90.1333L94.7516 78.5576ZM95.577 77.1453L86.7347 67.0667C85.6514 68.0171 84.7285 69.1359 84.0013 70.3801L95.577 77.1453ZM97.4893 75.4676L106.332 85.5463C109.571 82.704 111.247 78.4776 110.836 74.1875C110.424 69.8974 107.975 66.0666 104.255 63.8919L97.4893 75.4676ZM96.5632 74.9264L103.329 63.3507C97.903 60.1798 91.0031 61.2027 86.7308 65.8111L96.5632 74.9264ZM92.1388 61.3457L98.9041 49.77C95.834 47.9757 92.1769 47.4745 88.7373 48.3766C85.2977 49.2788 82.3574 51.5103 80.5631 54.5804L92.1388 61.3457ZM95.843 63.5105L107.419 70.2758C111.155 63.8828 109.001 55.6712 102.608 51.9349L95.843 63.5105ZM93.1768 73.5995L86.4115 85.1752C89.4207 86.9339 94.5737 88.7989 100.523 86.7463C105.892 84.894 108.968 80.8043 110.63 77.9607L99.0543 71.1954L87.4787 64.4302C87.2192 64.8741 88.3637 62.5749 91.7776 61.3971C95.7722 60.019 98.9471 61.4423 99.9421 62.0238L93.1768 73.5995ZM99.0543 71.1954L110.63 77.9607L113.16 73.6314L101.585 66.8661L90.0089 60.1008L87.4787 64.4302L99.0543 71.1954ZM101.585 66.8661L94.8193 78.4418L98.5235 80.6067L105.289 69.031L112.054 57.4553L108.35 55.2904L101.585 66.8661ZM105.289 69.031L93.7131 62.2657L86.8802 73.9572L98.4558 80.7225L110.032 87.4878L116.864 75.7963L105.289 69.031ZM98.4558 80.7225L105.221 69.1468L101.517 66.9819L94.7516 78.5576L87.9863 90.1333L91.6906 92.2981L98.4558 80.7225ZM94.7516 78.5576L106.327 85.3229L107.153 83.9106L95.577 77.1453L84.0013 70.3801L83.1759 71.7923L94.7516 78.5576ZM95.577 77.1453L104.419 87.224L106.332 85.5463L97.4893 75.4676L88.647 65.389L86.7347 67.0667L95.577 77.1453ZM97.4893 75.4676L104.255 63.8919L103.329 63.3507L96.5632 74.9264L89.7979 86.5021L90.724 87.0433L97.4893 75.4676ZM96.5632 74.9264L86.7308 65.8111C87.3581 65.1344 88.6604 64.0663 90.7589 63.6162C93.086 63.1171 95.2548 63.6327 96.7282 64.4938L89.9629 76.0694L83.1976 87.6451C87.1713 89.9675 91.7999 90.818 96.3819 89.8354C100.735 88.9017 104.088 86.5314 106.396 84.0417L96.5632 74.9264ZM89.9629 76.0694L96.7282 64.4938C97.9439 65.2043 99.8905 67.0224 100.468 70.0819C100.72 71.4178 100.607 72.5323 100.434 73.2804C100.267 74.0036 100.044 74.3906 100.021 74.4313L88.445 67.666L76.8693 60.9007C74.7651 64.501 73.0642 69.4717 74.1172 75.0531C75.2344 80.9752 78.9954 85.1892 83.1976 87.6451L89.9629 76.0694ZM88.445 67.666L100.021 74.4313L103.714 68.1109L92.1388 61.3457L80.5631 54.5804L76.8693 60.9007L88.445 67.666ZM92.1388 61.3457L85.3735 72.9213L89.0777 75.0862L95.843 63.5105L102.608 51.9349L98.9041 49.77L92.1388 61.3457ZM95.843 63.5105L84.2673 56.7453L80.9118 62.4868L92.4874 69.2521L104.063 76.0174L107.419 70.2758L95.843 63.5105ZM92.4874 69.2521L80.9118 62.4868C80.001 64.0451 77.6032 68.3433 78.4419 73.8519C79.4364 80.3842 84.0328 83.785 86.4115 85.1752L93.1768 73.5995L99.9421 62.0238C100.538 62.3722 104.167 64.6641 104.952 69.8158C105.287 72.0146 104.908 73.7485 104.618 74.6789C104.47 75.1515 104.321 75.4971 104.228 75.6956C104.134 75.8964 104.068 76.0085 104.063 76.0174L92.4874 69.2521ZM112.413 77.2323L105.648 88.808L112.413 77.2323ZM104.005 83.9657L97.2399 95.5414C103.633 99.2777 111.844 97.124 115.581 90.731L104.005 83.9657ZM100.301 81.8008L88.7252 75.0355C84.9889 81.4286 87.1426 89.6401 93.5356 93.3765L100.301 81.8008ZM107.134 70.1094L113.899 58.5337C110.829 56.7394 107.172 56.2382 103.732 57.1403C100.293 58.0425 97.3524 60.274 95.5582 63.3441L107.134 70.1094ZM110.838 72.2742L122.414 79.0395C124.208 75.9695 124.709 72.3124 123.807 68.8728C122.905 65.4332 120.673 62.4928 117.603 60.6986L110.838 72.2742ZM110.013 73.6865L118.855 83.7651C119.938 82.8148 120.861 81.6959 121.588 80.4518L110.013 73.6865ZM108.1 75.3642L99.2581 65.2855C96.0184 68.1278 94.3425 72.3542 94.754 76.6443C95.1655 80.9344 97.6142 84.7652 101.335 86.9399L108.1 75.3642ZM109.026 75.9054L102.261 87.4811C107.687 90.652 114.587 89.6292 118.859 85.0207L109.026 75.9054ZM115.627 74.7624L108.862 86.3381L115.627 74.7624ZM113.451 89.4862L106.686 101.062C109.756 102.856 113.413 103.357 116.852 102.455C120.292 101.553 123.232 99.3215 125.027 96.2515L113.451 89.4862ZM109.747 87.3213L98.171 80.556C94.4346 86.9491 96.5883 95.1606 102.981 98.897L109.747 87.3213ZM112.413 77.2323L119.178 65.6566C116.169 63.8979 111.016 62.033 105.067 64.0855C99.6978 65.9378 96.6216 70.0275 94.9597 72.8711L106.535 79.6364L118.111 86.4017C118.37 85.9578 117.226 88.2569 113.812 89.4347C109.818 90.8128 106.643 89.3896 105.648 88.808L112.413 77.2323ZM106.535 79.6364L94.9597 72.8711L92.4295 77.2004L104.005 83.9657L115.581 90.731L118.111 86.4017L106.535 79.6364ZM104.005 83.9657L110.77 72.39L107.066 70.2251L100.301 81.8008L93.5356 93.3765L97.2399 95.5414L104.005 83.9657ZM100.301 81.8008L111.877 88.5661L118.71 76.8746L107.134 70.1094L95.5582 63.3441L88.7252 75.0355L100.301 81.8008ZM107.134 70.1094L100.369 81.685L104.073 83.8499L110.838 72.2742L117.603 60.6986L113.899 58.5337L107.134 70.1094ZM110.838 72.2742L99.2624 65.509L98.437 66.9212L110.013 73.6865L121.588 80.4518L122.414 79.0395L110.838 72.2742ZM110.013 73.6865L101.17 63.6078L99.2581 65.2855L108.1 75.3642L116.943 85.4429L118.855 83.7651L110.013 73.6865ZM108.1 75.3642L101.335 86.9399L102.261 87.4811L109.026 75.9054L115.792 64.3297L114.866 63.7885L108.1 75.3642ZM109.026 75.9054L118.859 85.0207C118.232 85.6974 116.929 86.7655 114.831 87.2156C112.504 87.7147 110.335 87.1991 108.862 86.3381L115.627 74.7624L122.392 63.1867C118.418 60.8643 113.79 60.0138 109.208 60.9964C104.854 61.9301 101.502 64.3004 99.194 66.7901L109.026 75.9054ZM115.627 74.7624L108.862 86.3381C107.646 85.6276 105.699 83.8095 105.122 80.7499C104.87 79.414 104.982 78.2996 105.156 77.5514C105.323 76.8282 105.545 76.4413 105.569 76.4006L117.145 83.1658L128.72 89.9311C130.825 86.3308 132.525 81.3601 131.473 75.7787C130.355 69.8567 126.594 65.6426 122.392 63.1867L115.627 74.7624ZM117.145 83.1658L105.569 76.4006L101.875 82.7209L113.451 89.4862L125.027 96.2515L128.72 89.9311L117.145 83.1658ZM113.451 89.4862L120.216 77.9105L116.512 75.7456L109.747 87.3213L102.981 98.897L106.686 101.062L113.451 89.4862ZM109.747 87.3213L121.322 94.0866L124.678 88.345L113.102 81.5797L101.527 74.8145L98.171 80.556L109.747 87.3213ZM113.102 81.5797L124.678 88.345C125.589 86.7867 127.986 82.4885 127.148 76.9799C126.153 70.4476 121.557 67.0469 119.178 65.6566L112.413 77.2323L105.648 88.808C105.052 88.4596 101.422 86.1677 100.638 81.0161C100.303 78.8172 100.681 77.0833 100.972 76.153C101.119 75.6803 101.269 75.3347 101.362 75.1362C101.456 74.9355 101.521 74.8233 101.527 74.8145L113.102 81.5797ZM127.129 80.2425L120.364 91.8182L127.129 80.2425ZM126.036 77.1185L114.46 70.3532L126.036 77.1185ZM130.434 79.6893L118.859 72.924L130.434 79.6893ZM114.828 90.2907L103.252 83.5254C99.5154 89.9185 101.669 98.13 108.062 101.866L114.828 90.2907ZM116.722 87.0495L123.487 75.4738C117.094 71.7375 108.882 73.8911 105.146 80.2842L116.722 87.0495ZM120.032 88.9844L113.267 100.56C119.66 104.296 127.872 102.143 131.608 95.7497L120.032 88.9844ZM123.158 83.6364L134.734 90.4017C136.585 87.2337 137.057 83.4454 136.04 79.9199C135.023 76.3944 132.606 73.4398 129.351 71.7448L123.158 83.6364ZM120.229 82.1111L108.653 75.3458C106.802 78.5137 106.33 82.302 107.347 85.8276C108.364 89.3531 110.782 92.3077 114.036 94.0026L120.229 82.1111ZM122.123 78.8699L128.271 66.9546C121.934 63.685 114.146 65.9479 110.548 72.1046L122.123 78.8699ZM126.658 81.2092L120.51 93.1244L120.521 93.1302L126.658 81.2092ZM123.598 91.0681L112.022 84.3028C110.228 87.3729 109.727 91.03 110.629 94.4695C111.531 97.9091 113.762 100.849 116.832 102.644L123.598 91.0681ZM126.908 93.003L138.484 99.7682C140.278 96.6982 140.78 93.0411 139.877 89.6015C138.975 86.1619 136.744 83.2215 133.674 81.4273L126.908 93.003ZM125.014 96.2441L118.249 107.82C124.642 111.556 132.853 109.403 136.59 103.009L125.014 96.2441ZM127.129 80.2425L133.895 68.6668C134.864 69.2337 137.198 70.8854 138.425 74.2997C139.811 78.1591 138.882 81.7101 137.611 83.8838L126.036 77.1185L114.46 70.3532C112.486 73.7309 111.42 78.4446 113.188 83.3655C114.796 87.8412 118.028 90.453 120.364 91.8182L127.129 80.2425ZM126.036 77.1185L137.611 83.8838C136.302 86.1239 133.66 88.6066 129.715 89.2946C126.183 89.9106 123.591 88.7347 122.529 88.114L129.294 76.5383L136.059 64.9626C133.631 63.5435 129.755 62.0674 125.108 62.878C120.048 63.7604 116.459 66.9325 114.46 70.3532L126.036 77.1185ZM129.294 76.5383L122.529 88.114C121.468 87.4937 119.266 85.8717 118.065 82.6352C116.705 78.9693 117.426 75.376 118.859 72.924L130.434 79.6893L142.01 86.4546C144.133 82.8219 144.967 78.0523 143.205 73.3056C141.603 68.9884 138.487 66.3812 136.059 64.9626L129.294 76.5383ZM130.434 79.6893L118.859 72.924C120.253 70.538 123.023 68.0775 126.985 67.466C130.438 66.933 132.924 68.0993 133.895 68.6668L127.129 80.2425L120.364 91.8182C122.701 93.184 126.487 94.6757 131.075 93.9675C136.173 93.1808 139.912 90.0445 142.01 86.4546L130.434 79.6893ZM114.828 90.2907L126.403 97.056L128.297 93.8148L116.722 87.0495L105.146 80.2842L103.252 83.5254L114.828 90.2907ZM116.722 87.0495L109.956 98.6252L113.267 100.56L120.032 88.9844L126.798 77.4087L123.487 75.4738L116.722 87.0495ZM120.032 88.9844L131.608 95.7497L134.734 90.4017L123.158 83.6364L111.582 76.8711L108.457 82.2191L120.032 88.9844ZM123.158 83.6364L129.351 71.7448L126.422 70.2195L120.229 82.1111L114.036 94.0026L116.965 95.528L123.158 83.6364ZM120.229 82.1111L131.805 88.8763L133.699 85.6351L122.123 78.8699L110.548 72.1046L108.653 75.3458L120.229 82.1111ZM122.123 78.8699L115.976 90.7851L120.51 93.1244L126.658 81.2092L132.805 69.2939L128.271 66.9546L122.123 78.8699ZM126.658 81.2092L120.521 93.1302C118.921 92.3067 116.086 90.1972 114.958 86.1102C113.853 82.1082 115.148 78.9547 115.959 77.5657L127.535 84.331L139.111 91.0963C140.68 88.4109 142.205 84.0406 140.806 78.9739C139.384 73.8221 135.731 70.7999 132.794 69.2881L126.658 81.2092ZM127.535 84.331L115.959 77.5657L112.022 84.3028L123.598 91.0681L135.173 97.8334L139.111 91.0963L127.535 84.331ZM123.598 91.0681L116.832 102.644L120.143 104.579L126.908 93.003L133.674 81.4273L130.363 79.4924L123.598 91.0681ZM126.908 93.003L115.333 86.2377L113.438 89.4789L125.014 96.2441L136.59 103.009L138.484 99.7682L126.908 93.003ZM125.014 96.2441L131.779 84.6685L121.593 78.715L114.828 90.2907L108.062 101.866L118.249 107.82L125.014 96.2441ZM132.322 96.4776L120.746 89.7123C118.889 92.8902 118.42 96.692 119.449 100.226C120.478 103.76 122.915 106.716 126.188 108.4L132.322 96.4776ZM136.764 98.7627L148.339 105.528C150.197 102.35 150.666 98.5484 149.637 95.0143C148.608 91.4802 146.171 88.5246 142.898 86.8406L136.764 98.7627ZM134.869 102.004L128.552 113.83C134.907 117.225 142.809 114.99 146.445 108.769L134.869 102.004ZM128.692 98.704L122.351 110.518C122.359 110.522 122.367 110.526 122.374 110.53L128.692 98.704ZM131.798 88.8721L143.373 95.6374C145.168 92.5673 145.669 88.9102 144.767 85.4707C143.865 82.0311 141.633 79.0907 138.563 77.2964L131.798 88.8721ZM129.019 87.2484L117.444 80.4832C115.65 83.5532 115.148 87.2103 116.05 90.6499C116.953 94.0895 119.184 97.0299 122.254 98.8241L129.019 87.2484ZM130.914 84.0073L137.679 72.4316C131.286 68.6952 123.074 70.8489 119.338 77.242L130.914 84.0073ZM133.692 85.6309L126.927 97.2066C133.32 100.943 141.531 98.7893 145.268 92.3962L133.692 85.6309ZM134.977 83.4315L137.982 70.3649C132.267 69.0507 126.361 71.6032 123.402 76.6663L134.977 83.4315ZM139.358 84.4389L150.934 91.2042C153.086 87.5217 153.358 83.035 151.665 79.1198C149.973 75.2045 146.519 72.328 142.363 71.3722L139.358 84.4389ZM137.396 87.7958L125.82 81.0305C122.084 87.4236 124.238 95.6351 130.631 99.3715L137.396 87.7958ZM141.239 90.0419L152.815 96.8072C156.551 90.4141 154.398 82.2026 148.005 78.4662L141.239 90.0419ZM139.345 93.2831L132.58 104.859C135.65 106.653 139.307 107.154 142.746 106.252C146.186 105.35 149.126 103.118 150.921 100.048L139.345 93.2831ZM135.502 91.037L142.267 79.4613C135.874 75.725 127.663 77.8787 123.926 84.2717L135.502 91.037ZM132.322 96.4776L126.188 108.4L130.63 110.685L136.764 98.7627L142.898 86.8406L138.456 84.5554L132.322 96.4776ZM136.764 98.7627L125.188 91.9975L123.294 95.2387L134.869 102.004L146.445 108.769L148.339 105.528L136.764 98.7627ZM134.869 102.004L141.186 90.1777L135.009 86.8778L128.692 98.704L122.374 110.53L128.552 113.83L134.869 102.004ZM128.692 98.704L135.032 86.8901C136.756 87.8156 139.491 90.0317 140.514 94.0713C141.496 97.9536 140.247 100.986 139.449 102.351L127.874 95.586L116.298 88.8207C114.756 91.4595 113.266 95.7018 114.518 100.65C115.81 105.756 119.326 108.894 122.351 110.518L128.692 98.704ZM127.874 95.586L139.449 102.351L143.373 95.6374L131.798 88.8721L120.222 82.1068L116.298 88.8207L127.874 95.586ZM131.798 88.8721L138.563 77.2964L135.785 75.6728L129.019 87.2484L122.254 98.8241L125.032 100.448L131.798 88.8721ZM129.019 87.2484L140.595 94.0137L142.489 90.7725L130.914 84.0073L119.338 77.242L117.444 80.4832L129.019 87.2484ZM130.914 84.0073L124.148 95.5829L126.927 97.2066L133.692 85.6309L140.457 74.0552L137.679 72.4316L130.914 84.0073ZM133.692 85.6309L145.268 92.3962L146.553 90.1968L134.977 83.4315L123.402 76.6663L122.116 78.8656L133.692 85.6309ZM134.977 83.4315L131.973 96.4982L136.353 97.5055L139.358 84.4389L142.363 71.3722L137.982 70.3649L134.977 83.4315ZM139.358 84.4389L127.782 77.6736L125.82 81.0305L137.396 87.7958L148.972 94.5611L150.934 91.2042L139.358 84.4389ZM137.396 87.7958L130.631 99.3715L134.474 101.618L141.239 90.0419L148.005 78.4662L144.161 76.2201L137.396 87.7958ZM141.239 90.0419L129.664 83.2766L127.769 86.5178L139.345 93.2831L150.921 100.048L152.815 96.8072L141.239 90.0419ZM139.345 93.2831L146.11 81.7074L142.267 79.4613L135.502 91.037L128.737 102.613L132.58 104.859L139.345 93.2831ZM135.502 91.037L123.926 84.2717L120.746 89.7123L132.322 96.4776L143.898 103.243L147.078 97.8023L135.502 91.037ZM152.597 96.6798L159.362 85.1041C154.613 82.3286 148.651 82.7353 144.322 86.1301L152.597 96.6798ZM156.787 99.1288L164.239 110.275C168.08 107.708 170.328 103.343 170.189 98.7243C170.05 94.1058 167.542 89.8846 163.553 87.5531L156.787 99.1288ZM145.012 107L137.561 95.8537C135.872 96.9827 134.462 98.4809 133.437 100.235L145.012 107ZM139.774 111.393L146.956 100.071C146.925 100.051 146.895 100.032 146.865 100.013L139.774 111.393ZM134.15 107.889L122.575 101.123C118.913 107.389 120.901 115.43 127.06 119.268L134.15 107.889ZM136.045 104.648L143.01 93.1909C139.937 91.3228 136.242 90.7674 132.756 91.6495C129.269 92.5317 126.284 94.7774 124.469 97.8823L136.045 104.648ZM140.009 107.058L133.044 118.514C136.117 120.383 139.812 120.938 143.298 120.056C146.785 119.174 149.77 116.928 151.585 113.823L140.009 107.058ZM141.308 104.835L152.884 111.601C153.909 109.847 154.522 107.882 154.677 105.857L141.308 104.835ZM142.387 90.7128L149.153 79.1371C145.163 76.8057 140.255 76.6926 136.162 78.8378C132.07 80.983 129.371 85.0842 129.019 89.6914L142.387 90.7128ZM146.554 93.1483L159.814 95.1388C160.628 89.7142 158.056 84.3405 153.32 81.5726L146.554 93.1483ZM145.363 101.086L156.938 107.852C157.798 106.381 158.369 104.761 158.622 103.077L145.363 101.086ZM144.28 102.938L132.705 96.1731C128.968 102.566 131.122 110.778 137.515 114.514L144.28 102.938ZM145.206 103.48L138.441 115.055C144.834 118.792 153.046 116.638 156.782 110.245L145.206 103.48ZM146.289 101.628L138.014 91.0778C136.685 92.1201 135.565 93.4041 134.713 94.8622L146.289 101.628ZM152.597 96.6798L145.832 108.255L150.022 110.705L156.787 99.1288L163.553 87.5531L159.362 85.1041L152.597 96.6798ZM156.787 99.1288L149.336 87.9823L137.561 95.8537L145.012 107L152.464 118.147L164.239 110.275L156.787 99.1288ZM145.012 107L133.437 100.235L131.326 103.846L142.902 110.612L154.477 117.377L156.588 113.765L145.012 107ZM142.902 110.612L131.326 103.846C132.148 102.439 134.269 99.7714 138.288 98.7728C142.337 97.767 145.505 99.1504 146.956 100.071L139.774 111.393L132.593 122.715C135.29 124.426 139.643 126.067 144.754 124.797C149.836 123.534 152.897 120.081 154.477 117.377L142.902 110.612ZM139.774 111.393L146.865 100.013L141.241 96.5094L134.15 107.889L127.06 119.268L132.684 122.772L139.774 111.393ZM134.15 107.889L145.726 114.654L147.62 111.413L136.045 104.648L124.469 97.8823L122.575 101.123L134.15 107.889ZM136.045 104.648L129.08 116.104L133.044 118.514L140.009 107.058L146.974 95.6012L143.01 93.1909L136.045 104.648ZM140.009 107.058L151.585 113.823L152.884 111.601L141.308 104.835L129.733 98.07L128.434 100.293L140.009 107.058ZM141.308 104.835L154.677 105.857L155.756 91.7343L142.387 90.7128L129.019 89.6914L127.939 103.814L141.308 104.835ZM142.387 90.7128L135.622 102.289L139.789 104.724L146.554 93.1483L153.32 81.5726L149.153 79.1371L142.387 90.7128ZM146.554 93.1483L133.295 91.1578L132.104 99.0958L145.363 101.086L158.622 103.077L159.814 95.1388L146.554 93.1483ZM145.363 101.086L133.787 94.321L132.705 96.1731L144.28 102.938L155.856 109.704L156.938 107.852L145.363 101.086ZM144.28 102.938L137.515 114.514L138.441 115.055L145.206 103.48L151.972 91.9039L151.046 91.3627L144.28 102.938ZM145.206 103.48L156.782 110.245L157.865 108.393L146.289 101.628L134.713 94.8622L133.631 96.7143L145.206 103.48ZM146.289 101.628L154.563 112.177L160.872 107.23L152.597 96.6798L144.322 86.1301L138.014 91.0778L146.289 101.628ZM158.089 113.794L148.207 122.855C150.61 125.476 153.955 127.035 157.508 127.189C161.061 127.343 164.529 126.08 167.15 123.677L158.089 113.794ZM145.314 99.8595L136.253 89.9768C130.795 94.9809 130.427 103.462 135.431 108.92L145.314 99.8595ZM151.54 94.1513L159.919 83.6846C154.757 79.552 147.353 79.7999 142.479 84.2685L151.54 94.1513ZM165.626 105.429L157.247 115.895C162.409 120.028 169.813 119.78 174.687 115.312L165.626 105.429ZM166.417 104.704L175.478 114.587C180.352 110.118 181.24 102.763 177.57 97.2626L166.417 104.704ZM156.402 89.6934L147.341 79.8106C142.467 84.2793 141.579 91.6341 145.249 97.1347L156.402 89.6934ZM162.628 83.9851L172.511 74.9243C170.108 72.3033 166.762 70.7442 163.209 70.59C159.657 70.4359 156.188 71.6993 153.567 74.1024L162.628 83.9851ZM175.404 97.9197L184.465 107.802C189.923 102.798 190.291 94.3171 185.287 88.859L175.404 97.9197ZM172.241 100.819L162.359 109.88C167.363 115.338 175.844 115.706 181.302 110.702L172.241 100.819ZM162.003 89.6517L149.933 95.4905C150.501 96.6652 151.238 97.7506 152.12 98.7124L162.003 89.6517ZM160.784 87.1315L172.853 81.2927C171.007 77.4774 167.466 74.7595 163.304 73.9628C159.141 73.1662 154.847 74.3846 151.723 77.2488L160.784 87.1315ZM159.993 87.8564L150.932 77.9736C146.113 82.392 145.183 89.6422 148.732 95.1335L159.993 87.8564ZM169.81 103.048L178.871 112.931C183.69 108.512 184.62 101.262 181.071 95.771L169.81 103.048ZM163.683 108.666L155.458 119.254C160.621 123.265 167.924 122.967 172.744 118.549L163.683 108.666ZM149.399 97.5695L157.624 86.9812C152.46 82.9703 145.157 83.2684 140.338 87.6868L149.399 97.5695ZM148.608 98.2943L139.547 88.4116C136.423 91.2758 134.837 95.4484 135.27 99.6644C135.704 103.88 138.105 107.644 141.746 109.813L148.608 98.2943ZM151.013 99.7272L160.896 90.6665C160.014 89.7047 158.996 88.8767 157.875 88.2088L151.013 99.7272ZM161.252 110.895L170.312 120.777C172.934 118.374 174.493 115.029 174.647 111.476C174.801 107.923 173.538 104.455 171.134 101.834L161.252 110.895ZM158.089 113.794L167.972 104.733L155.196 90.7988L145.314 99.8595L135.431 108.92L148.207 122.855L158.089 113.794ZM145.314 99.8595L154.374 109.742L160.6 104.034L151.54 94.1513L142.479 84.2685L136.253 89.9768L145.314 99.8595ZM151.54 94.1513L143.16 104.618L157.247 115.895L165.626 105.429L174.006 94.9621L159.919 83.6846L151.54 94.1513ZM165.626 105.429L174.687 115.312L175.478 114.587L166.417 104.704L157.356 94.8212L156.566 95.546L165.626 105.429ZM166.417 104.704L177.57 97.2626L167.555 82.2521L156.402 89.6934L145.249 97.1347L155.264 112.145L166.417 104.704ZM156.402 89.6934L165.463 99.5761L171.689 93.8678L162.628 83.9851L153.567 74.1024L147.341 79.8106L156.402 89.6934ZM162.628 83.9851L152.745 93.0458L165.521 106.98L175.404 97.9197L185.287 88.859L172.511 74.9243L162.628 83.9851ZM175.404 97.9197L166.343 88.037L163.181 90.9365L172.241 100.819L181.302 110.702L184.465 107.802L175.404 97.9197ZM172.241 100.819L182.124 91.7584L171.885 80.5909L162.003 89.6517L152.12 98.7124L162.359 109.88L172.241 100.819ZM162.003 89.6517L174.072 83.8129L172.853 81.2927L160.784 87.1315L148.714 92.9703L149.933 95.4905L162.003 89.6517ZM160.784 87.1315L151.723 77.2488L150.932 77.9736L159.993 87.8564L169.054 97.7391L169.844 97.0142L160.784 87.1315ZM159.993 87.8564L148.732 95.1335L158.549 110.325L169.81 103.048L181.071 95.771L171.254 80.5792L159.993 87.8564ZM169.81 103.048L160.749 93.1654L154.622 98.7831L163.683 108.666L172.744 118.549L178.871 112.931L169.81 103.048ZM163.683 108.666L171.908 98.0775L157.624 86.9812L149.399 97.5695L141.173 108.158L155.458 119.254L163.683 108.666ZM149.399 97.5695L140.338 87.6868L139.547 88.4116L148.608 98.2943L157.669 108.177L158.459 107.452L149.399 97.5695ZM148.608 98.2943L141.746 109.813L144.151 111.246L151.013 99.7272L157.875 88.2088L155.47 86.7759L148.608 98.2943ZM151.013 99.7272L141.13 108.788L151.369 119.955L161.252 110.895L171.134 101.834L160.896 90.6665L151.013 99.7272ZM161.252 110.895L152.191 101.012L149.029 103.911L158.089 113.794L167.15 123.677L170.312 120.777L161.252 110.895ZM174.79 87.4613L164.25 79.1743C164.245 79.18 164.241 79.1856 164.237 79.1913L174.79 87.4613ZM177.45 84.0776L187.99 92.3646C192.128 87.1017 191.75 79.5931 187.104 74.7729L177.45 84.0776ZM173.7 87.9533L183.005 97.6067C188.336 92.4678 188.492 83.98 183.353 78.6486L173.7 87.9533ZM170.804 90.7447L161.151 100.049C166.289 105.381 174.777 105.537 180.109 100.398L170.804 90.7447ZM183.87 84.556L174.217 93.8608C179.356 99.1922 187.844 99.3483 193.175 94.2094L183.87 84.556ZM185.28 83.1975L194.933 73.8928C189.794 68.5614 181.307 68.4053 175.975 73.5442L185.28 83.1975ZM187.885 85.9005L197.19 95.5538C202.521 90.415 202.677 81.9271 197.539 76.5957L187.885 85.9005ZM182.712 87.7208L170.223 92.5969C170.867 94.2459 171.83 95.751 173.059 97.0255L182.712 87.7208ZM182.078 86.0971L194.568 81.221C192.938 77.0451 189.328 73.9602 184.949 73.0004C180.57 72.0406 176.001 73.3327 172.774 76.4438L182.078 86.0971ZM181.306 86.8415L172.001 77.1881C167.491 81.5361 166.592 88.4283 169.838 93.7873L181.306 86.8415ZM179.125 85.8152L188.778 76.5105C186.086 73.7176 182.317 72.2275 178.443 72.425C174.568 72.6225 170.97 74.4882 168.576 77.5404L179.125 85.8152ZM176.97 88.5634L166.42 80.2885C166.403 80.3102 166.386 80.332 166.369 80.3538L176.97 88.5634ZM173.849 94.2902L183.502 84.9854C184.013 85.515 184.842 86.5326 185.448 88.0832C186.089 89.7232 186.269 91.4226 186.095 92.9556C185.799 95.5659 184.603 96.6756 185.343 95.7313L174.79 87.4613L164.237 79.1913C162.471 81.4439 159.996 85.1281 159.451 89.9337C158.779 95.8542 161.267 100.556 164.196 103.595L173.849 94.2902ZM174.79 87.4613L185.33 95.7483L187.99 92.3646L177.45 84.0776L166.91 75.7907L164.25 79.1743L174.79 87.4613ZM177.45 84.0776L187.104 74.7729C183.928 71.4784 179.123 69.4914 173.846 70.3807C169.515 71.1107 166.542 73.512 164.967 75.0296L174.272 84.683L183.577 94.3363C183.335 94.5699 181.569 96.2727 178.303 96.8232C176.505 97.1261 174.445 97.0345 172.375 96.3075C170.343 95.5937 168.83 94.4545 167.797 93.3824L177.45 84.0776ZM174.272 84.683L164.967 75.0296C163.182 76.7508 160.739 79.7793 159.987 84.1665C159.118 89.2371 160.883 93.9764 164.047 97.258L173.7 87.9533L183.353 78.6486C185.66 81.0421 187.095 84.7418 186.417 88.6969C185.856 91.9688 184.127 93.8061 183.577 94.3363L174.272 84.683ZM173.7 87.9533L164.395 78.2999L161.499 81.0914L170.804 90.7447L180.109 100.398L183.005 97.6067L173.7 87.9533ZM170.804 90.7447L180.457 81.44C181.213 82.2243 181.93 83.3193 182.363 84.6882C182.793 86.0453 182.842 87.3519 182.681 88.4517C182.376 90.5484 181.398 91.5942 181.158 91.8264L171.853 82.1731L162.548 72.5197C159.585 75.3759 156.892 79.4719 156.147 84.5806C155.342 90.0975 157.016 95.7605 161.151 100.049L170.804 90.7447ZM171.853 82.1731L181.158 91.8264C181.122 91.8604 180.044 92.9242 177.761 93.1592C176.531 93.2857 175.202 93.1301 173.949 92.6397C172.726 92.1607 171.953 91.5121 171.575 91.1192L181.228 81.8145L190.881 72.5097C186.795 68.2699 181.173 65.8511 175.016 66.4847C169.488 67.0535 165.267 69.899 162.548 72.5197L171.853 82.1731ZM181.228 81.8145L171.575 91.1192L174.217 93.8608L183.87 84.556L193.524 75.2513L190.881 72.5097L181.228 81.8145ZM183.87 84.556L193.175 94.2094L194.585 92.8509L185.28 83.1975L175.975 73.5442L174.566 74.9027L183.87 84.556ZM185.28 83.1975L175.626 92.5023L178.232 95.2052L187.885 85.9005L197.539 76.5957L194.933 73.8928L185.28 83.1975ZM187.885 85.9005L178.58 76.2471L176.437 78.3128L185.742 87.9661L195.047 97.6195L197.19 95.5538L187.885 85.9005ZM185.742 87.9661L176.437 78.3128C177.751 77.0467 180.525 75.143 184.554 75.2171C188.583 75.2912 191.286 77.2956 192.552 78.6091L182.898 87.9138L173.245 97.2186C175.404 99.4588 179.065 101.936 184.061 102.028C189.057 102.12 192.807 99.7788 195.047 97.6195L185.742 87.9661ZM182.898 87.9138L192.552 78.6091L192.366 78.416L182.712 87.7208L173.059 97.0255L173.245 97.2186L182.898 87.9138ZM182.712 87.7208L195.202 82.8446L194.568 81.221L182.078 86.0971L169.589 90.9733L170.223 92.5969L182.712 87.7208ZM182.078 86.0971L172.774 76.4438L172.001 77.1881L181.306 86.8415L190.611 96.4949L191.383 95.7505L182.078 86.0971ZM181.306 86.8415L169.838 93.7873C169.642 93.4645 168.608 91.6555 168.84 88.9089C169.09 85.9638 170.571 84.3396 170.851 84.0701L180.156 93.7234L189.46 103.377C192.462 100.483 195.117 96.4059 195.56 91.1696C195.986 86.1319 194.166 82.1939 192.774 79.8957L181.306 86.8415ZM180.156 93.7234L170.851 84.0701C171.401 83.5402 173.727 81.7881 177.444 82.1265C180.621 82.4157 182.608 84.0577 183.502 84.9854L173.849 94.2902L164.196 103.595C166.057 105.527 169.682 108.346 175.013 108.831C180.883 109.366 185.879 106.828 189.46 103.377L180.156 93.7234ZM176.38 90.7335L166.726 100.038C170.72 104.182 176.167 105.115 180.611 103.972C184.092 103.077 186.388 101.124 187.453 100.097L178.149 90.4436L168.844 80.7902C169.388 80.2656 171.07 78.738 173.931 78.0019C175.532 77.5902 177.7 77.3856 180.121 78.0025C182.609 78.6365 184.604 79.9466 186.033 81.4287L176.38 90.7335ZM178.149 90.4436L187.453 100.097C189.483 98.1402 191.878 95.0576 192.803 90.8349C193.858 86.0221 192.72 80.5994 188.778 76.5105L179.125 85.8152L169.472 95.12C168.261 93.8641 167.252 92.2007 166.732 90.225C166.221 88.2827 166.302 86.4988 166.61 85.0934C167.184 82.4763 168.513 81.1093 168.844 80.7902L178.149 90.4436ZM179.125 85.8152L168.576 77.5404L166.42 80.2885L176.97 88.5634L187.519 96.8383L189.675 94.0901L179.125 85.8152ZM176.97 88.5634L166.369 80.3538C166.212 80.5562 164.418 82.7087 163.462 85.5606C162.853 87.3769 162.36 90.0417 163.026 93.1303C163.698 96.2462 165.278 98.5359 166.726 100.038L176.38 90.7335L186.033 81.4287C187.211 82.651 188.631 84.6581 189.238 87.4753C189.84 90.2652 189.379 92.6154 188.885 94.0876C188.434 95.4324 187.867 96.3185 187.716 96.5515C187.536 96.8287 187.427 96.9575 187.57 96.773L176.97 88.5634ZM192.129 81.8103L201.433 91.4637C206.765 86.3248 206.921 77.837 201.782 72.5056L192.129 81.8103ZM189.04 84.7878L179.386 94.0926C184.525 99.424 193.013 99.58 198.344 94.4412L189.04 84.7878ZM179.642 75.0379L170.337 65.3846C165.006 70.5234 164.85 79.0112 169.988 84.3427L179.642 75.0379ZM182.731 72.0604L192.384 62.7557C187.245 57.4243 178.757 57.2682 173.426 62.407L182.731 72.0604ZM183.866 73.2381L195.966 67.4635C195.346 66.163 194.519 64.9709 193.519 63.9334L183.866 73.2381ZM184.962 75.534L172.861 81.3086C174.717 85.1982 178.33 87.9584 182.571 88.7268C186.812 89.4953 191.163 88.1783 194.266 85.1874L184.962 75.534ZM185.734 74.7896L195.039 84.443C199.563 80.0819 200.452 73.1634 197.176 67.8006L185.734 74.7896ZM200.006 74.2176L209.31 83.871C214.642 78.7321 214.798 70.2443 209.659 64.9129L200.006 74.2176ZM196.917 77.1952L187.263 86.4999C192.402 91.8313 200.89 91.9874 206.221 86.8485L196.917 77.1952ZM187.93 71.8905L178.625 62.2371C176.116 64.656 172.922 69.1093 173.283 75.3925C173.608 81.0625 176.71 85.1333 178.995 87.5047L188.649 78.1999L198.302 68.8952C197.945 68.525 199.847 70.2506 200.054 73.856C200.296 78.0747 198.065 80.744 197.235 81.5439L187.93 71.8905ZM188.649 78.1999L178.995 87.5047L182.475 91.115L192.129 81.8103L201.782 72.5056L198.302 68.8952L188.649 78.1999ZM192.129 81.8103L182.824 72.1569L179.735 75.1345L189.04 84.7878L198.344 94.4412L201.433 91.4637L192.129 81.8103ZM189.04 84.7878L198.693 75.4831L189.295 65.7332L179.642 75.0379L169.988 84.3427L179.386 94.0926L189.04 84.7878ZM179.642 75.0379L188.946 84.6913L192.036 81.7138L182.731 72.0604L173.426 62.407L170.337 65.3846L179.642 75.0379ZM182.731 72.0604L173.077 81.3651L174.213 82.5429L183.866 73.2381L193.519 63.9334L192.384 62.7557L182.731 72.0604ZM183.866 73.2381L171.766 79.0127L172.861 81.3086L184.962 75.534L197.062 69.7594L195.966 67.4635L183.866 73.2381ZM184.962 75.534L194.266 85.1874L195.039 84.443L185.734 74.7896L176.429 65.1363L175.657 65.8806L184.962 75.534ZM185.734 74.7896L197.176 67.8006C197.657 68.588 198.331 70.1313 198.195 72.2732C198.044 74.6484 196.959 76.5959 195.73 77.7802L186.425 68.1268L177.121 58.4735C173.807 61.6676 171.732 65.8916 171.434 70.5683C171.151 75.0117 172.522 78.8814 174.292 81.7787L185.734 74.7896ZM186.425 68.1268L195.73 77.7802C194.716 78.7574 192.438 80.1374 189.337 79.8625C187.983 79.7424 186.941 79.3317 186.267 78.9619C185.617 78.6045 185.305 78.2856 185.272 78.2516L194.925 68.9469L204.579 59.6422C201.685 56.6397 197.362 53.6534 191.705 53.1519C185.702 52.6197 180.625 55.0957 177.121 58.4735L186.425 68.1268ZM194.925 68.9469L185.272 78.2516L190.352 83.5224L200.006 74.2176L209.659 64.9129L204.579 59.6422L194.925 68.9469ZM200.006 74.2176L190.701 64.5643L187.612 67.5418L196.917 77.1952L206.221 86.8485L209.31 83.871L200.006 74.2176ZM196.917 77.1952L206.57 67.8904L201.955 63.1023L192.302 72.4071L182.648 81.7118L187.263 86.4999L196.917 77.1952ZM192.302 72.4071L201.955 63.1023C200.702 61.8028 197.216 58.3283 191.687 57.6403C185.13 56.8244 180.609 60.3251 178.625 62.2371L187.93 71.8905L197.235 81.5439C196.738 82.023 193.547 84.8939 188.376 84.2504C186.169 83.9758 184.602 83.1411 183.786 82.609C183.371 82.3387 183.079 82.1011 182.913 81.9578C182.745 81.8128 182.655 81.7192 182.648 81.7118L192.302 72.4071ZM199.734 63.418L189.194 55.131C189.19 55.1367 189.185 55.1423 189.181 55.148L199.734 63.418ZM202.394 60.0344L212.934 68.3213C217.072 63.0584 216.694 55.5498 212.048 50.7296L202.394 60.0344ZM198.644 63.91L207.949 73.5634C213.28 68.4245 213.436 59.9367 208.297 54.6053L198.644 63.91ZM195.748 66.7014L186.095 76.0062C191.234 81.3376 199.721 81.4937 205.053 76.3548L195.748 66.7014ZM208.815 60.5127L199.161 69.8175C204.3 75.1489 212.788 75.305 218.119 70.1661L208.815 60.5127ZM210.224 59.1543L219.877 49.8495C214.738 44.5181 206.251 44.362 200.919 49.5009L210.224 59.1543ZM212.829 61.8572L222.134 71.5106C227.465 66.3717 227.622 57.8839 222.483 52.5525L212.829 61.8572ZM207.656 63.6775L195.167 68.5536C195.811 70.2026 196.775 71.7077 198.003 72.9822L207.656 63.6775ZM207.023 62.0538L219.512 57.1777C217.882 53.0018 214.272 49.917 209.893 48.9571C205.514 47.9973 200.945 49.2894 197.718 52.4005L207.023 62.0538ZM206.25 62.7982L196.946 53.1449C192.435 57.4928 191.536 64.385 194.782 69.744L206.25 62.7982ZM204.069 61.772L213.723 52.4672C211.031 49.6743 207.261 48.1842 203.387 48.3817C199.513 48.5792 195.914 50.4449 193.52 53.4971L204.069 61.772ZM201.914 64.5201L191.364 56.2452C191.347 56.267 191.33 56.2887 191.313 56.3105L201.914 64.5201ZM198.793 70.2469L208.446 60.9422C208.957 61.4717 209.786 62.4893 210.392 64.0399C211.033 65.6799 211.213 67.3793 211.039 68.9123C210.743 71.5226 209.547 72.6323 210.287 71.6881L199.734 63.418L189.181 55.148C187.416 57.4006 184.94 61.0848 184.395 65.8904C183.723 71.811 186.211 76.5131 189.14 79.5516L198.793 70.2469ZM199.734 63.418L210.274 71.705L212.934 68.3213L202.394 60.0344L191.854 51.7474L189.194 55.131L199.734 63.418ZM202.394 60.0344L212.048 50.7296C208.872 47.4351 204.067 45.4481 198.791 46.3374C194.459 47.0674 191.486 49.4687 189.911 50.9863L199.216 60.6397L208.521 70.293C208.279 70.5266 206.513 72.2295 203.247 72.7799C201.449 73.0829 199.389 72.9912 197.319 72.2642C195.288 71.5505 193.774 70.4112 192.741 69.3391L202.394 60.0344ZM199.216 60.6397L189.911 50.9863C188.126 52.7075 185.683 55.736 184.931 60.1232C184.062 65.1938 185.828 69.9331 188.991 73.2147L198.644 63.91L208.297 54.6053C210.604 56.9988 212.039 60.6985 211.361 64.6536C210.8 67.9255 209.071 69.7628 208.521 70.293L199.216 60.6397ZM198.644 63.91L189.339 54.2566L186.443 57.0481L195.748 66.7014L205.053 76.3548L207.949 73.5634L198.644 63.91ZM195.748 66.7014L205.401 57.3967C206.157 58.181 206.875 59.276 207.308 60.6449C207.737 62.002 207.786 63.3086 207.626 64.4084C207.32 66.5051 206.343 67.5509 206.102 67.7832L196.797 58.1298L187.492 48.4764C184.529 51.3326 181.836 55.4286 181.091 60.5373C180.286 66.0542 181.961 71.7172 186.095 76.0062L195.748 66.7014ZM196.797 58.1298L206.102 67.7832C206.066 67.8171 204.989 68.8809 202.705 69.1159C201.476 69.2424 200.146 69.0868 198.894 68.5964C197.67 68.1174 196.897 67.4688 196.519 67.0759L206.172 57.7712L215.825 48.4664C211.739 44.2266 206.117 41.8078 199.96 42.4414C194.432 43.0102 190.211 45.8557 187.492 48.4764L196.797 58.1298ZM206.172 57.7712L196.519 67.0759L199.161 69.8175L208.815 60.5127L218.468 51.208L215.825 48.4664L206.172 57.7712ZM208.815 60.5127L218.119 70.1661L219.529 68.8076L210.224 59.1543L200.919 49.5009L199.51 50.8594L208.815 60.5127ZM210.224 59.1543L200.571 68.459L203.176 71.1619L212.829 61.8572L222.483 52.5525L219.877 49.8495L210.224 59.1543ZM212.829 61.8572L203.525 52.2038L201.382 54.2695L210.686 63.9229L219.991 73.5762L222.134 71.5106L212.829 61.8572ZM210.686 63.9229L201.382 54.2695C202.695 53.0034 205.469 51.0997 209.498 51.1738C213.528 51.2479 216.23 53.2523 217.496 54.5658L207.843 63.8705L198.189 73.1753C200.349 75.4155 204.009 77.8927 209.005 77.9846C214.001 78.0765 217.751 75.7356 219.991 73.5762L210.686 63.9229ZM207.843 63.8705L217.496 54.5658L217.31 54.3727L207.656 63.6775L198.003 72.9822L198.189 73.1753L207.843 63.8705ZM207.656 63.6775L220.146 58.8013L219.512 57.1777L207.023 62.0538L194.533 66.93L195.167 68.5536L207.656 63.6775ZM207.023 62.0538L197.718 52.4005L196.946 53.1449L206.25 62.7982L215.555 72.4516L216.327 71.7072L207.023 62.0538ZM206.25 62.7982L194.782 69.744C194.586 69.4212 193.552 67.6122 193.785 64.8656C194.034 61.9205 195.515 60.2963 195.795 60.0268L205.1 69.6801L214.404 79.3335C217.406 76.44 220.061 72.3626 220.504 67.1263C220.931 62.0886 219.11 58.1506 217.719 55.8524L206.25 62.7982ZM205.1 69.6801L195.795 60.0268C196.345 59.4969 198.671 57.7448 202.388 58.0832C205.565 58.3724 207.552 60.0145 208.446 60.9422L198.793 70.2469L189.14 79.5516C191.002 81.4833 194.626 84.3028 199.957 84.7881C205.827 85.3225 210.824 82.7851 214.404 79.3335L205.1 69.6801ZM201.324 66.6902L191.67 75.9949C195.665 80.1387 201.111 81.0716 205.555 79.9286C209.036 79.0333 211.332 77.0807 212.398 76.0537L203.093 66.4003L193.788 56.7469C194.332 56.2224 196.014 54.6947 198.875 53.9587C200.476 53.5469 202.644 53.3423 205.065 53.9592C207.553 54.5932 209.549 55.9033 210.977 57.3854L201.324 66.6902ZM203.093 66.4003L212.398 76.0537C214.428 74.0969 216.822 71.0143 217.748 66.7917C218.803 61.9788 217.664 56.5561 213.723 52.4672L204.069 61.772L194.416 71.0767C193.205 69.8208 192.196 68.1574 191.676 66.1817C191.165 64.2394 191.246 62.4555 191.554 61.0502C192.128 58.433 193.457 57.066 193.788 56.7469L203.093 66.4003ZM204.069 61.772L193.52 53.4971L191.364 56.2452L201.914 64.5201L212.463 72.795L214.619 70.0468L204.069 61.772ZM201.914 64.5201L191.313 56.3105C191.157 56.5129 189.362 58.6655 188.406 61.5173C187.797 63.3336 187.304 65.9984 187.97 69.087C188.642 72.2029 190.222 74.4927 191.67 75.9949L201.324 66.6902L210.977 57.3854C212.155 58.6077 213.575 60.6148 214.182 63.432C214.784 66.2219 214.323 68.5721 213.829 70.0444C213.378 71.3891 212.811 72.2752 212.66 72.5082C212.48 72.7854 212.371 72.9142 212.514 72.7297L201.914 64.5201ZM215.696 40.2858L225.349 30.981C220.21 25.6496 211.723 25.4935 206.391 30.6324L215.696 40.2858ZM218.301 42.9887L227.606 52.6421C232.937 47.5032 233.094 39.0154 227.955 33.684L218.301 42.9887ZM216.905 44.6698L203.858 41.5812C203 45.205 203.688 49.0222 205.757 52.1186C207.826 55.2149 211.089 57.3113 214.765 57.9056L216.905 44.6698ZM217.612 53.672L205.705 47.5077C202.616 53.475 204.421 60.8074 209.927 64.6588C215.433 68.5102 222.94 67.6908 227.486 62.7422L217.612 53.672ZM216.788 65.4907L207.134 74.7954C212.273 80.1268 220.761 80.2829 226.092 75.1441L216.788 65.4907ZM214.182 62.7878L204.878 53.1344C199.546 58.2733 199.39 66.7611 204.529 72.0925L214.182 62.7878ZM213.81 60.3534L206.051 71.2882C212.003 75.5112 220.239 74.1985 224.583 68.3345L213.81 60.3534ZM211.807 58.9322L201.55 50.2967C199.136 53.1641 198.032 56.9113 198.507 60.6297C198.982 64.348 200.991 67.6979 204.048 69.867L211.807 58.9322ZM216.955 52.2566L228.25 59.4812C231.593 54.2552 230.914 47.4184 226.608 42.9518L216.955 52.2566ZM216.211 51.4843L225.864 42.1795C222.839 39.0409 218.476 37.569 214.168 38.2331C209.86 38.8973 206.143 41.6147 204.203 45.5187L216.211 51.4843ZM213.213 44.3175L214.986 57.6074C222.216 56.6429 227.348 50.0764 226.538 42.8281L213.213 44.3175ZM214.846 41.1046L224.151 50.7579L225.001 49.9391L215.696 40.2858L206.391 30.6324L205.542 31.4512L214.846 41.1046ZM215.696 40.2858L206.043 49.5905L208.648 52.2934L218.301 42.9887L227.955 33.684L225.349 30.981L215.696 40.2858ZM218.301 42.9887L208.997 33.3353L208.34 33.9681L217.645 43.6214L226.95 53.2748L227.606 52.6421L218.301 42.9887ZM217.645 43.6214L208.34 33.9681C208.295 34.0114 207.463 34.7857 206.664 35.8015C205.818 36.8774 204.511 38.8232 203.858 41.5812L216.905 44.6698L229.952 47.7584C229.402 50.0822 228.32 51.6433 227.746 52.3734C227.219 53.0433 226.705 53.5106 226.95 53.2748L217.645 43.6214ZM216.905 44.6698L214.765 57.9056C213.404 57.6857 212.414 57.2988 211.968 57.1118C211.417 56.8804 210.967 56.6407 210.614 56.4297C209.92 56.0155 209.239 55.4957 208.601 54.8338L218.255 45.5291L227.908 36.2243C226.768 35.0412 225.544 34.1132 224.368 33.4104C223.513 32.8997 221.604 31.8478 219.045 31.434L216.905 44.6698ZM218.255 45.5291L208.601 54.8338C207.517 53.7088 206.697 52.293 206.258 50.7517C205.844 49.2956 205.879 48.1162 205.953 47.4649C206.072 46.4143 206.346 46.2699 205.705 47.5077L217.612 53.672L229.518 59.8363C230.687 57.58 232.166 54.2812 232.597 50.4911C233.086 46.1793 232.214 40.6915 227.908 36.2243L218.255 45.5291ZM217.612 53.672L227.486 62.7422C227.854 62.3417 227.151 63.3325 225.147 63.984C223.955 64.3716 222.078 64.6975 219.85 64.2086C217.538 63.7014 215.788 62.5219 214.664 61.3553L224.317 52.0506L233.97 42.7458C231.85 40.5464 229.026 38.7687 225.597 38.0163C222.251 37.2822 219.214 37.716 216.856 38.4828C212.52 39.8927 209.46 42.7271 207.738 44.6018L217.612 53.672ZM224.317 52.0506L214.664 61.3553C214.099 60.7691 213.36 59.828 212.782 58.4936C212.185 57.1139 211.905 55.6435 211.922 54.2205C211.938 52.8577 212.223 51.8055 212.455 51.1632C212.681 50.5386 212.899 50.188 212.923 50.1499C212.925 50.147 212.616 50.6131 211.572 51.7402C210.58 52.8109 209.258 54.1266 207.483 55.8373L216.788 65.4907L226.092 75.1441C229.407 71.949 233.318 68.1302 235.691 64.315C236.959 62.2769 238.683 58.8799 238.735 54.5452C238.795 49.592 236.679 45.5562 233.97 42.7458L224.317 52.0506ZM216.788 65.4907L226.441 56.186L223.836 53.483L214.182 62.7878L204.529 72.0925L207.134 74.7954L216.788 65.4907ZM214.182 62.7878L223.487 72.4411C226.322 69.7085 229.044 67.0855 230.717 64.9325C231.428 64.0183 233.508 61.3139 234.134 57.4254C235.028 51.8692 232.602 47.5469 230.229 45.0855L220.576 54.3903L210.923 63.695C210.205 62.95 209.073 61.5746 208.301 59.5179C207.478 57.323 207.346 55.1096 207.659 53.1638C207.944 51.3969 208.546 50.1377 208.878 49.5245C209.219 48.8942 209.509 48.5231 209.544 48.4779C209.581 48.4296 209.344 48.7288 208.44 49.6461C207.598 50.4996 206.458 51.6112 204.878 53.1344L214.182 62.7878ZM220.576 54.3903L230.229 45.0855C227.986 42.7582 224.878 41.0955 221.268 40.7506C217.99 40.4372 215.352 41.3088 213.764 42.0274C210.859 43.3416 208.845 45.3508 207.982 46.2424C206.008 48.2823 204.035 51.0237 203.036 52.3724L213.81 60.3534L224.583 68.3345C226.093 66.2968 226.815 65.3422 227.252 64.8899C227.595 64.5354 226.716 65.5995 224.817 66.4588C223.732 66.9498 221.564 67.7164 218.717 67.4443C215.539 67.1405 212.822 65.6651 210.923 63.695L220.576 54.3903ZM213.81 60.3534L221.568 49.4187L219.565 47.9974L211.807 58.9322L204.048 69.867L206.051 71.2882L213.81 60.3534ZM211.807 58.9322L222.063 67.5678C224.003 65.2638 226.342 62.4634 228.25 59.4812L216.955 52.2566L205.66 45.0319C204.834 46.3234 203.604 47.857 201.55 50.2967L211.807 58.9322ZM216.955 52.2566L226.608 42.9518L225.864 42.1795L216.211 51.4843L206.557 60.789L207.302 61.5613L216.955 52.2566ZM216.211 51.4843L204.203 45.5187C203.763 46.4047 203.719 45.8244 205.15 45.0329C206.011 44.5562 207.83 43.8101 210.312 44.0542C212.992 44.3177 215.004 45.5953 216.164 46.7992L206.511 56.1039L196.857 65.4087C199.562 68.215 203.266 70.306 207.688 70.7408C211.912 71.1562 215.523 69.9394 218.131 68.4968C223.053 65.7735 226.315 61.2809 228.218 57.4499L216.211 51.4843ZM206.511 56.1039L216.164 46.7992C217.071 47.74 217.918 49.0991 218.338 50.7959C218.745 52.4456 218.618 53.8753 218.379 54.858C217.961 56.5837 217.21 57.0757 217.652 56.6502L208.347 46.9968L199.042 37.3434C196.414 39.8768 193.508 43.6385 192.32 48.536C190.962 54.1335 192.128 60.5024 196.857 65.4087L206.511 56.1039ZM208.347 46.9968L217.652 56.6502C217.794 56.5132 217.688 56.6473 217.307 56.8639C216.905 57.0924 216.115 57.4569 214.986 57.6074L213.213 44.3175L211.44 31.0276C205.736 31.7886 201.588 34.8896 199.042 37.3434L208.347 46.9968ZM213.213 44.3175L226.538 42.8281C226.877 45.8641 225.884 48.1916 225.172 49.3874C224.556 50.4244 223.956 50.9461 224.151 50.7579L214.846 41.1046L205.542 31.4512C204.917 32.0537 198.942 37.3383 199.889 45.8069L213.213 44.3175ZM213.639 52.1008L222.944 61.7541C224.322 60.4253 226.798 57.8237 228.043 54.0299C228.75 51.8767 229.13 49.1185 228.455 46.0895C227.776 43.0417 226.244 40.6801 224.633 39.0088L214.979 48.3135L205.326 57.6183C204.115 56.362 202.847 54.4581 202.281 51.9191C201.72 49.3989 202.062 47.2006 202.565 45.6672C203.404 43.1128 204.809 41.9897 204.334 42.4474L213.639 52.1008ZM214.979 48.3135L224.633 39.0088C222.987 37.3019 220.668 35.7041 217.673 34.9282C214.707 34.1604 211.971 34.428 209.813 35.0388C205.974 36.1253 203.272 38.4806 201.841 39.8603L211.145 49.5136L220.45 59.167C220.872 58.7601 219.696 60.11 217.116 60.8404C215.587 61.2731 213.413 61.525 210.95 60.8872C208.457 60.2415 206.581 58.9198 205.326 57.6183L214.979 48.3135ZM211.145 49.5136L201.841 39.8603C200.401 41.2481 197.973 43.8435 196.74 47.5977C196.049 49.6997 195.657 52.4112 196.29 55.4081C196.934 58.4518 198.443 60.8715 200.133 62.6242L209.786 53.3195L219.439 44.0147C220.738 45.362 221.99 47.3266 222.526 49.8598C223.051 52.3463 222.7 54.492 222.215 55.9671C221.394 58.4678 220.037 59.5657 220.45 59.167L211.145 49.5136ZM209.786 53.3195L200.133 62.6242C201.787 64.3406 204.133 65.9589 207.177 66.7289C210.186 67.4899 212.944 67.1865 215.089 66.5577C218.885 65.445 221.556 63.0915 222.944 61.7541L213.639 52.1008L204.334 42.4474C203.868 42.8966 205.013 41.5675 207.546 40.8251C209.06 40.3814 211.251 40.0996 213.753 40.7322C216.289 41.3736 218.185 42.7135 219.439 44.0147L209.786 53.3195ZM231.898 35.3206L241.203 44.974C246.534 39.8351 246.69 31.3473 241.551 26.0159L231.898 35.3206ZM224.504 42.448L215.199 32.7947C209.867 37.9335 209.711 46.4214 214.85 51.7528L224.504 42.448ZM229.92 38.7547L220.615 29.1014C216.23 33.3282 215.244 39.9798 218.216 45.2964L229.92 38.7547ZM233.009 35.7772L243.835 27.8687C241.551 24.741 238.025 22.7541 234.166 22.4196C230.308 22.0852 226.493 23.4358 223.704 26.1238L233.009 35.7772ZM222.829 40.7104L213.175 50.0152C218.314 55.3466 226.802 55.5027 232.134 50.3638L222.829 40.7104ZM227.327 36.3744L236.632 46.0278C241.963 40.8889 242.119 32.4011 236.981 27.0697L227.327 36.3744ZM220.863 44.4672L230.517 35.1624C231.235 35.9079 232.31 37.6604 232.187 40.1284C232.07 42.4505 230.976 43.8076 230.54 44.2279L221.235 34.5745L211.93 24.9212C208.463 28.2632 205.693 33.0221 205.405 38.7878C205.109 44.6994 207.514 49.9374 211.21 53.7719L220.863 44.4672ZM221.235 34.5745L230.54 44.2279C230.188 44.5668 228.897 45.5828 226.634 45.6612C224.156 45.7471 222.256 44.6375 221.314 43.66L230.968 34.3553L240.621 25.0505C236.832 21.1191 231.582 18.6583 225.706 18.8619C220.047 19.058 215.313 21.6606 211.93 24.9212L221.235 34.5745ZM230.968 34.3553L221.314 43.66L222.245 44.6253L231.898 35.3206L241.551 26.0159L240.621 25.0505L230.968 34.3553ZM231.898 35.3206L222.593 25.6672L215.199 32.7947L224.504 42.448L233.808 52.1014L241.203 44.974L231.898 35.3206ZM224.504 42.448L214.85 51.7528C217.82 54.8339 222.35 57.0659 227.69 56.5718C232.516 56.1252 236.049 53.6292 238.218 51.5377L228.914 41.8843L219.609 32.231C220.022 31.833 221.889 30.1787 225.219 29.8705C229.064 29.5148 232.267 31.182 234.157 33.1433L224.504 42.448ZM228.914 41.8843L238.218 51.5377C240.49 49.3485 246.827 41.5226 241.623 32.2131L229.92 38.7547L218.216 45.2964C216.291 41.8528 216.52 38.3391 217.306 36.0018C218.009 33.911 219.116 32.7057 219.609 32.231L228.914 41.8843ZM229.92 38.7547L239.224 48.4081L242.313 45.4306L233.009 35.7772L223.704 26.1238L220.615 29.1014L229.92 38.7547ZM233.009 35.7772L222.182 43.6857C220.641 41.5763 220.399 39.5887 220.523 38.2357C220.684 36.4868 221.47 35.279 222.028 34.7409L231.333 44.3942L240.638 54.0476C248.753 46.2258 249.026 34.9751 243.835 27.8687L233.009 35.7772ZM231.333 44.3942L222.028 34.7409C222.349 34.4313 223.864 33.308 226.34 33.4279C228.585 33.5366 229.969 34.5947 230.517 35.1624L220.863 44.4672L211.21 53.7719C214.418 57.1005 219.164 59.9273 225.043 60.2118C231.152 60.5075 236.571 57.9673 240.638 54.0476L231.333 44.3942ZM222.829 40.7104L232.134 50.3638L236.632 46.0278L227.327 36.3744L218.023 26.7211L213.524 31.0571L222.829 40.7104ZM227.327 36.3744L236.981 27.0697C234.18 24.1641 229.779 21.9621 224.521 22.4935C219.805 22.9703 216.401 25.4535 214.349 27.4311L223.654 37.0844L232.959 46.7378C232.625 47.0591 230.704 48.8205 227.218 49.1729C223.191 49.58 219.767 47.8511 217.674 45.6792L227.327 36.3744ZM223.654 37.0844L214.349 27.4311C212.304 29.4021 209.664 32.7398 209.039 37.4953C208.342 42.7959 210.475 47.214 213.175 50.0152L222.829 40.7104L232.482 31.4057C234.475 33.4732 236.162 36.9064 235.625 40.9915C235.16 44.5314 233.285 46.423 232.959 46.7378L223.654 37.0844ZM253.959 22.2125L263.264 31.8658C268.596 26.7269 268.752 18.2391 263.613 12.9077L253.959 22.2125ZM250.87 25.19L241.217 34.4947C246.356 39.8261 254.844 39.9822 260.175 34.8433L250.87 25.19ZM247.357 28.5769L256.661 38.2303C261.993 33.0914 262.149 24.6036 257.01 19.2721L247.357 28.5769ZM244.267 31.5544L234.614 40.8591C239.753 46.1905 248.241 46.3466 253.572 41.2078L244.267 31.5544ZM240.754 34.9413L250.058 44.5947C255.39 39.4558 255.546 30.968 250.407 25.6366L240.754 34.9413ZM237.665 37.9188L228.011 47.2236C233.15 52.555 241.638 52.7111 246.969 47.5722L237.665 37.9188ZM228.267 28.1689L218.962 18.5156C213.631 23.6544 213.475 32.1423 218.613 37.4737L228.267 28.1689ZM231.356 25.1914L241.009 15.8867C235.87 10.5553 227.383 10.3992 222.051 15.5381L231.356 25.1914ZM232.305 26.1761L244.405 20.4015C243.785 19.1009 242.958 17.9089 241.958 16.8713L232.305 26.1761ZM233.401 28.472L221.3 34.2465C223.156 38.1361 226.769 40.8963 231.01 41.6648C235.251 42.4332 239.602 41.1163 242.705 38.1253L233.401 28.472ZM234.173 27.7276L243.478 37.3809C248.002 33.0198 248.891 26.1014 245.615 20.7385L234.173 27.7276ZM240.235 21.8842L232.283 32.6787C237.544 36.5552 244.834 36.0731 249.54 31.5376L240.235 21.8842ZM240.795 21.3445L250.1 30.9979C254.624 26.6368 255.513 19.7183 252.237 14.3555L240.795 21.3445ZM241.132 15.3959L250.437 25.0492C249.566 25.8881 248.119 26.8744 246.113 27.3425C244.129 27.8054 242.404 27.5744 241.232 27.2229C239.318 26.6489 238.738 25.7406 239.412 26.4395L249.065 17.1348L258.719 7.83004C256.861 5.90322 253.56 2.92523 248.935 1.538C243.112 -0.208775 236.687 1.05829 231.827 5.74252L241.132 15.3959ZM249.065 17.1348L239.412 26.4395L244.306 31.5172L253.959 22.2125L263.613 12.9077L258.719 7.83004L249.065 17.1348ZM253.959 22.2125L244.655 12.5591L241.566 15.5366L250.87 25.19L260.175 34.8433L263.264 31.8658L253.959 22.2125ZM250.87 25.19L260.524 15.8852L255.834 11.0199L246.181 20.3247L236.527 29.6294L241.217 34.4947L250.87 25.19ZM246.181 20.3247L255.834 11.0199C255.162 10.323 252.15 6.99646 247.497 5.76612C240.24 3.84747 235.083 7.81822 233.139 9.69229L242.444 19.3457L251.749 28.999C251.417 29.3183 250.216 30.4405 248.188 31.2426C245.787 32.1923 243.122 32.3463 240.642 31.6906C238.543 31.1357 237.23 30.1703 236.848 29.8777C236.421 29.5506 236.274 29.367 236.527 29.6294L246.181 20.3247ZM242.444 19.3457L233.139 9.69229C231.287 11.477 229.448 14.0582 228.628 17.4917C227.807 20.9273 228.293 24.0232 229.101 26.359C230.477 30.3372 233.202 33.2118 234.409 34.4643L244.063 25.1596L253.716 15.8549C253.365 15.4904 253.317 15.4064 253.413 15.5365C253.479 15.6265 254.011 16.343 254.443 17.594C254.92 18.9731 255.322 21.1583 254.71 23.7201C254.099 26.2797 252.76 28.0238 251.749 28.999L242.444 19.3457ZM244.063 25.1596L234.409 34.4643L237.703 37.8816L247.357 28.5769L257.01 19.2721L253.716 15.8549L244.063 25.1596ZM247.357 28.5769L238.052 18.9235L234.963 21.901L244.267 31.5544L253.572 41.2078L256.661 38.2303L247.357 28.5769ZM244.267 31.5544L253.921 22.2497L249.231 17.3844L239.578 26.6891L229.925 35.9938L234.614 40.8591L244.267 31.5544ZM239.578 26.6891L249.231 17.3844C248.559 16.6874 245.547 13.3609 240.894 12.1306C233.637 10.2119 228.48 14.1827 226.536 16.0567L235.841 25.7101L245.146 35.3635C244.814 35.6827 243.614 36.8049 241.586 37.6071C239.184 38.5568 236.519 38.7107 234.039 38.0551C231.94 37.5001 230.627 36.5348 230.245 36.2421C229.819 35.9151 229.672 35.7314 229.925 35.9938L239.578 26.6891ZM235.841 25.7101L226.536 16.0567C224.685 17.8414 222.845 20.4227 222.025 23.8561C221.205 27.2918 221.69 30.3877 222.498 32.7234C223.874 36.7017 226.599 39.5763 227.806 40.8288L237.46 31.524L247.113 22.2193C246.762 21.8548 246.714 21.7708 246.81 21.9009C246.876 21.9909 247.408 22.7074 247.84 23.9584C248.317 25.3375 248.719 27.5227 248.107 30.0845C247.496 32.6441 246.157 34.3883 245.146 35.3635L235.841 25.7101ZM237.46 31.524L227.806 40.8288L231.1 44.2461L240.754 34.9413L250.407 25.6366L247.113 22.2193L237.46 31.524ZM240.754 34.9413L231.449 25.288L228.36 28.2655L237.665 37.9188L246.969 47.5722L250.058 44.5947L240.754 34.9413ZM237.665 37.9188L247.318 28.6141L237.92 18.8642L228.267 28.1689L218.613 37.4737L228.011 47.2236L237.665 37.9188ZM228.267 28.1689L237.572 37.8223L240.661 34.8448L231.356 25.1914L222.051 15.5381L218.962 18.5156L228.267 28.1689ZM231.356 25.1914L221.702 34.4962L222.652 35.4808L232.305 26.1761L241.958 16.8713L241.009 15.8867L231.356 25.1914ZM232.305 26.1761L220.205 31.9507L221.3 34.2465L233.401 28.472L245.501 22.6974L244.405 20.4015L232.305 26.1761ZM233.401 28.472L242.705 38.1253L243.478 37.3809L234.173 27.7276L224.868 18.0742L224.096 18.8186L233.401 28.472ZM234.173 27.7276L245.615 20.7385C245.653 20.8014 246.599 22.3007 246.565 24.8197C246.523 27.8801 245.094 30.199 243.834 31.4137L234.529 21.7603L225.224 12.107C222.072 15.1453 219.821 19.393 219.752 24.4537C219.69 28.9729 221.404 32.544 222.731 34.7166L234.173 27.7276ZM234.529 21.7603L243.834 31.4137C243.218 32.0069 242.209 32.778 240.766 33.3368C239.283 33.9112 237.74 34.1057 236.306 33.994C234.94 33.8876 233.912 33.5245 233.299 33.2497C232.698 32.9799 232.354 32.7313 232.283 32.6787L240.235 21.8842L248.188 11.0897C246.298 9.69711 242.918 7.61241 238.388 7.25967C233.138 6.85078 228.54 8.91126 225.224 12.107L234.529 21.7603ZM240.235 21.8842L249.54 31.5376L250.1 30.9979L240.795 21.3445L231.49 11.6912L230.93 12.2308L240.235 21.8842ZM240.795 21.3445L252.237 14.3555C252.243 14.3652 253.2 15.8553 253.178 18.3818C253.166 19.7359 252.869 21.1283 252.272 22.4206C251.692 23.6758 250.97 24.5354 250.437 25.0492L241.132 15.3959L231.827 5.74252C228.669 8.78646 226.409 13.0528 226.364 18.1441C226.324 22.6615 228.058 26.2141 229.353 28.3336L240.795 21.3445ZM270.411 25.3618L263.056 36.5723C269.247 40.6342 277.559 38.9079 281.621 32.7166L270.411 25.3618ZM261.824 19.7281L269.178 8.5177C262.987 4.45581 254.675 6.18205 250.613 12.3734L261.824 19.7281ZM263.349 23.9041L255.995 35.1146L263.349 23.9041ZM266.624 24.1924L273.979 12.9819C268.886 9.6409 262.181 10.1522 257.654 14.2268L266.624 24.1924ZM270.211 26.5459L280.32 35.354C282.864 32.4338 284.022 28.5558 283.494 24.7187C282.966 20.8815 280.804 17.4601 277.566 15.3355L270.211 26.5459ZM263.147 17.7103L251.937 10.3555C249.986 13.3287 249.297 16.955 250.02 20.4366C250.743 23.9183 252.819 26.9701 255.793 28.9207L263.147 17.7103ZM268.371 21.1376L261.017 32.348C267.208 36.4099 275.52 34.6836 279.582 28.4923L268.371 21.1376ZM266.866 17.7126L259.511 28.923L266.866 17.7126ZM259.049 16.6249L270.259 23.9796C269.691 24.8453 268.22 26.2816 265.786 26.7073C263.496 27.1078 261.93 26.3405 261.424 26.0083L268.778 14.7979L276.133 3.58743C272.107 0.945829 266.853 -0.701685 261.166 0.292902C255.336 1.31266 250.76 4.81708 247.838 9.27015L259.049 16.6249ZM268.778 14.7979L261.424 26.0083C261.015 25.7404 259.739 24.7062 259.162 22.5172C258.529 20.1188 259.191 18.0212 259.936 16.8861L271.146 24.2408L282.357 31.5955C285.352 27.03 286.59 21.3657 285.091 15.6807C283.647 10.2052 280.061 6.16471 276.133 3.58743L268.778 14.7979ZM271.146 24.2408L259.936 16.8861L259.2 18.0071L270.411 25.3618L281.621 32.7166L282.357 31.5955L271.146 24.2408ZM270.411 25.3618L277.765 14.1514L269.178 8.5177L261.824 19.7281L254.469 30.9386L263.056 36.5723L270.411 25.3618ZM261.824 19.7281L250.613 12.3734C248.266 15.9515 247.091 20.8626 248.755 25.9612C250.259 30.5691 253.475 33.4614 255.995 35.1146L263.349 23.9041L270.704 12.6937C271.184 13.0083 273.21 14.4628 274.248 17.6424C275.445 21.3127 274.528 24.8052 273.034 27.0828L261.824 19.7281ZM263.349 23.9041L255.995 35.1146C258.632 36.845 267.666 41.2927 275.593 34.1579L266.624 24.1924L257.654 14.2268C260.587 11.5876 264.064 11.0334 266.517 11.2823C268.711 11.5049 270.132 12.3185 270.704 12.6937L263.349 23.9041ZM266.624 24.1924L259.269 35.4028L262.856 37.7563L270.211 26.5459L277.566 15.3355L273.979 12.9819L266.624 24.1924ZM270.211 26.5459L260.103 17.7377C261.819 15.7683 263.704 15.0926 265.051 14.9144C266.792 14.6841 268.143 15.1831 268.792 15.6084L261.437 26.8189L254.082 38.0293C263.506 44.2118 274.538 41.9889 280.32 35.354L270.211 26.5459ZM261.437 26.8189L268.792 15.6084C269.165 15.8531 270.595 17.0816 271.026 19.5224C271.417 21.7366 270.692 23.3203 270.259 23.9796L259.049 16.6249L247.838 9.27015C245.302 13.1356 243.596 18.3896 244.62 24.1858C245.683 30.2086 249.36 34.931 254.082 38.0293L261.437 26.8189ZM263.147 17.7103L255.793 28.9207L261.017 32.348L268.371 21.1376L275.726 9.92713L270.502 6.49983L263.147 17.7103ZM268.371 21.1376L279.582 28.4923C281.796 25.118 282.969 20.3387 281.287 15.3293C279.778 10.8352 276.603 8.06527 274.221 6.50214L266.866 17.7126L259.511 28.923C259.124 28.669 256.981 27.1855 255.866 23.8637C254.578 20.0265 255.506 16.3051 257.161 13.7828L268.371 21.1376ZM266.866 17.7126L274.221 6.50214C271.846 4.9442 268.007 3.10793 263.231 3.55052C257.907 4.04386 254.071 7.10259 251.937 10.3555L263.147 17.7103L274.358 25.065C272.783 27.4659 269.808 29.8712 265.705 30.2515C262.15 30.5809 259.891 29.1718 259.511 28.923L266.866 17.7126ZM265.837 32.8556L253.92 38.9984C255.549 42.1592 258.367 44.5433 261.754 45.6263C265.141 46.7093 268.819 46.4025 271.98 44.7734L265.837 32.8556ZM263.872 29.042L257.729 17.1243C254.568 18.7534 252.184 21.5715 251.101 24.9585C250.018 28.3455 250.325 32.024 251.954 35.1848L263.872 29.042ZM275.909 22.8378L287.826 16.695C284.434 10.113 276.348 7.5275 269.766 10.9201L275.909 22.8378ZM277.874 26.6514L284.017 38.5691C290.599 35.1766 293.185 27.0906 289.792 20.5086L277.874 26.6514ZM276.42 27.4008L278.479 40.6495C279.903 40.4282 281.282 39.9788 282.563 39.3186L276.42 27.4008ZM273.907 27.7915L271.848 14.5428C267.589 15.2046 263.908 17.8733 261.955 21.7151C260.002 25.5569 260.014 30.1034 261.989 33.9343L273.907 27.7915ZM274.398 28.7449L262.48 34.8877C265.359 40.4735 271.732 43.3102 277.809 41.7114L274.398 28.7449ZM270.85 42.5805L258.932 48.7233C262.325 55.3053 270.411 57.8908 276.993 54.4982L270.85 42.5805ZM268.884 38.7668L262.741 26.8491C256.16 30.2417 253.574 38.3276 256.967 44.9096L268.884 38.7668ZM274.795 35.72L280.938 47.6377L274.795 35.72ZM276.545 31.6809L288.463 25.5381C286.866 22.4399 283.516 18.1026 277.394 16.6447C271.869 15.3292 267.08 17.1315 264.152 18.6405L270.295 30.5582L276.437 42.476C276.894 42.2404 274.696 43.5672 271.182 42.7307C267.072 41.7519 265.155 38.8481 264.627 37.8236L276.545 31.6809ZM270.295 30.5582L264.152 18.6405L259.695 20.9379L265.837 32.8556L271.98 44.7734L276.437 42.476L270.295 30.5582ZM265.837 32.8556L277.755 26.7129L275.789 22.8992L263.872 29.042L251.954 35.1848L253.92 38.9984L265.837 32.8556ZM263.872 29.042L270.015 40.9597L282.051 34.7555L275.909 22.8378L269.766 10.9201L257.729 17.1243L263.872 29.042ZM275.909 22.8378L263.991 28.9806L265.957 32.7942L277.874 26.6514L289.792 20.5086L287.826 16.695L275.909 22.8378ZM277.874 26.6514L271.732 14.7337L270.278 15.4831L276.42 27.4008L282.563 39.3186L284.017 38.5691L277.874 26.6514ZM276.42 27.4008L274.362 14.1522L271.848 14.5428L273.907 27.7915L275.965 41.0401L278.479 40.6495L276.42 27.4008ZM273.907 27.7915L261.989 33.9343L262.48 34.8877L274.398 28.7449L286.316 22.6021L285.824 21.6487L273.907 27.7915ZM274.398 28.7449L277.809 41.7114C276.917 41.9461 275.245 42.1494 273.232 41.404C271 40.5773 269.446 38.9792 268.664 37.4623L280.582 31.3195L292.5 25.1767C290.391 21.0856 286.94 17.8856 282.546 16.258C278.371 14.7116 274.27 14.9147 270.987 15.7784L274.398 28.7449ZM280.582 31.3195L268.664 37.4623C268.019 36.2107 267.351 33.6322 268.505 30.7402C269.008 29.4775 269.701 28.5972 270.248 28.0585C270.777 27.5379 271.172 27.3304 271.214 27.3088L277.357 39.2265L283.5 51.1442C287.207 49.2337 291.308 45.9502 293.412 40.6745C295.645 35.0768 294.73 29.5031 292.5 25.1767L280.582 31.3195ZM277.357 39.2265L271.214 27.3088L264.707 30.6628L270.85 42.5805L276.993 54.4982L283.5 51.1442L277.357 39.2265ZM270.85 42.5805L282.768 36.4377L280.802 32.624L268.884 38.7668L256.967 44.9096L258.932 48.7233L270.85 42.5805ZM268.884 38.7668L275.027 50.6845L280.938 47.6377L274.795 35.72L268.653 23.8023L262.741 26.8491L268.884 38.7668ZM274.795 35.72L280.938 47.6377C282.543 46.8108 286.871 44.4686 289.117 39.3693C291.781 33.3223 289.725 27.9871 288.463 25.5381L276.545 31.6809L264.627 37.8236C264.311 37.2099 262.477 33.3292 264.577 28.5603C265.474 26.5249 266.723 25.2642 267.467 24.6346C267.845 24.3148 268.156 24.1032 268.341 23.9855C268.528 23.8665 268.644 23.807 268.653 23.8023L274.795 35.72ZM278.002 48.8483L271.86 36.9306C268.588 38.617 266.153 41.5743 265.127 45.1092C264.1 48.644 264.572 52.4454 266.432 55.622L278.002 48.8483ZM280.526 53.1588L286.669 65.0765C289.94 63.3901 292.375 60.4327 293.402 56.8979C294.428 53.363 293.956 49.5616 292.097 46.3851L280.526 53.1588ZM277.189 54.8788L265.515 61.4733C269.059 67.7467 276.927 70.0975 283.332 66.7965L277.189 54.8788ZM273.744 48.7806L262.057 55.3524C262.062 55.36 262.066 55.3676 262.07 55.3752L273.744 48.7806ZM281.638 42.1475L287.781 54.0652C294.363 50.6726 296.948 42.5867 293.556 36.0047L281.638 42.1475ZM280.164 39.2872L274.021 27.3695C267.439 30.7621 264.853 38.8481 268.246 45.43L280.164 39.2872ZM283.501 37.5673L295.418 31.4245C293.789 28.2637 290.971 25.8796 287.584 24.7966C284.197 23.7136 280.519 24.0204 277.358 25.6495L283.501 37.5673ZM284.975 40.4275L273.057 46.5703C274.686 49.7311 277.505 52.1152 280.892 53.1982C284.279 54.2812 287.957 53.9744 291.118 52.3452L284.975 40.4275ZM287.239 39.2604L296.782 29.8425C292.663 25.6685 286.309 24.6559 281.097 27.3427L287.239 39.2604ZM290.397 42.4598L296.54 54.3775C300.331 52.4233 302.966 48.7819 303.637 44.5699C304.309 40.3578 302.936 36.0776 299.94 33.0418L290.397 42.4598ZM286.941 44.2412L280.798 32.3235C274.216 35.716 271.63 43.802 275.023 50.384L286.941 44.2412ZM288.98 48.1978L295.123 60.1156C301.705 56.723 304.29 48.637 300.898 42.0551L288.98 48.1978ZM285.643 49.9178L273.725 56.0606C275.355 59.2214 278.173 61.6055 281.56 62.6885C284.947 63.7715 288.625 63.4647 291.786 61.8355L285.643 49.9178ZM283.604 45.9611L295.521 39.8184C293.892 36.6576 291.074 34.2735 287.687 33.1904C284.3 32.1074 280.622 32.4143 277.461 34.0434L283.604 45.9611ZM278.002 48.8483L266.432 55.622L268.955 59.9325L280.526 53.1588L292.097 46.3851L289.573 42.0745L278.002 48.8483ZM280.526 53.1588L274.383 41.2411L271.046 42.9611L277.189 54.8788L283.332 66.7965L286.669 65.0765L280.526 53.1588ZM277.189 54.8788L288.863 48.2842L285.418 42.186L273.744 48.7806L262.07 55.3752L265.515 61.4733L277.189 54.8788ZM273.744 48.7806L285.431 42.2088C286.39 43.9148 287.51 47.252 286.207 51.2099C284.955 55.0137 282.274 56.9034 280.869 57.628L274.726 45.7103L268.583 33.7926C265.866 35.1929 262.334 37.9746 260.737 42.823C259.09 47.8255 260.375 52.36 262.057 55.3524L273.744 48.7806ZM274.726 45.7103L280.869 57.628L287.781 54.0652L281.638 42.1475L275.495 30.2298L268.583 33.7926L274.726 45.7103ZM281.638 42.1475L293.556 36.0047L292.081 33.1444L280.164 39.2872L268.246 45.43L269.72 48.2903L281.638 42.1475ZM280.164 39.2872L286.307 51.2049L289.644 49.485L283.501 37.5673L277.358 25.6495L274.021 27.3695L280.164 39.2872ZM283.501 37.5673L271.583 43.71L273.057 46.5703L284.975 40.4275L296.893 34.2847L295.418 31.4245L283.501 37.5673ZM284.975 40.4275L291.118 52.3452L293.382 51.1781L287.239 39.2604L281.097 27.3427L278.832 28.5098L284.975 40.4275ZM287.239 39.2604L277.696 48.6783L280.854 51.8777L290.397 42.4598L299.94 33.0418L296.782 29.8425L287.239 39.2604ZM290.397 42.4598L284.254 30.542L280.798 32.3235L286.941 44.2412L293.083 56.1589L296.54 54.3775L290.397 42.4598ZM286.941 44.2412L275.023 50.384L277.062 54.3406L288.98 48.1978L300.898 42.0551L298.858 38.0984L286.941 44.2412ZM288.98 48.1978L282.837 36.2801L279.5 38.0001L285.643 49.9178L291.786 61.8355L295.123 60.1156L288.98 48.1978ZM285.643 49.9178L297.561 43.775L295.521 39.8184L283.604 45.9611L271.686 52.1039L273.725 56.0606L285.643 49.9178ZM283.604 45.9611L277.461 34.0434L271.86 36.9306L278.002 48.8483L284.145 60.766L289.747 57.8789L283.604 45.9611Z" fill="#003D0A" mask="url(#path-1-outside-1_483_885)"/>
</svg>
