<svg width="202" height="52" viewBox="0 0 202 52" fill="none" xmlns="http://www.w3.org/2000/svg">
<mask id="path-1-outside-1_483_879" maskUnits="userSpaceOnUse" x="-0.201172" y="-0.419373" width="202" height="52" fill="black">
<rect fill="white" x="-0.201172" y="-0.419373" width="202" height="52"/>
<path d="M13.4077 32.5806V13.6758H26.8959V17.43H17.6982V21.2377H25.5551V24.9919H17.6982V28.8265H26.8959V32.5806H13.4077ZM37.455 22.5249C35.1221 22.5249 33.5936 23.7584 33.5936 27.5662V32.5806H29.3032V19.0389H33.5936V20.6746L32.7892 23.088H33.8618C34.3981 20.6746 36.0874 18.7707 38.9835 18.7707C42.4427 18.7707 44.5343 21.0768 44.5343 25.26V32.5806H40.2438V25.9304C40.2438 23.4634 39.5198 22.5249 37.455 22.5249ZM62.2779 19.0389H63.4577V22.793H62.546C62.1438 22.793 61.6611 22.793 61.2857 23.0344C61.4466 23.2489 61.6611 23.8656 61.6611 24.5897C61.6611 27.1371 59.2745 28.746 55.5472 30.0064C58.631 29.8186 61.5002 30.6231 61.5002 33.4923C61.5002 37.4878 56.8075 37.9437 46.7518 37.9437V34.1895C55.5204 34.1895 57.1829 34.0555 57.1829 32.5806C57.1829 30.5963 52.3294 31.4812 48.173 32.1784L47.7171 29.765C50.8009 29.4432 53.5897 29.1214 56.0567 28.5315V27.4589C51.0959 29.2287 45.8669 28.5047 45.8669 24.0534C45.8669 20.4869 49.2456 18.7707 53.5092 18.7707C55.574 18.7707 57.4511 19.173 58.8723 20.2188C59.6768 19.173 61.0712 19.0389 62.2779 19.0389ZM53.7774 26.1181C56.3517 26.1181 57.3707 25.4746 57.3707 24.3215C57.3707 23.1953 56.3517 22.5249 53.7774 22.5249C51.2031 22.5249 50.1573 23.1953 50.1573 24.3215C50.1573 25.4746 51.2031 26.1181 53.7774 26.1181ZM70.0889 17.6981C68.5068 17.6981 67.5682 16.9473 67.5682 15.5529C67.5682 14.1853 68.5068 13.4077 70.0889 13.4077C71.671 13.4077 72.6631 14.1853 72.6631 15.5529C72.6631 16.9473 71.671 17.6981 70.0889 17.6981ZM64.5381 32.5806V28.8265H68.3727V22.6321L65.0744 22.793V19.0389L70.1693 18.7707C71.671 18.6903 72.5023 19.5216 72.5023 21.0232V28.8265H76.3368V32.5806H64.5381ZM86.1102 22.5249C83.7773 22.5249 82.2488 23.7584 82.2488 27.5662V32.5806H77.9583V19.0389H82.2488V20.6746L81.4443 23.088H82.5169C83.0533 20.6746 84.7426 18.7707 87.6387 18.7707C91.0979 18.7707 93.1895 21.0768 93.1895 25.26V32.5806H88.899V25.9304C88.899 23.4634 88.175 22.5249 86.1102 22.5249ZM94.7839 25.6355C94.7839 21.345 97.7068 18.7707 101.917 18.7707C106.127 18.7707 109.076 21.2646 109.076 25.3673V26.7081H98.8062C98.8062 28.2634 99.9325 29.3628 102.373 29.3628C103.874 29.3628 105.001 28.8265 105.269 27.8075H109.559C109.291 29.765 107.065 32.8488 102.373 32.8488C97.1705 32.8488 94.7839 29.47 94.7839 25.6355ZM98.8062 24.2947H105.054C105.054 23.2757 104.303 22.2567 101.917 22.2567C99.5302 22.2567 98.8062 23.2757 98.8062 24.2947ZM110.889 25.6355C110.889 21.345 113.812 18.7707 118.022 18.7707C122.232 18.7707 125.181 21.2646 125.181 25.3673V26.7081H114.911C114.911 28.2634 116.037 29.3628 118.478 29.3628C119.979 29.3628 121.105 28.8265 121.374 27.8075H125.664C125.396 29.765 123.17 32.8488 118.478 32.8488C113.275 32.8488 110.889 29.47 110.889 25.6355ZM114.911 24.2947H121.159C121.159 23.2757 120.408 22.2567 118.022 22.2567C115.635 22.2567 114.911 23.2757 114.911 24.2947ZM127.53 32.5806V21.0768C127.53 19.602 128.361 18.7975 129.836 18.8244L138.712 19.0389V22.793L131.821 22.6321V32.5806H127.53ZM145.612 17.6981C144.03 17.6981 143.091 16.9473 143.091 15.5529C143.091 14.1853 144.03 13.4077 145.612 13.4077C147.194 13.4077 148.186 14.1853 148.186 15.5529C148.186 16.9473 147.194 17.6981 145.612 17.6981ZM140.061 32.5806V28.8265H143.896V22.6321L140.597 22.793V19.0389L145.692 18.7707C147.194 18.6903 148.025 19.5216 148.025 21.0232V28.8265H151.86V32.5806H140.061ZM161.633 22.5249C159.3 22.5249 157.772 23.7584 157.772 27.5662V32.5806H153.481V19.0389H157.772V20.6746L156.967 23.088H158.04C158.576 20.6746 160.266 18.7707 163.162 18.7707C166.621 18.7707 168.712 21.0768 168.712 25.26V32.5806H164.422V25.9304C164.422 23.4634 163.698 22.5249 161.633 22.5249ZM186.456 19.0389H187.636V22.793H186.724C186.322 22.793 185.839 22.793 185.464 23.0344C185.625 23.2489 185.839 23.8656 185.839 24.5897C185.839 27.1371 183.453 28.746 179.725 30.0064C182.809 29.8186 185.678 30.6231 185.678 33.4923C185.678 37.4878 180.986 37.9437 170.93 37.9437V34.1895C179.698 34.1895 181.361 34.0555 181.361 32.5806C181.361 30.5963 176.507 31.4812 172.351 32.1784L171.895 29.765C174.979 29.4432 177.768 29.1214 180.235 28.5315V27.4589C175.274 29.2287 170.045 28.5047 170.045 24.0534C170.045 20.4869 173.424 18.7707 177.687 18.7707C179.752 18.7707 181.629 19.173 183.05 20.2188C183.855 19.173 185.249 19.0389 186.456 19.0389ZM177.955 26.1181C180.53 26.1181 181.549 25.4746 181.549 24.3215C181.549 23.1953 180.53 22.5249 177.955 22.5249C175.381 22.5249 174.335 23.1953 174.335 24.3215C174.335 25.4746 175.381 26.1181 177.955 26.1181Z"/>
</mask>
<path d="M13.4077 32.5806V13.6758H26.8959V17.43H17.6982V21.2377H25.5551V24.9919H17.6982V28.8265H26.8959V32.5806H13.4077ZM37.455 22.5249C35.1221 22.5249 33.5936 23.7584 33.5936 27.5662V32.5806H29.3032V19.0389H33.5936V20.6746L32.7892 23.088H33.8618C34.3981 20.6746 36.0874 18.7707 38.9835 18.7707C42.4427 18.7707 44.5343 21.0768 44.5343 25.26V32.5806H40.2438V25.9304C40.2438 23.4634 39.5198 22.5249 37.455 22.5249ZM62.2779 19.0389H63.4577V22.793H62.546C62.1438 22.793 61.6611 22.793 61.2857 23.0344C61.4466 23.2489 61.6611 23.8656 61.6611 24.5897C61.6611 27.1371 59.2745 28.746 55.5472 30.0064C58.631 29.8186 61.5002 30.6231 61.5002 33.4923C61.5002 37.4878 56.8075 37.9437 46.7518 37.9437V34.1895C55.5204 34.1895 57.1829 34.0555 57.1829 32.5806C57.1829 30.5963 52.3294 31.4812 48.173 32.1784L47.7171 29.765C50.8009 29.4432 53.5897 29.1214 56.0567 28.5315V27.4589C51.0959 29.2287 45.8669 28.5047 45.8669 24.0534C45.8669 20.4869 49.2456 18.7707 53.5092 18.7707C55.574 18.7707 57.4511 19.173 58.8723 20.2188C59.6768 19.173 61.0712 19.0389 62.2779 19.0389ZM53.7774 26.1181C56.3517 26.1181 57.3707 25.4746 57.3707 24.3215C57.3707 23.1953 56.3517 22.5249 53.7774 22.5249C51.2031 22.5249 50.1573 23.1953 50.1573 24.3215C50.1573 25.4746 51.2031 26.1181 53.7774 26.1181ZM70.0889 17.6981C68.5068 17.6981 67.5682 16.9473 67.5682 15.5529C67.5682 14.1853 68.5068 13.4077 70.0889 13.4077C71.671 13.4077 72.6631 14.1853 72.6631 15.5529C72.6631 16.9473 71.671 17.6981 70.0889 17.6981ZM64.5381 32.5806V28.8265H68.3727V22.6321L65.0744 22.793V19.0389L70.1693 18.7707C71.671 18.6903 72.5023 19.5216 72.5023 21.0232V28.8265H76.3368V32.5806H64.5381ZM86.1102 22.5249C83.7773 22.5249 82.2488 23.7584 82.2488 27.5662V32.5806H77.9583V19.0389H82.2488V20.6746L81.4443 23.088H82.5169C83.0533 20.6746 84.7426 18.7707 87.6387 18.7707C91.0979 18.7707 93.1895 21.0768 93.1895 25.26V32.5806H88.899V25.9304C88.899 23.4634 88.175 22.5249 86.1102 22.5249ZM94.7839 25.6355C94.7839 21.345 97.7068 18.7707 101.917 18.7707C106.127 18.7707 109.076 21.2646 109.076 25.3673V26.7081H98.8062C98.8062 28.2634 99.9325 29.3628 102.373 29.3628C103.874 29.3628 105.001 28.8265 105.269 27.8075H109.559C109.291 29.765 107.065 32.8488 102.373 32.8488C97.1705 32.8488 94.7839 29.47 94.7839 25.6355ZM98.8062 24.2947H105.054C105.054 23.2757 104.303 22.2567 101.917 22.2567C99.5302 22.2567 98.8062 23.2757 98.8062 24.2947ZM110.889 25.6355C110.889 21.345 113.812 18.7707 118.022 18.7707C122.232 18.7707 125.181 21.2646 125.181 25.3673V26.7081H114.911C114.911 28.2634 116.037 29.3628 118.478 29.3628C119.979 29.3628 121.105 28.8265 121.374 27.8075H125.664C125.396 29.765 123.17 32.8488 118.478 32.8488C113.275 32.8488 110.889 29.47 110.889 25.6355ZM114.911 24.2947H121.159C121.159 23.2757 120.408 22.2567 118.022 22.2567C115.635 22.2567 114.911 23.2757 114.911 24.2947ZM127.53 32.5806V21.0768C127.53 19.602 128.361 18.7975 129.836 18.8244L138.712 19.0389V22.793L131.821 22.6321V32.5806H127.53ZM145.612 17.6981C144.03 17.6981 143.091 16.9473 143.091 15.5529C143.091 14.1853 144.03 13.4077 145.612 13.4077C147.194 13.4077 148.186 14.1853 148.186 15.5529C148.186 16.9473 147.194 17.6981 145.612 17.6981ZM140.061 32.5806V28.8265H143.896V22.6321L140.597 22.793V19.0389L145.692 18.7707C147.194 18.6903 148.025 19.5216 148.025 21.0232V28.8265H151.86V32.5806H140.061ZM161.633 22.5249C159.3 22.5249 157.772 23.7584 157.772 27.5662V32.5806H153.481V19.0389H157.772V20.6746L156.967 23.088H158.04C158.576 20.6746 160.266 18.7707 163.162 18.7707C166.621 18.7707 168.712 21.0768 168.712 25.26V32.5806H164.422V25.9304C164.422 23.4634 163.698 22.5249 161.633 22.5249ZM186.456 19.0389H187.636V22.793H186.724C186.322 22.793 185.839 22.793 185.464 23.0344C185.625 23.2489 185.839 23.8656 185.839 24.5897C185.839 27.1371 183.453 28.746 179.725 30.0064C182.809 29.8186 185.678 30.6231 185.678 33.4923C185.678 37.4878 180.986 37.9437 170.93 37.9437V34.1895C179.698 34.1895 181.361 34.0555 181.361 32.5806C181.361 30.5963 176.507 31.4812 172.351 32.1784L171.895 29.765C174.979 29.4432 177.768 29.1214 180.235 28.5315V27.4589C175.274 29.2287 170.045 28.5047 170.045 24.0534C170.045 20.4869 173.424 18.7707 177.687 18.7707C179.752 18.7707 181.629 19.173 183.05 20.2188C183.855 19.173 185.249 19.0389 186.456 19.0389ZM177.955 26.1181C180.53 26.1181 181.549 25.4746 181.549 24.3215C181.549 23.1953 180.53 22.5249 177.955 22.5249C175.381 22.5249 174.335 23.1953 174.335 24.3215C174.335 25.4746 175.381 26.1181 177.955 26.1181Z" fill="#A1C4FF"/>
<path d="M13.4077 32.5806H8.01086e-05C8.01086e-05 39.9855 6.0029 45.9883 13.4077 45.9883V32.5806ZM13.4077 13.6758V0.268147C6.0029 0.268147 8.01086e-05 6.27096 8.01086e-05 13.6758H13.4077ZM26.8959 13.6758H40.3035C40.3035 6.27096 34.3007 0.268147 26.8959 0.268147V13.6758ZM26.8959 17.43V30.8376C34.3007 30.8376 40.3035 24.8348 40.3035 17.43H26.8959ZM17.6982 17.43V4.02229C10.2934 4.02229 4.29053 10.0251 4.29053 17.43H17.6982ZM17.6982 21.2377H4.29053C4.29053 28.6426 10.2934 34.6454 17.6982 34.6454V21.2377ZM25.5551 21.2377H38.9628C38.9628 13.8329 32.9599 7.83007 25.5551 7.83007V21.2377ZM25.5551 24.9919V38.3996C32.9599 38.3996 38.9628 32.3967 38.9628 24.9919H25.5551ZM17.6982 24.9919V11.5842C10.2934 11.5842 4.29053 17.587 4.29053 24.9919H17.6982ZM17.6982 28.8265H4.29053C4.29053 36.2313 10.2934 42.2341 17.6982 42.2341V28.8265ZM26.8959 28.8265H40.3035C40.3035 21.4216 34.3007 15.4188 26.8959 15.4188V28.8265ZM26.8959 32.5806V45.9883C34.3007 45.9883 40.3035 39.9855 40.3035 32.5806H26.8959ZM13.4077 32.5806H26.8154V13.6758H13.4077H8.01086e-05V32.5806H13.4077ZM13.4077 13.6758V27.0835H26.8959V13.6758V0.268147H13.4077V13.6758ZM26.8959 13.6758H13.4882V17.43H26.8959H40.3035V13.6758H26.8959ZM26.8959 17.43V4.02229H17.6982V17.43V30.8376H26.8959V17.43ZM17.6982 17.43H4.29053V21.2377H17.6982H31.1059V17.43H17.6982ZM17.6982 21.2377V34.6454H25.5551V21.2377V7.83007H17.6982V21.2377ZM25.5551 21.2377H12.1474V24.9919H25.5551H38.9628V21.2377H25.5551ZM25.5551 24.9919V11.5842H17.6982V24.9919V38.3996H25.5551V24.9919ZM17.6982 24.9919H4.29053V28.8265H17.6982H31.1059V24.9919H17.6982ZM17.6982 28.8265V42.2341H26.8959V28.8265V15.4188H17.6982V28.8265ZM26.8959 28.8265H13.4882V32.5806H26.8959H40.3035V28.8265H26.8959ZM26.8959 32.5806V19.173H13.4077V32.5806V45.9883H26.8959V32.5806ZM33.5936 32.5806V45.9883C40.9985 45.9883 47.0013 39.9855 47.0013 32.5806H33.5936ZM29.3032 32.5806H15.8955C15.8955 39.9855 21.8983 45.9883 29.3032 45.9883V32.5806ZM29.3032 19.0389V5.63121C21.8983 5.63121 15.8955 11.634 15.8955 19.0389H29.3032ZM33.5936 19.0389H47.0013C47.0013 11.634 40.9985 5.63121 33.5936 5.63121V19.0389ZM33.5936 20.6746L46.3133 24.9145C46.769 23.5474 47.0013 22.1157 47.0013 20.6746H33.5936ZM32.7892 23.088L20.0695 18.8481C18.7066 22.9368 19.3923 27.4313 21.9123 30.9276C24.4323 34.4239 28.4794 36.4957 32.7892 36.4957V23.088ZM33.8618 23.088V36.4957C40.1459 36.4957 45.5869 32.131 46.9502 25.9965L33.8618 23.088ZM44.5343 32.5806V45.9883C51.9391 45.9883 57.9419 39.9855 57.9419 32.5806H44.5343ZM40.2438 32.5806H26.8362C26.8362 39.9855 32.839 45.9883 40.2438 45.9883V32.5806ZM37.455 22.5249V9.11721C33.9696 9.11721 28.5797 10.1071 24.4788 14.8813C20.7782 19.1894 20.186 24.2725 20.186 27.5662H33.5936H47.0013C47.0013 27.052 47.1732 29.6145 44.8201 32.3539C42.0667 35.5594 38.6075 35.9325 37.455 35.9325V22.5249ZM33.5936 27.5662H20.186V32.5806H33.5936H47.0013V27.5662H33.5936ZM33.5936 32.5806V19.173H29.3032V32.5806V45.9883H33.5936V32.5806ZM29.3032 32.5806H42.7108V19.0389H29.3032H15.8955V32.5806H29.3032ZM29.3032 19.0389V32.4466H33.5936V19.0389V5.63121H29.3032V19.0389ZM33.5936 19.0389H20.186V20.6746H33.5936H47.0013V19.0389H33.5936ZM33.5936 20.6746L20.874 16.4347L20.0695 18.8481L32.7892 23.088L45.5088 27.3279L46.3133 24.9145L33.5936 20.6746ZM32.7892 23.088V36.4957H33.8618V23.088V9.68033H32.7892V23.088ZM33.8618 23.088L46.9502 25.9965C46.75 26.8973 46.1647 28.4766 44.58 29.924C42.8227 31.5291 40.69 32.1784 38.9835 32.1784V18.7707V5.36306C34.3809 5.36306 29.9556 6.96428 26.4955 10.1247C23.208 13.1274 21.5099 16.8653 20.7734 20.1795L33.8618 23.088ZM38.9835 18.7707V32.1784C37.5754 32.1784 34.9774 31.5909 32.9353 29.2407C32.0436 28.2145 31.5784 27.1956 31.3504 26.4622C31.13 25.7534 31.1266 25.3072 31.1266 25.26H44.5343H57.9419C57.9419 21.0899 56.9023 15.9402 53.1769 11.6527C49.2242 7.10358 43.8508 5.36306 38.9835 5.36306V18.7707ZM44.5343 25.26H31.1266V32.5806H44.5343H57.9419V25.26H44.5343ZM44.5343 32.5806V19.173H40.2438V32.5806V45.9883H44.5343V32.5806ZM40.2438 32.5806H53.6515V25.9304H40.2438H26.8362V32.5806H40.2438ZM40.2438 25.9304H53.6515C53.6515 24.1255 53.5529 19.2047 50.0493 14.872C45.8945 9.73402 40.2102 9.11721 37.455 9.11721V22.5249V35.9325C36.7646 35.9325 32.4748 35.785 29.1982 31.733C27.7997 30.0036 27.2513 28.3157 27.0326 27.3659C26.9215 26.8834 26.8761 26.5097 26.8562 26.2913C26.8361 26.0706 26.8362 25.9407 26.8362 25.9304H40.2438ZM63.4577 19.0389H76.8654C76.8654 11.634 70.8626 5.63121 63.4577 5.63121V19.0389ZM63.4577 22.793V36.2007C70.8626 36.2007 76.8654 30.1979 76.8654 22.793H63.4577ZM61.2857 23.0344L54.0354 11.7561C50.9029 13.7698 48.7491 16.9956 48.0898 20.6607C47.4305 24.3258 48.3252 28.0999 50.5596 31.079L61.2857 23.0344ZM55.5472 30.0064L51.2525 17.3051C44.8871 19.4575 41.0979 25.9894 42.3896 32.5836C43.6812 39.1779 49.6547 43.7975 56.3618 43.3893L55.5472 30.0064ZM46.7518 37.9437H33.3441C33.3441 45.3485 39.3469 51.3514 46.7518 51.3514V37.9437ZM46.7518 34.1895V20.7819C39.3469 20.7819 33.3441 26.7847 33.3441 34.1895H46.7518ZM48.173 32.1784L34.9983 34.667C36.3528 41.8379 43.1938 46.6086 50.391 45.4013L48.173 32.1784ZM47.7171 29.765L46.3256 16.4298C42.5974 16.8188 39.2022 18.7508 36.9634 21.7573C34.7247 24.7638 33.8467 28.5702 34.5424 32.2536L47.7171 29.765ZM56.0567 28.5315L59.175 41.5715C65.2085 40.1287 69.4644 34.7352 69.4644 28.5315H56.0567ZM56.0567 27.4589H69.4644C69.4644 23.0996 67.345 19.0124 63.782 16.5006C60.2191 13.9888 55.6574 13.366 51.5515 14.8308L56.0567 27.4589ZM58.8723 20.2188L50.9259 31.0178C56.8003 35.3405 65.0526 34.1746 69.4996 28.3936L58.8723 20.2188ZM62.2779 19.0389V32.4466H63.4577V19.0389V5.63121H62.2779V19.0389ZM63.4577 19.0389H50.0501V22.793H63.4577H76.8654V19.0389H63.4577ZM63.4577 22.793V9.38536H62.546V22.793V36.2007H63.4577V22.793ZM62.546 22.793V9.38536C62.4835 9.38536 61.3467 9.36503 60.0669 9.54223C58.7113 9.72993 56.4195 10.2235 54.0354 11.7561L61.2857 23.0344L68.536 34.3126C66.5273 35.6039 64.6646 35.9768 63.7447 36.1042C62.9007 36.221 62.2063 36.2007 62.546 36.2007V22.793ZM61.2857 23.0344L50.5596 31.079C49.7326 29.9763 49.2877 29.0102 49.0967 28.5664C48.8603 28.0172 48.7026 27.5322 48.5948 27.1352C48.3831 26.3559 48.2534 25.5089 48.2534 24.5897H61.6611H75.0688C75.0688 22.9464 74.8318 21.429 74.4726 20.1067C74.2117 19.1458 73.5675 17.064 72.0118 14.9897L61.2857 23.0344ZM61.6611 24.5897H48.2534C48.2534 23.0271 48.6454 21.4385 49.3994 20.0245C50.1117 18.6887 50.9551 17.8635 51.4603 17.446C52.2753 16.7723 52.5729 16.8587 51.2525 17.3051L55.5472 30.0064L59.8419 42.7076C62.2488 41.8937 65.6034 40.5454 68.5435 38.1154C71.8885 35.3508 75.0688 30.7942 75.0688 24.5897H61.6611ZM55.5472 30.0064L56.3618 43.3893C56.9047 43.3562 55.7111 43.5819 53.8163 42.6604C52.6891 42.1122 51.1115 41.0443 49.8463 39.1458C48.534 37.1763 48.0925 35.1126 48.0925 33.4923H61.5002H74.9079C74.9079 30.4375 74.1078 27.1972 72.1611 24.2758C70.2616 21.4253 67.774 19.6301 65.5439 18.5456C61.4435 16.5515 57.2735 16.4688 54.7326 16.6235L55.5472 30.0064ZM61.5002 33.4923H48.0925C48.0925 32.6782 48.2136 31.4877 48.7238 30.1261C49.2513 28.7183 50.0699 27.4651 51.0699 26.4525C52.0275 25.4828 52.9625 24.9226 53.5757 24.6215C54.1719 24.3287 54.572 24.2274 54.6155 24.2164C54.6188 24.2156 54.0731 24.3369 52.5392 24.4239C51.0821 24.5065 49.2168 24.536 46.7518 24.536V37.9437V51.3514C51.3558 51.3514 56.8217 51.3159 61.1783 50.2163C63.5057 49.6288 67.1038 48.3789 70.1498 45.2944C73.6305 41.7698 74.9079 37.3956 74.9079 33.4923H61.5002ZM46.7518 37.9437H60.1595V34.1895H46.7518H33.3441V37.9437H46.7518ZM46.7518 34.1895V47.5972C50.6894 47.5972 54.4695 47.5977 57.1682 47.2087C58.3142 47.0435 61.6889 46.5401 64.8381 44.1748C69.3379 40.7951 70.5906 35.9992 70.5906 32.5806H57.1829H43.7753C43.7753 31.5458 43.9154 29.7706 44.787 27.7541C45.717 25.6021 47.1584 23.9172 48.7342 22.7336C50.1652 21.6588 51.4724 21.1699 52.137 20.9588C52.8202 20.7419 53.2864 20.6758 53.343 20.6676C53.4036 20.6589 53.0248 20.7093 51.7372 20.7423C50.5392 20.773 48.9467 20.7819 46.7518 20.7819V34.1895ZM57.1829 32.5806H70.5906C70.5906 29.3482 69.5064 25.9938 67.1473 23.2408C65.0044 20.7401 62.5003 19.537 60.8582 18.9521C57.8544 17.8823 55.01 17.9312 53.7701 17.9744C50.9332 18.0732 47.6103 18.6778 45.955 18.9555L48.173 32.1784L50.391 45.4013C52.8921 44.9818 54.0742 44.7954 54.7031 44.7735C55.1962 44.7563 53.8249 44.9125 51.8611 44.2131C50.7389 43.8134 48.6465 42.8613 46.7853 40.6893C44.7078 38.2649 43.7753 35.317 43.7753 32.5806H57.1829ZM48.173 32.1784L61.3477 29.6898L60.8918 27.2765L47.7171 29.765L34.5424 32.2536L34.9983 34.667L48.173 32.1784ZM47.7171 29.765L49.1086 43.1003C52.1042 42.7877 55.732 42.3949 59.175 41.5715L56.0567 28.5315L52.9384 15.4915C51.4474 15.848 49.4976 16.0988 46.3256 16.4298L47.7171 29.765ZM56.0567 28.5315H69.4644V27.4589H56.0567H42.649V28.5315H56.0567ZM56.0567 27.4589L51.5515 14.8308C50.6198 15.1632 50.9908 14.7149 52.5701 15.1378C53.5214 15.3926 55.3485 16.1176 56.9662 18.0158C58.7127 20.0652 59.2745 22.3812 59.2745 24.0534H45.8669H32.4592C32.4592 27.9511 33.6747 32.0269 36.5567 35.4087C39.3098 38.6393 42.7542 40.2693 45.6328 41.0403C51.0668 42.4956 56.5328 41.5244 60.5619 40.087L56.0567 27.4589ZM45.8669 24.0534H59.2745C59.2745 25.3601 58.9413 26.9265 58.0658 28.4393C57.2146 29.9101 56.1305 30.8508 55.2767 31.393C53.7777 32.3449 52.896 32.1784 53.5092 32.1784V18.7707V5.36306C49.8588 5.36306 45.1559 6.05467 40.9016 8.75629C36.0394 11.844 32.4592 17.239 32.4592 24.0534H45.8669ZM53.5092 18.7707V32.1784C53.7066 32.1784 53.5371 32.2013 53.1124 32.0928C52.6644 31.9783 51.8427 31.6925 50.9259 31.0178L58.8723 20.2188L66.8188 9.41971C62.1837 6.00902 57.0452 5.36306 53.5092 5.36306V18.7707ZM58.8723 20.2188L69.4996 28.3936C67.6369 30.815 65.3063 31.8012 63.9643 32.1685C62.8005 32.4871 62.0068 32.4466 62.2779 32.4466V19.0389V5.63121C61.4097 5.63121 53.4406 5.28973 48.2451 12.044L58.8723 20.2188ZM53.7774 26.1181V39.5258C55.6921 39.5258 59.2801 39.3707 62.8095 37.5034C64.8126 36.4436 67.0002 34.7213 68.6165 32.0723C70.2429 29.4067 70.7783 26.6429 70.7783 24.3215H57.3707H43.963C43.963 22.5767 44.371 20.3256 45.7259 18.1051C47.0708 15.901 48.8427 14.5558 50.2693 13.801C52.6456 12.5437 54.437 12.7105 53.7774 12.7105V26.1181ZM57.3707 24.3215H70.7783C70.7783 21.9507 70.2174 19.1909 68.5989 16.5532C66.9969 13.9426 64.8407 12.2359 62.8631 11.1782C59.3455 9.29663 55.7654 9.11721 53.7774 9.11721V22.5249V35.9325C54.3637 35.9325 52.5802 36.0883 50.2156 34.8235C48.8146 34.0741 47.074 32.7463 45.7436 30.5781C44.3965 28.3829 43.963 26.1292 43.963 24.3215H57.3707ZM53.7774 22.5249V9.11721C51.7776 9.11721 48.2284 9.30093 44.735 11.148C42.7791 12.1821 40.6148 13.862 38.9913 16.4596C37.3424 19.0977 36.7497 21.8871 36.7497 24.3215H50.1573H63.565C63.565 26.1927 63.1029 28.476 61.7306 30.6717C60.3837 32.8268 58.6417 34.1279 57.269 34.8537C54.9421 36.084 53.203 35.9325 53.7774 35.9325V22.5249ZM50.1573 24.3215H36.7497C36.7497 26.7054 37.3158 29.4988 38.9732 32.1658C40.6115 34.8019 42.8075 36.4972 44.7884 37.5332C48.2936 39.3663 51.8504 39.5258 53.7774 39.5258V26.1181V12.7105C53.1302 12.7105 54.8769 12.5482 57.2156 13.7713C58.6133 14.5022 60.3869 15.8204 61.7487 18.0116C63.1296 20.2336 63.565 22.5142 63.565 24.3215H50.1573ZM64.5381 32.5806H51.1304C51.1304 39.9855 57.1332 45.9883 64.5381 45.9883V32.5806ZM64.5381 28.8265V15.4188C57.1332 15.4188 51.1304 21.4216 51.1304 28.8265H64.5381ZM68.3727 28.8265V42.2341C75.7775 42.2341 81.7804 36.2313 81.7804 28.8265H68.3727ZM68.3727 22.6321H81.7804C81.7804 18.9628 80.2765 15.4539 77.6195 12.9233C74.9625 10.3927 71.3844 9.06161 67.7194 9.24039L68.3727 22.6321ZM65.0744 22.793H51.6667C51.6667 26.4623 53.1706 29.9713 55.8276 32.5019C58.4846 35.0325 62.0627 36.3636 65.7277 36.1848L65.0744 22.793ZM65.0744 19.0389L64.3697 5.64975C57.2486 6.02455 51.6667 11.9079 51.6667 19.0389H65.0744ZM70.1693 18.7707L70.874 32.1599L70.8865 32.1592L70.1693 18.7707ZM72.5023 28.8265H59.0946C59.0946 36.2313 65.0974 42.2341 72.5023 42.2341V28.8265ZM76.3368 28.8265H89.7445C89.7445 21.4216 83.7417 15.4188 76.3368 15.4188V28.8265ZM76.3368 32.5806V45.9883C83.7417 45.9883 89.7445 39.9855 89.7445 32.5806H76.3368ZM70.0889 17.6981V4.29045C71.2123 4.29045 74.0604 4.53906 76.8421 6.86797C79.9865 9.50047 80.9759 13.0351 80.9759 15.5529H67.5682H54.1606C54.1606 19.4651 55.6192 24.0723 59.6284 27.4288C63.2749 30.4818 67.3834 31.1058 70.0889 31.1058V17.6981ZM67.5682 15.5529H80.9759C80.9759 18.1475 79.9473 21.6243 76.8887 24.2087C74.1499 26.5228 71.3191 26.8153 70.0889 26.8153V13.4077V-7.62939e-06C67.2765 -7.62939e-06 63.1854 0.681301 59.5818 3.72618C55.6585 7.04125 54.1606 11.5907 54.1606 15.5529H67.5682ZM70.0889 13.4077V26.8153C68.8595 26.8153 66.1406 26.5257 63.4706 24.3374C60.4463 21.8589 59.2555 18.3929 59.2555 15.5529H72.6631H86.0708C86.0708 11.3453 84.3839 6.80667 80.468 3.59742C76.9064 0.678473 72.9003 -7.62939e-06 70.0889 -7.62939e-06V13.4077ZM72.6631 15.5529H59.2555C59.2555 12.7892 60.4053 9.26729 63.5175 6.74013C66.2297 4.53769 68.9642 4.29045 70.0889 4.29045V17.6981V31.1058C72.7957 31.1058 76.8173 30.4831 80.4211 27.5567C84.4249 24.3055 86.0708 19.7109 86.0708 15.5529H72.6631ZM64.5381 32.5806H77.9458V28.8265H64.5381H51.1304V32.5806H64.5381ZM64.5381 28.8265V42.2341H68.3727V28.8265V15.4188H64.5381V28.8265ZM68.3727 28.8265H81.7804V22.6321H68.3727H54.965V28.8265H68.3727ZM68.3727 22.6321L67.7194 9.24039L64.4211 9.40129L65.0744 22.793L65.7277 36.1848L69.0259 36.0239L68.3727 22.6321ZM65.0744 22.793H78.4821V19.0389H65.0744H51.6667V22.793H65.0744ZM65.0744 19.0389L65.7791 32.428L70.874 32.1599L70.1693 18.7707L69.4646 5.38159L64.3697 5.64975L65.0744 19.0389ZM70.1693 18.7707L70.8865 32.1592C69.0899 32.2554 65.5775 31.8649 62.5411 28.9056C59.5679 26.008 59.0946 22.632 59.0946 21.0232H72.5023H85.9099C85.9099 17.9128 85.021 13.3703 81.2567 9.70176C77.4292 5.97156 72.7504 5.20556 69.4521 5.38226L70.1693 18.7707ZM72.5023 21.0232H59.0946V28.8265H72.5023H85.9099V21.0232H72.5023ZM72.5023 28.8265V42.2341H76.3368V28.8265V15.4188H72.5023V28.8265ZM76.3368 28.8265H62.9292V32.5806H76.3368H89.7445V28.8265H76.3368ZM76.3368 32.5806V19.173H64.5381V32.5806V45.9883H76.3368V32.5806ZM82.2488 32.5806V45.9883C89.6536 45.9883 95.6565 39.9855 95.6565 32.5806H82.2488ZM77.9583 32.5806H64.5507C64.5507 39.9855 70.5535 45.9883 77.9583 45.9883V32.5806ZM77.9583 19.0389V5.63121C70.5535 5.63121 64.5507 11.634 64.5507 19.0389H77.9583ZM82.2488 19.0389H95.6565C95.6565 11.634 89.6536 5.63121 82.2488 5.63121V19.0389ZM82.2488 20.6746L94.9684 24.9145C95.4241 23.5474 95.6565 22.1157 95.6565 20.6746H82.2488ZM81.4443 23.088L68.7247 18.8481C67.3618 22.9368 68.0475 27.4313 70.5675 30.9276C73.0875 34.4239 77.1345 36.4957 81.4443 36.4957V23.088ZM82.5169 23.088V36.4957C88.8011 36.4957 94.2421 32.131 95.6053 25.9965L82.5169 23.088ZM93.1895 32.5806V45.9883C100.594 45.9883 106.597 39.9855 106.597 32.5806H93.1895ZM88.899 32.5806H75.4913C75.4913 39.9855 81.4941 45.9883 88.899 45.9883V32.5806ZM86.1102 22.5249V9.11721C82.6248 9.11721 77.2348 10.1071 73.134 14.8813C69.4334 19.1894 68.8411 24.2725 68.8411 27.5662H82.2488H95.6565C95.6565 27.052 95.8284 29.6145 93.4753 32.3539C90.7219 35.5594 87.2627 35.9325 86.1102 35.9325V22.5249ZM82.2488 27.5662H68.8411V32.5806H82.2488H95.6565V27.5662H82.2488ZM82.2488 32.5806V19.173H77.9583V32.5806V45.9883H82.2488V32.5806ZM77.9583 32.5806H91.366V19.0389H77.9583H64.5507V32.5806H77.9583ZM77.9583 19.0389V32.4466H82.2488V19.0389V5.63121H77.9583V19.0389ZM82.2488 19.0389H68.8411V20.6746H82.2488H95.6565V19.0389H82.2488ZM82.2488 20.6746L69.5292 16.4347L68.7247 18.8481L81.4443 23.088L94.164 27.3279L94.9684 24.9145L82.2488 20.6746ZM81.4443 23.088V36.4957H82.5169V23.088V9.68033H81.4443V23.088ZM82.5169 23.088L95.6053 25.9965C95.4052 26.8973 94.8198 28.4766 93.2351 29.924C91.4778 31.5291 89.3452 32.1784 87.6387 32.1784V18.7707V5.36306C83.0361 5.36306 78.6108 6.96428 75.1507 10.1247C71.8632 13.1274 70.165 16.8653 69.4286 20.1795L82.5169 23.088ZM87.6387 18.7707V32.1784C86.2306 32.1784 83.6326 31.5909 81.5904 29.2407C80.6988 28.2145 80.2336 27.1956 80.0056 26.4622C79.7852 25.7534 79.7818 25.3072 79.7818 25.26H93.1895H106.597C106.597 21.0899 105.557 15.9402 101.832 11.6527C97.8793 7.10358 92.5059 5.36306 87.6387 5.36306V18.7707ZM93.1895 25.26H79.7818V32.5806H93.1895H106.597V25.26H93.1895ZM93.1895 32.5806V19.173H88.899V32.5806V45.9883H93.1895V32.5806ZM88.899 32.5806H102.307V25.9304H88.899H75.4913V32.5806H88.899ZM88.899 25.9304H102.307C102.307 24.1255 102.208 19.2047 98.7044 14.872C94.5496 9.73402 88.8654 9.11721 86.1102 9.11721V22.5249V35.9325C85.4198 35.9325 81.1299 35.785 77.8534 31.733C76.4548 30.0036 75.9065 28.3157 75.6878 27.3659C75.5767 26.8834 75.5313 26.5097 75.5114 26.2913C75.4913 26.0706 75.4913 25.9407 75.4913 25.9304H88.899ZM109.076 26.7081V40.1157C116.481 40.1157 122.484 34.1129 122.484 26.7081H109.076ZM98.8062 26.7081V13.3004C91.4014 13.3004 85.3986 19.3032 85.3986 26.7081H98.8062ZM105.269 27.8075V14.3998C99.178 14.3998 93.8525 18.5052 92.3025 24.3953L105.269 27.8075ZM109.559 27.8075L122.843 29.6272C123.368 25.7897 122.209 21.9124 119.663 18.9936C117.117 16.0749 113.432 14.3998 109.559 14.3998V27.8075ZM98.8062 24.2947H85.3986C85.3986 31.6995 91.4014 37.7024 98.8062 37.7024V24.2947ZM105.054 24.2947V37.7024C112.459 37.7024 118.462 31.6995 118.462 24.2947H105.054ZM94.7839 25.6355H108.192C108.192 26.6709 107.749 28.6787 105.948 30.3699C104.253 31.9611 102.522 32.1784 101.917 32.1784V18.7707V5.36306C97.1012 5.36306 91.8046 6.86751 87.5955 10.8185C83.2798 14.8694 81.3763 20.3096 81.3763 25.6355H94.7839ZM101.917 18.7707V32.1784C101.428 32.1784 99.7938 32.0139 98.1105 30.5003C96.2661 28.8418 95.6688 26.7249 95.6688 25.3673H109.076H122.484C122.484 19.9069 120.412 14.4918 116.04 10.5607C111.83 6.77448 106.615 5.36306 101.917 5.36306V18.7707ZM109.076 25.3673H95.6688V26.7081H109.076H122.484V25.3673H109.076ZM109.076 26.7081V13.3004H98.8062V26.7081V40.1157H109.076V26.7081ZM98.8062 26.7081H85.3986C85.3986 30.9874 87.1107 35.7379 91.2987 39.0883C95.0835 42.1162 99.3589 42.7705 102.373 42.7705V29.3628V15.9551C102.946 15.9551 105.438 16.0597 108.05 18.149C111.065 20.5609 112.214 23.984 112.214 26.7081H98.8062ZM102.373 29.3628V42.7705C105.527 42.7705 115.521 41.5336 118.235 31.2197L105.269 27.8075L92.3025 24.3953C93.3065 20.5802 95.9099 18.2094 98.0976 17.0718C100.055 16.0541 101.689 15.9551 102.373 15.9551V29.3628ZM105.269 27.8075V41.2152H109.559V27.8075V14.3998H105.269V27.8075ZM109.559 27.8075L96.2756 25.9878C96.6301 23.3998 97.8354 21.8009 98.8639 20.913C100.193 19.7654 101.597 19.4411 102.373 19.4411V32.8488V46.2564C113.643 46.2564 121.648 38.3461 122.843 29.6272L109.559 27.8075ZM102.373 32.8488V19.4411C102.819 19.4411 104.689 19.6835 106.388 21.4879C107.93 23.1247 108.192 24.8469 108.192 25.6355H94.7839H81.3763C81.3763 30.2586 82.8316 35.5875 86.8669 39.8723C91.06 44.3247 96.7245 46.2564 102.373 46.2564V32.8488ZM98.8062 24.2947V37.7024H105.054V24.2947V10.887H98.8062V24.2947ZM105.054 24.2947H118.462C118.462 20.2591 116.821 15.6194 112.667 12.3534C108.94 9.42344 104.766 8.84905 101.917 8.84905V22.2567V35.6644C101.454 35.6644 98.8484 35.5995 96.0937 33.4338C92.9117 30.932 91.6465 27.3113 91.6465 24.2947H105.054ZM101.917 22.2567V8.84905C99.0767 8.84905 94.8592 9.41978 91.1087 12.4097C86.9283 15.7423 85.3986 20.4042 85.3986 24.2947H98.8062H112.214C112.214 27.1662 111.046 30.8091 107.824 33.3775C105.033 35.6032 102.37 35.6644 101.917 35.6644V22.2567ZM125.181 26.7081V40.1157C132.586 40.1157 138.589 34.1129 138.589 26.7081H125.181ZM114.911 26.7081V13.3004C107.506 13.3004 101.503 19.3032 101.503 26.7081H114.911ZM121.374 27.8075V14.3998C115.283 14.3998 109.957 18.5052 108.407 24.3953L121.374 27.8075ZM125.664 27.8075L138.948 29.6272C139.473 25.7897 138.314 21.9124 135.768 18.9936C133.221 16.0749 129.537 14.3998 125.664 14.3998V27.8075ZM114.911 24.2947H101.503C101.503 31.6995 107.506 37.7024 114.911 37.7024V24.2947ZM121.159 24.2947V37.7024C128.564 37.7024 134.567 31.6995 134.567 24.2947H121.159ZM110.889 25.6355H124.296C124.296 26.6709 123.854 28.6787 122.053 30.3699C120.357 31.9611 118.627 32.1784 118.022 32.1784V18.7707V5.36306C113.206 5.36306 107.91 6.86751 103.7 10.8185C99.3848 14.8694 97.4812 20.3096 97.4812 25.6355H110.889ZM118.022 18.7707V32.1784C117.533 32.1784 115.899 32.0139 114.215 30.5003C112.371 28.8418 111.774 26.7249 111.774 25.3673H125.181H138.589C138.589 19.9069 136.517 14.4918 132.145 10.5607C127.935 6.77448 122.72 5.36306 118.022 5.36306V18.7707ZM125.181 25.3673H111.774V26.7081H125.181H138.589V25.3673H125.181ZM125.181 26.7081V13.3004H114.911V26.7081V40.1157H125.181V26.7081ZM114.911 26.7081H101.503C101.503 30.9874 103.216 35.7379 107.404 39.0883C111.188 42.1162 115.464 42.7705 118.478 42.7705V29.3628V15.9551C119.051 15.9551 121.543 16.0597 124.155 18.149C127.17 20.5609 128.319 23.984 128.319 26.7081H114.911ZM118.478 29.3628V42.7705C121.632 42.7705 131.626 41.5336 134.34 31.2197L121.374 27.8075L108.407 24.3953C109.411 20.5802 112.015 18.2094 114.202 17.0718C116.159 16.0541 117.793 15.9551 118.478 15.9551V29.3628ZM121.374 27.8075V41.2152H125.664V27.8075V14.3998H121.374V27.8075ZM125.664 27.8075L112.38 25.9878C112.735 23.3998 113.94 21.8009 114.969 20.913C116.298 19.7654 117.702 19.4411 118.478 19.4411V32.8488V46.2564C129.748 46.2564 137.753 38.3461 138.948 29.6272L125.664 27.8075ZM118.478 32.8488V19.4411C118.924 19.4411 120.794 19.6835 122.493 21.4879C124.034 23.1247 124.296 24.8469 124.296 25.6355H110.889H97.4812C97.4812 30.2586 98.9365 35.5875 102.972 39.8723C107.165 44.3247 112.829 46.2564 118.478 46.2564V32.8488ZM114.911 24.2947V37.7024H121.159V24.2947V10.887H114.911V24.2947ZM121.159 24.2947H134.567C134.567 20.2591 132.926 15.6194 128.772 12.3534C125.045 9.42344 120.871 8.84905 118.022 8.84905V22.2567V35.6644C117.559 35.6644 114.953 35.5995 112.199 33.4338C109.017 30.932 107.751 27.3113 107.751 24.2947H121.159ZM118.022 22.2567V8.84905C115.182 8.84905 110.964 9.41978 107.214 12.4097C103.033 15.7423 101.503 20.4042 101.503 24.2947H114.911H128.319C128.319 27.1662 127.151 30.8091 123.929 33.3775C121.137 35.6032 118.475 35.6644 118.022 35.6644V22.2567ZM127.53 32.5806H114.122C114.122 39.9855 120.125 45.9883 127.53 45.9883V32.5806ZM129.836 18.8244L130.16 5.42061C130.133 5.41996 130.107 5.41939 130.08 5.41891L129.836 18.8244ZM138.712 19.0389H152.12C152.12 11.7602 146.313 5.811 139.036 5.63513L138.712 19.0389ZM138.712 22.793L138.399 36.197C142.008 36.2813 145.499 34.9065 148.081 32.3837C150.664 29.8609 152.12 26.4032 152.12 22.793H138.712ZM131.821 22.6321L132.133 9.22812C128.524 9.14386 125.034 10.5187 122.451 13.0415C119.869 15.5643 118.413 19.0219 118.413 22.6321H131.821ZM131.821 32.5806V45.9883C139.225 45.9883 145.228 39.9855 145.228 32.5806H131.821ZM127.53 32.5806H140.938V21.0768H127.53H114.122V32.5806H127.53ZM127.53 21.0768H140.938C140.938 22.8022 140.408 26.1438 137.487 28.9905C134.582 31.8206 131.263 32.2602 129.592 32.2298L129.836 18.8244L130.08 5.41891C126.935 5.36172 122.462 6.19013 118.773 9.78451C115.067 13.3954 114.122 17.8766 114.122 21.0768H127.53ZM129.836 18.8244L129.512 32.2281L138.388 32.4426L138.712 19.0389L139.036 5.63513L130.16 5.42061L129.836 18.8244ZM138.712 19.0389H125.304V22.793H138.712H152.12V19.0389H138.712ZM138.712 22.793L139.025 9.38901L132.133 9.22812L131.821 22.6321L131.508 36.0362L138.399 36.197L138.712 22.793ZM131.821 22.6321H118.413V32.5806H131.821H145.228V22.6321H131.821ZM131.821 32.5806V19.173H127.53V32.5806V45.9883H131.821V32.5806ZM140.061 32.5806H126.653C126.653 39.9855 132.656 45.9883 140.061 45.9883V32.5806ZM140.061 28.8265V15.4188C132.656 15.4188 126.653 21.4216 126.653 28.8265H140.061ZM143.896 28.8265V42.2341C151.3 42.2341 157.303 36.2313 157.303 28.8265H143.896ZM143.896 22.6321H157.303C157.303 18.9628 155.799 15.4539 153.142 12.9233C150.485 10.3927 146.907 9.06161 143.242 9.24039L143.896 22.6321ZM140.597 22.793H127.19C127.19 26.4623 128.693 29.9713 131.35 32.5019C134.008 35.0325 137.586 36.3636 141.251 36.1848L140.597 22.793ZM140.597 19.0389L139.893 5.64975C132.771 6.02455 127.19 11.9079 127.19 19.0389H140.597ZM145.692 18.7707L146.397 32.1599L146.409 32.1592L145.692 18.7707ZM148.025 28.8265H134.617C134.617 36.2313 140.62 42.2341 148.025 42.2341V28.8265ZM151.86 28.8265H165.267C165.267 21.4216 159.265 15.4188 151.86 15.4188V28.8265ZM151.86 32.5806V45.9883C159.265 45.9883 165.267 39.9855 165.267 32.5806H151.86ZM145.612 17.6981V4.29045C146.735 4.29045 149.583 4.53906 152.365 6.86797C155.509 9.50047 156.499 13.0351 156.499 15.5529H143.091H129.683C129.683 19.4651 131.142 24.0723 135.151 27.4288C138.798 30.4818 142.906 31.1058 145.612 31.1058V17.6981ZM143.091 15.5529H156.499C156.499 18.1475 155.47 21.6243 152.412 24.2087C149.673 26.5228 146.842 26.8153 145.612 26.8153V13.4077V-7.62939e-06C142.799 -7.62939e-06 138.708 0.681301 135.105 3.72618C131.181 7.04125 129.683 11.5907 129.683 15.5529H143.091ZM145.612 13.4077V26.8153C144.382 26.8153 141.663 26.5257 138.993 24.3374C135.969 21.8589 134.778 18.3929 134.778 15.5529H148.186H161.594C161.594 11.3453 159.907 6.80667 155.991 3.59742C152.429 0.678473 148.423 -7.62939e-06 145.612 -7.62939e-06V13.4077ZM148.186 15.5529H134.778C134.778 12.7892 135.928 9.26729 139.04 6.74013C141.753 4.53769 144.487 4.29045 145.612 4.29045V17.6981V31.1058C148.319 31.1058 152.34 30.4831 155.944 27.5567C159.948 24.3055 161.594 19.7109 161.594 15.5529H148.186ZM140.061 32.5806H153.469V28.8265H140.061H126.653V32.5806H140.061ZM140.061 28.8265V42.2341H143.896V28.8265V15.4188H140.061V28.8265ZM143.896 28.8265H157.303V22.6321H143.896H130.488V28.8265H143.896ZM143.896 22.6321L143.242 9.24039L139.944 9.40129L140.597 22.793L141.251 36.1848L144.549 36.0239L143.896 22.6321ZM140.597 22.793H154.005V19.0389H140.597H127.19V22.793H140.597ZM140.597 19.0389L141.302 32.428L146.397 32.1599L145.692 18.7707L144.988 5.38159L139.893 5.64975L140.597 19.0389ZM145.692 18.7707L146.409 32.1592C144.613 32.2554 141.1 31.8649 138.064 28.9056C135.091 26.008 134.617 22.632 134.617 21.0232H148.025H161.433C161.433 17.9128 160.544 13.3703 156.78 9.70176C152.952 5.97156 148.273 5.20556 144.975 5.38226L145.692 18.7707ZM148.025 21.0232H134.617V28.8265H148.025H161.433V21.0232H148.025ZM148.025 28.8265V42.2341H151.86V28.8265V15.4188H148.025V28.8265ZM151.86 28.8265H138.452V32.5806H151.86H165.267V28.8265H151.86ZM151.86 32.5806V19.173H140.061V32.5806V45.9883H151.86V32.5806ZM157.772 32.5806V45.9883C165.177 45.9883 171.179 39.9855 171.179 32.5806H157.772ZM153.481 32.5806H140.074C140.074 39.9855 146.076 45.9883 153.481 45.9883V32.5806ZM153.481 19.0389V5.63121C146.076 5.63121 140.074 11.634 140.074 19.0389H153.481ZM157.772 19.0389H171.179C171.179 11.634 165.177 5.63121 157.772 5.63121V19.0389ZM157.772 20.6746L170.491 24.9145C170.947 23.5474 171.179 22.1157 171.179 20.6746H157.772ZM156.967 23.088L144.248 18.8481C142.885 22.9368 143.57 27.4313 146.09 30.9276C148.61 34.4239 152.657 36.4957 156.967 36.4957V23.088ZM158.04 23.088V36.4957C164.324 36.4957 169.765 32.131 171.128 25.9965L158.04 23.088ZM168.712 32.5806V45.9883C176.117 45.9883 182.12 39.9855 182.12 32.5806H168.712ZM164.422 32.5806H151.014C151.014 39.9855 157.017 45.9883 164.422 45.9883V32.5806ZM161.633 22.5249V9.11721C158.148 9.11721 152.758 10.1071 148.657 14.8813C144.956 19.1894 144.364 24.2725 144.364 27.5662H157.772H171.179C171.179 27.052 171.351 29.6145 168.998 32.3539C166.245 35.5594 162.786 35.9325 161.633 35.9325V22.5249ZM157.772 27.5662H144.364V32.5806H157.772H171.179V27.5662H157.772ZM157.772 32.5806V19.173H153.481V32.5806V45.9883H157.772V32.5806ZM153.481 32.5806H166.889V19.0389H153.481H140.074V32.5806H153.481ZM153.481 19.0389V32.4466H157.772V19.0389V5.63121H153.481V19.0389ZM157.772 19.0389H144.364V20.6746H157.772H171.179V19.0389H157.772ZM157.772 20.6746L145.052 16.4347L144.248 18.8481L156.967 23.088L169.687 27.3279L170.491 24.9145L157.772 20.6746ZM156.967 23.088V36.4957H158.04V23.088V9.68033H156.967V23.088ZM158.04 23.088L171.128 25.9965C170.928 26.8973 170.343 28.4766 168.758 29.924C167.001 31.5291 164.868 32.1784 163.162 32.1784V18.7707V5.36306C158.559 5.36306 154.134 6.96428 150.674 10.1247C147.386 13.1274 145.688 16.8653 144.951 20.1795L158.04 23.088ZM163.162 18.7707V32.1784C161.753 32.1784 159.155 31.5909 157.113 29.2407C156.222 28.2145 155.756 27.1956 155.528 26.4622C155.308 25.7534 155.305 25.3072 155.305 25.26H168.712H182.12C182.12 21.0899 181.08 15.9402 177.355 11.6527C173.402 7.10358 168.029 5.36306 163.162 5.36306V18.7707ZM168.712 25.26H155.305V32.5806H168.712H182.12V25.26H168.712ZM168.712 32.5806V19.173H164.422V32.5806V45.9883H168.712V32.5806ZM164.422 32.5806H177.83V25.9304H164.422H151.014V32.5806H164.422ZM164.422 25.9304H177.83C177.83 24.1255 177.731 19.2047 174.227 14.872C170.073 9.73402 164.388 9.11721 161.633 9.11721V22.5249V35.9325C160.943 35.9325 156.653 35.785 153.376 31.733C151.978 30.0036 151.429 28.3157 151.211 27.3659C151.1 26.8834 151.054 26.5097 151.034 26.2913C151.014 26.0706 151.014 25.9407 151.014 25.9304H164.422ZM187.636 19.0389H201.043C201.043 11.634 195.041 5.63121 187.636 5.63121V19.0389ZM187.636 22.793V36.2007C195.041 36.2007 201.043 30.1979 201.043 22.793H187.636ZM185.464 23.0344L178.213 11.7561C175.081 13.7698 172.927 16.9956 172.268 20.6607C171.609 24.3258 172.503 28.0999 174.738 31.079L185.464 23.0344ZM179.725 30.0064L175.431 17.3051C169.065 19.4575 165.276 25.9894 166.568 32.5836C167.859 39.1779 173.833 43.7975 180.54 43.3893L179.725 30.0064ZM170.93 37.9437H157.522C157.522 45.3485 163.525 51.3514 170.93 51.3514V37.9437ZM170.93 34.1895V20.7819C163.525 20.7819 157.522 26.7847 157.522 34.1895H170.93ZM172.351 32.1784L159.176 34.667C160.531 41.8379 167.372 46.6086 174.569 45.4013L172.351 32.1784ZM171.895 29.765L170.504 16.4298C166.775 16.8188 163.38 18.7508 161.141 21.7573C158.903 24.7638 158.025 28.5702 158.72 32.2536L171.895 29.765ZM180.235 28.5315L183.353 41.5715C189.387 40.1287 193.642 34.7352 193.642 28.5315H180.235ZM180.235 27.4589H193.642C193.642 23.0996 191.523 19.0124 187.96 16.5006C184.397 13.9888 179.835 13.366 175.73 14.8308L180.235 27.4589ZM183.05 20.2188L175.104 31.0178C180.978 35.3405 189.231 34.1746 193.678 28.3936L183.05 20.2188ZM186.456 19.0389V32.4466H187.636V19.0389V5.63121H186.456V19.0389ZM187.636 19.0389H174.228V22.793H187.636H201.043V19.0389H187.636ZM187.636 22.793V9.38536H186.724V22.793V36.2007H187.636V22.793ZM186.724 22.793V9.38536C186.662 9.38536 185.525 9.36503 184.245 9.54223C182.889 9.72993 180.598 10.2235 178.213 11.7561L185.464 23.0344L192.714 34.3126C190.705 35.6039 188.843 35.9768 187.923 36.1042C187.079 36.221 186.384 36.2007 186.724 36.2007V22.793ZM185.464 23.0344L174.738 31.079C173.911 29.9763 173.466 29.0102 173.275 28.5664C173.038 28.0172 172.881 27.5322 172.773 27.1352C172.561 26.3559 172.431 25.5089 172.431 24.5897H185.839H199.247C199.247 22.9464 199.01 21.429 198.651 20.1067C198.39 19.1458 197.746 17.064 196.19 14.9897L185.464 23.0344ZM185.839 24.5897H172.431C172.431 23.0271 172.823 21.4385 173.577 20.0245C174.29 18.6887 175.133 17.8635 175.638 17.446C176.453 16.7723 176.751 16.8587 175.431 17.3051L179.725 30.0064L184.02 42.7076C186.427 41.8937 189.781 40.5454 192.722 38.1154C196.067 35.3508 199.247 30.7942 199.247 24.5897H185.839ZM179.725 30.0064L180.54 43.3893C181.083 43.3562 179.889 43.5819 177.994 42.6604C176.867 42.1122 175.29 41.0443 174.024 39.1458C172.712 37.1763 172.271 35.1126 172.271 33.4923H185.678H199.086C199.086 30.4375 198.286 27.1972 196.339 24.2758C194.44 21.4253 191.952 19.6301 189.722 18.5456C185.622 16.5515 181.452 16.4688 178.911 16.6235L179.725 30.0064ZM185.678 33.4923H172.271C172.271 32.6782 172.392 31.4877 172.902 30.1261C173.429 28.7183 174.248 27.4651 175.248 26.4525C176.206 25.4828 177.141 24.9226 177.754 24.6215C178.35 24.3287 178.75 24.2274 178.794 24.2164C178.797 24.2156 178.251 24.3369 176.717 24.4239C175.26 24.5065 173.395 24.536 170.93 24.536V37.9437V51.3514C175.534 51.3514 181 51.3159 185.356 50.2163C187.684 49.6288 191.282 48.3789 194.328 45.2944C197.809 41.7698 199.086 37.3956 199.086 33.4923H185.678ZM170.93 37.9437H184.337V34.1895H170.93H157.522V37.9437H170.93ZM170.93 34.1895V47.5972C174.867 47.5972 178.648 47.5977 181.346 47.2087C182.492 47.0435 185.867 46.5401 189.016 44.1748C193.516 40.7951 194.769 35.9992 194.769 32.5806H181.361H167.953C167.953 31.5458 168.093 29.7706 168.965 27.7541C169.895 25.6021 171.336 23.9172 172.912 22.7336C174.343 21.6588 175.65 21.1699 176.315 20.9588C176.998 20.7419 177.464 20.6758 177.521 20.6676C177.582 20.6589 177.203 20.7093 175.915 20.7423C174.717 20.773 173.125 20.7819 170.93 20.7819V34.1895ZM181.361 32.5806H194.769C194.769 29.3482 193.684 25.9938 191.325 23.2408C189.182 20.7401 186.678 19.537 185.036 18.9521C182.032 17.8823 179.188 17.9312 177.948 17.9744C175.111 18.0732 171.788 18.6778 170.133 18.9555L172.351 32.1784L174.569 45.4013C177.07 44.9818 178.252 44.7954 178.881 44.7735C179.374 44.7563 178.003 44.9125 176.039 44.2131C174.917 43.8134 172.825 42.8613 170.963 40.6893C168.886 38.2649 167.953 35.317 167.953 32.5806H181.361ZM172.351 32.1784L185.526 29.6898L185.07 27.2765L171.895 29.765L158.72 32.2536L159.176 34.667L172.351 32.1784ZM171.895 29.765L173.287 43.1003C176.282 42.7877 179.91 42.3949 183.353 41.5715L180.235 28.5315L177.116 15.4915C175.625 15.848 173.676 16.0988 170.504 16.4298L171.895 29.765ZM180.235 28.5315H193.642V27.4589H180.235H166.827V28.5315H180.235ZM180.235 27.4589L175.73 14.8308C174.798 15.1632 175.169 14.7149 176.748 15.1378C177.699 15.3926 179.527 16.1176 181.144 18.0158C182.891 20.0652 183.453 22.3812 183.453 24.0534H170.045H156.637C156.637 27.9511 157.853 32.0269 160.735 35.4087C163.488 38.6393 166.932 40.2693 169.811 41.0403C175.245 42.4956 180.711 41.5244 184.74 40.087L180.235 27.4589ZM170.045 24.0534H183.453C183.453 25.3601 183.119 26.9265 182.244 28.4393C181.393 29.9101 180.309 30.8508 179.455 31.393C177.956 32.3449 177.074 32.1784 177.687 32.1784V18.7707V5.36306C174.037 5.36306 169.334 6.05467 165.08 8.75629C160.217 11.844 156.637 17.239 156.637 24.0534H170.045ZM177.687 18.7707V32.1784C177.885 32.1784 177.715 32.2013 177.29 32.0928C176.842 31.9783 176.021 31.6925 175.104 31.0178L183.05 20.2188L190.997 9.41971C186.362 6.00902 181.223 5.36306 177.687 5.36306V18.7707ZM183.05 20.2188L193.678 28.3936C191.815 30.815 189.484 31.8012 188.142 32.1685C186.979 32.4871 186.185 32.4466 186.456 32.4466V19.0389V5.63121C185.588 5.63121 177.619 5.28973 172.423 12.044L183.05 20.2188ZM177.955 26.1181V39.5258C179.87 39.5258 183.458 39.3707 186.988 37.5034C188.991 36.4436 191.178 34.7213 192.795 32.0723C194.421 29.4067 194.956 26.6429 194.956 24.3215H181.549H168.141C168.141 22.5767 168.549 20.3256 169.904 18.1051C171.249 15.901 173.021 14.5558 174.447 13.801C176.824 12.5437 178.615 12.7105 177.955 12.7105V26.1181ZM181.549 24.3215H194.956C194.956 21.9507 194.395 19.1909 192.777 16.5532C191.175 13.9426 189.019 12.2359 187.041 11.1782C183.524 9.29663 179.943 9.11721 177.955 9.11721V22.5249V35.9325C178.542 35.9325 176.758 36.0883 174.394 34.8235C172.993 34.0741 171.252 32.7463 169.922 30.5781C168.575 28.3829 168.141 26.1292 168.141 24.3215H181.549ZM177.955 22.5249V9.11721C175.956 9.11721 172.406 9.30093 168.913 11.148C166.957 12.1821 164.793 13.862 163.169 16.4596C161.52 19.0977 160.928 21.8871 160.928 24.3215H174.335H187.743C187.743 26.1927 187.281 28.476 185.909 30.6717C184.562 32.8268 182.82 34.1279 181.447 34.8537C179.12 36.084 177.381 35.9325 177.955 35.9325V22.5249ZM174.335 24.3215H160.928C160.928 26.7054 161.494 29.4988 163.151 32.1658C164.79 34.8019 166.986 36.4972 168.966 37.5332C172.472 39.3663 176.028 39.5258 177.955 39.5258V26.1181V12.7105C177.308 12.7105 179.055 12.5482 181.394 13.7713C182.791 14.5022 184.565 15.8204 185.927 18.0116C187.308 20.2336 187.743 22.5142 187.743 24.3215H174.335Z" fill="#003CA0" mask="url(#path-1-outside-1_483_879)"/>
</svg>
