<svg width="106" height="132" viewBox="0 0 106 132" fill="none" xmlns="http://www.w3.org/2000/svg">
<mask id="path-1-outside-1_483_882" maskUnits="userSpaceOnUse" x="-2.06306" y="-4.72453" width="113.185" height="140.312" fill="black">
<rect fill="white" x="-2.06306" y="-4.72453" width="113.185" height="140.312"/>
<path d="M13.4097 98.9708L23.3395 82.8838L34.8172 89.9685L32.8453 93.1631L25.0186 88.332L22.1594 92.9641L29.7429 97.0149L27.7429 100.255L20.1593 96.2043L17.0606 101.224L13.4097 98.9708ZM44.7405 99.5624C43.2479 99.0378 42.6113 98.0183 43.0736 96.7028C43.527 95.4125 44.6703 94.99 46.1629 95.5146C47.6556 96.0391 48.3338 97.1017 47.8804 98.3919C47.4181 99.7075 46.2331 100.087 44.7405 99.5624ZM34.5696 111.763L35.8142 108.221L39.4319 109.492L41.4856 103.648L38.3205 102.707L39.5651 99.1648L44.4608 100.601C45.9042 101.023 46.4128 102.083 45.915 103.5L43.3279 110.861L46.9456 112.133L45.701 115.675L34.5696 111.763ZM60.1302 105.891C58.0105 106.866 57.1371 108.625 58.7279 112.085L60.8227 116.64L56.9246 118.433L51.2674 106.129L55.1655 104.337L55.8489 105.823L56.1262 108.352L57.1007 107.904C56.5798 105.487 57.3193 103.052 59.9505 101.842C63.0934 100.397 65.9571 101.618 67.7047 105.419L70.7629 112.07L66.8648 113.862L64.0866 107.82C63.056 105.579 62.0061 105.029 60.1302 105.891ZM77.6424 105.046C75.5229 104.072 74.863 102.233 76.032 98.3436L77.2775 94.2235C76.2786 93.7641 75.311 94.2636 74.538 95.9446C73.8209 97.5038 74.0753 98.6834 75.196 99.1988L73.5154 102.853C70.397 101.419 69.7911 97.9232 71.3708 94.4881C72.9282 91.1017 75.9274 88.8802 79.9716 90.74L83.431 92.331L84.2489 90.5526L87.6597 92.1211L86.416 94.8254C85.8782 95.9948 84.9179 96.3501 83.7485 95.8123L83.5049 95.7002L82.3233 94.4189L81.8751 95.3934C83.7087 96.7974 84.8894 98.7867 83.3096 102.222C81.5506 106.047 78.9093 105.629 77.6424 105.046ZM78.7042 100.812C79.4107 101.137 79.9437 100.556 80.2462 99.898C81.2322 97.7541 80.9806 95.9265 79.4701 95.2319L78.4633 98.5763C78.0961 99.8241 77.9977 100.487 78.7042 100.812ZM81.098 73.9318C81.2953 76.2564 82.6536 77.6751 86.4477 77.3532L91.4442 76.9292L91.807 81.2043L78.3137 82.3492L77.951 78.0741L79.5808 77.9358L82.0536 78.5334L81.9629 77.4646C79.5128 77.1342 77.4729 75.6119 77.2281 72.7262C76.9356 69.2794 79.0567 67.0003 83.2249 66.6467L90.5193 66.0277L90.882 70.3028L84.2556 70.8651C81.7974 71.0736 80.9235 71.8744 81.098 73.9318ZM82.7081 54.7864C78.2468 55.412 75.3224 52.7082 74.7228 48.4328C74.2089 44.7681 75.7314 41.1428 79.5293 40.4207L80.1251 44.6696C78.9525 44.9965 78.2023 46.2119 78.4406 47.9114C78.7236 49.9296 80.0676 50.8243 82.1123 50.5376C84.1837 50.2471 85.2297 49.0173 84.9467 46.9991C84.7084 45.2995 83.6528 44.3374 82.4355 44.3456L81.8397 40.0967C85.6897 39.7464 88.1506 42.8131 88.6645 46.4777C89.264 50.7532 87.196 54.1571 82.7081 54.7864ZM78.8373 28.3414C74.5885 28.9372 71.6332 26.4002 71.0486 22.2309C70.4639 18.0617 72.524 14.7943 76.587 14.2246L77.9148 14.0384L79.341 24.2091C80.8812 23.9931 81.8136 22.7251 81.4747 20.3086C81.2662 18.8215 80.5787 17.7806 79.5323 17.6566L78.9365 13.4077C80.9123 13.4014 84.2753 15.1773 84.9269 19.8245C85.6493 24.9763 82.6348 27.8089 78.8373 28.3414ZM76.951 24.5443L76.0833 18.3568C75.0742 18.4983 74.1694 19.3834 74.5008 21.7468C74.8322 24.1103 75.9419 24.6858 76.951 24.5443Z"/>
</mask>
<path d="M13.4097 98.9708L23.3395 82.8838L34.8172 89.9685L32.8453 93.1631L25.0186 88.332L22.1594 92.9641L29.7429 97.0149L27.7429 100.255L20.1593 96.2043L17.0606 101.224L13.4097 98.9708ZM44.7405 99.5624C43.2479 99.0378 42.6113 98.0183 43.0736 96.7028C43.527 95.4125 44.6703 94.99 46.1629 95.5146C47.6556 96.0391 48.3338 97.1017 47.8804 98.3919C47.4181 99.7075 46.2331 100.087 44.7405 99.5624ZM34.5696 111.763L35.8142 108.221L39.4319 109.492L41.4856 103.648L38.3205 102.707L39.5651 99.1648L44.4608 100.601C45.9042 101.023 46.4128 102.083 45.915 103.5L43.3279 110.861L46.9456 112.133L45.701 115.675L34.5696 111.763ZM60.1302 105.891C58.0105 106.866 57.1371 108.625 58.7279 112.085L60.8227 116.64L56.9246 118.433L51.2674 106.129L55.1655 104.337L55.8489 105.823L56.1262 108.352L57.1007 107.904C56.5798 105.487 57.3193 103.052 59.9505 101.842C63.0934 100.397 65.9571 101.618 67.7047 105.419L70.7629 112.07L66.8648 113.862L64.0866 107.82C63.056 105.579 62.0061 105.029 60.1302 105.891ZM77.6424 105.046C75.5229 104.072 74.863 102.233 76.032 98.3436L77.2775 94.2235C76.2786 93.7641 75.311 94.2636 74.538 95.9446C73.8209 97.5038 74.0753 98.6834 75.196 99.1988L73.5154 102.853C70.397 101.419 69.7911 97.9232 71.3708 94.4881C72.9282 91.1017 75.9274 88.8802 79.9716 90.74L83.431 92.331L84.2489 90.5526L87.6597 92.1211L86.416 94.8254C85.8782 95.9948 84.9179 96.3501 83.7485 95.8123L83.5049 95.7002L82.3233 94.4189L81.8751 95.3934C83.7087 96.7974 84.8894 98.7867 83.3096 102.222C81.5506 106.047 78.9093 105.629 77.6424 105.046ZM78.7042 100.812C79.4107 101.137 79.9437 100.556 80.2462 99.898C81.2322 97.7541 80.9806 95.9265 79.4701 95.2319L78.4633 98.5763C78.0961 99.8241 77.9977 100.487 78.7042 100.812ZM81.098 73.9318C81.2953 76.2564 82.6536 77.6751 86.4477 77.3532L91.4442 76.9292L91.807 81.2043L78.3137 82.3492L77.951 78.0741L79.5808 77.9358L82.0536 78.5334L81.9629 77.4646C79.5128 77.1342 77.4729 75.6119 77.2281 72.7262C76.9356 69.2794 79.0567 67.0003 83.2249 66.6467L90.5193 66.0277L90.882 70.3028L84.2556 70.8651C81.7974 71.0736 80.9235 71.8744 81.098 73.9318ZM82.7081 54.7864C78.2468 55.412 75.3224 52.7082 74.7228 48.4328C74.2089 44.7681 75.7314 41.1428 79.5293 40.4207L80.1251 44.6696C78.9525 44.9965 78.2023 46.2119 78.4406 47.9114C78.7236 49.9296 80.0676 50.8243 82.1123 50.5376C84.1837 50.2471 85.2297 49.0173 84.9467 46.9991C84.7084 45.2995 83.6528 44.3374 82.4355 44.3456L81.8397 40.0967C85.6897 39.7464 88.1506 42.8131 88.6645 46.4777C89.264 50.7532 87.196 54.1571 82.7081 54.7864ZM78.8373 28.3414C74.5885 28.9372 71.6332 26.4002 71.0486 22.2309C70.4639 18.0617 72.524 14.7943 76.587 14.2246L77.9148 14.0384L79.341 24.2091C80.8812 23.9931 81.8136 22.7251 81.4747 20.3086C81.2662 18.8215 80.5787 17.7806 79.5323 17.6566L78.9365 13.4077C80.9123 13.4014 84.2753 15.1773 84.9269 19.8245C85.6493 24.9763 82.6348 27.8089 78.8373 28.3414ZM76.951 24.5443L76.0833 18.3568C75.0742 18.4983 74.1694 19.3834 74.5008 21.7468C74.8322 24.1103 75.9419 24.6858 76.951 24.5443Z" fill="#A1C4FF"/>
<path d="M13.4097 98.9708L2.00051 91.9283C-1.88892 98.2294 0.0661468 106.491 6.36727 110.38L13.4097 98.9708ZM23.3395 82.8838L30.382 71.4746C24.0808 67.5852 15.8198 69.5402 11.9303 75.8414L23.3395 82.8838ZM34.8172 89.9685L46.2264 97.0109C48.0941 93.985 48.6834 90.3411 47.8645 86.8807C47.0455 83.4204 44.8855 80.4271 41.8596 78.5593L34.8172 89.9685ZM32.8453 93.1631L25.8029 104.572C32.104 108.462 40.3651 106.507 44.2545 100.205L32.8453 93.1631ZM25.0186 88.332L32.061 76.9228C25.7599 73.0333 17.4988 74.9884 13.6094 81.2895L25.0186 88.332ZM22.1594 92.9641L10.7502 85.9216C8.80612 89.0711 8.25046 92.8842 9.2148 96.4575C10.1791 100.031 12.5777 103.047 15.8423 104.79L22.1594 92.9641ZM29.7429 97.0149L41.1521 104.057C43.0962 100.908 43.6519 97.0948 42.6875 93.5215C41.7232 89.9482 39.3246 86.9324 36.06 85.1886L29.7429 97.0149ZM27.7429 100.255L21.4259 112.081C27.6709 115.417 35.4332 113.322 39.1521 107.298L27.7429 100.255ZM20.1593 96.2043L26.4763 84.378C20.2313 81.0422 12.469 83.1371 8.75012 89.1619L20.1593 96.2043ZM17.0606 101.224L10.0182 112.634C13.0441 114.501 16.6881 115.091 20.1484 114.272C23.6088 113.453 26.6021 111.293 28.4698 108.267L17.0606 101.224ZM13.4097 98.9708L24.8189 106.013L34.7487 89.9262L23.3395 82.8838L11.9303 75.8414L2.00051 91.9283L13.4097 98.9708ZM23.3395 82.8838L16.2971 94.293L27.7748 101.378L34.8172 89.9685L41.8596 78.5593L30.382 71.4746L23.3395 82.8838ZM34.8172 89.9685L23.408 82.9261L21.4361 86.1206L32.8453 93.1631L44.2545 100.205L46.2264 97.0109L34.8172 89.9685ZM32.8453 93.1631L39.8877 81.7539L32.061 76.9228L25.0186 88.332L17.9762 99.7411L25.8029 104.572L32.8453 93.1631ZM25.0186 88.332L13.6094 81.2895L10.7502 85.9216L22.1594 92.9641L33.5686 100.007L36.4278 95.3744L25.0186 88.332ZM22.1594 92.9641L15.8423 104.79L23.4259 108.841L29.7429 97.0149L36.06 85.1886L28.4764 81.1378L22.1594 92.9641ZM29.7429 97.0149L18.3338 89.9724L16.3337 93.2127L27.7429 100.255L39.1521 107.298L41.1521 104.057L29.7429 97.0149ZM27.7429 100.255L34.0599 88.4288L26.4763 84.378L20.1593 96.2043L13.8423 108.031L21.4259 112.081L27.7429 100.255ZM20.1593 96.2043L8.75012 89.1619L5.65145 94.1819L17.0606 101.224L28.4698 108.267L31.5685 103.247L20.1593 96.2043ZM17.0606 101.224L24.1031 89.8151L20.4521 87.5616L13.4097 98.9708L6.36727 110.38L10.0182 112.634L17.0606 101.224ZM44.7405 99.5624L49.1856 86.913L44.7405 99.5624ZM43.0736 96.7028L55.723 101.148L43.0736 96.7028ZM46.1629 95.5146L50.6081 82.8652L46.1629 95.5146ZM47.8804 98.3919L60.5298 102.837L47.8804 98.3919ZM34.5696 111.763L21.9202 107.318C19.4652 114.304 23.1384 121.957 30.1244 124.412L34.5696 111.763ZM35.8142 108.221L40.2593 95.5717C36.9045 94.3928 33.2188 94.5948 30.0129 96.1334C26.8071 97.672 24.3438 100.421 23.1648 103.776L35.8142 108.221ZM39.4319 109.492L34.9868 122.142C38.3416 123.321 42.0274 123.119 45.2332 121.58C48.439 120.041 50.9024 117.292 52.0813 113.937L39.4319 109.492ZM41.4856 103.648L54.1349 108.093C55.3514 104.632 55.096 100.823 53.4282 97.5542C51.7605 94.2859 48.826 91.8438 45.3091 90.7974L41.4856 103.648ZM38.3205 102.707L25.6711 98.2615C24.4546 101.723 24.71 105.532 26.3778 108.801C28.0456 112.069 30.98 114.511 34.4969 115.558L38.3205 102.707ZM39.5651 99.1648L43.3393 86.2993C36.4966 84.292 29.2799 87.992 26.9158 94.7197L39.5651 99.1648ZM44.4608 100.601L40.6866 113.466L40.6987 113.47L44.4608 100.601ZM43.3279 110.861L30.6786 106.416C28.2236 113.402 31.8967 121.056 38.8828 123.511L43.3279 110.861ZM46.9456 112.133L59.595 116.578C62.05 109.592 58.3768 101.938 51.3908 99.4834L46.9456 112.133ZM45.701 115.675L41.2559 128.324C44.6107 129.503 48.2964 129.301 51.5023 127.762C54.7081 126.224 57.1714 123.475 58.3504 120.12L45.701 115.675ZM44.7405 99.5624L49.1856 86.913C50.2455 87.2854 52.8501 88.4642 54.7024 91.5837C56.7962 95.1098 56.5577 98.7725 55.723 101.148L43.0736 96.7028L30.4243 92.2576C29.1272 95.9486 28.9759 100.779 31.6455 105.275C34.0737 109.364 37.7429 111.315 40.2954 112.212L44.7405 99.5624ZM43.0736 96.7028L55.723 101.148C54.8628 103.596 52.7396 106.535 48.9973 107.959C45.6462 109.234 42.8785 108.572 41.7178 108.164L46.1629 95.5146L50.6081 82.8652C47.9548 81.9328 43.8691 81.2192 39.4599 82.8972C34.6594 84.724 31.7379 88.5196 30.4243 92.2576L43.0736 96.7028ZM46.1629 95.5146L41.7178 108.164C40.558 107.756 38.0889 106.582 36.2953 103.632C34.2638 100.291 34.2895 96.6262 35.231 93.9468L47.8804 98.3919L60.5298 102.837C61.9247 98.8674 61.8379 94.0262 59.2075 89.7002C56.815 85.7656 53.2605 83.7973 50.6081 82.8652L46.1629 95.5146ZM47.8804 98.3919L35.231 93.9468C36.1473 91.3394 38.3997 88.3979 42.1737 87.0455C45.4628 85.8668 48.1245 86.5401 49.1856 86.913L44.7405 99.5624L40.2954 112.212C42.8491 113.109 46.8496 113.855 51.2199 112.289C56.0751 110.549 59.1512 106.76 60.5298 102.837L47.8804 98.3919ZM34.5696 111.763L47.2189 116.208L48.4636 112.666L35.8142 108.221L23.1648 103.776L21.9202 107.318L34.5696 111.763ZM35.8142 108.221L31.3691 120.87L34.9868 122.142L39.4319 109.492L43.877 96.843L40.2593 95.5717L35.8142 108.221ZM39.4319 109.492L52.0813 113.937L54.1349 108.093L41.4856 103.648L28.8362 99.2032L26.7826 105.047L39.4319 109.492ZM41.4856 103.648L45.3091 90.7974L42.144 89.8557L38.3205 102.707L34.4969 115.558L37.662 116.499L41.4856 103.648ZM38.3205 102.707L50.9698 107.152L52.2145 103.61L39.5651 99.1648L26.9158 94.7197L25.6711 98.2615L38.3205 102.707ZM39.5651 99.1648L35.791 112.03L40.6866 113.466L44.4608 100.601L48.2349 87.7355L43.3393 86.2993L39.5651 99.1648ZM44.4608 100.601L40.6987 113.47C38.9717 112.965 35.7875 111.432 33.9039 107.634C32.0595 103.914 32.7323 100.572 33.2656 99.0544L45.915 103.5L58.5644 107.945C59.5956 105.01 60.2629 100.43 57.9278 95.7208C55.5535 90.9326 51.3932 88.6587 48.2229 87.7319L44.4608 100.601ZM45.915 103.5L33.2656 99.0544L30.6786 106.416L43.3279 110.861L55.9773 115.307L58.5644 107.945L45.915 103.5ZM43.3279 110.861L38.8828 123.511L42.5005 124.782L46.9456 112.133L51.3908 99.4834L47.7731 98.2121L43.3279 110.861ZM46.9456 112.133L34.2963 107.688L33.0516 111.229L45.701 115.675L58.3504 120.12L59.595 116.578L46.9456 112.133ZM45.701 115.675L50.1461 103.025L39.0147 99.1135L34.5696 111.763L30.1244 124.412L41.2559 128.324L45.701 115.675ZM60.8227 116.64L66.4238 128.822C73.1516 125.729 76.0978 117.767 73.0044 111.039L60.8227 116.64ZM56.9246 118.433L44.7429 124.034C47.8363 130.762 55.798 133.708 62.5257 130.614L56.9246 118.433ZM51.2674 106.129L45.6663 93.9477C38.9385 97.0411 35.9923 105.003 39.0858 111.73L51.2674 106.129ZM55.1655 104.337L67.3472 98.7359C64.2538 92.0081 56.2921 89.0619 49.5644 92.1553L55.1655 104.337ZM55.8489 105.823L69.1767 104.362C69.0196 102.929 68.6326 101.531 68.0305 100.222L55.8489 105.823ZM56.1262 108.352L42.7984 109.813C43.2682 114.098 45.7688 117.895 49.519 120.019C53.2691 122.142 57.8116 122.334 61.7273 120.534L56.1262 108.352ZM57.1007 107.904L62.7019 120.085C68.4114 117.46 71.5315 111.222 70.2074 105.079L57.1007 107.904ZM67.7047 105.419L79.8864 99.8176L67.7047 105.419ZM70.7629 112.07L76.3641 124.252C83.0918 121.158 86.038 113.197 82.9446 106.469L70.7629 112.07ZM66.8648 113.862L54.6831 119.463C57.7766 126.191 65.7382 129.137 72.4659 126.044L66.8648 113.862ZM60.1302 105.891L54.529 93.7094C51.3623 95.1655 46.8788 98.3166 45.1473 104.367C43.5849 109.827 45.1703 114.693 46.5462 117.686L58.7279 112.085L70.9095 106.483C70.6947 106.016 71.9215 108.273 70.9279 111.745C69.7654 115.807 66.7784 117.591 65.7313 118.073L60.1302 105.891ZM58.7279 112.085L46.5462 117.686L48.641 122.242L60.8227 116.64L73.0044 111.039L70.9095 106.483L58.7279 112.085ZM60.8227 116.64L55.2216 104.459L51.3234 106.251L56.9246 118.433L62.5257 130.614L66.4238 128.822L60.8227 116.64ZM56.9246 118.433L69.1062 112.832L63.4491 100.528L51.2674 106.129L39.0858 111.73L44.7429 124.034L56.9246 118.433ZM51.2674 106.129L56.8686 118.311L60.7667 116.519L55.1655 104.337L49.5644 92.1553L45.6663 93.9477L51.2674 106.129ZM55.1655 104.337L42.9839 109.938L43.6672 111.424L55.8489 105.823L68.0305 100.222L67.3472 98.7359L55.1655 104.337ZM55.8489 105.823L42.5211 107.285L42.7984 109.813L56.1262 108.352L69.454 106.89L69.1767 104.362L55.8489 105.823ZM56.1262 108.352L61.7273 120.534L62.7019 120.085L57.1007 107.904L51.4996 95.7222L50.525 96.1703L56.1262 108.352ZM57.1007 107.904L70.2074 105.079C70.4018 105.981 70.5297 107.66 69.6946 109.637C68.7685 111.83 67.1022 113.31 65.5517 114.023L59.9505 101.842L54.3494 89.66C50.1677 91.5828 46.8159 94.8863 44.9925 99.2032C43.2601 103.305 43.2787 107.41 43.9941 110.729L57.1007 107.904ZM59.9505 101.842L65.5517 114.023C64.2724 114.612 61.6665 115.163 58.8293 113.881C57.5904 113.321 56.7421 112.59 56.2286 112.019C55.7322 111.467 55.5427 111.063 55.523 111.02L67.7047 105.419L79.8864 99.8176C78.1443 96.0288 75.0483 91.7843 69.8725 89.4452C64.3808 86.9633 58.7716 87.6267 54.3494 89.66L59.9505 101.842ZM67.7047 105.419L55.523 111.02L58.5813 117.671L70.7629 112.07L82.9446 106.469L79.8864 99.8176L67.7047 105.419ZM70.7629 112.07L65.1618 99.8883L61.2637 101.681L66.8648 113.862L72.4659 126.044L76.3641 124.252L70.7629 112.07ZM66.8648 113.862L79.0465 108.261L76.2683 102.219L64.0866 107.82L51.905 113.421L54.6831 119.463L66.8648 113.862ZM64.0866 107.82L76.2683 102.219C75.5143 100.579 73.369 96.1496 68.3757 93.6767C62.4544 90.7442 57.0323 92.5584 54.529 93.7094L60.1302 105.891L65.7313 118.073C65.104 118.361 61.1448 120.019 56.4751 117.707C54.482 116.72 53.2787 115.415 52.6832 114.644C52.3807 114.252 52.1832 113.931 52.074 113.741C51.9635 113.549 51.9093 113.431 51.905 113.421L64.0866 107.82ZM76.032 98.3436L63.1979 94.464C63.1959 94.4708 63.1938 94.4777 63.1917 94.4846L76.032 98.3436ZM77.2775 94.2235L90.1116 98.1031C92.0488 91.6948 88.9619 84.8395 82.8796 82.0423L77.2775 94.2235ZM75.196 99.1988L87.3772 104.801C90.4712 98.0733 87.5256 90.1115 80.7981 87.0175L75.196 99.1988ZM73.5154 102.853L67.9133 115.034C71.144 116.52 74.8325 116.662 78.1676 115.428C81.5026 114.194 84.2109 111.686 85.6966 108.455L73.5154 102.853ZM83.431 92.331L77.829 104.512C84.5565 107.606 92.5183 104.661 95.6123 97.9331L83.431 92.331ZM84.2489 90.5526L89.851 78.3713C86.6203 76.8856 82.9318 76.744 79.5968 77.9779C76.2618 79.2117 73.5535 81.7198 72.0677 84.9505L84.2489 90.5526ZM87.6597 92.1211L99.8409 97.7232C102.935 90.9957 99.9893 83.0339 93.2618 79.9399L87.6597 92.1211ZM86.416 94.8254L98.5973 100.427L86.416 94.8254ZM83.7485 95.8123L89.3506 83.631L83.7485 95.8123ZM83.5049 95.7002L73.6487 104.79C74.8487 106.091 76.2946 107.142 77.9028 107.881L83.5049 95.7002ZM82.3233 94.4189L92.1795 85.3293C89.1404 82.0339 84.6553 80.4753 80.2275 81.176C75.7997 81.8768 72.0151 84.744 70.142 88.8168L82.3233 94.4189ZM81.8751 95.3934L69.6939 89.7913C67.0761 95.4834 68.7494 102.23 73.7237 106.039L81.8751 95.3934ZM79.4701 95.2319L85.0722 83.0506C81.5479 81.4298 77.4943 81.4149 73.9581 83.0096C70.422 84.6043 67.7498 87.6525 66.6316 91.3669L79.4701 95.2319ZM78.4633 98.5763L65.6248 94.7114C65.6168 94.7378 65.609 94.7642 65.6012 94.7907L78.4633 98.5763ZM77.6424 105.046L83.2445 92.865C83.9127 93.1724 85.0559 93.818 86.185 95.0414C87.3792 96.3353 88.1654 97.8526 88.5617 99.3437C89.2366 101.883 88.527 103.352 88.8723 102.203L76.032 98.3436L63.1917 94.4846C62.368 97.2253 61.4039 101.558 62.6463 106.232C64.177 111.991 68.2061 115.464 72.0403 117.228L77.6424 105.046ZM76.032 98.3436L88.8661 102.223L90.1116 98.1031L77.2775 94.2235L64.4434 90.3438L63.1979 94.464L76.032 98.3436ZM77.2775 94.2235L82.8796 82.0423C78.7223 80.1304 73.5237 80.0297 68.9332 82.7794C65.1651 85.0366 63.2704 88.3558 62.3567 90.3426L74.538 95.9446L86.7192 101.547C86.5786 101.852 85.5543 104.081 82.7129 105.783C81.1489 106.72 79.1967 107.385 77.0047 107.462C74.8524 107.537 73.0283 107.027 71.6754 106.405L77.2775 94.2235ZM74.538 95.9446L62.3567 90.3426C61.3205 92.5959 60.1481 96.306 61.0454 100.666C62.0824 105.705 65.453 109.476 69.5939 111.38L75.196 99.1988L80.7981 87.0175C83.8184 88.4065 86.5014 91.3299 87.3103 95.2604C87.9794 98.5118 87.0384 100.853 86.7192 101.547L74.538 95.9446ZM75.196 99.1988L63.0148 93.5967L61.3342 97.2511L73.5154 102.853L85.6966 108.455L87.3772 104.801L75.196 99.1988ZM73.5154 102.853L79.1175 90.6719C80.1072 91.1271 81.1738 91.8857 82.0756 93.0029C82.9696 94.1105 83.4913 95.3095 83.7424 96.3922C84.221 98.4563 83.6919 99.7862 83.5521 100.09L71.3708 94.4881L59.1896 88.886C57.47 92.6251 56.4539 97.4204 57.6202 102.45C58.8797 107.881 62.5013 112.545 67.9133 115.034L73.5154 102.853ZM71.3708 94.4881L83.5521 100.09C83.5316 100.135 82.9151 101.518 80.8738 102.568C79.775 103.134 78.4802 103.473 77.135 103.472C75.8211 103.472 74.8653 103.149 74.3695 102.921L79.9716 90.74L85.5736 78.5588C80.2236 76.0984 74.1072 75.8928 68.6035 78.7251C63.6623 81.2679 60.7674 85.4551 59.1896 88.886L71.3708 94.4881ZM79.9716 90.74L74.3695 102.921L77.829 104.512L83.431 92.331L89.0331 80.1498L85.5736 78.5588L79.9716 90.74ZM83.431 92.331L95.6123 97.9331L96.4302 96.1546L84.2489 90.5526L72.0677 84.9505L71.2498 86.729L83.431 92.331ZM84.2489 90.5526L78.6469 102.734L82.0576 104.302L87.6597 92.1211L93.2618 79.9399L89.851 78.3713L84.2489 90.5526ZM87.6597 92.1211L75.4785 86.5191L74.2348 89.2233L86.416 94.8254L98.5973 100.427L99.8409 97.7232L87.6597 92.1211ZM86.416 94.8254L74.2348 89.2233C74.9971 87.5658 76.8875 84.7826 80.667 83.3843C84.4464 81.9861 87.6931 82.8688 89.3506 83.631L83.7485 95.8123L78.1465 107.993C80.9734 109.294 85.2849 110.268 89.9713 108.534C94.6577 106.8 97.2972 103.254 98.5973 100.427L86.416 94.8254ZM83.7485 95.8123L89.3506 83.631L89.107 83.519L83.5049 95.7002L77.9028 107.881L78.1465 107.993L83.7485 95.8123ZM83.5049 95.7002L93.3611 86.6106L92.1795 85.3293L82.3233 94.4189L72.467 103.508L73.6487 104.79L83.5049 95.7002ZM82.3233 94.4189L70.142 88.8168L69.6939 89.7913L81.8751 95.3934L94.0563 100.995L94.5045 100.021L82.3233 94.4189ZM81.8751 95.3934L73.7237 106.039C73.424 105.809 71.8019 104.501 71.0182 101.858C70.1777 99.0248 70.9661 96.9726 71.1284 96.6197L83.3096 102.222L95.4909 107.824C97.2329 104.036 98.2208 99.2715 96.7266 94.2335C95.289 89.3864 92.1597 86.3817 90.0265 84.7482L81.8751 95.3934ZM83.3096 102.222L71.1284 96.6197C71.4474 95.9261 72.9763 93.447 76.5611 92.4086C79.6255 91.5209 82.0738 92.3267 83.2445 92.865L77.6424 105.046L72.0403 117.228C74.4778 118.348 78.8802 119.654 84.0218 118.165C89.6837 116.525 93.4128 112.342 95.4909 107.824L83.3096 102.222ZM78.7042 100.812L73.1021 112.993C78.3311 115.398 83.7437 114.283 87.4661 111.601C90.3818 109.499 91.8091 106.845 92.4274 105.5L80.2462 99.898L68.065 94.2959C68.3808 93.6092 69.3904 91.5741 71.7873 89.8466C73.1282 88.8802 75.0726 87.9001 77.5522 87.593C80.1008 87.2772 82.4361 87.7708 84.3063 88.6309L78.7042 100.812ZM80.2462 99.898L92.4274 105.5C93.6055 102.938 94.7129 99.1955 94.0372 94.9257C93.267 90.0592 90.2318 85.4235 85.0722 83.0506L79.4701 95.2319L73.8681 107.413C72.2833 106.684 70.7375 105.503 69.5338 103.852C68.3505 102.229 67.7763 100.538 67.5515 99.1172C67.1327 96.4709 67.8729 94.7137 68.065 94.2959L80.2462 99.898ZM79.4701 95.2319L66.6316 91.3669L65.6248 94.7114L78.4633 98.5763L91.3018 102.441L92.3087 99.0968L79.4701 95.2319ZM78.4633 98.5763L65.6012 94.7907C65.5289 95.0362 64.6419 97.6943 64.7896 100.699C64.8837 102.612 65.395 105.273 67.1403 107.907C68.9011 110.564 71.2065 112.122 73.1021 112.993L78.7042 100.812L84.3063 88.6309C85.8487 89.3403 87.9014 90.6926 89.4934 93.0951C91.0699 95.4742 91.4963 97.8309 91.5726 99.3819C91.6422 100.799 91.4363 101.831 91.3804 102.103C91.314 102.426 91.2596 102.586 91.3255 102.362L78.4633 98.5763ZM81.098 73.9318L94.4577 72.7983L81.098 73.9318ZM91.4442 76.9292L104.804 75.7957C104.178 68.4173 97.689 62.9435 90.3107 63.5696L91.4442 76.9292ZM91.807 81.2043L92.9405 94.564C96.4837 94.2634 99.7624 92.5675 102.055 89.8495C104.348 87.1315 105.467 83.614 105.167 80.0708L91.807 81.2043ZM78.3137 82.3492L64.954 83.4827C65.5801 90.8611 72.0689 96.3349 79.4472 95.7089L78.3137 82.3492ZM77.951 78.0741L76.8174 64.7144C73.2742 65.0151 69.9956 66.7109 67.7027 69.4289C65.4099 72.1469 64.2907 75.6644 64.5913 79.2076L77.951 78.0741ZM79.5808 77.9358L82.7302 64.9033C81.3294 64.5648 79.8832 64.4543 78.4473 64.5761L79.5808 77.9358ZM82.0536 78.5334L78.9043 91.5659C83.0935 92.5782 87.514 91.515 90.7847 88.7085C94.0554 85.9019 95.7776 81.6942 95.4133 77.3998L82.0536 78.5334ZM81.9629 77.4646L95.3226 76.331C94.7913 70.0694 89.9823 65.0169 83.7545 64.1772L81.9629 77.4646ZM90.5193 66.0277L103.879 64.8942C103.253 57.5159 96.7641 52.042 89.3857 52.6681L90.5193 66.0277ZM90.882 70.3028L92.0155 83.6625C95.5587 83.3619 98.8374 81.666 101.13 78.948C103.423 76.23 104.542 72.7125 104.242 69.1693L90.882 70.3028ZM81.098 73.9318L67.7384 75.0653C68.033 78.5383 69.4751 83.8252 74.5788 87.5078C79.1844 90.8309 84.2994 90.9913 87.5813 90.7128L86.4477 77.3532L85.3142 63.9935C84.8019 64.037 87.3406 63.649 90.2692 65.7621C93.6959 68.2346 94.3602 71.6499 94.4577 72.7983L81.098 73.9318ZM86.4477 77.3532L87.5813 90.7128L92.5778 90.2889L91.4442 76.9292L90.3107 63.5696L85.3142 63.9935L86.4477 77.3532ZM91.4442 76.9292L78.0846 78.0628L78.4473 82.3379L91.807 81.2043L105.167 80.0708L104.804 75.7957L91.4442 76.9292ZM91.807 81.2043L90.6734 67.8447L77.1802 68.9895L78.3137 82.3492L79.4472 95.7089L92.9405 94.564L91.807 81.2043ZM78.3137 82.3492L91.6734 81.2157L91.3106 76.9406L77.951 78.0741L64.5913 79.2076L64.954 83.4827L78.3137 82.3492ZM77.951 78.0741L79.0845 91.4338L80.7144 91.2955L79.5808 77.9358L78.4473 64.5761L76.8174 64.7144L77.951 78.0741ZM79.5808 77.9358L76.4315 90.9684L78.9043 91.5659L82.0536 78.5334L85.2029 65.5008L82.7302 64.9033L79.5808 77.9358ZM82.0536 78.5334L95.4133 77.3998L95.3226 76.331L81.9629 77.4646L68.6033 78.5981L68.6939 79.6669L82.0536 78.5334ZM81.9629 77.4646L83.7545 64.1772C84.6689 64.3004 86.2921 64.7502 87.8683 66.2068C89.6162 67.8221 90.4435 69.8922 90.5878 71.5926L77.2281 72.7262L63.8684 73.8597C64.2575 78.4458 66.2272 82.7199 69.6688 85.9004C72.9387 88.9223 76.8068 90.2984 80.1713 90.752L81.9629 77.4646ZM77.2281 72.7262L90.5878 71.5926C90.7068 72.9957 90.3411 75.6341 88.1719 77.8676C87.2248 78.8428 86.2488 79.3925 85.5374 79.6817C84.8498 79.9612 84.4054 80.0023 84.3584 80.0063L83.2249 66.6466L82.0913 53.287C77.9361 53.6396 72.8927 55.1108 68.9356 59.1854C64.7369 63.5086 63.4569 69.0099 63.8684 73.8597L77.2281 72.7262ZM83.2249 66.6466L84.3584 80.0063L91.6528 79.3874L90.5193 66.0277L89.3857 52.6681L82.0913 53.287L83.2249 66.6466ZM90.5193 66.0277L77.1596 67.1613L77.5223 71.4364L90.882 70.3028L104.242 69.1693L103.879 64.8942L90.5193 66.0277ZM90.882 70.3028L89.7485 56.9432L83.1221 57.5054L84.2556 70.8651L85.3891 84.2247L92.0155 83.6625L90.882 70.3028ZM84.2556 70.8651L83.1221 57.5054C81.3236 57.658 76.4288 58.1723 72.4078 62.0297C67.6395 66.604 67.5054 72.32 67.7384 75.0653L81.098 73.9318L94.4577 72.7983C94.5161 73.4862 94.7317 77.7732 90.9713 81.3806C89.3662 82.9203 87.7308 83.6094 86.8029 83.9076C86.3315 84.0591 85.9629 84.136 85.7471 84.1742C85.5288 84.2129 85.3994 84.2239 85.3891 84.2247L84.2556 70.8651ZM79.5293 40.4207L92.8071 38.5588C92.2976 34.9254 90.3214 31.6596 87.3392 29.5225C84.357 27.3854 80.6293 26.5637 77.0249 27.249L79.5293 40.4207ZM80.1251 44.6696L83.7256 57.5848C90.1987 55.7802 94.3361 49.4625 93.4029 42.8077L80.1251 44.6696ZM78.4406 47.9114L91.7184 46.0495L78.4406 47.9114ZM82.1123 50.5376L83.9743 63.8153L82.1123 50.5376ZM84.9467 46.9991L98.2245 45.1372V45.1372L84.9467 46.9991ZM82.4355 44.3456L69.1577 46.2075C70.0909 52.8624 75.8064 57.7985 82.5262 57.753L82.4355 44.3456ZM81.8397 40.0967L80.6246 26.7442C76.9708 27.0767 73.6129 28.892 71.3335 31.7669C69.0541 34.6419 68.0524 38.3253 68.5619 41.9586L81.8397 40.0967ZM82.7081 54.7864L80.8462 41.5087C81.8129 41.3731 83.8971 41.5255 85.8317 43.1317C87.5905 44.5918 87.9474 46.1913 88.0006 46.5708L74.7228 48.4328L61.4451 50.2947C62.0978 54.9497 64.2167 60.0388 68.7029 63.7633C73.365 67.6339 79.1421 68.8254 84.5701 68.0642L82.7081 54.7864ZM74.7228 48.4328L88.0006 46.5708C88.0587 46.9851 88.1324 48.1757 87.2876 49.729C86.8373 50.557 86.1324 51.4544 85.1184 52.2104C84.088 52.9787 82.9935 53.4099 82.0337 53.5924L79.5293 40.4207L77.0249 27.249C70.9763 28.3991 66.3429 32.1143 63.7307 36.9176C61.3037 41.3802 60.8731 46.2157 61.4451 50.2947L74.7228 48.4328ZM79.5293 40.4207L66.2516 42.2826L66.8474 46.5315L80.1251 44.6696L93.4029 42.8077L92.8071 38.5588L79.5293 40.4207ZM80.1251 44.6696L76.5247 31.7544C67.1367 34.3715 64.2665 43.3813 65.1628 49.7733L78.4406 47.9114L91.7184 46.0495C91.9244 47.519 91.8355 49.7957 90.5204 52.2032C89.1525 54.7073 86.7494 56.7418 83.7256 57.5848L80.1251 44.6696ZM78.4406 47.9114L65.1628 49.7733C65.6757 53.4304 67.4875 57.9565 71.9126 61.0628C76.1736 64.0538 80.7843 64.2626 83.9743 63.8153L82.1123 50.5376L80.2504 37.2598C81.3956 37.0992 84.3119 37.0041 87.319 39.1149C90.4902 41.341 91.4885 44.4107 91.7184 46.0495L78.4406 47.9114ZM82.1123 50.5376L83.9743 63.8153C87.1367 63.3718 91.5205 61.9233 94.8117 57.8791C98.241 53.6652 98.7375 48.7959 98.2245 45.1372L84.9467 46.9991L71.6689 48.861C71.4389 47.2205 71.5539 43.9752 74.0131 40.9533C76.3342 38.1012 79.1593 37.4128 80.2504 37.2598L82.1123 50.5376ZM84.9467 46.9991L98.2245 45.1372C97.3281 38.7452 92.0905 30.8723 82.3447 30.9382L82.4355 44.3456L82.5262 57.753C79.3871 57.7742 76.5171 56.4791 74.5133 54.4479C72.5867 52.4949 71.875 50.3305 71.6689 48.861L84.9467 46.9991ZM82.4355 44.3456L95.7132 42.4837L95.1174 38.2348L81.8397 40.0967L68.5619 41.9586L69.1577 46.2075L82.4355 44.3456ZM81.8397 40.0967L83.0547 53.4492C82.0817 53.5378 80.9108 53.4243 79.7089 52.969C78.526 52.521 77.6015 51.8521 76.9408 51.1799C75.7014 49.9189 75.4448 48.754 75.3867 48.3397L88.6645 46.4777L101.942 44.6158C101.37 40.5369 99.6262 36.0063 96.0654 32.3833C92.2328 28.4838 86.7562 26.1863 80.6246 26.7442L81.8397 40.0967ZM88.6645 46.4777L75.3867 48.3397C75.3334 47.9597 75.236 46.3151 76.5332 44.4216C77.9578 42.3423 79.916 41.6391 80.8462 41.5087L82.7081 54.7864L84.5701 68.0642C89.9882 67.3044 95.2243 64.5846 98.655 59.5772C101.958 54.7555 102.595 49.2712 101.942 44.6158L88.6645 46.4777ZM77.9148 14.0384L91.1925 12.1764C90.1642 4.84335 83.3859 -0.267698 76.0528 0.760617L77.9148 14.0384ZM79.341 24.2091L66.0632 26.0711C67.0915 33.4042 73.8698 38.5152 81.2029 37.4869L79.341 24.2091ZM79.5323 17.6566L66.2546 19.5185C67.1004 25.5502 71.9055 30.2539 77.9538 30.971L79.5323 17.6566ZM78.9365 13.4077L78.8938 8.70686e-05C75.0206 0.0124065 71.3419 1.69916 68.805 4.62603C66.2681 7.55289 65.1209 11.4339 65.6587 15.2696L78.9365 13.4077ZM76.951 24.5443L78.8129 37.822C86.146 36.7937 91.2571 30.0155 90.2287 22.6824L76.951 24.5443ZM76.0833 18.3568L89.3611 16.4949C88.3328 9.16182 81.5545 4.05077 74.2214 5.07909L76.0833 18.3568ZM74.5008 21.7469L87.7786 19.8849V19.8849L74.5008 21.7469ZM78.8373 28.3414L76.9754 15.0637C78.0008 14.9199 80.0506 15.0789 81.9756 16.6283C83.7868 18.0861 84.2422 19.7693 84.3263 20.369L71.0486 22.231L57.7708 24.0929C58.4396 28.8618 60.665 33.8982 65.1622 37.5178C69.7732 41.2291 75.425 42.3588 80.6993 41.6192L78.8373 28.3414ZM71.0486 22.231L84.3263 20.369C84.3942 20.8527 84.4582 22.4943 83.193 24.3715C81.8067 26.4283 79.7934 27.3138 78.4489 27.5023L76.587 14.2246L74.7251 0.946799C69.3176 1.70508 64.2427 4.50911 60.9568 9.38444C57.792 14.0801 57.1184 19.44 57.7708 24.0929L71.0486 22.231ZM76.587 14.2246L78.4489 27.5023L79.7767 27.3161L77.9148 14.0384L76.0528 0.760617L74.7251 0.946799L76.587 14.2246ZM77.9148 14.0384L64.637 15.9003L66.0632 26.0711L79.341 24.2091L92.6187 22.3472L91.1925 12.1764L77.9148 14.0384ZM79.341 24.2091L81.2029 37.4869C85.4408 36.8926 89.9075 34.5374 92.6438 29.9247C95.1168 25.756 95.171 21.4312 94.7525 18.4467L81.4747 20.3086L68.197 22.1705C68.1173 21.6025 67.8747 19.12 69.5812 16.2434C71.551 12.9229 74.7814 11.3097 77.4791 10.9314L79.341 24.2091ZM81.4747 20.3086L94.7525 18.4467C94.3144 15.3227 91.7017 5.59773 81.1108 4.34214L79.5323 17.6566L77.9538 30.971C74.0363 30.5066 71.3268 28.2576 69.8964 26.2491C68.6169 24.4524 68.292 22.848 68.197 22.1705L81.4747 20.3086ZM79.5323 17.6566L92.8101 15.7947L92.2143 11.5458L78.9365 13.4077L65.6587 15.2696L66.2546 19.5185L79.5323 17.6566ZM78.9365 13.4077L78.9791 26.8153C76.3669 26.8236 74.6161 25.852 73.5941 24.9568C72.273 23.7996 71.7568 22.4543 71.6492 21.6864L84.9269 19.8245L98.2047 17.9626C96.6395 6.801 87.6941 -0.0279074 78.8938 8.70686e-05L78.9365 13.4077ZM84.9269 19.8245L71.6492 21.6864C71.5872 21.2447 71.5676 19.3591 73.1185 17.4257C74.5254 15.6718 76.1945 15.1732 76.9754 15.0637L78.8373 28.3414L80.6993 41.6192C85.2776 40.9772 90.3527 38.7959 94.0357 34.2046C97.8626 29.4339 98.989 23.556 98.2047 17.9626L84.9269 19.8245ZM76.951 24.5443L90.2287 22.6824L89.3611 16.4949L76.0833 18.3568L62.8056 20.2188L63.6732 26.4062L76.951 24.5443ZM76.0833 18.3568L74.2214 5.07909C70.2249 5.63951 65.858 7.9085 63.2005 12.4759C60.8165 16.5734 60.8273 20.7868 61.223 23.6088L74.5008 21.7469L87.7786 19.8849C87.8429 20.3435 88.1404 22.9326 86.3782 25.9614C84.3426 29.46 80.9327 31.2157 77.9452 31.6346L76.0833 18.3568ZM74.5008 21.7469L61.223 23.6088C61.6175 26.4214 62.7683 30.5187 66.2501 33.8176C70.131 37.4948 74.9601 38.3623 78.8129 37.822L76.951 24.5443L75.0891 11.2665C77.9328 10.8678 81.7025 11.5183 84.6934 14.3522C87.2852 16.8079 87.7156 19.4358 87.7786 19.8849L74.5008 21.7469Z" fill="#000D31" mask="url(#path-1-outside-1_483_882)"/>
</svg>
