<svg width="24" height="24" viewBox="0 0 24 24" fill="none" xmlns="http://www.w3.org/2000/svg">
    <path
      d="M12 4C7.582 4 4 7.672 4 12.2C4 15.823 6.292 18.894 9.47 19.978C9.87 20.054 10.016 19.801 10.016 19.584C10.016 19.389 10.008 18.741 10.004 17.881C7.776 18.377 7.306 16.78 7.306 16.78C6.942 15.825 6.416 15.571 6.416 15.571C5.69 15.06 6.47 15.07 6.47 15.07C7.274 15.128 7.697 15.916 7.697 15.916C8.411 17.165 9.571 16.805 10.028 16.595C10.101 16.065 10.307 15.703 10.534 15.499C8.756 15.29 6.888 14.584 6.888 11.433C6.888 10.535 7.204 9.8 7.723 9.221C7.64 9.014 7.363 8.178 7.801 7.046C7.801 7.046 8.473 6.826 10.001 7.886C10.641 7.704 11.327 7.612 12.008 7.609C12.689 7.612 13.375 7.704 14.016 7.886C15.542 6.826 16.213 7.046 16.213 7.046C16.652 8.178 16.375 9.014 16.292 9.221C16.813 9.8 17.126 10.535 17.126 11.433C17.126 14.592 15.254 15.287 13.472 15.492C13.757 15.745 14.01 16.24 14.01 17C14.01 18.09 14 19.279 14 19.584C14 19.803 14.144 20.058 14.552 19.977C17.727 18.891 20.016 15.821 20.016 12.2C20.016 7.672 16.434 4 12.016 4H12Z"
      fill="currentColor"
    />
  </svg>