<svg width="11" height="11" viewBox="0 0 11 11" fill="none" xmlns="http://www.w3.org/2000/svg">
<path d="M10.2173 4.36149L5.84227 0.233679C5.84013 0.231813 5.83812 0.229804 5.83625 0.227664C5.67517 0.081174 5.46527 0 5.24754 0C5.02981 0 4.81991 0.081174 4.65883 0.227664L4.65281 0.233679L0.282734 4.36149C0.193593 4.44346 0.122436 4.54304 0.0737688 4.65393C0.0251011 4.76482 -1.83984e-05 4.88461 1.01105e-08 5.00571V10.0616C1.01105e-08 10.2936 0.0921872 10.5162 0.256282 10.6803C0.420376 10.8444 0.642936 10.9366 0.875 10.9366H3.5C3.73206 10.9366 3.95462 10.8444 4.11872 10.6803C4.28281 10.5162 4.375 10.2936 4.375 10.0616V7.43657H6.125V10.0616C6.125 10.2936 6.21719 10.5162 6.38128 10.6803C6.54538 10.8444 6.76794 10.9366 7 10.9366H9.625C9.85707 10.9366 10.0796 10.8444 10.2437 10.6803C10.4078 10.5162 10.5 10.2936 10.5 10.0616V5.00571C10.5 4.88461 10.4749 4.76482 10.4262 4.65393C10.3776 4.54304 10.3064 4.44346 10.2173 4.36149ZM9.625 10.0616H7V7.43657C7 7.20451 6.90781 6.98195 6.74372 6.81785C6.57962 6.65376 6.35706 6.56157 6.125 6.56157H4.375C4.14294 6.56157 3.92038 6.65376 3.75628 6.81785C3.59219 6.98195 3.5 7.20451 3.5 7.43657V10.0616H0.875V5.00571L0.881016 5.00024L5.25 0.87407L9.61953 4.99915L9.62555 5.00462L9.625 10.0616Z" fill="currentColor"/>
</svg>
