<svg width="144" height="46" viewBox="0 0 144 46" fill="none" xmlns="http://www.w3.org/2000/svg">
<mask id="path-1-outside-1_483_876" maskUnits="userSpaceOnUse" x="-0.201172" y="-0.6875" width="145" height="47" fill="black">
<rect fill="white" x="-0.201172" y="-0.6875" width="145" height="47"/>
<path d="M27.1908 13.4077H31.4813V32.3125H27.1908V24.9919H17.6982V32.3125H13.4077V13.4077H17.6982V21.2378H27.1908V13.4077ZM34.1739 32.3125V13.4077H41.4945C45.9995 13.4077 49.9145 14.4535 49.9145 18.6903C49.9145 21.8009 47.3939 22.659 45.1146 22.9271V23.9997H47.8766C49.3514 23.9997 50.1559 24.8042 50.1559 26.279V32.3125H45.8654V25.6623H38.4644V32.3125H34.1739ZM38.4644 21.9081H41.4945C44.042 21.9081 45.6241 21.9081 45.6241 19.5484C45.6241 17.1618 44.042 17.1618 41.4945 17.1618H38.4644V21.9081ZM76.7324 13.4077V17.1618H70.5648V32.3125H66.2744V17.1618H60.08V13.4077H76.7324ZM74.3058 25.3673C74.3058 21.0769 77.2287 18.5026 81.4387 18.5026C85.6487 18.5026 88.5984 20.9964 88.5984 25.0992V26.4399H78.3281C78.3281 27.9952 79.4543 29.0947 81.8945 29.0947C83.3962 29.0947 84.5224 28.5584 84.7906 27.5394H89.081C88.8129 29.4969 86.5872 32.5807 81.8945 32.5807C76.6924 32.5807 74.3058 29.2019 74.3058 25.3673ZM78.3281 24.0266H84.5761C84.5761 23.0076 83.8252 21.9886 81.4387 21.9886C79.0521 21.9886 78.3281 23.0076 78.3281 24.0266ZM90.4107 28.612C90.4107 26.279 91.8051 24.9115 95.8274 24.3483L100.091 23.7584C100.091 22.659 99.233 21.9886 97.3827 21.9886C95.6665 21.9886 94.7012 22.7126 94.7012 23.9461H90.6789C90.6789 20.5138 93.6017 18.5026 97.3827 18.5026C101.11 18.5026 104.382 20.2992 104.382 24.7506V28.5584H106.339V32.3125H103.363C102.075 32.3125 101.351 31.5885 101.351 30.3013V30.0332L102.022 28.4243H100.949C100.44 30.6768 99.1257 32.5807 95.3447 32.5807C91.1347 32.5807 90.4107 30.0064 90.4107 28.612ZM94.7012 27.8075C94.7012 28.5852 95.452 28.8265 96.176 28.8265C98.5358 28.8265 100.091 27.8343 100.091 26.1718L96.6319 26.6545C95.3447 26.8422 94.7012 27.0299 94.7012 27.8075ZM126.069 18.5026C129.529 18.5026 130.574 21.6132 130.574 25.2601V32.3125H126.284V25.555C126.284 22.9808 125.855 22.2567 124.273 22.2567C121.94 22.2567 121.404 24.2947 121.404 27.5662V32.3125H117.113V25.555C117.113 22.9808 116.684 22.2567 115.102 22.2567C112.769 22.2567 112.233 24.2947 112.233 27.5662V32.3125H107.942V18.7708H112.233V20.1383L111.428 22.5517H112.501C113.037 20.1383 114.271 18.5026 116.899 18.5026C119.446 18.5026 120.519 20.192 120.921 22.5517H121.699C122.235 20.1383 123.442 18.5026 126.069 18.5026Z"/>
</mask>
<path d="M27.1908 13.4077H31.4813V32.3125H27.1908V24.9919H17.6982V32.3125H13.4077V13.4077H17.6982V21.2378H27.1908V13.4077ZM34.1739 32.3125V13.4077H41.4945C45.9995 13.4077 49.9145 14.4535 49.9145 18.6903C49.9145 21.8009 47.3939 22.659 45.1146 22.9271V23.9997H47.8766C49.3514 23.9997 50.1559 24.8042 50.1559 26.279V32.3125H45.8654V25.6623H38.4644V32.3125H34.1739ZM38.4644 21.9081H41.4945C44.042 21.9081 45.6241 21.9081 45.6241 19.5484C45.6241 17.1618 44.042 17.1618 41.4945 17.1618H38.4644V21.9081ZM76.7324 13.4077V17.1618H70.5648V32.3125H66.2744V17.1618H60.08V13.4077H76.7324ZM74.3058 25.3673C74.3058 21.0769 77.2287 18.5026 81.4387 18.5026C85.6487 18.5026 88.5984 20.9964 88.5984 25.0992V26.4399H78.3281C78.3281 27.9952 79.4543 29.0947 81.8945 29.0947C83.3962 29.0947 84.5224 28.5584 84.7906 27.5394H89.081C88.8129 29.4969 86.5872 32.5807 81.8945 32.5807C76.6924 32.5807 74.3058 29.2019 74.3058 25.3673ZM78.3281 24.0266H84.5761C84.5761 23.0076 83.8252 21.9886 81.4387 21.9886C79.0521 21.9886 78.3281 23.0076 78.3281 24.0266ZM90.4107 28.612C90.4107 26.279 91.8051 24.9115 95.8274 24.3483L100.091 23.7584C100.091 22.659 99.233 21.9886 97.3827 21.9886C95.6665 21.9886 94.7012 22.7126 94.7012 23.9461H90.6789C90.6789 20.5138 93.6017 18.5026 97.3827 18.5026C101.11 18.5026 104.382 20.2992 104.382 24.7506V28.5584H106.339V32.3125H103.363C102.075 32.3125 101.351 31.5885 101.351 30.3013V30.0332L102.022 28.4243H100.949C100.44 30.6768 99.1257 32.5807 95.3447 32.5807C91.1347 32.5807 90.4107 30.0064 90.4107 28.612ZM94.7012 27.8075C94.7012 28.5852 95.452 28.8265 96.176 28.8265C98.5358 28.8265 100.091 27.8343 100.091 26.1718L96.6319 26.6545C95.3447 26.8422 94.7012 27.0299 94.7012 27.8075ZM126.069 18.5026C129.529 18.5026 130.574 21.6132 130.574 25.2601V32.3125H126.284V25.555C126.284 22.9808 125.855 22.2567 124.273 22.2567C121.94 22.2567 121.404 24.2947 121.404 27.5662V32.3125H117.113V25.555C117.113 22.9808 116.684 22.2567 115.102 22.2567C112.769 22.2567 112.233 24.2947 112.233 27.5662V32.3125H107.942V18.7708H112.233V20.1383L111.428 22.5517H112.501C113.037 20.1383 114.271 18.5026 116.899 18.5026C119.446 18.5026 120.519 20.192 120.921 22.5517H121.699C122.235 20.1383 123.442 18.5026 126.069 18.5026Z" fill="#A1C4FF"/>
<path d="M27.1908 13.4077V1.90735e-05C19.786 1.90735e-05 13.7832 6.00284 13.7832 13.4077H27.1908ZM31.4813 13.4077H44.889C44.889 6.00284 38.8861 1.90735e-05 31.4813 1.90735e-05V13.4077ZM31.4813 32.3125V45.7202C38.8861 45.7202 44.889 39.7174 44.889 32.3125H31.4813ZM27.1908 32.3125H13.7832C13.7832 39.7174 19.786 45.7202 27.1908 45.7202V32.3125ZM27.1908 24.9919H40.5985C40.5985 17.5871 34.5957 11.5842 27.1908 11.5842V24.9919ZM17.6982 24.9919V11.5842C10.2934 11.5842 4.29053 17.5871 4.29053 24.9919H17.6982ZM17.6982 32.3125V45.7202C25.1031 45.7202 31.1059 39.7174 31.1059 32.3125H17.6982ZM13.4077 32.3125H8.01086e-05C8.01086e-05 39.7174 6.0029 45.7202 13.4077 45.7202V32.3125ZM13.4077 13.4077V1.90735e-05C6.0029 1.90735e-05 8.01086e-05 6.00284 8.01086e-05 13.4077H13.4077ZM17.6982 13.4077H31.1059C31.1059 6.00284 25.1031 1.90735e-05 17.6982 1.90735e-05V13.4077ZM17.6982 21.2378H4.29053C4.29053 28.6426 10.2934 34.6454 17.6982 34.6454V21.2378ZM27.1908 21.2378V34.6454C34.5957 34.6454 40.5985 28.6426 40.5985 21.2378H27.1908ZM27.1908 13.4077V26.8154H31.4813V13.4077V1.90735e-05H27.1908V13.4077ZM31.4813 13.4077H18.0736V32.3125H31.4813H44.889V13.4077H31.4813ZM31.4813 32.3125V18.9048H27.1908V32.3125V45.7202H31.4813V32.3125ZM27.1908 32.3125H40.5985V24.9919H27.1908H13.7832V32.3125H27.1908ZM27.1908 24.9919V11.5842H17.6982V24.9919V38.3996H27.1908V24.9919ZM17.6982 24.9919H4.29053V32.3125H17.6982H31.1059V24.9919H17.6982ZM17.6982 32.3125V18.9048H13.4077V32.3125V45.7202H17.6982V32.3125ZM13.4077 32.3125H26.8154V13.4077H13.4077H8.01086e-05V32.3125H13.4077ZM13.4077 13.4077V26.8154H17.6982V13.4077V1.90735e-05H13.4077V13.4077ZM17.6982 13.4077H4.29053V21.2378H17.6982H31.1059V13.4077H17.6982ZM17.6982 21.2378V34.6454H27.1908V21.2378V7.8301H17.6982V21.2378ZM27.1908 21.2378H40.5985V13.4077H27.1908H13.7832V21.2378H27.1908ZM34.1739 32.3125H20.7663C20.7663 39.7174 26.7691 45.7202 34.1739 45.7202V32.3125ZM34.1739 13.4077V1.90735e-05C26.7691 1.90735e-05 20.7663 6.00284 20.7663 13.4077H34.1739ZM45.1146 22.9271L43.548 9.6113C36.7957 10.4057 31.7069 16.1283 31.7069 22.9271H45.1146ZM45.1146 23.9997H31.7069C31.7069 31.4046 37.7097 37.4074 45.1146 37.4074V23.9997ZM50.1559 32.3125V45.7202C57.5607 45.7202 63.5635 39.7174 63.5635 32.3125H50.1559ZM45.8654 32.3125H32.4577C32.4577 39.7174 38.4606 45.7202 45.8654 45.7202V32.3125ZM45.8654 25.6623H59.2731C59.2731 18.2574 53.2703 12.2546 45.8654 12.2546V25.6623ZM38.4644 25.6623V12.2546C31.0595 12.2546 25.0567 18.2574 25.0567 25.6623H38.4644ZM38.4644 32.3125V45.7202C45.8692 45.7202 51.872 39.7174 51.872 32.3125H38.4644ZM38.4644 21.9081H25.0567C25.0567 29.313 31.0595 35.3158 38.4644 35.3158V21.9081ZM38.4644 17.1618V3.75417C31.0595 3.75417 25.0567 9.75698 25.0567 17.1618H38.4644ZM34.1739 32.3125H47.5816V13.4077H34.1739H20.7663V32.3125H34.1739ZM34.1739 13.4077V26.8154H41.4945V13.4077V1.90735e-05H34.1739V13.4077ZM41.4945 13.4077V26.8154C42.1439 26.8154 42.4672 26.8561 42.5388 26.8679C42.6452 26.8853 42.1134 26.8203 41.2736 26.3895C40.352 25.9167 38.9767 24.9507 37.8905 23.2278C36.7827 21.4706 36.5069 19.768 36.5069 18.6903H49.9145H63.3222C63.3222 15.4942 62.5569 12.072 60.5743 8.92717C58.6133 5.81657 55.9776 3.79477 53.5141 2.53089C49.0505 0.240879 44.3 1.90735e-05 41.4945 1.90735e-05V13.4077ZM49.9145 18.6903H36.5069C36.5069 17.6123 36.7392 16.0738 37.5938 14.4331C38.4507 12.7878 39.6306 11.6213 40.7103 10.8699C42.5324 9.60172 43.994 9.55882 43.548 9.6113L45.1146 22.9271L46.6811 36.243C48.5144 36.0273 52.3761 35.4213 56.0283 32.8794C60.5646 29.7223 63.3222 24.6095 63.3222 18.6903H49.9145ZM45.1146 22.9271H31.7069V23.9997H45.1146H58.5222V22.9271H45.1146ZM45.1146 23.9997V37.4074H47.8766V23.9997V10.5921H45.1146V23.9997ZM47.8766 23.9997V37.4074C46.2511 37.4074 42.9513 36.9297 40.0886 34.067C37.2259 31.2043 36.7482 27.9045 36.7482 26.279H50.1559H63.5635C63.5635 23.1788 62.6836 18.7393 59.0499 15.1057C55.4163 11.472 50.9769 10.5921 47.8766 10.5921V23.9997ZM50.1559 26.279H36.7482V32.3125H50.1559H63.5635V26.279H50.1559ZM50.1559 32.3125V18.9048H45.8654V32.3125V45.7202H50.1559V32.3125ZM45.8654 32.3125H59.2731V25.6623H45.8654H32.4577V32.3125H45.8654ZM45.8654 25.6623V12.2546H38.4644V25.6623V39.07H45.8654V25.6623ZM38.4644 25.6623H25.0567V32.3125H38.4644H51.872V25.6623H38.4644ZM38.4644 32.3125V18.9048H34.1739V32.3125V45.7202H38.4644V32.3125ZM38.4644 21.9081V35.3158H41.4945V21.9081V8.50048H38.4644V21.9081ZM41.4945 21.9081V35.3158C41.9923 35.3158 43.0965 35.323 44.1878 35.2436C45.2301 35.1677 47.3278 34.9578 49.6342 34.0049C52.2871 32.9089 55.1049 30.8691 57.0008 27.525C58.7255 24.4827 59.0317 21.5005 59.0317 19.5484H45.6241H32.2164C32.2164 18.7762 32.3249 16.6789 33.6734 14.3003C35.1929 11.6198 37.4561 10.0225 39.395 9.22144C40.9875 8.56352 42.2119 8.50111 42.2411 8.49899C42.3193 8.4933 42.2705 8.50048 41.4945 8.50048V21.9081ZM45.6241 19.5484H59.0317C59.0317 17.6091 58.732 14.6443 57.0326 11.6127C55.1593 8.27083 52.3578 6.20634 49.6838 5.08901C47.3623 4.11902 45.2489 3.90494 44.1988 3.82764C43.1009 3.74682 41.9907 3.75417 41.4945 3.75417V17.1618V30.5695C42.272 30.5695 42.3149 30.5769 42.2301 30.5706C42.1932 30.5679 40.9529 30.503 39.3454 29.8313C37.3853 29.0123 35.1386 27.3953 33.6415 24.7246C32.3184 22.3642 32.2164 20.2944 32.2164 19.5484H45.6241ZM41.4945 17.1618V3.75417H38.4644V17.1618V30.5695H41.4945V17.1618ZM38.4644 17.1618H25.0567V21.9081H38.4644H51.872V17.1618H38.4644ZM76.7324 13.4077H90.14C90.14 6.00284 84.1372 1.90735e-05 76.7324 1.90735e-05V13.4077ZM76.7324 17.1618V30.5695C84.1372 30.5695 90.14 24.5667 90.14 17.1618H76.7324ZM70.5648 17.1618V3.75417C63.16 3.75417 57.1572 9.75698 57.1572 17.1618H70.5648ZM70.5648 32.3125V45.7202C77.9697 45.7202 83.9725 39.7174 83.9725 32.3125H70.5648ZM66.2744 32.3125H52.8667C52.8667 39.7174 58.8695 45.7202 66.2744 45.7202V32.3125ZM66.2744 17.1618H79.6821C79.6821 9.75698 73.6792 3.75417 66.2744 3.75417V17.1618ZM60.08 17.1618H46.6724C46.6724 24.5667 52.6752 30.5695 60.08 30.5695V17.1618ZM60.08 13.4077V1.90735e-05C52.6752 1.90735e-05 46.6724 6.00284 46.6724 13.4077H60.08ZM76.7324 13.4077H63.3247V17.1618H76.7324H90.14V13.4077H76.7324ZM76.7324 17.1618V3.75417H70.5648V17.1618V30.5695H76.7324V17.1618ZM70.5648 17.1618H57.1572V32.3125H70.5648H83.9725V17.1618H70.5648ZM70.5648 32.3125V18.9048H66.2744V32.3125V45.7202H70.5648V32.3125ZM66.2744 32.3125H79.6821V17.1618H66.2744H52.8667V32.3125H66.2744ZM66.2744 17.1618V3.75417H60.08V17.1618V30.5695H66.2744V17.1618ZM60.08 17.1618H73.4877V13.4077H60.08H46.6724V17.1618H60.08ZM60.08 13.4077V26.8154H76.7324V13.4077V1.90735e-05H60.08V13.4077ZM88.5984 26.4399V39.8476C96.0032 39.8476 102.006 33.8448 102.006 26.4399H88.5984ZM78.3281 26.4399V13.0323C70.9232 13.0323 64.9204 19.0351 64.9204 26.4399H78.3281ZM84.7906 27.5394V14.1317C78.6999 14.1317 73.3744 18.237 71.8244 24.1272L84.7906 27.5394ZM89.081 27.5394L102.365 29.359C102.89 25.5216 101.731 21.6443 99.1846 18.7255C96.6384 15.8067 92.9543 14.1317 89.081 14.1317V27.5394ZM78.3281 24.0266H64.9204C64.9204 31.4314 70.9232 37.4342 78.3281 37.4342V24.0266ZM84.5761 24.0266V37.4342C91.9809 37.4342 97.9837 31.4314 97.9837 24.0266H84.5761ZM74.3058 25.3673H87.7135C87.7135 26.4027 87.2713 28.4105 85.4696 30.1017C83.7744 31.693 82.0443 31.9103 81.4387 31.9103V18.5026V5.09493C76.6231 5.09493 71.3265 6.59938 67.1174 10.5503C62.8017 14.6013 60.8981 20.0415 60.8981 25.3673H74.3058ZM81.4387 18.5026V31.9103C80.9503 31.9103 79.3157 31.7458 77.6324 30.2321C75.788 28.5736 75.1907 26.4568 75.1907 25.0992H88.5984H102.006C102.006 19.6388 99.9339 14.2237 95.5621 10.2926C91.3515 6.50635 86.1371 5.09493 81.4387 5.09493V18.5026ZM88.5984 25.0992H75.1907V26.4399H88.5984H102.006V25.0992H88.5984ZM88.5984 26.4399V13.0323H78.3281V26.4399V39.8476H88.5984V26.4399ZM78.3281 26.4399H64.9204C64.9204 30.7193 66.6326 35.4698 70.8205 38.8202C74.6054 41.8481 78.8808 42.5023 81.8945 42.5023V29.0947V15.687C82.468 15.687 84.9602 15.7915 87.5719 17.8809C90.5867 20.2927 91.7358 23.7159 91.7358 26.4399H78.3281ZM81.8945 29.0947V42.5023C85.049 42.5023 95.0426 41.2654 97.7568 30.9515L84.7906 27.5394L71.8244 24.1272C72.8284 20.3121 75.4318 17.9412 77.6195 16.8036C79.5764 15.786 81.2104 15.687 81.8945 15.687V29.0947ZM84.7906 27.5394V40.947H89.081V27.5394V14.1317H84.7906V27.5394ZM89.081 27.5394L75.7974 25.7197C76.152 23.1317 77.3573 21.5327 78.3857 20.6449C79.7151 19.4973 81.1191 19.173 81.8945 19.173V32.5807V45.9883C93.1653 45.9883 101.17 38.0779 102.365 29.359L89.081 27.5394ZM81.8945 32.5807V19.173C82.3405 19.173 84.2106 19.4154 85.9099 21.2197C87.4514 22.8566 87.7135 24.5788 87.7135 25.3673H74.3058H60.8981C60.8981 29.9904 62.3534 35.3193 66.3888 39.6042C70.5819 44.0566 76.2464 45.9883 81.8945 45.9883V32.5807ZM78.3281 24.0266V37.4342H84.5761V24.0266V10.6189H78.3281V24.0266ZM84.5761 24.0266H97.9837C97.9837 19.9909 96.3432 15.3512 92.1891 12.0853C88.4624 9.15532 84.2883 8.58093 81.4387 8.58093V21.9886V35.3963C80.9756 35.3963 78.3702 35.3314 75.6156 33.1656C72.4336 30.6639 71.1684 27.0432 71.1684 24.0266H84.5761ZM81.4387 21.9886V8.58093C78.5986 8.58093 74.3811 9.15166 70.6306 12.1415C66.4502 15.4742 64.9204 20.1361 64.9204 24.0266H78.3281H91.7358C91.7358 26.8981 90.568 30.541 87.3462 33.1094C84.5544 35.335 81.8922 35.3963 81.4387 35.3963V21.9886ZM95.8274 24.3483L93.9898 11.0672C93.9827 11.0682 93.9756 11.0692 93.9685 11.0702L95.8274 24.3483ZM100.091 23.7584L101.929 37.0395C108.56 36.122 113.499 30.4532 113.499 23.7584H100.091ZM94.7012 23.9461V37.3538C102.106 37.3538 108.109 31.351 108.109 23.9461H94.7012ZM90.6789 23.9461H77.2712C77.2712 31.351 83.274 37.3538 90.6789 37.3538V23.9461ZM104.382 28.5584H90.9738C90.9738 35.9632 96.9767 41.966 104.382 41.966V28.5584ZM106.339 28.5584H119.747C119.747 21.1535 113.744 15.1507 106.339 15.1507V28.5584ZM106.339 32.3125V45.7202C113.744 45.7202 119.747 39.7174 119.747 32.3125H106.339ZM101.351 30.0332L88.9751 24.8764C88.2942 26.5104 87.9437 28.263 87.9437 30.0332H101.351ZM102.022 28.4243L114.398 33.5811C116.122 29.443 115.664 24.717 113.178 20.987C110.691 17.257 106.505 15.0166 102.022 15.0166V28.4243ZM100.949 28.4243V15.0166C94.6839 15.0166 89.254 19.3555 87.8718 25.4663L100.949 28.4243ZM100.091 26.1718H113.499C113.499 22.2926 111.819 18.6036 108.892 16.0572C105.966 13.5108 102.08 12.3567 98.2382 12.8928L100.091 26.1718ZM96.6319 26.6545L94.779 13.3754C94.7517 13.3793 94.7243 13.3832 94.6971 13.3871L96.6319 26.6545ZM90.4107 28.612H103.818C103.818 29.3475 103.709 30.6559 103.07 32.1928C102.393 33.8185 101.343 35.1667 100.154 36.1498C98.1293 37.8237 96.4983 37.7928 97.6864 37.6265L95.8274 24.3483L93.9685 11.0702C91.1342 11.467 86.7948 12.4014 83.0674 15.4832C78.4752 19.2799 77.003 24.3917 77.003 28.612H90.4107ZM95.8274 24.3483L97.665 37.6295L101.929 37.0395L100.091 23.7584L98.2534 10.4773L93.9898 11.0672L95.8274 24.3483ZM100.091 23.7584H113.499C113.499 19.1826 111.418 14.4174 107.002 11.3958C103.377 8.91541 99.5695 8.58093 97.3827 8.58093V21.9886V35.3963C97.0462 35.3963 94.5931 35.397 91.8596 33.5267C90.355 32.4972 88.9352 31.0013 87.9498 29.0418C86.9822 27.1178 86.6834 25.2475 86.6834 23.7584H100.091ZM97.3827 21.9886V8.58093C94.9025 8.58093 91.0419 9.06603 87.4558 11.7029C83.3111 14.7504 81.2935 19.3882 81.2935 23.9461H94.7012H108.109C108.109 27.2705 106.574 30.9295 103.341 33.3067C100.667 35.2732 98.1467 35.3963 97.3827 35.3963V21.9886ZM94.7012 23.9461V10.5384H90.6789V23.9461V37.3538H94.7012V23.9461ZM90.6789 23.9461H104.087C104.087 25.0355 103.843 26.3216 103.205 27.6076C102.572 28.8827 101.701 29.8576 100.822 30.5381C99.1466 31.8354 97.7173 31.9103 97.3827 31.9103V18.5026V5.09493C93.2671 5.09493 88.4859 6.17538 84.4039 9.33638C79.9958 12.7499 77.2712 17.9892 77.2712 23.9461H90.6789ZM97.3827 18.5026V31.9103C97.3337 31.9103 95.8194 31.9281 94.0121 30.5124C93.0393 29.7504 92.1901 28.7158 91.6285 27.4934C91.0801 26.2995 90.9738 25.2963 90.9738 24.7506H104.382H117.789C117.789 18.8619 115.42 13.219 110.548 9.40222C106.173 5.97545 101.159 5.09493 97.3827 5.09493V18.5026ZM104.382 24.7506H90.9738V28.5584H104.382H117.789V24.7506H104.382ZM104.382 28.5584V41.966H106.339V28.5584V15.1507H104.382V28.5584ZM106.339 28.5584H92.9314V32.3125H106.339H119.747V28.5584H106.339ZM106.339 32.3125V18.9048H103.363V32.3125V45.7202H106.339V32.3125ZM103.363 32.3125V18.9048C105.187 18.9048 108.505 19.4594 111.355 22.3089C114.204 25.1585 114.759 28.477 114.759 30.3013H101.351H87.9437C87.9437 33.4129 88.8603 37.7369 92.3936 41.2703C95.9269 44.8036 100.251 45.7202 103.363 45.7202V32.3125ZM101.351 30.3013H114.759V30.0332H101.351H87.9437V30.3013H101.351ZM101.351 30.0332L113.728 35.19L114.398 33.5811L102.022 28.4243L89.6454 23.2675L88.9751 24.8764L101.351 30.0332ZM102.022 28.4243V15.0166H100.949V28.4243V41.8319H102.022V28.4243ZM100.949 28.4243L87.8718 25.4663C87.9551 25.0982 88.4658 23.0779 90.5392 21.2617C92.7625 19.3142 94.9563 19.173 95.3447 19.173V32.5807V45.9883C99.5141 45.9883 104.255 44.8952 108.208 41.4326C112.011 38.1013 113.434 34.0028 114.026 31.3822L100.949 28.4243ZM95.3447 32.5807V19.173C96.1083 19.173 98.9994 19.5262 101.441 22.3492C103.527 24.7625 103.818 27.3235 103.818 28.612H90.4107H77.003C77.003 31.2949 77.656 35.8402 81.1573 39.8892C85.013 44.3479 90.3712 45.9883 95.3447 45.9883V32.5807ZM94.7012 27.8075H81.2935C81.2935 33.5629 84.5678 38.0147 88.5605 40.2756C91.6879 42.0466 94.6961 42.2342 96.176 42.2342V28.8265V15.4188C96.9319 15.4188 99.2027 15.4858 101.774 16.9417C103.212 17.7561 104.915 19.1132 106.23 21.2376C107.582 23.4211 108.109 25.749 108.109 27.8075H94.7012ZM96.176 28.8265V42.2342C98.9956 42.2342 102.859 41.6764 106.456 39.2785C110.555 36.5454 113.499 31.8508 113.499 26.1718H100.091H86.6834C86.6834 24.4274 87.111 22.5294 88.1078 20.7461C89.0877 18.9929 90.3841 17.7648 91.5812 16.9667C93.8105 15.4806 95.7162 15.4188 96.176 15.4188V28.8265ZM100.091 26.1718L98.2382 12.8928L94.779 13.3754L96.6319 26.6545L98.4848 39.9335L101.944 39.4508L100.091 26.1718ZM96.6319 26.6545L94.6971 13.3871C94.4438 13.4241 91.6582 13.7288 88.9904 15.1183C87.2913 16.0033 85.087 17.5798 83.4233 20.266C81.7449 22.9759 81.2935 25.721 81.2935 27.8075H94.7012H108.109C108.109 29.5052 107.738 31.9353 106.22 34.3854C104.718 36.8118 102.755 38.1839 101.377 38.9012C100.119 39.5564 99.0957 39.8005 98.8252 39.8634C98.5034 39.9383 98.3357 39.9555 98.5667 39.9218L96.6319 26.6545ZM130.574 32.3125V45.7202C137.979 45.7202 143.982 39.7174 143.982 32.3125H130.574ZM126.284 32.3125H112.876C112.876 39.7174 118.879 45.7202 126.284 45.7202V32.3125ZM121.404 32.3125V45.7202C128.808 45.7202 134.811 39.7174 134.811 32.3125H121.404ZM117.113 32.3125H103.705C103.705 39.7174 109.708 45.7202 117.113 45.7202V32.3125ZM112.233 32.3125V45.7202C119.638 45.7202 125.64 39.7174 125.64 32.3125H112.233ZM107.942 32.3125H94.5346C94.5346 39.7174 100.537 45.7202 107.942 45.7202V32.3125ZM107.942 18.7708V5.36309C100.537 5.36309 94.5346 11.3659 94.5346 18.7708H107.942ZM112.233 18.7708H125.64C125.64 11.3659 119.638 5.36309 112.233 5.36309V18.7708ZM112.233 20.1383L124.952 24.3782C125.408 23.0111 125.64 21.5794 125.64 20.1383H112.233ZM111.428 22.5517L98.7086 18.3118C97.3458 22.4005 98.0314 26.895 100.551 30.3913C103.071 33.8876 107.118 35.9594 111.428 35.9594V22.5517ZM112.501 22.5517V35.9594C118.785 35.9594 124.226 31.5948 125.589 25.4602L112.501 22.5517ZM120.921 22.5517L107.704 24.8046C108.802 31.2472 114.385 35.9594 120.921 35.9594V22.5517ZM121.699 22.5517V35.9594C127.983 35.9594 133.424 31.5948 134.787 25.4603L121.699 22.5517ZM126.069 18.5026V31.9103C124.861 31.9103 123.134 31.6161 121.365 30.5608C119.615 29.5174 118.533 28.1535 117.933 27.087C116.954 25.3455 117.167 24.2894 117.167 25.2601H130.574H143.982C143.982 22.5839 143.672 18.149 141.305 13.9405C138.324 8.64116 132.819 5.09493 126.069 5.09493V18.5026ZM130.574 25.2601H117.167V32.3125H130.574H143.982V25.2601H130.574ZM130.574 32.3125V18.9048H126.284V32.3125V45.7202H130.574V32.3125ZM126.284 32.3125H139.692V25.555H126.284H112.876V32.3125H126.284ZM126.284 25.555H139.692C139.692 24.587 139.831 20.1015 137.335 15.9862C133.442 9.56873 126.973 8.84908 124.273 8.84908V22.2567V35.6644C123.813 35.6644 122.169 35.639 120.153 34.8091C117.765 33.8265 115.739 32.0878 114.409 29.8948C113.282 28.0385 113.007 26.4321 112.935 25.9565C112.855 25.4248 112.876 25.1906 112.876 25.555H126.284ZM124.273 22.2567V8.84908C121.701 8.84908 118.585 9.4308 115.612 11.3339C112.637 13.2381 110.838 15.804 109.799 18.0464C108.029 21.8656 107.996 25.8265 107.996 27.5662H121.404H134.811C134.811 27.06 134.835 26.9666 134.814 27.1268C134.799 27.2375 134.685 28.122 134.128 29.323C133.514 30.6469 132.287 32.4988 130.068 33.9187C127.852 35.3374 125.678 35.6644 124.273 35.6644V22.2567ZM121.404 27.5662H107.996V32.3125H121.404H134.811V27.5662H121.404ZM121.404 32.3125V18.9048H117.113V32.3125V45.7202H121.404V32.3125ZM117.113 32.3125H130.521V25.555H117.113H103.705V32.3125H117.113ZM117.113 25.555H130.521C130.521 24.587 130.661 20.1015 128.164 15.9862C124.271 9.56873 117.802 8.84908 115.102 8.84908V22.2567V35.6644C114.642 35.6644 112.999 35.639 110.982 34.8091C108.594 33.8265 106.568 32.0878 105.238 29.8948C104.112 28.0385 103.836 26.4321 103.764 25.9565C103.684 25.4248 103.705 25.1906 103.705 25.555H117.113ZM115.102 22.2567V8.84908C112.53 8.84908 109.414 9.4308 106.441 11.3339C103.466 13.2381 101.667 15.804 100.628 18.0464C98.8578 21.8656 98.8251 25.8265 98.8251 27.5662H112.233H125.64C125.64 27.06 125.665 26.9666 125.643 27.1268C125.629 27.2375 125.514 28.122 124.957 29.323C124.343 30.6469 123.116 32.4988 120.898 33.9187C118.681 35.3374 116.507 35.6644 115.102 35.6644V22.2567ZM112.233 27.5662H98.8251V32.3125H112.233H125.64V27.5662H112.233ZM112.233 32.3125V18.9048H107.942V32.3125V45.7202H112.233V32.3125ZM107.942 32.3125H121.35V18.7708H107.942H94.5346V32.3125H107.942ZM107.942 18.7708V32.1784H112.233V18.7708V5.36309H107.942V18.7708ZM112.233 18.7708H98.8251V20.1383H112.233H125.64V18.7708H112.233ZM112.233 20.1383L99.5131 15.8985L98.7086 18.3118L111.428 22.5517L124.148 26.7916L124.952 24.3782L112.233 20.1383ZM111.428 22.5517V35.9594H112.501V22.5517V9.14405H111.428V22.5517ZM112.501 22.5517L125.589 25.4602C125.573 25.5321 125.214 27.268 123.441 29.0578C121.287 31.2323 118.649 31.9103 116.899 31.9103V18.5026V5.09493C112.52 5.09493 107.952 6.5908 104.39 10.1865C101.209 13.3975 99.9648 17.1579 99.4125 19.6432L112.501 22.5517ZM116.899 18.5026V31.9103C116.044 31.9103 114.782 31.7648 113.355 31.1659C111.889 30.5502 110.643 29.6194 109.688 28.544C108.778 27.5192 108.29 26.5442 108.04 25.9213C107.794 25.3097 107.719 24.8919 107.704 24.8046L120.921 22.5517L134.138 20.2988C133.743 17.9844 132.757 14.1378 129.74 10.7405C126.244 6.80262 121.503 5.09493 116.899 5.09493V18.5026ZM120.921 22.5517V35.9594H121.699V22.5517V9.14405H120.921V22.5517ZM121.699 22.5517L134.787 25.4603C134.784 25.4714 134.44 27.2086 132.67 29.0121C131.722 29.9787 130.541 30.775 129.215 31.2911C127.926 31.7925 126.81 31.9103 126.069 31.9103V18.5026V5.09493C121.683 5.09493 117.095 6.59785 113.529 10.2322C110.365 13.4569 109.149 17.2187 108.61 19.6432L121.699 22.5517Z" fill="#003CA0" mask="url(#path-1-outside-1_483_876)"/>
</svg>
