 <svg width="24" height="24" viewBox="0 0 24 24" fill="none" xmlns="http://www.w3.org/2000/svg">
    <path
      d="M12 7.891C9.733 7.891 7.891 9.733 7.891 12C7.891 14.267 9.733 16.109 12 16.109C14.267 16.109 16.109 14.267 16.109 12C16.109 9.733 14.267 7.891 12 7.891ZM12 14.641C10.543 14.641 9.359 13.456 9.359 12C9.359 10.543 10.544 9.359 12 9.359C13.456 9.359 14.641 10.544 14.641 12C14.641 13.456 13.457 14.641 12 14.641Z"
      fill="currentColor"
    />
    <path
      d="M16.539 4H7.461C5.551 4 4 5.551 4 7.461V16.539C4 18.449 5.551 20 7.461 20H16.539C18.449 20 20 18.449 20 16.539V7.461C20 5.551 18.449 4 16.539 4ZM18.531 16.539C18.531 17.639 17.639 18.531 16.539 18.531H7.461C6.361 18.531 5.469 17.639 5.469 16.539V7.461C5.469 6.361 6.361 5.469 7.461 5.469H16.539C17.639 5.469 18.531 6.361 18.531 7.461V16.539Z"
      fill="currentColor"
    />
    <path
      d="M16.703 8.016C17.145 8.016 17.503 7.658 17.503 7.216C17.503 6.774 17.145 6.416 16.703 6.416C16.261 6.416 15.903 6.774 15.903 7.216C15.903 7.658 16.261 8.016 16.703 8.016Z"
      fill="currentColor"
    />
  </svg>