<svg width="256" height="165" viewBox="0 0 256 165" fill="none" xmlns="http://www.w3.org/2000/svg">
<mask id="path-1-outside-1_483_872" maskUnits="userSpaceOnUse" x="-8.69378" y="-56.0257" width="271.912" height="278.07" fill="black">
<rect fill="white" x="-8.69378" y="-56.0257" width="271.912" height="278.07"/>
<path d="M14.1246 38.5437L12.9893 19.673L21.4209 19.1657L25.2488 36.7999L26.3194 36.7355L28.0056 18.7696L36.4371 18.2623L37.5724 37.133L33.2897 37.3907L32.3799 22.2674L33.0219 19.5424L31.9512 19.6068L29.9974 37.5888L21.6996 38.088L17.6041 20.4699L16.5334 20.5343L17.4975 23.1627L18.4073 38.286L14.1246 38.5437ZM39.2191 33.3268C39.079 30.998 40.3887 29.5492 44.37 28.7455L48.5905 27.9006C48.5244 26.8032 47.6276 26.1855 45.7807 26.2967C44.0676 26.3997 43.1475 27.1804 43.2216 28.4117L39.2065 28.6532C39.0004 25.2271 41.7972 23.044 45.5714 22.817C49.292 22.5931 52.6654 24.19 52.9328 28.6334L53.1614 32.4343L55.1154 32.3167L55.3409 36.0641L52.3697 36.2428C51.0849 36.3201 50.3187 35.6409 50.2414 34.3561L50.2253 34.0884L50.7979 32.4421L49.7272 32.5065C49.3539 34.7856 48.1567 36.7649 44.3825 36.992C40.1801 37.2448 39.3028 34.7187 39.2191 33.3268ZM43.4535 32.2661C43.5002 33.0424 44.2641 33.2382 44.9869 33.1947C47.3423 33.053 48.8352 31.9692 48.7354 30.3097L45.3115 30.9992C44.0379 31.2639 43.4068 31.4899 43.4535 32.2661ZM56.9412 35.9678L56.2504 24.4848C56.1618 23.0126 56.9433 22.1597 58.4171 22.0979L67.2898 21.779L67.5152 25.5263L60.6265 25.7796L61.2239 35.7101L56.9412 35.9678ZM80.6114 34.5438L76.9247 29.5271L74.0373 31.0977L74.2676 34.9254L69.9849 35.1831L68.8013 15.5094L73.084 15.2517L73.7716 26.6812L79.7841 23.4719L79.584 21.0394L83.8667 20.7817L84.0439 23.7261C84.1211 25.0109 83.6625 25.8712 82.5186 26.5042L80.4887 27.5934L85.4829 34.2507L80.6114 34.5438ZM85.3435 27.3013C85.0859 23.0186 87.8489 20.2735 92.0513 20.0207C96.2537 19.7678 99.3478 22.08 99.5942 26.1754L99.6747 27.5137L89.423 28.1305C89.5164 29.683 90.7066 30.7128 93.1424 30.5662C94.6414 30.476 95.7334 29.8731 95.9399 28.8398L100.223 28.5822C100.072 30.5523 98.036 33.7641 93.3518 34.0459C88.159 34.3583 85.5738 31.129 85.3435 27.3013ZM89.2781 25.7214L95.5148 25.3462C95.4536 24.3291 94.6429 23.357 92.2606 23.5004C89.8784 23.6437 89.2169 24.7043 89.2781 25.7214ZM108.319 29.3846L113.281 28.8174L113.507 32.5648L106.537 33.2527C105.068 33.3948 104.213 32.5866 104.125 31.1144L103.658 23.352L100.446 23.5452L100.22 19.7979L103.432 19.6046L103.279 17.0618L107.481 15.4658L107.715 19.347L112.158 19.0797L112.384 22.827L107.94 23.0943L108.319 29.3846ZM119.762 17.279C118.183 17.374 117.201 16.6809 117.117 15.289C117.035 13.9239 117.925 13.0913 119.505 12.9963C121.084 12.9013 122.121 13.6179 122.203 14.983C122.287 16.3749 121.342 17.184 119.762 17.279ZM115.115 32.468L114.89 28.7206L118.718 28.4903L118.346 22.3072L115.063 22.6658L114.837 18.9185L119.907 18.3448C121.401 18.1743 122.281 18.9542 122.371 20.4531L122.84 28.2423L126.667 28.0121L126.893 31.7594L115.115 32.468ZM136.045 21.1349C133.716 21.275 132.264 22.5981 132.493 26.399L132.794 31.4044L128.511 31.662L127.698 18.1447L131.981 17.8871L132.079 19.5199L131.421 21.9772L132.492 21.9128C132.882 19.4716 134.454 17.4696 137.345 17.2957C140.798 17.088 143.024 19.2644 143.275 23.44L143.715 30.7474L139.432 31.005L139.033 24.3668C138.885 21.9043 138.106 21.0109 136.045 21.1349ZM160.613 16.1645L161.791 16.0937L162.016 19.841L161.106 19.8958C160.705 19.92 160.223 19.9489 159.863 20.2124C160.036 20.4169 160.288 21.0196 160.331 21.7423C160.484 24.2852 158.198 26.0345 154.553 27.5164C157.62 27.1438 160.533 27.7746 160.705 30.6386C160.945 34.6269 156.288 35.3637 146.251 35.9676L146.025 32.2202C154.778 31.6937 156.429 31.46 156.341 29.9878C156.222 28.007 151.43 29.1818 147.323 30.1274L146.723 27.7457C149.782 27.2393 152.546 26.7506 154.973 26.0136L154.909 24.9429C150.063 27.0075 144.8 26.5988 144.533 22.1555C144.319 18.5955 147.588 16.6795 151.844 16.4234C153.905 16.2994 155.803 16.5882 157.285 17.5468C158.025 16.4546 159.409 16.237 160.613 16.1645ZM152.553 23.7415C155.123 23.5869 156.101 22.8833 156.032 21.7323C155.965 20.6081 154.907 20.0001 152.338 20.1547C149.768 20.3093 148.764 21.0413 148.832 22.1655C148.901 23.3165 149.984 23.8961 152.553 23.7415ZM191.849 42.3996L187.766 42.6479L187.101 37.3791C184.876 37.3933 182.533 36.7134 180.208 35.3252C175.165 32.3151 173.114 28.2175 175.561 24.1191C177.43 20.9877 180.539 21.0635 182.588 22.2868C184.062 23.1665 184.658 24.3654 184.914 25.6111L185.463 24.6901L184.597 17.7709L185.545 16.1821L198.117 23.6867L196.193 26.9102L188.687 22.4295L190.268 32.4927C191.715 31.6387 193.018 30.2929 194.104 28.4739L197.788 30.6731C196.001 33.6663 193.623 35.7135 190.94 36.7037L191.849 42.3996ZM182.132 32.1017C183.675 33.0226 185.18 33.4837 186.61 33.4942L186.287 30.8966C185.954 28.2623 185.16 26.82 183.479 25.8167C181.867 24.8545 180.097 24.8907 179.162 26.4564C177.994 28.4135 179.07 30.2736 182.132 32.1017ZM212.036 49.0453C213.605 53.5533 213.943 57.2973 208.548 59.1744C203.129 61.0604 201.069 57.9158 199.5 53.4078L198.681 51.0525L193.362 52.9033L191.952 48.8511L209.807 42.6379L212.036 49.0453ZM203.134 52.4272C203.971 54.8332 204.656 55.986 207.138 55.1223C209.595 54.2675 209.416 52.9384 208.579 50.5324L207.671 47.9239L202.226 49.8187L203.134 52.4272ZM197.564 64.9764L208.428 61.1956C209.821 60.7109 210.854 61.2316 211.314 62.6333L214.028 71.0866L210.482 72.3205L208.369 65.7589L198.974 69.0285L197.564 64.9764ZM208.003 74.3343C212.461 72.7832 215.749 75.2163 217.15 79.2431C218.543 83.2445 217.475 87.1935 213.018 88.7446C208.535 90.3045 205.247 87.8714 203.854 83.8699C202.453 79.8431 203.521 75.8942 208.003 74.3343ZM209.413 78.3864C207.261 79.1355 206.73 80.7113 207.4 82.6361C208.061 84.5355 209.455 85.4416 211.608 84.6925C213.735 83.9522 214.266 82.3763 213.605 80.4769C212.935 78.5521 211.541 77.6461 209.413 78.3864ZM212.234 107.136L210.824 103.084L211.609 102.81L214.153 102.777L213.801 101.764C211.875 101.696 209.831 101.044 208.729 97.8787C207.442 94.1811 209.838 91.2748 213.46 90.0145C217.081 88.7542 220.738 89.5542 222.025 93.2518C223.127 96.4175 221.929 98.1972 220.461 99.4461L220.814 100.459L222.829 98.9062L229.439 96.606L230.849 100.658L212.234 107.136ZM217.232 100.854C219.384 100.105 219.898 98.5631 219.141 96.3851C218.383 94.207 217.023 93.3175 214.87 94.0666C212.717 94.8157 212.178 96.3662 212.936 98.5443C213.694 100.722 215.079 101.603 217.232 100.854ZM218.56 114.707C219.327 116.911 220.994 117.949 224.591 116.697L229.326 115.049L230.737 119.101L217.947 123.552L216.537 119.5L218.082 118.962L220.626 118.929L220.273 117.916C217.817 118.202 215.464 117.233 214.512 114.497C213.375 111.23 214.866 108.497 218.817 107.122L225.731 104.716L227.141 108.768L220.86 110.954C218.53 111.765 217.882 112.757 218.56 114.707ZM224.881 122.834C229.135 121.354 232.529 123.438 233.948 127.515C235.165 131.01 234.376 134.862 230.79 136.308L229.38 132.256C230.467 131.708 230.967 130.37 230.403 128.749C229.733 126.824 228.241 126.208 226.291 126.886C224.315 127.574 223.528 128.983 224.198 130.908C224.762 132.529 225.984 133.268 227.177 133.023L228.587 137.075C224.878 138.167 221.869 135.637 220.652 132.142C219.233 128.064 220.601 124.324 224.881 122.834ZM229.227 145.361L231.12 149.983L227.574 151.217L225.021 144.695C224.485 143.32 225.031 142.278 226.424 141.793L233.769 139.238L232.711 136.198L236.257 134.965L237.314 138.004L239.72 137.166L242.397 140.778L238.724 142.056L240.187 146.26L236.642 147.494L235.179 143.29L229.227 145.361Z"/>
</mask>
<path d="M14.1246 38.5437L12.9893 19.673L21.4209 19.1657L25.2488 36.7999L26.3194 36.7355L28.0056 18.7696L36.4371 18.2623L37.5724 37.133L33.2897 37.3907L32.3799 22.2674L33.0219 19.5424L31.9512 19.6068L29.9974 37.5888L21.6996 38.088L17.6041 20.4699L16.5334 20.5343L17.4975 23.1627L18.4073 38.286L14.1246 38.5437ZM39.2191 33.3268C39.079 30.998 40.3887 29.5492 44.37 28.7455L48.5905 27.9006C48.5244 26.8032 47.6276 26.1855 45.7807 26.2967C44.0676 26.3997 43.1475 27.1804 43.2216 28.4117L39.2065 28.6532C39.0004 25.2271 41.7972 23.044 45.5714 22.817C49.292 22.5931 52.6654 24.19 52.9328 28.6334L53.1614 32.4343L55.1154 32.3167L55.3409 36.0641L52.3697 36.2428C51.0849 36.3201 50.3187 35.6409 50.2414 34.3561L50.2253 34.0884L50.7979 32.4421L49.7272 32.5065C49.3539 34.7856 48.1567 36.7649 44.3825 36.992C40.1801 37.2448 39.3028 34.7187 39.2191 33.3268ZM43.4535 32.2661C43.5002 33.0424 44.2641 33.2382 44.9869 33.1947C47.3423 33.053 48.8352 31.9692 48.7354 30.3097L45.3115 30.9992C44.0379 31.2639 43.4068 31.4899 43.4535 32.2661ZM56.9412 35.9678L56.2504 24.4848C56.1618 23.0126 56.9433 22.1597 58.4171 22.0979L67.2898 21.779L67.5152 25.5263L60.6265 25.7796L61.2239 35.7101L56.9412 35.9678ZM80.6114 34.5438L76.9247 29.5271L74.0373 31.0977L74.2676 34.9254L69.9849 35.1831L68.8013 15.5094L73.084 15.2517L73.7716 26.6812L79.7841 23.4719L79.584 21.0394L83.8667 20.7817L84.0439 23.7261C84.1211 25.0109 83.6625 25.8712 82.5186 26.5042L80.4887 27.5934L85.4829 34.2507L80.6114 34.5438ZM85.3435 27.3013C85.0859 23.0186 87.8489 20.2735 92.0513 20.0207C96.2537 19.7678 99.3478 22.08 99.5942 26.1754L99.6747 27.5137L89.423 28.1305C89.5164 29.683 90.7066 30.7128 93.1424 30.5662C94.6414 30.476 95.7334 29.8731 95.9399 28.8398L100.223 28.5822C100.072 30.5523 98.036 33.7641 93.3518 34.0459C88.159 34.3583 85.5738 31.129 85.3435 27.3013ZM89.2781 25.7214L95.5148 25.3462C95.4536 24.3291 94.6429 23.357 92.2606 23.5004C89.8784 23.6437 89.2169 24.7043 89.2781 25.7214ZM108.319 29.3846L113.281 28.8174L113.507 32.5648L106.537 33.2527C105.068 33.3948 104.213 32.5866 104.125 31.1144L103.658 23.352L100.446 23.5452L100.22 19.7979L103.432 19.6046L103.279 17.0618L107.481 15.4658L107.715 19.347L112.158 19.0797L112.384 22.827L107.94 23.0943L108.319 29.3846ZM119.762 17.279C118.183 17.374 117.201 16.6809 117.117 15.289C117.035 13.9239 117.925 13.0913 119.505 12.9963C121.084 12.9013 122.121 13.6179 122.203 14.983C122.287 16.3749 121.342 17.184 119.762 17.279ZM115.115 32.468L114.89 28.7206L118.718 28.4903L118.346 22.3072L115.063 22.6658L114.837 18.9185L119.907 18.3448C121.401 18.1743 122.281 18.9542 122.371 20.4531L122.84 28.2423L126.667 28.0121L126.893 31.7594L115.115 32.468ZM136.045 21.1349C133.716 21.275 132.264 22.5981 132.493 26.399L132.794 31.4044L128.511 31.662L127.698 18.1447L131.981 17.8871L132.079 19.5199L131.421 21.9772L132.492 21.9128C132.882 19.4716 134.454 17.4696 137.345 17.2957C140.798 17.088 143.024 19.2644 143.275 23.44L143.715 30.7474L139.432 31.005L139.033 24.3668C138.885 21.9043 138.106 21.0109 136.045 21.1349ZM160.613 16.1645L161.791 16.0937L162.016 19.841L161.106 19.8958C160.705 19.92 160.223 19.9489 159.863 20.2124C160.036 20.4169 160.288 21.0196 160.331 21.7423C160.484 24.2852 158.198 26.0345 154.553 27.5164C157.62 27.1438 160.533 27.7746 160.705 30.6386C160.945 34.6269 156.288 35.3637 146.251 35.9676L146.025 32.2202C154.778 31.6937 156.429 31.46 156.341 29.9878C156.222 28.007 151.43 29.1818 147.323 30.1274L146.723 27.7457C149.782 27.2393 152.546 26.7506 154.973 26.0136L154.909 24.9429C150.063 27.0075 144.8 26.5988 144.533 22.1555C144.319 18.5955 147.588 16.6795 151.844 16.4234C153.905 16.2994 155.803 16.5882 157.285 17.5468C158.025 16.4546 159.409 16.237 160.613 16.1645ZM152.553 23.7415C155.123 23.5869 156.101 22.8833 156.032 21.7323C155.965 20.6081 154.907 20.0001 152.338 20.1547C149.768 20.3093 148.764 21.0413 148.832 22.1655C148.901 23.3165 149.984 23.8961 152.553 23.7415ZM191.849 42.3996L187.766 42.6479L187.101 37.3791C184.876 37.3933 182.533 36.7134 180.208 35.3252C175.165 32.3151 173.114 28.2175 175.561 24.1191C177.43 20.9877 180.539 21.0635 182.588 22.2868C184.062 23.1665 184.658 24.3654 184.914 25.6111L185.463 24.6901L184.597 17.7709L185.545 16.1821L198.117 23.6867L196.193 26.9102L188.687 22.4295L190.268 32.4927C191.715 31.6387 193.018 30.2929 194.104 28.4739L197.788 30.6731C196.001 33.6663 193.623 35.7135 190.94 36.7037L191.849 42.3996ZM182.132 32.1017C183.675 33.0226 185.18 33.4837 186.61 33.4942L186.287 30.8966C185.954 28.2623 185.16 26.82 183.479 25.8167C181.867 24.8545 180.097 24.8907 179.162 26.4564C177.994 28.4135 179.07 30.2736 182.132 32.1017ZM212.036 49.0453C213.605 53.5533 213.943 57.2973 208.548 59.1744C203.129 61.0604 201.069 57.9158 199.5 53.4078L198.681 51.0525L193.362 52.9033L191.952 48.8511L209.807 42.6379L212.036 49.0453ZM203.134 52.4272C203.971 54.8332 204.656 55.986 207.138 55.1223C209.595 54.2675 209.416 52.9384 208.579 50.5324L207.671 47.9239L202.226 49.8187L203.134 52.4272ZM197.564 64.9764L208.428 61.1956C209.821 60.7109 210.854 61.2316 211.314 62.6333L214.028 71.0866L210.482 72.3205L208.369 65.7589L198.974 69.0285L197.564 64.9764ZM208.003 74.3343C212.461 72.7832 215.749 75.2163 217.15 79.2431C218.543 83.2445 217.475 87.1935 213.018 88.7446C208.535 90.3045 205.247 87.8714 203.854 83.8699C202.453 79.8431 203.521 75.8942 208.003 74.3343ZM209.413 78.3864C207.261 79.1355 206.73 80.7113 207.4 82.6361C208.061 84.5355 209.455 85.4416 211.608 84.6925C213.735 83.9522 214.266 82.3763 213.605 80.4769C212.935 78.5521 211.541 77.6461 209.413 78.3864ZM212.234 107.136L210.824 103.084L211.609 102.81L214.153 102.777L213.801 101.764C211.875 101.696 209.831 101.044 208.729 97.8787C207.442 94.1811 209.838 91.2748 213.46 90.0145C217.081 88.7542 220.738 89.5542 222.025 93.2518C223.127 96.4175 221.929 98.1972 220.461 99.4461L220.814 100.459L222.829 98.9062L229.439 96.606L230.849 100.658L212.234 107.136ZM217.232 100.854C219.384 100.105 219.898 98.5631 219.141 96.3851C218.383 94.207 217.023 93.3175 214.87 94.0666C212.717 94.8157 212.178 96.3662 212.936 98.5443C213.694 100.722 215.079 101.603 217.232 100.854ZM218.56 114.707C219.327 116.911 220.994 117.949 224.591 116.697L229.326 115.049L230.737 119.101L217.947 123.552L216.537 119.5L218.082 118.962L220.626 118.929L220.273 117.916C217.817 118.202 215.464 117.233 214.512 114.497C213.375 111.23 214.866 108.497 218.817 107.122L225.731 104.716L227.141 108.768L220.86 110.954C218.53 111.765 217.882 112.757 218.56 114.707ZM224.881 122.834C229.135 121.354 232.529 123.438 233.948 127.515C235.165 131.01 234.376 134.862 230.79 136.308L229.38 132.256C230.467 131.708 230.967 130.37 230.403 128.749C229.733 126.824 228.241 126.208 226.291 126.886C224.315 127.574 223.528 128.983 224.198 130.908C224.762 132.529 225.984 133.268 227.177 133.023L228.587 137.075C224.878 138.167 221.869 135.637 220.652 132.142C219.233 128.064 220.601 124.324 224.881 122.834ZM229.227 145.361L231.12 149.983L227.574 151.217L225.021 144.695C224.485 143.32 225.031 142.278 226.424 141.793L233.769 139.238L232.711 136.198L236.257 134.965L237.314 138.004L239.72 137.166L242.397 140.778L238.724 142.056L240.187 146.26L236.642 147.494L235.179 143.29L229.227 145.361Z" fill="#001242"/>
<path d="M14.1246 38.5437L1.15935 39.3237C1.59013 46.4842 7.74408 51.9397 14.9046 51.5089L14.1246 38.5437ZM12.9893 19.673L12.2093 6.70776C5.04879 7.13854 -0.406719 13.2925 0.0240647 20.453L12.9893 19.673ZM21.4209 19.1657L34.114 16.4104C32.7551 10.1504 27.0352 5.81582 20.6409 6.20051L21.4209 19.1657ZM25.2487 36.7999L12.5557 39.5552C13.9146 45.8152 19.6345 50.1498 26.0288 49.7651L25.2487 36.7999ZM26.3194 36.7355L27.0994 49.7007C33.4937 49.316 38.6527 44.327 39.2513 37.9492L26.3194 36.7355ZM28.0056 18.7696L27.2256 5.80437C20.8313 6.18905 15.6723 11.1781 15.0737 17.5559L28.0056 18.7696ZM36.4371 18.2623L49.4024 17.4823C48.9716 10.3218 42.8176 4.86633 35.6571 5.29711L36.4371 18.2623ZM37.5724 37.133L38.3524 50.0983C41.791 49.8914 45.0066 48.327 47.2918 45.7493C49.5769 43.1716 50.7445 39.7916 50.5377 36.353L37.5724 37.133ZM33.2897 37.3907L20.3245 38.1707C20.7553 45.3312 26.9092 50.7867 34.0697 50.3559L33.2897 37.3907ZM32.3799 22.2674L19.7373 19.2889C19.4474 20.5194 19.3387 21.7855 19.4146 23.0474L32.3799 22.2674ZM33.0219 19.5424L45.6644 22.5208C46.6059 18.5244 45.6024 14.3182 42.9582 11.1772C40.3139 8.03631 36.3402 6.33058 32.2419 6.57713L33.0219 19.5424ZM31.9512 19.6068L31.1712 6.64155C24.8488 7.0219 19.7227 11.907 19.0385 18.2038L31.9512 19.6068ZM29.9974 37.5888L30.7774 50.554C37.0998 50.1736 42.2259 45.2885 42.9101 38.9918L29.9974 37.5888ZM21.6996 38.088L9.04829 41.0289C10.4824 47.1982 16.1572 51.4336 22.4796 51.0532L21.6996 38.088ZM17.6041 20.4699L30.2554 17.529C28.8213 11.3596 23.1465 7.12432 16.8241 7.50468L17.6041 20.4699ZM16.5334 20.5343L15.7534 7.5691C11.655 7.81566 7.91453 9.98549 5.66589 13.4208C3.41726 16.8561 2.92528 21.1523 4.3391 25.007L16.5334 20.5343ZM17.4975 23.1627L30.4627 22.3827C30.3868 21.1209 30.1271 19.8769 29.6918 18.6901L17.4975 23.1627ZM18.4073 38.286L19.1873 51.2513C26.3478 50.8205 31.8033 44.6665 31.3725 37.506L18.4073 38.286ZM14.1246 38.5437L27.0898 37.7637L25.9545 18.893L12.9893 19.673L0.0240647 20.453L1.15935 39.3237L14.1246 38.5437ZM12.9893 19.673L13.7693 32.6382L22.2009 32.131L21.4209 19.1657L20.6409 6.20051L12.2093 6.70776L12.9893 19.673ZM21.4209 19.1657L8.72782 21.921L12.5557 39.5552L25.2487 36.7999L37.9418 34.0446L34.114 16.4104L21.4209 19.1657ZM25.2487 36.7999L26.0288 49.7651L27.0994 49.7007L26.3194 36.7355L25.5394 23.7702L24.4687 23.8347L25.2487 36.7999ZM26.3194 36.7355L39.2513 37.9492L40.9374 19.9833L28.0056 18.7696L15.0737 17.5559L13.3876 35.5218L26.3194 36.7355ZM28.0056 18.7696L28.7856 31.7348L37.2171 31.2276L36.4371 18.2623L35.6571 5.29711L27.2256 5.80437L28.0056 18.7696ZM36.4371 18.2623L23.4719 19.0423L24.6072 37.913L37.5724 37.133L50.5377 36.353L49.4024 17.4823L36.4371 18.2623ZM37.5724 37.133L36.7924 24.1678L32.5097 24.4255L33.2897 37.3907L34.0697 50.3559L38.3524 50.0983L37.5724 37.133ZM33.2897 37.3907L46.2549 36.6107L45.3451 21.4874L32.3799 22.2674L19.4146 23.0474L20.3245 38.1707L33.2897 37.3907ZM32.3799 22.2674L45.0225 25.2458L45.6644 22.5208L33.0219 19.5424L20.3793 16.5639L19.7373 19.2889L32.3799 22.2674ZM33.0219 19.5424L32.2419 6.57713L31.1712 6.64155L31.9512 19.6068L32.7312 32.572L33.8019 32.5076L33.0219 19.5424ZM31.9512 19.6068L19.0385 18.2038L17.0847 36.1858L29.9974 37.5888L42.9101 38.9918L44.8639 21.0098L31.9512 19.6068ZM29.9974 37.5888L29.2174 24.6235L20.9196 25.1227L21.6996 38.088L22.4796 51.0532L30.7774 50.554L29.9974 37.5888ZM21.6996 38.088L34.351 35.147L30.2554 17.529L17.6041 20.4699L4.95275 23.4109L9.04829 41.0289L21.6996 38.088ZM17.6041 20.4699L16.8241 7.50468L15.7534 7.5691L16.5334 20.5343L17.3134 33.4996L18.3841 33.4352L17.6041 20.4699ZM16.5334 20.5343L4.3391 25.007L5.30315 27.6354L17.4975 23.1627L29.6918 18.6901L28.7277 16.0617L16.5334 20.5343ZM17.4975 23.1627L4.53222 23.9427L5.44206 39.066L18.4073 38.286L31.3725 37.506L30.4627 22.3827L17.4975 23.1627ZM18.4073 38.286L17.6273 25.3208L13.3446 25.5785L14.1246 38.5437L14.9046 51.5089L19.1873 51.2513L18.4073 38.286ZM44.37 28.7455L41.8203 16.0096C41.8135 16.0109 41.8067 16.0123 41.7999 16.0137L44.37 28.7455ZM48.5905 27.9006L51.1401 40.6366C57.4995 39.3635 61.9452 33.5945 61.5557 27.1206L48.5905 27.9006ZM45.7807 26.2966L46.5607 39.2619L45.7807 26.2966ZM43.2216 28.4117L44.0016 41.3769C47.4402 41.17 50.6558 39.6057 52.9409 37.0279C55.2261 34.4502 56.3937 31.0703 56.1868 27.6317L43.2216 28.4117ZM39.2065 28.6532L26.2413 29.4332C26.4482 32.8718 28.0126 36.0874 30.5903 38.3726C33.168 40.6577 36.548 41.8253 39.9866 41.6185L39.2065 28.6532ZM52.9328 28.6334L39.9675 29.4134L52.9328 28.6334ZM53.1614 32.4343L40.1962 33.2143C40.4031 36.6529 41.9674 39.8684 44.5452 42.1536C47.1229 44.4388 50.5028 45.6064 53.9414 45.3995L53.1614 32.4343ZM55.1154 32.3167L68.0807 31.5367C67.8738 28.0981 66.3094 24.8825 63.7317 22.5974C61.1539 20.3122 57.774 19.1446 54.3354 19.3515L55.1154 32.3167ZM55.3409 36.0641L56.1209 49.0293C63.2814 48.5985 68.7369 42.4446 68.3061 35.2841L55.3409 36.0641ZM50.2414 34.3561L63.2067 33.5761L50.2414 34.3561ZM50.2253 34.0884L37.9574 29.8218C37.3941 31.4415 37.1571 33.1567 37.2601 34.8684L50.2253 34.0884ZM50.7979 32.4421L63.0658 36.7088C64.4924 32.6069 63.7746 28.0636 61.153 24.6013C58.5313 21.1391 54.3529 19.2161 50.0179 19.4769L50.7979 32.4421ZM49.7272 32.5065L48.9472 19.5413C42.8888 19.9058 37.8904 24.4174 36.9093 30.407L49.7272 32.5065ZM48.7354 30.3097L61.7006 29.5297C61.475 25.7785 59.6357 22.309 56.6578 20.0168C53.6798 17.7247 49.8551 16.8347 46.1711 17.5766L48.7354 30.3097ZM45.3114 30.9992L42.7472 18.2662C42.721 18.2714 42.6948 18.2768 42.6686 18.2822L45.3114 30.9992ZM39.2191 33.3268L52.1843 32.5468C52.226 33.2399 52.1985 34.4949 51.6745 36.0035C51.1199 37.5999 50.1916 38.9515 49.1116 39.9596C47.2763 41.6725 45.7387 41.7199 46.94 41.4774L44.37 28.7455L41.7999 16.0137C39.02 16.5748 34.8369 17.7485 31.3865 20.9689C27.1415 24.9311 26.0061 29.9894 26.2538 34.1068L39.2191 33.3268ZM44.37 28.7455L46.9196 41.4815L51.1401 40.6366L48.5905 27.9006L46.0408 15.1647L41.8203 16.0096L44.37 28.7455ZM48.5905 27.9006L61.5557 27.1206C61.2885 22.6787 58.9918 18.1784 54.531 15.5047C50.8667 13.3084 47.1442 13.2025 45.0007 13.3314L45.7807 26.2966L46.5607 39.2619C46.2642 39.2797 43.9136 39.4271 41.1759 37.7862C39.6683 36.8826 38.2138 35.5242 37.1507 33.6932C36.107 31.8956 35.7113 30.112 35.6252 28.6806L48.5905 27.9006ZM45.7807 26.2966L45.0007 13.3314C42.5756 13.4773 38.8501 14.1779 35.5221 16.9477C31.6779 20.1471 29.99 24.765 30.2564 29.1917L43.2216 28.4117L56.1868 27.6317C56.3791 30.8271 55.1142 34.439 52.1399 36.9145C49.6817 38.9603 47.2727 39.2191 46.5607 39.2619L45.7807 26.2966ZM43.2216 28.4117L42.4416 15.4464L38.4265 15.688L39.2065 28.6532L39.9866 41.6185L44.0016 41.3769L43.2216 28.4117ZM39.2065 28.6532L52.1718 27.8732C52.2335 28.8999 52.0771 30.1333 51.5439 31.3925C51.0153 32.6407 50.2435 33.6154 49.4512 34.3089C47.9424 35.6295 46.616 35.7663 46.3514 35.7822L45.5714 22.817L44.7914 9.85171C40.7527 10.0947 36.1407 11.4365 32.3415 14.762C28.2417 18.3506 25.8915 23.6193 26.2413 29.4332L39.2065 28.6532ZM45.5714 22.817L46.3514 35.7822C46.2661 35.7873 45.9449 35.7991 45.4334 35.6853C44.915 35.57 44.0852 35.2974 43.1662 34.6628C42.2021 33.997 41.3383 33.0649 40.7371 31.9396C40.1501 30.8411 39.9972 29.9063 39.9675 29.4134L52.9328 28.6334L65.898 27.8533C65.5512 22.0895 62.9039 16.7235 57.9279 13.2872C53.4561 10.199 48.5012 9.62853 44.7914 9.85171L45.5714 22.817ZM52.9328 28.6334L39.9675 29.4134L40.1962 33.2143L53.1614 32.4343L66.1267 31.6543L65.898 27.8533L52.9328 28.6334ZM53.1614 32.4343L53.9414 45.3995L55.8954 45.2819L55.1154 32.3167L54.3354 19.3515L52.3814 19.469L53.1614 32.4343ZM55.1154 32.3167L42.1502 33.0967L42.3756 36.8441L55.3409 36.0641L68.3061 35.2841L68.0807 31.5367L55.1154 32.3167ZM55.3409 36.0641L54.5609 23.0988L51.5897 23.2776L52.3697 36.2428L53.1497 49.2081L56.1209 49.0293L55.3409 36.0641ZM52.3697 36.2428L51.5897 23.2776C53.3338 23.1727 56.5591 23.5112 59.469 26.0909C62.379 28.6706 63.1018 31.832 63.2067 33.5761L50.2414 34.3561L37.2762 35.1361C37.4584 38.165 38.6029 42.3084 42.2365 45.5296C45.8701 48.7508 50.1208 49.3903 53.1497 49.2081L52.3697 36.2428ZM50.2414 34.3561L63.2067 33.5761L63.1906 33.3084L50.2253 34.0884L37.2601 34.8684L37.2762 35.1361L50.2414 34.3561ZM50.2253 34.0884L62.4932 38.355L63.0658 36.7088L50.7979 32.4421L38.53 28.1755L37.9574 29.8218L50.2253 34.0884ZM50.7979 32.4421L50.0179 19.4769L48.9472 19.5413L49.7272 32.5065L50.5072 45.4718L51.5779 45.4074L50.7979 32.4421ZM49.7272 32.5065L36.9093 30.407C36.9626 30.0818 37.3266 28.1317 39.2004 26.2801C41.2115 24.2927 43.2859 24.0458 43.6025 24.0267L44.3825 36.992L45.1625 49.9572C49.2533 49.7111 53.8134 48.361 57.4599 44.7574C60.9692 41.2895 62.1185 37.2103 62.5451 34.6061L49.7272 32.5065ZM44.3825 36.992L43.6025 24.0267C44.2752 23.9863 47.0518 24.1419 49.5531 26.7055C51.6879 28.8936 52.1107 31.3225 52.1843 32.5468L39.2191 33.3268L26.2538 34.1068C26.4112 36.7229 27.3145 41.1109 30.9595 44.8467C34.971 48.9582 40.2875 50.2505 45.1625 49.9572L44.3825 36.992ZM43.4535 32.2661L30.4882 33.0461C30.8238 38.6237 34.2553 42.7457 38.2568 44.7041C41.3931 46.2391 44.3245 46.2467 45.7669 46.1599L44.9869 33.1947L44.2068 20.2295C44.9265 20.1862 47.1146 20.1176 49.6765 21.3715C51.1102 22.0732 52.8319 23.2834 54.2245 25.2573C55.6558 27.2861 56.2993 29.5016 56.4187 31.4861L43.4535 32.2661ZM44.9869 33.1947L45.7669 46.1599C48.5302 45.9937 52.2636 45.22 55.6227 42.6764C59.4485 39.7795 62.0326 35.0472 61.7006 29.5297L48.7354 30.3097L35.7702 31.0897C35.6695 29.4158 35.9702 27.5674 36.8253 25.7955C37.6658 24.0537 38.8401 22.7999 39.9411 21.9663C41.9898 20.415 43.799 20.254 44.2068 20.2295L44.9869 33.1947ZM48.7354 30.3097L46.1711 17.5766L42.7472 18.2662L45.3114 30.9992L47.8757 43.7322L51.2997 43.0427L48.7354 30.3097ZM45.3114 30.9992L42.6686 18.2822C42.406 18.3368 39.7152 18.7974 37.2065 20.3021C35.6101 21.2596 33.5667 22.9157 32.1119 25.6143C30.6443 28.3366 30.3665 31.0224 30.4882 33.0461L43.4535 32.2661L56.4187 31.4861C56.5171 33.1217 56.3007 35.4882 54.9781 37.9415C53.6683 40.3711 51.8535 41.8087 50.5683 42.5796C49.3948 43.2834 48.4253 43.5765 48.1748 43.6509C47.8754 43.7398 47.7229 43.7642 47.9543 43.7162L45.3114 30.9992ZM56.9412 35.9678L43.976 36.7478C44.4067 43.9083 50.5607 49.3638 57.7212 48.933L56.9412 35.9678ZM56.2504 24.4848L43.2851 25.2648L56.2504 24.4848ZM58.4171 22.0979L57.9505 9.11756C57.9247 9.11849 57.8988 9.1195 57.8729 9.1206L58.4171 22.0979ZM67.2898 21.779L80.255 20.999C79.8316 13.9605 73.8699 8.54543 66.8233 8.79868L67.2898 21.779ZM67.5152 25.5263L67.9924 38.5063C71.4874 38.3778 74.7829 36.8453 77.1334 34.2554C79.4838 31.6656 80.6905 28.2374 80.4805 24.7463L67.5152 25.5263ZM60.6265 25.7796L60.1493 12.7997C56.6543 12.9282 53.3588 14.4607 51.0083 17.0505C48.6579 19.6403 47.4512 23.0685 47.6612 26.5596L60.6265 25.7796ZM61.2239 35.7101L62.0039 48.6754C65.4425 48.4685 68.6581 46.9041 70.9433 44.3264C73.2284 41.7487 74.396 38.3687 74.1891 34.9301L61.2239 35.7101ZM56.9412 35.9678L69.9064 35.1878L69.2156 23.7048L56.2504 24.4848L43.2851 25.2648L43.976 36.7478L56.9412 35.9678ZM56.2504 24.4848L69.2156 23.7048C69.3146 25.3502 69.0025 28.5941 66.3545 31.5042C63.7219 34.3973 60.5551 35.0083 58.9612 35.0751L58.4171 22.0979L57.8729 9.1206C54.8053 9.24923 50.5108 10.3176 47.1412 14.0207C43.7561 17.7407 43.0976 22.1472 43.2851 25.2648L56.2504 24.4848ZM58.4171 22.0979L58.8836 35.0782L67.7563 34.7593L67.2898 21.779L66.8233 8.79868L57.9505 9.11756L58.4171 22.0979ZM67.2898 21.779L54.3246 22.559L54.55 26.3064L67.5152 25.5263L80.4805 24.7463L80.255 20.999L67.2898 21.779ZM67.5152 25.5263L67.0381 12.5464L60.1493 12.7997L60.6265 25.7796L61.1037 38.7595L67.9924 38.5063L67.5152 25.5263ZM60.6265 25.7796L47.6612 26.5596L48.2587 36.4901L61.2239 35.7101L74.1891 34.9301L73.5917 24.9996L60.6265 25.7796ZM61.2239 35.7101L60.4439 22.7449L56.1612 23.0026L56.9412 35.9678L57.7212 48.933L62.0039 48.6754L61.2239 35.7101ZM80.6114 34.5438L70.145 42.2353C72.7558 45.788 76.9905 47.7738 81.3914 47.509L80.6114 34.5438ZM76.9247 29.5271L87.3911 21.8356C83.5449 16.6017 76.4238 15.0136 70.7182 18.1173L76.9247 29.5271ZM74.0373 31.0978L67.8308 19.6879C63.4039 22.096 60.7694 26.8474 61.0721 31.8778L74.0373 31.0978ZM74.2676 34.9254L75.0476 47.8907C78.4862 47.6838 81.7018 46.1194 83.9869 43.5417C86.2721 40.964 87.4397 37.584 87.2328 34.1454L74.2676 34.9254ZM69.9849 35.1831L57.0197 35.9631C57.4504 43.1236 63.6044 48.5791 70.7649 48.1483L69.9849 35.1831ZM68.8013 15.5094L68.0213 2.54414C64.5827 2.75101 61.3671 4.31538 59.0819 6.89311C56.7968 9.47085 55.6292 12.8508 55.8361 16.2894L68.8013 15.5094ZM73.084 15.2517L86.0492 14.4717C85.6185 7.31121 79.4645 1.85571 72.304 2.28649L73.084 15.2517ZM73.7716 26.6812L60.8064 27.4612C61.0721 31.8776 63.5676 35.855 67.4285 38.0157C71.2894 40.1764 75.9847 40.2231 79.8878 38.1397L73.7716 26.6812ZM79.7841 23.4719L85.9003 34.9304C90.4701 32.4912 93.1537 27.5699 92.729 22.4072L79.7841 23.4719ZM79.584 21.0394L78.804 8.07412C75.316 8.28396 72.0597 9.89033 69.7706 12.5304C67.4814 15.1705 66.3526 18.6215 66.639 22.1041L79.584 21.0394ZM83.8667 20.7817L96.832 20.0017C96.6251 16.5631 95.0607 13.3475 92.483 11.0623C89.9052 8.77718 86.5253 7.60959 83.0867 7.81647L83.8667 20.7817ZM84.0439 23.7261L71.0786 24.5061L84.0439 23.7261ZM82.5186 26.5042L88.66 37.9493C88.7092 37.9228 88.7582 37.8962 88.807 37.8691L82.5186 26.5042ZM80.4887 27.5934L74.3473 16.1484C71.0111 17.9386 68.622 21.0955 67.8056 24.7927C66.9892 28.4898 67.8266 32.3592 70.0987 35.3879L80.4887 27.5934ZM85.4829 34.2507L86.263 47.2159C91.0341 46.9289 95.262 44.0446 97.27 39.7071C99.2779 35.3695 98.7413 30.2797 95.8729 26.4562L85.4829 34.2507ZM80.6114 34.5438L91.0778 26.8522L87.3911 21.8356L76.9247 29.5271L66.4583 37.2187L70.145 42.2353L80.6114 34.5438ZM76.9247 29.5271L70.7182 18.1173L67.8308 19.6879L74.0373 31.0978L80.2438 42.5076L83.1312 40.937L76.9247 29.5271ZM74.0373 31.0978L61.0721 31.8778L61.3024 35.7054L74.2676 34.9254L87.2328 34.1454L87.0026 30.3178L74.0373 31.0978ZM74.2676 34.9254L73.4876 21.9602L69.2049 22.2178L69.9849 35.1831L70.7649 48.1483L75.0476 47.8907L74.2676 34.9254ZM69.9849 35.1831L82.9501 34.4031L81.7665 14.7294L68.8013 15.5094L55.8361 16.2894L57.0197 35.9631L69.9849 35.1831ZM68.8013 15.5094L69.5813 28.4746L73.864 28.2169L73.084 15.2517L72.304 2.28649L68.0213 2.54414L68.8013 15.5094ZM73.084 15.2517L60.1188 16.0317L60.8064 27.4612L73.7716 26.6812L86.7368 25.9012L86.0492 14.4717L73.084 15.2517ZM73.7716 26.6812L79.8878 38.1397L85.9003 34.9304L79.7841 23.4719L73.6679 12.0134L67.6554 15.2227L73.7716 26.6812ZM79.7841 23.4719L92.729 22.4072L92.529 19.9747L79.584 21.0394L66.639 22.1041L66.8391 24.5366L79.7841 23.4719ZM79.584 21.0394L80.364 34.0046L84.6467 33.7469L83.8667 20.7817L83.0867 7.81647L78.804 8.07412L79.584 21.0394ZM83.8667 20.7817L70.9015 21.5617L71.0786 24.5061L84.0439 23.7261L97.0091 22.946L96.832 20.0017L83.8667 20.7817ZM84.0439 23.7261L71.0786 24.5061C71.0138 23.4286 71.1164 21.3776 72.3355 19.1416C73.5604 16.8952 75.2456 15.6841 76.2301 15.1393L82.5186 26.5042L88.807 37.8691C90.9355 36.6914 93.4219 34.7336 95.1428 31.5775C96.858 28.432 97.1512 25.3083 97.0091 22.946L84.0439 23.7261ZM82.5186 26.5042L76.3772 15.0592L74.3473 16.1484L80.4887 27.5934L86.6301 39.0385L88.66 37.9493L82.5186 26.5042ZM80.4887 27.5934L70.0987 35.3879L75.093 42.0452L85.4829 34.2507L95.8729 26.4562L90.8787 19.799L80.4887 27.5934ZM85.4829 34.2507L84.7029 21.2855L79.8314 21.5785L80.6114 34.5438L81.3914 47.509L86.263 47.2159L85.4829 34.2507ZM99.6747 27.5137L100.455 40.4789C107.615 40.0482 113.071 33.8942 112.64 26.7337L99.6747 27.5137ZM89.423 28.1305L88.643 15.1652C85.2044 15.3721 81.9888 16.9365 79.7036 19.5142C77.4185 22.0919 76.2509 25.4719 76.4578 28.9105L89.423 28.1305ZM93.1424 30.5662L93.9224 43.5315L93.1424 30.5662ZM95.9399 28.8398L95.1599 15.8746C89.2701 16.2289 84.3592 20.5086 83.203 26.2946L95.9399 28.8398ZM100.223 28.5822L113.174 29.569C113.459 25.8276 112.112 22.1457 109.48 19.4714C106.848 16.7971 103.188 15.3916 99.4426 15.6169L100.223 28.5822ZM89.2781 25.7215L76.3128 26.5015C76.5197 29.94 78.0841 33.1556 80.6618 35.4408C83.2395 37.726 86.6195 38.8936 90.0581 38.6867L89.2781 25.7215ZM95.5148 25.3463L96.2948 38.3115C103.455 37.8807 108.911 31.7267 108.48 24.5662L95.5148 25.3463ZM85.3435 27.3013L98.3088 26.5213C98.365 27.4557 98.0738 29.368 96.4669 31.0691C94.9573 32.6672 93.3513 32.9546 92.8313 32.9859L92.0513 20.0207L91.2713 7.05543C86.5489 7.33953 81.4602 9.12588 77.5829 13.2305C73.6083 17.438 72.0644 22.8643 72.3783 28.0813L85.3435 27.3013ZM92.0513 20.0207L92.8313 32.9859C92.4247 33.0103 90.8915 32.9625 89.2172 31.6298C87.3787 30.1664 86.7041 28.2042 86.629 26.9554L99.5942 26.1754L112.559 25.3953C112.238 20.0512 109.893 14.8852 105.395 11.3051C101.062 7.85572 95.8803 6.77814 91.2713 7.05543L92.0513 20.0207ZM99.5942 26.1754L86.629 26.9554L86.7095 28.2937L99.6747 27.5137L112.64 26.7337L112.559 25.3953L99.5942 26.1754ZM99.6747 27.5137L98.8947 14.5485L88.643 15.1652L89.423 28.1305L90.203 41.0957L100.455 40.4789L99.6747 27.5137ZM89.423 28.1305L76.4578 28.9105C76.7082 33.0729 78.6502 37.5872 82.9141 40.5969C86.7694 43.3182 90.9701 43.7091 93.9224 43.5315L93.1424 30.5662L92.3624 17.601C92.8789 17.5699 95.2667 17.5191 97.8945 19.3741C100.931 21.5174 102.231 24.7405 102.388 27.3505L89.423 28.1305ZM93.1424 30.5662L93.9224 43.5315C97.0197 43.3451 106.646 41.5488 108.677 31.3851L95.9399 28.8398L83.203 26.2946C83.9487 22.5631 86.3181 20.1318 88.3522 18.9136C90.1702 17.8248 91.7243 17.6394 92.3624 17.601L93.1424 30.5662ZM95.9399 28.8398L96.7199 41.8051L101.003 41.5474L100.223 28.5822L99.4426 15.6169L95.1599 15.8746L95.9399 28.8398ZM100.223 28.5822L87.2714 27.5953C87.4613 25.1028 88.5168 23.527 89.4249 22.6426C90.6088 21.4894 91.8951 21.1214 92.5718 21.0807L93.3518 34.0459L94.1318 47.0112C105.177 46.3467 112.521 38.1312 113.174 29.569L100.223 28.5822ZM93.3518 34.0459L92.5718 21.0807C92.9219 21.0596 94.6836 21.1625 96.3904 22.7694C97.9349 24.2236 98.2665 25.8186 98.3088 26.5213L85.3435 27.3013L72.3783 28.0813C72.6509 32.6117 74.3902 37.7352 78.583 41.6829C82.9381 45.7833 88.5888 47.3446 94.1318 47.0112L93.3518 34.0459ZM89.2781 25.7215L90.0581 38.6867L96.2948 38.3115L95.5148 25.3463L94.7348 12.381L88.4981 12.7562L89.2781 25.7215ZM95.5148 25.3463L108.48 24.5662C108.244 20.6479 106.381 16.2412 102.158 13.3137C98.3682 10.6862 94.2734 10.3671 91.4806 10.5351L92.2606 23.5004L93.0406 36.4656C92.6301 36.4903 90.1319 36.5856 87.358 34.6626C84.1513 32.4395 82.7241 29.0275 82.5495 26.1263L95.5148 25.3463ZM92.2606 23.5004L91.4806 10.5351C88.697 10.7026 84.6281 11.5092 81.1611 14.6315C77.2983 18.1102 76.0855 22.7234 76.3128 26.5015L89.2781 25.7215L102.243 24.9415C102.409 27.7023 101.497 31.2767 98.545 33.935C95.989 36.2368 93.442 36.4415 93.0406 36.4656L92.2606 23.5004ZM108.319 29.3846L95.3536 30.1646C95.5677 33.724 97.2358 37.0388 99.9666 39.3318C102.697 41.6247 106.251 42.6942 109.794 42.2892L108.319 29.3846ZM113.281 28.8174L126.247 28.0374C126.032 24.478 124.364 21.1631 121.634 18.8702C118.903 16.5772 115.349 15.5078 111.806 15.9127L113.281 28.8174ZM113.507 32.5648L114.783 45.4906C121.729 44.805 126.891 38.7521 126.472 31.7847L113.507 32.5648ZM106.537 33.2527L107.787 46.181C107.796 46.1802 107.804 46.1794 107.813 46.1786L106.537 33.2527ZM104.125 31.1144L91.1594 31.8944L104.125 31.1144ZM103.658 23.352L116.623 22.572C116.192 15.4115 110.038 9.95598 102.878 10.3868L103.658 23.352ZM100.446 23.5452L87.4804 24.3252C87.9112 31.4857 94.0651 36.9413 101.226 36.5105L100.446 23.5452ZM100.22 19.7979L99.4402 6.83262C96.0016 7.0395 92.786 8.60388 90.5008 11.1816C88.2157 13.7593 87.0481 17.1393 87.255 20.5779L100.22 19.7979ZM103.432 19.6046L104.212 32.5699C111.373 32.1391 116.828 25.9851 116.397 18.8246L103.432 19.6046ZM103.279 17.0618L98.6675 4.91937C93.3566 6.93646 89.9728 12.171 90.314 17.8418L103.279 17.0618ZM107.481 15.4658L120.447 14.6858C120.199 10.5613 118.003 6.80093 114.533 4.55777C111.063 2.31461 106.732 1.85629 102.87 3.32336L107.481 15.4658ZM107.715 19.347L94.7497 20.127C95.1805 27.2875 101.334 32.743 108.495 32.3122L107.715 19.347ZM112.158 19.0797L125.123 18.2997C124.693 11.1391 118.539 5.68363 111.378 6.11443L112.158 19.0797ZM112.384 22.827L113.164 35.7923C116.602 35.5854 119.818 34.021 122.103 31.4433C124.388 28.8656 125.556 25.4856 125.349 22.047L112.384 22.827ZM107.94 23.0943L107.16 10.1291C99.9999 10.5599 94.5444 16.7138 94.9751 23.8743L107.94 23.0943ZM108.319 29.3846L109.794 42.2892L114.756 41.7221L113.281 28.8174L111.806 15.9127L106.844 16.4799L108.319 29.3846ZM113.281 28.8174L100.316 29.5974L100.542 33.3448L113.507 32.5648L126.472 31.7847L126.247 28.0374L113.281 28.8174ZM113.507 32.5648L112.231 19.6389L105.261 20.3268L106.537 33.2527L107.813 46.1786L114.783 45.4906L113.507 32.5648ZM106.537 33.2527L105.286 20.3244C107.15 20.144 110.528 20.452 113.513 23.1442C116.381 25.7312 116.999 28.8281 117.09 30.3344L104.125 31.1144L91.1594 31.8944C91.3386 34.8729 92.4287 39.11 96.1133 42.4336C99.9146 45.8625 104.454 46.5035 107.787 46.181L106.537 33.2527ZM104.125 31.1144L117.09 30.3344L116.623 22.572L103.658 23.352L90.6924 24.132L91.1594 31.8944L104.125 31.1144ZM103.658 23.352L102.878 10.3868L99.6656 10.58L100.446 23.5452L101.226 36.5105L104.438 36.3172L103.658 23.352ZM100.446 23.5452L113.411 22.7652L113.185 19.0179L100.22 19.7979L87.255 20.5779L87.4804 24.3252L100.446 23.5452ZM100.22 19.7979L101 32.7631L104.212 32.5699L103.432 19.6046L102.652 6.63939L99.4402 6.83262L100.22 19.7979ZM103.432 19.6046L116.397 18.8246L116.244 16.2818L103.279 17.0618L90.314 17.8418L90.467 20.3846L103.432 19.6046ZM103.279 17.0618L107.891 29.2042L112.093 27.6082L107.481 15.4658L102.87 3.32336L98.6675 4.91937L103.279 17.0618ZM107.481 15.4658L94.5162 16.2458L94.7497 20.127L107.715 19.347L120.68 18.567L120.447 14.6858L107.481 15.4658ZM107.715 19.347L108.495 32.3122L112.938 32.0449L112.158 19.0797L111.378 6.11443L106.935 6.38173L107.715 19.347ZM112.158 19.0797L99.193 19.8597L99.4185 23.607L112.384 22.827L125.349 22.047L125.123 18.2997L112.158 19.0797ZM112.384 22.827L111.604 9.8618L107.16 10.1291L107.94 23.0943L108.72 36.0596L113.164 35.7923L112.384 22.827ZM107.94 23.0943L94.9751 23.8743L95.3536 30.1646L108.319 29.3846L121.284 28.6046L120.906 22.3143L107.94 23.0943ZM119.505 12.9963L120.285 25.9615L119.505 12.9963ZM115.115 32.468L102.15 33.248C102.581 40.4085 108.735 45.864 115.895 45.4332L115.115 32.468ZM114.89 28.7206L114.11 15.7554C110.671 15.9622 107.456 17.5266 105.171 20.1043C102.885 22.6821 101.718 26.062 101.925 29.5006L114.89 28.7206ZM118.718 28.4903L119.498 41.4556C122.936 41.2487 126.152 39.6843 128.437 37.1066C130.722 34.5289 131.89 31.1489 131.683 27.7103L118.718 28.4903ZM118.346 22.3072L131.311 21.5272C131.097 17.9789 129.439 14.6732 126.722 12.3807C124.006 10.0882 120.468 9.00924 116.935 9.39532L118.346 22.3072ZM115.063 22.6658L102.098 23.4458C102.311 26.9941 103.969 30.2997 106.686 32.5923C109.403 34.8848 112.94 35.9637 116.474 35.5777L115.063 22.6658ZM114.837 18.9185L113.377 6.01213C106.513 6.78885 101.457 12.8028 101.872 19.6985L114.837 18.9185ZM119.907 18.3448L121.367 31.2511L121.38 31.2498L119.907 18.3448ZM122.84 28.2423L109.874 29.0223C110.305 36.1828 116.459 41.6384 123.62 41.2076L122.84 28.2423ZM126.667 28.012L139.633 27.232C139.202 20.0716 133.048 14.616 125.887 15.0468L126.667 28.012ZM126.893 31.7594L127.673 44.7246C131.111 44.5178 134.327 42.9534 136.612 40.3757C138.897 37.7979 140.065 34.418 139.858 30.9794L126.893 31.7594ZM119.762 17.279L118.982 4.31375C120.044 4.24987 122.793 4.31992 125.604 6.39967C128.784 8.7519 129.938 12.096 130.083 14.509L117.117 15.289L104.152 16.069C104.381 19.8738 106.068 24.2605 110.154 27.2835C113.872 30.034 117.901 30.4031 120.542 30.2442L119.762 17.279ZM117.117 15.289L130.083 14.509C130.232 16.9966 129.446 20.4014 126.652 23.0662C124.151 25.4511 121.45 25.8914 120.285 25.9615L119.505 12.9963L118.725 0.0310322C115.98 0.196131 112.045 1.10021 108.724 4.26646C105.111 7.71258 103.92 12.2163 104.152 16.069L117.117 15.289ZM119.505 12.9963L120.285 25.9615C119.121 26.0315 116.495 25.9145 113.8 23.9643C110.746 21.7541 109.402 18.488 109.238 15.763L122.203 14.983L135.168 14.203C134.922 10.1129 133.018 5.80597 129.03 2.91986C125.402 0.293869 121.468 -0.134016 118.725 0.0310322L119.505 12.9963ZM122.203 14.983L109.238 15.763C109.078 13.1123 109.979 9.65689 112.828 7.04421C115.309 4.76878 117.919 4.37768 118.982 4.31375L119.762 17.279L120.542 30.2442C123.185 30.0852 127.057 29.2421 130.385 26.1904C134.081 22.8015 135.412 18.2456 135.168 14.203L122.203 14.983ZM115.115 32.468L128.081 31.688L127.855 27.9406L114.89 28.7206L101.925 29.5006L102.15 33.248L115.115 32.468ZM114.89 28.7206L115.67 41.6858L119.498 41.4556L118.718 28.4903L117.938 15.5251L114.11 15.7554L114.89 28.7206ZM118.718 28.4903L131.683 27.7103L131.311 21.5272L118.346 22.3072L105.38 23.0872L105.752 29.2703L118.718 28.4903ZM118.346 22.3072L116.935 9.39532L113.652 9.75399L115.063 22.6658L116.474 35.5777L119.756 35.219L118.346 22.3072ZM115.063 22.6658L128.028 21.8858L127.803 18.1384L114.837 18.9185L101.872 19.6985L102.098 23.4458L115.063 22.6658ZM114.837 18.9185L116.298 31.8248L121.367 31.2511L119.907 18.3448L118.447 5.43851L113.377 6.01213L114.837 18.9185ZM119.907 18.3448L121.38 31.2498C119.671 31.4447 116.271 31.2761 113.175 28.6024C110.145 25.9847 109.498 22.7654 109.406 21.2331L122.371 20.4531L135.336 19.6731C135.154 16.642 134.023 12.2833 130.156 8.94348C126.225 5.54775 121.637 5.07447 118.435 5.43988L119.907 18.3448ZM122.371 20.4531L109.406 21.2331L109.874 29.0223L122.84 28.2423L135.805 27.4623L135.336 19.6731L122.371 20.4531ZM122.84 28.2423L123.62 41.2076L127.447 40.9773L126.667 28.012L125.887 15.0468L122.06 15.2771L122.84 28.2423ZM126.667 28.012L113.702 28.792L113.928 32.5394L126.893 31.7594L139.858 30.9794L139.633 27.232L126.667 28.012ZM126.893 31.7594L126.113 18.7942L114.335 19.5027L115.115 32.468L115.895 45.4332L127.673 44.7246L126.893 31.7594ZM132.794 31.4044L133.574 44.3696C137.013 44.1628 140.228 42.5984 142.513 40.0206C144.799 37.4429 145.966 34.063 145.759 30.6244L132.794 31.4044ZM128.511 31.662L115.546 32.442C115.977 39.6025 122.131 45.0581 129.291 44.6273L128.511 31.662ZM127.698 18.1447L126.918 5.1795C119.758 5.61029 114.302 11.7642 114.733 18.9247L127.698 18.1447ZM131.981 17.8871L144.946 17.1071C144.739 13.6685 143.175 10.4529 140.597 8.16772C138.019 5.88256 134.639 4.71497 131.201 4.92184L131.981 17.8871ZM132.079 19.5199L144.626 22.8799C144.987 21.5313 145.128 20.1334 145.044 18.7398L132.079 19.5199ZM131.421 21.9772L118.874 18.6172C117.794 22.6502 118.719 26.9566 121.359 30.1909C123.999 33.4252 128.033 35.1932 132.201 34.9424L131.421 21.9772ZM132.492 21.9128L133.272 34.878C139.348 34.5124 144.356 29.9753 145.317 23.9639L132.492 21.9128ZM137.345 17.2957L138.125 30.261L137.345 17.2957ZM143.715 30.7474L144.495 43.7126C147.934 43.5057 151.149 41.9414 153.434 39.3636C155.72 36.7859 156.887 33.406 156.68 29.9674L143.715 30.7474ZM139.432 31.005L126.467 31.785C126.898 38.9455 133.052 44.4011 140.212 43.9702L139.432 31.005ZM139.033 24.3668L126.068 25.1468L139.033 24.3668ZM136.045 21.1349L135.265 8.16965C131.858 8.37463 126.674 9.65688 122.966 14.5378C119.619 18.9448 119.333 23.9347 119.528 27.179L132.493 26.399L145.458 25.619C145.425 25.0624 145.75 27.4903 143.653 30.2505C141.197 33.4846 137.903 34.0353 136.825 34.1001L136.045 21.1349ZM132.493 26.399L119.528 27.179L119.829 32.1844L132.794 31.4044L145.759 30.6244L145.458 25.619L132.493 26.399ZM132.794 31.4044L132.014 18.4392L127.731 18.6968L128.511 31.662L129.291 44.6273L133.574 44.3696L132.794 31.4044ZM128.511 31.662L141.477 30.882L140.663 17.3647L127.698 18.1447L114.733 18.9247L115.546 32.442L128.511 31.662ZM127.698 18.1447L128.478 31.11L132.761 30.8523L131.981 17.8871L131.201 4.92184L126.918 5.1795L127.698 18.1447ZM131.981 17.8871L119.016 18.6671L119.114 20.2999L132.079 19.5199L145.044 18.7398L144.946 17.1071L131.981 17.8871ZM132.079 19.5199L119.533 16.1599L118.874 18.6172L131.421 21.9772L143.968 25.3372L144.626 22.8799L132.079 19.5199ZM131.421 21.9772L132.201 34.9424L133.272 34.878L132.492 21.9128L131.712 8.94755L130.641 9.01197L131.421 21.9772ZM132.492 21.9128L145.317 23.9639C145.182 24.8085 144.724 26.335 143.3 27.801C141.72 29.4295 139.73 30.1644 138.125 30.261L137.345 17.2957L136.565 4.33049C132.069 4.60098 127.848 6.4238 124.661 9.70704C121.631 12.8278 120.191 16.5759 119.666 19.8617L132.492 21.9128ZM137.345 17.2957L138.125 30.261C136.817 30.3396 134.315 29.9381 132.236 27.8167C131.33 26.8925 130.833 25.9548 130.579 25.2835C130.334 24.6356 130.311 24.233 130.31 24.22L143.275 23.44L156.241 22.66C155.994 18.5622 154.67 13.5933 150.786 9.63148C146.667 5.42995 141.326 4.0441 136.565 4.33049L137.345 17.2957ZM143.275 23.44L130.31 24.22L130.75 31.5274L143.715 30.7474L156.68 29.9674L156.241 22.66L143.275 23.44ZM143.715 30.7474L142.935 17.7821L138.652 18.0398L139.432 31.005L140.212 43.9702L144.495 43.7126L143.715 30.7474ZM139.432 31.005L152.398 30.225L151.998 23.5868L139.033 24.3668L126.068 25.1468L126.467 31.785L139.432 31.005ZM139.033 24.3668L151.998 23.5868C151.891 21.803 151.502 17.0241 147.847 13.0221C143.516 8.27922 137.961 8.00743 135.265 8.16965L136.045 21.1349L136.825 34.1001C136.189 34.1383 132.055 34.2513 128.665 30.5398C127.219 28.9568 126.596 27.3671 126.334 26.4748C126.2 26.0213 126.136 25.6699 126.105 25.4681C126.074 25.2639 126.068 25.1471 126.068 25.1468L139.033 24.3668ZM161.791 16.0937L174.756 15.3137C174.325 8.15316 168.172 2.69766 161.011 3.12844L161.791 16.0937ZM162.016 19.841L162.796 32.8063C166.235 32.5994 169.451 31.035 171.736 28.4573C174.021 25.8796 175.189 22.4996 174.982 19.061L162.016 19.841ZM159.863 20.2124L152.196 9.7281C149.284 11.8576 147.389 15.1023 146.964 18.6847C146.54 22.2672 147.625 25.8648 149.959 28.6156L159.863 20.2124ZM160.331 21.7423L173.296 20.9623V20.9623L160.331 21.7423ZM154.553 27.5164L149.662 15.4841C143.631 17.9358 140.347 24.4726 141.98 30.7741C143.613 37.0756 149.658 41.1953 156.12 40.4103L154.553 27.5164ZM146.251 35.9676L133.285 36.7476C133.716 43.9081 139.87 49.3636 147.031 48.9329L146.251 35.9676ZM146.025 32.2202L145.245 19.255C138.085 19.6858 132.629 25.8397 133.06 33.0002L146.025 32.2202ZM147.323 30.1274L134.728 33.3003C136.455 40.1558 143.348 44.3711 150.237 42.7849L147.323 30.1274ZM146.723 27.7457L144.602 14.9314C141.019 15.5245 137.848 17.5903 135.858 20.6278C133.868 23.6654 133.241 27.3973 134.128 30.9186L146.723 27.7457ZM154.973 26.0136L158.747 38.4419C164.498 36.6957 168.3 31.2326 167.939 25.2336L154.973 26.0136ZM154.909 24.9429L167.874 24.1629C167.621 19.9475 165.333 16.1185 161.742 13.8968C158.15 11.6752 153.703 11.3383 149.818 12.9936L154.909 24.9429ZM151.844 16.4235L152.624 29.3887L151.844 16.4235ZM157.285 17.5468L150.229 28.4518C156.161 32.2901 164.073 30.6825 168.037 24.8336L157.285 17.5468ZM160.613 16.1645L161.393 29.1298L162.571 29.0589L161.791 16.0937L161.011 3.12844L159.833 3.19929L160.613 16.1645ZM161.791 16.0937L148.826 16.8737L149.051 20.621L162.016 19.841L174.982 19.061L174.756 15.3137L161.791 16.0937ZM162.016 19.841L161.236 6.87582L160.326 6.93056L161.106 19.8958L161.886 32.861L162.796 32.8063L162.016 19.841ZM161.106 19.8958L160.326 6.93056C160.26 6.93458 159.152 6.98146 157.918 7.22864C156.612 7.49035 154.418 8.10323 152.196 9.7281L159.863 20.2124L167.53 30.6967C165.668 32.0581 163.895 32.5248 163.02 32.7001C162.217 32.8609 161.552 32.8812 161.886 32.861L161.106 19.8958ZM159.863 20.2124L149.959 28.6156C149.096 27.599 148.611 26.693 148.402 26.278C148.143 25.7636 147.964 25.3075 147.838 24.9341C147.591 24.2011 147.419 23.4 147.366 22.5223L160.331 21.7423L173.296 20.9623C173.2 19.362 172.88 17.8981 172.453 16.632C172.142 15.7097 171.395 13.7277 169.767 11.8092L159.863 20.2124ZM160.331 21.7423L147.366 22.5223C147.276 21.0312 147.559 19.4905 148.198 18.0963C148.801 16.7802 149.557 15.9489 150.005 15.5305C150.723 14.8611 150.969 14.9524 149.662 15.4841L154.553 27.5164L159.445 39.5487C161.782 38.5985 164.994 37.0743 167.727 34.524C170.833 31.6266 173.66 27.0019 173.296 20.9623L160.331 21.7423ZM154.553 27.5164L156.12 40.4103C156.691 40.3409 155.596 40.6307 153.746 39.8645C152.642 39.4072 151.069 38.4769 149.746 36.7288C148.373 34.915 147.833 32.963 147.74 31.4186L160.705 30.6386L173.67 29.8586C173.491 26.8822 172.522 23.7774 170.459 21.0514C168.446 18.3912 165.921 16.7894 163.684 15.8631C159.567 14.1587 155.483 14.3193 152.987 14.6225L154.553 27.5164ZM160.705 30.6386L147.74 31.4186C147.693 30.6469 147.74 29.5027 148.15 28.1689C148.574 26.7895 149.287 25.5412 150.186 24.5138C151.047 23.5304 151.907 22.943 152.469 22.624C153.015 22.314 153.38 22.1994 153.402 22.1922C153.435 22.1819 153.291 22.2288 152.897 22.303C152.51 22.3757 151.979 22.4569 151.264 22.5408C149.803 22.7122 147.933 22.8542 145.471 23.0024L146.251 35.9676L147.031 48.9329C151.639 48.6556 157.038 48.2929 161.261 46.9523C163.515 46.237 166.949 44.8039 169.733 41.624C172.911 37.9932 173.899 33.6642 173.67 29.8586L160.705 30.6386ZM146.251 35.9676L159.216 35.1876L158.99 31.4402L146.025 32.2202L133.06 33.0002L133.285 36.7476L146.251 35.9676ZM146.025 32.2202L146.805 45.1855C150.75 44.9482 154.486 44.7228 157.12 44.18C158.242 43.9488 161.491 43.2599 164.407 40.7821C168.571 37.2447 169.506 32.5251 169.306 29.2078L156.341 29.9878L143.376 30.7678C143.316 29.7729 143.347 28.0533 144.071 26.0572C144.844 23.9268 146.137 22.2177 147.587 20.9852C148.904 19.8664 150.134 19.3208 150.757 19.081C151.397 18.8345 151.834 18.746 151.877 18.7373C151.912 18.7301 151.516 18.8048 150.23 18.9153C149.03 19.0184 147.436 19.1232 145.245 19.255L146.025 32.2202ZM156.341 29.9878L169.306 29.2078C169.117 26.0743 167.871 22.8875 165.425 20.3577C163.203 18.0593 160.705 17.0381 159.074 16.5656C156.091 15.701 153.32 15.9135 152.097 16.03C149.305 16.2957 146.058 17.0902 144.409 17.4698L147.323 30.1274L150.237 42.7849C152.695 42.219 153.897 41.9534 154.558 41.8905C155.061 41.8426 153.767 42.0737 151.844 41.5164C150.744 41.1976 148.672 40.4022 146.75 38.415C144.605 36.1964 143.534 33.4061 143.376 30.7678L156.341 29.9878ZM147.323 30.1274L159.918 26.9545L159.318 24.5728L146.723 27.7457L134.128 30.9186L134.728 33.3003L147.323 30.1274ZM146.723 27.7457L148.844 40.56C151.818 40.0676 155.39 39.4614 158.747 38.4419L154.973 26.0136L151.199 13.5853C149.703 14.0399 147.745 14.411 144.602 14.9314L146.723 27.7457ZM154.973 26.0136L167.939 25.2336L167.874 24.1629L154.909 24.9429L141.944 25.7229L142.008 26.7936L154.973 26.0136ZM154.909 24.9429L149.818 12.9936C148.86 13.4016 149.114 12.9593 150.605 13.264C151.509 13.4488 153.292 14.031 154.948 15.7527C156.737 17.6132 157.403 19.7932 157.498 21.3755L144.533 22.1555L131.568 22.9355C131.797 26.7394 133.221 30.6368 136.224 33.7591C139.093 36.7425 142.544 38.131 145.403 38.7153C150.804 39.819 156.112 38.5489 160 36.8923L154.909 24.9429ZM144.533 22.1555L157.498 21.3755C157.573 22.6112 157.347 24.1208 156.599 25.6133C155.872 27.0636 154.895 28.0182 154.121 28.5772C152.768 29.555 151.965 29.4284 152.624 29.3887L151.844 16.4235L151.064 3.45821C147.468 3.67457 142.902 4.63394 138.904 7.52377C134.34 10.8224 131.168 16.2904 131.568 22.9355L144.533 22.1555ZM151.844 16.4235L152.624 29.3887C152.847 29.3753 152.716 29.4085 152.327 29.3338C151.916 29.2547 151.131 29.0359 150.229 28.4518L157.285 17.5468L164.341 6.64181C159.614 3.58336 154.548 3.24863 151.064 3.45821L151.844 16.4235ZM157.285 17.5468L168.037 24.8336C166.388 27.2664 164.208 28.3454 162.95 28.7725C161.862 29.142 161.112 29.1467 161.393 29.1298L160.613 16.1645L159.833 3.19929C158.956 3.25207 151.187 3.39227 146.533 10.26L157.285 17.5468ZM152.553 23.7415L153.333 36.7067C155.225 36.5929 158.713 36.2275 162.035 34.2059C163.919 33.0593 165.94 31.2602 167.353 28.5974C168.775 25.918 169.133 23.206 168.997 20.9523L156.032 21.7323L143.067 22.5123C142.966 20.8341 143.228 18.6417 144.405 16.4228C145.574 14.2204 147.203 12.8227 148.53 12.0152C150.737 10.6717 152.451 10.7355 151.773 10.7762L152.553 23.7415ZM156.032 21.7323L168.997 20.9523C168.859 18.6509 168.154 16.0071 166.43 13.5439C164.725 11.106 162.533 9.5756 160.55 8.66351C157.021 7.04016 153.52 7.07139 151.558 7.18948L152.338 20.1547L153.118 33.1199C153.725 33.0834 152.037 33.3414 149.696 32.2644C148.307 31.6255 146.553 30.4482 145.145 28.4356C143.719 26.3979 143.172 24.2515 143.067 22.5123L156.032 21.7323ZM152.338 20.1547L151.558 7.18948C149.584 7.30822 146.134 7.6993 142.846 9.69935C141.006 10.8185 139.005 12.5752 137.582 15.1887C136.137 17.8428 135.724 20.5827 135.867 22.9455L148.832 22.1655L161.797 21.3855C161.905 23.1862 161.593 25.413 160.398 27.6089C159.224 29.7641 157.622 31.1173 156.345 31.8936C154.185 33.208 152.522 33.1558 153.118 33.1199L152.338 20.1547ZM148.832 22.1655L135.867 22.9455C136.006 25.2597 136.718 27.9359 138.481 30.4251C140.223 32.8857 142.452 34.4027 144.438 35.2935C147.952 36.8706 151.43 36.8212 153.333 36.7067L152.553 23.7415L151.773 10.7762C151.107 10.8163 152.758 10.5544 155.072 11.5927C156.457 12.214 158.242 13.38 159.681 15.413C161.141 17.4746 161.692 19.6468 161.797 21.3855L148.832 22.1655ZM191.849 42.3996L192.638 55.3643C196.296 55.1418 199.69 53.3841 201.983 50.5248C204.276 47.6654 205.254 43.9705 204.676 40.3514L191.849 42.3996ZM187.766 42.6479L174.88 44.274C175.737 51.0671 181.72 56.0282 188.555 55.6126L187.766 42.6479ZM187.101 37.3791L199.988 35.753C199.165 29.2284 193.595 24.3488 187.019 24.3907L187.101 37.3791ZM184.914 25.6111L172.19 28.2231C173.268 33.473 177.46 37.5219 182.744 38.4172C188.028 39.3126 193.319 36.8705 196.066 32.2687L184.914 25.6111ZM185.463 24.6901L196.616 31.3477C198.1 28.8612 198.711 25.9499 198.351 23.0765L185.463 24.6901ZM184.597 17.7709L173.444 11.1133C171.96 13.5998 171.349 16.5111 171.709 19.3845L184.597 17.7709ZM185.545 16.1821L192.203 5.02947C189.245 3.26376 185.707 2.74538 182.367 3.58837C179.027 4.43139 176.158 6.56667 174.393 9.52455L185.545 16.1821ZM198.117 23.6867L209.27 30.3443C212.947 24.1848 210.934 16.2109 204.775 12.5341L198.117 23.6867ZM196.193 26.9102L189.535 38.0629C192.493 39.8286 196.031 40.347 199.371 39.504C202.711 38.661 205.58 36.5257 207.345 33.5678L196.193 26.9102ZM188.687 22.4295L195.344 11.2768C191.018 8.69433 185.589 8.84662 181.414 11.6675C177.24 14.4884 175.073 19.4689 175.855 24.4461L188.687 22.4295ZM190.268 32.4927L177.437 34.5093C178.105 38.7599 180.835 42.4038 184.726 44.2397C188.618 46.0756 193.166 45.8652 196.871 43.6778L190.268 32.4927ZM194.104 28.4739L200.761 17.3212C197.803 15.5555 194.265 15.0372 190.925 15.8802C187.585 16.7232 184.717 18.8585 182.951 21.8163L194.104 28.4739ZM197.788 30.6731L208.94 37.3306C212.617 31.1712 210.605 23.1973 204.445 19.5204L197.788 30.6731ZM190.94 36.7037L186.444 24.5181C180.625 26.6652 177.136 32.627 178.114 38.7519L190.94 36.7037ZM182.132 32.1017L175.474 43.2543L182.132 32.1017ZM186.61 33.4943L186.514 46.4826C190.255 46.5103 193.826 44.9236 196.313 42.129C198.8 39.3344 199.961 35.6031 199.499 31.8908L186.61 33.4943ZM186.287 30.8967L199.176 29.2932C199.175 29.2856 199.174 29.278 199.173 29.2705L186.287 30.8967ZM191.849 42.3996L191.061 29.4348L186.978 29.6831L187.766 42.6479L188.555 55.6126L192.638 55.3643L191.849 42.3996ZM187.766 42.6479L200.653 41.0217L199.988 35.753L187.101 37.3791L174.215 39.0053L174.88 44.274L187.766 42.6479ZM187.101 37.3791L187.019 24.3907C187.266 24.3891 187.394 24.428 187.379 24.4236C187.359 24.4177 187.184 24.3627 186.865 24.1725L180.208 35.3252L173.55 46.4778C177.561 48.8723 182.208 50.3993 187.184 50.3675L187.101 37.3791ZM180.208 35.3252L186.865 24.1725C185.681 23.4652 186.342 23.4777 186.975 24.9224C187.336 25.7465 187.591 26.858 187.5 28.114C187.41 29.3563 187.016 30.2699 186.713 30.7767L175.561 24.1191L164.408 17.4615C161.13 22.953 160.584 29.4138 163.177 35.3382C165.484 40.6088 169.693 44.175 173.55 46.4778L180.208 35.3252ZM175.561 24.1191L186.713 30.7767C185.834 32.2495 183.926 33.8998 181.225 34.3679C178.952 34.7617 177.122 34.1509 175.931 33.4395L182.588 22.2868L189.246 11.1341C186.005 9.19941 181.596 7.93904 176.789 8.77201C171.554 9.67928 167.157 12.8574 164.408 17.4615L175.561 24.1191ZM182.588 22.2868L175.931 33.4395C175.021 32.8964 174.057 32.0356 173.297 30.8583C172.575 29.741 172.297 28.7416 172.19 28.2231L184.914 25.6111L197.637 22.9991C196.824 19.0399 194.531 14.2894 189.246 11.1341L182.588 22.2868ZM184.914 25.6111L196.066 32.2687L196.616 31.3477L185.463 24.6901L174.311 18.0325L173.761 18.9535L184.914 25.6111ZM185.463 24.6901L198.351 23.0765L197.485 16.1572L184.597 17.7709L171.709 19.3845L172.575 26.3038L185.463 24.6901ZM184.597 17.7709L195.75 24.4284L196.698 22.8397L185.545 16.1821L174.393 9.52455L173.444 11.1133L184.597 17.7709ZM185.545 16.1821L178.888 27.3348L191.459 34.8394L198.117 23.6867L204.775 12.5341L192.203 5.02947L185.545 16.1821ZM198.117 23.6867L186.964 17.0291L185.04 20.2526L196.193 26.9102L207.345 33.5678L209.27 30.3443L198.117 23.6867ZM196.193 26.9102L202.85 15.7575L195.344 11.2768L188.687 22.4295L182.029 33.5821L189.535 38.0629L196.193 26.9102ZM188.687 22.4295L175.855 24.4461L177.437 34.5093L190.268 32.4927L203.099 30.4761L201.518 20.4128L188.687 22.4295ZM190.268 32.4927L196.871 43.6778C200.541 41.5116 203.286 38.4316 205.256 35.1315L194.104 28.4739L182.951 21.8163C182.749 22.1541 182.889 21.7657 183.665 21.3075L190.268 32.4927ZM194.104 28.4739L187.446 39.6266L191.13 41.8257L197.788 30.6731L204.445 19.5204L200.761 17.3212L194.104 28.4739ZM197.788 30.6731L186.635 24.0155C186.372 24.4561 186.18 24.6354 186.144 24.6675C186.114 24.6936 186.21 24.6044 186.444 24.5181L190.94 36.7037L195.436 48.8893C201.338 46.7114 205.887 42.4461 208.94 37.3306L197.788 30.6731ZM190.94 36.7037L178.114 38.7519L179.023 44.4477L191.849 42.3996L204.676 40.3514L203.766 34.6555L190.94 36.7037ZM182.132 32.1017L175.474 43.2543C178.554 45.0926 182.301 46.4514 186.514 46.4826L186.61 33.4943L186.706 20.5059C187.365 20.5108 187.894 20.62 188.257 20.7325C188.612 20.8424 188.789 20.9487 188.79 20.949L182.132 32.1017ZM186.61 33.4943L199.499 31.8908L199.176 29.2932L186.287 30.8967L173.397 32.5001L173.72 35.0977L186.61 33.4943ZM186.287 30.8967L199.173 29.2705C198.897 27.0797 198.306 24.2675 196.759 21.4661C195.074 18.4158 192.722 16.2073 190.137 14.664L183.479 25.8167L176.822 36.9694C176.443 36.7433 175.922 36.3761 175.375 35.8266C174.817 35.2662 174.362 34.6466 174.018 34.0239C173.372 32.8531 173.344 32.0792 173.4 32.5228L186.287 30.8967ZM183.479 25.8167L190.137 14.664C187.636 13.1711 183.96 11.7989 179.633 12.2793C174.79 12.8171 170.538 15.5637 168.01 19.7988L179.162 26.4564L190.315 33.114C188.721 35.7835 185.822 37.7291 182.5 38.098C179.696 38.4094 177.711 37.5001 176.822 36.9694L183.479 25.8167ZM179.162 26.4564L168.01 19.7988C165.192 24.5188 164.852 30.3412 167.627 35.4902C169.793 39.5086 173.231 41.9148 175.474 43.2543L182.132 32.1017L188.79 20.949C187.971 20.4605 189.34 21.0227 190.494 23.1647C191.184 24.4447 191.753 26.2258 191.685 28.3305C191.617 30.4083 190.953 32.0457 190.315 33.114L179.162 26.4564ZM208.548 59.1744L212.817 71.4416L208.548 59.1744ZM198.681 51.0525L210.948 46.7837C208.59 40.0087 201.187 36.4278 194.412 38.7854L198.681 51.0525ZM193.362 52.9033L181.095 57.1721C183.453 63.947 190.856 67.528 197.631 65.1704L193.362 52.9033ZM191.952 48.8511L187.683 36.584C184.43 37.7161 181.759 40.0944 180.259 43.1955C178.759 46.2966 178.553 49.8665 179.685 53.12L191.952 48.8511ZM209.807 42.6379L222.074 38.3691C219.716 31.5942 212.313 28.0132 205.538 30.3708L209.807 42.6379ZM203.134 52.4272L190.867 56.696L203.134 52.4272ZM207.138 55.1223L211.407 67.3895L207.138 55.1223ZM208.579 50.5324L196.312 54.8012L208.579 50.5324ZM207.671 47.9239L219.938 43.6551C218.806 40.4016 216.428 37.7312 213.327 36.2312C210.226 34.7312 206.656 34.5246 203.402 35.6567L207.671 47.9239ZM202.226 49.8187L197.957 37.5515C191.182 39.9092 187.601 47.3125 189.959 54.0875L202.226 49.8187ZM212.036 49.0453L199.769 53.3142C200.05 54.122 200.102 54.4146 200.098 54.3878C200.093 54.3625 199.944 53.5121 200.237 52.2199C200.575 50.7323 201.366 49.262 202.519 48.1374C203.542 47.1392 204.377 46.8734 204.279 46.9073L208.548 59.1744L212.817 71.4416C218.396 69.5002 223.904 65.3085 225.57 57.973C226.852 52.3267 225.126 47.1405 224.304 44.7765L212.036 49.0453ZM208.548 59.1744L204.279 46.9073C204.169 46.9458 204.977 46.6374 206.388 46.7815C207.981 46.9441 209.514 47.5996 210.708 48.5576C211.746 49.3902 212.16 50.1538 212.174 50.1798C212.189 50.2064 212.049 49.9473 211.767 49.139L199.5 53.4078L187.233 57.6766C188.055 60.0385 189.924 65.1877 194.452 68.8201C200.326 73.5324 207.249 73.3791 212.817 71.4416L208.548 59.1744ZM199.5 53.4078L211.767 49.139L210.948 46.7837L198.681 51.0525L186.413 55.3213L187.233 57.6766L199.5 53.4078ZM198.681 51.0525L194.412 38.7854L189.093 40.6361L193.362 52.9033L197.631 65.1704L202.949 63.3197L198.681 51.0525ZM193.362 52.9033L205.629 48.6344L204.219 44.5823L191.952 48.8511L179.685 53.12L181.095 57.1721L193.362 52.9033ZM191.952 48.8511L196.221 61.1183L214.076 54.9051L209.807 42.6379L205.538 30.3708L187.683 36.584L191.952 48.8511ZM209.807 42.6379L197.54 46.9068L199.769 53.3142L212.036 49.0453L224.304 44.7765L222.074 38.3691L209.807 42.6379ZM203.134 52.4272L190.867 56.696C191.111 57.3987 191.548 58.6208 192.193 59.885C192.831 61.138 194.06 63.2197 196.28 65.0418C201.997 69.7328 208.365 68.448 211.407 67.3895L207.138 55.1223L202.869 42.8552C203.14 42.7611 204.427 42.3286 206.32 42.4362C208.55 42.5628 210.854 43.3975 212.759 44.96C214.393 46.3011 215.138 47.6975 215.335 48.0846C215.538 48.483 215.575 48.6588 215.401 48.1584L203.134 52.4272ZM207.138 55.1223L211.407 67.3895C214.485 66.3183 220.255 63.346 221.797 56.1179C222.392 53.3252 222.061 50.9451 221.785 49.5756C221.505 48.1914 221.091 46.9676 220.846 46.2636L208.579 50.5324L196.312 54.8012C196.485 55.3002 196.407 55.1448 196.32 54.7132C196.236 54.2963 195.953 52.753 196.391 50.7002C196.902 48.3048 198.175 46.2074 199.857 44.7032C201.285 43.4249 202.581 42.9554 202.869 42.8552L207.138 55.1223ZM208.579 50.5324L220.846 46.2636L219.938 43.6551L207.671 47.9239L195.404 52.1927L196.312 54.8012L208.579 50.5324ZM207.671 47.9239L203.402 35.6567L197.957 37.5515L202.226 49.8187L206.495 62.0858L211.94 60.191L207.671 47.9239ZM202.226 49.8187L189.959 54.0875L190.867 56.696L203.134 52.4272L215.401 48.1584L214.493 45.5499L202.226 49.8187ZM197.564 64.9764L193.295 52.7093C190.041 53.8414 187.371 56.2196 185.871 59.3207C184.371 62.4218 184.164 65.9918 185.296 69.2452L197.564 64.9764ZM211.314 62.6333L223.68 58.6622C223.672 58.6375 223.664 58.6128 223.656 58.5882L211.314 62.6333ZM214.028 71.0867L218.297 83.3538C224.956 81.0364 228.551 73.829 226.395 67.1155L214.028 71.0867ZM210.482 72.3205L198.119 76.3018C199.191 79.6308 201.56 82.3869 204.691 83.9464C207.821 85.5059 211.448 85.7371 214.751 84.5876L210.482 72.3205ZM208.369 65.7589L220.733 61.7776C219.661 58.4485 217.292 55.6925 214.161 54.133C211.031 52.5735 207.404 52.3423 204.101 53.4917L208.369 65.7589ZM198.974 69.0285L186.706 73.2974C189.064 80.0723 196.467 83.6533 203.242 81.2957L198.974 69.0285ZM197.564 64.9764L201.832 77.2436L212.697 73.4628L208.428 61.1956L204.159 48.9285L193.295 52.7093L197.564 64.9764ZM208.428 61.1956L212.697 73.4628C211.14 74.0045 207.933 74.5844 204.414 72.8253C200.915 71.0765 199.468 68.1943 198.971 66.6784L211.314 62.6333L223.656 58.5882C222.7 55.6706 220.506 51.8272 216.028 49.5888C211.529 47.3401 207.109 47.902 204.159 48.9285L208.428 61.1956ZM211.314 62.6333L198.947 66.6045L201.661 75.0578L214.028 71.0867L226.395 67.1155L223.68 58.6622L211.314 62.6333ZM214.028 71.0867L209.759 58.8195L206.214 60.0533L210.482 72.3205L214.751 84.5876L218.297 83.3538L214.028 71.0867ZM210.482 72.3205L222.846 68.3391L220.733 61.7776L208.369 65.7589L196.006 69.7402L198.119 76.3018L210.482 72.3205ZM208.369 65.7589L204.101 53.4917L194.705 56.7614L198.974 69.0285L203.242 81.2957L212.638 78.026L208.369 65.7589ZM198.974 69.0285L211.241 64.7597L209.831 60.7076L197.564 64.9764L185.296 69.2452L186.706 73.2974L198.974 69.0285ZM207.4 82.6361L195.133 86.9049L207.4 82.6361ZM213.605 80.4769L201.338 84.7457L213.605 80.4769ZM208.003 74.3342L212.272 86.6014C211.911 86.7272 211.162 86.9104 210.129 86.8318C209.073 86.7513 208.028 86.4181 207.119 85.8817C205.359 84.8422 204.904 83.5726 204.883 83.5119L217.15 79.2431L229.417 74.9743C227.995 70.8868 225.196 66.3872 220.326 63.5122C215.111 60.4333 209.141 60.1855 203.734 62.0671L208.003 74.3342ZM217.15 79.2431L204.883 83.5119C204.852 83.4221 204.426 82.135 205.163 80.2291C205.543 79.2466 206.154 78.34 206.93 77.624C207.689 76.9238 208.387 76.6033 208.749 76.4774L213.018 88.7446L217.287 101.012C222.692 99.1306 227.213 95.2339 229.393 89.5964C231.429 84.3279 230.841 79.0655 229.417 74.9743L217.15 79.2431ZM213.018 88.7446L208.749 76.4774C209.095 76.357 209.83 76.1749 210.852 76.2507C211.898 76.3283 212.94 76.6558 213.851 77.1907C215.622 78.2296 216.09 79.5111 216.121 79.6011L203.854 83.8699L191.587 88.1388C193.011 92.2302 195.82 96.729 200.703 99.5948C205.925 102.66 211.89 102.89 217.287 101.012L213.018 88.7446ZM203.854 83.8699L216.121 79.6011C216.143 79.662 216.577 80.9477 215.836 82.8633C215.454 83.8505 214.84 84.7575 214.065 85.4707C213.309 86.1669 212.618 86.481 212.272 86.6014L208.003 74.3342L203.734 62.0671C198.337 63.9454 193.797 67.8324 191.608 73.4908C189.563 78.7775 190.165 84.0511 191.587 88.1388L203.854 83.8699ZM209.413 78.3864L205.145 66.1192C201.701 67.3175 197.604 69.9283 195.445 74.8724C193.384 79.5927 194.143 84.0601 195.133 86.9049L207.4 82.6361L219.667 78.3673C219.987 79.2874 220.677 82.0045 219.251 85.2684C217.728 88.756 214.973 90.2043 213.682 90.6535L209.413 78.3864ZM207.4 82.6361L195.133 86.9049C196.131 89.7746 198.327 93.7356 202.873 96.1396C207.619 98.6497 212.434 98.1577 215.877 96.9596L211.608 84.6925L207.339 72.4253C208.629 71.9764 211.67 71.4059 215.016 73.1754C218.162 74.8388 219.329 77.3971 219.667 78.3673L207.4 82.6361ZM211.608 84.6925L215.877 96.9596C219.348 95.7516 223.413 93.1258 225.556 88.2146C227.602 83.526 226.87 79.0774 225.872 76.2081L213.605 80.4769L201.338 84.7457C201 83.7758 200.333 81.0649 201.747 77.8241C203.259 74.3608 205.995 72.8931 207.339 72.4253L211.608 84.6925ZM213.605 80.4769L225.872 76.2081C224.882 73.3634 222.711 69.4089 218.196 66.9867C213.452 64.4414 208.617 64.9108 205.145 66.1192L209.413 78.3864L213.682 90.6535C212.337 91.1216 209.263 91.6739 205.915 89.8778C202.797 88.2047 201.658 85.6657 201.338 84.7457L213.605 80.4769ZM212.234 107.136L199.967 111.405C202.325 118.18 209.728 121.76 216.503 119.403L212.234 107.136ZM210.824 103.084L206.556 90.8165C199.781 93.1741 196.2 100.577 198.557 107.352L210.824 103.084ZM211.609 102.81L211.439 89.8228C210.043 89.8412 208.659 90.0844 207.341 90.5433L211.609 102.81ZM214.153 102.777L214.324 115.765C218.498 115.71 222.392 113.651 224.789 110.233C227.185 106.814 227.793 102.451 226.42 98.5082L214.153 102.777ZM213.801 101.764L226.068 97.4952C224.306 92.4328 219.616 88.9725 214.259 88.7834L213.801 101.764ZM220.461 99.4461L212.044 89.5542C207.962 93.028 206.433 98.6526 208.194 103.715L220.461 99.4461ZM220.814 100.459L208.547 104.728C209.919 108.671 213.103 111.714 217.104 112.907C221.105 114.099 225.436 113.296 228.743 110.747L220.814 100.459ZM222.829 98.9062L218.56 86.6391C217.241 87.0979 216.006 87.7663 214.9 88.6185L222.829 98.9062ZM229.439 96.606L241.706 92.3372C239.348 85.5622 231.945 81.9813 225.17 84.3389L229.439 96.606ZM230.849 100.658L235.118 112.925C238.371 111.793 241.042 109.415 242.542 106.314C244.042 103.213 244.248 99.6428 243.116 96.3893L230.849 100.658ZM212.936 98.5443L200.669 102.813L212.936 98.5443ZM212.234 107.136L224.502 102.867L223.092 98.8148L210.824 103.084L198.557 107.352L199.967 111.405L212.234 107.136ZM210.824 103.084L215.093 115.351L215.878 115.078L211.609 102.81L207.341 90.5433L206.556 90.8165L210.824 103.084ZM211.609 102.81L211.78 115.798L214.324 115.765L214.153 102.777L213.983 89.7894L211.439 89.8228L211.609 102.81ZM214.153 102.777L226.42 98.5082L226.068 97.4952L213.801 101.764L201.534 106.033L201.886 107.046L214.153 102.777ZM213.801 101.764L214.259 88.7834C214.504 88.792 216.112 88.8664 217.939 90.0312C219.962 91.321 220.779 92.9841 220.996 93.6098L208.729 97.8786L196.462 102.147C197.781 105.939 200.171 109.511 203.973 111.935C207.578 114.234 211.172 114.668 213.342 114.745L213.801 101.764ZM208.729 97.8786L220.996 93.6098C221.272 94.403 221.471 95.5315 221.307 96.8584C221.144 98.182 220.666 99.3228 220.086 100.2C219.005 101.834 217.825 102.248 217.729 102.282L213.46 90.0145L209.191 77.7473C205.473 79.0411 201.284 81.5387 198.422 85.8654C195.273 90.6235 194.5 96.5083 196.462 102.147L208.729 97.8786ZM213.46 90.0145L217.729 102.282C217.631 102.316 216.428 102.729 214.544 102.107C213.535 101.774 212.454 101.169 211.51 100.234C210.565 99.2973 210.029 98.298 209.758 97.5206L222.025 93.2518L234.292 88.983C232.343 83.3821 228.121 79.2339 222.692 77.4407C217.753 75.8092 212.91 76.453 209.191 77.7473L213.46 90.0145ZM222.025 93.2518L209.758 97.5206C209.54 96.8949 209.148 95.084 209.933 92.817C210.642 90.7699 211.857 89.713 212.044 89.5542L220.461 99.4461L228.879 109.338C230.533 107.93 233.081 105.359 234.48 101.318C235.956 97.058 235.612 92.7744 234.292 88.983L222.025 93.2518ZM220.461 99.4461L208.194 103.715L208.547 104.728L220.814 100.459L233.081 96.1903L232.728 95.1773L220.461 99.4461ZM220.814 100.459L228.743 110.747L230.758 109.194L222.829 98.9062L214.9 88.6185L212.885 90.1714L220.814 100.459ZM222.829 98.9062L227.098 111.173L233.708 108.873L229.439 96.606L225.17 84.3389L218.56 86.6391L222.829 98.9062ZM229.439 96.606L217.172 100.875L218.582 104.927L230.849 100.658L243.116 96.3893L241.706 92.3372L229.439 96.606ZM230.849 100.658L226.58 88.391L207.966 94.8686L212.234 107.136L216.503 119.403L235.118 112.925L230.849 100.658ZM217.232 100.854L221.501 113.121C224.884 111.944 229.196 109.291 231.324 104.011C233.283 99.1525 232.299 94.6785 231.408 92.1162L219.141 96.3851L206.873 100.654C206.74 100.27 205.878 97.6555 207.231 94.2994C208.753 90.5223 211.732 89.0152 212.963 88.5868L217.232 100.854ZM219.141 96.3851L231.408 92.1162C230.516 89.554 228.51 85.4359 223.958 82.8426C219.012 80.0246 213.985 80.6219 210.601 81.7995L214.87 94.0666L219.139 106.334C217.908 106.762 214.637 107.43 211.099 105.414C207.954 103.622 207.007 101.038 206.873 100.654L219.141 96.3851ZM214.87 94.0666L210.601 81.7995C207.22 82.9759 202.939 85.6131 200.795 90.839C198.805 95.6893 199.753 100.181 200.669 102.813L212.936 98.5443L225.203 94.2754C225.361 94.7297 226.2 97.3569 224.828 100.7C223.302 104.419 220.367 105.906 219.139 106.334L214.87 94.0666ZM212.936 98.5443L200.669 102.813C201.585 105.445 203.63 109.555 208.201 112.122C213.126 114.888 218.12 114.298 221.501 113.121L217.232 100.854L212.963 88.5868C214.191 88.1594 217.415 87.5033 220.92 89.4715C224.071 91.2409 225.045 93.8212 225.203 94.2754L212.936 98.5443ZM229.326 115.049L241.594 110.78C239.236 104.005 231.833 100.424 225.058 102.782L229.326 115.049ZM230.737 119.101L235.005 131.368C238.259 130.236 240.929 127.858 242.429 124.757C243.929 121.656 244.136 118.086 243.004 114.832L230.737 119.101ZM217.947 123.552L205.68 127.821C208.038 134.596 215.441 138.177 222.216 135.819L217.947 123.552ZM216.537 119.5L212.268 107.233C205.493 109.59 201.912 116.994 204.27 123.769L216.537 119.5ZM218.082 118.962L217.911 105.975C216.515 105.993 215.132 106.236 213.813 106.695L218.082 118.962ZM220.626 118.929L220.796 131.916C224.971 131.862 228.865 129.803 231.261 126.384C233.658 122.966 234.265 118.603 232.893 114.66L220.626 118.929ZM220.273 117.916L232.54 113.647C230.539 107.897 224.814 104.309 218.767 105.015L220.273 117.916ZM225.731 104.716L237.998 100.447C236.866 97.194 234.488 94.5236 231.386 93.0236C228.285 91.5236 224.715 91.317 221.462 92.4491L225.731 104.716ZM227.141 108.768L231.41 121.036C238.185 118.678 241.766 111.275 239.408 104.5L227.141 108.768ZM218.56 114.707L206.293 118.976C207.415 122.199 210.056 126.841 215.759 129.085C220.909 131.111 225.79 130.033 228.859 128.964L224.591 116.697L220.322 104.43C219.795 104.613 222.044 103.642 225.269 104.911C229.049 106.398 230.472 109.418 230.827 110.438L218.56 114.707ZM224.591 116.697L228.859 128.964L233.595 127.316L229.326 115.049L225.058 102.782L220.322 104.43L224.591 116.697ZM229.326 115.049L217.059 119.318L218.469 123.37L230.737 119.101L243.004 114.832L241.594 110.78L229.326 115.049ZM230.737 119.101L226.468 106.834L213.678 111.285L217.947 123.552L222.216 135.819L235.005 131.368L230.737 119.101ZM217.947 123.552L230.214 119.283L228.804 115.231L216.537 119.5L204.27 123.769L205.68 127.821L217.947 123.552ZM216.537 119.5L220.806 131.767L222.351 131.229L218.082 118.962L213.813 106.695L212.268 107.233L216.537 119.5ZM218.082 118.962L218.252 131.95L220.796 131.916L220.626 118.929L220.455 105.941L217.911 105.975L218.082 118.962ZM220.626 118.929L232.893 114.66L232.54 113.647L220.273 117.916L208.006 122.185L208.358 123.198L220.626 118.929ZM220.273 117.916L218.767 105.015C219.617 104.916 221.21 104.943 223.007 105.915C225.004 106.994 226.251 108.71 226.779 110.229L214.512 114.497L202.245 118.766C203.725 123.02 206.625 126.588 210.65 128.765C214.476 130.834 218.474 131.203 221.779 130.817L220.273 117.916ZM214.512 114.497L226.779 110.229C227.21 111.466 227.502 113.983 226.025 116.56C225.381 117.683 224.613 118.415 224.036 118.842C223.479 119.253 223.098 119.385 223.086 119.389L218.817 107.122L214.548 94.8551C210.671 96.2043 206.248 98.8272 203.488 103.64C200.562 108.745 200.678 114.262 202.245 118.766L214.512 114.497ZM218.817 107.122L223.086 119.389L230 116.983L225.731 104.716L221.462 92.4491L214.548 94.8551L218.817 107.122ZM225.731 104.716L213.464 108.985L214.874 113.037L227.141 108.768L239.408 104.5L237.998 100.447L225.731 104.716ZM227.141 108.768L222.872 96.5013L216.591 98.6869L220.86 110.954L225.129 123.221L231.41 121.036L227.141 108.768ZM220.86 110.954L216.591 98.6869C214.903 99.2742 210.409 100.945 207.549 105.549C204.16 111.005 205.405 116.425 206.293 118.976L218.56 114.707L230.827 110.438C231.037 111.04 232.267 114.989 229.615 119.258C228.483 121.079 227.122 122.11 226.335 122.605C225.935 122.856 225.614 123.013 225.428 123.098C225.24 123.183 225.129 123.221 225.129 123.221L220.86 110.954ZM230.79 136.308L218.523 140.577C219.691 143.934 222.184 146.665 225.42 148.135C228.657 149.604 232.354 149.683 235.65 148.354L230.79 136.308ZM229.38 132.256L223.528 120.661C217.716 123.594 214.974 130.377 217.113 136.525L229.38 132.256ZM230.403 128.749L218.136 133.018L230.403 128.749ZM226.291 126.886L230.56 139.153L226.291 126.886ZM224.198 130.908L211.931 135.177L224.198 130.908ZM227.177 133.023L239.444 128.754C237.305 122.606 230.944 118.991 224.567 120.299L227.177 133.023ZM228.587 137.075L232.255 149.535C235.665 148.531 238.514 146.174 240.139 143.013C241.764 139.852 242.022 136.163 240.854 132.806L228.587 137.075ZM224.881 122.834L229.149 135.101C228.323 135.389 226.373 135.641 224.281 134.505C222.384 133.475 221.781 132.071 221.681 131.784L233.948 127.515L246.215 123.246C244.697 118.882 241.688 114.396 236.675 111.675C231.467 108.848 225.693 108.799 220.612 110.567L224.881 122.834ZM233.948 127.515L221.681 131.784C221.567 131.456 221.276 130.396 221.771 128.81C222.036 127.963 222.524 127 223.328 126.11C224.145 125.205 225.081 124.606 225.931 124.263L230.79 136.308L235.65 148.354C241.237 146.1 244.975 141.655 246.569 136.55C248.05 131.803 247.546 127.069 246.215 123.246L233.948 127.515ZM230.79 136.308L243.058 132.039L241.647 127.987L229.38 132.256L217.113 136.525L218.523 140.577L230.79 136.308ZM229.38 132.256L235.233 143.852C243.696 139.58 244.743 130.436 242.67 124.48L230.403 128.749L218.136 133.018C217.672 131.685 217.328 129.528 218.119 127.012C218.942 124.394 220.83 122.023 223.528 120.661L229.38 132.256ZM230.403 128.749L242.67 124.48C241.484 121.071 238.893 117.091 234.081 114.963C229.447 112.913 224.999 113.583 222.022 114.619L226.291 126.886L230.56 139.153C229.532 139.511 226.805 140.15 223.572 138.72C220.162 137.211 218.652 134.502 218.136 133.018L230.403 128.749ZM226.291 126.886L222.022 114.619C219.069 115.647 215.155 117.865 212.777 122.349C210.3 127.02 210.744 131.767 211.931 135.177L224.198 130.908L236.465 126.639C236.982 128.125 237.485 131.204 235.728 134.518C234.07 137.644 231.537 138.813 230.56 139.153L226.291 126.886ZM224.198 130.908L211.931 135.177C214.003 141.133 220.501 147.652 229.787 145.747L227.177 133.023L224.567 120.299C227.527 119.692 230.479 120.379 232.75 121.92C234.932 123.402 236.001 125.307 236.465 126.639L224.198 130.908ZM227.177 133.023L214.91 137.292L216.32 141.344L228.587 137.075L240.854 132.806L239.444 128.754L227.177 133.023ZM228.587 137.075L224.919 124.615C225.798 124.356 226.904 124.245 228.106 124.447C229.289 124.646 230.27 125.098 231.003 125.597C232.375 126.533 232.805 127.545 232.919 127.873L220.652 132.142L208.385 136.411C209.716 140.234 212.259 144.258 216.367 147.06C220.786 150.073 226.475 151.237 232.255 149.535L228.587 137.075ZM220.652 132.142L232.919 127.873C233.019 128.16 233.421 129.644 232.567 131.636C231.626 133.829 229.942 134.825 229.149 135.101L224.881 122.834L220.612 110.567C215.539 112.332 211.031 115.943 208.692 121.399C206.439 126.653 206.866 132.046 208.385 136.411L220.652 132.142ZM229.227 145.361L224.959 133.094C221.591 134.266 218.853 136.77 217.387 140.021C215.921 143.272 215.856 146.982 217.207 150.282L229.227 145.361ZM231.12 149.983L235.389 162.25C238.756 161.078 241.494 158.573 242.96 155.323C244.426 152.072 244.491 148.362 243.14 145.062L231.12 149.983ZM227.574 151.217L215.479 155.952C218.024 162.452 225.251 165.778 231.843 163.484L227.574 151.217ZM225.021 144.695L212.917 149.407C212.92 149.415 212.923 149.423 212.926 149.43L225.021 144.695ZM226.424 141.793L230.693 154.06L226.424 141.793ZM233.769 139.238L238.038 151.505C244.813 149.147 248.394 141.744 246.036 134.969L233.769 139.238ZM232.711 136.198L228.442 123.931C221.667 126.289 218.086 133.692 220.444 140.467L232.711 136.198ZM236.257 134.965L248.524 130.696C247.392 127.442 245.014 124.772 241.912 123.272C238.811 121.772 235.241 121.565 231.988 122.697L236.257 134.965ZM237.314 138.004L225.047 142.273C226.179 145.526 228.558 148.196 231.659 149.696C234.76 151.196 238.33 151.403 241.583 150.271L237.314 138.004ZM239.72 137.166L250.156 129.433C246.773 124.869 240.817 123.032 235.452 124.899L239.72 137.166ZM242.397 140.778L246.666 153.045C250.568 151.687 253.591 148.553 254.809 144.605C256.026 140.656 255.292 136.364 252.832 133.044L242.397 140.778ZM238.724 142.056L234.456 129.789C231.202 130.921 228.532 133.299 227.032 136.4C225.532 139.501 225.325 143.071 226.457 146.325L238.724 142.056ZM240.187 146.26L244.456 158.527C247.71 157.395 250.38 155.017 251.88 151.916C253.38 148.814 253.587 145.245 252.455 141.991L240.187 146.26ZM236.642 147.494L224.375 151.763C226.732 158.538 234.136 162.118 240.911 159.761L236.642 147.494ZM235.179 143.29L247.446 139.021C246.314 135.767 243.936 133.097 240.835 131.597C237.733 130.097 234.164 129.89 230.91 131.023L235.179 143.29ZM229.227 145.361L217.207 150.282L219.1 154.904L231.12 149.983L243.14 145.062L241.248 140.439L229.227 145.361ZM231.12 149.983L226.851 137.716L223.305 138.95L227.574 151.217L231.843 163.484L235.389 162.25L231.12 149.983ZM227.574 151.217L239.669 146.482L237.115 139.96L225.021 144.695L212.926 149.43L215.479 155.952L227.574 151.217ZM225.021 144.695L237.125 139.983C237.804 141.729 238.424 145.063 236.643 148.667C234.931 152.129 232.118 153.565 230.693 154.06L226.424 141.793L222.156 129.526C219.337 130.507 215.555 132.706 213.356 137.154C211.087 141.743 211.702 146.286 212.917 149.407L225.021 144.695ZM226.424 141.793L230.693 154.06L238.038 151.505L233.769 139.238L229.5 126.97L222.156 129.526L226.424 141.793ZM233.769 139.238L246.036 134.969L244.978 131.93L232.711 136.198L220.444 140.467L221.502 143.506L233.769 139.238ZM232.711 136.198L236.98 148.466L240.526 147.232L236.257 134.965L231.988 122.697L228.442 123.931L232.711 136.198ZM236.257 134.965L223.99 139.233L225.047 142.273L237.314 138.004L249.582 133.735L248.524 130.696L236.257 134.965ZM237.314 138.004L241.583 150.271L243.989 149.434L239.72 137.166L235.452 124.899L233.046 125.737L237.314 138.004ZM239.72 137.166L229.285 144.9L231.961 148.511L242.397 140.778L252.832 133.044L250.156 129.433L239.72 137.166ZM242.397 140.778L238.128 128.511L234.456 129.789L238.724 142.056L242.993 154.323L246.666 153.045L242.397 140.778ZM238.724 142.056L226.457 146.325L227.92 150.529L240.187 146.26L252.455 141.991L250.992 137.787L238.724 142.056ZM240.187 146.26L235.919 133.993L232.373 135.227L236.642 147.494L240.911 159.761L244.456 158.527L240.187 146.26ZM236.642 147.494L248.909 143.225L247.446 139.021L235.179 143.29L222.912 147.558L224.375 151.763L236.642 147.494ZM235.179 143.29L230.91 131.023L224.959 133.094L229.227 145.361L233.496 157.628L239.448 155.557L235.179 143.29Z" fill="#3078F2" mask="url(#path-1-outside-1_483_872)"/>
</svg>
