<svg width="190" height="128" viewBox="0 0 190 128" fill="none" xmlns="http://www.w3.org/2000/svg">
<mask id="path-1-outside-1_483_873" maskUnits="userSpaceOnUse" x="-0.699707" y="-0.862183" width="190" height="129" fill="black">
<rect fill="white" x="-0.699707" y="-0.862183" width="190" height="129"/>
<path d="M12.9912 31.5663L16.5058 12.9911L24.8054 14.5614L24.204 32.5962L25.258 32.7956L31.2869 15.7877L39.5865 17.3581L36.072 35.9333L31.8563 35.1357L34.6729 20.2492L35.9619 17.7639L34.908 17.5645L28.6155 34.5225L20.4477 32.9771L20.7855 14.8925L19.7316 14.6931L20.0235 17.4774L17.2069 32.3639L12.9912 31.5663ZM38.9454 29.4086C39.7431 25.193 43.0936 23.2069 47.2302 23.9896C51.3668 24.7723 53.8014 27.771 53.0387 31.8022L52.7895 33.1196L42.6982 31.2103C42.4091 32.7385 43.3113 34.0281 45.709 34.4818C47.1844 34.7609 48.3908 34.4434 48.8437 33.492L53.0593 34.2896C52.4319 36.1632 49.6718 38.7794 45.0609 37.907C39.9494 36.9399 38.2326 33.1764 38.9454 29.4086ZM43.1469 28.839L49.2859 30.0005C49.4754 28.9993 48.9271 27.8585 46.5821 27.4148C44.2372 26.9712 43.3363 27.8378 43.1469 28.839ZM68.971 42.158L64.7553 41.3604L64.9098 40.5436L66.1489 38.3218L65.095 38.1224C64.076 39.7581 62.4922 41.2051 59.1987 40.582C55.352 39.8541 54.0268 36.3285 54.7397 32.5607C55.4525 28.793 57.9692 26.0215 61.816 26.7493C65.1094 27.3725 66.0551 29.298 66.4061 31.1929L67.46 31.3924L67.1183 28.8715L68.4194 21.9947L72.6351 22.7923L68.971 42.158ZM66.0166 34.6944C66.4403 32.4548 65.36 31.2406 63.0941 30.8119C60.8282 30.3832 59.3791 31.1188 58.9553 33.3583C58.5316 35.5979 59.6068 36.8384 61.8728 37.2671C64.1387 37.6959 65.5928 36.9339 66.0166 34.6944ZM79.3245 28.9704C77.77 28.6763 76.9874 27.7641 77.2466 26.394C77.5008 25.0502 78.5676 24.4606 80.1221 24.7547C81.6766 25.0489 82.5069 25.9974 82.2527 27.3411C81.9935 28.7112 80.879 29.2645 79.3245 28.9704ZM71.1037 42.5615L71.8016 38.8728L75.5694 39.5857L76.7209 33.4994L73.4503 33.0443L74.1482 29.3556L79.2041 30.0393C80.6946 30.2394 81.3568 31.2107 81.0776 32.6862L79.6269 40.3534L83.3947 41.0663L82.6968 44.755L71.1037 42.5615ZM84.7083 41.3694C85.142 39.0772 86.7663 37.9927 90.8232 38.1871L95.1222 38.4001C95.3266 37.3199 94.6081 36.5016 92.7901 36.1577C91.1038 35.8386 90.0207 36.3705 89.7914 37.5825L85.8392 36.8348C86.4773 33.4622 89.7231 32.0295 93.4382 32.7324C97.1005 33.4254 99.9809 35.7989 99.1534 40.1726L98.4455 43.914L100.369 44.2779L99.671 47.9666L96.7464 47.4133C95.4817 47.174 94.9049 46.328 95.1442 45.0633L95.194 44.7998L96.1518 43.3436L95.0979 43.1442C94.1785 45.2627 92.5336 46.8891 88.8185 46.1862C84.6819 45.4035 84.4491 42.7395 84.7083 41.3694ZM89.0735 41.3766C88.9289 42.1407 89.6218 42.5174 90.3332 42.652C92.6518 43.0907 94.3645 42.405 94.6735 40.7714L91.1849 40.6026C89.8853 40.5477 89.2181 40.6125 89.0735 41.3766ZM119.069 32.3966C123.759 33.284 127.173 34.8578 126.111 40.4699C125.044 46.1083 121.291 46.3261 116.601 45.4388L114.151 44.9752L113.104 50.5082L108.888 49.7106L112.403 31.1353L119.069 32.3966ZM117.563 41.7999C120.066 42.2735 121.406 42.2543 121.895 39.6722C122.379 37.1165 121.137 36.6087 118.634 36.1351L115.92 35.6217L114.849 41.2865L117.563 41.7999ZM125.664 52.8847L127.803 41.5815C128.077 40.1324 129.044 39.4965 130.488 39.797L139.169 41.6579L138.471 45.3466L131.73 43.9073L129.88 53.6824L125.664 52.8847ZM138.981 48.4996C139.858 43.8624 143.607 42.2246 147.796 43.0173C151.959 43.8049 154.85 46.699 153.973 51.3362C153.09 55.9998 149.342 57.6376 145.179 56.8499C140.99 56.0573 138.098 53.1632 138.981 48.4996ZM143.196 49.2973C142.773 51.5368 143.874 52.7823 145.877 53.1612C147.853 53.5351 149.333 52.7782 149.757 50.5386C150.176 48.3254 149.074 47.0799 147.098 46.706C145.096 46.3271 143.615 47.0841 143.196 49.2973ZM169.525 61.1835L165.309 60.3858L165.464 59.569L166.703 57.3473L165.649 57.1479C164.63 58.7836 163.046 60.2306 159.753 59.6074C155.906 58.8796 154.581 55.3539 155.294 51.5862C156.007 47.8184 158.523 45.0469 162.37 45.7748C165.664 46.3979 166.609 48.3235 166.96 50.2184L168.014 50.4178L167.672 47.8969L168.974 41.0201L173.189 41.8178L169.525 61.1835ZM166.571 53.7198C166.994 51.4802 165.914 50.2661 163.648 49.8374C161.382 49.4086 159.933 50.1442 159.509 52.3838C159.086 54.6234 160.161 55.8639 162.427 56.2926C164.693 56.7213 166.147 55.9594 166.571 53.7198ZM164.948 68.6946C162.956 69.9095 162.294 71.7585 164.276 75.0093L166.888 79.2902L163.225 81.5244L156.173 69.9635L159.836 67.7293L160.688 69.1258L161.258 71.6051L162.173 71.0465C161.375 68.7069 161.825 66.2018 164.298 64.6937C167.251 62.8924 170.238 63.7721 172.416 67.3433L176.228 73.5931L172.565 75.8272L169.102 70.1498C167.817 68.0437 166.711 67.6195 164.948 68.6946ZM159.927 75.5399C162.059 79.5085 160.535 83.1884 156.732 85.2315C153.472 86.9827 149.544 86.81 147.551 83.4972L151.331 81.4668C152.044 82.4536 153.444 82.7365 154.955 81.9243C156.751 80.9599 157.125 79.3893 156.147 77.5703C155.158 75.7278 153.642 75.1724 151.846 76.1368C150.335 76.949 149.797 78.2725 150.227 79.4116L146.447 81.4421C144.785 77.9516 146.81 74.5809 150.07 72.8297C153.873 70.7866 157.782 71.5477 159.927 75.5399ZM138.366 83.3789L134.099 85.9755L132.322 82.6683L138.361 79.1199C139.634 78.3747 140.749 78.7499 141.447 80.0492L145.127 86.8997L147.962 85.3769L149.739 88.684L146.904 90.2068L148.11 92.451L144.964 95.6625L143.124 92.2373L139.203 94.3439L137.426 91.0367L141.348 88.9301L138.366 83.3789ZM133.056 99.1683C134.449 98.4196 135.631 98.6368 136.291 99.8652C136.939 101.07 136.48 102.199 135.086 102.948C133.692 103.697 132.45 103.481 131.803 102.276C131.143 101.048 131.662 99.917 133.056 99.1683ZM130.902 83.4309L132.679 86.7381L129.301 88.5528L132.232 94.0096L135.062 92.3069L136.839 95.6141L132.477 98.2615C131.192 99.043 130.067 98.7041 129.356 97.3812L125.663 90.5071L122.285 92.3218L120.509 89.0146L130.902 83.4309ZM123.017 95.3683C125.25 99.5259 123.365 103.156 119.609 105.174C115.877 107.179 111.809 106.747 109.576 102.589C107.33 98.4079 109.215 94.7774 112.947 92.7723C116.703 90.7546 120.771 91.1872 123.017 95.3683ZM119.237 97.3988C118.159 95.3909 116.519 95.115 114.724 96.0795C112.952 97.0312 112.277 98.5507 113.355 100.559C114.421 102.543 116.061 102.819 117.833 101.867C119.628 100.903 120.303 99.3831 119.237 97.3988ZM102.286 110.219C104.341 109.115 105.104 107.305 103.302 103.951L100.929 99.5331L104.708 97.5027L111.117 109.432L107.337 111.462L106.563 110.021L106.13 107.515L105.185 108.022C105.854 110.402 105.267 112.879 102.716 114.249C99.6687 115.886 96.7348 114.845 94.7551 111.16L91.2907 104.711L95.0703 102.68L98.2175 108.539C99.385 110.712 100.467 111.196 102.286 110.219Z"/>
</mask>
<path d="M12.9912 31.5663L16.5058 12.9911L24.8054 14.5614L24.204 32.5962L25.258 32.7956L31.2869 15.7877L39.5865 17.3581L36.072 35.9333L31.8563 35.1357L34.6729 20.2492L35.9619 17.7639L34.908 17.5645L28.6155 34.5225L20.4477 32.9771L20.7855 14.8925L19.7316 14.6931L20.0235 17.4774L17.2069 32.3639L12.9912 31.5663ZM38.9454 29.4086C39.7431 25.193 43.0936 23.2069 47.2302 23.9896C51.3668 24.7723 53.8014 27.771 53.0387 31.8022L52.7895 33.1196L42.6982 31.2103C42.4091 32.7385 43.3113 34.0281 45.709 34.4818C47.1844 34.7609 48.3908 34.4434 48.8437 33.492L53.0593 34.2896C52.4319 36.1632 49.6718 38.7794 45.0609 37.907C39.9494 36.9399 38.2326 33.1764 38.9454 29.4086ZM43.1469 28.839L49.2859 30.0005C49.4754 28.9993 48.9271 27.8585 46.5821 27.4148C44.2372 26.9712 43.3363 27.8378 43.1469 28.839ZM68.971 42.158L64.7553 41.3604L64.9098 40.5436L66.1489 38.3218L65.095 38.1224C64.076 39.7581 62.4922 41.2051 59.1987 40.582C55.352 39.8541 54.0268 36.3285 54.7397 32.5607C55.4525 28.793 57.9692 26.0215 61.816 26.7493C65.1094 27.3725 66.0551 29.298 66.4061 31.1929L67.46 31.3924L67.1183 28.8715L68.4194 21.9947L72.6351 22.7923L68.971 42.158ZM66.0166 34.6944C66.4403 32.4548 65.36 31.2406 63.0941 30.8119C60.8282 30.3832 59.3791 31.1188 58.9553 33.3583C58.5316 35.5979 59.6068 36.8384 61.8728 37.2671C64.1387 37.6959 65.5928 36.9339 66.0166 34.6944ZM79.3245 28.9704C77.77 28.6763 76.9874 27.7641 77.2466 26.394C77.5008 25.0502 78.5676 24.4606 80.1221 24.7547C81.6766 25.0489 82.5069 25.9974 82.2527 27.3411C81.9935 28.7112 80.879 29.2645 79.3245 28.9704ZM71.1037 42.5615L71.8016 38.8728L75.5694 39.5857L76.7209 33.4994L73.4503 33.0443L74.1482 29.3556L79.2041 30.0393C80.6946 30.2394 81.3568 31.2107 81.0776 32.6862L79.6269 40.3534L83.3947 41.0663L82.6968 44.755L71.1037 42.5615ZM84.7083 41.3694C85.142 39.0772 86.7663 37.9927 90.8232 38.1871L95.1222 38.4001C95.3266 37.3199 94.6081 36.5016 92.7901 36.1577C91.1038 35.8386 90.0207 36.3705 89.7914 37.5825L85.8392 36.8348C86.4773 33.4622 89.7231 32.0295 93.4382 32.7324C97.1005 33.4254 99.9809 35.7989 99.1534 40.1726L98.4455 43.914L100.369 44.2779L99.671 47.9666L96.7464 47.4133C95.4817 47.174 94.9049 46.328 95.1442 45.0633L95.194 44.7998L96.1518 43.3436L95.0979 43.1442C94.1785 45.2627 92.5336 46.8891 88.8185 46.1862C84.6819 45.4035 84.4491 42.7395 84.7083 41.3694ZM89.0735 41.3766C88.9289 42.1407 89.6218 42.5174 90.3332 42.652C92.6518 43.0907 94.3645 42.405 94.6735 40.7714L91.1849 40.6026C89.8853 40.5477 89.2181 40.6125 89.0735 41.3766ZM119.069 32.3966C123.759 33.284 127.173 34.8578 126.111 40.4699C125.044 46.1083 121.291 46.3261 116.601 45.4388L114.151 44.9752L113.104 50.5082L108.888 49.7106L112.403 31.1353L119.069 32.3966ZM117.563 41.7999C120.066 42.2735 121.406 42.2543 121.895 39.6722C122.379 37.1165 121.137 36.6087 118.634 36.1351L115.92 35.6217L114.849 41.2865L117.563 41.7999ZM125.664 52.8847L127.803 41.5815C128.077 40.1324 129.044 39.4965 130.488 39.797L139.169 41.6579L138.471 45.3466L131.73 43.9073L129.88 53.6824L125.664 52.8847ZM138.981 48.4996C139.858 43.8624 143.607 42.2246 147.796 43.0173C151.959 43.8049 154.85 46.699 153.973 51.3362C153.09 55.9998 149.342 57.6376 145.179 56.8499C140.99 56.0573 138.098 53.1632 138.981 48.4996ZM143.196 49.2973C142.773 51.5368 143.874 52.7823 145.877 53.1612C147.853 53.5351 149.333 52.7782 149.757 50.5386C150.176 48.3254 149.074 47.0799 147.098 46.706C145.096 46.3271 143.615 47.0841 143.196 49.2973ZM169.525 61.1835L165.309 60.3858L165.464 59.569L166.703 57.3473L165.649 57.1479C164.63 58.7836 163.046 60.2306 159.753 59.6074C155.906 58.8796 154.581 55.3539 155.294 51.5862C156.007 47.8184 158.523 45.0469 162.37 45.7748C165.664 46.3979 166.609 48.3235 166.96 50.2184L168.014 50.4178L167.672 47.8969L168.974 41.0201L173.189 41.8178L169.525 61.1835ZM166.571 53.7198C166.994 51.4802 165.914 50.2661 163.648 49.8374C161.382 49.4086 159.933 50.1442 159.509 52.3838C159.086 54.6234 160.161 55.8639 162.427 56.2926C164.693 56.7213 166.147 55.9594 166.571 53.7198ZM164.948 68.6946C162.956 69.9095 162.294 71.7585 164.276 75.0093L166.888 79.2902L163.225 81.5244L156.173 69.9635L159.836 67.7293L160.688 69.1258L161.258 71.6051L162.173 71.0465C161.375 68.7069 161.825 66.2018 164.298 64.6937C167.251 62.8924 170.238 63.7721 172.416 67.3433L176.228 73.5931L172.565 75.8272L169.102 70.1498C167.817 68.0437 166.711 67.6195 164.948 68.6946ZM159.927 75.5399C162.059 79.5085 160.535 83.1884 156.732 85.2315C153.472 86.9827 149.544 86.81 147.551 83.4972L151.331 81.4668C152.044 82.4536 153.444 82.7365 154.955 81.9243C156.751 80.9599 157.125 79.3893 156.147 77.5703C155.158 75.7278 153.642 75.1724 151.846 76.1368C150.335 76.949 149.797 78.2725 150.227 79.4116L146.447 81.4421C144.785 77.9516 146.81 74.5809 150.07 72.8297C153.873 70.7866 157.782 71.5477 159.927 75.5399ZM138.366 83.3789L134.099 85.9755L132.322 82.6683L138.361 79.1199C139.634 78.3747 140.749 78.7499 141.447 80.0492L145.127 86.8997L147.962 85.3769L149.739 88.684L146.904 90.2068L148.11 92.451L144.964 95.6625L143.124 92.2373L139.203 94.3439L137.426 91.0367L141.348 88.9301L138.366 83.3789ZM133.056 99.1683C134.449 98.4196 135.631 98.6368 136.291 99.8652C136.939 101.07 136.48 102.199 135.086 102.948C133.692 103.697 132.45 103.481 131.803 102.276C131.143 101.048 131.662 99.917 133.056 99.1683ZM130.902 83.4309L132.679 86.7381L129.301 88.5528L132.232 94.0096L135.062 92.3069L136.839 95.6141L132.477 98.2615C131.192 99.043 130.067 98.7041 129.356 97.3812L125.663 90.5071L122.285 92.3218L120.509 89.0146L130.902 83.4309ZM123.017 95.3683C125.25 99.5259 123.365 103.156 119.609 105.174C115.877 107.179 111.809 106.747 109.576 102.589C107.33 98.4079 109.215 94.7774 112.947 92.7723C116.703 90.7546 120.771 91.1872 123.017 95.3683ZM119.237 97.3988C118.159 95.3909 116.519 95.115 114.724 96.0795C112.952 97.0312 112.277 98.5507 113.355 100.559C114.421 102.543 116.061 102.819 117.833 101.867C119.628 100.903 120.303 99.3831 119.237 97.3988ZM102.286 110.219C104.341 109.115 105.104 107.305 103.302 103.951L100.929 99.5331L104.708 97.5027L111.117 109.432L107.337 111.462L106.563 110.021L106.13 107.515L105.185 108.022C105.854 110.402 105.267 112.879 102.716 114.249C99.6687 115.886 96.7348 114.845 94.7551 111.16L91.2907 104.711L95.0703 102.68L98.2175 108.539C99.385 110.712 100.467 111.196 102.286 110.219Z" fill="#001242"/>
<path d="M12.9912 31.5663L0.228983 29.1516C-1.10462 36.2 3.52814 42.995 10.5765 44.3286L12.9912 31.5663ZM16.5058 12.9911L18.9205 0.228813C11.8721 -1.10478 5.07713 3.52797 3.74353 10.5764L16.5058 12.9911ZM24.8054 14.5614L37.7868 14.9942C38.0003 8.59194 33.5142 2.99004 27.2201 1.79914L24.8054 14.5614ZM24.204 32.5962L11.2226 32.1634C11.0091 38.5657 15.4952 44.1676 21.7894 45.3585L24.204 32.5962ZM25.258 32.7956L22.8433 45.5579C29.1374 46.7487 35.36 43.173 37.5002 37.1353L25.258 32.7956ZM31.2869 15.7877L33.7016 3.0255C27.4075 1.83461 21.1849 5.41038 19.0447 11.4481L31.2869 15.7877ZM39.5865 17.3581L52.3488 19.7728C53.6824 12.7244 49.0496 5.92942 42.0012 4.59583L39.5865 17.3581ZM36.072 35.9333L33.6573 48.6956C37.042 49.336 40.5426 48.6056 43.3888 46.665C46.235 44.7245 48.1938 41.7328 48.8342 38.348L36.072 35.9333ZM31.8563 35.1357L19.0941 32.721C17.7605 39.7694 22.3932 46.5644 29.4416 47.8979L31.8563 35.1357ZM34.6729 20.2492L23.1428 14.2691C22.5608 15.3913 22.1457 16.5924 21.9107 17.8345L34.6729 20.2492ZM35.9619 17.7639L47.492 23.744C49.3824 20.0992 49.4381 15.7753 47.6424 12.083C45.8466 8.39077 42.4108 5.76497 38.3766 5.00167L35.9619 17.7639ZM34.908 17.5645L37.3227 4.80226C31.0993 3.62476 24.934 7.10777 22.7306 13.046L34.908 17.5645ZM28.6155 34.5225L26.2008 47.2848C32.4242 48.4623 38.5895 44.9793 40.7929 39.0411L28.6155 34.5225ZM20.4477 32.9771L7.46127 32.7345C7.34297 39.0672 11.8096 44.5619 18.033 45.7394L20.4477 32.9771ZM20.7855 14.8925L33.7719 15.1351C33.8902 8.80234 29.4236 3.30771 23.2002 2.13021L20.7855 14.8925ZM19.7316 14.6931L22.1463 1.9308C18.1121 1.1675 13.9545 2.35659 10.9339 5.13758C7.9134 7.91858 6.3856 11.964 6.81372 16.0474L19.7316 14.6931ZM20.0235 17.4774L32.7858 19.8921C33.0208 18.65 33.0732 17.3803 32.9414 16.123L20.0235 17.4774ZM17.2069 32.3639L14.7922 45.1262C21.8406 46.4598 28.6355 41.827 29.9691 34.7786L17.2069 32.3639ZM12.9912 31.5663L25.7535 33.981L29.268 15.4058L16.5058 12.9911L3.74353 10.5764L0.228983 29.1516L12.9912 31.5663ZM16.5058 12.9911L14.0911 25.7533L22.3907 27.3236L24.8054 14.5614L27.2201 1.79914L18.9205 0.228813L16.5058 12.9911ZM24.8054 14.5614L11.8239 14.1286L11.2226 32.1634L24.204 32.5962L37.1855 33.029L37.7868 14.9942L24.8054 14.5614ZM24.204 32.5962L21.7894 45.3585L22.8433 45.5579L25.258 32.7956L27.6727 20.0334L26.6187 19.834L24.204 32.5962ZM25.258 32.7956L37.5002 37.1353L43.5292 20.1274L31.2869 15.7877L19.0447 11.4481L13.0157 28.456L25.258 32.7956ZM31.2869 15.7877L28.8722 28.55L37.1718 30.1203L39.5865 17.3581L42.0012 4.59583L33.7016 3.0255L31.2869 15.7877ZM39.5865 17.3581L26.8243 14.9434L23.3097 33.5186L36.072 35.9333L48.8342 38.348L52.3488 19.7728L39.5865 17.3581ZM36.072 35.9333L38.4867 23.1711L34.271 22.3734L31.8563 35.1357L29.4416 47.8979L33.6573 48.6956L36.072 35.9333ZM31.8563 35.1357L44.6186 37.5504L47.4352 22.6638L34.6729 20.2492L21.9107 17.8345L19.0941 32.721L31.8563 35.1357ZM34.6729 20.2492L46.2031 26.2292L47.492 23.744L35.9619 17.7639L24.4317 11.7839L23.1428 14.2691L34.6729 20.2492ZM35.9619 17.7639L38.3766 5.00167L37.3227 4.80226L34.908 17.5645L32.4933 30.3268L33.5472 30.5262L35.9619 17.7639ZM34.908 17.5645L22.7306 13.046L16.4381 30.004L28.6155 34.5225L40.7929 39.0411L47.0854 22.0831L34.908 17.5645ZM28.6155 34.5225L31.0302 21.7603L22.8624 20.2149L20.4477 32.9771L18.033 45.7394L26.2008 47.2848L28.6155 34.5225ZM20.4477 32.9771L33.4341 33.2197L33.7719 15.1351L20.7855 14.8925L7.7991 14.6499L7.46127 32.7345L20.4477 32.9771ZM20.7855 14.8925L23.2002 2.13021L22.1463 1.9308L19.7316 14.6931L17.3169 27.4553L18.3708 27.6547L20.7855 14.8925ZM19.7316 14.6931L6.81372 16.0474L7.10564 18.8317L20.0235 17.4774L32.9414 16.123L32.6495 13.3387L19.7316 14.6931ZM20.0235 17.4774L7.26126 15.0627L4.44464 29.9492L17.2069 32.3639L29.9691 34.7786L32.7858 19.8921L20.0235 17.4774ZM17.2069 32.3639L19.6216 19.6017L15.4059 18.8041L12.9912 31.5663L10.5765 44.3286L14.7922 45.1262L17.2069 32.3639ZM47.2302 23.9896L44.8155 36.7519L47.2302 23.9896ZM52.7895 33.1196L50.3748 45.8819C57.4232 47.2155 64.2181 42.5827 65.5517 35.5343L52.7895 33.1196ZM42.6982 31.2103L45.1129 18.4481C38.0645 17.1145 31.2696 21.7472 29.936 28.7956L42.6982 31.2103ZM48.8437 33.492L51.2584 20.7297C45.4608 19.6328 39.6524 22.5814 37.1161 27.9089L48.8437 33.492ZM53.0593 34.2896L65.3758 38.414C66.5673 34.856 66.1618 30.9565 64.2639 27.7197C62.3659 24.4828 59.1609 22.2249 55.474 21.5274L53.0593 34.2896ZM43.1469 28.839L30.3846 26.4243C29.7442 29.8091 30.4746 33.3096 32.4152 36.1558C34.3557 39.002 37.3474 40.9608 40.7322 41.6012L43.1469 28.839ZM49.2859 30.0005L46.8712 42.7628C50.256 43.4032 53.7565 42.6728 56.6028 40.7323C59.449 38.7917 61.4078 35.8 62.0482 32.4152L49.2859 30.0005ZM38.9454 29.4086L51.7077 31.8233C51.5337 32.743 50.7836 34.5261 48.8095 35.7825C46.9548 36.9628 45.3273 36.8487 44.8155 36.7519L47.2302 23.9896L49.6449 11.2274C44.9964 10.3478 39.6254 10.8354 34.8619 13.867C29.979 16.9746 27.1548 21.8586 26.1832 26.9939L38.9454 29.4086ZM47.2302 23.9896L44.8155 36.7519C44.4153 36.6761 42.9403 36.2547 41.6428 34.553C40.2181 32.6844 40.0439 30.6168 40.2765 29.3875L53.0387 31.8022L65.801 34.2169C66.7963 28.9564 65.7861 23.3739 62.3006 18.8024C58.9423 14.3979 54.1817 12.0858 49.6449 11.2274L47.2302 23.9896ZM53.0387 31.8022L40.2765 29.3875L40.0272 30.7049L52.7895 33.1196L65.5517 35.5343L65.801 34.2169L53.0387 31.8022ZM52.7895 33.1196L55.2041 20.3574L45.1129 18.4481L42.6982 31.2103L40.2835 43.9726L50.3748 45.8819L52.7895 33.1196ZM42.6982 31.2103L29.936 28.7956C29.1608 32.8928 29.9397 37.745 33.338 41.7062C36.4106 45.2878 40.3882 46.6942 43.2943 47.244L45.709 34.4818L48.1236 21.7195C48.6321 21.8157 50.9597 22.3505 53.0541 24.7918C55.4741 27.6127 55.9465 31.0559 55.4605 33.625L42.6982 31.2103ZM45.709 34.4818L43.2943 47.244C46.343 47.8209 56.116 48.4334 60.5712 39.0751L48.8437 33.492L37.1161 27.9089C38.7518 24.4731 41.6439 22.6952 43.9142 22.0114C45.9433 21.4003 47.4955 21.6007 48.1236 21.7195L45.709 34.4818ZM48.8437 33.492L46.429 46.2542L50.6446 47.0519L53.0593 34.2896L55.474 21.5274L51.2584 20.7297L48.8437 33.492ZM53.0593 34.2896L40.7429 30.1652C41.5366 27.7949 42.9454 26.525 44.0422 25.8895C45.4723 25.0609 46.8095 25.0187 47.4756 25.1447L45.0609 37.907L42.6462 50.6692C53.5185 52.7263 62.649 46.5567 65.3758 38.414L53.0593 34.2896ZM45.0609 37.907L47.4756 25.1447C47.8202 25.21 49.5033 25.7405 50.7652 27.7162C51.9072 29.5039 51.8386 31.1316 51.7077 31.8233L38.9454 29.4086L26.1832 26.9939C25.3394 31.4533 25.7728 36.8467 28.8728 41.6999C32.0928 46.741 37.19 49.6369 42.6462 50.6692L45.0609 37.907ZM43.1469 28.839L40.7322 41.6012L46.8712 42.7628L49.2859 30.0005L51.7006 17.2383L45.5616 16.0767L43.1469 28.839ZM49.2859 30.0005L62.0482 32.4152C62.778 28.5582 62.0491 23.8297 58.6705 19.9583C55.6382 16.4836 51.7459 15.1727 48.9968 14.6526L46.5821 27.4148L44.1674 40.1771C43.7633 40.1006 41.3176 39.582 39.0983 37.039C36.5327 34.0992 35.9834 30.4416 36.5237 27.5858L49.2859 30.0005ZM46.5821 27.4148L48.9968 14.6526C46.2568 14.1342 42.1142 13.9212 37.9888 16.1006C33.3925 18.5289 31.0883 22.7054 30.3846 26.4243L43.1469 28.839L55.9091 31.2537C55.3949 33.9713 53.6358 37.214 50.1235 39.0695C47.0822 40.6763 44.5625 40.2518 44.1674 40.1771L46.5821 27.4148ZM68.971 42.158L66.5563 54.9203C73.6047 56.2539 80.3996 51.6211 81.7332 44.5727L68.971 42.158ZM64.7553 41.3604L51.9931 38.9457C51.3526 42.3305 52.083 45.831 54.0236 48.6772C55.9641 51.5234 58.9558 53.4822 62.3406 54.1226L64.7553 41.3604ZM64.9098 40.5436L53.5661 34.217C52.8861 35.4363 52.4071 36.7572 52.1476 38.1289L64.9098 40.5436ZM66.1489 38.3218L77.4927 44.6484C79.5263 41.002 79.6831 36.6004 77.9141 32.8185C76.1451 29.0367 72.666 26.3358 68.5636 25.5596L66.1489 38.3218ZM65.095 38.1224L67.5097 25.3602C62.243 24.3637 56.9052 26.7048 54.0708 31.2542L65.095 38.1224ZM54.7397 32.5607L41.9774 30.146L54.7397 32.5607ZM66.4061 31.1929L53.6348 33.5589C54.6111 38.8293 58.7248 42.9587 63.9914 43.9552L66.4061 31.1929ZM67.46 31.3924L65.0453 44.1546C69.1477 44.9308 73.3731 43.6876 76.4014 40.8135C79.4298 37.9393 80.8919 33.7846 80.331 29.6474L67.46 31.3924ZM67.1183 28.8715L54.356 26.4568C54.0965 27.8285 54.0598 29.2331 54.2474 30.6165L67.1183 28.8715ZM68.4194 21.9947L70.8341 9.23245C67.4493 8.59203 63.9488 9.32244 61.1026 11.263C58.2563 13.2035 56.2976 16.1952 55.6572 19.58L68.4194 21.9947ZM72.6351 22.7923L85.3973 25.207C86.7309 18.1586 82.0982 11.3637 75.0498 10.0301L72.6351 22.7923ZM63.0941 30.8119L60.6794 43.5742L63.0941 30.8119ZM68.971 42.158L71.3857 29.3958L67.17 28.5981L64.7553 41.3604L62.3406 54.1226L66.5563 54.9203L68.971 42.158ZM64.7553 41.3604L77.5176 43.7751L77.6721 42.9583L64.9098 40.5436L52.1476 38.1289L51.9931 38.9457L64.7553 41.3604ZM64.9098 40.5436L76.2536 46.8702L77.4927 44.6484L66.1489 38.3218L54.8052 31.9953L53.5661 34.217L64.9098 40.5436ZM66.1489 38.3218L68.5636 25.5596L67.5097 25.3602L65.095 38.1224L62.6803 50.8847L63.7343 51.0841L66.1489 38.3218ZM65.095 38.1224L54.0708 31.2542C54.2004 31.0463 55.0667 29.689 56.987 28.6861C59.1135 27.5755 60.9625 27.6966 61.6134 27.8197L59.1987 40.582L56.784 53.3442C60.7285 54.0905 65.0161 53.7996 69.0126 51.7124C72.8029 49.7329 74.9706 46.8343 76.1193 44.9906L65.095 38.1224ZM59.1987 40.582L61.6134 27.8197C62.4386 27.9758 63.5159 28.3663 64.5844 29.1698C65.6504 29.9712 66.4014 30.9537 66.8724 31.8939C67.75 33.6458 67.5209 34.8752 67.5019 34.9754L54.7397 32.5607L41.9774 30.146C41.2456 34.0139 41.3226 38.8901 43.6463 43.5287C46.2016 48.6298 50.9173 52.2342 56.784 53.3442L59.1987 40.582ZM54.7397 32.5607L67.5019 34.9754C67.4827 35.0772 67.2416 36.3263 65.7632 37.649C64.9715 38.3574 63.9081 38.9938 62.6264 39.3457C61.3437 39.6978 60.21 39.6646 59.4013 39.5116L61.816 26.7493L64.2307 13.9871C58.4038 12.8846 52.7027 14.4772 48.442 18.2893C44.5653 21.7578 42.7096 26.2765 41.9774 30.146L54.7397 32.5607ZM61.816 26.7493L59.4013 39.5116C58.7503 39.3884 56.985 38.8256 55.4112 37.0148C53.99 35.3797 53.6794 33.7998 53.6348 33.5589L66.4061 31.1929L79.1775 28.827C78.7818 26.6912 77.8229 23.201 75.0178 19.9736C72.06 16.5706 68.1751 14.7334 64.2307 13.9871L61.816 26.7493ZM66.4061 31.1929L63.9914 43.9552L65.0453 44.1546L67.46 31.3924L69.8747 18.6301L68.8208 18.4307L66.4061 31.1929ZM67.46 31.3924L80.331 29.6474L79.9892 27.1265L67.1183 28.8715L54.2474 30.6165L54.5891 33.1374L67.46 31.3924ZM67.1183 28.8715L79.8805 31.2862L81.1817 24.4094L68.4194 21.9947L55.6572 19.58L54.356 26.4568L67.1183 28.8715ZM68.4194 21.9947L66.0047 34.7569L70.2204 35.5546L72.6351 22.7923L75.0498 10.0301L70.8341 9.23245L68.4194 21.9947ZM72.6351 22.7923L59.8728 20.3776L56.2087 39.7433L68.971 42.158L81.7332 44.5727L85.3973 25.207L72.6351 22.7923ZM66.0166 34.6944L78.7788 37.1091C79.4449 33.5887 79.2949 28.5285 75.779 24.0516C72.5433 19.9317 68.1745 18.554 65.5088 18.0497L63.0941 30.8119L60.6794 43.5742C60.2797 43.4985 57.584 42.9423 55.349 40.0965C52.8337 36.8938 53.012 33.5605 53.2543 32.2797L66.0166 34.6944ZM63.0941 30.8119L65.5088 18.0497C62.8431 17.5453 58.273 17.2316 53.7559 19.8847C48.8474 22.7677 46.8591 27.4233 46.1931 30.9437L58.9553 33.3583L71.7176 35.773C71.4752 37.0538 70.4235 40.2219 66.9119 42.2843C63.7918 44.1169 61.0792 43.6498 60.6794 43.5742L63.0941 30.8119ZM58.9553 33.3583L46.1931 30.9437C45.5276 34.4608 45.6796 39.4868 49.1409 43.9508C52.3534 48.0939 56.7196 49.5113 59.4581 50.0294L61.8728 37.2671L64.2875 24.5049C64.76 24.5943 67.4556 25.177 69.67 28.0328C72.1331 31.2095 71.9593 34.4955 71.7176 35.773L58.9553 33.3583ZM61.8728 37.2671L59.4581 50.0294C62.1965 50.5475 66.7787 50.8233 71.2828 48.1402C76.1357 45.2493 78.1133 40.6262 78.7788 37.1091L66.0166 34.6944L53.2543 32.2797C53.496 31.0021 54.5347 27.8798 57.9881 25.8226C61.0927 23.9731 63.8149 24.4155 64.2875 24.5049L61.8728 37.2671ZM82.2527 27.3411L69.4904 24.9265L82.2527 27.3411ZM71.1037 42.5615L58.3415 40.1468C57.0079 47.1952 61.6406 53.9902 68.689 55.3238L71.1037 42.5615ZM71.8016 38.8728L74.2163 26.1106C70.8316 25.4702 67.331 26.2006 64.4848 28.1411C61.6386 30.0817 59.6798 33.0734 59.0394 36.4581L71.8016 38.8728ZM75.5694 39.5857L73.1547 52.348C76.5394 52.9884 80.04 52.258 82.8862 50.3174C85.7324 48.3769 87.6912 45.3852 88.3316 42.0004L75.5694 39.5857ZM76.7209 33.4994L89.4832 35.914C90.144 32.4214 89.3446 28.8105 87.2712 25.9232C85.1978 23.0359 82.0317 21.1245 78.511 20.6346L76.7209 33.4994ZM73.4502 33.0443L60.688 30.6296C60.0272 34.1222 60.8266 37.7331 62.9 40.6204C64.9734 43.5077 68.1395 45.4191 71.6602 45.909L73.4502 33.0443ZM74.1482 29.3556L75.8888 16.484C69.0429 15.5583 62.6702 20.1531 61.3859 26.9409L74.1482 29.3556ZM79.2041 30.0393L77.4635 42.9108L77.4756 42.9124L79.2041 30.0393ZM81.0776 32.6862L68.3154 30.2715L81.0776 32.6862ZM79.6269 40.3534L66.8647 37.9387C65.5311 44.9871 70.1639 51.7821 77.2122 53.1157L79.6269 40.3534ZM83.3947 41.0663L96.1569 43.481C96.7974 40.0962 96.067 36.5957 94.1264 33.7495C92.1859 30.9033 89.1941 28.9445 85.8094 28.3041L83.3947 41.0663ZM82.6968 44.755L80.2821 57.5173C87.3305 58.8509 94.1254 54.2181 95.459 47.1697L82.6968 44.755ZM79.3245 28.9704L81.7392 16.2081C82.7842 16.4059 85.4322 17.146 87.6494 19.8502C90.1572 22.9086 90.4582 26.4335 90.0089 28.8087L77.2466 26.394L64.4844 23.9793C63.7757 27.7245 64.3385 32.3905 67.5613 36.3211C70.4937 39.8975 74.3102 41.2408 76.9098 41.7326L79.3245 28.9704ZM77.2466 26.394L90.0089 28.8087C89.5455 31.2573 87.9506 34.3665 84.5892 36.2669C81.5809 37.9677 78.8542 37.734 77.7074 37.517L80.1221 24.7547L82.5368 11.9925C79.8355 11.4814 75.7982 11.3954 71.8043 13.6534C67.4574 16.111 65.2019 20.1868 64.4844 23.9793L77.2466 26.394ZM80.1221 24.7547L77.7074 37.517C76.5615 37.3002 74.0443 36.5445 71.9085 33.9946C69.4877 31.1045 68.9829 27.6088 69.4904 24.9265L82.2527 27.3411L95.0149 29.7558C95.7767 25.7298 94.9839 21.0879 91.8229 17.3141C88.9469 13.8804 85.2372 12.5034 82.5368 11.9925L80.1221 24.7547ZM82.2527 27.3411L69.4904 24.9265C69.9841 22.3172 71.7022 19.1869 75.1039 17.3505C78.0664 15.751 80.6929 16.0102 81.7392 16.2081L79.3245 28.9704L76.9098 41.7326C79.5106 42.2247 83.4716 42.3543 87.4448 40.2092C91.8571 37.8271 94.262 33.7351 95.0149 29.7558L82.2527 27.3411ZM71.1037 42.5615L83.866 44.9762L84.5639 41.2875L71.8016 38.8728L59.0394 36.4581L58.3415 40.1468L71.1037 42.5615ZM71.8016 38.8728L69.3869 51.6351L73.1547 52.348L75.5694 39.5857L77.9841 26.8235L74.2163 26.1106L71.8016 38.8728ZM75.5694 39.5857L88.3316 42.0004L89.4832 35.914L76.7209 33.4994L63.9587 31.0847L62.8071 37.171L75.5694 39.5857ZM76.7209 33.4994L78.511 20.6346L75.2403 20.1795L73.4502 33.0443L71.6602 45.909L74.9309 46.3641L76.7209 33.4994ZM73.4502 33.0443L86.2125 35.459L86.9104 31.7703L74.1482 29.3556L61.3859 26.9409L60.688 30.6296L73.4502 33.0443ZM74.1482 29.3556L72.4076 42.2271L77.4635 42.9108L79.2041 30.0393L80.9447 17.1677L75.8888 16.484L74.1482 29.3556ZM79.2041 30.0393L77.4756 42.9124C75.7714 42.6836 72.5153 41.6884 70.1678 38.3389C67.8695 35.0594 68.03 31.7797 68.3154 30.2715L81.0776 32.6862L93.8399 35.1009C94.4044 32.1172 94.3734 27.6141 91.4411 23.4301C88.4597 19.176 84.1273 17.5951 80.9327 17.1661L79.2041 30.0393ZM81.0776 32.6862L68.3154 30.2715L66.8647 37.9387L79.6269 40.3534L92.3892 42.7681L93.8399 35.1009L81.0776 32.6862ZM79.6269 40.3534L77.2122 53.1157L80.98 53.8286L83.3947 41.0663L85.8094 28.3041L82.0416 27.5912L79.6269 40.3534ZM83.3947 41.0663L70.6324 38.6516L69.9345 42.3403L82.6968 44.755L95.459 47.1697L96.1569 43.481L83.3947 41.0663ZM82.6968 44.755L85.1115 31.9928L73.5184 29.7993L71.1037 42.5615L68.689 55.3238L80.2821 57.5173L82.6968 44.755ZM90.8232 38.1871L91.4659 25.2144C91.459 25.214 91.4521 25.2137 91.4451 25.2134L90.8232 38.1871ZM95.1222 38.4001L94.4795 51.3729C100.957 51.6938 106.679 47.1873 107.884 40.8148L95.1222 38.4001ZM89.7914 37.5825L87.3767 50.3448C94.4251 51.6784 101.22 47.0456 102.554 39.9972L89.7914 37.5825ZM85.8392 36.8348L73.077 34.4201C71.7433 41.4685 76.3761 48.2634 83.4245 49.597L85.8392 36.8348ZM98.4455 43.914L85.6833 41.4993C85.0428 44.8841 85.7732 48.3846 87.7138 51.2308C89.6543 54.0771 92.6461 56.0359 96.0308 56.6763L98.4455 43.914ZM100.369 44.2779L113.131 46.6926C113.772 43.3079 113.041 39.8073 111.101 36.9611C109.16 34.1149 106.168 32.1561 102.784 31.5157L100.369 44.2779ZM99.671 47.9666L97.2563 60.7289C104.305 62.0625 111.1 57.4297 112.433 50.3813L99.671 47.9666ZM95.1442 45.0633L82.3819 42.6486L95.1442 45.0633ZM95.194 44.7998L84.3422 37.6623C83.3999 39.095 82.7506 40.7002 82.4318 42.3851L95.194 44.7998ZM96.1518 43.3436L107.004 50.4811C109.39 46.8527 109.805 42.2718 108.11 38.2735C106.415 34.2752 102.834 31.3887 98.5665 30.5813L96.1518 43.3436ZM95.0979 43.1442L97.5126 30.3819C91.549 29.2536 85.5991 32.4057 83.1828 37.9734L95.0979 43.1442ZM94.6735 40.7714L107.436 43.1861C108.134 39.4937 107.2 35.6797 104.873 32.7288C102.546 29.778 99.0549 27.9796 95.3014 27.7979L94.6735 40.7714ZM91.1849 40.6026L91.8128 27.6291C91.7861 27.6278 91.7594 27.6266 91.7327 27.6255L91.1849 40.6026ZM84.7083 41.3694L97.4706 43.7841C97.3415 44.4664 97.0078 45.6765 96.1308 47.0111C95.2026 48.4235 93.9719 49.507 92.6781 50.2203C90.4797 51.4323 88.9771 51.1022 90.2013 51.1609L90.8232 38.1871L91.4451 25.2134C88.6125 25.0776 84.2693 25.1925 80.136 27.4712C75.0509 30.2748 72.7129 34.9018 71.9461 38.9547L84.7083 41.3694ZM90.8232 38.1871L90.1805 51.1599L94.4795 51.3729L95.1222 38.4001L95.7649 25.4274L91.4659 25.2144L90.8232 38.1871ZM95.1222 38.4001L107.884 40.8148C108.712 36.4424 107.585 31.5171 103.914 27.8335C100.898 24.8078 97.3147 23.7946 95.2048 23.3954L92.7901 36.1577L90.3754 48.9199C90.0835 48.8647 87.7682 48.4326 85.515 46.172C84.2742 44.9271 83.1961 43.2542 82.6131 41.2189C82.0407 39.2206 82.0934 37.3944 82.3599 35.9854L95.1222 38.4001ZM92.7901 36.1577L95.2048 23.3954C92.8177 22.9438 89.0339 22.7119 85.1295 24.5836C80.6196 26.7456 77.8536 30.8104 77.0291 35.1678L89.7914 37.5825L102.554 39.9972C101.958 43.1426 99.8487 46.3355 96.3592 48.0083C93.4753 49.3908 91.0762 49.0525 90.3754 48.9199L92.7901 36.1577ZM89.7914 37.5825L92.2061 24.8203L88.2539 24.0725L85.8392 36.8348L83.4245 49.597L87.3767 50.3448L89.7914 37.5825ZM85.8392 36.8348L98.6014 39.2495C98.4102 40.26 97.9569 41.4178 97.1319 42.5083C96.3141 43.5893 95.3273 44.3456 94.3895 44.8243C92.6035 45.7358 91.2839 45.544 91.0235 45.4947L93.4382 32.7324L95.8529 19.9702C91.8774 19.218 87.0773 19.391 82.5802 21.6863C77.7271 24.1633 74.1598 28.6972 73.077 34.4201L85.8392 36.8348ZM93.4382 32.7324L91.0235 45.4947C90.9396 45.4788 90.6252 45.4116 90.157 45.1762C89.6826 44.9376 88.9447 44.4704 88.2088 43.6302C87.4368 42.7489 86.8272 41.6339 86.5195 40.3957C86.219 39.187 86.2993 38.2432 86.3912 37.7579L99.1534 40.1726L111.916 42.5873C112.989 36.9137 111.735 31.0632 107.75 26.5142C104.17 22.4262 99.5046 20.6611 95.8529 19.9702L93.4382 32.7324ZM99.1534 40.1726L86.3912 37.7579L85.6833 41.4993L98.4455 43.914L111.208 46.3287L111.916 42.5873L99.1534 40.1726ZM98.4455 43.914L96.0308 56.6763L97.9542 57.0402L100.369 44.2779L102.784 31.5157L100.86 31.1518L98.4455 43.914ZM100.369 44.2779L87.6067 41.8632L86.9087 45.5519L99.671 47.9666L112.433 50.3813L113.131 46.6926L100.369 44.2779ZM99.671 47.9666L102.086 35.2044L99.1611 34.651L96.7464 47.4133L94.3317 60.1755L97.2563 60.7289L99.671 47.9666ZM96.7464 47.4133L99.1611 34.651C100.878 34.9759 103.922 36.0929 106.113 39.306C108.304 42.5191 108.231 45.7612 107.906 47.478L95.1442 45.0633L82.3819 42.6486C81.8178 45.6301 81.9142 49.9276 84.6496 53.9396C87.3849 57.9517 91.3502 59.6114 94.3317 60.1755L96.7464 47.4133ZM95.1442 45.0633L107.906 47.478L107.956 47.2145L95.194 44.7998L82.4318 42.3851L82.3819 42.6486L95.1442 45.0633ZM95.194 44.7998L106.046 51.9373L107.004 50.4811L96.1518 43.3436L85.3 36.2061L84.3422 37.6623L95.194 44.7998ZM96.1518 43.3436L98.5665 30.5813L97.5126 30.3819L95.0979 43.1442L92.6832 55.9064L93.7371 56.1058L96.1518 43.3436ZM95.0979 43.1442L83.1828 37.9734C83.314 37.6711 84.1439 35.8693 86.4137 34.5322C88.8497 33.097 90.9215 33.365 91.2332 33.4239L88.8185 46.1862L86.4038 58.9484C90.4305 59.7103 95.1824 59.5165 99.5995 56.9143C103.85 54.41 105.962 50.7357 107.013 48.3149L95.0979 43.1442ZM88.8185 46.1862L91.2332 33.4239C91.8953 33.5492 94.5496 34.3792 96.3478 37.4767C97.8827 40.1205 97.6986 42.5791 97.4706 43.7841L84.7083 41.3694L71.9461 38.9547C71.4588 41.5299 71.2615 46.0056 73.8821 50.5194C76.7661 55.4871 81.6051 58.0405 86.4038 58.9484L88.8185 46.1862ZM89.0735 41.3766L76.3113 38.9619C75.2725 44.4522 77.5917 49.2883 80.9926 52.1659C83.6582 54.4213 86.4987 55.1456 87.9185 55.4143L90.3332 42.652L92.7479 29.8898C93.4563 30.0238 95.5947 30.4925 97.7721 32.3349C98.9907 33.3659 100.364 34.9605 101.232 37.215C102.123 39.5323 102.205 41.8379 101.836 43.7913L89.0735 41.3766ZM90.3332 42.652L87.9185 55.4143C90.6386 55.9289 94.4478 56.0918 98.327 54.4471C102.745 52.5739 106.408 48.6173 107.436 43.1861L94.6735 40.7714L81.9113 38.3567C82.223 36.7091 82.9667 34.9903 84.2292 33.4814C85.4702 31.9981 86.9155 31.0696 88.1869 30.5306C90.5529 29.5274 92.3465 29.8138 92.7479 29.8898L90.3332 42.652ZM94.6735 40.7714L95.3014 27.7979L91.8128 27.6291L91.1849 40.6026L90.5571 53.5761L94.0457 53.7449L94.6735 40.7714ZM91.1849 40.6026L91.7327 27.6255C91.4646 27.6142 88.7429 27.4027 85.9424 28.2481C84.1603 28.786 81.7739 29.8921 79.7033 32.1529C77.6144 34.4336 76.6882 36.9699 76.3113 38.9619L89.0735 41.3766L101.836 43.7913C101.531 45.4013 100.743 47.643 98.86 49.6983C96.9958 51.7338 94.8845 52.6838 93.4498 53.117C92.1398 53.5124 91.128 53.5595 90.867 53.5704C90.5549 53.5834 90.4011 53.5698 90.6372 53.5797L91.1849 40.6026ZM114.151 44.9752L116.565 32.2129C109.517 30.8793 102.722 35.5121 101.389 42.5605L114.151 44.9752ZM113.104 50.5082L110.689 63.2705C117.738 64.6041 124.533 59.9713 125.866 52.9229L113.104 50.5082ZM108.888 49.7106L96.126 47.2959C94.7924 54.3443 99.4251 61.1392 106.474 62.4728L108.888 49.7106ZM112.403 31.1353L114.817 18.3731C107.769 17.0395 100.974 21.6723 99.6405 28.7206L112.403 31.1353ZM117.563 41.7999L115.148 54.5622L117.563 41.7999ZM118.634 36.1351L116.22 48.8974L118.634 36.1351ZM115.921 35.6217L118.335 22.8594C114.95 22.219 111.45 22.9494 108.604 24.89C105.757 26.8305 103.799 29.8222 103.158 33.207L115.921 35.6217ZM114.849 41.2865L102.086 38.8718C100.753 45.9202 105.386 52.7151 112.434 54.0487L114.849 41.2865ZM119.069 32.3966L116.654 45.1588C117.495 45.3179 117.774 45.4189 117.748 45.4094C117.724 45.4004 116.913 45.1062 115.939 44.2076C114.818 43.1731 113.937 41.7546 113.537 40.1949C113.182 38.8104 113.368 37.9538 113.348 38.0552L126.111 40.4699L138.873 42.8846C139.971 37.0806 139.083 30.2163 133.554 25.1153C129.299 21.189 123.943 20.0997 121.483 19.6343L119.069 32.3966ZM126.111 40.4699L113.348 38.0552C113.327 38.1704 113.462 37.3163 114.29 36.1646C115.225 34.8651 116.558 33.8626 117.984 33.305C119.223 32.8204 120.091 32.8421 120.121 32.8426C120.151 32.8431 119.857 32.8356 119.016 32.6765L116.601 45.4388L114.186 58.201C116.644 58.666 122.039 59.6122 127.445 57.498C134.458 54.7553 137.777 48.6769 138.873 42.8846L126.111 40.4699ZM116.601 45.4388L119.016 32.6765L116.565 32.2129L114.151 44.9752L111.736 57.7374L114.186 58.201L116.601 45.4388ZM114.151 44.9752L101.389 42.5605L100.342 48.0935L113.104 50.5082L125.866 52.9229L126.913 47.3899L114.151 44.9752ZM113.104 50.5082L115.519 37.746L111.303 36.9483L108.888 49.7106L106.474 62.4728L110.689 63.2705L113.104 50.5082ZM108.888 49.7106L121.65 52.1253L125.165 33.55L112.403 31.1353L99.6405 28.7206L96.126 47.2959L108.888 49.7106ZM112.403 31.1353L109.988 43.8976L116.654 45.1588L119.069 32.3966L121.483 19.6343L114.817 18.3731L112.403 31.1353ZM117.563 41.7999L115.148 54.5622C115.879 54.7005 117.156 54.9312 118.573 55.0026C119.978 55.0734 122.395 55.0466 125.081 54.0299C131.998 51.4127 134.059 45.2515 134.657 42.0869L121.895 39.6722L109.133 37.2575C109.186 36.9762 109.453 35.6447 110.49 34.0575C111.711 32.1873 113.583 30.6058 115.887 29.734C117.865 28.9857 119.446 29.0363 119.88 29.0582C120.327 29.0807 120.498 29.1362 119.977 29.0377L117.563 41.7999ZM121.895 39.6722L134.657 42.0869C135.263 38.8845 135.563 32.4006 130.065 27.4612C127.941 25.5527 125.713 24.6535 124.388 24.2104C123.049 23.7624 121.781 23.5115 121.049 23.3729L118.634 36.1351L116.22 48.8974C116.739 48.9956 116.565 48.9857 116.148 48.8461C115.744 48.7112 114.265 48.1874 112.704 46.7846C110.882 45.1477 109.699 42.9978 109.233 40.7905C108.837 38.9147 109.076 37.5572 109.133 37.2575L121.895 39.6722ZM118.634 36.1351L121.049 23.3729L118.335 22.8594L115.921 35.6217L113.506 48.3839L116.22 48.8974L118.634 36.1351ZM115.921 35.6217L103.158 33.207L102.086 38.8718L114.849 41.2865L127.611 43.7012L128.683 38.0364L115.921 35.6217ZM114.849 41.2865L112.434 54.0487L115.148 54.5622L117.563 41.7999L119.977 29.0377L117.263 28.5242L114.849 41.2865ZM125.664 52.8847L112.902 50.47C111.569 57.5184 116.201 64.3134 123.25 65.647L125.664 52.8847ZM127.803 41.5815L115.041 39.1668L127.803 41.5815ZM130.488 39.797L133.21 27.0968C133.185 27.0914 133.159 27.086 133.134 27.0808L130.488 39.797ZM139.169 41.6579L151.931 44.0726C153.242 37.1443 148.786 30.4356 141.891 28.9577L139.169 41.6579ZM138.471 45.3466L135.759 58.049C139.179 58.7792 142.75 58.0993 145.662 56.163C148.575 54.2267 150.583 51.1977 151.233 47.7613L138.471 45.3466ZM131.73 43.9073L134.441 31.2049C131.021 30.4747 127.451 31.1546 124.538 33.0909C121.626 35.0272 119.617 38.0562 118.967 41.4926L131.73 43.9073ZM129.88 53.6824L127.465 66.4446C134.514 67.7782 141.309 63.1455 142.642 56.0971L129.88 53.6824ZM125.664 52.8847L138.427 55.2994L140.565 43.9962L127.803 41.5815L115.041 39.1668L112.902 50.47L125.664 52.8847ZM127.803 41.5815L140.565 43.9962C140.259 45.6159 139.163 48.6849 135.883 50.859C132.623 53.0203 129.403 52.8383 127.841 52.5132L130.488 39.797L133.134 27.0808C130.128 26.4552 125.703 26.4409 121.53 29.2073C117.338 31.9864 115.621 36.098 115.041 39.1668L127.803 41.5815ZM130.488 39.797L127.765 52.4972L136.447 54.3581L139.169 41.6579L141.891 28.9577L133.21 27.0968L130.488 39.797ZM139.169 41.6579L126.407 39.2432L125.709 42.9319L138.471 45.3466L151.233 47.7613L151.931 44.0726L139.169 41.6579ZM138.471 45.3466L141.183 32.6442L134.441 31.2049L131.73 43.9073L129.018 56.6097L135.759 58.049L138.471 45.3466ZM131.73 43.9073L118.967 41.4926L117.118 51.2677L129.88 53.6824L142.642 56.0971L144.492 46.322L131.73 43.9073ZM129.88 53.6824L132.295 40.9201L128.079 40.1225L125.664 52.8847L123.25 65.647L127.465 66.4446L129.88 53.6824ZM147.796 43.0173L145.381 55.7795L147.796 43.0173ZM153.973 51.3362L141.211 48.9215L153.973 51.3362ZM147.098 46.706L144.683 59.4682L147.098 46.706ZM138.981 48.4996L151.743 50.9143C151.672 51.2904 151.458 52.0308 150.875 52.8867C150.278 53.7625 149.468 54.5023 148.551 55.0224C146.772 56.0306 145.445 55.7915 145.381 55.7795L147.796 43.0173L150.211 30.255C145.958 29.4504 140.662 29.6339 135.742 32.4221C130.474 35.4079 127.283 40.4597 126.219 46.085L138.981 48.4996ZM147.796 43.0173L145.381 55.7795C145.288 55.7619 143.96 55.4893 142.675 53.9005C142.013 53.0815 141.532 52.0993 141.298 51.0699C141.069 50.0633 141.139 49.2978 141.211 48.9215L153.973 51.3362L166.735 53.7509C167.799 48.1269 166.675 42.2655 162.874 37.5658C159.322 33.1737 154.467 31.0604 150.211 30.255L147.796 43.0173ZM153.973 51.3362L141.211 48.9215C141.279 48.5614 141.487 47.8334 142.062 46.9855C142.651 46.1174 143.454 45.3774 144.372 44.8539C146.156 43.8372 147.5 44.0699 147.594 44.0877L145.179 56.8499L142.764 69.6122C147.021 70.4175 152.321 70.2252 157.24 67.4207C162.5 64.4214 165.673 59.365 166.735 53.7509L153.973 51.3362ZM145.179 56.8499L147.594 44.0877C147.657 44.0996 148.988 44.3639 150.279 45.9612C150.945 46.7845 151.425 47.7692 151.657 48.796C151.883 49.7985 151.811 50.5544 151.743 50.9143L138.981 48.4996L126.219 46.085C125.156 51.7003 126.263 57.5733 130.077 62.2916C133.64 66.6999 138.512 68.8075 142.764 69.6122L145.179 56.8499ZM143.196 49.2973L130.434 46.8826C129.756 50.4651 129.977 55.3182 133.187 59.6545C136.251 63.7945 140.502 65.3635 143.462 65.9235L145.877 53.1612L148.291 40.399C149.249 40.5801 151.948 41.3369 154.067 44.1995C156.331 47.2584 156.213 50.369 155.959 51.712L143.196 49.2973ZM145.877 53.1612L143.462 65.9235C146.448 66.4883 150.976 66.56 155.326 63.8175C159.868 60.9539 161.842 56.535 162.519 52.9533L149.757 50.5386L136.995 48.1239C137.249 46.7817 138.27 43.861 141.472 41.8424C144.482 39.9448 147.282 40.208 148.291 40.399L145.877 53.1612ZM149.757 50.5386L162.519 52.9533C163.203 49.3416 162.953 44.5089 159.764 40.2026C156.719 36.0915 152.498 34.5085 149.513 33.9437L147.098 46.706L144.683 59.4682C143.674 59.2773 140.992 58.504 138.888 55.6624C136.639 52.6257 136.73 49.5223 136.995 48.1239L149.757 50.5386ZM147.098 46.706L149.513 33.9437C146.553 33.3838 142.043 33.2944 137.692 36.0009C133.121 38.8448 131.118 43.27 130.434 46.8826L143.196 49.2973L155.959 51.712C155.694 53.1114 154.64 56.0515 151.414 58.0583C148.409 59.9278 145.641 59.6493 144.683 59.4682L147.098 46.706ZM169.525 61.1835L167.11 73.9457C174.159 75.2793 180.954 70.6465 182.287 63.5981L169.525 61.1835ZM165.309 60.3858L152.547 57.9711C151.907 61.3559 152.637 64.8564 154.578 67.7027C156.518 70.5489 159.51 72.5077 162.895 73.1481L165.309 60.3858ZM165.464 59.569L154.12 53.2425C153.44 54.4617 152.961 55.7826 152.702 57.1543L165.464 59.569ZM166.703 57.3473L178.047 63.6738C180.08 60.0275 180.237 55.6258 178.468 51.844C176.699 48.0621 173.22 45.3612 169.118 44.585L166.703 57.3473ZM165.649 57.1479L168.064 44.3856C162.797 43.3891 157.459 45.7302 154.625 50.2797L165.649 57.1479ZM155.294 51.5862L142.532 49.1715L155.294 51.5862ZM166.96 50.2184L154.189 52.5843C155.165 57.8548 159.279 61.9842 164.546 62.9806L166.96 50.2184ZM168.014 50.4178L165.6 63.18C169.702 63.9562 173.927 62.7131 176.956 59.8389C179.984 56.9648 181.446 52.8101 180.885 48.6728L168.014 50.4178ZM167.672 47.8969L154.91 45.4822C154.651 46.854 154.614 48.2585 154.801 49.6419L167.672 47.8969ZM168.974 41.0201L171.388 28.2579C168.003 27.6175 164.503 28.3479 161.657 30.2884C158.811 32.229 156.852 35.2207 156.211 38.6054L168.974 41.0201ZM173.189 41.8178L185.951 44.2325C187.285 37.1841 182.652 30.3891 175.604 29.0555L173.189 41.8178ZM163.648 49.8374L161.234 62.5996L163.648 49.8374ZM169.525 61.1835L171.94 48.4212L167.724 47.6236L165.309 60.3858L162.895 73.1481L167.11 73.9457L169.525 61.1835ZM165.309 60.3858L178.072 62.8005L178.226 61.9837L165.464 59.569L152.702 57.1543L152.547 57.9711L165.309 60.3858ZM165.464 59.569L176.808 65.8956L178.047 63.6738L166.703 57.3473L155.359 51.0207L154.12 53.2425L165.464 59.569ZM166.703 57.3473L169.118 44.585L168.064 44.3856L165.649 57.1479L163.234 69.9101L164.288 70.1095L166.703 57.3473ZM165.649 57.1479L154.625 50.2797C154.755 50.0717 155.621 48.7145 157.541 47.7116C159.668 46.601 161.517 46.722 162.168 46.8452L159.753 59.6074L157.338 72.3697C161.283 73.116 165.57 72.8251 169.567 70.7378C173.357 68.7583 175.525 65.8597 176.673 64.0161L165.649 57.1479ZM159.753 59.6074L162.168 46.8452C162.993 47.0013 164.07 47.3918 165.139 48.1952C166.205 48.9967 166.956 49.9791 167.427 50.9193C168.304 52.6712 168.075 53.9007 168.056 54.0009L155.294 51.5862L142.532 49.1715C141.8 53.0394 141.877 57.9156 144.2 62.5542C146.756 67.6552 151.471 71.2596 157.338 72.3697L159.753 59.6074ZM155.294 51.5862L168.056 54.0009C168.037 54.1026 167.796 55.3517 166.317 56.6745C165.526 57.3828 164.462 58.0192 163.181 58.3711C161.898 58.7233 160.764 58.69 159.955 58.537L162.37 45.7748L164.785 33.0125C158.958 31.91 153.257 33.5027 148.996 37.3148C145.119 40.7833 143.264 45.3019 142.532 49.1715L155.294 51.5862ZM162.37 45.7748L159.955 58.537C159.304 58.4139 157.539 57.851 155.965 56.0403C154.544 54.4051 154.234 52.8252 154.189 52.5843L166.96 50.2184L179.732 47.8525C179.336 45.7166 178.377 42.2265 175.572 38.999C172.614 35.596 168.729 33.7588 164.785 33.0125L162.37 45.7748ZM166.96 50.2184L164.546 62.9806L165.6 63.18L168.014 50.4178L170.429 37.6556L169.375 37.4561L166.96 50.2184ZM168.014 50.4178L180.885 48.6728L180.543 46.1519L167.672 47.8969L154.801 49.6419L155.143 52.1628L168.014 50.4178ZM167.672 47.8969L180.435 50.3116L181.736 43.4348L168.974 41.0201L156.211 38.6054L154.91 45.4822L167.672 47.8969ZM168.974 41.0201L166.559 53.7824L170.775 54.58L173.189 41.8178L175.604 29.0555L171.388 28.2579L168.974 41.0201ZM173.189 41.8178L160.427 39.4031L156.763 58.7688L169.525 61.1835L182.287 63.5981L185.951 44.2325L173.189 41.8178ZM166.571 53.7198L179.333 56.1345C179.999 52.6141 179.849 47.554 176.333 43.0771C173.097 38.9571 168.729 37.5795 166.063 37.0751L163.648 49.8374L161.234 62.5996C160.834 62.524 158.138 61.9678 155.903 59.122C153.388 55.9192 153.566 52.5859 153.808 51.3051L166.571 53.7198ZM163.648 49.8374L166.063 37.0751C163.397 36.5707 158.827 36.2571 154.31 38.9102C149.402 41.7931 147.413 46.4487 146.747 49.9691L159.509 52.3838L172.272 54.7985C172.029 56.0793 170.978 59.2473 167.466 61.3097C164.346 63.1423 161.633 62.6753 161.234 62.5996L163.648 49.8374ZM159.509 52.3838L146.747 49.9691C146.082 53.4862 146.234 58.5122 149.695 62.9762C152.908 67.1194 157.274 68.5367 160.012 69.0548L162.427 56.2926L164.842 43.5303C165.314 43.6197 168.01 44.2025 170.224 47.0583C172.687 50.235 172.513 53.5209 172.272 54.7985L159.509 52.3838ZM162.427 56.2926L160.012 69.0548C162.751 69.573 167.333 69.8487 171.837 67.1656C176.69 64.2747 178.667 59.6517 179.333 56.1345L166.571 53.7198L153.808 51.3051C154.05 50.0275 155.089 46.9052 158.542 44.848C161.647 42.9986 164.369 43.4409 164.842 43.5303L162.427 56.2926ZM166.888 79.2902L173.651 90.3789C179.775 86.6435 181.712 78.6507 177.976 72.5266L166.888 79.2902ZM163.225 81.5244L152.136 88.288C153.93 91.2289 156.818 93.3367 160.166 94.1479C163.514 94.959 167.047 94.4069 169.988 92.6131L163.225 81.5244ZM156.173 69.9635L149.41 58.8748C143.285 62.6102 141.349 70.603 145.084 76.7271L156.173 69.9635ZM159.836 67.7293L170.925 60.9657C169.131 58.0248 166.242 55.917 162.894 55.1058C159.546 54.2947 156.013 54.8468 153.072 56.6406L159.836 67.7293ZM160.688 69.1258L173.346 66.2158C173.034 64.8553 172.503 63.554 171.777 62.3622L160.688 69.1258ZM161.258 71.6051L148.599 74.515C149.535 78.584 152.369 81.9553 156.217 83.5757C160.065 85.196 164.457 84.8679 168.021 82.6938L161.258 71.6051ZM162.173 71.0465L168.937 82.1352C174.134 78.9651 176.432 72.6106 174.465 66.8495L162.173 71.0465ZM176.228 73.5931L182.991 84.6818C185.932 82.888 188.04 79.9994 188.851 76.6514C189.662 73.3034 189.11 69.7704 187.317 66.8295L176.228 73.5931ZM172.565 75.8272L161.476 82.5908C165.212 88.715 173.204 90.6514 179.329 86.916L172.565 75.8272ZM164.948 68.6946L158.184 57.6059C155.271 59.3832 151.291 62.9448 150.303 68.9938C149.411 74.4555 151.495 78.9981 153.188 81.7728L164.276 75.0093L175.365 68.2457C175.075 67.7696 176.499 69.7623 175.94 73.1831C175.285 77.1912 172.633 79.221 171.711 79.7834L164.948 68.6946ZM164.276 75.0093L153.188 81.7728L155.799 86.0538L166.888 79.2902L177.976 72.5266L175.365 68.2457L164.276 75.0093ZM166.888 79.2902L160.124 68.2015L156.461 70.4357L163.225 81.5244L169.988 92.6131L173.651 90.3789L166.888 79.2902ZM163.225 81.5244L174.313 74.7608L167.262 63.1999L156.173 69.9635L145.084 76.7271L152.136 88.288L163.225 81.5244ZM156.173 69.9635L162.937 81.0522L166.6 78.818L159.836 67.7293L153.072 56.6406L149.41 58.8748L156.173 69.9635ZM159.836 67.7293L148.747 74.4929L149.599 75.8894L160.688 69.1258L171.777 62.3622L170.925 60.9657L159.836 67.7293ZM160.688 69.1258L148.029 72.0357L148.599 74.515L161.258 71.6051L173.916 68.6951L173.346 66.2158L160.688 69.1258ZM161.258 71.6051L168.021 82.6938L168.937 82.1352L162.173 71.0465L155.41 59.9578L154.494 60.5163L161.258 71.6051ZM162.173 71.0465L174.465 66.8495C174.742 67.6588 175.052 69.2224 174.481 71.1843C173.848 73.3637 172.434 74.9451 171.061 75.7824L164.298 64.6937L157.534 53.605C153.689 55.9504 150.814 59.5384 149.537 63.9322C148.322 68.1086 148.806 72.0946 149.882 75.2436L162.173 71.0465ZM164.298 64.6937L171.061 75.7824C169.943 76.4646 167.544 77.2822 164.713 76.3824C163.48 75.9904 162.602 75.3945 162.063 74.9204C161.543 74.4627 161.334 74.118 161.327 74.1069L172.416 67.3433L183.505 60.5797C181.367 57.0751 177.869 53.3057 172.582 51.6253C166.974 49.8432 161.606 51.1215 157.534 53.605L164.298 64.6937ZM172.416 67.3433L161.327 74.1069L165.139 80.3567L176.228 73.5931L187.317 66.8295L183.505 60.5797L172.416 67.3433ZM176.228 73.5931L169.464 62.5044L165.801 64.7385L172.565 75.8272L179.329 86.916L182.991 84.6818L176.228 73.5931ZM172.565 75.8272L183.654 69.0637L180.191 63.3862L169.102 70.1498L158.013 76.9134L161.476 82.5908L172.565 75.8272ZM169.102 70.1498L180.191 63.3862C179.26 61.8606 176.678 57.8209 171.574 55.9976C165.525 53.8368 160.49 56.1993 158.184 57.6059L164.948 68.6946L171.711 79.7834C171.168 80.1148 167.568 82.1518 162.835 80.4609C160.816 79.7397 159.521 78.6272 158.871 77.9619C158.54 77.6239 158.319 77.3435 158.197 77.1796C158.074 77.0137 158.014 76.9137 158.013 76.9134L169.102 70.1498ZM156.732 85.2315L150.585 73.7893L156.732 85.2315ZM147.551 83.4972L141.404 72.0551C138.273 73.7371 135.968 76.6287 135.027 80.056C134.085 83.4832 134.589 87.1466 136.421 90.1923L147.551 83.4972ZM151.331 81.4668L161.86 73.8616C158.048 68.5843 150.919 66.9438 145.184 70.0246L151.331 81.4668ZM151.846 76.1368L145.7 64.6947L151.846 76.1368ZM150.227 79.4116L156.374 90.8537C162.108 87.7729 164.677 80.9226 162.381 74.8309L150.227 79.4116ZM146.447 81.4421L134.72 87.0261C136.248 90.2351 139.024 92.6778 142.402 93.7847C145.779 94.8917 149.463 94.5662 152.594 92.8842L146.447 81.4421ZM159.927 75.5399L148.485 81.6867C148.071 80.9157 147.515 79.0302 148.307 76.7854C149.025 74.7493 150.318 73.9331 150.585 73.7893L156.732 85.2315L162.879 96.6736C166.95 94.4867 170.905 90.809 172.804 85.4301C174.775 79.8424 173.915 74.1327 171.369 69.3931L159.927 75.5399ZM156.732 85.2315L150.585 73.7893C150.891 73.6249 151.892 73.1708 153.536 73.41C154.414 73.5377 155.442 73.8686 156.447 74.5222C157.469 75.1866 158.209 76.0169 158.681 76.8021L147.551 83.4972L136.421 90.1923C139.527 95.3552 144.504 98.3468 149.797 99.1168C154.718 99.8326 159.313 98.5893 162.879 96.6736L156.732 85.2315ZM147.551 83.4972L153.698 94.9393L157.478 92.9089L151.331 81.4668L145.184 70.0246L141.404 72.0551L147.551 83.4972ZM151.331 81.4668L140.801 89.0719C146.352 96.7565 155.547 96.351 161.102 93.3665L154.955 81.9243L148.809 70.4822C150.051 69.8146 152.127 69.1357 154.737 69.5203C157.452 69.9204 160.091 71.4118 161.86 73.8616L151.331 81.4668ZM154.955 81.9243L161.102 93.3665C164.282 91.6584 167.804 88.4735 169.149 83.3866C170.443 78.4876 169.082 74.2009 167.59 71.4235L156.147 77.5703L144.705 83.7172C144.19 82.7587 143.13 80.1668 144.034 76.7489C144.987 73.1432 147.424 71.2258 148.809 70.4822L154.955 81.9243ZM156.147 77.5703L167.59 71.4235C166.11 68.6695 163.303 65.1527 158.501 63.5108C153.498 61.8002 148.88 62.9859 145.7 64.6947L151.846 76.1368L157.993 87.579C156.607 88.3234 153.646 89.3044 150.097 88.0911C146.749 86.9464 145.195 84.6286 144.705 83.7172L156.147 77.5703ZM151.846 76.1368L145.7 64.6947C140.144 67.6792 134.73 75.1219 138.073 83.9923L150.227 79.4116L162.381 74.8309C163.447 77.6588 163.233 80.6824 162.068 83.1669C160.948 85.5551 159.236 86.9113 157.993 87.579L151.846 76.1368ZM150.227 79.4116L144.08 67.9695L140.3 69.9999L146.447 81.4421L152.594 92.8842L156.374 90.8537L150.227 79.4116ZM146.447 81.4421L158.174 75.858C158.568 76.6853 158.852 77.7604 158.842 78.9795C158.832 80.1787 158.54 81.2182 158.162 82.0207C157.454 83.5233 156.523 84.1074 156.217 84.2718L150.07 72.8297L143.923 61.3876C140.357 63.3032 136.783 66.4482 134.663 70.9466C132.383 75.7848 132.13 81.5863 134.72 87.0261L146.447 81.4421ZM150.07 72.8297L156.217 84.2718C155.949 84.4158 154.547 85.0461 152.445 84.516C150.131 83.9326 148.882 82.426 148.485 81.6867L159.927 75.5399L171.369 69.3931C168.827 64.6616 164.552 60.7784 158.796 59.3271C153.252 57.9292 147.994 59.2005 143.923 61.3876L150.07 72.8297ZM138.366 83.3789L149.808 77.232C148.12 74.0908 145.215 71.7814 141.775 70.8455C138.334 69.9096 134.659 70.4295 131.613 72.2832L138.366 83.3789ZM134.099 85.9755L122.657 92.1223C124.344 95.2635 127.249 97.5729 130.69 98.5088C134.13 99.4447 137.805 98.9248 140.851 97.0711L134.099 85.9755ZM132.322 82.6683L125.742 71.4699C119.724 75.0061 117.577 82.6663 120.88 88.8151L132.322 82.6683ZM138.361 79.1199L131.802 67.9087C131.795 67.913 131.787 67.9173 131.78 67.9215L138.361 79.1199ZM141.447 80.0492L130.005 86.196L141.447 80.0492ZM145.127 86.8997L133.685 93.0465C135.315 96.0812 138.084 98.3439 141.383 99.337C144.682 100.33 148.24 99.9721 151.274 98.3418L145.127 86.8997ZM147.962 85.3769L159.404 79.23C157.774 76.1954 155.005 73.9327 151.706 72.9396C148.408 71.9465 144.85 72.3045 141.815 73.9347L147.962 85.3769ZM149.739 88.684L155.885 100.126C162.205 96.7313 164.576 88.8565 161.181 82.5372L149.739 88.684ZM146.904 90.2068L140.757 78.7647C134.438 82.1595 132.067 90.0343 135.462 96.3537L146.904 90.2068ZM148.11 92.451L157.389 101.539C161.364 97.4799 162.24 91.3088 159.552 86.3042L148.11 92.451ZM144.964 95.6625L133.522 101.809C135.478 105.449 139.048 107.942 143.139 108.522C147.23 109.103 151.353 107.702 154.244 104.75L144.964 95.6625ZM143.124 92.2373L154.566 86.0905C152.936 83.0558 150.167 80.7931 146.869 79.8C143.57 78.8069 140.012 79.1649 136.978 80.7951L143.124 92.2373ZM139.203 94.3438L127.761 100.491C129.391 103.525 132.16 105.788 135.459 106.781C138.757 107.774 142.315 107.416 145.35 105.786L139.203 94.3438ZM137.426 91.0367L131.28 79.5946C124.96 82.9894 122.589 90.8642 125.984 97.1835L137.426 91.0367ZM141.348 88.9301L147.495 100.372C150.529 98.742 152.792 95.973 153.785 92.6745C154.778 89.3759 154.42 85.8179 152.79 82.7833L141.348 88.9301ZM138.366 83.3789L131.613 72.2832L127.346 74.8798L134.099 85.9755L140.851 97.0711L145.118 94.4745L138.366 83.3789ZM134.099 85.9755L145.541 79.8286L143.764 76.5215L132.322 82.6683L120.88 88.8151L122.657 92.1223L134.099 85.9755ZM132.322 82.6683L138.902 93.8667L144.941 90.3183L138.361 79.1199L131.78 67.9215L125.742 71.4699L132.322 82.6683ZM138.361 79.1199L144.919 90.3311C143.302 91.2769 140.107 92.4143 136.268 91.2224C132.58 90.0771 130.719 87.5254 130.005 86.196L141.447 80.0492L152.889 73.9024C151.477 71.2738 148.71 67.8848 143.971 66.4134C139.082 64.8954 134.693 66.2177 131.802 67.9087L138.361 79.1199ZM141.447 80.0492L130.005 86.196L133.685 93.0465L145.127 86.8997L156.569 80.7529L152.889 73.9024L141.447 80.0492ZM145.127 86.8997L151.274 98.3418L154.109 96.819L147.962 85.3769L141.815 73.9347L138.98 75.4576L145.127 86.8997ZM147.962 85.3769L136.52 91.5237L138.297 94.8308L149.739 88.684L161.181 82.5372L159.404 79.23L147.962 85.3769ZM149.739 88.684L143.592 77.2419L140.757 78.7647L146.904 90.2068L153.051 101.649L155.885 100.126L149.739 88.684ZM146.904 90.2068L135.462 96.3537L136.667 98.5978L148.11 92.451L159.552 86.3042L158.346 84.06L146.904 90.2068ZM148.11 92.451L138.83 83.3631L135.685 86.5747L144.964 95.6625L154.244 104.75L157.389 101.539L148.11 92.451ZM144.964 95.6625L156.407 89.5157L154.566 86.0905L143.124 92.2373L131.682 98.3841L133.522 101.809L144.964 95.6625ZM143.124 92.2373L136.978 80.7951L133.056 82.9017L139.203 94.3438L145.35 105.786L149.271 103.679L143.124 92.2373ZM139.203 94.3438L150.645 88.197L148.869 84.8899L137.426 91.0367L125.984 97.1835L127.761 100.491L139.203 94.3438ZM137.426 91.0367L143.573 102.479L147.495 100.372L141.348 88.9301L135.201 77.488L131.28 79.5946L137.426 91.0367ZM141.348 88.9301L152.79 82.7833L149.808 77.232L138.366 83.3789L126.923 89.5257L129.906 95.077L141.348 88.9301ZM133.056 99.1683L126.909 87.7262L133.056 99.1683ZM135.086 102.948L141.233 114.39L135.086 102.948ZM130.902 83.4309L142.345 77.2841C138.95 70.9648 131.075 68.594 124.756 71.9888L130.902 83.4309ZM132.679 86.7381L138.826 98.1802C145.145 94.7854 147.516 86.9106 144.121 80.5913L132.679 86.7381ZM129.301 88.5528L123.154 77.1107C116.835 80.5055 114.464 88.3803 117.859 94.6996L129.301 88.5528ZM132.232 94.0096L120.79 100.156C122.473 103.288 125.365 105.593 128.792 106.534C132.22 107.476 135.884 106.971 138.929 105.139L132.232 94.0096ZM135.062 92.3069L146.504 86.1601C144.822 83.0287 141.93 80.7236 138.502 79.7821C135.074 78.8407 131.411 79.3451 128.365 81.1779L135.062 92.3069ZM136.839 95.6141L143.578 106.717C149.484 103.133 151.55 95.5529 148.281 89.4673L136.839 95.6141ZM132.477 98.2615L125.737 87.1582L125.727 87.1645L132.477 98.2615ZM129.356 97.3812L117.914 103.528L129.356 97.3812ZM125.663 90.5071L137.105 84.3603C133.71 78.0409 125.836 75.6702 119.516 79.0649L125.663 90.5071ZM122.285 92.3218L110.843 98.4686C114.238 104.788 122.113 107.159 128.432 103.764L122.285 92.3218ZM120.509 89.0146L114.362 77.5725C108.042 80.9673 105.672 88.8421 109.066 95.1615L120.509 89.0146ZM133.056 99.1683L139.202 110.61C138.266 111.114 135.741 112.203 132.317 111.495C128.444 110.693 125.993 108.142 124.849 106.012L136.291 99.8652L147.733 93.7184C145.93 90.3605 142.558 87.0861 137.581 86.0561C133.052 85.119 129.239 86.4741 126.909 87.7262L133.056 99.1683ZM136.291 99.8652L124.849 106.012C123.67 103.817 122.955 100.396 124.374 96.8049C125.644 93.5908 127.911 92.0581 128.939 91.5057L135.086 102.948L141.233 114.39C143.655 113.089 146.848 110.617 148.534 106.35C150.369 101.706 149.56 97.1185 147.733 93.7184L136.291 99.8652ZM135.086 102.948L128.939 91.5057C129.967 90.9538 132.399 89.9587 135.663 90.5986C139.363 91.3238 141.953 93.7247 143.245 96.1295L131.803 102.276L120.361 108.423C122.3 112.033 125.835 115.144 130.666 116.091C135.061 116.952 138.812 115.691 141.233 114.39L135.086 102.948ZM131.803 102.276L143.245 96.1295C144.502 98.4688 145.134 101.983 143.644 105.55C142.346 108.657 140.141 110.106 139.202 110.61L133.056 99.1683L126.909 87.7262C124.577 88.9788 121.416 91.3686 119.675 95.5348C117.742 100.161 118.444 104.855 120.361 108.423L131.803 102.276ZM130.902 83.4309L119.46 89.5778L121.237 92.8849L132.679 86.7381L144.121 80.5913L142.345 77.2841L130.902 83.4309ZM132.679 86.7381L126.532 75.296L123.154 77.1107L129.301 88.5528L135.448 99.9949L138.826 98.1802L132.679 86.7381ZM129.301 88.5528L117.859 94.6996L120.79 100.156L132.232 94.0096L143.675 87.8628L140.743 82.406L129.301 88.5528ZM132.232 94.0096L138.929 105.139L141.759 103.436L135.062 92.3069L128.365 81.1779L125.535 82.8805L132.232 94.0096ZM135.062 92.3069L123.62 98.4538L125.396 101.761L136.839 95.6141L148.281 89.4673L146.504 86.1601L135.062 92.3069ZM136.839 95.6141L130.099 84.5108L125.737 87.1582L132.477 98.2615L139.217 109.365L143.578 106.717L136.839 95.6141ZM132.477 98.2615L125.727 87.1645C127.196 86.2709 130.354 84.9974 134.285 86.126C138.134 87.231 140.072 89.8822 140.798 91.2344L129.356 97.3812L117.914 103.528C119.351 106.203 122.206 109.685 127.117 111.095C132.11 112.528 136.473 111.034 139.227 109.358L132.477 98.2615ZM129.356 97.3812L140.798 91.2344L137.105 84.3603L125.663 90.5071L114.221 96.6539L117.914 103.528L129.356 97.3812ZM125.663 90.5071L119.516 79.0649L116.138 80.8797L122.285 92.3218L128.432 103.764L131.81 101.949L125.663 90.5071ZM122.285 92.3218L133.727 86.175L131.951 82.8678L120.509 89.0146L109.066 95.1615L110.843 98.4686L122.285 92.3218ZM120.509 89.0146L126.655 100.457L137.049 94.8731L130.902 83.4309L124.756 71.9888L114.362 77.5725L120.509 89.0146ZM109.576 102.589L98.1337 108.736L109.576 102.589ZM119.237 97.3988L107.795 103.546L119.237 97.3988ZM113.355 100.559L101.913 106.705L113.355 100.559ZM123.017 95.3683L111.575 101.515C111.394 101.178 111.095 100.467 111.01 99.4354C110.923 98.3794 111.088 97.295 111.474 96.3133C112.224 94.4109 113.406 93.7624 113.463 93.732L119.609 105.174L125.756 116.616C129.569 114.568 133.572 111.095 135.644 105.834C137.864 100.199 137.168 94.2649 134.459 89.2215L123.017 95.3683ZM119.609 105.174L113.463 93.732C113.546 93.687 114.75 93.0639 116.749 93.4915C117.778 93.7119 118.77 94.1731 119.599 94.8265C120.41 95.4653 120.837 96.1049 121.018 96.4422L109.576 102.589L98.1337 108.736C100.842 113.778 105.402 117.629 111.313 118.894C116.836 120.076 121.94 118.666 125.756 116.616L119.609 105.174ZM109.576 102.589L121.018 96.4422C121.191 96.7651 121.487 97.4623 121.573 98.4832C121.661 99.5284 121.502 100.609 121.117 101.593C120.37 103.505 119.178 104.169 119.094 104.214L112.947 92.7723L106.8 81.3302C102.984 83.3804 98.9835 86.8625 96.9221 92.136C94.7177 97.7757 95.4297 103.702 98.1337 108.736L109.576 102.589ZM112.947 92.7723L119.094 104.214C119.037 104.245 117.836 104.876 115.827 104.446C114.792 104.225 113.8 103.761 112.974 103.108C112.167 102.471 111.748 101.838 111.575 101.515L123.017 95.3683L134.459 89.2215C131.755 84.187 127.201 80.316 121.269 79.0452C115.726 77.8578 110.613 79.282 106.8 81.3302L112.947 92.7723ZM119.237 97.3988L130.68 91.2519C128.954 88.04 125.731 84.4051 120.509 83.0514C115.523 81.7589 111.23 83.2119 108.577 84.6374L114.724 96.0795L120.87 107.522C120.012 107.983 117.438 109.091 113.99 108.198C110.306 107.243 108.442 104.75 107.795 103.546L119.237 97.3988ZM114.724 96.0795L108.577 84.6374C105.9 86.0753 102.334 88.8666 100.676 93.7345C98.9443 98.8171 100.188 103.494 101.913 106.705L113.355 100.559L124.798 94.4118C125.444 95.6151 126.486 98.5285 125.265 102.111C124.118 105.48 121.775 107.035 120.87 107.522L114.724 96.0795ZM113.355 100.559L101.913 106.705C103.653 109.944 106.886 113.544 112.073 114.888C117.025 116.17 121.303 114.747 123.98 113.309L117.833 101.867L111.686 90.4249C112.591 89.9388 115.163 88.8535 118.586 89.74C122.244 90.6873 124.124 93.158 124.798 94.4118L113.355 100.559ZM117.833 101.867L123.98 113.309C126.633 111.884 130.196 109.117 131.878 104.277C133.644 99.1915 132.42 94.4909 130.68 91.2519L119.237 97.3988L107.795 103.546C107.121 102.291 106.092 99.3422 107.339 95.7534C108.5 92.4102 110.828 90.8858 111.686 90.4249L117.833 101.867ZM103.302 103.951L91.8596 110.097L103.302 103.951ZM100.929 99.5331L94.7819 88.091C88.4625 91.4858 86.0918 99.3606 89.4865 105.68L100.929 99.5331ZM104.708 97.5027L116.15 91.3559C114.52 88.3212 111.751 86.0585 108.453 85.0654C105.154 84.0724 101.596 84.4303 98.5614 86.0606L104.708 97.5027ZM111.117 109.432L117.264 120.874C123.583 117.479 125.954 109.605 122.559 103.285L111.117 109.432ZM107.337 111.462L95.8951 117.609C99.2899 123.929 107.165 126.299 113.484 122.905L107.337 111.462ZM106.563 110.021L93.7644 112.235C94.0022 113.61 94.4603 114.938 95.121 116.168L106.563 110.021ZM106.13 107.515L118.928 105.302C118.217 101.188 115.571 97.6663 111.818 95.8379C108.064 94.0094 103.661 94.0968 99.9829 96.0726L106.13 107.515ZM105.185 108.022L99.038 96.5802C93.6751 99.4613 91.0327 105.68 92.6817 111.541L105.185 108.022ZM102.716 114.249L96.5692 102.807L102.716 114.249ZM91.2907 104.711L85.1439 93.2686C78.8246 96.6634 76.4538 104.538 79.8486 110.858L91.2907 104.711ZM95.0703 102.68L106.512 96.5335C104.882 93.4988 102.113 91.2361 98.8147 90.243C95.5161 89.25 91.9581 89.6079 88.9235 91.2382L95.0703 102.68ZM98.2175 108.539L86.7753 114.685L98.2175 108.539ZM102.286 110.219L108.433 121.661C111.439 120.046 115.607 116.707 116.925 110.721C118.115 105.317 116.282 100.667 114.744 97.8037L103.302 103.951L91.8596 110.097C92.1235 110.589 90.8101 108.521 91.5554 105.136C92.4286 101.17 95.1876 99.2879 96.1391 98.7768L102.286 110.219ZM103.302 103.951L114.744 97.8037L112.371 93.3863L100.929 99.5331L89.4865 105.68L91.8596 110.097L103.302 103.951ZM100.929 99.5331L107.076 110.975L110.855 108.945L104.708 97.5027L98.5614 86.0606L94.7819 88.091L100.929 99.5331ZM104.708 97.5027L93.2661 103.65L99.6747 115.579L111.117 109.432L122.559 103.285L116.15 91.3559L104.708 97.5027ZM111.117 109.432L104.97 97.9899L101.19 100.02L107.337 111.462L113.484 122.905L117.264 120.874L111.117 109.432ZM107.337 111.462L118.779 105.316L118.005 103.875L106.563 110.021L95.121 116.168L95.8951 117.609L107.337 111.462ZM106.563 110.021L119.362 107.808L118.928 105.302L106.13 107.515L93.3309 109.728L93.7644 112.235L106.563 110.021ZM106.13 107.515L99.9829 96.0726L99.038 96.5802L105.185 108.022L111.332 119.465L112.277 118.957L106.13 107.515ZM105.185 108.022L92.6817 111.541C92.45 110.717 92.2262 109.139 92.903 107.211C93.6549 105.07 95.1527 103.568 96.5692 102.807L102.716 114.249L108.863 125.692C112.831 123.56 115.898 120.135 117.413 115.817C118.854 111.714 118.589 107.707 117.688 104.504L105.185 108.022ZM102.716 114.249L96.5692 102.807C97.7233 102.187 100.163 101.502 102.941 102.556C104.151 103.014 104.995 103.658 105.507 104.16C106.001 104.646 106.191 105.001 106.197 105.013L94.7551 111.16L83.313 117.306C85.2558 120.923 88.5423 124.878 93.7298 126.845C99.2311 128.931 104.661 127.949 108.863 125.692L102.716 114.249ZM94.7551 111.16L106.197 105.013L102.733 98.5639L91.2907 104.711L79.8486 110.858L83.313 117.306L94.7551 111.16ZM91.2907 104.711L97.4375 116.153L101.217 114.122L95.0703 102.68L88.9235 91.2382L85.1439 93.2686L91.2907 104.711ZM95.0703 102.68L83.6282 108.827L86.7753 114.685L98.2175 108.539L109.66 102.392L106.512 96.5335L95.0703 102.68ZM98.2175 108.539L86.7753 114.685C87.6211 116.26 89.9788 120.435 94.9752 122.534C100.897 125.023 106.053 122.939 108.433 121.661L102.286 110.219L96.1391 98.7768C96.6998 98.4755 100.406 96.6386 105.04 98.5859C107.016 99.4165 108.248 100.598 108.861 101.298C109.172 101.654 109.378 101.946 109.491 102.116C109.604 102.288 109.659 102.392 109.66 102.392L98.2175 108.539Z" fill="#3078F2" mask="url(#path-1-outside-1_483_873)"/>
</svg>
