<svg width="141" height="46" viewBox="0 0 141 46" fill="none" xmlns="http://www.w3.org/2000/svg">
<mask id="path-1-outside-1_483_887" maskUnits="userSpaceOnUse" x="-0.201172" y="-0.6875" width="141" height="47" fill="black">
<rect fill="white" x="-0.201172" y="-0.6875" width="141" height="47"/>
<path d="M20.192 13.4077C24.9652 13.4077 28.612 14.3194 28.612 20.0311C28.612 25.7696 24.9652 26.6813 20.192 26.6813H17.6982V32.3125H13.4077V13.4077H20.192ZM20.4602 22.9271C23.0076 22.9271 24.3216 22.659 24.3216 20.0311C24.3216 17.43 23.0076 17.1618 20.4602 17.1618H17.6982V22.9271H20.4602ZM30.7696 32.3125V13.4077H38.0902C42.5952 13.4077 46.5102 14.4535 46.5102 18.6903C46.5102 21.8009 43.9896 22.659 41.7103 22.9271V23.9997H44.4723C45.9471 23.9997 46.7516 24.8042 46.7516 26.279V32.3125H42.4611V25.6623H35.0601V32.3125H30.7696ZM35.0601 21.9081H38.0902C40.6377 21.9081 42.2198 21.9081 42.2198 19.5484C42.2198 17.1618 40.6377 17.1618 38.0902 17.1618H35.0601V21.9081ZM73.3281 13.4077V17.1618H67.1606V32.3125H62.8701V17.1618H56.6758V13.4077H73.3281ZM70.9015 25.3673C70.9015 21.0769 73.8244 18.5026 78.0344 18.5026C82.2444 18.5026 85.1941 20.9964 85.1941 25.0992V26.4399H74.9238C74.9238 27.9952 76.05 29.0947 78.4902 29.0947C79.9919 29.0947 81.1181 28.5584 81.3863 27.5394H85.6768C85.4086 29.4969 83.1829 32.5807 78.4902 32.5807C73.2881 32.5807 70.9015 29.2019 70.9015 25.3673ZM74.9238 24.0266H81.1718C81.1718 23.0076 80.4209 21.9886 78.0344 21.9886C75.6478 21.9886 74.9238 23.0076 74.9238 24.0266ZM87.0064 28.612C87.0064 26.279 88.4008 24.9115 92.4231 24.3483L96.6868 23.7584C96.6868 22.659 95.8287 21.9886 93.9784 21.9886C92.2622 21.9886 91.2969 22.7126 91.2969 23.9461H87.2746C87.2746 20.5138 90.1974 18.5026 93.9784 18.5026C97.7057 18.5026 100.977 20.2992 100.977 24.7506V28.5584H102.935V32.3125H99.9582C98.6711 32.3125 97.9471 31.5885 97.9471 30.3013V30.0332L98.6175 28.4243H97.5448C97.0354 30.6768 95.7214 32.5807 91.9404 32.5807C87.7304 32.5807 87.0064 30.0064 87.0064 28.612ZM91.2969 27.8075C91.2969 28.5852 92.0477 28.8265 92.7717 28.8265C95.1315 28.8265 96.6868 27.8343 96.6868 26.1718L93.2276 26.6545C91.9404 26.8422 91.2969 27.0299 91.2969 27.8075ZM122.665 18.5026C126.124 18.5026 127.17 21.6132 127.17 25.2601V32.3125H122.88V25.555C122.88 22.9808 122.451 22.2567 120.869 22.2567C118.536 22.2567 117.999 24.2947 117.999 27.5662V32.3125H113.709V25.555C113.709 22.9808 113.28 22.2567 111.698 22.2567C109.365 22.2567 108.828 24.2947 108.828 27.5662V32.3125H104.538V18.7708H108.828V20.1383L108.024 22.5517H109.097C109.633 20.1383 110.866 18.5026 113.494 18.5026C116.042 18.5026 117.114 20.192 117.517 22.5517H118.294C118.831 20.1383 120.037 18.5026 122.665 18.5026Z"/>
</mask>
<path d="M20.192 13.4077C24.9652 13.4077 28.612 14.3194 28.612 20.0311C28.612 25.7696 24.9652 26.6813 20.192 26.6813H17.6982V32.3125H13.4077V13.4077H20.192ZM20.4602 22.9271C23.0076 22.9271 24.3216 22.659 24.3216 20.0311C24.3216 17.43 23.0076 17.1618 20.4602 17.1618H17.6982V22.9271H20.4602ZM30.7696 32.3125V13.4077H38.0902C42.5952 13.4077 46.5102 14.4535 46.5102 18.6903C46.5102 21.8009 43.9896 22.659 41.7103 22.9271V23.9997H44.4723C45.9471 23.9997 46.7516 24.8042 46.7516 26.279V32.3125H42.4611V25.6623H35.0601V32.3125H30.7696ZM35.0601 21.9081H38.0902C40.6377 21.9081 42.2198 21.9081 42.2198 19.5484C42.2198 17.1618 40.6377 17.1618 38.0902 17.1618H35.0601V21.9081ZM73.3281 13.4077V17.1618H67.1606V32.3125H62.8701V17.1618H56.6758V13.4077H73.3281ZM70.9015 25.3673C70.9015 21.0769 73.8244 18.5026 78.0344 18.5026C82.2444 18.5026 85.1941 20.9964 85.1941 25.0992V26.4399H74.9238C74.9238 27.9952 76.05 29.0947 78.4902 29.0947C79.9919 29.0947 81.1181 28.5584 81.3863 27.5394H85.6768C85.4086 29.4969 83.1829 32.5807 78.4902 32.5807C73.2881 32.5807 70.9015 29.2019 70.9015 25.3673ZM74.9238 24.0266H81.1718C81.1718 23.0076 80.4209 21.9886 78.0344 21.9886C75.6478 21.9886 74.9238 23.0076 74.9238 24.0266ZM87.0064 28.612C87.0064 26.279 88.4008 24.9115 92.4231 24.3483L96.6868 23.7584C96.6868 22.659 95.8287 21.9886 93.9784 21.9886C92.2622 21.9886 91.2969 22.7126 91.2969 23.9461H87.2746C87.2746 20.5138 90.1974 18.5026 93.9784 18.5026C97.7057 18.5026 100.977 20.2992 100.977 24.7506V28.5584H102.935V32.3125H99.9582C98.6711 32.3125 97.9471 31.5885 97.9471 30.3013V30.0332L98.6175 28.4243H97.5448C97.0354 30.6768 95.7214 32.5807 91.9404 32.5807C87.7304 32.5807 87.0064 30.0064 87.0064 28.612ZM91.2969 27.8075C91.2969 28.5852 92.0477 28.8265 92.7717 28.8265C95.1315 28.8265 96.6868 27.8343 96.6868 26.1718L93.2276 26.6545C91.9404 26.8422 91.2969 27.0299 91.2969 27.8075ZM122.665 18.5026C126.124 18.5026 127.17 21.6132 127.17 25.2601V32.3125H122.88V25.555C122.88 22.9808 122.451 22.2567 120.869 22.2567C118.536 22.2567 117.999 24.2947 117.999 27.5662V32.3125H113.709V25.555C113.709 22.9808 113.28 22.2567 111.698 22.2567C109.365 22.2567 108.828 24.2947 108.828 27.5662V32.3125H104.538V18.7708H108.828V20.1383L108.024 22.5517H109.097C109.633 20.1383 110.866 18.5026 113.494 18.5026C116.042 18.5026 117.114 20.192 117.517 22.5517H118.294C118.831 20.1383 120.037 18.5026 122.665 18.5026Z" fill="#A1C4FF"/>
<path d="M17.6982 26.6813V13.2736C10.2934 13.2736 4.29053 19.2764 4.29053 26.6813H17.6982ZM17.6982 32.3125V45.7202C25.1031 45.7202 31.1059 39.7174 31.1059 32.3125H17.6982ZM13.4077 32.3125H8.01086e-05C8.01086e-05 39.7174 6.0029 45.7202 13.4077 45.7202V32.3125ZM13.4077 13.4077V1.90735e-05C6.0029 1.90735e-05 8.01086e-05 6.00284 8.01086e-05 13.4077H13.4077ZM17.6982 17.1618V3.75417C10.2934 3.75417 4.29053 9.75698 4.29053 17.1618H17.6982ZM17.6982 22.9271H4.29053C4.29053 30.332 10.2934 36.3348 17.6982 36.3348V22.9271ZM20.192 13.4077V26.8154C21.0365 26.8154 21.3031 26.8624 21.2427 26.852C21.184 26.8419 20.275 26.6897 19.0905 25.95C17.7305 25.1008 16.5459 23.81 15.8271 22.2762C15.1875 20.9115 15.2044 19.9706 15.2044 20.0311H28.612H42.0197C42.0197 14.0257 39.8311 7.28739 33.2935 3.20499C28.2725 0.0696754 22.6988 1.90735e-05 20.192 1.90735e-05V13.4077ZM28.612 20.0311H15.2044C15.2044 20.1058 15.1851 19.1771 15.8178 17.8212C16.5301 16.2949 17.7088 15.0014 19.0723 14.1469C20.2604 13.4024 21.1745 13.2483 21.2374 13.2374C21.301 13.2265 21.037 13.2736 20.192 13.2736V26.6813V40.0889C22.6966 40.0889 28.2828 40.0206 33.3116 36.8693C39.8497 32.7721 42.0197 26.0238 42.0197 20.0311H28.612ZM20.192 26.6813V13.2736H17.6982V26.6813V40.0889H20.192V26.6813ZM17.6982 26.6813H4.29053V32.3125H17.6982H31.1059V26.6813H17.6982ZM17.6982 32.3125V18.9048H13.4077V32.3125V45.7202H17.6982V32.3125ZM13.4077 32.3125H26.8154V13.4077H13.4077H8.01086e-05V32.3125H13.4077ZM13.4077 13.4077V26.8154H20.192V13.4077V1.90735e-05H13.4077V13.4077ZM20.4602 22.9271V36.3348C21.2076 36.3348 22.5291 36.3243 23.9647 36.1268C25.3875 35.9312 27.8207 35.4439 30.34 33.9036C36.8319 29.9345 37.7293 23.3133 37.7293 20.0311H24.3216H10.9139C10.9139 19.7143 10.9317 18.2961 11.6839 16.4747C12.5693 14.3307 14.1726 12.3582 16.3524 11.0255C18.2248 9.88073 19.8518 9.62474 20.3117 9.5615C20.7845 9.49648 20.9865 9.51946 20.4602 9.51946V22.9271ZM24.3216 20.0311H37.7293C37.7293 16.7087 36.7997 10.0979 30.2967 6.15564C27.7865 4.63393 25.3667 4.15326 23.9534 3.96015C22.5247 3.76493 21.2091 3.75417 20.4602 3.75417V17.1618V30.5695C20.985 30.5695 20.7889 30.5923 20.3231 30.5286C19.8726 30.4671 18.2589 30.216 16.3957 29.0865C14.2232 27.7695 12.6028 25.807 11.7014 23.645C10.9346 21.8059 10.9139 20.3669 10.9139 20.0311H24.3216ZM20.4602 17.1618V3.75417H17.6982V17.1618V30.5695H20.4602V17.1618ZM17.6982 17.1618H4.29053V22.9271H17.6982H31.1059V17.1618H17.6982ZM17.6982 22.9271V36.3348H20.4602V22.9271V9.51946H17.6982V22.9271ZM30.7696 32.3125H17.362C17.362 39.7174 23.3648 45.7202 30.7696 45.7202V32.3125ZM30.7696 13.4077V1.90735e-05C23.3648 1.90735e-05 17.362 6.00284 17.362 13.4077H30.7696ZM41.7103 22.9271L40.1437 9.6113C33.3914 10.4057 28.3026 16.1283 28.3026 22.9271H41.7103ZM41.7103 23.9997H28.3026C28.3026 31.4046 34.3054 37.4074 41.7103 37.4074V23.9997ZM46.7516 32.3125V45.7202C54.1564 45.7202 60.1592 39.7174 60.1592 32.3125H46.7516ZM42.4611 32.3125H29.0534C29.0534 39.7174 35.0563 45.7202 42.4611 45.7202V32.3125ZM42.4611 25.6623H55.8688C55.8688 18.2574 49.866 12.2546 42.4611 12.2546V25.6623ZM35.0601 25.6623V12.2546C27.6552 12.2546 21.6524 18.2574 21.6524 25.6623H35.0601ZM35.0601 32.3125V45.7202C42.4649 45.7202 48.4678 39.7174 48.4678 32.3125H35.0601ZM35.0601 21.9081H21.6524C21.6524 29.313 27.6552 35.3158 35.0601 35.3158V21.9081ZM35.0601 17.1618V3.75417C27.6552 3.75417 21.6524 9.75698 21.6524 17.1618H35.0601ZM30.7696 32.3125H44.1773V13.4077H30.7696H17.362V32.3125H30.7696ZM30.7696 13.4077V26.8154H38.0902V13.4077V1.90735e-05H30.7696V13.4077ZM38.0902 13.4077V26.8154C38.7396 26.8154 39.0629 26.8561 39.1345 26.8679C39.2409 26.8853 38.7091 26.8203 37.8693 26.3895C36.9477 25.9167 35.5724 24.9507 34.4862 23.2278C33.3784 21.4706 33.1026 19.768 33.1026 18.6903H46.5102H59.9179C59.9179 15.4942 59.1526 12.072 57.17 8.92717C55.209 5.81657 52.5733 3.79477 50.1098 2.53089C45.6463 0.240879 40.8957 1.90735e-05 38.0902 1.90735e-05V13.4077ZM46.5102 18.6903H33.1026C33.1026 17.6123 33.3349 16.0738 34.1895 14.4331C35.0465 12.7878 36.2263 11.6213 37.306 10.8699C39.1281 9.60172 40.5897 9.55882 40.1437 9.6113L41.7103 22.9271L43.2769 36.243C45.1101 36.0273 48.9718 35.4213 52.624 32.8794C57.1603 29.7223 59.9179 24.6095 59.9179 18.6903H46.5102ZM41.7103 22.9271H28.3026V23.9997H41.7103H55.118V22.9271H41.7103ZM41.7103 23.9997V37.4074H44.4723V23.9997V10.5921H41.7103V23.9997ZM44.4723 23.9997V37.4074C42.8468 37.4074 39.5471 36.9297 36.6843 34.067C33.8216 31.2043 33.3439 27.9045 33.3439 26.279H46.7516H60.1592C60.1592 23.1788 59.2793 18.7393 55.6456 15.1057C52.012 11.472 47.5726 10.5921 44.4723 10.5921V23.9997ZM46.7516 26.279H33.3439V32.3125H46.7516H60.1592V26.279H46.7516ZM46.7516 32.3125V18.9048H42.4611V32.3125V45.7202H46.7516V32.3125ZM42.4611 32.3125H55.8688V25.6623H42.4611H29.0534V32.3125H42.4611ZM42.4611 25.6623V12.2546H35.0601V25.6623V39.07H42.4611V25.6623ZM35.0601 25.6623H21.6524V32.3125H35.0601H48.4678V25.6623H35.0601ZM35.0601 32.3125V18.9048H30.7696V32.3125V45.7202H35.0601V32.3125ZM35.0601 21.9081V35.3158H38.0902V21.9081V8.50048H35.0601V21.9081ZM38.0902 21.9081V35.3158C38.588 35.3158 39.6922 35.323 40.7835 35.2436C41.8258 35.1677 43.9235 34.9578 46.2299 34.0049C48.8828 32.9089 51.7007 30.8691 53.5965 27.525C55.3212 24.4827 55.6274 21.5005 55.6274 19.5484H42.2198H28.8121C28.8121 18.7762 28.9206 16.6789 30.2691 14.3003C31.7886 11.6198 34.0518 10.0225 35.9907 9.22144C37.5832 8.56352 38.8076 8.50111 38.8368 8.49899C38.915 8.4933 38.8662 8.50048 38.0902 8.50048V21.9081ZM42.2198 19.5484H55.6274C55.6274 17.6091 55.3277 14.6443 53.6283 11.6127C51.755 8.27083 48.9535 6.20634 46.2795 5.08901C43.958 4.11902 41.8446 3.90494 40.7945 3.82764C39.6966 3.74682 38.5864 3.75417 38.0902 3.75417V17.1618V30.5695C38.8677 30.5695 38.9106 30.5769 38.8258 30.5706C38.7889 30.5679 37.5486 30.503 35.9411 29.8313C33.981 29.0123 31.7343 27.3953 30.2372 24.7246C28.9141 22.3642 28.8121 20.2944 28.8121 19.5484H42.2198ZM38.0902 17.1618V3.75417H35.0601V17.1618V30.5695H38.0902V17.1618ZM35.0601 17.1618H21.6524V21.9081H35.0601H48.4678V17.1618H35.0601ZM73.3281 13.4077H86.7357C86.7357 6.00284 80.7329 1.90735e-05 73.3281 1.90735e-05V13.4077ZM73.3281 17.1618V30.5695C80.7329 30.5695 86.7357 24.5667 86.7357 17.1618H73.3281ZM67.1606 17.1618V3.75417C59.7557 3.75417 53.7529 9.75698 53.7529 17.1618H67.1606ZM67.1606 32.3125V45.7202C74.5654 45.7202 80.5682 39.7174 80.5682 32.3125H67.1606ZM62.8701 32.3125H49.4624C49.4624 39.7174 55.4653 45.7202 62.8701 45.7202V32.3125ZM62.8701 17.1618H76.2778C76.2778 9.75698 70.275 3.75417 62.8701 3.75417V17.1618ZM56.6758 17.1618H43.2681C43.2681 24.5667 49.2709 30.5695 56.6758 30.5695V17.1618ZM56.6758 13.4077V1.90735e-05C49.2709 1.90735e-05 43.2681 6.00284 43.2681 13.4077H56.6758ZM73.3281 13.4077H59.9204V17.1618H73.3281H86.7357V13.4077H73.3281ZM73.3281 17.1618V3.75417H67.1606V17.1618V30.5695H73.3281V17.1618ZM67.1606 17.1618H53.7529V32.3125H67.1606H80.5682V17.1618H67.1606ZM67.1606 32.3125V18.9048H62.8701V32.3125V45.7202H67.1606V32.3125ZM62.8701 32.3125H76.2778V17.1618H62.8701H49.4624V32.3125H62.8701ZM62.8701 17.1618V3.75417H56.6758V17.1618V30.5695H62.8701V17.1618ZM56.6758 17.1618H70.0834V13.4077H56.6758H43.2681V17.1618H56.6758ZM56.6758 13.4077V26.8154H73.3281V13.4077V1.90735e-05H56.6758V13.4077ZM85.1941 26.4399V39.8476C92.5989 39.8476 98.6017 33.8448 98.6017 26.4399H85.1941ZM74.9238 26.4399V13.0323C67.519 13.0323 61.5161 19.0351 61.5161 26.4399H74.9238ZM81.3863 27.5394V14.1317C75.2956 14.1317 69.9701 18.237 68.4201 24.1272L81.3863 27.5394ZM85.6768 27.5394L98.9604 29.359C99.486 25.5216 98.3265 21.6443 95.7803 18.7255C93.2341 15.8067 89.55 14.1317 85.6768 14.1317V27.5394ZM74.9238 24.0266H61.5161C61.5161 31.4314 67.519 37.4342 74.9238 37.4342V24.0266ZM81.1718 24.0266V37.4342C88.5766 37.4342 94.5794 31.4314 94.5794 24.0266H81.1718ZM70.9015 25.3673H84.3092C84.3092 26.4027 83.867 28.4105 82.0653 30.1017C80.3701 31.693 78.64 31.9103 78.0344 31.9103V18.5026V5.09493C73.2188 5.09493 67.9222 6.59938 63.7131 10.5503C59.3974 14.6013 57.4938 20.0415 57.4938 25.3673H70.9015ZM78.0344 18.5026V31.9103C77.546 31.9103 75.9114 31.7458 74.2281 30.2321C72.3837 28.5736 71.7864 26.4568 71.7864 25.0992H85.1941H98.6017C98.6017 19.6388 96.5296 14.2237 92.1579 10.2926C87.9472 6.50635 82.7328 5.09493 78.0344 5.09493V18.5026ZM85.1941 25.0992H71.7864V26.4399H85.1941H98.6017V25.0992H85.1941ZM85.1941 26.4399V13.0323H74.9238V26.4399V39.8476H85.1941V26.4399ZM74.9238 26.4399H61.5161C61.5161 30.7193 63.2283 35.4698 67.4162 38.8202C71.2011 41.8481 75.4765 42.5023 78.4902 42.5023V29.0947V15.687C79.0638 15.687 81.5559 15.7915 84.1677 17.8809C87.1824 20.2927 88.3315 23.7159 88.3315 26.4399H74.9238ZM78.4902 29.0947V42.5023C81.6447 42.5023 91.6383 41.2654 94.3525 30.9515L81.3863 27.5394L68.4201 24.1272C69.4241 20.3121 72.0275 17.9412 74.2152 16.8036C76.1721 15.786 77.8061 15.687 78.4902 15.687V29.0947ZM81.3863 27.5394V40.947H85.6768V27.5394V14.1317H81.3863V27.5394ZM85.6768 27.5394L72.3931 25.7197C72.7477 23.1317 73.953 21.5327 74.9814 20.6449C76.3108 19.4973 77.7148 19.173 78.4902 19.173V32.5807V45.9883C89.761 45.9883 97.766 38.0779 98.9604 29.359L85.6768 27.5394ZM78.4902 32.5807V19.173C78.9362 19.173 80.8063 19.4154 82.5056 21.2197C84.0471 22.8566 84.3092 24.5788 84.3092 25.3673H70.9015H57.4938C57.4938 29.9904 58.9492 35.3193 62.9845 39.6042C67.1776 44.0566 72.8421 45.9883 78.4902 45.9883V32.5807ZM74.9238 24.0266V37.4342H81.1718V24.0266V10.6189H74.9238V24.0266ZM81.1718 24.0266H94.5794C94.5794 19.9909 92.9389 15.3512 88.7848 12.0853C85.0581 9.15532 80.884 8.58093 78.0344 8.58093V21.9886V35.3963C77.5714 35.3963 74.9659 35.3314 72.2113 33.1656C69.0293 30.6639 67.7641 27.0432 67.7641 24.0266H81.1718ZM78.0344 21.9886V8.58093C75.1943 8.58093 70.9768 9.15166 67.2263 12.1415C63.0459 15.4742 61.5161 20.1361 61.5161 24.0266H74.9238H88.3315C88.3315 26.8981 87.1637 30.541 83.9419 33.1094C81.1501 35.335 78.4879 35.3963 78.0344 35.3963V21.9886ZM92.4231 24.3483L90.5855 11.0672C90.5784 11.0682 90.5713 11.0692 90.5642 11.0702L92.4231 24.3483ZM96.6868 23.7584L98.5244 37.0395C105.156 36.122 110.094 30.4532 110.094 23.7584H96.6868ZM91.2969 23.9461V37.3538C98.7017 37.3538 104.705 31.351 104.705 23.9461H91.2969ZM87.2746 23.9461H73.8669C73.8669 31.351 79.8697 37.3538 87.2746 37.3538V23.9461ZM100.977 28.5584H87.5695C87.5695 35.9632 93.5724 41.966 100.977 41.966V28.5584ZM102.935 28.5584H116.342C116.342 21.1535 110.34 15.1507 102.935 15.1507V28.5584ZM102.935 32.3125V45.7202C110.34 45.7202 116.342 39.7174 116.342 32.3125H102.935ZM97.9471 30.0332L85.5708 24.8764C84.8899 26.5104 84.5394 28.263 84.5394 30.0332H97.9471ZM98.6175 28.4243L110.994 33.5811C112.718 29.443 112.26 24.717 109.773 20.987C107.287 17.257 103.1 15.0166 98.6175 15.0166V28.4243ZM97.5448 28.4243V15.0166C91.2797 15.0166 85.8497 19.3555 84.4675 25.4663L97.5448 28.4243ZM96.6868 26.1718H110.094C110.094 22.2926 108.414 18.6036 105.488 16.0572C102.562 13.5108 98.6758 12.3567 94.8339 12.8928L96.6868 26.1718ZM93.2276 26.6545L91.3747 13.3754C91.3474 13.3793 91.3201 13.3832 91.2928 13.3871L93.2276 26.6545ZM87.0064 28.612H100.414C100.414 29.3475 100.305 30.6559 99.6654 32.1928C98.9888 33.8185 97.9388 35.1667 96.7497 36.1498C94.725 37.8237 93.094 37.7928 94.2821 37.6265L92.4231 24.3483L90.5642 11.0702C87.7299 11.467 83.3905 12.4014 79.6631 15.4832C75.0709 19.2799 73.5988 24.3917 73.5988 28.612H87.0064ZM92.4231 24.3483L94.2608 37.6295L98.5244 37.0395L96.6868 23.7584L94.8491 10.4773L90.5855 11.0672L92.4231 24.3483ZM96.6868 23.7584H110.094C110.094 19.1826 108.014 14.4174 103.598 11.3958C99.9724 8.91541 96.1652 8.58093 93.9784 8.58093V21.9886V35.3963C93.6419 35.3963 91.1889 35.397 88.4553 33.5267C86.9507 32.4972 85.5309 31.0013 84.5455 29.0418C83.5779 27.1178 83.2791 25.2475 83.2791 23.7584H96.6868ZM93.9784 21.9886V8.58093C91.4982 8.58093 87.6376 9.06603 84.0515 11.7029C79.9068 14.7504 77.8892 19.3882 77.8892 23.9461H91.2969H104.705C104.705 27.2705 103.17 30.9295 99.9366 33.3067C97.2622 35.2732 94.7424 35.3963 93.9784 35.3963V21.9886ZM91.2969 23.9461V10.5384H87.2746V23.9461V37.3538H91.2969V23.9461ZM87.2746 23.9461H100.682C100.682 25.0355 100.439 26.3216 99.8005 27.6076C99.1677 28.8827 98.2964 29.8576 97.4176 30.5381C95.7423 31.8354 94.313 31.9103 93.9784 31.9103V18.5026V5.09493C89.8628 5.09493 85.0816 6.17538 80.9996 9.33638C76.5915 12.7499 73.8669 17.9892 73.8669 23.9461H87.2746ZM93.9784 18.5026V31.9103C93.9294 31.9103 92.4151 31.9281 90.6078 30.5124C89.635 29.7504 88.7858 28.7158 88.2242 27.4934C87.6758 26.2995 87.5695 25.2963 87.5695 24.7506H100.977H114.385C114.385 18.8619 112.016 13.219 107.143 9.40222C102.768 5.97545 97.7547 5.09493 93.9784 5.09493V18.5026ZM100.977 24.7506H87.5695V28.5584H100.977H114.385V24.7506H100.977ZM100.977 28.5584V41.966H102.935V28.5584V15.1507H100.977V28.5584ZM102.935 28.5584H89.5271V32.3125H102.935H116.342V28.5584H102.935ZM102.935 32.3125V18.9048H99.9582V32.3125V45.7202H102.935V32.3125ZM99.9582 32.3125V18.9048C101.783 18.9048 105.101 19.4594 107.951 22.3089C110.8 25.1585 111.355 28.477 111.355 30.3013H97.9471H84.5394C84.5394 33.4129 85.456 37.7369 88.9893 41.2703C92.5226 44.8036 96.8467 45.7202 99.9582 45.7202V32.3125ZM97.9471 30.3013H111.355V30.0332H97.9471H84.5394V30.3013H97.9471ZM97.9471 30.0332L110.323 35.19L110.994 33.5811L98.6175 28.4243L86.2411 23.2675L85.5708 24.8764L97.9471 30.0332ZM98.6175 28.4243V15.0166H97.5448V28.4243V41.8319H98.6175V28.4243ZM97.5448 28.4243L84.4675 25.4663C84.5508 25.0982 85.0615 23.0779 87.1349 21.2617C89.3582 19.3142 91.552 19.173 91.9404 19.173V32.5807V45.9883C96.1098 45.9883 100.851 44.8952 104.804 41.4326C108.607 38.1013 110.029 34.0028 110.622 31.3822L97.5448 28.4243ZM91.9404 32.5807V19.173C92.704 19.173 95.5951 19.5262 98.0363 22.3492C100.123 24.7625 100.414 27.3235 100.414 28.612H87.0064H73.5988C73.5988 31.2949 74.2517 35.8402 77.7531 39.8892C81.6087 44.3479 86.9669 45.9883 91.9404 45.9883V32.5807ZM91.2969 27.8075H77.8892C77.8892 33.5629 81.1635 38.0147 85.1562 40.2756C88.2836 42.0466 91.2918 42.2342 92.7717 42.2342V28.8265V15.4188C93.5276 15.4188 95.7984 15.4858 98.3694 16.9417C99.8076 17.7561 101.51 19.1132 102.826 21.2376C104.177 23.4211 104.705 25.749 104.705 27.8075H91.2969ZM92.7717 28.8265V42.2342C95.5913 42.2342 99.4545 41.6764 103.051 39.2785C107.151 36.5454 110.094 31.8508 110.094 26.1718H96.6868H83.2791C83.2791 24.4274 83.7067 22.5294 84.7035 20.7461C85.6834 18.9929 86.9798 17.7648 88.1769 16.9667C90.4062 15.4806 92.3119 15.4188 92.7717 15.4188V28.8265ZM96.6868 26.1718L94.8339 12.8928L91.3747 13.3754L93.2276 26.6545L95.0805 39.9335L98.5396 39.4508L96.6868 26.1718ZM93.2276 26.6545L91.2928 13.3871C91.0395 13.4241 88.2539 13.7288 85.5861 15.1183C83.887 16.0033 81.6827 17.5798 80.019 20.266C78.3406 22.9759 77.8892 25.721 77.8892 27.8075H91.2969H104.705C104.705 29.5052 104.334 31.9353 102.816 34.3854C101.313 36.8118 99.3503 38.1839 97.973 38.9012C96.715 39.5564 95.6914 39.8005 95.4209 39.8634C95.0991 39.9383 94.9314 39.9555 95.1624 39.9218L93.2276 26.6545ZM127.17 32.3125V45.7202C134.575 45.7202 140.578 39.7174 140.578 32.3125H127.17ZM122.88 32.3125H109.472C109.472 39.7174 115.475 45.7202 122.88 45.7202V32.3125ZM117.999 32.3125V45.7202C125.404 45.7202 131.407 39.7174 131.407 32.3125H117.999ZM113.709 32.3125H100.301C100.301 39.7174 106.304 45.7202 113.709 45.7202V32.3125ZM108.828 32.3125V45.7202C116.233 45.7202 122.236 39.7174 122.236 32.3125H108.828ZM104.538 32.3125H91.1303C91.1303 39.7174 97.1331 45.7202 104.538 45.7202V32.3125ZM104.538 18.7708V5.36309C97.1331 5.36309 91.1303 11.3659 91.1303 18.7708H104.538ZM108.828 18.7708H122.236C122.236 11.3659 116.233 5.36309 108.828 5.36309V18.7708ZM108.828 20.1383L121.548 24.3782C122.004 23.0111 122.236 21.5794 122.236 20.1383H108.828ZM108.024 22.5517L95.3044 18.3118C93.9415 22.4005 94.6271 26.895 97.1471 30.3913C99.6671 33.8876 103.714 35.9594 108.024 35.9594V22.5517ZM109.097 22.5517V35.9594C115.381 35.9594 120.822 31.5948 122.185 25.4602L109.097 22.5517ZM117.517 22.5517L104.3 24.8046C105.398 31.2472 110.981 35.9594 117.517 35.9594V22.5517ZM118.294 22.5517V35.9594C124.578 35.9594 130.019 31.5948 131.383 25.4603L118.294 22.5517ZM122.665 18.5026V31.9103C121.456 31.9103 119.73 31.6161 117.961 30.5608C116.211 29.5174 115.129 28.1535 114.529 27.087C113.549 25.3455 113.762 24.2894 113.762 25.2601H127.17H140.578C140.578 22.5839 140.268 18.149 137.901 13.9405C134.92 8.64116 129.415 5.09493 122.665 5.09493V18.5026ZM127.17 25.2601H113.762V32.3125H127.17H140.578V25.2601H127.17ZM127.17 32.3125V18.9048H122.88V32.3125V45.7202H127.17V32.3125ZM122.88 32.3125H136.287V25.555H122.88H109.472V32.3125H122.88ZM122.88 25.555H136.287C136.287 24.587 136.427 20.1015 133.931 15.9862C130.037 9.56873 123.569 8.84908 120.869 8.84908V22.2567V35.6644C120.409 35.6644 118.765 35.639 116.748 34.8091C114.36 33.8265 112.335 32.0878 111.004 29.8948C109.878 28.0385 109.603 26.4321 109.531 25.9565C109.45 25.4248 109.472 25.1906 109.472 25.555H122.88ZM120.869 22.2567V8.84908C118.297 8.84908 115.181 9.4308 112.208 11.3339C109.233 13.2381 107.434 15.804 106.395 18.0464C104.624 21.8656 104.592 25.8265 104.592 27.5662H117.999H131.407C131.407 27.06 131.431 26.9666 131.41 27.1268C131.395 27.2375 131.28 28.122 130.724 29.323C130.11 30.6469 128.882 32.4988 126.664 33.9187C124.448 35.3374 122.274 35.6644 120.869 35.6644V22.2567ZM117.999 27.5662H104.592V32.3125H117.999H131.407V27.5662H117.999ZM117.999 32.3125V18.9048H113.709V32.3125V45.7202H117.999V32.3125ZM113.709 32.3125H127.117V25.555H113.709H100.301V32.3125H113.709ZM113.709 25.555H127.117C127.117 24.587 127.256 20.1015 124.76 15.9862C120.866 9.56873 114.398 8.84908 111.698 8.84908V22.2567V35.6644C111.238 35.6644 109.594 35.639 107.577 34.8091C105.189 33.8265 103.164 32.0878 101.833 29.8948C100.707 28.0385 100.432 26.4321 100.36 25.9565C100.28 25.4248 100.301 25.1906 100.301 25.555H113.709ZM111.698 22.2567V8.84908C109.126 8.84908 106.01 9.4308 103.037 11.3339C100.062 13.2381 98.263 15.804 97.2237 18.0464C95.4535 21.8656 95.4208 25.8265 95.4208 27.5662H108.828H122.236C122.236 27.06 122.26 26.9666 122.239 27.1268C122.224 27.2375 122.109 28.122 121.553 29.323C120.939 30.6469 119.712 32.4988 117.493 33.9187C115.277 35.3374 113.103 35.6644 111.698 35.6644V22.2567ZM108.828 27.5662H95.4208V32.3125H108.828H122.236V27.5662H108.828ZM108.828 32.3125V18.9048H104.538V32.3125V45.7202H108.828V32.3125ZM104.538 32.3125H117.946V18.7708H104.538H91.1303V32.3125H104.538ZM104.538 18.7708V32.1784H108.828V18.7708V5.36309H104.538V18.7708ZM108.828 18.7708H95.4208V20.1383H108.828H122.236V18.7708H108.828ZM108.828 20.1383L96.1088 15.8985L95.3044 18.3118L108.024 22.5517L120.744 26.7916L121.548 24.3782L108.828 20.1383ZM108.024 22.5517V35.9594H109.097V22.5517V9.14405H108.024V22.5517ZM109.097 22.5517L122.185 25.4602C122.169 25.5321 121.809 27.268 120.037 29.0578C117.883 31.2323 115.245 31.9103 113.494 31.9103V18.5026V5.09493C109.116 5.09493 104.547 6.5908 100.986 10.1865C97.805 13.3975 96.5605 17.1579 96.0082 19.6432L109.097 22.5517ZM113.494 18.5026V31.9103C112.64 31.9103 111.377 31.7648 109.951 31.1659C108.484 30.5502 107.239 29.6194 106.284 28.544C105.374 27.5192 104.886 26.5442 104.635 25.9213C104.39 25.3097 104.314 24.8919 104.3 24.8046L117.517 22.5517L130.734 20.2988C130.339 17.9844 129.352 14.1378 126.336 10.7405C122.84 6.80262 118.099 5.09493 113.494 5.09493V18.5026ZM117.517 22.5517V35.9594H118.294V22.5517V9.14405H117.517V22.5517ZM118.294 22.5517L131.383 25.4603C131.38 25.4714 131.035 27.2086 129.266 29.0121C128.317 29.9787 127.137 30.775 125.811 31.2911C124.522 31.7925 123.406 31.9103 122.665 31.9103V18.5026V5.09493C118.279 5.09493 113.691 6.59785 110.125 10.2322C106.961 13.4569 105.745 17.2187 105.206 19.6432L118.294 22.5517Z" fill="#003CA0" mask="url(#path-1-outside-1_483_887)"/>
</svg>
