<svg width="155" height="230" viewBox="0 0 155 230" fill="none" xmlns="http://www.w3.org/2000/svg">
<mask id="path-1-outside-1_483_875" maskUnits="userSpaceOnUse" x="-29.3997" y="-9.96993" width="222.715" height="272.745" fill="black">
<rect fill="white" x="-29.3997" y="-9.96993" width="222.715" height="272.745"/>
<path d="M80.6629 31.0876C77.4734 34.6386 74.3581 36.7425 70.1089 32.9258C65.8397 29.0912 67.5984 25.7688 70.788 22.2178L72.4544 20.3625L68.2651 16.5996L71.1321 13.4077L85.1964 26.0405L80.6629 31.0876ZM73.4017 24.926C71.6994 26.8211 71.0209 27.9779 72.9759 29.7339C74.911 31.472 75.9885 30.6737 77.6908 28.7785L79.5365 26.7237L75.2473 22.8712L73.4017 24.926ZM52.5553 34.0895L61.1136 41.7767C62.2108 42.7623 62.2538 43.9182 61.2483 44.9975L55.1576 51.4574L52.3647 48.9488L57.0895 43.9293L49.6883 37.2814L52.5553 34.0895ZM42.2534 55.7165C45.7746 58.859 45.2454 62.9153 42.4065 66.0964C39.5854 69.2574 35.6151 70.2427 32.0939 67.1002C28.5528 63.9399 29.0819 59.8835 31.903 56.7225C34.742 53.5415 38.7123 52.5562 42.2534 55.7165ZM39.3966 58.9175C37.6961 57.3999 36.0609 57.7017 34.7039 59.2222C33.3648 60.7227 33.2502 62.3815 34.9507 63.8992C36.6313 65.399 38.2664 65.0972 39.6056 63.5967C40.9625 62.0762 41.0772 60.4174 39.3966 58.9175ZM14.4934 86.7992L15.8225 82.7198L16.6129 82.9773L18.6583 84.4898L18.9906 83.4699C17.4983 82.2505 16.2653 80.495 17.3036 77.308C18.5164 73.5855 22.1824 72.7211 25.8283 73.909C29.4743 75.0968 31.902 77.9466 30.6892 81.669C29.6508 84.8561 27.6203 85.5483 25.6961 85.6546L25.3638 86.6745L27.9077 86.6572L34.5622 88.8253L33.2331 92.9047L14.4934 86.7992ZM22.273 84.8214C24.4402 85.5275 25.7823 84.611 26.4967 82.4183C27.2111 80.2256 26.6664 78.6945 24.4992 77.9884C22.3321 77.2823 20.9645 78.1905 20.2501 80.3831C19.5357 82.5758 20.1058 84.1153 22.273 84.8214ZM18.1981 102.878C19.3071 104.931 21.119 105.689 24.4689 103.879L28.8805 101.495L30.9202 105.269L19.0065 111.707L16.9669 107.933L18.406 107.155L20.9116 106.715L20.4017 105.772C18.0235 106.447 15.5454 105.866 14.1686 103.318C12.5242 100.275 13.5587 97.3384 17.2389 95.3497L23.6794 91.8696L25.7191 95.6442L19.8684 98.8057C17.698 99.9785 17.2165 101.062 18.1981 102.878ZM26.9883 114.719C28.3138 110.413 32.0027 108.911 36.1289 110.182C39.6656 111.27 42.303 114.187 41.3463 117.932L37.2457 116.67C37.447 115.469 36.6645 114.275 35.0243 113.77C33.0765 113.17 31.6963 114.008 31.0888 115.981C30.4734 117.98 31.1435 119.449 33.0913 120.049C34.7315 120.554 36.0505 120.006 36.5593 118.9L40.6599 120.162C39.3443 123.797 35.5234 124.725 31.9867 123.637C27.8605 122.366 25.6549 119.05 26.9883 114.719ZM56.969 125.482L61.9637 125.444L61.7909 129.194L54.7871 129.139C53.3114 129.125 52.5473 128.231 52.6152 126.757L52.9733 118.989L49.7588 118.841L49.9317 115.091L53.1461 115.239L53.2634 112.694L57.6111 111.553L57.432 115.437L61.8787 115.642L61.7058 119.392L57.2592 119.187L56.969 125.482ZM80.3455 115.151C78.7651 115.078 77.8621 114.285 77.9263 112.892C77.9893 111.526 78.9626 110.792 80.5431 110.865C82.1235 110.938 83.0788 111.76 83.0158 113.126C82.9516 114.519 81.9259 115.224 80.3455 115.151ZM74.1153 129.762L74.2882 126.012L78.1187 126.188L78.404 120L75.1018 120.009L75.2746 116.259L80.3765 116.226C81.8802 116.215 82.6724 117.083 82.6032 118.583L82.2439 126.378L86.0744 126.555L85.9016 130.305L74.1153 129.762ZM97.5761 124.03C97.6893 119.312 101.122 117.087 105.385 117.189C109.62 117.291 112.943 119.677 112.83 124.396C112.716 129.14 109.283 131.365 105.047 131.263C100.785 131.161 97.4623 128.775 97.5761 124.03ZM101.865 124.133C101.811 126.411 103.1 127.461 105.137 127.51C107.148 127.558 108.486 126.571 108.54 124.293C108.594 122.041 107.305 120.991 105.295 120.942C103.257 120.894 101.919 121.881 101.865 124.133ZM122.744 117.454C121.175 119.181 121.06 121.142 123.878 123.702L127.589 127.074L124.704 130.25L114.682 121.143L117.567 117.968L118.778 119.068L120.023 121.286L120.744 120.492C119.319 118.472 119.045 115.942 120.993 113.798C123.319 111.238 126.433 111.241 129.529 114.054L134.947 118.977L132.062 122.152L127.14 117.68C125.314 116.021 124.132 115.926 122.744 117.454ZM115.9 160.215L112.148 160.093L112.347 153.929L97.2045 153.439L97.3434 149.15L112.486 149.641L112.687 143.45L116.439 143.571L115.9 160.215ZM103.758 167.583C108.044 167.389 110.748 170.192 110.938 174.398C111.129 178.604 108.771 181.663 104.673 181.849L103.333 181.91L102.868 171.65C101.314 171.72 100.267 172.895 100.378 175.333C100.446 176.833 101.032 177.934 102.063 178.155L102.257 182.442C100.289 182.262 97.1077 180.179 96.8953 175.491C96.6597 170.294 99.9269 167.757 103.758 167.583ZM105.279 171.541L105.562 177.782C106.58 177.736 107.564 176.94 107.456 174.556C107.348 172.172 106.297 171.494 105.279 171.541ZM101.416 191.726C103.122 190.135 105.073 190.222 108.229 192.779L111.568 195.495C112.372 194.745 112.277 193.66 111.015 192.307C109.845 191.052 108.657 190.84 107.755 191.681L105.011 188.74C107.521 186.399 110.986 187.165 113.565 189.93C116.107 192.655 117.024 196.273 113.769 199.309L110.984 201.906L112.319 203.338L109.574 205.898L107.544 203.722C106.666 202.78 106.702 201.757 107.643 200.879L107.839 200.696L109.473 200.089L108.741 199.305C106.746 200.469 104.458 200.806 101.879 198.041C99.0077 194.962 100.396 192.677 101.416 191.726ZM104.931 194.315C104.362 194.845 104.698 195.559 105.192 196.089C106.801 197.814 108.587 198.275 109.803 197.141L107.091 194.94C106.076 194.127 105.5 193.785 104.931 194.315ZM137.413 201.489C140.853 201.853 141.565 205.057 141.182 208.683L140.44 215.697L136.173 215.245L136.884 208.525C137.155 205.965 136.804 205.2 135.231 205.034C132.911 204.788 132.163 206.758 131.819 210.012L131.32 214.732L127.053 214.28L127.764 207.56C128.035 205 127.684 204.235 126.111 204.069C123.791 203.823 123.043 205.793 122.699 209.047L122.2 213.767L117.933 213.315L119.358 199.849L123.625 200.3L123.481 201.66L122.427 203.975L123.493 204.088C124.281 201.745 125.679 200.248 128.293 200.524C130.826 200.792 131.715 202.585 131.867 204.974L132.64 205.056C133.427 202.712 134.799 201.213 137.413 201.489Z"/>
</mask>
<path d="M80.6629 31.0876C77.4734 34.6386 74.3581 36.7425 70.1089 32.9258C65.8397 29.0912 67.5984 25.7688 70.788 22.2178L72.4544 20.3625L68.2651 16.5996L71.1321 13.4077L85.1964 26.0405L80.6629 31.0876ZM73.4017 24.926C71.6994 26.8211 71.0209 27.9779 72.9759 29.7339C74.911 31.472 75.9885 30.6737 77.6908 28.7785L79.5365 26.7237L75.2473 22.8712L73.4017 24.926ZM52.5553 34.0895L61.1136 41.7767C62.2108 42.7623 62.2538 43.9182 61.2483 44.9975L55.1576 51.4574L52.3647 48.9488L57.0895 43.9293L49.6883 37.2814L52.5553 34.0895ZM42.2534 55.7165C45.7746 58.859 45.2454 62.9153 42.4065 66.0964C39.5854 69.2574 35.6151 70.2427 32.0939 67.1002C28.5528 63.9399 29.0819 59.8835 31.903 56.7225C34.742 53.5415 38.7123 52.5562 42.2534 55.7165ZM39.3966 58.9175C37.6961 57.3999 36.0609 57.7017 34.7039 59.2222C33.3648 60.7227 33.2502 62.3815 34.9507 63.8992C36.6313 65.399 38.2664 65.0972 39.6056 63.5967C40.9625 62.0762 41.0772 60.4174 39.3966 58.9175ZM14.4934 86.7992L15.8225 82.7198L16.6129 82.9773L18.6583 84.4898L18.9906 83.4699C17.4983 82.2505 16.2653 80.495 17.3036 77.308C18.5164 73.5855 22.1824 72.7211 25.8283 73.909C29.4743 75.0968 31.902 77.9466 30.6892 81.669C29.6508 84.8561 27.6203 85.5483 25.6961 85.6546L25.3638 86.6745L27.9077 86.6572L34.5622 88.8253L33.2331 92.9047L14.4934 86.7992ZM22.273 84.8214C24.4402 85.5275 25.7823 84.611 26.4967 82.4183C27.2111 80.2256 26.6664 78.6945 24.4992 77.9884C22.3321 77.2823 20.9645 78.1905 20.2501 80.3831C19.5357 82.5758 20.1058 84.1153 22.273 84.8214ZM18.1981 102.878C19.3071 104.931 21.119 105.689 24.4689 103.879L28.8805 101.495L30.9202 105.269L19.0065 111.707L16.9669 107.933L18.406 107.155L20.9116 106.715L20.4017 105.772C18.0235 106.447 15.5454 105.866 14.1686 103.318C12.5242 100.275 13.5587 97.3384 17.2389 95.3497L23.6794 91.8696L25.7191 95.6442L19.8684 98.8057C17.698 99.9785 17.2165 101.062 18.1981 102.878ZM26.9883 114.719C28.3138 110.413 32.0027 108.911 36.1289 110.182C39.6656 111.27 42.303 114.187 41.3463 117.932L37.2457 116.67C37.447 115.469 36.6645 114.275 35.0243 113.77C33.0765 113.17 31.6963 114.008 31.0888 115.981C30.4734 117.98 31.1435 119.449 33.0913 120.049C34.7315 120.554 36.0505 120.006 36.5593 118.9L40.6599 120.162C39.3443 123.797 35.5234 124.725 31.9867 123.637C27.8605 122.366 25.6549 119.05 26.9883 114.719ZM56.969 125.482L61.9637 125.444L61.7909 129.194L54.7871 129.139C53.3114 129.125 52.5473 128.231 52.6152 126.757L52.9733 118.989L49.7588 118.841L49.9317 115.091L53.1461 115.239L53.2634 112.694L57.6111 111.553L57.432 115.437L61.8787 115.642L61.7058 119.392L57.2592 119.187L56.969 125.482ZM80.3455 115.151C78.7651 115.078 77.8621 114.285 77.9263 112.892C77.9893 111.526 78.9626 110.792 80.5431 110.865C82.1235 110.938 83.0788 111.76 83.0158 113.126C82.9516 114.519 81.9259 115.224 80.3455 115.151ZM74.1153 129.762L74.2882 126.012L78.1187 126.188L78.404 120L75.1018 120.009L75.2746 116.259L80.3765 116.226C81.8802 116.215 82.6724 117.083 82.6032 118.583L82.2439 126.378L86.0744 126.555L85.9016 130.305L74.1153 129.762ZM97.5761 124.03C97.6893 119.312 101.122 117.087 105.385 117.189C109.62 117.291 112.943 119.677 112.83 124.396C112.716 129.14 109.283 131.365 105.047 131.263C100.785 131.161 97.4623 128.775 97.5761 124.03ZM101.865 124.133C101.811 126.411 103.1 127.461 105.137 127.51C107.148 127.558 108.486 126.571 108.54 124.293C108.594 122.041 107.305 120.991 105.295 120.942C103.257 120.894 101.919 121.881 101.865 124.133ZM122.744 117.454C121.175 119.181 121.06 121.142 123.878 123.702L127.589 127.074L124.704 130.25L114.682 121.143L117.567 117.968L118.778 119.068L120.023 121.286L120.744 120.492C119.319 118.472 119.045 115.942 120.993 113.798C123.319 111.238 126.433 111.241 129.529 114.054L134.947 118.977L132.062 122.152L127.14 117.68C125.314 116.021 124.132 115.926 122.744 117.454ZM115.9 160.215L112.148 160.093L112.347 153.929L97.2045 153.439L97.3434 149.15L112.486 149.641L112.687 143.45L116.439 143.571L115.9 160.215ZM103.758 167.583C108.044 167.389 110.748 170.192 110.938 174.398C111.129 178.604 108.771 181.663 104.673 181.849L103.333 181.91L102.868 171.65C101.314 171.72 100.267 172.895 100.378 175.333C100.446 176.833 101.032 177.934 102.063 178.155L102.257 182.442C100.289 182.262 97.1077 180.179 96.8953 175.491C96.6597 170.294 99.9269 167.757 103.758 167.583ZM105.279 171.541L105.562 177.782C106.58 177.736 107.564 176.94 107.456 174.556C107.348 172.172 106.297 171.494 105.279 171.541ZM101.416 191.726C103.122 190.135 105.073 190.222 108.229 192.779L111.568 195.495C112.372 194.745 112.277 193.66 111.015 192.307C109.845 191.052 108.657 190.84 107.755 191.681L105.011 188.74C107.521 186.399 110.986 187.165 113.565 189.93C116.107 192.655 117.024 196.273 113.769 199.309L110.984 201.906L112.319 203.338L109.574 205.898L107.544 203.722C106.666 202.78 106.702 201.757 107.643 200.879L107.839 200.696L109.473 200.089L108.741 199.305C106.746 200.469 104.458 200.806 101.879 198.041C99.0077 194.962 100.396 192.677 101.416 191.726ZM104.931 194.315C104.362 194.845 104.698 195.559 105.192 196.089C106.801 197.814 108.587 198.275 109.803 197.141L107.091 194.94C106.076 194.127 105.5 193.785 104.931 194.315ZM137.413 201.489C140.853 201.853 141.565 205.057 141.182 208.683L140.44 215.697L136.173 215.245L136.884 208.525C137.155 205.965 136.804 205.2 135.231 205.034C132.911 204.788 132.163 206.758 131.819 210.012L131.32 214.732L127.053 214.28L127.764 207.56C128.035 205 127.684 204.235 126.111 204.069C123.791 203.823 123.043 205.793 122.699 209.047L122.2 213.767L117.933 213.315L119.358 199.849L123.625 200.3L123.481 201.66L122.427 203.975L123.493 204.088C124.281 201.745 125.679 200.248 128.293 200.524C130.826 200.792 131.715 202.585 131.867 204.974L132.64 205.056C133.427 202.712 134.799 201.213 137.413 201.489Z" fill="#8FD37D"/>
<path d="M72.4544 20.3625L82.4291 29.3219C84.8053 26.6765 86.0333 23.1955 85.8429 19.6446C85.6525 16.0938 84.0593 12.764 81.4138 10.3878L72.4544 20.3625ZM68.2651 16.5996L58.2904 7.64016C55.9142 10.2856 54.6862 13.7667 54.8766 17.3175C55.067 20.8683 56.6602 24.1981 59.3056 26.5743L68.2651 16.5996ZM71.1321 13.4077L80.0915 3.43298C77.446 1.0568 73.965 -0.171154 70.4142 0.0192428C66.8633 0.209639 63.5336 1.80281 61.1574 4.44827L71.1321 13.4077ZM85.1964 26.0405L95.1711 34.9999C97.5473 32.3544 98.7752 28.8734 98.5848 25.3226C98.3944 21.7717 96.8012 18.442 94.1558 16.0658L85.1964 26.0405ZM79.5365 26.7237L89.5111 35.6831C91.8873 33.0377 93.1153 29.5566 92.9249 26.0058C92.7345 22.455 91.1413 19.1252 88.4959 16.749L79.5365 26.7237ZM75.2473 22.8712L84.2068 12.8965C78.6979 7.94834 70.2208 8.40288 65.2726 13.9118L75.2473 22.8712ZM80.6629 31.0876L70.6882 22.1282C70.1239 22.7565 69.9108 22.9233 69.9589 22.8854C70.0056 22.8485 70.7262 22.2739 72.0681 21.887C73.6087 21.4427 75.3605 21.4239 76.982 21.9141C78.4246 22.3502 79.1133 22.9915 79.0683 22.9511L70.1089 32.9258L61.1495 42.9005C65.6172 46.9135 72.0927 49.788 79.4985 47.6523C85.1862 46.012 88.9625 41.912 90.6376 40.0471L80.6629 31.0876ZM70.1089 32.9258L79.0683 22.9511C79.0127 22.9012 79.7166 23.5074 80.3024 24.8842C80.962 26.434 81.1366 28.1753 80.8612 29.7606C80.6211 31.1421 80.1249 31.9251 80.091 31.9791C80.0567 32.0338 80.198 31.8059 80.7627 31.1772L70.788 22.2178L60.8133 13.2584C59.1397 15.1217 55.4576 19.3233 54.4417 25.1703C53.1208 32.7722 56.6912 38.896 61.1495 42.9005L70.1089 32.9258ZM70.788 22.2178L80.7627 31.1772L82.4291 29.3219L72.4544 20.3625L62.4797 11.4031L60.8133 13.2584L70.788 22.2178ZM72.4544 20.3625L81.4138 10.3878L77.2245 6.62489L68.2651 16.5996L59.3056 26.5743L63.495 30.3372L72.4544 20.3625ZM68.2651 16.5996L78.2397 25.559L81.1068 22.3671L71.1321 13.4077L61.1574 4.44827L58.2904 7.64016L68.2651 16.5996ZM71.1321 13.4077L62.1727 23.3824L76.237 36.0151L85.1964 26.0405L94.1558 16.0658L80.0915 3.43298L71.1321 13.4077ZM85.1964 26.0405L75.2217 17.081L70.6882 22.1282L80.6629 31.0876L90.6376 40.0471L95.1711 34.9999L85.1964 26.0405ZM73.4017 24.926L63.427 15.9665C62.9276 16.5225 62.0523 17.5128 61.2399 18.7127C60.4347 19.9019 59.1713 22.0377 58.6337 24.9413C57.2485 32.4232 61.5747 37.5153 64.0165 39.7086L72.9759 29.7339L81.9353 19.7592C82.171 19.9709 83.2142 20.9318 84.0666 22.7085C85.07 24.7999 85.466 27.3108 85.0009 29.823C84.6014 31.9809 83.7046 33.3624 83.4443 33.7468C83.1768 34.142 83.0247 34.277 83.3764 33.8854L73.4017 24.926ZM72.9759 29.7339L64.0165 39.7086C66.4882 41.9287 72.0275 45.6547 79.3058 43.4511C82.1153 42.6005 84.0899 41.1215 85.178 40.1991C86.2779 39.2666 87.1651 38.2951 87.6655 37.7379L77.6908 28.7785L67.7161 19.8191C67.3654 20.2095 67.4795 20.0485 67.8382 19.7444C68.185 19.4504 69.4501 18.4177 71.5355 17.7863C73.9669 17.0501 76.5098 17.156 78.7205 17.9301C80.6012 18.5886 81.6855 19.5348 81.9353 19.7592L72.9759 29.7339ZM77.6908 28.7785L87.6655 37.7379L89.5111 35.6831L79.5365 26.7237L69.5618 17.7643L67.7161 19.8191L77.6908 28.7785ZM79.5365 26.7237L88.4959 16.749L84.2068 12.8965L75.2473 22.8712L66.2879 32.8459L70.577 36.6984L79.5365 26.7237ZM75.2473 22.8712L65.2726 13.9118L63.427 15.9665L73.4017 24.926L83.3764 33.8854L85.222 31.8306L75.2473 22.8712ZM52.5553 34.0895L61.5147 24.1148C56.0058 19.1667 47.5288 19.6213 42.5806 25.1301L52.5553 34.0895ZM61.2483 44.9975L71.0036 54.1954C71.022 54.1759 71.0402 54.1564 71.0585 54.1368L61.2483 44.9975ZM55.1576 51.4574L46.1982 61.4321C51.6131 66.2959 59.9196 65.9511 64.9129 60.6553L55.1576 51.4574ZM52.3647 48.9488L42.6018 39.759C40.1273 42.3878 38.8175 45.9034 38.9688 49.5104C39.12 53.1174 40.7194 56.5111 43.4052 58.9235L52.3647 48.9488ZM57.0895 43.9293L66.8524 53.1191C69.3268 50.4903 70.6366 46.9747 70.4854 43.3677C70.3342 39.7607 68.7347 36.3671 66.0489 33.9546L57.0895 43.9293ZM49.6883 37.2814L39.7136 28.322C37.3374 30.9675 36.1095 34.4485 36.2998 37.9993C36.4903 41.5502 38.0834 44.8799 40.7289 47.2561L49.6883 37.2814ZM52.5553 34.0895L43.5959 44.0642L52.1542 51.7514L61.1136 41.7767L70.073 31.802L61.5147 24.1148L52.5553 34.0895ZM61.1136 41.7767L52.1542 51.7514C50.8706 50.5985 48.7383 47.9717 48.5728 43.896C48.4083 39.8438 50.2995 37.0805 51.4381 35.8583L61.2483 44.9975L71.0585 54.1368C73.2026 51.8353 75.5751 47.9543 75.3661 42.808C75.1561 37.638 72.4538 33.9405 70.073 31.802L61.1136 41.7767ZM61.2483 44.9975L51.493 35.7997L45.4023 42.2596L55.1576 51.4574L64.9129 60.6553L71.0036 54.1954L61.2483 44.9975ZM55.1576 51.4574L64.117 41.4828L61.3241 38.9741L52.3647 48.9488L43.4052 58.9235L46.1982 61.4321L55.1576 51.4574ZM52.3647 48.9488L62.1275 58.1386L66.8524 53.1191L57.0895 43.9293L47.3266 34.7395L42.6018 39.759L52.3647 48.9488ZM57.0895 43.9293L66.0489 33.9546L58.6477 27.3067L49.6883 37.2814L40.7289 47.2561L48.1301 53.904L57.0895 43.9293ZM49.6883 37.2814L59.663 46.2409L62.53 43.049L52.5553 34.0895L42.5806 25.1301L39.7136 28.322L49.6883 37.2814ZM42.2534 55.7165L51.1809 45.7132L42.2534 55.7165ZM31.903 56.7225L41.9063 65.65L31.903 56.7225ZM34.9507 63.8992L26.0232 73.9025L34.9507 63.8992ZM42.2534 55.7165L33.3259 65.7198C33.0028 65.4313 32.4417 64.8205 31.982 63.8213C31.5118 62.7996 31.2827 61.6606 31.3119 60.5428C31.3683 58.3746 32.3132 57.2697 32.4032 57.1689L42.4065 66.0964L52.4097 75.0238C55.3387 71.742 57.9676 67.0183 58.1181 61.2412C58.2794 55.0502 55.5333 49.5975 51.1809 45.7132L42.2534 55.7165ZM42.4065 66.0964L32.4032 57.1689C32.5141 57.0447 33.5166 55.9816 35.6633 55.6826C36.769 55.5286 37.9232 55.6281 38.9877 55.9787C40.0293 56.3217 40.6981 56.8084 41.0214 57.0969L32.0939 67.1002L23.1665 77.1035C27.5178 80.9869 33.2403 83.0942 39.3622 82.2416C45.0796 81.4453 49.4778 78.3091 52.4097 75.0238L42.4065 66.0964ZM32.0939 67.1002L41.0214 57.0969C41.3323 57.3744 41.8855 57.9735 42.3425 58.9615C42.8101 59.9725 43.0429 61.106 43.0166 62.2257C42.9656 64.4021 42.0173 65.5256 41.9063 65.65L31.903 56.7225L21.8997 47.795C18.9677 51.0804 16.3442 55.8126 16.2087 61.5975C16.0636 67.7882 18.8231 73.2273 23.1665 77.1035L32.0939 67.1002ZM31.903 56.7225L41.9063 65.65C41.8162 65.7509 40.8191 66.8214 38.6615 67.1214C37.5503 67.2759 36.3943 67.174 35.333 66.8231C34.2962 66.4804 33.6366 65.9971 33.3259 65.7198L42.2534 55.7165L51.1809 45.7132C46.8366 41.8361 41.1136 39.7071 34.9683 40.5616C29.2305 41.3594 24.8288 44.513 21.8997 47.795L31.903 56.7225ZM39.3966 58.9175L48.3241 48.9143C45.5435 46.4327 41.1602 44.0552 35.6422 44.5841C30.3751 45.0889 26.7491 47.9994 24.7007 50.2947L34.7039 59.2222L44.7072 68.1497C44.0157 68.9245 41.8858 70.9239 38.2006 71.2771C34.2646 71.6543 31.5492 69.8847 30.4691 68.9208L39.3966 58.9175ZM34.7039 59.2222L24.7007 50.2947C22.6339 52.6106 20.1725 56.5521 20.2827 61.8338C20.3978 67.3497 23.2433 71.4214 26.0232 73.9025L34.9507 63.8992L43.8782 53.8959C44.9576 54.8592 47.0102 57.3427 47.0922 61.2747C47.1693 64.9725 45.4349 67.3343 44.7072 68.1497L34.7039 59.2222ZM34.9507 63.8992L26.0232 73.9025C28.827 76.4047 33.2078 78.7458 38.6885 78.2192C43.9196 77.7166 47.5422 74.8398 49.6088 72.5242L39.6056 63.5967L29.6023 54.6692C30.3297 53.854 32.4653 51.8783 36.1239 51.5268C40.032 51.1513 42.755 52.8935 43.8782 53.8959L34.9507 63.8992ZM39.6056 63.5967L49.6088 72.5242C51.6572 70.2289 54.1246 66.3128 54.0463 61.0499C53.9641 55.5186 51.1287 51.4172 48.3241 48.9143L39.3966 58.9175L30.4691 68.9208C29.3451 67.9177 27.2927 65.3956 27.234 61.4488C27.1793 57.7704 28.9109 55.4439 29.6023 54.6692L39.6056 63.5967ZM14.4934 86.7992L1.74525 82.6458C-0.548601 89.6864 3.29939 97.2534 10.34 99.5473L14.4934 86.7992ZM15.8225 82.7198L19.9759 69.9716C12.9353 67.6778 5.36819 71.5258 3.07434 78.5664L15.8225 82.7198ZM16.6129 82.9773L24.5844 72.1968C23.4257 71.34 22.1364 70.6756 20.7662 70.2291L16.6129 82.9773ZM18.6583 84.4898L10.6868 95.2703C14.1521 97.8327 18.6379 98.5731 22.7429 97.2601C26.8478 95.9472 30.0714 92.741 31.4065 88.6432L18.6583 84.4898ZM18.9906 83.4699L31.7387 87.6233C33.4527 82.3625 31.759 76.589 27.4746 73.0879L18.9906 83.4699ZM30.6892 81.669L43.4373 85.8224L30.6892 81.669ZM25.6961 85.6546L24.9562 72.2674C19.4316 72.5727 14.662 76.2404 12.948 81.5012L25.6961 85.6546ZM25.3638 86.6745L12.6157 82.5211C11.2806 86.6189 11.9968 91.1087 14.5405 94.5877C17.0841 98.0669 21.1452 100.111 25.4549 100.082L25.3638 86.6745ZM27.9077 86.6572L32.0611 73.909C30.6909 73.4626 29.2577 73.24 27.8166 73.2498L27.9077 86.6572ZM34.5622 88.8252L47.3104 92.9786C48.4119 89.5976 48.1252 85.9175 46.5134 82.7479C44.9016 79.5782 42.0966 77.1787 38.7156 76.0771L34.5622 88.8252ZM33.2331 92.9047L29.0798 105.653C32.4608 106.754 36.1409 106.468 39.3105 104.856C42.4802 103.244 44.8797 100.439 45.9813 97.058L33.2331 92.9047ZM14.4934 86.7992L27.2415 90.9526L28.5706 86.8732L15.8225 82.7198L3.07434 78.5664L1.74525 82.6458L14.4934 86.7992ZM15.8225 82.7198L11.6691 95.4679L12.4595 95.7254L16.6129 82.9773L20.7662 70.2291L19.9759 69.9716L15.8225 82.7198ZM16.6129 82.9773L8.64129 93.7578L10.6868 95.2703L18.6583 84.4898L26.6299 73.7093L24.5844 72.1968L16.6129 82.9773ZM18.6583 84.4898L31.4065 88.6432L31.7387 87.6233L18.9906 83.4699L6.24246 79.3165L5.91018 80.3364L18.6583 84.4898ZM18.9906 83.4699L27.4746 73.0879C27.6945 73.2676 28.9919 74.3573 29.7775 76.4874C30.6462 78.8428 30.2803 80.7598 30.0518 81.4614L17.3036 77.308L4.55549 73.1546C3.28856 77.0432 3.02002 81.4314 4.61871 85.7662C6.1343 89.8756 8.79438 92.4528 10.5066 93.852L18.9906 83.4699ZM17.3036 77.308L30.0518 81.4614C29.7734 82.3156 29.217 83.3914 28.2353 84.3985C27.2559 85.4032 26.1289 86.0562 25.0797 86.4231C23.1213 87.108 21.8338 86.7089 21.6749 86.6571L25.8283 73.909L29.9817 61.1608C26.1769 59.9212 21.2334 59.3604 16.2274 61.1111C10.7174 63.0381 6.44523 67.3544 4.55549 73.1546L17.3036 77.308ZM25.8283 73.909L21.6749 86.6571C21.5145 86.6048 20.2184 86.161 19.0295 84.4303C18.3939 83.505 17.8726 82.3085 17.6775 80.9238C17.4822 79.5381 17.6681 78.3535 17.941 77.5156L30.6892 81.669L43.4373 85.8224C45.3141 80.062 44.4443 74.0684 41.1321 69.2468C38.121 64.8637 33.7882 62.401 29.9817 61.1608L25.8283 73.909ZM30.6892 81.669L17.941 77.5156C18.1696 76.814 19.0032 75.0495 21.0927 73.6578C22.9823 72.3993 24.6726 72.283 24.9562 72.2674L25.6961 85.6546L26.436 99.0418C28.6438 98.9198 32.3115 98.4043 35.957 95.9763C39.8024 93.4152 42.1704 89.7111 43.4373 85.8224L30.6892 81.669ZM25.6961 85.6546L12.948 81.5012L12.6157 82.5211L25.3638 86.6745L38.112 90.8278L38.4442 89.808L25.6961 85.6546ZM25.3638 86.6745L25.4549 100.082L27.9988 100.065L27.9077 86.6572L27.8166 73.2498L25.2728 73.2671L25.3638 86.6745ZM27.9077 86.6572L23.7543 99.4053L30.4088 101.573L34.5622 88.8252L38.7156 76.0771L32.0611 73.909L27.9077 86.6572ZM34.5622 88.8252L21.8141 84.6719L20.485 88.7513L33.2331 92.9047L45.9813 97.058L47.3104 92.9786L34.5622 88.8252ZM33.2331 92.9047L37.3865 80.1565L18.6468 74.051L14.4934 86.7992L10.34 99.5473L29.0798 105.653L33.2331 92.9047ZM22.273 84.8214L18.1196 97.5695C21.6011 98.7038 26.7733 99.2186 31.7975 96.222C36.4194 93.4654 38.3888 89.1991 39.2448 86.5717L26.4967 82.4183L13.7485 78.2649C13.8902 77.8302 14.8313 75.1185 18.0618 73.1918C21.6946 71.0251 25.1121 71.645 26.4264 72.0733L22.273 84.8214ZM26.4967 82.4183L39.2448 86.5717C40.1008 83.9443 41.0226 79.3367 38.9116 74.3865C36.6169 69.0054 32.1341 66.3745 28.6526 65.2403L24.4992 77.9884L20.3459 90.7365C19.0315 90.3083 15.9047 88.7961 14.2455 84.9052C12.77 81.4453 13.6069 78.6996 13.7485 78.2649L26.4967 82.4183ZM24.4992 77.9884L28.6526 65.2403C25.1743 64.107 20.0371 63.5989 15.0335 66.5413C10.3911 69.2712 8.38165 73.5297 7.50196 76.2298L20.2501 80.3831L32.9982 84.5365C32.8329 85.0439 31.8644 87.752 28.6262 89.6562C25.0268 91.7729 21.657 91.1637 20.3459 90.7365L24.4992 77.9884ZM20.2501 80.3831L7.50196 76.2298C6.62227 78.9298 5.73751 83.5547 7.88074 88.4955C10.1908 93.8207 14.6413 96.4363 18.1196 97.5695L22.273 84.8214L26.4264 72.0733C27.7375 72.5004 30.8195 73.9933 32.4812 77.824C33.9762 81.2703 33.1635 84.0292 32.9982 84.5365L20.2501 80.3831ZM28.8805 101.495L40.6762 95.1209C37.156 88.6063 29.0212 86.1789 22.5066 89.6992L28.8805 101.495ZM30.9202 105.269L37.2941 117.065C43.8087 113.545 46.2361 105.41 42.7159 98.8955L30.9202 105.269ZM19.0065 111.707L7.21085 118.081C8.90133 121.21 11.7653 123.538 15.1728 124.555C18.5803 125.572 22.2521 125.193 25.3805 123.503L19.0065 111.707ZM16.9669 107.933L10.5929 96.1368C4.07835 99.6571 1.65096 107.792 5.17119 114.306L16.9669 107.933ZM18.406 107.155L16.0892 93.9489C14.6698 94.1979 13.2998 94.6741 12.032 95.3592L18.406 107.155ZM20.9116 106.715L23.2284 119.921C27.4733 119.177 31.1015 116.437 32.9795 112.558C34.8574 108.678 34.7562 104.133 32.7073 100.341L20.9116 106.715ZM20.4017 105.772L32.1974 99.3977C29.2099 93.8691 22.7834 91.1572 16.7384 92.8742L20.4017 105.772ZM23.6794 91.8696L35.4751 85.4956C31.9548 78.981 23.82 76.5536 17.3054 80.0739L23.6794 91.8696ZM25.719 95.6442L32.093 107.44C35.2214 105.749 37.5502 102.885 38.5669 99.4779C39.5837 96.0705 39.2052 92.3986 37.5147 89.2702L25.719 95.6442ZM18.1981 102.878L6.40237 109.252C8.05934 112.318 11.4926 116.59 17.6423 117.928C23.1917 119.136 27.9453 117.24 30.8429 115.674L24.4689 103.879L18.095 92.083C17.6426 92.3274 19.8153 90.958 23.3441 91.7258C27.4731 92.6243 29.4459 95.4903 29.9938 96.5042L18.1981 102.878ZM24.4689 103.879L30.8429 115.674L35.2545 113.291L28.8805 101.495L22.5066 89.6992L18.095 92.083L24.4689 103.879ZM28.8805 101.495L17.0848 107.869L19.1245 111.643L30.9202 105.269L42.7159 98.8955L40.6762 95.1209L28.8805 101.495ZM30.9202 105.269L24.5462 93.4738L12.6326 99.9115L19.0065 111.707L25.3805 123.503L37.2941 117.065L30.9202 105.269ZM19.0065 111.707L30.8022 105.333L28.7626 101.559L16.9669 107.933L5.17119 114.306L7.21085 118.081L19.0065 111.707ZM16.9669 107.933L23.3408 119.728L24.7799 118.951L18.406 107.155L12.032 95.3592L10.5929 96.1368L16.9669 107.933ZM18.406 107.155L20.7227 120.361L23.2284 119.921L20.9116 106.715L18.5949 93.5093L16.0892 93.9489L18.406 107.155ZM20.9116 106.715L32.7073 100.341L32.1974 99.3977L20.4017 105.772L8.60601 112.146L9.11593 113.089L20.9116 106.715ZM20.4017 105.772L16.7384 92.8742C17.626 92.6221 19.2937 92.3862 21.3205 93.0923C23.568 93.8753 25.1531 95.4428 25.9643 96.9442L14.1686 103.318L2.37295 109.692C4.56099 113.741 8.07349 116.873 12.4988 118.415C16.7034 119.88 20.7992 119.597 24.065 118.669L20.4017 105.772ZM14.1686 103.318L25.9643 96.9442C26.6337 98.183 27.352 100.748 26.2551 103.662C25.7762 104.934 25.1009 105.828 24.5642 106.377C24.0454 106.908 23.6544 107.123 23.6129 107.145L17.2389 95.3497L10.865 83.554C7.19621 85.5365 3.15986 88.8993 1.1589 94.2151C-0.964165 99.8552 0.0590744 105.41 2.37295 109.692L14.1686 103.318ZM17.2389 95.3497L23.6129 107.145L30.0533 103.665L23.6794 91.8696L17.3054 80.0739L10.865 83.554L17.2389 95.3497ZM23.6794 91.8696L11.8837 98.2435L13.9234 102.018L25.719 95.6442L37.5147 89.2702L35.4751 85.4956L23.6794 91.8696ZM25.719 95.6442L19.3451 83.8485L13.4944 87.01L19.8684 98.8057L26.2423 110.601L32.093 107.44L25.719 95.6442ZM19.8684 98.8057L13.4944 87.01C11.9065 87.868 7.62423 90.2941 5.47803 95.4362C2.93295 101.534 5.09257 106.828 6.40237 109.252L18.1981 102.878L29.9938 96.5042C30.322 97.1116 32.2316 100.956 30.2244 105.765C29.3677 107.817 28.1435 109.102 27.4119 109.746C27.0402 110.073 26.7329 110.291 26.5503 110.412C26.3657 110.535 26.2514 110.596 26.2423 110.601L19.8684 98.8057ZM41.3463 117.932L37.4014 130.747C40.9079 131.826 44.7036 131.421 47.9037 129.627C51.1039 127.833 53.4289 124.805 54.3369 121.25L41.3463 117.932ZM37.2457 116.67L24.0226 114.453C22.9116 121.081 26.8783 127.507 33.3008 129.484L37.2457 116.67ZM35.0243 113.77L31.0794 126.584L35.0243 113.77ZM33.0913 120.049L29.1464 132.863L33.0913 120.049ZM36.5593 118.9L40.5042 106.086C34.0817 104.108 27.1876 107.191 24.3789 113.296L36.5593 118.9ZM40.6599 120.162L53.2674 124.725C54.5159 121.275 54.296 117.464 52.6591 114.18C51.0222 110.897 48.1113 108.427 44.6048 107.348L40.6599 120.162ZM26.9883 114.719L39.8025 118.664C39.5153 119.597 38.4934 121.419 36.2183 122.49C34.1501 123.464 32.5502 123.109 32.184 122.996L36.1289 110.182L40.0738 97.3675C35.5813 95.9844 30.0739 95.745 24.7983 98.2282C19.3159 100.809 15.7868 105.535 14.1741 110.774L26.9883 114.719ZM36.1289 110.182L32.184 122.996C31.7841 122.873 30.6747 122.435 29.6263 121.011C29.0674 120.252 28.5537 119.233 28.299 117.994C28.0402 116.735 28.1139 115.561 28.3557 114.614L41.3463 117.932L54.3369 121.25C55.8606 115.285 54.461 109.513 51.219 105.111C48.2068 101.02 44.0103 98.5794 40.0738 97.3675L36.1289 110.182ZM41.3463 117.932L45.2912 105.118L41.1906 103.856L37.2457 116.67L33.3008 129.484L37.4014 130.747L41.3463 117.932ZM37.2457 116.67L50.4689 118.887C52.0802 109.275 45.138 102.855 38.9692 100.955L35.0243 113.77L31.0794 126.584C29.6611 126.147 27.6371 125.101 26.0145 122.889C24.3269 120.588 23.5036 117.549 24.0226 114.453L37.2457 116.67ZM35.0243 113.77L38.9692 100.955C35.4398 99.8689 30.5725 99.5902 25.8827 102.28C21.3669 104.871 19.2224 108.958 18.2747 112.036L31.0888 115.981L43.903 119.926C43.5628 121.031 42.4121 123.713 39.2252 125.541C35.8643 127.468 32.661 127.071 31.0794 126.584L35.0243 113.77ZM31.0888 115.981L18.2747 112.036C17.3351 115.088 16.7877 119.673 19.0544 124.368C21.4163 129.261 25.6154 131.776 29.1464 132.863L33.0913 120.049L37.0362 107.234C38.6194 107.722 41.5096 109.202 43.2033 112.711C44.8019 116.023 44.2272 118.873 43.903 119.926L31.0888 115.981ZM33.0913 120.049L29.1464 132.863C35.3152 134.762 44.6663 133.357 48.7397 124.504L36.5593 118.9L24.3789 113.296C25.691 110.444 28.081 108.394 30.7703 107.441C33.3561 106.524 35.618 106.798 37.0362 107.234L33.0913 120.049ZM36.5593 118.9L32.6144 131.714L36.715 132.976L40.6599 120.162L44.6048 107.348L40.5042 106.086L36.5593 118.9ZM40.6599 120.162L28.0523 115.6C28.3848 114.681 28.9841 113.669 29.9062 112.773C30.8136 111.892 31.8114 111.338 32.7004 111.025C34.368 110.438 35.5318 110.699 35.9316 110.822L31.9867 123.637L28.0418 136.451C31.9783 137.663 36.821 138.005 41.6121 136.316C46.7689 134.499 51.1723 130.514 53.2674 124.725L40.6599 120.162ZM31.9867 123.637L35.9316 110.822C36.2983 110.935 37.829 111.545 38.9936 113.522C40.2725 115.694 40.0789 117.766 39.8025 118.664L26.9883 114.719L14.1741 110.774C12.5643 116.003 12.8068 121.898 15.8867 127.129C18.8523 132.165 23.5489 135.068 28.0418 136.451L31.9867 123.637ZM56.969 125.482L43.5756 124.864C43.4061 128.541 44.7557 132.126 47.308 134.779C49.8604 137.431 53.3908 138.917 57.0716 138.889L56.969 125.482ZM61.9637 125.444L75.3572 126.061C75.5267 122.384 74.177 118.799 71.6247 116.147C69.0724 113.494 65.5419 112.008 61.8612 112.036L61.9637 125.444ZM61.7909 129.194L61.6867 142.601C68.8916 142.657 74.8526 137.009 75.1843 129.811L61.7909 129.194ZM54.7871 129.139L54.6569 142.546C54.6656 142.546 54.6743 142.547 54.683 142.547L54.7871 129.139ZM52.9733 118.989L66.3667 119.607C66.5305 116.054 65.2764 112.583 62.8804 109.955C60.4844 107.328 57.1428 105.76 53.5906 105.596L52.9733 118.989ZM49.7588 118.841L36.3654 118.224C36.2017 121.776 37.4557 125.248 39.8517 127.875C42.2477 130.503 45.5893 132.071 49.1415 132.235L49.7588 118.841ZM49.9317 115.091L50.5491 101.698C43.1521 101.357 36.8792 107.077 36.5383 114.474L49.9317 115.091ZM53.1461 115.239L52.5288 128.633C56.0809 128.796 59.5527 127.542 62.1802 125.146C64.8077 122.75 66.3758 119.409 66.5396 115.856L53.1461 115.239ZM53.2634 112.694L49.8578 99.7265C44.1858 101.216 40.14 106.219 39.87 112.077L53.2634 112.694ZM57.6111 111.553L71.0045 112.17C71.2009 107.909 69.3584 103.809 66.0419 101.127C62.7254 98.4453 58.3307 97.5013 54.2054 98.5847L57.6111 111.553ZM57.432 115.437L44.0386 114.819C43.8749 118.371 45.1289 121.843 47.5249 124.471C49.9209 127.098 53.2625 128.666 56.8147 128.83L57.432 115.437ZM61.8787 115.642L75.2721 116.259C75.4358 112.707 74.1818 109.235 71.7858 106.608C69.3898 103.98 66.0482 102.412 62.496 102.248L61.8787 115.642ZM61.7058 119.392L61.0884 132.785C68.4854 133.126 74.7583 127.406 75.0993 120.009L61.7058 119.392ZM57.2592 119.187L57.8765 105.793C50.4795 105.452 44.2067 111.172 43.8657 118.57L57.2592 119.187ZM56.969 125.482L57.0716 138.889L62.0663 138.851L61.9637 125.444L61.8612 112.036L56.8665 112.075L56.969 125.482ZM61.9637 125.444L48.5703 124.826L48.3974 128.576L61.7909 129.194L75.1843 129.811L75.3572 126.061L61.9637 125.444ZM61.7909 129.194L61.895 115.786L54.8913 115.732L54.7871 129.139L54.683 142.547L61.6867 142.601L61.7909 129.194ZM54.7871 129.139L54.9174 115.732C56.8746 115.751 60.326 116.444 63.1069 119.547C65.7797 122.53 66.0815 125.795 66.0087 127.375L52.6152 126.757L39.2218 126.14C39.081 129.193 39.7309 133.643 43.1377 137.444C46.6526 141.366 51.224 142.513 54.6569 142.546L54.7871 129.139ZM52.6152 126.757L66.0087 127.375L66.3667 119.607L52.9733 118.989L39.5798 118.372L39.2218 126.14L52.6152 126.757ZM52.9733 118.989L53.5906 105.596L50.3762 105.448L49.7588 118.841L49.1415 132.235L52.3559 132.383L52.9733 118.989ZM49.7588 118.841L63.1523 119.458L63.3252 115.708L49.9317 115.091L36.5383 114.474L36.3654 118.224L49.7588 118.841ZM49.9317 115.091L49.3144 128.484L52.5288 128.633L53.1461 115.239L53.7635 101.846L50.5491 101.698L49.9317 115.091ZM53.1461 115.239L66.5396 115.856L66.6569 113.312L53.2634 112.694L39.87 112.077L39.7527 114.622L53.1461 115.239ZM53.2634 112.694L56.6691 125.662L61.0168 124.521L57.6111 111.553L54.2054 98.5847L49.8578 99.7265L53.2634 112.694ZM57.6111 111.553L44.2176 110.935L44.0386 114.819L57.432 115.437L70.8255 116.054L71.0045 112.17L57.6111 111.553ZM57.432 115.437L56.8147 128.83L61.2613 129.035L61.8787 115.642L62.496 102.248L58.0494 102.043L57.432 115.437ZM61.8787 115.642L48.4852 115.024L48.3124 118.774L61.7058 119.392L75.0993 120.009L75.2721 116.259L61.8787 115.642ZM61.7058 119.392L62.3232 105.998L57.8765 105.793L57.2592 119.187L56.6418 132.58L61.0884 132.785L61.7058 119.392ZM57.2592 119.187L43.8657 118.57L43.5756 124.864L56.969 125.482L70.3625 126.099L70.6526 119.804L57.2592 119.187ZM77.9263 112.892L91.3198 113.509L77.9263 112.892ZM83.0158 113.126L69.6224 112.509L83.0158 113.126ZM74.1153 129.762L60.7219 129.144C60.3809 136.541 66.101 142.814 73.498 143.155L74.1153 129.762ZM74.2882 126.012L74.9056 112.618C71.3534 112.454 67.8817 113.709 65.2542 116.105C62.6266 118.5 61.0585 121.842 60.8948 125.394L74.2882 126.012ZM78.1187 126.188L77.5014 139.582C81.0535 139.745 84.5253 138.491 87.1528 136.095C89.7803 133.699 91.3484 130.358 91.5122 126.806L78.1187 126.188ZM78.404 120L91.7974 120.618C91.9664 116.952 90.6257 113.378 88.088 110.728C85.5503 108.077 82.0373 106.583 78.368 106.593L78.404 120ZM75.1018 120.009L61.7083 119.392C61.5394 123.057 62.88 126.632 65.4177 129.282C67.9554 131.932 71.4684 133.427 75.1377 133.417L75.1018 120.009ZM75.2746 116.259L75.1872 102.852C68.0563 102.898 62.2095 108.518 61.8812 115.642L75.2746 116.259ZM80.3765 116.226L80.4639 129.633L80.4765 129.633L80.3765 116.226ZM82.2439 126.378L68.8505 125.761C68.5095 133.158 74.2296 139.431 81.6266 139.772L82.2439 126.378ZM86.0744 126.555L99.4679 127.172C99.8088 119.775 94.0888 113.502 86.6918 113.161L86.0744 126.555ZM85.9016 130.305L85.2842 143.699C92.6812 144.04 98.9541 138.319 99.295 130.922L85.9016 130.305ZM80.3455 115.151L80.9629 101.757C82.0851 101.809 84.9187 102.188 87.5903 104.643C90.6101 107.417 91.4357 110.994 91.3198 113.509L77.9263 112.892L64.5329 112.274C64.3527 116.182 65.5977 120.852 69.4481 124.389C72.9502 127.607 77.0255 128.42 79.7281 128.544L80.3455 115.151ZM77.9263 112.892L91.3198 113.509C91.2003 116.101 90.0127 119.527 86.8384 121.967C83.9959 124.153 81.1547 124.315 79.9257 124.258L80.5431 110.865L81.1604 97.4713C78.351 97.3418 74.2329 97.834 70.4929 100.71C66.4211 103.841 64.7153 108.316 64.5329 112.274L77.9263 112.892ZM80.5431 110.865L79.9257 124.258C78.6977 124.202 75.995 123.787 73.4285 121.478C70.5216 118.863 69.4916 115.346 69.6224 112.509L83.0158 113.126L96.4093 113.744C96.603 109.54 95.1269 104.929 91.3629 101.543C87.9395 98.463 83.9689 97.6008 81.1604 97.4713L80.5431 110.865ZM83.0158 113.126L69.6224 112.509C69.7496 109.748 71.0604 106.283 74.2856 103.902C77.0964 101.827 79.8393 101.705 80.9629 101.757L80.3455 115.151L79.7281 128.544C82.4321 128.669 86.4781 128.232 90.2129 125.475C94.3621 122.411 96.2178 117.897 96.4093 113.744L83.0158 113.126ZM74.1153 129.762L87.5088 130.379L87.6817 126.629L74.2882 126.012L60.8948 125.394L60.7219 129.144L74.1153 129.762ZM74.2882 126.012L73.6708 139.405L77.5014 139.582L78.1187 126.188L78.7361 112.795L74.9056 112.618L74.2882 126.012ZM78.1187 126.188L91.5122 126.806L91.7974 120.618L78.404 120L65.0105 119.383L64.7253 125.571L78.1187 126.188ZM78.404 120L78.368 106.593L75.0658 106.602L75.1018 120.009L75.1377 133.417L78.4399 133.408L78.404 120ZM75.1018 120.009L88.4952 120.627L88.6681 116.876L75.2746 116.259L61.8812 115.642L61.7083 119.392L75.1018 120.009ZM75.2746 116.259L75.3621 129.667L80.4639 129.633L80.3765 116.226L80.289 102.818L75.1872 102.852L75.2746 116.259ZM80.3765 116.226L80.4765 129.633C78.6773 129.647 75.1867 129.095 72.2897 125.999C69.453 122.967 69.1357 119.573 69.2098 117.966L82.6032 118.583L95.9967 119.201C96.1399 116.094 95.4611 111.515 91.8697 107.677C88.218 103.775 83.5794 102.794 80.2765 102.819L80.3765 116.226ZM82.6032 118.583L69.2098 117.966L68.8505 125.761L82.2439 126.378L95.6374 126.996L95.9967 119.201L82.6032 118.583ZM82.2439 126.378L81.6266 139.772L85.4571 139.948L86.0744 126.555L86.6918 113.161L82.8613 112.985L82.2439 126.378ZM86.0744 126.555L72.681 125.938L72.5081 129.688L85.9016 130.305L99.295 130.922L99.4679 127.172L86.0744 126.555ZM85.9016 130.305L86.5189 116.912L74.7327 116.368L74.1153 129.762L73.498 143.155L85.2842 143.699L85.9016 130.305ZM112.83 124.396L126.233 124.717L112.83 124.396ZM97.5761 124.03L110.98 124.351C110.97 124.784 110.868 125.607 110.404 126.605C109.93 127.625 109.211 128.537 108.341 129.239C106.652 130.6 105.198 130.596 105.063 130.593L105.385 117.189L105.706 103.786C101.309 103.68 96.0072 104.737 91.5084 108.365C86.6874 112.252 84.3122 117.876 84.1723 123.708L97.5761 124.03ZM105.385 117.189L105.063 130.593C104.897 130.589 103.438 130.514 101.819 129.072C100.986 128.33 100.314 127.386 99.8913 126.348C99.4779 125.332 99.4155 124.507 99.4259 124.074L112.83 124.396L126.233 124.717C126.373 118.886 124.272 113.162 119.657 109.05C115.347 105.21 110.108 103.891 105.706 103.786L105.385 117.189ZM112.83 124.396L99.4259 124.074C99.4358 123.658 99.5339 122.848 99.9906 121.86C100.458 120.849 101.171 119.937 102.041 119.232C103.732 117.861 105.202 117.856 105.369 117.86L105.047 131.263L104.726 144.667C109.128 144.773 114.433 143.706 118.927 140.062C123.738 136.162 126.094 130.537 126.233 124.717L112.83 124.396ZM105.047 131.263L105.369 117.86C105.504 117.863 106.965 117.929 108.592 119.378C109.429 120.125 110.1 121.072 110.52 122.107C110.931 123.119 110.99 123.935 110.98 124.351L97.5761 124.03L84.1723 123.708C84.0327 129.529 86.1179 135.268 90.7496 139.397C95.0742 143.251 100.328 144.562 104.726 144.667L105.047 131.263ZM101.865 124.133L88.4615 123.811C88.3722 127.537 89.4002 132.416 93.3775 136.278C97.174 139.963 101.74 140.84 104.816 140.914L105.137 127.51L105.459 114.106C106.497 114.131 109.4 114.459 112.056 117.038C114.893 119.792 115.304 123.007 115.269 124.454L101.865 124.133ZM105.137 127.51L104.816 140.914C107.919 140.989 112.516 140.31 116.468 136.805C120.596 133.144 121.855 128.339 121.944 124.614L108.54 124.293L95.1366 123.971C95.1713 122.525 95.7337 119.352 98.6761 116.743C101.443 114.289 104.366 114.08 105.459 114.106L105.137 127.51ZM108.54 124.293L121.944 124.614C122.034 120.857 120.98 116.003 117.029 112.169C113.257 108.509 108.719 107.613 105.616 107.539L105.295 120.942L104.973 134.346C103.881 134.32 100.993 133.973 98.3548 131.413C95.5372 128.679 95.1005 125.476 95.1366 123.971L108.54 124.293ZM105.295 120.942L105.616 107.539C102.541 107.465 97.959 108.122 94.0002 111.591C89.8396 115.236 88.5517 120.053 88.4615 123.811L101.865 124.133L115.269 124.454C115.233 125.96 114.641 129.157 111.672 131.759C108.905 134.183 106.011 134.371 104.973 134.346L105.295 120.942ZM122.744 117.454L132.667 126.471L122.744 117.454ZM127.589 127.074L137.513 136.091C142.492 130.61 142.086 122.131 136.606 117.151L127.589 127.074ZM124.704 130.25L115.688 140.173C121.168 145.153 129.648 144.747 134.628 139.266L124.704 130.25ZM114.682 121.143L104.758 112.127C102.367 114.759 101.119 118.233 101.289 121.785C101.459 125.337 103.034 128.675 105.665 131.067L114.682 121.143ZM117.567 117.968L126.583 108.045C121.103 103.065 112.623 103.471 107.644 108.952L117.567 117.968ZM118.778 119.068L130.469 112.505C129.764 111.248 128.86 110.114 127.794 109.145L118.778 119.068ZM120.023 121.286L108.331 127.849C110.441 131.607 114.228 134.122 118.511 134.608C122.793 135.094 127.048 133.492 129.946 130.303L120.023 121.286ZM120.744 120.492L130.667 129.509C134.893 124.858 135.322 117.896 131.698 112.761L120.744 120.492ZM134.947 118.977L144.87 127.993C147.261 125.361 148.509 121.887 148.339 118.336C148.169 114.784 146.595 111.445 143.963 109.054L134.947 118.977ZM132.062 122.152L123.045 132.076C128.526 137.055 137.005 136.649 141.985 131.169L132.062 122.152ZM127.14 117.68L118.123 127.604L127.14 117.68ZM122.744 117.454L112.82 108.438C110.476 111.018 107.585 115.672 108.36 121.918C109.06 127.554 112.424 131.411 114.862 133.626L123.878 123.702L132.894 113.779C132.514 113.433 134.526 115.029 134.971 118.613C135.492 122.806 133.442 125.618 132.667 126.471L122.744 117.454ZM123.878 123.702L114.862 133.626L118.573 136.998L127.589 127.074L136.606 117.151L132.894 113.779L123.878 123.702ZM127.589 127.074L117.666 118.058L114.781 121.234L124.704 130.25L134.628 139.266L137.513 136.091L127.589 127.074ZM124.704 130.25L133.721 120.327L123.698 111.22L114.682 121.143L105.665 131.067L115.688 140.173L124.704 130.25ZM114.682 121.143L124.605 130.16L127.49 126.984L117.567 117.968L107.644 108.952L104.758 112.127L114.682 121.143ZM117.567 117.968L108.551 127.891L109.761 128.991L118.778 119.068L127.794 109.145L126.583 108.045L117.567 117.968ZM118.778 119.068L107.086 125.631L108.331 127.849L120.023 121.286L131.714 114.723L130.469 112.505L118.778 119.068ZM120.023 121.286L129.946 130.303L130.667 129.509L120.744 120.492L110.821 111.476L110.099 112.27L120.023 121.286ZM120.744 120.492L131.698 112.761C132.23 113.515 133.006 115.01 133.011 117.157C133.017 119.537 132.064 121.552 130.916 122.815L120.993 113.798L111.07 104.782C107.975 108.189 106.184 112.541 106.196 117.227C106.208 121.679 107.832 125.45 109.79 128.223L120.744 120.492ZM120.993 113.798L130.916 122.815C129.969 123.857 127.788 125.385 124.675 125.316C123.316 125.285 122.249 124.945 121.553 124.62C120.88 124.307 120.547 124.009 120.512 123.977L129.529 114.054L138.545 104.131C135.458 101.326 130.948 98.6328 125.269 98.5069C119.244 98.3732 114.343 101.18 111.07 104.782L120.993 113.798ZM129.529 114.054L120.512 123.977L125.93 128.9L134.947 118.977L143.963 109.054L138.545 104.131L129.529 114.054ZM134.947 118.977L125.023 109.961L122.138 113.136L132.062 122.152L141.985 131.169L144.87 127.993L134.947 118.977ZM132.062 122.152L141.078 112.229L136.156 107.757L127.14 117.68L118.123 127.604L123.045 132.076L132.062 122.152ZM127.14 117.68L136.156 107.757C134.82 106.543 131.112 103.307 125.549 102.987C118.952 102.607 114.673 106.399 112.82 108.438L122.744 117.454L132.667 126.471C132.203 126.982 129.209 130.057 124.006 129.758C121.786 129.63 120.168 128.9 119.318 128.424C118.886 128.181 118.579 127.964 118.404 127.831C118.227 127.698 118.131 127.611 118.123 127.604L127.14 117.68ZM115.9 160.215L115.466 173.616C119.02 173.731 122.474 172.429 125.069 169.997C127.663 167.566 129.185 164.203 129.3 160.649L115.9 160.215ZM112.148 160.093L98.747 159.659C98.5073 167.06 104.313 173.254 111.714 173.494L112.148 160.093ZM112.347 153.929L125.748 154.363C125.863 150.809 124.562 147.355 122.13 144.76C119.698 142.166 116.335 140.644 112.781 140.528L112.347 153.929ZM97.2045 153.439L83.8039 153.005C83.5642 160.406 89.3695 166.6 96.7705 166.839L97.2045 153.439ZM97.3434 149.15L97.7775 135.75C94.2234 135.635 90.7692 136.936 88.1746 139.368C85.5801 141.8 84.0579 145.162 83.9428 148.716L97.3434 149.15ZM112.486 149.641L112.052 163.042C115.606 163.157 119.06 161.855 121.655 159.423C124.249 156.992 125.772 153.629 125.887 150.075L112.486 149.641ZM112.687 143.45L113.121 130.049C109.567 129.934 106.112 131.235 103.518 133.667C100.923 136.099 99.4011 139.462 99.286 143.016L112.687 143.45ZM116.439 143.571L129.839 144.005C130.079 136.604 124.274 130.41 116.873 130.171L116.439 143.571ZM115.9 160.215L116.334 146.814L112.582 146.693L112.148 160.093L111.714 173.494L115.466 173.616L115.9 160.215ZM112.148 160.093L125.548 160.527L125.748 154.363L112.347 153.929L98.9466 153.495L98.747 159.659L112.148 160.093ZM112.347 153.929L112.781 140.528L97.6386 140.038L97.2045 153.439L96.7705 166.839L111.913 167.33L112.347 153.929ZM97.2045 153.439L110.605 153.873L110.744 149.584L97.3434 149.15L83.9428 148.716L83.8039 153.005L97.2045 153.439ZM97.3434 149.15L96.9094 162.551L112.052 163.042L112.486 149.641L112.92 136.24L97.7775 135.75L97.3434 149.15ZM112.486 149.641L125.887 150.075L126.087 143.884L112.687 143.45L99.286 143.016L99.0855 149.207L112.486 149.641ZM112.687 143.45L112.253 156.85L116.005 156.972L116.439 143.571L116.873 130.171L113.121 130.049L112.687 143.45ZM116.439 143.571L103.038 143.137L102.499 159.781L115.9 160.215L129.3 160.649L129.839 144.005L116.439 143.571ZM104.673 181.849L105.28 195.243L104.673 181.849ZM103.333 181.91L89.9393 182.517C90.2746 189.914 96.5431 195.639 103.94 195.303L103.333 181.91ZM102.868 171.65L116.262 171.043C115.927 163.645 109.658 157.921 102.261 158.256L102.868 171.65ZM100.378 175.333L113.772 174.726L100.378 175.333ZM102.063 178.155L115.456 177.548C115.181 171.464 110.838 166.33 104.884 165.048L102.063 178.155ZM102.257 182.442L101.04 195.794C104.898 196.145 108.719 194.811 111.519 192.136C114.32 189.46 115.826 185.704 115.651 181.834L102.257 182.442ZM105.279 171.541L104.672 158.147C101.12 158.308 97.7768 159.873 95.3789 162.499C92.9809 165.125 91.7241 168.595 91.8852 172.148L105.279 171.541ZM105.562 177.782L92.1681 178.389C92.5034 185.786 98.7719 191.511 106.169 191.176L105.562 177.782ZM103.758 167.583L104.365 180.977C103.33 181.024 101.305 180.673 99.5335 178.95C97.8672 177.328 97.5717 175.61 97.5443 175.005L110.938 174.398L124.332 173.791C124.114 168.98 122.371 163.757 118.234 159.731C113.992 155.603 108.471 153.948 103.15 154.189L103.758 167.583ZM110.938 174.398L97.5443 175.005C97.5222 174.517 97.6125 172.877 99.0484 171.127C100.622 169.209 102.709 168.516 104.066 168.455L104.673 181.849L105.28 195.243C110.734 194.996 116.05 192.68 119.779 188.135C123.371 183.757 124.545 178.484 124.332 173.791L110.938 174.398ZM104.673 181.849L104.066 168.455L102.726 168.516L103.333 181.91L103.94 195.303L105.28 195.243L104.673 181.849ZM103.333 181.91L116.727 181.302L116.262 171.043L102.868 171.65L89.4743 172.257L89.9393 182.517L103.333 181.91ZM102.868 171.65L102.261 158.256C97.9861 158.45 93.318 160.375 90.1607 164.711C87.3073 168.629 86.8473 172.929 86.9838 175.94L100.378 175.333L113.772 174.726C113.798 175.299 113.806 177.793 111.837 180.497C109.564 183.618 106.197 184.92 103.475 185.044L102.868 171.65ZM100.378 175.333L86.9838 175.94C87.1266 179.091 88.8147 189.019 99.241 191.263L102.063 178.155L104.884 165.048C108.741 165.878 111.227 168.372 112.463 170.506C113.568 172.414 113.741 174.042 113.772 174.726L100.378 175.333ZM102.063 178.155L88.6686 178.763L88.8629 183.049L102.257 182.442L115.651 181.834L115.456 177.548L102.063 178.155ZM102.257 182.442L103.473 169.089C106.075 169.326 107.726 170.458 108.66 171.445C109.867 172.721 110.254 174.109 110.289 174.884L96.8953 175.491L83.5013 176.098C84.0117 187.357 92.2764 194.996 101.04 195.794L102.257 182.442ZM96.8953 175.491L110.289 174.884C110.309 175.329 110.152 177.208 108.426 178.988C106.861 180.602 105.152 180.941 104.365 180.977L103.758 167.583L103.15 154.189C98.5321 154.399 93.2745 156.094 89.1768 160.319C84.9189 164.709 83.2456 170.455 83.5013 176.098L96.8953 175.491ZM105.279 171.541L91.8852 172.148L92.1681 178.389L105.562 177.782L118.956 177.175L118.673 170.933L105.279 171.541ZM105.562 177.782L106.169 191.176C110.201 190.993 114.761 189.144 117.836 184.847C120.594 180.991 120.979 176.795 120.85 173.949L107.456 174.556L94.0619 175.163C94.0409 174.7 93.9878 172.095 96.0266 169.245C98.3816 165.953 101.941 164.525 104.955 164.388L105.562 177.782ZM107.456 174.556L120.85 173.949C120.721 171.111 119.96 166.924 116.803 163.313C113.285 159.288 108.558 157.97 104.672 158.147L105.279 171.541L105.886 184.934C103.018 185.065 99.3256 184.063 96.6139 180.961C94.2642 178.273 94.0824 175.616 94.0619 175.163L107.456 174.556ZM108.229 192.779L116.688 182.377C116.682 182.372 116.677 182.368 116.671 182.363L108.229 192.779ZM111.568 195.495L103.109 205.897C108.303 210.121 115.817 209.866 120.713 205.3L111.568 195.495ZM107.755 191.681L97.9496 200.826C103 206.241 111.484 206.537 116.899 201.486L107.755 191.681ZM105.011 188.74L95.8666 178.935C90.4514 183.985 90.1557 192.469 95.2062 197.884L105.011 188.74ZM113.769 199.309L122.914 209.114L113.769 199.309ZM110.984 201.906L101.84 192.101C99.239 194.527 97.7085 197.886 97.5847 201.439C97.4608 204.993 98.7537 208.451 101.179 211.051L110.984 201.906ZM112.319 203.338L121.464 213.143C124.064 210.718 125.595 207.359 125.719 203.805C125.843 200.251 124.55 196.794 122.124 194.193L112.319 203.338ZM109.574 205.898L99.7687 215.043C102.194 217.644 105.553 219.174 109.107 219.298C112.661 219.422 116.118 218.129 118.719 215.704L109.574 205.898ZM107.643 200.879L116.787 210.684L107.643 200.879ZM107.839 200.696L103.169 188.128C101.51 188.745 99.9888 189.684 98.6943 190.891L107.839 200.696ZM109.473 200.089L114.143 212.657C118.345 211.096 121.489 207.538 122.521 203.175C123.552 198.812 122.335 194.223 119.278 190.945L109.473 200.089ZM108.741 199.305L118.546 190.16C114.273 185.578 107.397 184.567 101.985 187.724L108.741 199.305ZM105.192 196.089L95.3864 205.233V205.233L105.192 196.089ZM109.803 197.141L118.948 206.946C121.785 204.3 123.337 200.556 123.203 196.679C123.069 192.802 121.263 189.173 118.251 186.729L109.803 197.141ZM107.091 194.94L115.538 184.528C115.517 184.511 115.495 184.494 115.474 184.477L107.091 194.94ZM101.416 191.726L110.561 201.531C110.023 202.033 108.992 202.845 107.432 203.426C105.781 204.04 104.079 204.192 102.549 203.992C99.9441 203.654 98.8542 202.44 99.7862 203.195L108.229 192.779L116.671 182.363C114.448 180.561 110.805 178.025 106.009 177.401C100.1 176.632 95.3579 179.042 92.2716 181.921L101.416 191.726ZM108.229 192.779L99.7695 203.182L103.109 205.897L111.568 195.495L120.027 185.093L116.688 182.377L108.229 192.779ZM111.568 195.495L120.713 205.3C124.059 202.179 126.125 197.407 125.323 192.117C124.664 187.774 122.312 184.762 120.82 183.163L111.015 192.307L101.21 201.452C100.981 201.206 99.3069 199.412 98.8103 196.138C98.537 194.335 98.6625 192.277 99.4234 190.219C100.171 188.2 101.335 186.705 102.423 185.69L111.568 195.495ZM111.015 192.307L120.82 183.163C119.129 181.349 116.141 178.856 111.767 178.032C106.711 177.08 101.943 178.767 98.61 181.876L107.755 191.681L116.899 201.486C114.468 203.754 110.745 205.127 106.802 204.384C103.54 203.769 101.731 202.011 101.21 201.452L111.015 192.307ZM107.755 191.681L117.56 182.537L114.816 179.595L105.011 188.74L95.2062 197.884L97.9496 200.826L107.755 191.681ZM105.011 188.74L114.156 198.545C113.359 199.288 112.253 199.987 110.877 200.397C109.513 200.804 108.206 200.832 107.109 200.653C105.017 200.313 103.988 199.319 103.759 199.074L113.565 189.93L123.37 180.785C120.563 177.775 116.512 175.016 111.416 174.186C105.913 173.291 100.223 174.872 95.8666 178.935L105.011 188.74ZM113.565 189.93L103.759 199.074C103.726 199.038 102.68 197.943 102.483 195.656C102.376 194.425 102.554 193.098 103.065 191.854C103.564 190.638 104.225 189.876 104.624 189.504L113.769 199.309L122.914 209.114C127.22 205.098 129.731 199.517 129.199 193.35C128.721 187.814 125.945 183.547 123.37 180.785L113.565 189.93ZM113.769 199.309L104.624 189.504L101.84 192.101L110.984 201.906L120.129 211.711L122.914 209.114L113.769 199.309ZM110.984 201.906L101.179 211.051L102.514 212.483L112.319 203.338L122.124 194.193L120.789 192.762L110.984 201.906ZM112.319 203.338L103.175 193.533L100.429 196.093L109.574 205.898L118.719 215.704L121.464 213.143L112.319 203.338ZM109.574 205.898L119.379 196.754L117.349 194.577L107.544 203.722L97.7386 212.866L99.7687 215.043L109.574 205.898ZM107.544 203.722L117.349 194.577C118.593 195.911 120.451 198.716 120.311 202.744C120.17 206.771 118.122 209.44 116.787 210.684L107.643 200.879L98.4982 191.074C96.2227 193.196 93.6856 196.816 93.5116 201.81C93.3375 206.803 95.6164 210.591 97.7386 212.866L107.544 203.722ZM107.643 200.879L116.787 210.684L116.984 210.501L107.839 200.696L98.6943 190.891L98.4982 191.074L107.643 200.879ZM107.839 200.696L112.509 213.264L114.143 212.657L109.473 200.089L104.803 187.521L103.169 188.128L107.839 200.696ZM109.473 200.089L119.278 190.945L118.546 190.16L108.741 199.305L98.9361 208.449L99.6676 209.234L109.473 200.089ZM108.741 199.305L101.985 187.724C102.311 187.534 104.137 186.529 106.879 186.807C109.82 187.104 111.419 188.612 111.684 188.896L101.879 198.041L92.074 207.186C94.9177 210.235 98.9509 212.957 104.179 213.486C109.209 213.995 113.177 212.24 115.497 210.886L108.741 199.305ZM101.879 198.041L111.684 188.896C112.205 189.455 113.919 191.81 113.519 195.521C113.178 198.693 111.503 200.652 110.561 201.531L101.416 191.726L92.2716 181.921C90.3095 183.751 87.4308 187.328 86.8579 192.651C86.2269 198.511 88.6818 203.549 92.074 207.186L101.879 198.041ZM104.931 194.315L95.7862 184.51C91.5772 188.435 90.5548 193.866 91.6246 198.328C92.4625 201.823 94.377 204.151 95.3864 205.233L105.192 196.089L114.997 186.944C115.512 187.497 117.012 189.203 117.701 192.076C118.086 193.683 118.255 195.854 117.599 198.265C116.924 200.743 115.581 202.716 114.075 204.12L104.931 194.315ZM105.192 196.089L95.3864 205.233C97.3095 207.295 100.352 209.74 104.559 210.735C109.354 211.869 114.795 210.819 118.948 206.946L109.803 197.141L100.659 187.336C101.934 186.146 103.614 185.164 105.598 184.677C107.548 184.198 109.331 184.308 110.731 184.639C113.338 185.256 114.683 186.608 114.997 186.944L105.192 196.089ZM109.803 197.141L118.251 186.729L115.538 184.528L107.091 194.94L98.6436 205.352L101.356 207.553L109.803 197.141ZM107.091 194.94L115.474 184.477C115.274 184.317 113.151 182.487 110.316 181.484C108.51 180.845 105.853 180.308 102.754 180.924C99.6275 181.545 97.312 183.087 95.7862 184.51L104.931 194.315L114.075 204.12C112.834 205.278 110.804 206.664 107.977 207.225C105.178 207.781 102.835 207.282 101.371 206.764C100.034 206.291 99.1576 205.708 98.9271 205.554C98.6528 205.369 98.5259 205.258 98.708 205.404L107.091 194.94ZM140.44 215.697L139.029 229.03C142.565 229.404 146.105 228.358 148.87 226.122C151.635 223.886 153.399 220.643 153.773 217.107L140.44 215.697ZM136.173 215.245L122.84 213.834C122.061 221.198 127.398 227.799 134.762 228.578L136.173 215.245ZM135.231 205.034L133.82 218.367L135.231 205.034ZM131.819 210.012L145.152 211.422L131.819 210.012ZM131.32 214.732L129.909 228.065C137.273 228.844 143.874 223.506 144.653 216.142L131.32 214.732ZM127.053 214.28L113.72 212.869C112.941 220.233 118.279 226.834 125.642 227.613L127.053 214.28ZM122.2 213.767L120.789 227.1C124.325 227.474 127.865 226.428 130.63 224.192C133.395 221.956 135.159 218.714 135.533 215.177L122.2 213.767ZM117.933 213.315L104.6 211.904C103.821 219.268 109.159 225.869 116.522 226.648L117.933 213.315ZM119.358 199.849L120.769 186.515C117.233 186.141 113.693 187.187 110.928 189.423C108.162 191.659 106.399 194.902 106.025 198.438L119.358 199.849ZM123.625 200.3L136.958 201.711C137.737 194.347 132.399 187.746 125.035 186.967L123.625 200.3ZM123.481 201.66L135.684 207.215C136.281 205.903 136.662 204.504 136.814 203.071L123.481 201.66ZM122.427 203.975L110.224 198.421C108.438 202.343 108.647 206.885 110.785 210.627C112.924 214.369 116.73 216.855 121.016 217.309L122.427 203.975ZM123.493 204.088L122.083 217.421C128.332 218.083 134.202 214.315 136.203 208.358L123.493 204.088ZM131.867 204.974L118.486 205.824C118.9 212.346 123.957 217.62 130.456 218.307L131.867 204.974ZM132.64 205.056L131.229 218.389C137.479 219.05 143.349 215.283 145.35 209.326L132.64 205.056ZM137.413 201.489L136.002 214.822C134.8 214.695 133.114 214.221 131.466 212.985C129.836 211.764 128.903 210.294 128.419 209.17C127.628 207.335 127.951 206.307 127.848 207.272L141.182 208.683L154.515 210.094C154.797 207.433 154.955 202.99 153.044 198.556C150.637 192.972 145.536 188.866 138.824 188.156L137.413 201.489ZM141.182 208.683L127.848 207.272L127.106 214.286L140.44 215.697L153.773 217.107L154.515 210.094L141.182 208.683ZM140.44 215.697L141.85 202.363L137.584 201.912L136.173 215.245L134.762 228.578L139.029 229.03L140.44 215.697ZM136.173 215.245L149.506 216.656L150.217 209.936L136.884 208.525L123.551 207.114L122.84 213.834L136.173 215.245ZM136.884 208.525L150.217 209.936C150.319 208.973 150.93 204.527 148.88 200.172C145.684 193.381 139.327 191.984 136.642 191.7L135.231 205.034L133.82 218.367C133.363 218.318 131.731 218.12 129.813 217.083C127.542 215.854 125.71 213.912 124.618 211.591C123.693 209.627 123.588 208 123.567 207.52C123.543 206.983 123.589 206.752 123.551 207.114L136.884 208.525ZM135.231 205.034L136.642 191.7C134.084 191.43 130.925 191.68 127.768 193.26C124.609 194.841 122.55 197.203 121.28 199.324C119.118 202.935 118.669 206.871 118.486 208.601L131.819 210.012L145.152 211.422C145.206 210.919 145.239 210.829 145.201 210.986C145.175 211.094 144.968 211.962 144.288 213.097C143.538 214.349 142.123 216.062 139.767 217.241C137.414 218.418 135.218 218.515 133.82 218.367L135.231 205.034ZM131.819 210.012L118.486 208.601L117.986 213.321L131.32 214.732L144.653 216.142L145.152 211.422L131.819 210.012ZM131.32 214.732L132.73 201.398L128.464 200.947L127.053 214.28L125.642 227.613L129.909 228.065L131.32 214.732ZM127.053 214.28L140.386 215.691L141.097 208.971L127.764 207.56L114.431 206.149L113.72 212.869L127.053 214.28ZM127.764 207.56L141.097 208.971C141.199 208.008 141.81 203.562 139.76 199.207C136.564 192.416 130.207 191.019 127.522 190.735L126.111 204.069L124.7 217.402C124.243 217.353 122.611 217.155 120.693 216.118C118.422 214.889 116.59 212.947 115.498 210.626C114.573 208.662 114.468 207.035 114.447 206.555C114.423 206.018 114.469 205.787 114.431 206.149L127.764 207.56ZM126.111 204.069L127.522 190.735C124.964 190.465 121.805 190.715 118.648 192.295C115.489 193.876 113.43 196.238 112.161 198.359C109.998 201.97 109.549 205.906 109.366 207.636L122.699 209.047L136.032 210.457C136.086 209.954 136.12 209.864 136.081 210.021C136.055 210.129 135.848 210.997 135.168 212.132C134.418 213.385 133.003 215.097 130.648 216.276C128.294 217.453 126.098 217.55 124.7 217.402L126.111 204.069ZM122.699 209.047L109.366 207.636L108.866 212.356L122.2 213.767L135.533 215.177L136.032 210.457L122.699 209.047ZM122.2 213.767L123.611 200.433L119.344 199.982L117.933 213.315L116.522 226.648L120.789 227.1L122.2 213.767ZM117.933 213.315L131.266 214.726L132.691 201.259L119.358 199.849L106.025 198.438L104.6 211.904L117.933 213.315ZM119.358 199.849L117.947 213.182L122.214 213.633L123.625 200.3L125.035 186.967L120.769 186.515L119.358 199.849ZM123.625 200.3L110.291 198.889L110.147 200.249L123.481 201.66L136.814 203.071L136.958 201.711L123.625 200.3ZM123.481 201.66L111.278 196.105L110.224 198.421L122.427 203.975L134.63 209.53L135.684 207.215L123.481 201.66ZM122.427 203.975L121.016 217.309L122.083 217.421L123.493 204.088L124.904 190.755L123.838 190.642L122.427 203.975ZM123.493 204.088L136.203 208.358C136.18 208.428 135.639 210.116 133.688 211.709C131.317 213.645 128.623 214.042 126.882 213.858L128.293 200.524L129.704 187.191C125.35 186.73 120.649 187.737 116.729 190.938C113.228 193.797 111.594 197.405 110.784 199.819L123.493 204.088ZM128.293 200.524L126.882 213.858C126.032 213.768 124.792 213.49 123.437 212.744C122.043 211.978 120.902 210.921 120.066 209.751C119.269 208.636 118.886 207.615 118.702 206.97C118.522 206.336 118.492 205.912 118.486 205.824L131.867 204.974L145.247 204.124C145.099 201.781 144.522 197.852 141.88 194.157C138.818 189.873 134.283 187.676 129.704 187.191L128.293 200.524ZM131.867 204.974L130.456 218.307L131.229 218.389L132.64 205.056L134.051 191.723L133.277 191.641L131.867 204.974ZM132.64 205.056L145.35 209.326C145.346 209.336 144.82 211.028 142.871 212.635C141.826 213.496 140.569 214.164 139.195 214.538C137.861 214.901 136.738 214.9 136.002 214.822L137.413 201.489L138.824 188.156C134.462 187.694 129.741 188.706 125.812 191.945C122.327 194.819 120.721 198.432 119.93 200.786L132.64 205.056Z" fill="#36692C" mask="url(#path-1-outside-1_483_875)"/>
</svg>
