<svg width="139" height="112" viewBox="0 0 139 112" fill="none" xmlns="http://www.w3.org/2000/svg">
<mask id="path-1-outside-1_483_881" maskUnits="userSpaceOnUse" x="-25.4281" y="-11.459" width="170.27" height="139.041" fill="black">
<rect fill="white" x="-25.4281" y="-11.459" width="170.27" height="139.041"/>
<path d="M32.6168 20.1844C32.8461 24.952 32.1106 28.6385 26.4055 28.9129C20.6736 29.1885 19.5878 25.5897 19.3585 20.8221L19.2387 18.3311L13.614 18.6016L13.4079 14.3161L32.2909 13.408L32.6168 20.1844ZM23.1212 20.9096C23.2436 23.4541 23.5745 24.7536 26.1994 24.6274C28.7975 24.5024 29.0022 23.1771 28.8798 20.6326L28.7471 17.8738L22.9885 18.1508L23.1212 20.9096ZM15.6229 40.0501L24.4209 32.6385C25.5489 31.6883 26.6997 31.8058 27.6294 32.951L33.1838 39.8774L30.3127 42.2961L25.9957 36.9219L18.3872 43.3315L15.6229 40.0501ZM35.6257 53.2639C39.2342 50.2222 43.1751 51.3192 45.923 54.5792C48.6537 57.8187 49.068 61.8884 45.4595 64.9301C41.8305 67.9891 37.8896 66.8921 35.1589 63.6526C32.411 60.3926 31.9966 56.3229 35.6257 53.2639ZM38.3909 56.5444C36.6481 58.0134 36.7159 59.6748 38.0294 61.233C39.3255 62.7708 40.9515 63.1187 42.6943 61.6496C44.4165 60.1979 44.3488 58.5365 43.0526 56.9988C41.7391 55.4406 40.1131 55.0927 38.3909 56.5444ZM55.1786 81.1032L58.7401 84.6053L55.9679 87.1369L51.0503 82.1497C50.0162 81.0968 50.1073 79.9242 51.1963 78.9296L56.9386 73.6856L54.7686 71.3095L57.5407 68.7779L59.7107 71.154L61.5918 69.4361L65.4751 71.7001L62.6039 74.3221L65.6057 77.609L62.8336 80.1406L59.8318 76.8537L55.1786 81.1032ZM65.6264 88.6007C66.6136 83.9856 70.4 82.4372 74.5693 83.329C78.7124 84.2153 81.534 87.1771 80.5468 91.7922C79.554 96.4335 75.7676 97.9819 71.6245 97.0957C67.4552 96.2038 64.6336 93.242 65.6264 88.6007ZM69.8219 89.4981C69.3452 91.727 70.4169 92.9983 72.4098 93.4246C74.3765 93.8452 75.8745 93.1236 76.3513 90.8948C76.8224 88.6921 75.7507 87.4208 73.784 87.0001C71.7911 86.5738 70.2931 87.2954 69.8219 89.4981ZM86.5432 94.1782C84.2401 90.3065 85.6018 86.5636 89.3122 84.3565C92.4926 82.4647 96.4246 82.4658 98.56 85.6886L94.8726 87.882C94.1174 86.9271 92.7064 86.7056 91.2315 87.583C89.48 88.6248 89.175 90.2103 90.2306 91.9848C91.2999 93.7824 92.8386 94.2712 94.5901 93.2293C96.0651 92.3519 96.5439 91.0063 96.0653 89.887L99.7527 87.6936C101.565 91.1082 99.6897 94.564 96.5093 96.4558C92.7989 98.6629 88.8599 98.0731 86.5432 94.1782ZM105.871 83.4199C101.553 81.5136 100.808 77.4913 102.53 73.5909C104.242 69.7151 107.716 67.5557 112.033 69.462C116.375 71.3791 117.12 75.4015 115.409 79.2773C113.687 83.1776 110.212 85.337 105.871 83.4199ZM107.604 79.495C109.689 80.4157 111.152 79.6253 111.975 77.7609C112.787 75.9211 112.386 74.3076 110.301 73.3869C108.24 72.4771 106.777 73.2675 105.965 75.1073C105.142 76.9716 105.543 78.5852 107.604 79.495ZM122.671 61.6976L118.976 61.0326L119.641 57.3378L107.475 55.148L107.063 58.3434L103.368 57.6784L104.1 52.5516C104.314 51.0642 105.253 50.3886 106.73 50.6546L120.401 53.1152L121.066 49.4205L124.761 50.0855L122.671 61.6976Z"/>
</mask>
<path d="M32.6168 20.1844C32.8461 24.952 32.1106 28.6385 26.4055 28.9129C20.6736 29.1885 19.5878 25.5897 19.3585 20.8221L19.2387 18.3311L13.614 18.6016L13.4079 14.3161L32.2909 13.408L32.6168 20.1844ZM23.1212 20.9096C23.2436 23.4541 23.5745 24.7536 26.1994 24.6274C28.7975 24.5024 29.0022 23.1771 28.8798 20.6326L28.7471 17.8738L22.9885 18.1508L23.1212 20.9096ZM15.6229 40.0501L24.4209 32.6385C25.5489 31.6883 26.6997 31.8058 27.6294 32.951L33.1838 39.8774L30.3127 42.2961L25.9957 36.9219L18.3872 43.3315L15.6229 40.0501ZM35.6257 53.2639C39.2342 50.2222 43.1751 51.3192 45.923 54.5792C48.6537 57.8187 49.068 61.8884 45.4595 64.9301C41.8305 67.9891 37.8896 66.8921 35.1589 63.6526C32.411 60.3926 31.9966 56.3229 35.6257 53.2639ZM38.3909 56.5444C36.6481 58.0134 36.7159 59.6748 38.0294 61.233C39.3255 62.7708 40.9515 63.1187 42.6943 61.6496C44.4165 60.1979 44.3488 58.5365 43.0526 56.9988C41.7391 55.4406 40.1131 55.0927 38.3909 56.5444ZM55.1786 81.1032L58.7401 84.6053L55.9679 87.1369L51.0503 82.1497C50.0162 81.0968 50.1073 79.9242 51.1963 78.9296L56.9386 73.6856L54.7686 71.3095L57.5407 68.7779L59.7107 71.154L61.5918 69.4361L65.4751 71.7001L62.6039 74.3221L65.6057 77.609L62.8336 80.1406L59.8318 76.8537L55.1786 81.1032ZM65.6264 88.6007C66.6136 83.9856 70.4 82.4372 74.5693 83.329C78.7124 84.2153 81.534 87.1771 80.5468 91.7922C79.554 96.4335 75.7676 97.9819 71.6245 97.0957C67.4552 96.2038 64.6336 93.242 65.6264 88.6007ZM69.8219 89.4981C69.3452 91.727 70.4169 92.9983 72.4098 93.4246C74.3765 93.8452 75.8745 93.1236 76.3513 90.8948C76.8224 88.6921 75.7507 87.4208 73.784 87.0001C71.7911 86.5738 70.2931 87.2954 69.8219 89.4981ZM86.5432 94.1782C84.2401 90.3065 85.6018 86.5636 89.3122 84.3565C92.4926 82.4647 96.4246 82.4658 98.56 85.6886L94.8726 87.882C94.1174 86.9271 92.7064 86.7056 91.2315 87.583C89.48 88.6248 89.175 90.2103 90.2306 91.9848C91.2999 93.7824 92.8386 94.2712 94.5901 93.2293C96.0651 92.3519 96.5439 91.0063 96.0653 89.887L99.7527 87.6936C101.565 91.1082 99.6897 94.564 96.5093 96.4558C92.7989 98.6629 88.8599 98.0731 86.5432 94.1782ZM105.871 83.4199C101.553 81.5136 100.808 77.4913 102.53 73.5909C104.242 69.7151 107.716 67.5557 112.033 69.462C116.375 71.3791 117.12 75.4015 115.409 79.2773C113.687 83.1776 110.212 85.337 105.871 83.4199ZM107.604 79.495C109.689 80.4157 111.152 79.6253 111.975 77.7609C112.787 75.9211 112.386 74.3076 110.301 73.3869C108.24 72.4771 106.777 73.2675 105.965 75.1073C105.142 76.9716 105.543 78.5852 107.604 79.495ZM122.671 61.6976L118.976 61.0326L119.641 57.3378L107.475 55.148L107.063 58.3434L103.368 57.6784L104.1 52.5516C104.314 51.0642 105.253 50.3886 106.73 50.6546L120.401 53.1152L121.066 49.4205L124.761 50.0855L122.671 61.6976Z" fill="#A1C4FF"/>
<path d="M32.6168 20.1844L46.0089 19.5403L32.6168 20.1844ZM19.2387 18.3311L32.6309 17.687C32.4601 14.1352 30.8853 10.7967 28.253 8.40596C25.6207 6.01523 22.1464 4.76809 18.5946 4.93891L19.2387 18.3311ZM13.614 18.6016L0.221788 19.2457C0.577497 26.642 6.86175 32.3495 14.2581 31.9938L13.614 18.6016ZM13.4079 14.3161L12.7638 0.923929C9.21196 1.09475 5.87346 2.66953 3.48272 5.30184C1.09199 7.93415 -0.15514 11.4084 0.0156771 14.9602L13.4079 14.3161ZM32.2909 13.408L45.683 12.7639C45.3273 5.36758 39.0431 -0.339941 31.6468 0.0157751L32.2909 13.408ZM28.7471 17.8738L42.1393 17.2297C41.9685 13.6779 40.3937 10.3394 37.7614 7.94866C35.1291 5.55793 31.6549 4.3108 28.1031 4.48162L28.7471 17.8738ZM22.9885 18.1508L22.3444 4.75857C14.9481 5.11429 9.2406 11.3985 9.59631 18.7948L22.9885 18.1508ZM32.6168 20.1844L19.2246 20.8285C19.2651 21.672 19.2309 21.9405 19.2384 21.8797C19.2457 21.8206 19.354 20.9054 20.036 19.6866C20.8189 18.2874 22.0513 17.0422 23.5488 16.2505C24.8812 15.5462 25.8218 15.5178 25.7614 15.5207L26.4055 28.9129L27.0496 42.3051C33.048 42.0166 39.6734 39.5068 43.4371 32.7806C46.3275 27.6148 46.1294 22.0442 46.0089 19.5403L32.6168 20.1844ZM26.4055 28.9129L25.7614 15.5207C25.6868 15.5243 26.6135 15.4604 27.9982 16.0273C29.557 16.6654 30.9056 17.7806 31.8246 19.1015C32.6254 20.2525 32.8231 21.1581 32.837 21.2204C32.8511 21.2834 32.7913 21.022 32.7507 20.178L19.3585 20.822L5.9663 21.4661C6.08661 23.9678 6.4232 29.5443 9.81251 34.4159C14.219 40.7496 21.0638 42.593 27.0496 42.3051L26.4055 28.9129ZM19.3585 20.822L32.7507 20.178L32.6309 17.687L19.2387 18.3311L5.8465 18.9752L5.9663 21.4661L19.3585 20.822ZM19.2387 18.3311L18.5946 4.93891L12.9699 5.20943L13.614 18.6016L14.2581 31.9938L19.8828 31.7233L19.2387 18.3311ZM13.614 18.6016L27.0062 17.9575L26.8001 13.672L13.4079 14.3161L0.0156771 14.9602L0.221788 19.2457L13.614 18.6016ZM13.4079 14.3161L14.0519 27.7083L32.9349 26.8002L32.2909 13.408L31.6468 0.0157751L12.7638 0.923929L13.4079 14.3161ZM32.2909 13.408L18.8987 14.052L19.2246 20.8285L32.6168 20.1844L46.0089 19.5403L45.683 12.7639L32.2909 13.408ZM23.1212 20.9096L9.729 21.5536C9.7649 22.3001 9.83891 23.6197 10.1051 25.0442C10.3688 26.4559 10.9724 28.8629 12.632 31.3053C16.9084 37.5989 23.565 38.1772 26.8435 38.0196L26.1994 24.6274L25.5553 11.2352C25.8718 11.22 27.2891 11.1696 29.1446 11.8334C31.3287 12.6148 33.3759 14.1216 34.8117 16.2347C36.0451 18.05 36.379 19.6628 36.4643 20.1192C36.5519 20.5883 36.5387 20.7912 36.5134 20.2655L23.1212 20.9096ZM26.1994 24.6274L26.8435 38.0196C30.162 37.86 36.7206 36.6139 40.3458 29.9291C41.7452 27.3487 42.1091 24.9085 42.2341 23.4876C42.3604 22.0512 42.308 20.7365 42.272 19.9885L28.8798 20.6326L15.4876 21.2767C15.5128 21.8009 15.4807 21.6061 15.5219 21.1378C15.5617 20.6849 15.735 19.061 16.7737 17.1456C17.9848 14.9124 19.8672 13.1995 21.9833 12.1953C23.7835 11.3411 25.2199 11.2513 25.5553 11.2352L26.1994 24.6274ZM28.8798 20.6326L42.272 19.9885L42.1393 17.2297L28.7471 17.8738L15.355 18.5179L15.4876 21.2767L28.8798 20.6326ZM28.7471 17.8738L28.1031 4.48162L22.3444 4.75857L22.9885 18.1508L23.6326 31.5429L29.3912 31.266L28.7471 17.8738ZM22.9885 18.1508L9.59631 18.7948L9.729 21.5536L23.1212 20.9096L36.5134 20.2655L36.3807 17.5067L22.9885 18.1508ZM15.6229 40.0501L6.98467 29.7961C4.26512 32.0871 2.56706 35.3646 2.26403 38.9076C1.96101 42.4506 3.07784 45.9689 5.36885 48.6884L15.6229 40.0501ZM27.6294 32.951L38.0892 24.563C38.0725 24.5422 38.0557 24.5213 38.0388 24.5006L27.6294 32.951ZM33.1839 39.8774L41.8221 50.1315C47.3888 45.442 48.1972 37.1678 43.6436 31.4894L33.1839 39.8774ZM30.3127 42.2961L19.8598 50.6927C22.1207 53.5073 25.4211 55.2912 29.0143 55.6408C32.6075 55.9904 36.1899 54.8762 38.951 52.5502L30.3127 42.2961ZM25.9957 36.9219L36.4486 28.5253C34.1877 25.7107 30.8873 23.9268 27.2941 23.5772C23.7009 23.2276 20.1185 24.3418 17.3574 26.6678L25.9957 36.9219ZM18.3872 43.3315L8.13309 51.9697C10.4241 54.6893 13.7016 56.3873 17.2446 56.6903C20.7876 56.9934 24.3059 55.8765 27.0254 53.5855L18.3872 43.3315ZM15.6229 40.0501L24.2612 50.3042L33.0592 42.8926L24.4209 32.6385L15.7827 22.3844L6.98467 29.7961L15.6229 40.0501ZM24.4209 32.6385L33.0592 42.8926C31.7396 44.0042 28.843 45.7523 24.7836 45.3519C20.7477 44.9539 18.2728 42.6983 17.22 41.4014L27.6294 32.951L38.0388 24.5006C36.0563 22.0584 32.5411 19.1716 27.4154 18.666C22.2662 18.1582 18.2302 20.3226 15.7827 22.3844L24.4209 32.6385ZM27.6294 32.951L17.1696 41.339L22.724 48.2654L33.1839 39.8774L43.6436 31.4894L38.0892 24.563L27.6294 32.951ZM33.1839 39.8774L24.5456 29.6233L21.6744 32.042L30.3127 42.2961L38.951 52.5502L41.8221 50.1315L33.1839 39.8774ZM30.3127 42.2961L40.7656 33.8995L36.4486 28.5253L25.9957 36.9219L15.5428 45.3184L19.8598 50.6927L30.3127 42.2961ZM25.9957 36.9219L17.3574 26.6678L9.74891 33.0774L18.3872 43.3315L27.0254 53.5855L34.6339 47.1759L25.9957 36.9219ZM18.3872 43.3315L28.6412 34.6932L25.877 31.4119L15.6229 40.0501L5.36885 48.6884L8.13309 51.9697L18.3872 43.3315ZM45.923 54.5792L56.1745 45.9379L45.923 54.5792ZM38.0294 61.233L48.2808 52.5917L48.2808 52.5917L38.0294 61.233ZM35.6257 53.2639L44.267 63.5154C43.9358 63.7946 43.2518 64.2637 42.1976 64.5776C41.1197 64.8987 39.9598 64.9645 38.8573 64.7777C36.7189 64.4154 35.7586 63.3238 35.6715 63.2205L45.923 54.5792L56.1745 45.9379C53.3395 42.5746 49.0347 39.3046 43.3368 38.3392C37.2308 37.3046 31.4448 39.2526 26.9844 43.0124L35.6257 53.2639ZM45.923 54.5792L35.6715 63.2205C35.5642 63.0932 34.6535 61.9505 34.6608 59.7831C34.6647 58.6668 34.9263 57.5382 35.4237 56.5339C35.9105 55.5513 36.4868 54.9579 36.8182 54.6786L45.4595 64.9301L54.1008 75.1816C58.5602 71.4227 61.455 66.0555 61.476 59.8745C61.4957 54.102 59.0125 49.3047 56.1745 45.9379L45.923 54.5792ZM45.4595 64.9301L36.8182 54.6786C37.1367 54.4101 37.808 53.947 38.8507 53.6343C39.9176 53.3142 41.0727 53.244 42.1775 53.4282C44.3248 53.7863 45.303 54.8838 45.4104 55.0113L35.1589 63.6526L24.9074 72.2939C27.7455 75.6608 32.0595 78.9267 37.7672 79.8784C43.8752 80.8968 49.6497 78.9336 54.1008 75.1816L45.4595 64.9301ZM35.1589 63.6526L45.4104 55.0113C45.4976 55.1147 46.4164 56.2531 46.4085 58.4315C46.4045 59.5534 46.1402 60.6833 45.6429 61.6844C45.1571 62.6624 44.5854 63.247 44.267 63.5154L35.6257 53.2639L26.9844 43.0124C22.5322 46.7653 19.6158 52.1299 19.5934 58.3343C19.5724 64.1273 22.0723 68.9305 24.9074 72.2939L35.1589 63.6526ZM38.3909 56.5444L29.7496 46.2929C26.9 48.6949 23.9269 52.6982 23.6707 58.2356C23.4261 63.5212 25.7951 67.5221 27.7778 69.8744L38.0294 61.233L48.2808 52.5917C48.9502 53.3858 50.6285 55.7768 50.4574 59.475C50.2746 63.4248 48.1391 65.8629 47.0322 66.7959L38.3909 56.5444ZM38.0294 61.233L27.7778 69.8744C29.7784 72.2477 33.3325 75.2413 38.5769 75.8786C44.0537 76.5442 48.4866 74.3026 51.3356 71.9011L42.6943 61.6496L34.053 51.3981C35.1592 50.4657 37.9077 48.7847 41.8118 49.2591C45.4835 49.7053 47.5765 51.7561 48.2808 52.5917L38.0294 61.233ZM42.6943 61.6496L51.3356 71.9011C54.2089 69.4791 57.1456 65.4731 57.3988 59.973C57.6405 54.7234 55.3044 50.7306 53.3041 48.3575L43.0526 56.9988L32.8011 65.6401C32.0969 64.8047 30.4428 62.4115 30.6119 58.7399C30.7924 54.8179 32.9019 52.3684 34.053 51.3981L42.6943 61.6496ZM43.0526 56.9988L53.3041 48.3575C51.3214 46.0053 47.7932 43.0092 42.5721 42.343C37.0846 41.6428 32.6237 43.8702 29.7496 46.2929L38.3909 56.5444L47.0322 66.7959C45.8803 67.7668 43.0935 69.4423 39.178 68.9427C35.5288 68.4771 33.4703 66.4341 32.8011 65.6401L43.0526 56.9988ZM55.1786 81.1032L46.1372 71.2028C43.4192 73.685 41.8412 77.1754 41.7733 80.8557C41.7053 84.5359 43.1534 88.0823 45.7779 90.6631L55.1786 81.1032ZM58.7401 84.6053L67.7815 94.5057C70.4995 92.0235 72.0775 88.5331 72.1454 84.8528C72.2134 81.1726 70.7653 77.6262 68.1408 75.0454L58.7401 84.6053ZM55.9679 87.1369L46.421 96.5508C51.4799 101.681 59.689 101.896 65.0094 97.0373L55.9679 87.1369ZM51.0503 82.1497L41.485 91.545C41.4911 91.5512 41.4972 91.5574 41.5033 91.5636L51.0503 82.1497ZM51.1963 78.9296L60.2378 88.83L51.1963 78.9296ZM56.9386 73.6856L65.98 83.586C71.4478 78.5925 71.8324 70.112 66.839 64.6441L56.9386 73.6856ZM54.7686 71.3095L45.7272 61.4091C40.2594 66.4025 39.8748 74.8831 44.8682 80.3509L54.7686 71.3095ZM57.5407 68.7779L67.4411 59.7364C65.0432 57.1107 61.7004 55.5451 58.1481 55.384C54.5958 55.2229 51.1251 56.4795 48.4993 58.8775L57.5407 68.7779ZM59.7107 71.154L49.8103 80.1954C54.8037 85.6632 63.2843 86.0478 68.7521 81.0544L59.7107 71.154ZM61.5918 69.4361L68.3447 57.8532C63.2785 54.8996 56.8806 55.5811 52.5503 59.5357L61.5918 69.4361ZM65.4751 71.7001L74.5165 81.6005C77.666 78.7242 79.2591 74.5211 78.8073 70.2799C78.3555 66.0386 75.9127 62.2654 72.228 60.1172L65.4751 71.7001ZM62.6039 74.3221L53.5625 64.4217C50.9368 66.8196 49.3711 70.1624 49.21 73.7147C49.049 77.267 50.3056 80.7378 52.7035 83.3635L62.6039 74.3221ZM65.6057 77.609L74.6471 87.5094C80.115 82.516 80.4996 74.0354 75.5061 68.5676L65.6057 77.609ZM62.8336 80.1406L52.9332 89.1821C55.3311 91.8078 58.6739 93.3735 62.2262 93.5345C65.7785 93.6956 69.2493 92.439 71.875 90.041L62.8336 80.1406ZM59.8318 76.8537L69.7322 67.8123C67.3343 65.1865 63.9915 63.6209 60.4392 63.4598C56.8869 63.2987 53.4162 64.5554 50.7904 66.9533L59.8318 76.8537ZM55.1786 81.1032L45.7779 90.6631L49.3393 94.1652L58.7401 84.6053L68.1408 75.0454L64.5794 71.5433L55.1786 81.1032ZM58.7401 84.6053L49.6986 74.7049L46.9265 77.2365L55.9679 87.1369L65.0094 97.0373L67.7815 94.5057L58.7401 84.6053ZM55.9679 87.1369L65.5149 77.723L60.5973 72.7359L51.0503 82.1497L41.5033 91.5636L46.421 96.5508L55.9679 87.1369ZM51.0503 82.1497L60.6156 72.7545C61.9872 74.1508 63.9399 77.0798 63.7153 81.2406C63.4994 85.2395 61.4056 87.7635 60.2378 88.83L51.1963 78.9296L42.1549 69.0292C39.898 71.0903 37.2141 74.6979 36.939 79.795C36.655 85.054 39.0793 89.0957 41.485 91.545L51.0503 82.1497ZM51.1963 78.9296L60.2378 88.83L65.98 83.586L56.9386 73.6856L47.8971 63.7852L42.1549 69.0292L51.1963 78.9296ZM56.9386 73.6856L66.839 64.6441L64.669 62.268L54.7686 71.3095L44.8682 80.3509L47.0382 82.727L56.9386 73.6856ZM54.7686 71.3095L63.8101 81.2099L66.5822 78.6783L57.5407 68.7779L48.4993 58.8775L45.7272 61.4091L54.7686 71.3095ZM57.5407 68.7779L47.6403 77.8193L49.8103 80.1954L59.7107 71.154L69.6111 62.1125L67.4411 59.7364L57.5407 68.7779ZM59.7107 71.154L68.7521 81.0544L70.6332 79.3365L61.5918 69.4361L52.5503 59.5357L50.6693 61.2536L59.7107 71.154ZM61.5918 69.4361L54.8389 81.019L58.7222 83.283L65.4751 71.7001L72.228 60.1172L68.3447 57.8532L61.5918 69.4361ZM65.4751 71.7001L56.4336 61.7997L53.5625 64.4217L62.6039 74.3221L71.6454 84.2225L74.5165 81.6005L65.4751 71.7001ZM62.6039 74.3221L52.7035 83.3635L55.7053 86.6505L65.6057 77.609L75.5061 68.5676L72.5044 65.2807L62.6039 74.3221ZM65.6057 77.609L56.5643 67.7086L53.7922 70.2402L62.8336 80.1406L71.875 90.041L74.6471 87.5094L65.6057 77.609ZM62.8336 80.1406L72.734 71.0992L69.7322 67.8123L59.8318 76.8537L49.9314 85.8951L52.9332 89.1821L62.8336 80.1406ZM59.8318 76.8537L50.7904 66.9533L46.1372 71.2028L55.1786 81.1032L64.2201 91.0036L68.8733 86.7541L59.8318 76.8537ZM69.8219 89.4981L82.933 92.3026L69.8219 89.4981ZM72.4098 93.4246L69.6053 106.536L72.4098 93.4246ZM76.3513 90.8948L89.4623 93.6993L76.3513 90.8948ZM73.784 87.0001L70.9795 100.111L73.784 87.0001ZM65.6264 88.6007L78.7375 91.4052C78.6469 91.8288 78.3939 92.6186 77.7533 93.5128C77.0983 94.4271 76.2221 95.19 75.2365 95.718C73.3247 96.7423 71.8969 96.4684 71.7648 96.4401L74.5693 83.329L77.3738 70.218C73.0723 69.2979 67.6667 69.3522 62.5726 72.0814C57.1137 75.0062 53.7356 80.0916 52.5153 85.7961L65.6264 88.6007ZM74.5693 83.329L71.7648 96.4401C71.602 96.4053 70.182 96.0605 68.8595 94.3433C68.1783 93.4589 67.6933 92.4067 67.4709 91.3083C67.2533 90.2335 67.3451 89.4114 67.4357 88.9877L80.5468 91.7922L93.6579 94.5967C94.8778 88.8935 93.8758 82.8782 90.1043 77.9813C86.5821 73.4078 81.6797 71.139 77.3738 70.218L74.5693 83.329ZM80.5468 91.7922L67.4357 88.9877C67.5229 88.5803 67.7695 87.8029 68.4018 86.9167C69.0487 86.01 69.9183 85.2466 70.9042 84.7151C72.8204 83.682 74.266 83.9497 74.4291 83.9846L71.6245 97.0957L68.82 110.207C73.1261 111.128 78.5365 111.065 83.6299 108.318C89.0805 105.38 92.4402 100.289 93.6579 94.5967L80.5468 91.7922ZM71.6245 97.0957L74.4291 83.9846C74.5613 84.0129 75.985 84.3493 77.3139 86.0755C77.9982 86.9645 78.482 88.0192 78.7025 89.1151C78.918 90.1856 78.8246 90.9979 78.7375 91.4052L65.6264 88.6007L52.5153 85.7961C51.2973 91.4902 52.2807 97.5166 56.0655 102.433C59.5993 107.023 64.5184 109.287 68.82 110.207L71.6245 97.0957ZM69.8219 89.4981L56.7109 86.6936C55.9313 90.3381 56.0356 95.3235 59.2268 99.8561C62.273 104.183 66.5969 105.892 69.6053 106.536L72.4098 93.4246L75.2143 80.3135C76.2298 80.5307 79.0214 81.3915 81.1527 84.4186C83.4291 87.6516 83.2358 90.887 82.933 92.3026L69.8219 89.4981ZM72.4098 93.4246L69.6053 106.536C72.6406 107.185 77.2837 107.372 81.8183 104.662C86.5539 101.831 88.6829 97.3429 89.4623 93.6993L76.3513 90.8948L63.2402 88.0902C63.5428 86.6755 64.6844 83.6626 68.0602 81.6448C71.2349 79.7472 74.1456 80.0849 75.2143 80.3135L72.4098 93.4246ZM76.3513 90.8948L89.4623 93.6993C90.2484 90.0244 90.1137 85.0591 86.943 80.5579C83.9166 76.2616 79.6236 74.5383 76.5885 73.8891L73.784 87.0001L70.9795 100.111C69.9111 99.8827 67.1373 99.0053 65.0207 96.0005C62.7596 92.7908 62.9253 89.5624 63.2402 88.0902L76.3513 90.8948ZM73.784 87.0001L76.5885 73.8891C73.5802 73.2456 68.9561 73.0404 64.4222 75.7139C59.657 78.5237 57.4971 83.0177 56.7109 86.6936L69.8219 89.4981L82.933 92.3026C82.6179 93.7758 81.4427 96.8077 78.0425 98.8126C74.8735 100.681 71.9949 100.328 70.9795 100.111L73.784 87.0001ZM98.56 85.6885L105.414 97.2117C108.568 95.3361 110.814 92.2502 111.631 88.6733C112.448 85.0965 111.763 81.3412 109.737 78.2828L98.56 85.6885ZM94.8726 87.882L84.3564 96.1991C88.525 101.47 95.9515 102.841 101.727 99.4051L94.8726 87.882ZM91.2315 87.583L98.0859 99.1061L91.2315 87.583ZM94.5901 93.2293L101.444 104.752L94.5901 93.2293ZM96.0653 89.887L89.2109 78.3638C83.4355 81.7993 81.0953 88.9795 83.7373 95.1583L96.0653 89.887ZM99.7527 87.6936L111.595 81.4068C109.875 78.1662 106.902 75.7722 103.369 74.7827C99.8356 73.7932 96.0515 74.2948 92.8983 76.1704L99.7527 87.6936ZM86.5432 94.1782L98.0663 87.3239C98.5653 88.1628 99.2313 90.1436 98.4988 92.549C97.8328 94.7358 96.496 95.6837 96.1666 95.8796L89.3122 84.3565L82.4579 72.8333C78.418 75.2364 74.5451 79.1593 72.8465 84.7372C71.0813 90.5338 72.2179 96.3219 75.02 101.033L86.5432 94.1782ZM89.3122 84.3565L96.1666 95.8796C95.8071 96.0935 94.7377 96.6221 92.9786 96.4442C92.0408 96.3493 90.9406 96.0465 89.8511 95.4041C88.744 94.7512 87.9229 93.9088 87.3833 93.0943L98.56 85.6885L109.737 78.2828C106.336 73.1503 101.117 70.3153 95.6774 69.765C90.6233 69.2537 85.9978 70.7276 82.4579 72.8333L89.3122 84.3565ZM98.56 85.6885L91.7056 74.1654L88.0182 76.3588L94.8726 87.882L101.727 99.4051L105.414 97.2117L98.56 85.6885ZM94.8726 87.882L105.389 79.5648C99.343 71.9206 89.9244 72.7601 84.3771 76.0598L91.2315 87.583L98.0859 99.1061C96.8105 99.8647 94.6768 100.664 91.9479 100.382C89.1096 100.09 86.3038 98.6613 84.3564 96.1991L94.8726 87.882ZM91.2315 87.583L84.3771 76.0598C81.2033 77.9477 77.7308 81.3696 76.5786 86.652C75.4693 91.7384 77.0607 96.0708 78.7074 98.8392L90.2306 91.9848L101.754 85.1305C102.345 86.1243 103.561 88.7766 102.778 92.3662C101.952 96.1518 99.5081 98.2601 98.0859 99.1061L91.2315 87.583ZM90.2306 91.9848L78.7074 98.8392C80.34 101.584 83.3718 105.066 88.3745 106.536C93.5871 108.067 98.2692 106.641 101.444 104.752L94.5901 93.2293L87.7357 81.7062C89.1595 80.8593 92.1965 79.7097 95.9345 80.8081C99.4626 81.8448 101.19 84.1835 101.754 85.1305L90.2306 91.9848ZM94.5901 93.2293L101.444 104.752C106.992 101.453 112.225 93.5768 108.393 84.6157L96.0653 89.887L83.7373 95.1583C82.5031 92.2719 82.5869 89.1243 83.6846 86.4907C84.74 83.9585 86.4604 82.4648 87.7357 81.7062L94.5901 93.2293ZM96.0653 89.887L102.92 101.41L106.607 99.2167L99.7527 87.6936L92.8983 76.1704L89.2109 78.3638L96.0653 89.887ZM99.7527 87.6936L87.9103 93.9804C87.4522 93.1174 87.1038 91.9939 87.0585 90.7093C87.014 89.4453 87.273 88.334 87.6373 87.4647C88.3205 85.8339 89.2954 85.1465 89.655 84.9326L96.5093 96.4558L103.364 107.979C106.904 105.873 110.407 102.512 112.37 97.8268C114.482 92.7839 114.482 86.8449 111.595 81.4068L99.7527 87.6936ZM96.5093 96.4558L89.655 84.9326C89.9847 84.7365 91.4636 84.0103 93.7115 84.4739C96.18 84.9829 97.5861 86.5165 98.0663 87.3239L86.5432 94.1782L75.02 101.033C77.817 105.735 82.351 109.511 88.2958 110.737C94.02 111.917 99.3235 110.382 103.364 107.979L96.5093 96.4558ZM102.53 73.5909L114.796 79.0065L102.53 73.5909ZM107.604 79.495L113.019 67.2297L107.604 79.495ZM105.965 75.1073L118.23 80.5229L105.965 75.1073ZM105.871 83.4199L111.286 71.1546C111.682 71.3296 112.404 71.7381 113.149 72.5473C113.911 73.3748 114.479 74.388 114.796 75.4605C115.409 77.5408 114.85 78.8829 114.796 79.0065L102.53 73.5909L90.2652 68.1754C88.4884 72.1994 87.4409 77.5028 89.0756 83.0459C90.8275 88.986 95.1184 93.3289 100.455 95.6852L105.871 83.4199ZM102.53 73.5909L114.796 79.0065C114.728 79.1588 114.102 80.4788 112.151 81.424C111.147 81.9108 110.018 82.1713 108.897 82.1654C107.801 82.1596 107.014 81.9023 106.618 81.7273L112.033 69.462L117.449 57.1967C112.114 54.841 106.02 54.5971 100.458 57.2924C95.2633 59.8096 92.0437 64.1473 90.2652 68.1754L102.53 73.5909ZM112.033 69.462L106.618 81.7273C106.237 81.559 105.526 81.1593 104.787 80.3598C104.031 79.5418 103.461 78.535 103.141 77.4615C102.52 75.3751 103.076 74.0142 103.144 73.8617L115.409 79.2773L127.674 84.6928C129.453 80.6645 130.493 75.3546 128.841 69.8088C127.074 63.874 122.775 59.5481 117.449 57.1967L112.033 69.462ZM115.409 79.2773L103.144 73.8617C103.198 73.738 103.818 72.4126 105.778 71.4631C106.788 70.9741 107.919 70.7153 109.037 70.7225C110.129 70.7295 110.905 70.9864 111.286 71.1546L105.871 83.4199L100.455 95.6852C105.782 98.0371 111.882 98.3015 117.466 95.5972C122.68 93.0722 125.897 88.717 127.674 84.6928L115.409 79.2773ZM107.604 79.495L102.188 91.7603C105.597 93.2657 110.5 94.1788 115.587 91.9774C120.443 89.876 122.997 85.9908 124.24 83.1765L111.975 77.7609L99.7094 72.3454C100.129 71.3954 101.54 68.8375 104.938 67.3673C108.567 65.797 111.695 66.645 113.019 67.2297L107.604 79.495ZM111.975 77.7609L124.24 83.1765C125.494 80.337 126.623 75.8293 124.892 70.8378C123.085 65.625 119.125 62.6266 115.716 61.1216L110.301 73.3869L104.885 85.6522C103.561 85.0678 100.844 83.3366 99.5561 79.6207C98.3446 76.1261 99.268 73.3451 99.7094 72.3454L111.975 77.7609ZM110.301 73.3869L115.716 61.1216C112.278 59.6037 107.39 58.7245 102.337 60.9122C97.5145 63.0004 94.9531 66.8525 93.6994 69.6917L105.965 75.1073L118.23 80.5229C117.789 81.5223 116.365 84.0594 112.992 85.5198C109.389 87.0798 106.262 86.2603 104.885 85.6522L110.301 73.3869ZM105.965 75.1073L93.6994 69.6917C92.4568 72.506 91.3144 76.9914 93.0086 81.9748C94.7892 87.2123 98.7493 90.242 102.188 91.7603L107.604 79.495L113.019 67.2297C114.397 67.8382 117.126 69.6062 118.397 73.3434C119.581 76.8265 118.649 79.573 118.23 80.5229L105.965 75.1073ZM122.671 61.6976L120.296 74.8933C127.583 76.205 134.555 71.3605 135.866 64.0728L122.671 61.6976ZM118.976 61.0326L105.78 58.6575C105.151 62.1572 105.937 65.7638 107.966 68.6838C109.995 71.6039 113.101 73.5983 116.601 74.2282L118.976 61.0326ZM119.641 57.3378L132.837 59.7129C134.148 52.4252 129.304 45.4539 122.016 44.1422L119.641 57.3378ZM107.475 55.148L109.85 41.9523C106.236 41.3018 102.513 42.1621 99.5509 44.3323C96.5887 46.5025 94.6462 49.7927 94.177 53.4348L107.475 55.148ZM107.063 58.3434L104.688 71.539C108.302 72.1895 112.025 71.3293 114.987 69.1591C117.949 66.9888 119.892 63.6986 120.361 60.0566L107.063 58.3434ZM103.368 57.6784L90.0952 55.7831C89.0752 62.9264 93.8915 69.5958 100.993 70.874L103.368 57.6784ZM104.1 52.5516L90.8283 50.649L90.8273 50.6563L104.1 52.5516ZM120.401 53.1152L118.026 66.3108C121.526 66.9408 125.132 66.1546 128.052 64.1254C130.972 62.0962 132.967 58.99 133.597 55.4904L120.401 53.1152ZM121.066 49.4205L123.441 36.2248C116.154 34.9131 109.182 39.7576 107.871 47.0453L121.066 49.4205ZM124.761 50.0855L137.957 52.4606C138.586 48.9609 137.8 45.3543 135.771 42.4342C133.742 39.5142 130.636 37.5198 127.136 36.8899L124.761 50.0855ZM122.671 61.6976L125.046 48.502L121.351 47.837L118.976 61.0326L116.601 74.2282L120.296 74.8933L122.671 61.6976ZM118.976 61.0326L132.172 63.4077L132.837 59.7129L119.641 57.3378L106.445 54.9627L105.78 58.6575L118.976 61.0326ZM119.641 57.3378L122.016 44.1422L109.85 41.9523L107.475 55.148L105.1 68.3436L117.266 70.5334L119.641 57.3378ZM107.475 55.148L94.177 53.4348L93.7653 56.6302L107.063 58.3434L120.361 60.0566L120.772 56.8612L107.475 55.148ZM107.063 58.3434L109.438 45.1478L105.743 44.4828L103.368 57.6784L100.993 70.874L104.688 71.539L107.063 58.3434ZM103.368 57.6784L116.641 59.5737L117.373 54.4469L104.1 52.5516L90.8273 50.6563L90.0952 55.7831L103.368 57.6784ZM104.1 52.5516L117.372 54.4543C117.14 56.0764 116.17 59.3793 112.781 61.8222C109.395 64.2629 105.96 64.1391 104.355 63.8502L106.73 50.6546L109.106 37.459C106.023 36.9041 101.38 36.9851 97.1012 40.0689C92.8197 43.1551 91.2741 47.5394 90.8284 50.649L104.1 52.5516ZM106.73 50.6546L104.355 63.8502L118.026 66.3108L120.401 53.1152L122.776 39.9196L109.106 37.459L106.73 50.6546ZM120.401 53.1152L133.597 55.4904L134.262 51.7956L121.066 49.4205L107.871 47.0453L107.206 50.7401L120.401 53.1152ZM121.066 49.4205L118.691 62.6161L122.386 63.2811L124.761 50.0855L127.136 36.8899L123.441 36.2248L121.066 49.4205ZM124.761 50.0855L111.565 47.7104L109.475 59.3225L122.671 61.6976L135.866 64.0728L137.957 52.4606L124.761 50.0855Z" fill="#000D31" mask="url(#path-1-outside-1_483_881)"/>
</svg>
