<svg width="231" height="115" viewBox="0 0 231 115" fill="none" xmlns="http://www.w3.org/2000/svg">
<mask id="path-1-outside-1_483_874" maskUnits="userSpaceOnUse" x="-17.6815" y="-66.4896" width="259.345" height="233.329" fill="black">
<rect fill="white" x="-17.6815" y="-66.4896" width="259.345" height="233.329"/>
<path d="M19.362 51.1655C16.1225 51.3483 13.772 49.198 13.4441 43.3883C13.0604 36.588 15.7012 33.8875 20.4668 33.6186L20.7085 37.9022C17.817 38.0654 16.9883 39.5625 17.1999 43.3107C17.3555 46.0683 18.0494 46.9423 19.0667 46.8849C20.4322 46.8078 20.918 44.4706 21.6994 41.6601C22.813 37.5955 23.7011 34.2955 27.3957 34.087C30.6084 33.9057 32.519 36.3494 32.7939 41.2221C33.1203 47.005 30.3218 49.7681 26.5736 49.9796L26.3319 45.696C28.6343 45.5661 29.1772 43.7628 29.0457 41.4336C28.937 39.506 28.4406 38.3253 27.4768 38.3797C26.6201 38.4281 26.3245 38.9013 25.4778 41.9841C24.4962 45.531 23.2976 50.9434 19.362 51.1655ZM18.1427 60.2415C19.7913 58.5909 21.7443 58.6086 24.9882 61.0526L28.4218 63.6482C29.1987 62.8703 29.0653 61.7896 27.7562 60.4821C26.5419 59.2693 25.3473 59.0994 24.4756 59.9721L21.6296 57.1297C24.0552 54.7012 27.5444 55.3437 30.2196 58.0156C32.8569 60.6496 33.902 64.2326 30.7563 67.3821L28.0655 70.0763L29.4505 71.4596L26.7976 74.1158L24.6916 72.0124C23.7809 71.1029 23.7802 70.0789 24.6898 69.1682L24.8793 68.9785L26.4906 68.3139L25.7317 67.5559C23.7794 68.7896 21.5043 69.2081 18.8292 66.5362C15.8504 63.5611 17.1573 61.2281 18.1427 60.2415ZM21.7468 62.7043C21.1973 63.2545 21.558 63.9558 22.0703 64.4675C23.7399 66.135 25.5415 66.5321 26.7163 65.3558L23.9277 63.2528C22.8844 62.476 22.2964 62.154 21.7468 62.7043ZM34.8118 81.3361L34.9013 77.583L38.6544 77.6725L38.949 65.3141L35.7282 65.3983L35.8177 61.6452L40.996 61.5809C42.4985 61.5631 43.3104 62.3871 43.2746 63.8884L42.9436 77.7748L46.6967 77.8642L46.6072 81.6173L34.8118 81.3361ZM54.0211 75.3255C51.8462 71.6271 53.0607 67.9265 56.6897 65.7923C60.3187 63.6582 64.1255 64.3126 66.2053 67.8492L66.8849 69.0049L58.032 74.2111C58.8204 75.5517 60.3486 75.9285 62.452 74.6916C63.7464 73.9303 64.4454 72.8971 64.16 71.8828L67.8583 69.7079C68.6195 71.5312 68.2642 75.3177 64.2191 77.6965C59.7349 80.3335 55.9649 78.6309 54.0211 75.3255ZM56.8086 72.1308L62.1943 68.9636C61.6778 68.0852 60.5141 67.5875 58.4568 68.7973C56.3996 70.007 56.2921 71.2524 56.8086 72.1308ZM89.3799 57.2598C90.6536 59.15 90.2562 61.4873 86.3869 64.0948C82.2507 66.882 79.3478 66.413 77.5796 63.789L81.1376 61.3914C81.722 62.2586 82.8319 62.6101 84.6998 61.3513C85.6561 60.707 86.1066 60.08 85.747 59.5463C85.3573 58.9681 84.6298 59.232 82.424 59.8454C79.8691 60.5647 76.9372 61.7321 75.2438 59.2193C73.8952 57.2179 74.9171 54.8477 78.0081 52.7648C81.8107 50.2023 84.6411 51.0435 86.1097 53.2228L82.5517 55.6204C82.0122 54.8199 81.0072 54.6241 79.7841 55.4482C78.9391 56.0177 78.607 56.5325 78.9067 56.9773C79.2664 57.511 80.603 57.0953 82.7716 56.4746C85.4304 55.7176 87.8064 54.9249 89.3799 57.2598ZM107.548 38.202L104.313 35.6983L107.285 31.297C105.601 29.8411 104.287 27.7862 103.453 25.2096C101.643 19.6228 102.8 15.1891 107.341 13.7183C110.811 12.5946 113.099 14.7001 113.835 16.9706C114.364 18.6032 114.022 19.8978 113.393 21.0033L114.414 20.6728L118.321 14.8972L120.082 14.327L124.593 28.2558L121.022 29.4126L118.328 21.0962L112.887 29.708C114.538 30.0189 116.405 29.8652 118.42 29.2124L119.742 33.2941C116.426 34.3682 113.288 34.3416 110.617 33.3182L107.548 38.202ZM107.024 24.0528C107.578 25.762 108.406 27.1004 109.475 28.0508L110.944 25.8839C112.429 23.6833 112.782 22.0751 112.179 20.2128C111.601 18.4271 110.245 17.2877 108.51 17.8496C106.342 18.5519 105.925 20.6599 107.024 24.0528ZM142.64 69.7227L143.313 70.692L140.229 72.8324L139.709 72.0833C139.479 71.7529 139.204 71.3563 138.792 71.1855C138.707 71.44 138.323 71.9679 137.728 72.3806C135.635 73.833 132.953 72.7896 129.792 70.446C131.705 72.8724 132.68 75.6883 130.322 77.3241C127.04 79.6021 123.99 76.0067 118.257 67.7453L121.341 65.605C126.34 72.8089 127.398 74.0983 128.61 73.2575C130.24 72.1261 126.746 68.6432 123.804 65.626L125.527 63.8755C127.549 66.2255 129.403 68.3332 131.295 70.0237L132.176 69.4121C127.893 66.3456 125.507 61.6369 129.164 59.099C132.094 57.0657 135.43 58.8631 137.861 62.3659C139.038 64.0622 139.778 65.8337 139.729 67.5975C141.047 67.6622 141.952 68.7313 142.64 69.7227ZM131.978 66.7752C133.445 68.8901 134.555 69.3603 135.502 68.7029C136.428 68.0608 136.398 66.8414 134.93 64.7265C133.462 62.6116 132.315 62.1347 131.39 62.7768C130.443 63.4342 130.51 64.6603 131.978 66.7752ZM139.401 88.0375L146.705 79.15C147.642 78.0106 148.795 77.9169 149.917 78.8741L156.638 84.6754L154.254 87.5758L149.032 83.0758L142.716 90.7616L139.401 88.0375ZM156.557 94.8158C156.216 90.1086 159.42 87.5648 163.672 87.2573C167.898 86.9517 171.434 89.0082 171.775 93.7154C172.117 98.4493 168.913 100.993 164.688 101.299C160.435 101.606 156.899 99.5497 156.557 94.8158ZM160.836 94.5064C161 96.7797 162.384 97.7013 164.417 97.5543C166.423 97.4093 167.66 96.2982 167.495 94.0248C167.333 91.7782 165.949 90.8566 163.943 91.0017C161.91 91.1486 160.673 92.2597 160.836 94.5064ZM172.5 90.6844L175.181 87.5788L185.759 94.4074L186.46 93.5955L177.705 84.6558L183.557 77.8762L193.679 85.2326L194.38 84.4206L186.098 74.933L188.761 71.8476L197.768 82.1377L191.915 88.9173L181.793 81.561L181.092 82.3729L189.848 91.3125L183.995 98.0922L172.5 90.6844ZM204.608 64.3369L205.701 59.4631L209.315 60.4801L207.677 67.2898C207.329 68.7241 206.285 69.266 204.866 68.8664L197.38 66.7597L196.508 69.8572L192.895 68.8402L193.766 65.7427L191.314 65.0526L191.186 60.5593L194.929 61.6127L196.135 57.3278L199.748 58.3448L198.542 62.6297L204.608 64.3369ZM202.095 35.055C203.023 31.7228 205.806 30.3271 209.836 31.4501L216.888 33.4154L215.736 37.5484L209.33 35.763C206.953 35.1007 205.855 35.5462 205.301 37.5352C204.674 39.7825 205.452 41.586 209.12 42.6082L213.951 43.9544L212.799 48.0874L193.813 42.7961L194.965 38.6632L202.482 40.7581L204.59 42.1809L204.878 41.1477C202.698 39.9832 201.317 37.8447 202.095 35.055Z"/>
</mask>
<path d="M19.362 51.1655C16.1225 51.3483 13.772 49.198 13.4441 43.3883C13.0604 36.588 15.7012 33.8875 20.4668 33.6186L20.7085 37.9022C17.817 38.0654 16.9883 39.5625 17.1999 43.3107C17.3555 46.0683 18.0494 46.9423 19.0667 46.8849C20.4322 46.8078 20.918 44.4706 21.6994 41.6601C22.813 37.5955 23.7011 34.2955 27.3957 34.087C30.6084 33.9057 32.519 36.3494 32.7939 41.2221C33.1203 47.005 30.3218 49.7681 26.5736 49.9796L26.3319 45.696C28.6343 45.5661 29.1772 43.7628 29.0457 41.4336C28.937 39.506 28.4406 38.3253 27.4768 38.3797C26.6201 38.4281 26.3245 38.9013 25.4778 41.9841C24.4962 45.531 23.2976 50.9434 19.362 51.1655ZM18.1427 60.2415C19.7913 58.5909 21.7443 58.6086 24.9882 61.0526L28.4218 63.6482C29.1987 62.8703 29.0653 61.7896 27.7562 60.4821C26.5419 59.2693 25.3473 59.0994 24.4756 59.9721L21.6296 57.1297C24.0552 54.7012 27.5444 55.3437 30.2196 58.0156C32.8569 60.6496 33.902 64.2326 30.7563 67.3821L28.0655 70.0763L29.4505 71.4596L26.7976 74.1158L24.6916 72.0124C23.7809 71.1029 23.7802 70.0789 24.6898 69.1682L24.8793 68.9785L26.4906 68.3139L25.7317 67.5559C23.7794 68.7896 21.5043 69.2081 18.8292 66.5362C15.8504 63.5611 17.1573 61.2281 18.1427 60.2415ZM21.7468 62.7043C21.1973 63.2545 21.558 63.9558 22.0703 64.4675C23.7399 66.135 25.5415 66.5321 26.7163 65.3558L23.9277 63.2528C22.8844 62.476 22.2964 62.154 21.7468 62.7043ZM34.8118 81.3361L34.9013 77.583L38.6544 77.6725L38.949 65.3141L35.7282 65.3983L35.8177 61.6452L40.996 61.5809C42.4985 61.5631 43.3104 62.3871 43.2746 63.8884L42.9436 77.7748L46.6967 77.8642L46.6072 81.6173L34.8118 81.3361ZM54.0211 75.3255C51.8462 71.6271 53.0607 67.9265 56.6897 65.7923C60.3187 63.6582 64.1255 64.3126 66.2053 67.8492L66.8849 69.0049L58.032 74.2111C58.8204 75.5517 60.3486 75.9285 62.452 74.6916C63.7464 73.9303 64.4454 72.8971 64.16 71.8828L67.8583 69.7079C68.6195 71.5312 68.2642 75.3177 64.2191 77.6965C59.7349 80.3335 55.9649 78.6309 54.0211 75.3255ZM56.8086 72.1308L62.1943 68.9636C61.6778 68.0852 60.5141 67.5875 58.4568 68.7973C56.3996 70.007 56.2921 71.2524 56.8086 72.1308ZM89.3799 57.2598C90.6536 59.15 90.2562 61.4873 86.3869 64.0948C82.2507 66.882 79.3478 66.413 77.5796 63.789L81.1376 61.3914C81.722 62.2586 82.8319 62.6101 84.6998 61.3513C85.6561 60.707 86.1066 60.08 85.747 59.5463C85.3573 58.9681 84.6298 59.232 82.424 59.8454C79.8691 60.5647 76.9372 61.7321 75.2438 59.2193C73.8952 57.2179 74.9171 54.8477 78.0081 52.7648C81.8107 50.2023 84.6411 51.0435 86.1097 53.2228L82.5517 55.6204C82.0122 54.8199 81.0072 54.6241 79.7841 55.4482C78.9391 56.0177 78.607 56.5325 78.9067 56.9773C79.2664 57.511 80.603 57.0953 82.7716 56.4746C85.4304 55.7176 87.8064 54.9249 89.3799 57.2598ZM107.548 38.202L104.313 35.6983L107.285 31.297C105.601 29.8411 104.287 27.7862 103.453 25.2096C101.643 19.6228 102.8 15.1891 107.341 13.7183C110.811 12.5946 113.099 14.7001 113.835 16.9706C114.364 18.6032 114.022 19.8978 113.393 21.0033L114.414 20.6728L118.321 14.8972L120.082 14.327L124.593 28.2558L121.022 29.4126L118.328 21.0962L112.887 29.708C114.538 30.0189 116.405 29.8652 118.42 29.2124L119.742 33.2941C116.426 34.3682 113.288 34.3416 110.617 33.3182L107.548 38.202ZM107.024 24.0528C107.578 25.762 108.406 27.1004 109.475 28.0508L110.944 25.8839C112.429 23.6833 112.782 22.0751 112.179 20.2128C111.601 18.4271 110.245 17.2877 108.51 17.8496C106.342 18.5519 105.925 20.6599 107.024 24.0528ZM142.64 69.7227L143.313 70.692L140.229 72.8324L139.709 72.0833C139.479 71.7529 139.204 71.3563 138.792 71.1855C138.707 71.44 138.323 71.9679 137.728 72.3806C135.635 73.833 132.953 72.7896 129.792 70.446C131.705 72.8724 132.68 75.6883 130.322 77.3241C127.04 79.6021 123.99 76.0067 118.257 67.7453L121.341 65.605C126.34 72.8089 127.398 74.0983 128.61 73.2575C130.24 72.1261 126.746 68.6432 123.804 65.626L125.527 63.8755C127.549 66.2255 129.403 68.3332 131.295 70.0237L132.176 69.4121C127.893 66.3456 125.507 61.6369 129.164 59.099C132.094 57.0657 135.43 58.8631 137.861 62.3659C139.038 64.0622 139.778 65.8337 139.729 67.5975C141.047 67.6622 141.952 68.7313 142.64 69.7227ZM131.978 66.7752C133.445 68.8901 134.555 69.3603 135.502 68.7029C136.428 68.0608 136.398 66.8414 134.93 64.7265C133.462 62.6116 132.315 62.1347 131.39 62.7768C130.443 63.4342 130.51 64.6603 131.978 66.7752ZM139.401 88.0375L146.705 79.15C147.642 78.0106 148.795 77.9169 149.917 78.8741L156.638 84.6754L154.254 87.5758L149.032 83.0758L142.716 90.7616L139.401 88.0375ZM156.557 94.8158C156.216 90.1086 159.42 87.5648 163.672 87.2573C167.898 86.9517 171.434 89.0082 171.775 93.7154C172.117 98.4493 168.913 100.993 164.688 101.299C160.435 101.606 156.899 99.5497 156.557 94.8158ZM160.836 94.5064C161 96.7797 162.384 97.7013 164.417 97.5543C166.423 97.4093 167.66 96.2982 167.495 94.0248C167.333 91.7782 165.949 90.8566 163.943 91.0017C161.91 91.1486 160.673 92.2597 160.836 94.5064ZM172.5 90.6844L175.181 87.5788L185.759 94.4074L186.46 93.5955L177.705 84.6558L183.557 77.8762L193.679 85.2326L194.38 84.4206L186.098 74.933L188.761 71.8476L197.768 82.1377L191.915 88.9173L181.793 81.561L181.092 82.3729L189.848 91.3125L183.995 98.0922L172.5 90.6844ZM204.608 64.3369L205.701 59.4631L209.315 60.4801L207.677 67.2898C207.329 68.7241 206.285 69.266 204.866 68.8664L197.38 66.7597L196.508 69.8572L192.895 68.8402L193.766 65.7427L191.314 65.0526L191.186 60.5593L194.929 61.6127L196.135 57.3278L199.748 58.3448L198.542 62.6297L204.608 64.3369ZM202.095 35.055C203.023 31.7228 205.806 30.3271 209.836 31.4501L216.888 33.4154L215.736 37.5484L209.33 35.763C206.953 35.1007 205.855 35.5462 205.301 37.5352C204.674 39.7825 205.452 41.586 209.12 42.6082L213.951 43.9544L212.799 48.0874L193.813 42.7961L194.965 38.6632L202.482 40.7581L204.59 42.1809L204.878 41.1477C202.698 39.9832 201.317 37.8447 202.095 35.055Z" fill="#8FD37D"/>
<path d="M13.4441 43.3883L26.8305 42.6329L13.4441 43.3883ZM20.4668 33.6186L33.8531 32.8632C33.6528 29.3129 32.0503 25.9876 29.3982 23.6188C26.7461 21.2501 23.2617 20.0319 19.7114 20.2322L20.4668 33.6186ZM20.7085 37.9022L21.4639 51.2886C28.857 50.8714 34.5121 44.5399 34.0949 37.1468L20.7085 37.9022ZM19.0667 46.8849L19.8221 60.2712L19.0667 46.8849ZM21.6994 41.6601L34.6171 45.2518C34.6216 45.2354 34.6261 45.2191 34.6306 45.2027L21.6994 41.6601ZM26.5736 49.9796L13.1872 50.735C13.6044 58.1281 19.9359 63.7832 27.329 63.366L26.5736 49.9796ZM26.3319 45.696L25.5765 32.3096C22.0262 32.51 18.7009 34.1125 16.3322 36.7646C13.9634 39.4166 12.7452 42.9011 12.9455 46.4514L26.3319 45.696ZM29.0457 41.4336L42.4321 40.6782L29.0457 41.4336ZM27.4768 38.3797L28.2322 51.7661L27.4768 38.3797ZM25.4778 41.9841L38.3998 45.5602C38.4021 45.5518 38.4044 45.5433 38.4068 45.5349L25.4778 41.9841ZM19.362 51.1655L18.6066 37.7791C19.3606 37.7366 20.5834 37.803 22.0051 38.3596C23.4903 38.9411 24.7263 39.8782 25.6135 40.9434C27.2008 42.8492 26.9181 44.1847 26.8305 42.6329L13.4441 43.3883L0.057751 44.1437C0.298017 48.4016 1.35448 53.7171 5.00887 58.1047C9.21333 63.1528 15.0204 64.8395 20.1174 64.5518L19.362 51.1655ZM13.4441 43.3883L26.8305 42.6329C26.7203 40.6808 27.2659 42.1461 25.6225 44.2668C24.7519 45.3903 23.6608 46.1581 22.6605 46.5939C21.7594 46.9865 21.1757 47.0076 21.2222 47.0049L20.4668 33.6186L19.7114 20.2322C14.9999 20.4981 8.81963 22.1723 4.42645 27.8415C0.367154 33.0799 -0.215835 39.2955 0.057751 44.1437L13.4441 43.3883ZM20.4668 33.6186L7.08041 34.374L7.32212 38.6576L20.7085 37.9022L34.0949 37.1468L33.8531 32.8632L20.4668 33.6186ZM20.7085 37.9022L19.9531 24.5158C16.3934 24.7167 10.2631 26.0387 6.4367 32.1308C3.4829 36.8336 3.69302 41.9313 3.81349 44.066L17.1999 43.3107L30.5862 42.5553C30.5592 42.0759 30.6046 42.2322 30.5322 42.7531C30.459 43.2803 30.1928 44.7242 29.1444 46.3934C27.9744 48.2561 26.3059 49.6432 24.5265 50.464C22.9691 51.1823 21.7544 51.2722 21.4639 51.2886L20.7085 37.9022ZM17.1999 43.3107L3.81349 44.066C3.92145 45.9792 4.25807 49.4862 6.19042 52.8428C7.29569 54.7627 9.0912 56.9229 11.8573 58.4593C14.6598 60.016 17.504 60.402 19.8221 60.2712L19.0667 46.8849L18.3114 33.4985C20.1208 33.3964 22.4968 33.6947 24.8782 35.0175C27.2232 36.32 28.6447 38.1001 29.4299 39.464C30.722 41.7085 30.6339 43.3997 30.5862 42.5553L17.1999 43.3107ZM19.0667 46.8849L19.8221 60.2712C24.4278 60.0113 27.807 57.7068 29.8506 55.4661C31.6335 53.5113 32.56 51.469 32.9971 50.4092C33.7921 48.4815 34.4357 45.904 34.6171 45.2518L21.6994 41.6601L8.7818 38.0685C8.50122 39.0776 8.43524 39.3529 8.26364 39.9505C8.1235 40.4384 8.1106 40.4198 8.20708 40.1858C8.25432 40.0713 8.75454 38.8034 10.0379 37.3963C11.5819 35.7033 14.3884 33.7199 18.3114 33.4985L19.0667 46.8849ZM21.6994 41.6601L34.6306 45.2027C34.9362 44.0873 35.0962 43.5163 35.247 43.0679C35.3956 42.6266 35.358 42.8613 35.0484 43.3726C34.6953 43.9556 33.8834 45.0732 32.3986 46.0361C30.8432 47.0447 29.2812 47.4096 28.1511 47.4734L27.3957 34.087L26.6403 20.7007C23.6629 20.8687 20.6044 21.7243 17.8086 23.5373C15.0834 25.3046 13.287 27.5403 12.111 29.4824C10.1075 32.7908 9.1524 36.7153 8.76823 38.1176L21.6994 41.6601ZM27.3957 34.087L28.1511 47.4734C27.1637 47.5291 25.728 47.4047 24.1521 46.7106C22.5454 46.0031 21.3384 44.9423 20.5373 43.8925C19.1383 42.0589 19.3414 40.8056 19.4076 41.9775L32.7939 41.2221L46.1803 40.4667C45.9715 36.7659 45.0819 31.8545 41.8556 27.6262C38.0448 22.6318 32.3491 20.3785 26.6403 20.7007L27.3957 34.087ZM32.7939 41.2221L19.4076 41.9775C19.449 42.7123 19.1892 41.2969 20.6543 39.4254C22.2697 37.3618 24.4729 36.6692 25.8182 36.5933L26.5736 49.9796L27.329 63.366C32.4226 63.0786 37.899 60.8986 41.7692 55.9549C45.489 51.2032 46.4652 45.5148 46.1803 40.4667L32.7939 41.2221ZM26.5736 49.9796L39.96 49.2243L39.7183 44.9406L26.3319 45.696L12.9455 46.4514L13.1872 50.735L26.5736 49.9796ZM26.3319 45.696L27.0873 59.0824C32.3442 58.7857 37.5482 56.07 40.4143 50.7318C42.6037 46.654 42.5389 42.5711 42.4321 40.6782L29.0457 41.4336L15.6594 42.189C15.6587 42.1775 15.6542 42.093 15.6578 41.9476C15.6613 41.8038 15.6738 41.5618 15.7176 41.2423C15.7983 40.6541 16.0317 39.4574 16.7888 38.0472C17.6079 36.5217 18.9378 34.9524 20.8442 33.8078C22.6902 32.6994 24.4334 32.3741 25.5765 32.3096L26.3319 45.696ZM29.0457 41.4336L42.4321 40.6782C42.3427 39.0936 42.0566 36.2054 40.6326 33.2858C38.982 29.9016 34.5133 24.5537 26.7214 24.9934L27.4768 38.3797L28.2322 51.7661C25.4364 51.9239 22.5947 51.1216 20.2465 49.4201C18.1247 47.8828 17.0371 46.0782 16.5312 45.041C16.0137 43.98 15.8185 43.1392 15.7477 42.7885C15.7058 42.5811 15.6843 42.4265 15.6735 42.336C15.6625 42.244 15.6596 42.193 15.6594 42.189L29.0457 41.4336ZM27.4768 38.3797L26.7214 24.9934C25.348 25.0709 22.6876 25.3926 19.8951 27.1111C17.1483 28.8015 15.605 31.0185 14.7888 32.4688C13.5338 34.6991 12.8527 37.3272 12.5489 38.4333L25.4778 41.9841L38.4068 45.5349C38.6024 44.8225 38.7016 44.5014 38.7416 44.3817C38.8102 44.1767 38.6365 44.7694 38.1582 45.6192C37.6289 46.5598 36.3731 48.4568 33.9491 49.9485C31.4795 51.4683 29.1772 51.7128 28.2322 51.7661L27.4768 38.3797ZM25.4778 41.9841L12.5559 38.408C12.2284 39.5911 12.0852 40.1691 11.8512 40.9265C11.6398 41.6109 11.5278 41.8408 11.5413 41.814C11.5591 41.7783 11.6592 41.5817 11.8688 41.2893C12.0788 40.9961 12.4503 40.5345 13.0273 40.0314C13.6182 39.516 14.4182 38.9637 15.4358 38.5279C16.4692 38.0853 17.5517 37.8386 18.6066 37.7791L19.362 51.1655L20.1174 64.5518C29.3467 64.031 33.8496 57.1501 35.5141 53.8292C37.174 50.5174 38.1132 46.5958 38.3998 45.5602L25.4778 41.9841ZM18.1427 60.2415L27.6292 69.7163L18.1427 60.2415ZM24.9882 61.0526L33.0734 50.357C33.0677 50.3527 33.0619 50.3484 33.0562 50.3441L24.9882 61.0526ZM28.4218 63.6482L20.3366 74.3438C25.6772 78.3809 33.1773 77.8598 37.9083 73.123L28.4218 63.6482ZM27.7562 60.4821L37.231 50.9956L27.7562 60.4821ZM24.4756 59.9721L15.0008 69.4586C20.24 74.6914 28.7293 74.6862 33.9621 69.4469L24.4756 59.9721ZM21.6296 57.1297L12.1431 47.6549C6.91033 52.8941 6.91557 61.3834 12.1548 66.6162L21.6296 57.1297ZM30.7563 67.3821L40.2428 76.8569L30.7563 67.3821ZM28.0655 70.0763L18.579 60.6015C13.3462 65.8408 13.3514 74.33 18.5907 79.5628L28.0655 70.0763ZM29.4505 71.4596L38.937 80.9344C44.1698 75.6952 44.1646 67.2059 38.9253 61.9731L29.4505 71.4596ZM26.7976 74.1158L17.3228 83.6023C19.8388 86.1152 23.2499 87.5257 26.8059 87.5235C30.3618 87.5213 33.7712 86.1066 36.2841 83.5906L26.7976 74.1158ZM24.6898 69.1682L34.1763 78.643L24.6898 69.1682ZM24.8793 68.9785L19.7667 56.5839C18.1303 57.2589 16.6437 58.2512 15.3928 59.5037L24.8793 68.9785ZM26.4906 68.3139L31.6032 80.7085C35.7474 78.9991 38.7631 75.3316 39.6395 70.9352C40.516 66.5388 39.1373 61.9953 35.9654 58.8274L26.4906 68.3139ZM25.7317 67.5559L35.2065 58.0694C30.7736 53.642 23.8655 52.8748 18.5693 56.2217L25.7317 67.5559ZM26.7163 65.3558L36.2028 74.8306C38.9441 72.0859 40.3623 68.2885 40.0912 64.4188C39.8202 60.5492 37.8864 56.9866 34.7892 54.6509L26.7163 65.3558ZM23.9277 63.2528L32.0006 52.5479C31.9786 52.5313 31.9565 52.5148 31.9344 52.4983L23.9277 63.2528ZM18.1427 60.2415L27.6292 69.7163C27.1094 70.2367 26.1077 71.0854 24.569 71.7208C22.9415 72.3929 21.2458 72.6048 19.7097 72.4601C17.0942 72.2137 15.9621 71.0393 16.9202 71.7612L24.9882 61.0526L33.0562 50.3441C30.7704 48.6219 27.0398 46.2166 22.2247 45.763C16.2925 45.2042 11.6385 47.7807 8.65615 50.7667L18.1427 60.2415ZM24.9882 61.0526L16.903 71.7482L20.3366 74.3438L28.4218 63.6482L36.507 52.9526L33.0734 50.357L24.9882 61.0526ZM28.4218 63.6482L37.9083 73.123C41.1419 69.8854 43.0371 65.0435 42.0478 59.7847C41.2356 55.468 38.7782 52.5409 37.231 50.9956L27.7562 60.4821L18.2814 69.9686C18.0433 69.7308 16.3072 67.9978 15.6948 64.7428C15.3577 62.9511 15.4102 60.8894 16.0977 58.8066C16.7727 56.7615 17.883 55.227 18.9353 54.1734L28.4218 63.6482ZM27.7562 60.4821L37.231 50.9956C35.4762 49.2429 32.4018 46.858 28.0011 46.1894C22.9149 45.4168 18.21 47.2724 14.9891 50.4973L24.4756 59.9721L33.9621 69.4469C31.6128 71.7991 27.9411 73.3033 23.9738 72.7006C20.6918 72.2021 18.8219 70.5085 18.2814 69.9686L27.7562 60.4821ZM24.4756 59.9721L33.9504 50.4856L31.1044 47.6432L21.6296 57.1297L12.1548 66.6162L15.0008 69.4586L24.4756 59.9721ZM21.6296 57.1297L31.1161 66.6045C30.3463 67.3753 29.2651 68.1131 27.9048 68.5721C26.556 69.0271 25.2506 69.1011 24.148 68.9616C22.0458 68.6956 20.9816 67.7385 20.7448 67.5021L30.2196 58.0156L39.6944 48.5291C36.7825 45.6207 32.6361 43.0065 27.5141 42.3584C21.9829 41.6585 16.3527 43.4401 12.1431 47.6549L21.6296 57.1297ZM30.2196 58.0156L20.7448 67.5021C20.7102 67.4675 19.6262 66.4099 19.3478 64.1312C19.198 62.9046 19.3283 61.5724 19.7948 60.3107C20.2504 59.0783 20.8842 58.2935 21.2698 57.9073L30.7563 67.3821L40.2428 76.8569C44.4042 72.6904 46.7158 67.0239 45.9653 60.8799C45.2915 55.3637 42.3663 51.1977 39.6944 48.5291L30.2196 58.0156ZM30.7563 67.3821L21.2698 57.9073L18.579 60.6015L28.0655 70.0763L37.552 79.5511L40.2428 76.8569L30.7563 67.3821ZM28.0655 70.0763L18.5907 79.5628L19.9757 80.9461L29.4505 71.4596L38.9253 61.9731L37.5403 60.5898L28.0655 70.0763ZM29.4505 71.4596L19.964 61.9848L17.3111 64.641L26.7976 74.1158L36.2841 83.5906L38.937 80.9344L29.4505 71.4596ZM26.7976 74.1158L36.2724 64.6293L34.1664 62.5259L24.6916 72.0124L15.2168 81.4989L17.3228 83.6023L26.7976 74.1158ZM24.6916 72.0124L34.1664 62.5259C35.4572 63.8152 37.4133 66.5527 37.4158 70.5825C37.4182 74.6123 35.4656 77.3522 34.1763 78.643L24.6898 69.1682L15.2033 59.6934C13.0045 61.895 10.5974 65.6022 10.6004 70.599C10.6035 75.5959 13.0153 79.3001 15.2168 81.4989L24.6916 72.0124ZM24.6898 69.1682L34.1763 78.643L34.3658 78.4533L24.8793 68.9785L15.3928 59.5037L15.2033 59.6934L24.6898 69.1682ZM24.8793 68.9785L29.9919 81.3731L31.6032 80.7085L26.4906 68.3139L21.378 55.9192L19.7667 56.5839L24.8793 68.9785ZM26.4906 68.3139L35.9654 58.8274L35.2065 58.0694L25.7317 67.5559L16.2569 77.0424L17.0158 77.8004L26.4906 68.3139ZM25.7317 67.5559L18.5693 56.2217C18.8883 56.0201 20.6773 54.9515 23.4278 55.1317C26.3771 55.3248 28.0291 56.7753 28.304 57.0497L18.8292 66.5362L9.35436 76.0227C12.3044 78.9691 16.4315 81.5462 21.6753 81.8897C26.7202 82.2201 30.6229 80.3254 32.8942 78.8901L25.7317 67.5559ZM18.8292 66.5362L28.304 57.0497C28.8442 57.5893 30.6402 59.8823 30.3725 63.6048C30.1437 66.787 28.5397 68.8046 27.6292 69.7163L18.1427 60.2415L8.65615 50.7667C6.76023 52.665 4.01014 56.3424 3.62621 61.6816C3.20345 67.561 5.83536 72.5081 9.35436 76.0227L18.8292 66.5362ZM21.7468 62.7043L12.2603 53.2295C8.19315 57.3017 7.36392 62.7653 8.5912 67.1865C9.55253 70.6496 11.5484 72.9081 12.5955 73.954L22.0703 64.4675L31.5451 54.981C32.0799 55.5151 33.6392 57.1671 34.4295 60.0141C34.8716 61.6067 35.1174 63.7702 34.5466 66.2028C33.96 68.7029 32.688 70.7226 31.2333 72.179L21.7468 62.7043ZM22.0703 64.4675L12.5955 73.954C14.5904 75.9464 17.718 78.2818 21.9575 79.127C26.7895 80.0903 32.1896 78.8487 36.2028 74.8306L26.7163 65.3558L17.2298 55.881C18.4625 54.6468 20.1064 53.606 22.0718 53.0486C24.0041 52.5007 25.7892 52.5479 27.2002 52.8291C29.8277 53.353 31.2197 54.656 31.5451 54.981L22.0703 64.4675ZM26.7163 65.3558L34.7892 54.6509L32.0006 52.5479L23.9277 63.2528L15.8548 73.9576L18.6434 76.0606L26.7163 65.3558ZM23.9277 63.2528L31.9344 52.4983C31.7291 52.3454 29.5428 50.5926 26.6733 49.6905C24.8458 49.1159 22.1721 48.6737 19.0967 49.3986C15.9941 50.1299 13.7348 51.7532 12.2603 53.2295L21.7468 62.7043L31.2333 72.179C30.0336 73.3802 28.0539 74.8374 25.2487 75.4986C22.4708 76.1534 20.1123 75.7371 18.6309 75.2713C17.2778 74.846 16.3811 74.2953 16.1452 74.1486C15.8647 73.9742 15.7338 73.8679 15.9211 74.0073L23.9277 63.2528ZM34.8118 81.3361L21.408 81.0166C21.3232 84.5715 22.6541 88.0145 25.1079 90.5882C27.5617 93.1618 30.9374 94.6552 34.4923 94.74L34.8118 81.3361ZM34.9013 77.583L35.2208 64.1792C31.6659 64.0944 28.2229 65.4254 25.6493 67.8792C23.0756 70.3329 21.5822 73.7086 21.4974 77.2635L34.9013 77.583ZM38.6544 77.6725L38.3349 91.0764C41.8898 91.1611 45.3328 89.8302 47.9064 87.3764C50.48 84.9226 51.9735 81.5469 52.0582 77.992L38.6544 77.6725ZM38.949 65.3141L52.3528 65.6337C52.4403 61.9626 51.0183 58.4163 48.4187 55.8226C45.8192 53.229 42.2696 51.8151 38.5987 51.9111L38.949 65.3141ZM35.7282 65.3983L22.3243 65.0788C22.2368 68.7499 23.6588 72.2962 26.2584 74.8898C28.858 77.4834 32.4076 78.8973 36.0784 78.8014L35.7282 65.3983ZM35.8177 61.6452L35.6511 48.2386C28.436 48.3282 22.5858 54.112 22.4138 61.3257L35.8177 61.6452ZM40.996 61.5809L40.8369 48.1742L40.8295 48.1743L40.996 61.5809ZM42.9436 77.7748L29.5397 77.4552C29.3633 84.858 35.2213 91.0022 42.6241 91.1786L42.9436 77.7748ZM46.6967 77.8642L60.1005 78.1837C60.1853 74.6288 58.8544 71.1858 56.4006 68.6122C53.9468 66.0386 50.5711 64.5451 47.0162 64.4604L46.6967 77.8642ZM46.6072 81.6173L46.2877 95.0212C53.6904 95.1976 59.8346 89.3396 60.0111 81.9368L46.6072 81.6173ZM34.8118 81.3361L48.2157 81.6556L48.3052 77.9026L34.9013 77.583L21.4974 77.2635L21.408 81.0166L34.8118 81.3361ZM34.9013 77.583L34.5818 90.9869L38.3349 91.0764L38.6544 77.6725L38.9739 64.2686L35.2208 64.1792L34.9013 77.583ZM38.6544 77.6725L52.0582 77.992L52.3528 65.6337L38.949 65.3141L25.5451 64.9946L25.2505 77.353L38.6544 77.6725ZM38.949 65.3141L38.5987 51.9111L35.378 51.9952L35.7282 65.3983L36.0784 78.8014L39.2992 78.7172L38.949 65.3141ZM35.7282 65.3983L49.1321 65.7178L49.2215 61.9647L35.8177 61.6452L22.4138 61.3257L22.3243 65.0788L35.7282 65.3983ZM35.8177 61.6452L35.9842 75.0519L41.1626 74.9875L40.996 61.5809L40.8295 48.1743L35.6511 48.2386L35.8177 61.6452ZM40.996 61.5809L41.1551 74.9876C39.5165 75.0071 36.1039 74.5566 33.1692 71.5829C30.2373 68.6121 29.8319 65.1993 29.8708 63.5688L43.2746 63.8884L56.6785 64.2079C56.7531 61.0762 55.9596 56.5007 52.2551 52.747C48.5478 48.9905 43.9781 48.1369 40.8369 48.1742L40.996 61.5809ZM43.2746 63.8884L29.8708 63.5688L29.5397 77.4552L42.9436 77.7748L56.3475 78.0943L56.6785 64.2079L43.2746 63.8884ZM42.9436 77.7748L42.6241 91.1786L46.3772 91.2681L46.6967 77.8642L47.0162 64.4604L43.2631 64.3709L42.9436 77.7748ZM46.6967 77.8642L33.2928 77.5447L33.2034 81.2978L46.6072 81.6173L60.0111 81.9368L60.1005 78.1837L46.6967 77.8642ZM46.6072 81.6173L46.9267 68.2134L35.1313 67.9323L34.8118 81.3361L34.4923 94.74L46.2877 95.0212L46.6072 81.6173ZM66.2053 67.8492L77.7626 61.0526L66.2053 67.8492ZM66.8849 69.0049L73.6815 80.5622C80.0645 76.8086 82.1959 68.5912 78.4423 62.2083L66.8849 69.0049ZM58.032 74.2111L51.2354 62.6538C44.8525 66.4074 42.721 74.6248 46.4747 81.0077L58.032 74.2111ZM62.452 74.6916L69.2486 86.2489L62.452 74.6916ZM64.16 71.8828L57.3634 60.3255C52.1132 63.413 49.6038 69.6514 51.2535 75.5144L64.16 71.8828ZM67.8583 69.7079L80.2311 64.5428C78.739 60.9684 75.774 58.214 72.0996 56.9888C68.4252 55.7635 64.4005 56.1872 61.0617 58.1506L67.8583 69.7079ZM56.8086 72.1308L45.2513 78.9274C47.0539 81.9926 50.0002 84.2161 53.4423 85.109C56.8843 86.0018 60.54 85.4907 63.6052 83.6881L56.8086 72.1308ZM62.1943 68.9636L68.9909 80.5209C75.3739 76.7672 77.5053 68.5499 73.7517 62.167L62.1943 68.9636ZM54.0211 75.3255L65.5784 68.5289C66.1033 69.4214 66.7399 71.3763 66.0442 73.7474C65.3896 75.9783 64.0084 77.0427 63.4863 77.3497L56.6897 65.7923L49.8931 54.235C45.7421 56.6761 41.9391 60.6579 40.3137 66.1973C38.6471 71.8769 39.764 77.5312 42.4638 82.1221L54.0211 75.3255ZM56.6897 65.7923L63.4863 77.3497C63.0654 77.5972 61.5729 78.2841 59.3547 77.8326C56.9241 77.338 55.3361 75.816 54.6479 74.6458L66.2053 67.8492L77.7626 61.0526C74.9946 56.3458 70.4635 52.7284 64.7023 51.5559C59.1534 50.4266 53.9431 51.8533 49.8931 54.235L56.6897 65.7923ZM66.2053 67.8492L54.6479 74.6458L55.3276 75.8015L66.8849 69.0049L78.4423 62.2083L77.7626 61.0526L66.2053 67.8492ZM66.8849 69.0049L60.0883 57.4476L51.2354 62.6538L58.032 74.2111L64.8286 85.7684L73.6815 80.5622L66.8849 69.0049ZM58.032 74.2111L46.4747 81.0077C48.644 84.6965 52.5279 87.9234 57.8363 88.6885C62.6338 89.3799 66.6508 87.7766 69.2486 86.2489L62.452 74.6916L55.6554 63.1342C56.1498 62.8435 58.351 61.6703 61.6614 62.1474C65.4828 62.6981 68.2085 65.0664 69.5893 67.4145L58.032 74.2111ZM62.452 74.6916L69.2486 86.2489C71.9678 84.6498 79.9552 78.5177 77.0665 68.2513L64.16 71.8828L51.2535 75.5144C50.185 71.7168 51.2272 68.3535 52.5364 66.2639C53.7074 64.3947 55.0657 63.481 55.6554 63.1342L62.452 74.6916ZM64.16 71.8828L70.9566 83.4402L74.6549 81.2653L67.8583 69.7079L61.0617 58.1506L57.3634 60.3255L64.16 71.8828ZM67.8583 69.7079L55.4855 74.8731C54.4792 72.4625 54.7076 70.4732 55.1441 69.1866C55.7083 67.5235 56.7541 66.5322 57.4225 66.1391L64.2191 77.6965L71.0157 89.2538C80.731 83.5404 83.6214 72.6638 80.2311 64.5428L67.8583 69.7079ZM64.2191 77.6965L57.4225 66.1391C57.807 65.913 59.5418 65.174 61.9213 65.8679C64.0798 66.4975 65.1787 67.8492 65.5784 68.5289L54.0211 75.3255L42.4638 82.1221C44.8073 86.1072 48.7631 89.9629 54.4136 91.6109C60.285 93.3232 66.147 92.117 71.0157 89.2538L64.2191 77.6965ZM56.8086 72.1308L63.6052 83.6881L68.9909 80.5209L62.1943 68.9636L55.3977 57.4062L50.012 60.5734L56.8086 72.1308ZM62.1943 68.9636L73.7517 62.167C71.7059 58.6883 67.9398 55.5205 62.7035 54.8111C58.0058 54.1746 54.1166 55.7954 51.6603 57.2399L58.4569 68.7973L65.2534 80.3546C64.8543 80.5893 62.5756 81.8541 59.1032 81.3836C55.0922 80.8402 52.1662 78.3605 50.637 75.7602L62.1943 68.9636ZM58.4569 68.7973L51.6603 57.2399C49.2121 58.6796 45.866 61.3095 44.1487 65.788C42.2346 70.7798 43.2791 75.5738 45.2513 78.9274L56.8086 72.1308L68.366 65.3342C69.8216 67.8094 70.6616 71.5415 69.1865 75.3887C67.9081 78.7224 65.6444 80.1247 65.2534 80.3546L58.4569 68.7973ZM77.5796 63.789L70.0869 52.6703C63.9462 56.8084 62.3228 65.141 66.4609 71.2817L77.5796 63.789ZM81.1376 61.3914L92.2563 53.8987C90.2691 50.9499 87.1919 48.9112 83.7016 48.2311C80.2113 47.5511 76.5938 48.2855 73.6449 50.2727L81.1376 61.3914ZM82.424 59.8454L78.8319 46.9279C78.8181 46.9317 78.8043 46.9356 78.7906 46.9395L82.424 59.8454ZM75.2438 59.2192L86.3625 51.7266L75.2438 59.2192ZM86.1097 53.2228L93.6023 64.3415C96.5512 62.3543 98.5899 59.2771 99.2699 55.7868C99.9499 52.2965 99.2156 48.679 97.2284 45.7301L86.1097 53.2228ZM82.5517 55.6204L71.433 63.1131C75.5711 69.2538 83.9037 70.8772 90.0443 66.7391L82.5517 55.6204ZM78.9067 56.9773L90.0254 49.4846L78.9067 56.9773ZM82.7716 56.4746L79.1003 43.5794C79.0944 43.5811 79.0884 43.5828 79.0825 43.5845L82.7716 56.4746ZM89.3799 57.2598L78.2612 64.7525C77.6837 63.8955 77.016 62.5667 76.744 60.8104C76.4617 58.9875 76.6907 57.2351 77.236 55.7597C78.2115 53.1207 79.7769 52.3813 78.8942 52.976L86.3869 64.0948L93.8796 75.2135C96.8662 73.2008 100.565 69.989 102.388 65.0569C104.537 59.2421 103.15 53.701 100.499 49.7672L89.3799 57.2598ZM86.3869 64.0948L78.8942 52.976C78.0511 53.5443 79.2695 52.4134 81.9804 52.5927C83.4527 52.6901 84.9535 53.1629 86.2751 53.9968C87.5377 54.7936 88.2983 55.7029 88.6983 56.2964L77.5796 63.789L66.4609 71.2817C69.1876 75.3281 73.8288 78.9274 80.2102 79.3495C85.8486 79.7226 90.5866 77.4325 93.8796 75.2135L86.3869 64.0948ZM77.5796 63.789L85.0722 74.9077L88.6302 72.5101L81.1376 61.3914L73.6449 50.2727L70.0869 52.6703L77.5796 63.789ZM81.1376 61.3914L70.0189 68.884C72.1833 72.0959 76.0934 75.1832 81.5457 75.5466C86.2964 75.8633 90.0186 73.935 92.1925 72.47L84.6998 61.3513L77.2072 50.2326C77.5131 50.0265 79.7465 48.5518 83.3291 48.7906C87.6134 49.0762 90.6763 51.5541 92.2563 53.8987L81.1376 61.3914ZM84.6998 61.3513L92.1925 72.47C93.1979 71.7925 95.4416 70.1851 97.1334 67.4378C98.0665 65.9226 99.1252 63.5821 99.2631 60.5776C99.4101 57.3754 98.4602 54.4198 96.8657 52.0536L85.747 59.5463L74.6283 67.0389C73.2136 64.9397 72.3422 62.2625 72.476 59.3481C72.6007 56.6314 73.5544 54.588 74.3003 53.3768C75.6177 51.2376 77.158 50.2658 77.2072 50.2326L84.6998 61.3513ZM85.747 59.5463L96.8657 52.0536C95.2279 49.6232 92.6572 47.4442 89.2067 46.4148C86.3522 45.5632 83.9275 45.8291 82.9205 45.9691C81.8123 46.1231 80.8413 46.3771 80.382 46.499C79.8967 46.6277 79.2299 46.8172 78.8319 46.9279L82.424 59.8454L86.0161 72.763C86.7209 72.567 86.9723 72.4935 87.2559 72.4183C87.5656 72.3362 87.2145 72.4453 86.6126 72.529C86.1119 72.5986 84.08 72.8686 81.5405 72.1109C78.4048 71.1754 76.0712 69.1803 74.6283 67.0389L85.747 59.5463ZM82.424 59.8454L78.7906 46.9395C77.5522 47.2881 77.6602 47.2799 77.0965 47.4261C76.7857 47.5067 77.1216 47.3919 77.7943 47.3559C78.5144 47.3173 80.0703 47.3413 81.9215 48.1204C83.9313 48.9662 85.4278 50.3395 86.3625 51.7266L75.2438 59.2192L64.1251 66.7119C65.9065 69.3554 68.4045 71.5251 71.5202 72.8363C74.4772 74.0807 77.2432 74.2391 79.2274 74.1329C82.4368 73.9611 86.0102 72.7647 86.0573 72.7514L82.424 59.8454ZM75.2438 59.2192L86.3625 51.7266C87.183 52.9441 87.8667 54.5826 88.0317 56.5244C88.195 58.4473 87.8022 60.0981 87.2825 61.3092C86.3512 63.4799 85.0924 64.1587 85.5008 63.8835L78.0081 52.7648L70.5155 41.6461C67.8329 43.4538 64.5177 46.3591 62.6397 50.736C60.4434 55.8549 60.8019 61.7804 64.1251 66.7119L75.2438 59.2192ZM78.0081 52.7648L85.5008 63.8835C85.6661 63.7721 84.1347 64.8603 81.3519 64.5296C78.3092 64.168 76.117 62.3864 74.991 60.7154L86.1097 53.2228L97.2284 45.7301C94.6338 41.8799 90.2921 38.588 84.5165 37.9016C79.0006 37.2461 74.1528 39.195 70.5155 41.6461L78.0081 52.7648ZM86.1097 53.2228L78.617 42.104L75.059 44.5017L82.5517 55.6204L90.0443 66.7391L93.6023 64.3415L86.1097 53.2228ZM82.5517 55.6204L93.6704 48.1277C91.3947 44.7508 87.5705 42.0532 82.7258 41.5807C78.2353 41.1427 74.6017 42.7728 72.2915 44.3295L79.7841 55.4482L87.2768 66.567C86.1897 67.2995 83.67 68.6154 80.1227 68.2694C76.2212 67.8888 73.1692 65.6895 71.433 63.1131L82.5517 55.6204ZM79.7841 55.4482L72.2915 44.3295C71.3463 44.9665 69.0605 46.5874 67.3777 49.431C66.4353 51.0233 65.4478 53.3989 65.3931 56.3852C65.3358 59.515 66.3245 62.2982 67.788 64.4699L78.9067 56.9773L90.0254 49.4846C91.339 51.4339 92.2569 53.986 92.204 56.8764C92.1536 59.6233 91.2458 61.7512 90.4547 63.088C89.0742 65.4207 87.377 66.4994 87.2768 66.567L79.7841 55.4482ZM78.9067 56.9773L67.788 64.4699C70.825 68.9767 75.2911 70.213 77.6844 70.514C79.8977 70.7924 81.7369 70.4956 82.492 70.3623C84.0224 70.0921 85.8053 69.5523 86.4608 69.3647L82.7716 56.4746L79.0825 43.5845C77.5693 44.0175 77.5996 43.996 77.8297 43.9554C77.9345 43.9368 79.2366 43.6827 81.0304 43.9083C83.0041 44.1565 87.1682 45.2447 90.0254 49.4846L78.9067 56.9773ZM82.7716 56.4746L86.4429 69.3698C87.3221 69.1195 87.5298 69.058 87.7379 69.0096C87.904 68.971 87.3823 69.1147 86.494 69.1154C85.5055 69.1162 83.8725 68.9413 82.0728 68.0435C80.2203 67.1195 78.9843 65.8255 78.2612 64.7525L89.3799 57.2598L100.499 49.7672C98.9888 47.5267 96.8657 45.4562 94.0421 44.0477C91.2712 42.6656 88.583 42.2983 86.4715 42.3001C83.0191 42.303 79.5804 43.4427 79.1003 43.5794L82.7716 56.4746ZM107.548 38.202L99.3424 48.8051C102.334 51.1206 106.165 52.0644 109.89 51.4036C113.615 50.7428 116.888 48.539 118.901 45.3357L107.548 38.202ZM104.313 35.6983L93.2013 28.1959C89.2464 34.0537 90.5179 41.9756 96.1074 46.3014L104.313 35.6983ZM107.285 31.297L118.397 38.7994C122.196 33.1732 121.19 25.5958 116.055 21.1554L107.285 31.297ZM113.393 21.0033L101.737 14.3774C99.0034 19.1869 99.5041 25.1818 102.998 29.4711C106.492 33.7604 112.262 35.4633 117.525 33.7585L113.393 21.0033ZM114.414 20.6728L118.545 33.428C121.389 32.5069 123.844 30.6618 125.519 28.186L114.414 20.6728ZM118.321 14.8972L114.19 2.14195C111.346 3.06308 108.892 4.90816 107.217 7.38403L118.321 14.8972ZM120.082 14.327L132.837 10.1955C131.741 6.81265 129.346 4.00357 126.18 2.38631C123.013 0.769046 119.333 0.476055 115.95 1.5718L120.082 14.327ZM124.593 28.2558L128.725 41.011C132.108 39.9153 134.917 37.5206 136.534 34.3537C138.151 31.1868 138.444 27.5072 137.348 24.1243L124.593 28.2558ZM121.022 29.4126L108.267 33.5441C110.548 40.5886 118.109 44.4496 125.153 42.1678L121.022 29.4126ZM118.328 21.0962L131.083 16.9647C129.481 12.017 125.161 8.44237 120.001 7.79333C114.841 7.14428 109.771 9.53789 106.993 13.9346L118.328 21.0962ZM112.887 29.708L101.552 22.5465C99.1797 26.3013 98.8207 30.9874 100.594 35.0598C102.367 39.1322 106.041 42.0623 110.406 42.8842L112.887 29.708ZM118.42 29.2124L131.175 25.0809C128.894 18.0363 121.333 14.1754 114.289 16.4571L118.42 29.2124ZM119.742 33.2941L123.874 46.0493C130.918 43.7675 134.779 36.2071 132.497 29.1626L119.742 33.2941ZM110.617 33.3182L115.414 20.798C109.436 18.5073 102.672 20.7634 99.265 26.1845L110.617 33.3182ZM109.475 28.0508L100.566 38.0706C103.452 40.6366 107.304 41.8336 111.136 41.3552C114.968 40.8768 118.407 38.7694 120.574 35.5727L109.475 28.0508ZM110.944 25.8839L122.042 33.4059C122.047 33.3993 122.051 33.3928 122.056 33.3863L110.944 25.8839ZM107.548 38.202L115.755 27.5989L112.52 25.0952L104.313 35.6983L96.1074 46.3014L99.3424 48.8051L107.548 38.202ZM104.313 35.6983L115.426 43.2007L118.397 38.7994L107.285 31.297L96.1728 23.7946L93.2013 28.1959L104.313 35.6983ZM107.285 31.297L116.055 21.1554C116.163 21.2487 116.243 21.3325 116.298 21.3973C116.353 21.4616 116.379 21.5027 116.384 21.5105C116.394 21.5252 116.313 21.401 116.208 21.0781L103.453 25.2096L90.6977 29.3411C92.1567 33.8457 94.6837 38.1255 98.5149 41.4386L107.285 31.297ZM103.453 25.2096L116.208 21.0781C115.798 19.8132 116.309 20.3539 115.797 21.97C115.507 22.8874 114.933 23.9524 113.984 24.8887C113.046 25.815 112.089 26.274 111.473 26.4736L107.341 13.7183L103.21 0.963081C97.0024 2.97367 92.23 7.57143 90.2342 13.871C88.4608 19.4683 89.2978 25.0192 90.6977 29.3411L103.453 25.2096ZM107.341 13.7183L111.473 26.4736C109.732 27.0373 107.082 27.013 104.63 25.5174C102.562 24.2557 101.533 22.5017 101.08 21.1021L113.835 16.9706L126.59 12.8391C125.401 9.16897 122.86 5.22695 118.596 2.62583C113.949 -0.209186 108.42 -0.724419 103.21 0.963081L107.341 13.7183ZM113.835 16.9706L101.08 21.1021C100.734 20.0352 100.569 18.6875 100.783 17.2347C100.986 15.8548 101.457 14.8702 101.737 14.3774L113.393 21.0033L125.049 27.6292C127.091 24.0378 128.531 18.8315 126.59 12.8391L113.835 16.9706ZM113.393 21.0033L117.525 33.7585L118.545 33.428L114.414 20.6728L110.282 7.91755L109.262 8.24806L113.393 21.0033ZM114.414 20.6728L125.519 28.186L129.426 22.4104L118.321 14.8972L107.217 7.38403L103.309 13.1596L114.414 20.6728ZM118.321 14.8972L122.453 27.6524L124.213 27.0823L120.082 14.327L115.95 1.5718L114.19 2.14195L118.321 14.8972ZM120.082 14.327L107.326 18.4585L111.838 32.3873L124.593 28.2558L137.348 24.1243L132.837 10.1955L120.082 14.327ZM124.593 28.2558L120.462 15.5005L116.89 16.6574L121.022 29.4126L125.153 42.1678L128.725 41.011L124.593 28.2558ZM121.022 29.4126L133.777 25.2811L131.083 16.9647L118.328 21.0962L105.573 25.2277L108.267 33.5441L121.022 29.4126ZM118.328 21.0962L106.993 13.9346L101.552 22.5465L112.887 29.708L124.222 36.8696L129.663 28.2577L118.328 21.0962ZM112.887 29.708L110.406 42.8842C114.676 43.688 118.842 43.1691 122.552 41.9676L118.42 29.2124L114.289 16.4571C113.967 16.5612 114.4 16.3497 115.368 16.5319L112.887 29.708ZM118.42 29.2124L105.665 33.3439L106.987 37.4256L119.742 33.2941L132.497 29.1626L131.175 25.0809L118.42 29.2124ZM119.742 33.2941L115.611 20.5388C115.16 20.6847 114.941 20.685 114.941 20.685C114.94 20.685 114.987 20.6851 115.074 20.7008C115.162 20.7166 115.279 20.7461 115.414 20.798L110.617 33.3182L105.82 45.8383C111.798 48.1288 118.13 47.9097 123.874 46.0493L119.742 33.2941ZM110.617 33.3182L99.265 26.1845L96.1961 31.0684L107.548 38.202L118.901 45.3357L121.97 40.4518L110.617 33.3182ZM107.024 24.0528L94.2691 28.1843C95.392 31.651 97.3503 35.2114 100.566 38.0706L109.475 28.0508L118.384 18.031C119.462 18.9895 119.764 19.873 119.78 19.9213L107.024 24.0528ZM109.475 28.0508L120.574 35.5727L122.042 33.4059L110.944 25.8839L99.8446 18.362L98.3761 20.5289L109.475 28.0508ZM110.944 25.8839L122.056 33.3863C123.307 31.5327 124.746 28.9779 125.444 25.7798C126.205 22.2949 125.882 19.0081 124.934 16.0813L112.179 20.2128L99.4238 24.3443C99.2786 23.8963 99.1208 23.2421 99.0689 22.4289C99.016 21.6 99.0854 20.7953 99.2452 20.0632C99.5459 18.6849 100.066 18.0345 99.8314 18.3816L110.944 25.8839ZM112.179 20.2128L124.934 16.0813C124.017 13.2499 122.112 9.70763 118.446 7.15205C114.339 4.28933 109.195 3.53448 104.379 5.09433L108.51 17.8496L112.642 30.6048C109.561 31.6028 105.961 31.1367 103.111 29.1496C100.701 27.4697 99.7625 25.39 99.4238 24.3443L112.179 20.2128ZM108.51 17.8496L104.379 5.09433C99.0155 6.83152 94.812 11.0984 93.4724 16.9506C92.4287 21.5105 93.4556 25.6727 94.2691 28.1843L107.024 24.0528L119.78 19.9213C119.494 19.0401 120.18 20.4518 119.612 22.9338C119.273 24.4137 118.496 26.1978 117.001 27.7967C115.524 29.3752 113.881 30.2034 112.642 30.6048L108.51 17.8496ZM142.64 69.7227L131.625 77.3668L142.64 69.7227ZM143.313 70.692L150.957 81.7071C153.878 79.6798 155.875 76.575 156.507 73.0757C157.139 69.5764 156.355 65.9693 154.328 63.0479L143.313 70.692ZM140.229 72.8324L129.213 80.4765C133.435 86.56 141.789 88.0692 147.873 83.8475L140.229 72.8324ZM139.709 72.0833L128.694 79.7274L139.709 72.0833ZM138.792 71.1855L143.924 58.7989C140.484 57.3735 136.606 57.4431 133.219 58.9911C129.832 60.539 127.241 63.4258 126.068 66.9599L138.792 71.1855ZM137.728 72.3806L145.372 83.3958L137.728 72.3806ZM129.792 70.446L137.779 59.6763C132.381 55.6738 124.855 56.2849 120.173 61.1056C115.492 65.9263 115.103 73.4677 119.262 78.7452L129.792 70.446ZM118.257 67.7453L110.613 56.7302C104.529 60.9519 103.02 69.3059 107.242 75.3894L118.257 67.7453ZM121.341 65.605L132.356 57.9609C128.135 51.8774 119.781 50.3681 113.697 54.5898L121.341 65.605ZM128.61 73.2575L136.254 84.2726L128.61 73.2575ZM123.804 65.626L114.248 56.221C109.129 61.4222 109.11 69.7624 114.205 74.987L123.804 65.626ZM125.527 63.8755L135.689 55.1295C133.244 52.2883 129.721 50.6005 125.974 50.4753C122.228 50.3501 118.6 51.799 115.971 54.4706L125.527 63.8755ZM131.295 70.0237L122.359 80.02C126.985 84.1543 133.842 84.5757 138.939 81.0388L131.295 70.0237ZM132.176 69.4121L139.82 80.4273C143.401 77.9419 145.551 73.8705 145.583 69.5113C145.615 65.1521 143.526 61.0493 139.982 58.5113L132.176 69.4121ZM139.729 67.5975L126.327 67.2259C126.125 74.5166 131.787 80.6316 139.072 80.9891L139.729 67.5975ZM135.502 68.7029L143.147 79.718L135.502 68.7029ZM131.39 62.7768L139.034 73.7919L131.39 62.7768ZM142.64 69.7227L131.625 77.3668L132.298 78.3361L143.313 70.692L154.328 63.0479L153.655 62.0786L142.64 69.7227ZM143.313 70.692L135.669 59.6769L132.584 61.8172L140.229 72.8324L147.873 83.8475L150.957 81.7071L143.313 70.692ZM140.229 72.8324L151.244 65.1883L150.724 64.4392L139.709 72.0833L128.694 79.7274L129.213 80.4765L140.229 72.8324ZM139.709 72.0833L150.724 64.4392C150.688 64.3879 150.057 63.4423 149.182 62.4919C148.255 61.4852 146.542 59.8838 143.924 58.7989L138.792 71.1855L133.66 83.5721C131.454 82.658 130.085 81.3403 129.456 80.6572C128.879 80.0304 128.5 79.4483 128.694 79.7274L139.709 72.0833ZM138.792 71.1855L126.068 66.9599C126.502 65.6518 127.042 64.7355 127.298 64.3256C127.614 63.8182 127.923 63.4122 128.187 63.0973C128.707 62.479 129.329 61.8896 130.084 61.3655L137.728 72.3806L145.372 83.3958C146.722 82.4589 147.834 81.3991 148.715 80.3501C149.356 79.5879 150.699 77.8718 151.516 75.4111L138.792 71.1855ZM137.728 72.3806L130.084 61.3655C131.368 60.4747 132.896 59.8909 134.488 59.7042C135.992 59.5279 137.15 59.7503 137.781 59.9273C138.799 60.2128 138.898 60.5065 137.779 59.6763L129.792 70.446L121.806 81.2156C123.847 82.729 126.867 84.7163 130.54 85.7463C134.718 86.9182 140.275 86.9332 145.372 83.3958L137.728 72.3806ZM129.792 70.446L119.262 78.7452C119.599 79.1723 118.733 78.3205 118.41 76.2384C118.217 74.9997 118.195 73.0948 119.034 70.973C119.903 68.772 121.347 67.2328 122.678 66.309L130.322 77.3241L137.967 88.3393C140.476 86.5976 142.682 84.0929 143.972 80.828C145.231 77.6423 145.288 74.5751 144.907 72.1247C144.208 67.6191 141.898 64.146 140.323 62.1467L129.792 70.446ZM130.322 77.3241L122.678 66.309C123.347 65.8448 124.394 65.2655 125.804 64.9084C127.261 64.5392 128.757 64.4972 130.159 64.7414C131.502 64.9753 132.495 65.424 133.092 65.7562C133.673 66.0791 133.984 66.35 134.018 66.3795C134.021 66.3817 133.61 66.0025 132.664 64.792C131.765 63.642 130.677 62.1264 129.272 60.1012L118.257 67.7453L107.242 75.3894C109.867 79.1719 113.012 83.6422 116.399 86.5944C118.209 88.1716 121.287 90.4151 125.558 91.159C130.438 92.009 134.76 90.5647 137.967 88.3393L130.322 77.3241ZM118.257 67.7453L125.901 78.7605L128.985 76.6201L121.341 65.605L113.697 54.5898L110.613 56.7302L118.257 67.7453ZM121.341 65.605L110.326 73.2491C112.571 76.4841 114.726 79.5899 116.584 81.5852C117.373 82.4326 119.711 84.9181 123.449 86.1568C128.791 87.9268 133.446 86.2216 136.254 84.2726L128.61 73.2575L120.966 62.2423C121.816 61.6524 123.354 60.7554 125.508 60.3217C127.806 59.8589 130.012 60.0824 131.883 60.7023C133.582 61.2652 134.729 62.0603 135.281 62.4861C135.849 62.9237 136.169 63.2689 136.208 63.3108C136.25 63.3556 135.992 63.0731 135.231 62.0341C134.523 61.0674 133.608 59.7641 132.356 57.9609L121.341 65.605ZM128.61 73.2575L136.254 84.2726C138.91 82.4297 141.047 79.6265 141.964 76.1188C142.797 72.9326 142.358 70.1894 141.902 68.5068C141.068 65.4292 139.407 63.1202 138.664 62.1262C136.966 59.8518 134.574 57.4666 133.403 56.2649L123.804 65.626L114.205 74.987C115.975 76.8025 116.803 77.6674 117.179 78.1717C117.474 78.5669 116.564 77.5294 116.019 75.5173C115.708 74.3675 115.297 72.1056 116.02 69.3382C116.828 66.2492 118.718 63.8024 120.966 62.2423L128.61 73.2575ZM123.804 65.626L133.359 75.0309L135.082 73.2805L125.527 63.8755L115.971 54.4706L114.248 56.221L123.804 65.626ZM125.527 63.8755L115.364 72.6215C117.329 74.9043 119.72 77.6608 122.359 80.02L131.295 70.0237L140.23 60.0274C139.087 59.0057 137.769 57.5468 135.689 55.1295L125.527 63.8755ZM131.295 70.0237L138.939 81.0388L139.82 80.4273L132.176 69.4121L124.532 58.397L123.65 59.0085L131.295 70.0237ZM132.176 69.4121L139.982 58.5113C139.178 57.9353 139.757 57.9845 140.31 59.5232C140.643 60.4499 141.09 62.3643 140.452 64.7755C139.764 67.3788 138.182 69.1608 136.808 70.1142L129.164 59.099L121.52 48.0839C118.318 50.3061 115.662 53.6285 114.527 57.9242C113.443 62.0279 114.067 65.787 115.075 68.5915C116.977 73.8856 120.892 77.8224 124.37 80.313L132.176 69.4121ZM129.164 59.099L136.808 70.1142C135.735 70.8592 134.258 71.4785 132.516 71.6217C130.822 71.7609 129.431 71.4066 128.499 71.0143C126.862 70.3255 126.496 69.5062 126.846 70.01L137.861 62.3659L148.876 54.7218C146.795 51.7228 143.546 48.2534 138.901 46.2985C133.592 44.0643 127.118 44.1989 121.52 48.0839L129.164 59.099ZM137.861 62.3659L126.846 70.01C126.959 70.1721 126.843 70.0459 126.69 69.6351C126.529 69.2018 126.295 68.3638 126.327 67.2259L139.729 67.5975L153.132 67.9691C153.291 62.2166 150.892 57.6267 148.876 54.7218L137.861 62.3659ZM139.729 67.5975L139.072 80.9891C136.021 80.8393 133.882 79.4869 132.815 78.5937C131.89 77.8193 131.47 77.1441 131.625 77.3668L142.64 69.7227L153.655 62.0786C153.16 61.3653 148.897 54.6236 140.386 54.206L139.729 67.5975ZM131.978 66.7752L120.963 74.4193C122.054 75.9923 124.227 78.8516 127.774 80.6866C129.786 81.7281 132.449 82.5433 135.546 82.3609C138.664 82.1774 141.239 81.0415 143.147 79.718L135.502 68.7029L127.858 57.6878C129.292 56.693 131.374 55.7448 133.971 55.5919C136.548 55.4402 138.663 56.129 140.097 56.8707C142.485 58.1062 143.369 59.6729 142.993 59.1311L131.978 66.7752ZM135.502 68.7029L143.147 79.718C145.094 78.3664 147.042 76.3321 148.286 73.4986C149.517 70.6941 149.69 67.9496 149.432 65.7219C148.972 61.7592 147.078 58.7157 145.945 57.0824L134.93 64.7265L123.915 72.3706C124.249 72.8523 123.104 71.4759 122.795 68.8122C122.612 67.2339 122.711 65.0469 123.733 62.7177C124.769 60.3594 126.373 58.7184 127.858 57.6878L135.502 68.7029ZM134.93 64.7265L145.945 57.0824C144.805 55.4395 142.63 52.6283 139.121 50.8114C137.157 49.7942 134.542 48.9738 131.483 49.1209C128.375 49.2704 125.746 50.3737 123.746 51.7616L131.39 62.7768L139.034 73.7919C137.497 74.8587 135.357 75.7809 132.771 75.9053C130.233 76.0274 128.171 75.3381 126.792 74.6241C124.454 73.4139 123.587 71.8987 123.915 72.3706L134.93 64.7265ZM131.39 62.7768L123.746 51.7616C121.787 53.1207 119.815 55.1785 118.569 58.0607C117.337 60.9096 117.197 63.6802 117.475 65.8983C117.967 69.8231 119.864 72.8361 120.963 74.4193L131.978 66.7752L142.993 59.1311C142.624 58.5993 143.753 59.9419 144.082 62.5605C144.278 64.1255 144.206 66.3342 143.182 68.7022C142.144 71.1035 140.519 72.7615 139.034 73.7919L131.39 62.7768ZM139.401 88.0375L129.043 79.5244C124.341 85.2452 125.167 93.6941 130.888 98.3958L139.401 88.0375ZM149.917 78.8741L158.678 68.7245C158.657 68.707 158.637 68.6896 158.617 68.6723L149.917 78.8741ZM156.638 84.6754L166.996 93.1884C171.618 87.5652 170.909 79.2818 165.399 74.5259L156.638 84.6754ZM154.254 87.5758L145.502 97.7325C148.237 100.089 151.806 101.243 155.403 100.934C159 100.625 162.32 98.8779 164.613 96.0888L154.254 87.5758ZM149.032 83.0758L157.785 72.919C155.05 70.5623 151.48 69.408 147.883 69.7174C144.286 70.0268 140.966 71.7736 138.674 74.5628L149.032 83.0758ZM142.716 90.7616L134.203 101.12C136.95 103.378 140.481 104.452 144.02 104.106C147.559 103.76 150.816 102.022 153.074 99.2746L142.716 90.7616ZM139.401 88.0375L149.759 96.5505L157.063 87.6631L146.705 79.15L136.347 70.637L129.043 79.5244L139.401 88.0375ZM146.705 79.15L157.063 87.6631C155.968 88.996 153.437 91.2415 149.373 91.5857C145.332 91.9279 142.488 90.1598 141.217 89.0759L149.917 78.8741L158.617 68.6723C156.223 66.6312 152.242 64.4314 147.11 64.866C141.954 65.3026 138.379 68.1647 136.347 70.637L146.705 79.15ZM149.917 78.8741L141.156 89.0237L147.877 94.825L156.638 84.6754L165.399 74.5259L158.678 68.7245L149.917 78.8741ZM156.638 84.6754L146.28 76.1624L143.896 79.0627L154.254 87.5758L164.613 96.0888L166.996 93.1884L156.638 84.6754ZM154.254 87.5758L163.007 77.419L157.785 72.919L149.032 83.0758L140.28 93.2325L145.502 97.7325L154.254 87.5758ZM149.032 83.0758L138.674 74.5628L132.357 82.2486L142.716 90.7616L153.074 99.2746L159.391 91.5888L149.032 83.0758ZM142.716 90.7616L151.229 80.4033L147.914 77.6792L139.401 88.0375L130.888 98.3958L134.203 101.12L142.716 90.7616ZM156.557 94.8158L169.929 93.8488L156.557 94.8158ZM156.557 94.8158L169.929 93.8488C169.961 94.2808 169.938 95.1099 169.573 96.1473C169.199 97.2081 168.57 98.1853 167.771 98.9675C166.222 100.485 164.774 100.62 164.639 100.63L163.672 87.2573L162.705 73.8845C158.318 74.2018 153.142 75.763 149.013 79.8058C144.587 84.1381 142.763 89.9643 143.184 95.7828L156.557 94.8158ZM163.672 87.2573L164.639 100.63C164.473 100.642 163.013 100.707 161.264 99.4276C160.363 98.7685 159.604 97.8936 159.084 96.9009C158.575 95.9296 158.433 95.1146 158.402 94.6823L171.775 93.7154L185.147 92.7484C184.727 86.9313 182.086 81.4349 177.097 77.7854C172.438 74.3771 167.097 73.567 162.705 73.8845L163.672 87.2573ZM171.775 93.7154L158.402 94.6823C158.372 94.2668 158.392 93.4515 158.751 92.4241C159.12 91.3728 159.742 90.397 160.54 89.6114C162.091 88.0844 163.554 87.938 163.721 87.9259L164.688 101.299L165.655 114.671C170.047 114.354 175.224 112.783 179.349 108.724C183.762 104.381 185.567 98.5547 185.147 92.7484L171.775 93.7154ZM164.688 101.299L163.721 87.9259C163.856 87.9162 165.317 87.8418 167.074 89.1284C167.98 89.791 168.739 90.6688 169.256 91.6595C169.762 92.6274 169.899 93.4334 169.929 93.8488L156.557 94.8158L143.184 95.7828C143.604 101.59 146.23 107.103 151.237 110.767C155.912 114.189 161.267 114.989 165.655 114.671L164.688 101.299ZM160.836 94.5064L147.463 95.4733C147.732 99.1906 149.224 103.949 153.553 107.41C157.686 110.714 162.315 111.149 165.384 110.927L164.417 97.5543L163.45 84.1816C164.486 84.1067 167.407 84.154 170.298 86.4657C173.387 88.9348 174.104 92.0955 174.209 93.5394L160.836 94.5064ZM164.417 97.5543L165.384 110.927C168.48 110.703 172.991 109.587 176.588 105.718C180.345 101.678 181.137 96.7742 180.868 93.0578L167.495 94.0248L154.123 94.9918C154.018 93.5488 154.274 90.337 156.952 87.4571C159.471 84.7486 162.36 84.2604 163.45 84.1816L164.417 97.5543ZM167.495 94.0248L180.868 93.0578C180.597 89.3096 179.082 84.5793 174.781 81.1421C170.675 77.8615 166.072 77.4051 162.976 77.6289L163.943 91.0017L164.91 104.374C163.82 104.453 160.912 104.385 158.041 102.091C154.973 99.6396 154.231 96.4934 154.123 94.9918L167.495 94.0248ZM163.943 91.0017L162.976 77.6289C159.908 77.8508 155.41 78.9446 151.803 82.7775C148.011 86.8059 147.192 91.7241 147.463 95.4733L160.836 94.5064L174.209 93.5394C174.317 95.042 174.035 98.2814 171.33 101.156C168.808 103.835 165.946 104.3 164.91 104.374L163.943 91.0017ZM172.5 90.6844L162.351 81.9232C159.815 84.8614 158.676 88.7546 159.23 92.5965C159.783 96.4384 161.975 99.8519 165.238 101.955L172.5 90.6844ZM175.181 87.5788L182.453 76.3145C176.835 72.6873 169.402 73.7552 165.032 78.8175L175.181 87.5788ZM185.759 94.4074L178.487 105.672C184.106 109.299 191.538 108.231 195.908 103.169L185.759 94.4074ZM186.46 93.5955L196.609 102.357C201.164 97.0804 200.916 89.194 196.039 84.2141L186.46 93.5955ZM177.705 84.6558L167.555 75.8946C163.001 81.1709 163.249 89.0574 168.126 94.0373L177.705 84.6558ZM183.557 77.8762L191.44 67.0303C185.801 62.9324 177.963 63.8385 173.408 69.1149L183.557 77.8762ZM193.679 85.2326L185.797 96.0785C191.436 100.176 199.274 99.2702 203.828 93.9939L193.679 85.2326ZM194.38 84.4206L204.529 93.1819C208.892 88.1277 208.872 80.6334 204.481 75.6034L194.38 84.4206ZM186.098 74.9329L175.949 66.1717C171.586 71.2259 171.606 78.7202 175.997 83.7502L186.098 74.9329ZM188.761 71.8476L198.85 63.0171C196.294 60.0963 192.597 58.4267 188.716 58.44C184.834 58.4533 181.149 60.1481 178.612 63.0863L188.761 71.8476ZM197.768 82.1377L207.917 90.899C212.285 85.8397 212.259 78.3364 207.857 73.3072L197.768 82.1377ZM191.915 88.9173L184.033 99.7632C189.672 103.861 197.51 102.955 202.065 97.6786L191.915 88.9173ZM181.793 81.561L189.676 70.7151C184.037 66.6171 176.199 67.5233 171.644 72.7997L181.793 81.561ZM181.092 82.3729L170.943 73.6116C166.388 78.888 166.636 86.7744 171.514 91.7543L181.092 82.3729ZM189.848 91.3125L199.997 100.074C204.552 94.7974 204.304 86.911 199.427 81.9311L189.848 91.3125ZM183.995 98.0922L176.732 109.362C182.35 112.983 189.777 111.913 194.144 106.853L183.995 98.0922ZM172.5 90.6844L182.65 99.4457L185.331 96.3401L175.181 87.5788L165.032 78.8175L162.351 81.9232L172.5 90.6844ZM175.181 87.5788L167.91 98.8431L178.487 105.672L185.759 94.4074L193.031 83.1431L182.453 76.3145L175.181 87.5788ZM185.759 94.4074L195.908 103.169L196.609 102.357L186.46 93.5955L176.311 84.8342L175.61 85.6461L185.759 94.4074ZM186.46 93.5955L196.039 84.2141L187.284 75.2744L177.705 84.6558L168.126 94.0373L176.881 102.977L186.46 93.5955ZM177.705 84.6558L187.854 93.4171L193.706 86.6375L183.557 77.8762L173.408 69.1149L167.555 75.8946L177.705 84.6558ZM183.557 77.8762L175.675 88.7221L185.797 96.0785L193.679 85.2326L201.562 74.3867L191.44 67.0303L183.557 77.8762ZM193.679 85.2326L203.828 93.9939L204.529 93.1819L194.38 84.4206L184.231 75.6593L183.53 76.4713L193.679 85.2326ZM194.38 84.4206L204.481 75.6034L196.199 66.1157L186.098 74.9329L175.997 83.7502L184.28 93.2379L194.38 84.4206ZM186.098 74.9329L196.247 83.6942L198.911 80.6089L188.761 71.8476L178.612 63.0863L175.949 66.1717L186.098 74.9329ZM188.761 71.8476L178.672 80.6781L187.679 90.9682L197.768 82.1377L207.857 73.3072L198.85 63.0171L188.761 71.8476ZM197.768 82.1377L187.619 73.3764L181.766 80.156L191.915 88.9173L202.065 97.6786L207.917 90.899L197.768 82.1377ZM191.915 88.9173L199.798 78.0714L189.676 70.7151L181.793 81.561L173.911 92.4069L184.033 99.7632L191.915 88.9173ZM181.793 81.561L171.644 72.7997L170.943 73.6116L181.092 82.3729L191.242 91.1342L191.942 90.3222L181.793 81.561ZM181.092 82.3729L171.514 91.7543L180.269 100.694L189.848 91.3125L199.427 81.9311L190.671 72.9915L181.092 82.3729ZM189.848 91.3125L179.699 82.5512L173.846 89.3309L183.995 98.0922L194.144 106.853L199.997 100.074L189.848 91.3125ZM183.995 98.0922L191.258 86.8221L179.763 79.4143L172.5 90.6844L165.238 101.955L176.732 109.362L183.995 98.0922ZM204.608 64.3369L200.976 77.2432C204.519 78.2403 208.317 77.737 211.478 75.8511C214.639 73.9652 216.886 70.8627 217.691 67.271L204.608 64.3369ZM205.701 59.4631L209.334 46.5568C205.79 45.5596 201.993 46.063 198.832 47.9489C195.671 49.8348 193.424 52.9373 192.619 56.529L205.701 59.4631ZM209.315 60.4801L222.351 63.6156C224.036 56.6103 219.883 49.5258 212.947 47.5738L209.315 60.4801ZM207.677 67.2898L220.707 70.4507C220.709 70.4422 220.711 70.4338 220.713 70.4253L207.677 67.2898ZM197.38 66.7597L201.012 53.8534C197.589 52.8901 193.924 53.326 190.822 55.0652C187.721 56.8044 185.437 59.7045 184.474 63.1275L197.38 66.7597ZM196.508 69.8572L192.876 82.7635C196.299 83.7269 199.964 83.291 203.066 81.5518C206.168 79.8125 208.451 76.9125 209.415 73.4895L196.508 69.8572ZM192.895 68.8402L179.988 65.2079C177.982 72.3359 182.134 79.7405 189.262 81.7465L192.895 68.8402ZM193.766 65.7427L206.673 69.3749C208.679 62.247 204.527 54.8424 197.399 52.8364L193.766 65.7427ZM191.314 65.0526L177.912 65.4353C178.079 71.2972 182.037 76.3702 187.682 77.9589L191.314 65.0526ZM191.186 60.5593L194.818 47.653C190.712 46.4975 186.302 47.3645 182.939 49.988C179.576 52.6115 177.662 56.6785 177.784 60.942L191.186 60.5593ZM194.929 61.6127L191.296 74.519C194.719 75.4823 198.385 75.0464 201.486 73.3072C204.588 71.568 206.872 68.6679 207.835 65.2449L194.929 61.6127ZM196.135 57.3278L199.767 44.4215C196.344 43.4582 192.678 43.8941 189.577 45.6333C186.475 47.3725 184.192 50.2726 183.228 53.6955L196.135 57.3278ZM199.748 58.3448L212.655 61.9771C213.618 58.5541 213.182 54.8887 211.443 51.7871C209.704 48.6855 206.804 46.4019 203.381 45.4385L199.748 58.3448ZM198.542 62.6297L185.636 58.9975C184.673 62.4204 185.109 66.0859 186.848 69.1874C188.587 72.289 191.487 74.5727 194.91 75.536L198.542 62.6297ZM204.608 64.3369L217.691 67.271L218.784 62.3972L205.701 59.4631L192.619 56.529L191.526 61.4027L204.608 64.3369ZM205.701 59.4631L202.069 72.3694L205.683 73.3864L209.315 60.4801L212.947 47.5738L209.334 46.5568L205.701 59.4631ZM209.315 60.4801L196.279 57.3447L194.641 64.1544L207.677 67.2898L220.713 70.4253L222.351 63.6156L209.315 60.4801ZM207.677 67.2898L194.648 64.129C195.109 62.2269 196.565 59.0218 200.217 57.0152C203.727 55.0867 206.976 55.5317 208.498 55.9601L204.866 68.8664L201.233 81.7727C204.176 82.6007 208.656 82.9746 213.13 80.5164C217.746 77.9802 219.898 73.787 220.707 70.4507L207.677 67.2898ZM204.866 68.8664L208.498 55.9601L201.012 53.8534L197.38 66.7597L193.748 79.666L201.233 81.7727L204.866 68.8664ZM197.38 66.7597L184.474 63.1275L183.602 66.225L196.508 69.8572L209.415 73.4895L210.286 70.392L197.38 66.7597ZM196.508 69.8572L200.141 56.9509L196.527 55.9339L192.895 68.8402L189.262 81.7465L192.876 82.7635L196.508 69.8572ZM192.895 68.8402L205.801 72.4725L206.673 69.3749L193.766 65.7427L180.86 62.1104L179.988 65.2079L192.895 68.8402ZM193.766 65.7427L197.399 52.8364L194.946 52.1463L191.314 65.0526L187.682 77.9589L190.134 78.649L193.766 65.7427ZM191.314 65.0526L204.716 64.6699L204.588 60.1766L191.186 60.5593L177.784 60.942L177.912 65.4353L191.314 65.0526ZM191.186 60.5593L187.554 73.4656L191.296 74.519L194.929 61.6127L198.561 48.7064L194.818 47.653L191.186 60.5593ZM194.929 61.6127L207.835 65.2449L209.041 60.96L196.135 57.3278L183.228 53.6955L182.022 57.9804L194.929 61.6127ZM196.135 57.3278L192.502 70.2341L196.116 71.2511L199.748 58.3448L203.381 45.4385L199.767 44.4215L196.135 57.3278ZM199.748 58.3448L186.842 54.7126L185.636 58.9975L198.542 62.6297L211.449 66.262L212.655 61.9771L199.748 58.3448ZM198.542 62.6297L194.91 75.536L200.976 77.2432L204.608 64.3369L208.241 51.4306L202.175 49.7234L198.542 62.6297ZM202.095 35.055L215.01 38.6544L202.095 35.055ZM216.888 33.4154L229.803 37.0149C231.791 29.8819 227.62 22.4879 220.487 20.5L216.888 33.4154ZM215.736 37.5484L212.136 50.4638C219.269 52.4518 226.663 48.2809 228.651 41.1479L215.736 37.5484ZM209.33 35.763L205.73 48.6785L209.33 35.763ZM213.951 43.9544L226.866 47.5539C228.854 40.4209 224.683 33.0269 217.55 31.039L213.951 43.9544ZM212.799 48.0874L209.199 61.0029C216.332 62.9908 223.726 58.8199 225.714 51.6869L212.799 48.0874ZM193.813 42.7961L180.897 39.1966C178.91 46.3297 183.08 53.7237 190.213 55.7116L193.813 42.7961ZM194.965 38.6632L198.564 25.7477C195.139 24.7931 191.475 25.2383 188.377 26.9853C185.28 28.7324 183.004 31.6383 182.049 35.0637L194.965 38.6632ZM202.482 40.7581L209.981 29.6437C208.786 28.8377 207.469 28.2295 206.081 27.8426L202.482 40.7581ZM204.59 42.1809L197.091 53.2954C200.664 55.7059 205.178 56.252 209.222 54.7632C213.267 53.2743 216.349 49.932 217.506 45.7804L204.59 42.1809ZM204.878 41.1477L217.794 44.7472C219.481 38.6937 216.737 32.2807 211.194 29.3206L204.878 41.1477ZM202.095 35.055L215.01 38.6544C214.632 40.0108 213.369 42.3558 210.556 43.692C209.329 44.2754 208.222 44.45 207.455 44.4728C206.713 44.4948 206.282 44.3782 206.236 44.3656L209.836 31.4501L213.435 18.5346C209.418 17.4151 204.179 17.034 199.048 19.4717C193.605 22.058 190.486 26.7669 189.179 31.4555L202.095 35.055ZM209.836 31.4501L206.236 44.3656L213.288 46.3309L216.888 33.4154L220.487 20.5L213.435 18.5346L209.836 31.4501ZM216.888 33.4154L203.972 29.8159L202.82 33.9489L215.736 37.5484L228.651 41.1479L229.803 37.0149L216.888 33.4154ZM215.736 37.5484L219.335 24.6329L212.929 22.8476L209.33 35.763L205.73 48.6785L212.136 50.4638L215.736 37.5484ZM209.33 35.763L212.929 22.8476C211.191 22.363 206.424 21.1369 201.31 23.3488C195.245 25.9716 193.125 31.2816 192.385 33.9357L205.301 37.5352L218.216 41.1347C218.031 41.7997 216.737 45.8925 211.954 47.961C209.913 48.8439 208.14 48.9189 207.166 48.8746C206.671 48.8521 206.299 48.7955 206.083 48.7561C205.865 48.7161 205.74 48.6813 205.73 48.6785L209.33 35.763ZM205.301 37.5352L192.385 33.9357C191.449 37.2932 190.956 42.751 194.454 47.983C197.61 52.7043 202.348 54.6395 205.521 55.5237L209.12 42.6082L212.72 29.6928C212.224 29.5547 214.739 30.077 216.746 33.0792C219.095 36.5921 218.525 40.0245 218.216 41.1347L205.301 37.5352ZM209.12 42.6082L205.521 55.5237L210.351 56.8699L213.951 43.9544L217.55 31.039L212.72 29.6928L209.12 42.6082ZM213.951 43.9544L201.035 40.355L199.883 44.4879L212.799 48.0874L225.714 51.6869L226.866 47.5539L213.951 43.9544ZM212.799 48.0874L216.398 35.1719L197.412 29.8807L193.813 42.7961L190.213 55.7116L209.199 61.0029L212.799 48.0874ZM193.813 42.7961L206.728 46.3956L207.88 42.2627L194.965 38.6632L182.049 35.0637L180.897 39.1966L193.813 42.7961ZM194.965 38.6632L191.365 51.5787L198.882 53.6736L202.482 40.7581L206.081 27.8426L198.564 25.7477L194.965 38.6632ZM202.482 40.7581L194.983 51.8725L197.091 53.2954L204.59 42.1809L212.089 31.0665L209.981 29.6437L202.482 40.7581ZM204.59 42.1809L217.506 45.7804L217.794 44.7472L204.878 41.1477L191.963 37.5482L191.675 38.5814L204.59 42.1809ZM204.878 41.1477L211.194 29.3206C212.008 29.7553 213.372 30.7431 214.341 32.6582C215.415 34.7819 215.468 37.0106 215.01 38.6544L202.095 35.055L189.179 31.4555C187.943 35.8891 188.298 40.5818 190.413 44.7633C192.423 48.7363 195.568 51.3756 198.563 52.9748L204.878 41.1477Z" fill="#36692C" mask="url(#path-1-outside-1_483_874)"/>
</svg>
