<svg width="218" height="47" viewBox="0 0 218 47" fill="none" xmlns="http://www.w3.org/2000/svg">
<mask id="path-1-outside-1_483_877" maskUnits="userSpaceOnUse" x="-0.396973" y="-0.693359" width="219" height="48" fill="black">
<rect fill="white" x="-0.396973" y="-0.693359" width="219" height="48"/>
<path d="M30.8643 28.1045C30.8643 31.3491 28.585 33.5748 22.766 33.5748C15.9549 33.5748 13.4075 30.786 13.4075 26.0129H17.6979C17.6979 28.9089 19.146 29.8206 22.9001 29.8206C25.6621 29.8206 26.5738 29.1771 26.5738 28.1581C26.5738 26.7905 24.2677 26.1738 21.5057 25.2352C17.5102 23.8945 14.2656 22.8218 14.2656 19.1213C14.2656 15.9035 16.813 14.1337 21.6934 14.1337C27.4855 14.1337 30.0866 17.0834 30.0866 20.8375H25.7962C25.7962 18.5314 24.0264 17.8878 21.6934 17.8878C19.7627 17.8878 18.556 18.3169 18.556 19.2822C18.556 20.1403 19.0119 20.4621 22.042 21.4811C25.528 22.661 30.8643 24.1626 30.8643 28.1045ZM32.2159 26.5224C32.2159 21.8029 35.5947 19.4967 39.8583 19.4967C44.0951 19.4967 47.4739 21.8029 47.4739 26.5224C47.4739 31.2687 44.0951 33.5748 39.8583 33.5748C35.5947 33.5748 32.2159 31.2687 32.2159 26.5224ZM36.5064 26.5224C36.5064 28.8017 37.8203 29.8206 39.8583 29.8206C41.8695 29.8206 43.1834 28.8017 43.1834 26.5224C43.1834 24.2699 41.8695 23.2509 39.8583 23.2509C37.8203 23.2509 36.5064 24.2699 36.5064 26.5224ZM48.8184 26.5224C48.8184 22.0174 51.9022 19.4967 56.2194 19.4967C59.9199 19.4967 63.2987 21.5079 63.4864 25.3693H59.1959C59.035 24.1626 57.9356 23.2509 56.2194 23.2509C54.1815 23.2509 53.1088 24.4576 53.1088 26.5224C53.1088 28.614 54.1815 29.8206 56.2194 29.8206C57.9356 29.8206 59.035 28.9089 59.1959 27.7022H63.4864C63.2987 31.5636 59.9199 33.5748 56.2194 33.5748C51.9022 33.5748 48.8184 31.0542 48.8184 26.5224ZM70.1075 18.4241C68.5254 18.4241 67.5868 17.6733 67.5868 16.2789C67.5868 14.9113 68.5254 14.1337 70.1075 14.1337C71.6896 14.1337 72.6817 14.9113 72.6817 16.2789C72.6817 17.6733 71.6896 18.4241 70.1075 18.4241ZM64.5567 33.3066V29.5525H68.3913V23.3582L65.093 23.519V19.7649L70.1879 19.4967C71.6896 19.4163 72.5208 20.2476 72.5208 21.7492V29.5525H76.3554V33.3066H64.5567ZM77.7025 29.6061C77.7025 27.2732 79.0969 25.9056 83.1192 25.3425L87.3828 24.7525C87.3828 23.6531 86.5247 22.9827 84.6745 22.9827C82.9583 22.9827 81.993 23.7067 81.993 24.9403H77.9706C77.9706 21.5079 80.8935 19.4967 84.6745 19.4967C88.4018 19.4967 91.6733 21.2934 91.6733 25.7447V29.5525H93.6308V33.3066H90.6543C89.3672 33.3066 88.6432 32.5826 88.6432 31.2955V31.0273L89.3135 29.4184H88.2409C87.7314 31.6709 86.4175 33.5748 82.6365 33.5748C78.4265 33.5748 77.7025 31.0005 77.7025 29.6061ZM81.993 28.8017C81.993 29.5793 82.7438 29.8206 83.4678 29.8206C85.8275 29.8206 87.3828 28.8285 87.3828 27.1659L83.9237 27.6486C82.6365 27.8363 81.993 28.024 81.993 28.8017ZM94.6915 33.3066V29.5525H98.4456V17.1906L95.2278 17.3515V13.5974L100.403 13.4097C101.905 13.356 102.736 14.1605 102.736 15.6621V29.5525H106.49V33.3066H94.6915ZM116.157 33.3066V14.4018H124.604L127.366 32.234H128.439L131.201 14.4018H139.648V33.3066H135.357V18.156L136.162 15.4744H135.089L132.059 33.3066H123.746L120.716 15.4744H119.643L120.448 18.156V33.3066H116.157ZM141.258 26.3615C141.258 22.071 144.181 19.4967 148.391 19.4967C152.601 19.4967 155.551 21.9906 155.551 26.0933V27.4341H145.28C145.28 28.9894 146.407 30.0888 148.847 30.0888C150.348 30.0888 151.475 29.5525 151.743 28.5335H156.033C155.765 30.491 153.539 33.5748 148.847 33.5748C143.645 33.5748 141.258 30.1961 141.258 26.3615ZM145.28 25.0207H151.528C151.528 24.0017 150.777 22.9827 148.391 22.9827C146.004 22.9827 145.28 24.0017 145.28 25.0207ZM173.13 33.3066H168.84V32.4754L169.644 30.062H168.572C167.875 31.8586 166.587 33.5748 163.235 33.5748C159.32 33.5748 157.363 30.357 157.363 26.5224C157.363 22.6878 159.32 19.4967 163.235 19.4967C166.587 19.4967 167.875 21.2129 168.572 23.0096H169.644L168.84 20.5962V13.5974H173.13V33.3066ZM168.84 26.5224C168.84 24.2431 167.553 23.2509 165.247 23.2509C162.94 23.2509 161.653 24.2431 161.653 26.5224C161.653 28.8017 162.94 29.8206 165.247 29.8206C167.553 29.8206 168.84 28.8017 168.84 26.5224ZM180.852 18.4241C179.27 18.4241 178.331 17.6733 178.331 16.2789C178.331 14.9113 179.27 14.1337 180.852 14.1337C182.434 14.1337 183.426 14.9113 183.426 16.2789C183.426 17.6733 182.434 18.4241 180.852 18.4241ZM175.301 33.3066V29.5525H179.135V23.3582L175.837 23.519V19.7649L180.932 19.4967C182.434 19.4163 183.265 20.2476 183.265 21.7492V29.5525H187.1V33.3066H175.301ZM188.447 29.6061C188.447 27.2732 189.841 25.9056 193.863 25.3425L198.127 24.7525C198.127 23.6531 197.269 22.9827 195.419 22.9827C193.703 22.9827 192.737 23.7067 192.737 24.9403H188.715C188.715 21.5079 191.638 19.4967 195.419 19.4967C199.146 19.4967 202.417 21.2934 202.417 25.7447V29.5525H204.375V33.3066H201.399C200.111 33.3066 199.387 32.5826 199.387 31.2955V31.0273L200.058 29.4184H198.985C198.476 31.6709 197.162 33.5748 193.381 33.5748C189.171 33.5748 188.447 31.0005 188.447 29.6061ZM192.737 28.8017C192.737 29.5793 193.488 29.8206 194.212 29.8206C196.572 29.8206 198.127 28.8285 198.127 27.1659L194.668 27.6486C193.381 27.8363 192.737 28.024 192.737 28.8017Z"/>
</mask>
<path d="M30.8643 28.1045C30.8643 31.3491 28.585 33.5748 22.766 33.5748C15.9549 33.5748 13.4075 30.786 13.4075 26.0129H17.6979C17.6979 28.9089 19.146 29.8206 22.9001 29.8206C25.6621 29.8206 26.5738 29.1771 26.5738 28.1581C26.5738 26.7905 24.2677 26.1738 21.5057 25.2352C17.5102 23.8945 14.2656 22.8218 14.2656 19.1213C14.2656 15.9035 16.813 14.1337 21.6934 14.1337C27.4855 14.1337 30.0866 17.0834 30.0866 20.8375H25.7962C25.7962 18.5314 24.0264 17.8878 21.6934 17.8878C19.7627 17.8878 18.556 18.3169 18.556 19.2822C18.556 20.1403 19.0119 20.4621 22.042 21.4811C25.528 22.661 30.8643 24.1626 30.8643 28.1045ZM32.2159 26.5224C32.2159 21.8029 35.5947 19.4967 39.8583 19.4967C44.0951 19.4967 47.4739 21.8029 47.4739 26.5224C47.4739 31.2687 44.0951 33.5748 39.8583 33.5748C35.5947 33.5748 32.2159 31.2687 32.2159 26.5224ZM36.5064 26.5224C36.5064 28.8017 37.8203 29.8206 39.8583 29.8206C41.8695 29.8206 43.1834 28.8017 43.1834 26.5224C43.1834 24.2699 41.8695 23.2509 39.8583 23.2509C37.8203 23.2509 36.5064 24.2699 36.5064 26.5224ZM48.8184 26.5224C48.8184 22.0174 51.9022 19.4967 56.2194 19.4967C59.9199 19.4967 63.2987 21.5079 63.4864 25.3693H59.1959C59.035 24.1626 57.9356 23.2509 56.2194 23.2509C54.1815 23.2509 53.1088 24.4576 53.1088 26.5224C53.1088 28.614 54.1815 29.8206 56.2194 29.8206C57.9356 29.8206 59.035 28.9089 59.1959 27.7022H63.4864C63.2987 31.5636 59.9199 33.5748 56.2194 33.5748C51.9022 33.5748 48.8184 31.0542 48.8184 26.5224ZM70.1075 18.4241C68.5254 18.4241 67.5868 17.6733 67.5868 16.2789C67.5868 14.9113 68.5254 14.1337 70.1075 14.1337C71.6896 14.1337 72.6817 14.9113 72.6817 16.2789C72.6817 17.6733 71.6896 18.4241 70.1075 18.4241ZM64.5567 33.3066V29.5525H68.3913V23.3582L65.093 23.519V19.7649L70.1879 19.4967C71.6896 19.4163 72.5208 20.2476 72.5208 21.7492V29.5525H76.3554V33.3066H64.5567ZM77.7025 29.6061C77.7025 27.2732 79.0969 25.9056 83.1192 25.3425L87.3828 24.7525C87.3828 23.6531 86.5247 22.9827 84.6745 22.9827C82.9583 22.9827 81.993 23.7067 81.993 24.9403H77.9706C77.9706 21.5079 80.8935 19.4967 84.6745 19.4967C88.4018 19.4967 91.6733 21.2934 91.6733 25.7447V29.5525H93.6308V33.3066H90.6543C89.3672 33.3066 88.6432 32.5826 88.6432 31.2955V31.0273L89.3135 29.4184H88.2409C87.7314 31.6709 86.4175 33.5748 82.6365 33.5748C78.4265 33.5748 77.7025 31.0005 77.7025 29.6061ZM81.993 28.8017C81.993 29.5793 82.7438 29.8206 83.4678 29.8206C85.8275 29.8206 87.3828 28.8285 87.3828 27.1659L83.9237 27.6486C82.6365 27.8363 81.993 28.024 81.993 28.8017ZM94.6915 33.3066V29.5525H98.4456V17.1906L95.2278 17.3515V13.5974L100.403 13.4097C101.905 13.356 102.736 14.1605 102.736 15.6621V29.5525H106.49V33.3066H94.6915ZM116.157 33.3066V14.4018H124.604L127.366 32.234H128.439L131.201 14.4018H139.648V33.3066H135.357V18.156L136.162 15.4744H135.089L132.059 33.3066H123.746L120.716 15.4744H119.643L120.448 18.156V33.3066H116.157ZM141.258 26.3615C141.258 22.071 144.181 19.4967 148.391 19.4967C152.601 19.4967 155.551 21.9906 155.551 26.0933V27.4341H145.28C145.28 28.9894 146.407 30.0888 148.847 30.0888C150.348 30.0888 151.475 29.5525 151.743 28.5335H156.033C155.765 30.491 153.539 33.5748 148.847 33.5748C143.645 33.5748 141.258 30.1961 141.258 26.3615ZM145.28 25.0207H151.528C151.528 24.0017 150.777 22.9827 148.391 22.9827C146.004 22.9827 145.28 24.0017 145.28 25.0207ZM173.13 33.3066H168.84V32.4754L169.644 30.062H168.572C167.875 31.8586 166.587 33.5748 163.235 33.5748C159.32 33.5748 157.363 30.357 157.363 26.5224C157.363 22.6878 159.32 19.4967 163.235 19.4967C166.587 19.4967 167.875 21.2129 168.572 23.0096H169.644L168.84 20.5962V13.5974H173.13V33.3066ZM168.84 26.5224C168.84 24.2431 167.553 23.2509 165.247 23.2509C162.94 23.2509 161.653 24.2431 161.653 26.5224C161.653 28.8017 162.94 29.8206 165.247 29.8206C167.553 29.8206 168.84 28.8017 168.84 26.5224ZM180.852 18.4241C179.27 18.4241 178.331 17.6733 178.331 16.2789C178.331 14.9113 179.27 14.1337 180.852 14.1337C182.434 14.1337 183.426 14.9113 183.426 16.2789C183.426 17.6733 182.434 18.4241 180.852 18.4241ZM175.301 33.3066V29.5525H179.135V23.3582L175.837 23.519V19.7649L180.932 19.4967C182.434 19.4163 183.265 20.2476 183.265 21.7492V29.5525H187.1V33.3066H175.301ZM188.447 29.6061C188.447 27.2732 189.841 25.9056 193.863 25.3425L198.127 24.7525C198.127 23.6531 197.269 22.9827 195.419 22.9827C193.703 22.9827 192.737 23.7067 192.737 24.9403H188.715C188.715 21.5079 191.638 19.4967 195.419 19.4967C199.146 19.4967 202.417 21.2934 202.417 25.7447V29.5525H204.375V33.3066H201.399C200.111 33.3066 199.387 32.5826 199.387 31.2955V31.0273L200.058 29.4184H198.985C198.476 31.6709 197.162 33.5748 193.381 33.5748C189.171 33.5748 188.447 31.0005 188.447 29.6061ZM192.737 28.8017C192.737 29.5793 193.488 29.8206 194.212 29.8206C196.572 29.8206 198.127 28.8285 198.127 27.1659L194.668 27.6486C193.381 27.8363 192.737 28.024 192.737 28.8017Z" fill="#A1C4FF"/>
<path d="M13.4075 26.0129V12.6052C6.00264 12.6052 -0.000180244 18.608 -0.000180244 26.0129H13.4075ZM17.6979 26.0129H31.1056C31.1056 18.608 25.1028 12.6052 17.6979 12.6052V26.0129ZM21.5057 25.2352L25.8195 12.5405C25.8034 12.535 25.7873 12.5296 25.7712 12.5241L21.5057 25.2352ZM30.0866 20.8375V34.2452C37.4915 34.2452 43.4943 28.2424 43.4943 20.8375H30.0866ZM25.7962 20.8375H12.3885C12.3885 28.2424 18.3913 34.2452 25.7962 34.2452V20.8375ZM22.042 21.4811L26.3405 8.78112C26.3322 8.77832 26.3239 8.77552 26.3156 8.77274L22.042 21.4811ZM30.8643 28.1045H17.4566C17.4566 27.3493 17.5918 26.1321 18.2277 24.7441C18.8919 23.294 19.8972 22.1127 21.0107 21.287C23.0028 19.8096 24.3203 20.1671 22.766 20.1671V33.5748V46.9825C27.0307 46.9825 32.3973 46.2272 36.9839 42.8258C42.2608 38.9124 44.2719 33.2096 44.2719 28.1045H30.8643ZM22.766 33.5748V20.1671C20.8108 20.1671 22.3045 19.705 24.3293 21.4653C25.4019 22.3978 26.107 23.5304 26.4858 24.5536C26.827 25.4755 26.8152 26.0594 26.8152 26.0129H13.4075H-0.000180244C-0.000180244 30.7318 1.32323 36.9966 6.7359 41.7022C11.7372 46.0502 17.9102 46.9825 22.766 46.9825V33.5748ZM13.4075 26.0129V39.4205H17.6979V26.0129V12.6052H13.4075V26.0129ZM17.6979 26.0129H4.29027C4.29027 29.5782 5.26479 35.7733 11.1316 39.9368C15.6605 43.1509 20.7619 43.2283 22.9001 43.2283V29.8206V16.413C22.42 16.413 22.5786 16.3764 23.0946 16.478C23.6168 16.5809 25.0435 16.928 26.6509 18.0687C28.4447 19.3418 29.7356 21.0858 30.4548 22.9087C31.0843 24.504 31.1056 25.7219 31.1056 26.0129H17.6979ZM22.9001 29.8206V43.2283C24.8163 43.2283 28.3367 43.0898 31.7968 41.3496C33.7759 40.3543 36.0339 38.6833 37.7237 36.0082C39.4358 33.2979 39.9815 30.4799 39.9815 28.1581H26.5738H13.1662C13.1662 26.3458 13.5979 23.9904 15.0527 21.6873C16.4853 19.4194 18.3427 18.1004 19.7486 17.3933C22.0624 16.2297 23.7459 16.413 22.9001 16.413V29.8206ZM26.5738 28.1581H39.9815C39.9815 23.5451 37.871 20.0414 35.749 17.8748C33.8977 15.9847 31.9109 14.9445 30.8774 14.4484C28.9975 13.5461 26.4604 12.7583 25.8195 12.5405L21.5057 25.2352L17.192 37.93C18.1837 38.267 18.4549 38.3484 19.0418 38.5534C19.5211 38.7208 19.5017 38.7326 19.2736 38.6231C19.1619 38.5695 17.9242 37.9986 16.5917 36.6381C14.9883 35.001 13.1662 32.0873 13.1662 28.1581H26.5738ZM21.5057 25.2352L25.7712 12.5241C24.6748 12.1562 24.1137 11.9644 23.6746 11.7885C23.2423 11.6153 23.4745 11.666 23.9676 12.004C24.5297 12.3893 25.5998 13.2629 26.4775 14.7996C27.3969 16.4094 27.6732 17.9894 27.6732 19.1213H14.2656H0.85791C0.85791 22.1035 1.53984 25.2053 3.19247 28.0988C4.80338 30.9193 6.93437 32.8387 8.80712 34.1224C11.9974 36.3091 15.8618 37.4837 17.2403 37.9463L21.5057 25.2352ZM14.2656 19.1213H27.6732C27.6732 20.1103 27.4681 21.5367 26.6864 23.0711C25.8895 24.6352 24.7623 25.7806 23.669 26.5213C21.7595 27.8148 20.5197 27.5413 21.6934 27.5413V14.1337V0.726006C17.9868 0.726006 13.033 1.33746 8.62969 4.32035C3.42852 7.84373 0.85791 13.4035 0.85791 19.1213H14.2656ZM21.6934 14.1337V27.5413C22.4294 27.5413 21.0017 27.7211 19.2157 26.1528C17.2464 24.4237 16.679 22.185 16.679 20.8375H30.0866H43.4943C43.4943 15.7359 41.6264 10.1453 36.9085 6.00273C32.3739 2.02114 26.7496 0.726006 21.6934 0.726006V14.1337ZM30.0866 20.8375V7.42984H25.7962V20.8375V34.2452H30.0866V20.8375ZM25.7962 20.8375H39.2038C39.2038 15.5722 36.7857 10.2235 31.6174 7.06123C27.6694 4.64555 23.5893 4.48015 21.6934 4.48015V17.8878V31.2955C21.682 31.2955 21.5973 31.2953 21.4523 31.2835C21.309 31.2718 21.0681 31.2458 20.7515 31.184C20.1688 31.0703 18.9872 30.7699 17.6219 29.9345C16.1449 29.0308 14.653 27.6146 13.6177 25.6467C12.6151 23.7412 12.3885 21.9825 12.3885 20.8375H25.7962ZM21.6934 17.8878V4.48015C20.1063 4.48015 17.2065 4.60308 14.2114 5.8603C10.7396 7.31761 5.14836 11.4779 5.14836 19.2822H18.556H31.9637C31.9637 22.0824 31.0026 24.8744 29.1715 27.123C27.5171 29.1548 25.6541 30.1391 24.59 30.5857C23.5015 31.0426 22.6511 31.1902 22.297 31.2411C22.0876 31.2712 21.932 31.284 21.841 31.2897C21.7485 31.2955 21.6975 31.2955 21.6934 31.2955V17.8878ZM18.556 19.2822H5.14836C5.14836 20.6578 5.31974 23.3322 6.87812 26.217C8.41107 29.0547 10.5376 30.7205 11.9396 31.617C14.0957 32.9957 16.6813 33.8238 17.7684 34.1894L22.042 21.4811L26.3156 8.77274C25.6154 8.53727 25.3004 8.42019 25.1831 8.37345C24.9823 8.29342 25.5643 8.50028 26.3858 9.02563C27.2951 9.60707 29.1183 10.9678 30.4711 13.472C31.8493 16.0233 31.9637 18.3357 31.9637 19.2822H18.556ZM22.042 21.4811L17.7436 34.181C18.9064 34.5746 19.4754 34.7502 20.2184 35.0265C20.8898 35.2761 21.113 35.4008 21.087 35.3859C21.0524 35.3661 20.8618 35.255 20.5816 35.0294C20.3008 34.8032 19.8608 34.4062 19.391 33.8019C18.9097 33.1828 18.4034 32.353 18.0255 31.3124C17.6418 30.2557 17.4566 29.1611 17.4566 28.1045H30.8643H44.2719C44.2719 18.8605 37.6556 13.977 34.4338 12.1281C31.2208 10.2843 27.3583 9.12561 26.3405 8.78112L22.042 21.4811ZM32.2159 26.5224H45.6236C45.6236 26.9555 45.5414 27.7808 45.1021 28.7892C44.6528 29.8203 43.9556 30.7496 43.1022 31.4721C41.447 32.8736 39.9934 32.9044 39.8583 32.9044V19.4967V6.08907C35.4595 6.08907 30.1848 7.27291 25.7743 11.0073C21.0479 15.0093 18.8083 20.6887 18.8083 26.5224H32.2159ZM39.8583 19.4967V32.9044C39.6918 32.9044 38.2311 32.8643 36.5787 31.4617C35.7276 30.7393 35.0333 29.8119 34.586 28.7843C34.1484 27.7788 34.0662 26.9557 34.0662 26.5224H47.4739H60.8815C60.8815 20.6901 58.6435 15.0175 53.9311 11.0178C49.5301 7.28227 44.2616 6.08907 39.8583 6.08907V19.4967ZM47.4739 26.5224H34.0662C34.0662 26.1057 34.1448 25.294 34.5777 24.2952C35.0206 23.2732 35.7113 22.3448 36.5642 21.6188C38.2219 20.2077 39.6916 20.1671 39.8583 20.1671V33.5748V46.9825C44.2618 46.9825 49.5393 45.7888 53.9456 42.0381C58.6609 38.0243 60.8815 32.3439 60.8815 26.5224H47.4739ZM39.8583 33.5748V20.1671C39.9936 20.1671 41.4561 20.1983 43.1167 21.6083C43.9718 22.3345 44.6655 23.2648 45.1104 24.2903C45.545 25.2921 45.6236 26.1059 45.6236 26.5224H32.2159H18.8083C18.8083 32.3452 21.0305 38.0326 25.7599 42.0486C30.1756 45.7982 35.4594 46.9825 39.8583 46.9825V33.5748ZM36.5064 26.5224H23.0987C23.0987 30.2493 24.2435 35.1026 28.3122 38.8674C32.196 42.461 36.7818 43.2283 39.8583 43.2283V29.8206V16.413C40.8968 16.413 43.8067 16.6708 46.524 19.1851C49.4263 21.8705 49.9141 25.0747 49.9141 26.5224H36.5064ZM39.8583 29.8206V43.2283C42.9623 43.2283 47.5419 42.4402 51.4092 38.8412C55.4479 35.0826 56.5911 30.2484 56.5911 26.5224H43.1834H29.7757C29.7757 25.0756 30.2619 21.8906 33.1409 19.2113C35.8484 16.6916 38.7655 16.413 39.8583 16.413V29.8206ZM43.1834 26.5224H56.5911C56.5911 22.7644 55.4208 17.9371 51.3786 14.1987C47.5205 10.6305 42.962 9.84322 39.8583 9.84322V23.2509V36.6586C38.7658 36.6586 35.8698 36.3808 33.1714 33.8852C30.289 31.2194 29.7757 28.0279 29.7757 26.5224H43.1834ZM39.8583 23.2509V9.84322C36.782 9.84322 32.2173 10.6099 28.3428 14.1726C24.2707 17.917 23.0987 22.7634 23.0987 26.5224H36.5064H49.9141C49.9141 28.0289 49.399 31.2395 46.4934 33.9113C43.7854 36.4014 40.8967 36.6586 39.8583 36.6586V23.2509ZM63.4864 25.3693V38.777C67.1553 38.777 70.6639 37.2735 73.1945 34.6169C75.725 31.9604 77.0564 28.3829 76.8782 24.7183L63.4864 25.3693ZM59.1959 25.3693L45.9059 27.1413C46.794 33.8023 52.476 38.777 59.1959 38.777V25.3693ZM59.1959 27.7022V14.2946C52.476 14.2946 46.794 19.2692 45.9059 25.9302L59.1959 27.7022ZM63.4864 27.7022L76.8782 28.3532C77.0564 24.6886 75.725 21.1112 73.1945 18.4546C70.6639 15.7981 67.1553 14.2946 63.4864 14.2946V27.7022ZM48.8184 26.5224H62.2261C62.2261 27.4985 61.7857 29.5413 59.9265 31.2342C58.2362 32.7731 56.6027 32.9044 56.2194 32.9044V19.4967V6.08907C51.5189 6.08907 46.1849 7.48066 41.8734 11.4062C37.3929 15.4856 35.4107 21.0413 35.4107 26.5224H48.8184ZM56.2194 19.4967V32.9044C55.8011 32.9044 54.6118 32.812 53.1909 31.7598C52.4334 31.1988 51.6427 30.3762 51.0347 29.267C50.417 28.1399 50.142 26.9961 50.0945 26.0203L63.4864 25.3693L76.8782 24.7183C76.5793 18.5686 73.5435 13.4641 69.1495 10.2102C65.0672 7.18701 60.3383 6.08907 56.2194 6.08907V19.4967ZM63.4864 25.3693V11.9616H59.1959V25.3693V38.777H63.4864V25.3693ZM59.1959 25.3693L72.486 23.5973C71.1979 13.9368 62.674 9.84322 56.2194 9.84322V23.2509V36.6586C54.7355 36.6586 52.4933 36.2543 50.2917 34.6176C48.0019 32.9153 46.3208 30.2529 45.9059 27.1413L59.1959 25.3693ZM56.2194 23.2509V9.84322C52.5266 9.84322 47.7927 11.0089 44.1021 14.9599C40.5483 18.7642 39.7012 23.3012 39.7012 26.5224H53.1088H66.5165C66.5165 27.6787 66.2057 30.58 63.6977 33.2648C61.0529 36.0962 57.8743 36.6586 56.2194 36.6586V23.2509ZM53.1088 26.5224H39.7012C39.7012 29.7157 40.5269 34.2582 44.0748 38.0791C47.7718 42.0604 52.5249 43.2283 56.2194 43.2283V29.8206V16.413C57.876 16.413 61.0738 16.9775 63.725 19.8326C66.2271 22.5272 66.5165 25.4206 66.5165 26.5224H53.1088ZM56.2194 29.8206V43.2283C62.674 43.2283 71.1979 39.1348 72.486 29.4742L59.1959 27.7022L45.9059 25.9302C46.3208 22.8186 48.0019 20.1562 50.2917 18.4539C52.4933 16.8172 54.7355 16.413 56.2194 16.413V29.8206ZM59.1959 27.7022V41.1099H63.4864V27.7022V14.2946H59.1959V27.7022ZM63.4864 27.7022L50.0945 27.0512C50.142 26.0754 50.417 24.9316 51.0347 23.8045C51.6427 22.6954 52.4334 21.8727 53.1909 21.3118C54.6118 20.2595 55.8011 20.1671 56.2194 20.1671V33.5748V46.9825C60.3383 46.9825 65.0672 45.8845 69.1495 42.8613C73.5435 39.6074 76.5793 34.5029 76.8782 28.3532L63.4864 27.7022ZM56.2194 33.5748V20.1671C56.6031 20.1671 58.2453 20.299 59.9403 21.8466C61.8017 23.5461 62.2261 25.583 62.2261 26.5224H48.8184H35.4107C35.4107 31.9935 37.377 37.5566 41.8596 41.6494C46.1757 45.5902 51.5185 46.9825 56.2194 46.9825V33.5748ZM64.5567 33.3066H51.149C51.149 40.7115 57.1518 46.7143 64.5567 46.7143V33.3066ZM64.5567 29.5525V16.1448C57.1518 16.1448 51.149 22.1476 51.149 29.5525H64.5567ZM68.3913 29.5525V42.9602C75.7961 42.9602 81.799 36.9573 81.799 29.5525H68.3913ZM68.3913 23.3582H81.799C81.799 19.6888 80.2951 16.1799 77.6381 13.6493C74.9811 11.1187 71.403 9.78763 67.738 9.96641L68.3913 23.3582ZM65.093 23.519H51.6853C51.6853 27.1883 53.1891 30.6973 55.8462 33.2279C58.5032 35.7585 62.0813 37.0896 65.7463 36.9108L65.093 23.519ZM65.093 19.7649L64.3883 6.37576C57.2672 6.75056 51.6853 12.6339 51.6853 19.7649H65.093ZM70.1879 19.4967L70.8926 32.8859L70.9051 32.8852L70.1879 19.4967ZM72.5209 29.5525H59.1132C59.1132 36.9573 65.116 42.9602 72.5209 42.9602V29.5525ZM76.3554 29.5525H89.7631C89.7631 22.1476 83.7603 16.1448 76.3554 16.1448V29.5525ZM76.3554 33.3066V46.7143C83.7603 46.7143 89.7631 40.7115 89.7631 33.3066H76.3554ZM70.1075 18.4241V5.01646C71.2309 5.01646 74.079 5.26507 76.8607 7.59398C80.0051 10.2265 80.9945 13.7611 80.9945 16.2789H67.5868H54.1792C54.1792 20.1911 55.6378 24.7983 59.647 28.1548C63.2935 31.2078 67.402 31.8318 70.1075 31.8318V18.4241ZM67.5868 16.2789H80.9945C80.9945 18.8735 79.9659 22.3503 76.9073 24.9347C74.1685 27.2489 71.3377 27.5413 70.1075 27.5413V14.1337V0.726006C67.2951 0.726006 63.204 1.40731 59.6004 4.45219C55.6771 7.76726 54.1792 12.3167 54.1792 16.2789H67.5868ZM70.1075 14.1337V27.5413C68.8781 27.5413 66.1592 27.2517 63.4892 25.0635C60.4649 22.5849 59.2741 19.1189 59.2741 16.2789H72.6817H86.0894C86.0894 12.0713 84.4025 7.53268 80.4866 4.32343C76.925 1.40449 72.9189 0.726006 70.1075 0.726006V14.1337ZM72.6817 16.2789H59.2741C59.2741 13.5153 60.4239 9.9933 63.5361 7.46614C66.2483 5.2637 68.9828 5.01646 70.1075 5.01646V18.4241V31.8318C72.8143 31.8318 76.8359 31.2091 80.4397 28.2827C84.4435 25.0315 86.0894 20.4369 86.0894 16.2789H72.6817ZM64.5567 33.3066H77.9644V29.5525H64.5567H51.149V33.3066H64.5567ZM64.5567 29.5525V42.9602H68.3913V29.5525V16.1448H64.5567V29.5525ZM68.3913 29.5525H81.799V23.3582H68.3913H54.9836V29.5525H68.3913ZM68.3913 23.3582L67.738 9.96641L64.4397 10.1273L65.093 23.519L65.7463 36.9108L69.0445 36.7499L68.3913 23.3582ZM65.093 23.519H78.5007V19.7649H65.093H51.6853V23.519H65.093ZM65.093 19.7649L65.7977 33.154L70.8926 32.8859L70.1879 19.4967L69.4832 6.1076L64.3883 6.37576L65.093 19.7649ZM70.1879 19.4967L70.9051 32.8852C69.1085 32.9815 65.5961 32.5909 62.5597 29.6316C59.5865 26.734 59.1132 23.358 59.1132 21.7492H72.5209H85.9285C85.9285 18.6388 85.0396 14.0963 81.2753 10.4278C77.4478 6.69758 72.769 5.93158 69.4707 6.10827L70.1879 19.4967ZM72.5209 21.7492H59.1132V29.5525H72.5209H85.9285V21.7492H72.5209ZM72.5209 29.5525V42.9602H76.3554V29.5525V16.1448H72.5209V29.5525ZM76.3554 29.5525H62.9478V33.3066H76.3554H89.7631V29.5525H76.3554ZM76.3554 33.3066V19.899H64.5567V33.3066V46.7143H76.3554V33.3066ZM83.1192 25.3425L81.2816 12.0613C81.2745 12.0623 81.2673 12.0633 81.2603 12.0643L83.1192 25.3425ZM87.3828 24.7525L89.2205 38.0337C95.8521 37.1161 100.79 31.4473 100.79 24.7525H87.3828ZM81.993 24.9403V38.3479C89.3978 38.3479 95.4006 32.3451 95.4006 24.9403H81.993ZM77.9706 24.9403H64.563C64.563 32.3451 70.5658 38.3479 77.9706 38.3479V24.9403ZM91.6733 29.5525H78.2656C78.2656 36.9573 84.2684 42.9602 91.6733 42.9602V29.5525ZM93.6308 29.5525H107.038C107.038 22.1476 101.036 16.1448 93.6308 16.1448V29.5525ZM93.6308 33.3066V46.7143C101.036 46.7143 107.038 40.7115 107.038 33.3066H93.6308ZM88.6432 31.0273L76.2668 25.8705C75.586 27.5045 75.2355 29.2572 75.2355 31.0273H88.6432ZM89.3135 29.4184L101.69 34.5752C103.414 30.4372 102.956 25.7112 100.469 21.9812C97.9827 18.2512 93.7964 16.0107 89.3135 16.0107V29.4184ZM88.2409 29.4184V16.0107C81.9757 16.0107 76.5458 20.3496 75.1636 26.4605L88.2409 29.4184ZM87.3828 27.1659H100.79C100.79 23.2868 99.1104 19.5978 96.184 17.0514C93.2577 14.505 89.3719 13.3508 85.5299 13.8869L87.3828 27.1659ZM83.9237 27.6486L82.0708 14.3696C82.0434 14.3734 82.0161 14.3773 81.9888 14.3813L83.9237 27.6486ZM77.7025 29.6061H91.1102C91.1102 30.3417 91.0012 31.65 90.3615 33.187C89.6849 34.8126 88.6349 36.1608 87.4458 37.1439C85.4211 38.8179 83.7901 38.787 84.9781 38.6207L83.1192 25.3425L81.2603 12.0643C78.426 12.4611 74.0866 13.3956 70.3592 16.4773C65.767 20.274 64.2948 25.3858 64.2948 29.6061H77.7025ZM83.1192 25.3425L84.9568 38.6236L89.2205 38.0337L87.3828 24.7525L85.5452 11.4714L81.2816 12.0613L83.1192 25.3425ZM87.3828 24.7525H100.79C100.79 20.1767 98.7099 15.4116 94.2936 12.3899C90.6685 9.90955 86.8612 9.57507 84.6745 9.57507V22.9827V36.3904C84.338 36.3904 81.8849 36.3911 79.1514 34.5208C77.6468 33.4913 76.227 31.9955 75.2415 30.036C74.274 28.112 73.9752 26.2416 73.9752 24.7525H87.3828ZM84.6745 22.9827V9.57507C82.1943 9.57507 78.3337 10.0602 74.7476 12.697C70.6029 15.7446 68.5853 20.3824 68.5853 24.9403H81.993H95.4006C95.4006 28.2646 93.8657 31.9237 90.6327 34.3008C87.9583 36.2673 85.4385 36.3904 84.6745 36.3904V22.9827ZM81.993 24.9403V11.5326H77.9706V24.9403V38.3479H81.993V24.9403ZM77.9706 24.9403H91.3783C91.3783 26.0296 91.1348 27.3157 90.4966 28.6018C89.8638 29.8768 88.9925 30.8517 88.1137 31.5322C86.4384 32.8295 85.0091 32.9044 84.6745 32.9044V19.4967V6.08907C80.5589 6.08907 75.7777 7.16952 71.6957 10.3305C67.2876 13.744 64.563 18.9833 64.563 24.9403H77.9706ZM84.6745 19.4967V32.9044C84.6255 32.9044 83.1112 32.9222 81.3039 31.5066C80.3311 30.7446 79.4819 29.7099 78.9203 28.4875C78.3719 27.2937 78.2656 26.2904 78.2656 25.7447H91.6733H105.081C105.081 19.856 102.712 14.2132 97.8393 10.3964C93.4645 6.96959 88.4508 6.08907 84.6745 6.08907V19.4967ZM91.6733 25.7447H78.2656V29.5525H91.6733H105.081V25.7447H91.6733ZM91.6733 29.5525V42.9602H93.6308V29.5525V16.1448H91.6733V29.5525ZM93.6308 29.5525H80.2231V33.3066H93.6308H107.038V29.5525H93.6308ZM93.6308 33.3066V19.899H90.6543V33.3066V46.7143H93.6308V33.3066ZM90.6543 33.3066V19.899C92.4787 19.899 95.7972 20.4536 98.6467 23.3031C101.496 26.1526 102.051 29.4711 102.051 31.2955H88.6432H75.2355C75.2355 34.407 76.1521 38.7311 79.6854 42.2644C83.2187 45.7977 87.5428 46.7143 90.6543 46.7143V33.3066ZM88.6432 31.2955H102.051V31.0273H88.6432H75.2355V31.2955H88.6432ZM88.6432 31.0273L101.019 36.1841L101.69 34.5752L89.3135 29.4184L76.9372 24.2616L76.2668 25.8705L88.6432 31.0273ZM89.3135 29.4184V16.0107H88.2409V29.4184V42.8261H89.3135V29.4184ZM88.2409 29.4184L75.1636 26.4605C75.2469 26.0924 75.7576 24.0721 77.831 22.2558C80.0542 20.3083 82.2481 20.1671 82.6365 20.1671V33.5748V46.9825C86.8059 46.9825 91.5472 45.8893 95.5001 42.4267C99.3031 39.0954 100.725 34.997 101.318 32.3764L88.2409 29.4184ZM82.6365 33.5748V20.1671C83.4 20.1671 86.2912 20.5204 88.7324 23.3433C90.8193 25.7566 91.1102 28.3176 91.1102 29.6061H77.7025H64.2948C64.2948 32.289 64.9477 36.8344 68.4491 40.8834C72.3048 45.3421 77.663 46.9825 82.6365 46.9825V33.5748ZM81.993 28.8017H68.5853C68.5853 34.5571 71.8596 39.0088 75.8523 41.2698C78.9797 43.0407 81.9879 43.2283 83.4678 43.2283V29.8206V16.413C84.2237 16.413 86.4944 16.4799 89.0655 17.9358C90.5037 18.7502 92.2065 20.1073 93.5217 22.2318C94.8733 24.4152 95.4006 26.7432 95.4006 28.8017H81.993ZM83.4678 29.8206V43.2283C86.2873 43.2283 90.1506 42.6705 93.7475 40.2726C97.8471 37.5395 100.79 32.845 100.79 27.1659H87.3828H73.9752C73.9752 25.4216 74.4028 23.5235 75.3996 21.7402C76.3795 19.9871 77.6759 18.7589 78.873 17.9609C81.1023 16.4747 83.008 16.413 83.4678 16.413V29.8206ZM87.3828 27.1659L85.5299 13.8869L82.0708 14.3696L83.9237 27.6486L85.7765 40.9276L89.2357 40.4449L87.3828 27.1659ZM83.9237 27.6486L81.9888 14.3813C81.7356 14.4182 78.95 14.723 76.2822 16.1125C74.5831 16.9974 72.3788 18.5739 70.7151 21.2601C69.0367 23.97 68.5853 26.7152 68.5853 28.8017H81.993H95.4006C95.4006 30.4993 95.0296 32.9294 93.5121 35.3795C92.0093 37.806 90.0464 39.178 88.6691 39.8954C87.4111 40.5506 86.3875 40.7946 86.117 40.8575C85.7952 40.9324 85.6275 40.9496 85.8585 40.9159L83.9237 27.6486ZM94.6915 33.3066H81.2838C81.2838 40.7115 87.2866 46.7143 94.6915 46.7143V33.3066ZM94.6915 29.5525V16.1448C87.2866 16.1448 81.2838 22.1476 81.2838 29.5525H94.6915ZM98.4456 29.5525V42.9602C105.85 42.9602 111.853 36.9573 111.853 29.5525H98.4456ZM98.4456 17.1906H111.853C111.853 13.5185 110.347 10.0071 107.687 7.47613C105.026 4.94521 101.444 3.61631 97.7761 3.79968L98.4456 17.1906ZM95.2278 17.3515H81.8201C81.8201 21.0236 83.3262 24.5351 85.9869 27.066C88.6475 29.5969 92.2298 30.9258 95.8973 30.7425L95.2278 17.3515ZM95.2278 13.5974L94.7418 0.198509C87.5308 0.460049 81.8201 6.38164 81.8201 13.5974H95.2278ZM100.403 13.4097L99.9246 0.0105324L99.9172 0.0108032L100.403 13.4097ZM102.736 29.5525H89.3284C89.3284 36.9573 95.3312 42.9602 102.736 42.9602V29.5525ZM106.49 29.5525H119.898C119.898 22.1476 113.895 16.1448 106.49 16.1448V29.5525ZM106.49 33.3066V46.7143C113.895 46.7143 119.898 40.7115 119.898 33.3066H106.49ZM94.6915 33.3066H108.099V29.5525H94.6915H81.2838V33.3066H94.6915ZM94.6915 29.5525V42.9602H98.4456V29.5525V16.1448H94.6915V29.5525ZM98.4456 29.5525H111.853V17.1906H98.4456H85.038V29.5525H98.4456ZM98.4456 17.1906L97.7761 3.79968L94.5582 3.96058L95.2278 17.3515L95.8973 30.7425L99.1152 30.5816L98.4456 17.1906ZM95.2278 17.3515H108.635V13.5974H95.2278H81.8201V17.3515H95.2278ZM95.2278 13.5974L95.7138 26.9962L100.889 26.8085L100.403 13.4097L99.9172 0.0108032L94.7418 0.198509L95.2278 13.5974ZM100.403 13.4097L100.882 26.8088C99.244 26.8673 95.8216 26.4982 92.8169 23.5954C89.8151 20.6952 89.3284 17.293 89.3284 15.6621H102.736H116.144C116.144 12.5296 115.241 7.97433 111.449 4.30999C107.653 0.642891 103.064 -0.101585 99.9246 0.0105324L100.403 13.4097ZM102.736 15.6621H89.3284V29.5525H102.736H116.144V15.6621H102.736ZM102.736 29.5525V42.9602H106.49V29.5525V16.1448H102.736V29.5525ZM106.49 29.5525H93.0826V33.3066H106.49H119.898V29.5525H106.49ZM106.49 33.3066V19.899H94.6915V33.3066V46.7143H106.49V33.3066ZM116.157 33.3066H102.75C102.75 40.7115 108.753 46.7143 116.157 46.7143V33.3066ZM116.157 14.4018V0.99416C108.753 0.99416 102.75 6.99698 102.75 14.4018H116.157ZM124.604 14.4018L137.854 12.3496C136.842 5.81507 131.217 0.99416 124.604 0.99416V14.4018ZM127.366 32.234L114.116 34.2862C115.129 40.8208 120.754 45.6417 127.366 45.6417V32.234ZM128.439 32.234V45.6417C135.051 45.6417 140.676 40.8208 141.688 34.2862L128.439 32.234ZM131.201 14.4018V0.99416C124.588 0.99416 118.963 5.81507 117.951 12.3496L131.201 14.4018ZM139.648 14.4018H153.055C153.055 6.99698 147.052 0.99416 139.648 0.99416V14.4018ZM139.648 33.3066V46.7143C147.052 46.7143 153.055 40.7115 153.055 33.3066H139.648ZM135.357 33.3066H121.949C121.949 40.7115 127.952 46.7143 135.357 46.7143V33.3066ZM135.357 18.156L122.515 14.3033C122.14 15.5532 121.949 16.8511 121.949 18.156H135.357ZM136.162 15.4744L149.004 19.3271C150.222 15.2676 149.448 10.8713 146.918 7.471C144.389 4.07068 140.4 2.06677 136.162 2.06677V15.4744ZM135.089 15.4744V2.06677C128.551 2.06677 122.966 6.7826 121.871 13.2283L135.089 15.4744ZM132.059 33.3066V46.7143C138.597 46.7143 144.182 41.9985 145.277 35.5527L132.059 33.3066ZM123.746 33.3066L110.528 35.5527C111.623 41.9985 117.208 46.7143 123.746 46.7143V33.3066ZM120.716 15.4744L133.934 13.2283C132.839 6.7826 127.254 2.06677 120.716 2.06677V15.4744ZM119.643 15.4744V2.06677C115.405 2.06677 111.416 4.07068 108.886 7.47099C106.357 10.8713 105.583 15.2676 106.801 19.3271L119.643 15.4744ZM120.448 18.156H133.855C133.855 16.8511 133.665 15.5532 133.29 14.3033L120.448 18.156ZM120.448 33.3066V46.7143C127.853 46.7143 133.855 40.7115 133.855 33.3066H120.448ZM116.157 33.3066H129.565V14.4018H116.157H102.75V33.3066H116.157ZM116.157 14.4018V27.8095H124.604V14.4018V0.99416H116.157V14.4018ZM124.604 14.4018L111.355 16.454L114.116 34.2862L127.366 32.234L140.616 30.1818L137.854 12.3496L124.604 14.4018ZM127.366 32.234V45.6417H128.439V32.234V18.8264H127.366V32.234ZM128.439 32.234L141.688 34.2862L144.45 16.454L131.201 14.4018L117.951 12.3496L115.189 30.1818L128.439 32.234ZM131.201 14.4018V27.8095H139.648V14.4018V0.99416H131.201V14.4018ZM139.648 14.4018H126.24V33.3066H139.648H153.055V14.4018H139.648ZM139.648 33.3066V19.899H135.357V33.3066V46.7143H139.648V33.3066ZM135.357 33.3066H148.765V18.156H135.357H121.949V33.3066H135.357ZM135.357 18.156L148.199 22.0086L149.004 19.3271L136.162 15.4744L123.319 11.6218L122.515 14.3033L135.357 18.156ZM136.162 15.4744V2.06677H135.089V15.4744V28.8821H136.162V15.4744ZM135.089 15.4744L121.871 13.2283L118.841 31.0605L132.059 33.3066L145.277 35.5527L148.307 17.7205L135.089 15.4744ZM132.059 33.3066V19.899H123.746V33.3066V46.7143H132.059V33.3066ZM123.746 33.3066L136.964 31.0605L133.934 13.2283L120.716 15.4744L107.498 17.7205L110.528 35.5527L123.746 33.3066ZM120.716 15.4744V2.06677H119.643V15.4744V28.8821H120.716V15.4744ZM119.643 15.4744L106.801 19.3271L107.606 22.0086L120.448 18.156L133.29 14.3033L132.486 11.6218L119.643 15.4744ZM120.448 18.156H107.04V33.3066H120.448H133.855V18.156H120.448ZM120.448 33.3066V19.899H116.157V33.3066V46.7143H120.448V33.3066ZM155.551 27.4341V40.8417C162.955 40.8417 168.958 34.8389 168.958 27.4341H155.551ZM145.28 27.4341V14.0264C137.875 14.0264 131.873 20.0292 131.873 27.4341H145.28ZM151.743 28.5335V15.1258C145.652 15.1258 140.327 19.2312 138.777 25.1214L151.743 28.5335ZM156.033 28.5335L169.317 30.3532C169.843 26.5157 168.683 22.6384 166.137 19.7197C163.591 16.8009 159.907 15.1258 156.033 15.1258V28.5335ZM145.28 25.0207H131.873C131.873 32.4256 137.875 38.4284 145.28 38.4284V25.0207ZM151.528 25.0207V38.4284C158.933 38.4284 164.936 32.4256 164.936 25.0207H151.528ZM141.258 26.3615H154.666C154.666 27.3969 154.223 29.4047 152.422 31.0959C150.727 32.6871 148.996 32.9044 148.391 32.9044V19.4967V6.08907C143.575 6.08907 138.279 7.59352 134.07 11.5445C129.754 15.5954 127.85 21.0356 127.85 26.3615H141.258ZM148.391 19.4967V32.9044C147.902 32.9044 146.268 32.7399 144.585 31.2263C142.74 29.5678 142.143 27.4509 142.143 26.0933H155.551H168.958C168.958 20.6329 166.886 15.2178 162.514 11.2867C158.304 7.50049 153.089 6.08907 148.391 6.08907V19.4967ZM155.551 26.0933H142.143V27.4341H155.551H168.958V26.0933H155.551ZM155.551 27.4341V14.0264H145.28V27.4341V40.8417H155.551V27.4341ZM145.28 27.4341H131.873C131.873 31.7134 133.585 36.4639 137.773 39.8143C141.558 42.8422 145.833 43.4965 148.847 43.4965V30.0888V16.6811C149.42 16.6811 151.912 16.7857 154.524 18.875C157.539 21.2869 158.688 24.71 158.688 27.4341H145.28ZM148.847 30.0888V43.4965C152.001 43.4965 161.995 42.2596 164.709 31.9457L151.743 28.5335L138.777 25.1214C139.781 21.3062 142.384 18.9354 144.572 17.7978C146.529 16.7801 148.163 16.6811 148.847 16.6811V30.0888ZM151.743 28.5335V41.9412H156.033V28.5335V15.1258H151.743V28.5335ZM156.033 28.5335L142.75 26.7138C143.104 24.1258 144.309 22.5269 145.338 21.639C146.667 20.4914 148.071 20.1671 148.847 20.1671V33.5748V46.9825C160.117 46.9825 168.122 39.0721 169.317 30.3532L156.033 28.5335ZM148.847 33.5748V20.1671C149.293 20.1671 151.163 20.4095 152.862 22.2139C154.404 23.8507 154.666 25.573 154.666 26.3615H141.258H127.85C127.85 30.9846 129.306 36.3135 133.341 40.5983C137.534 45.0507 143.199 46.9825 148.847 46.9825V33.5748ZM145.28 25.0207V38.4284H151.528V25.0207V11.613H145.28V25.0207ZM151.528 25.0207H164.936C164.936 20.9851 163.295 16.3454 159.141 13.0794C155.415 10.1495 151.24 9.57507 148.391 9.57507V22.9827V36.3904C147.928 36.3904 145.322 36.3255 142.568 34.1598C139.386 31.6581 138.121 28.0373 138.121 25.0207H151.528ZM148.391 22.9827V9.57507C145.551 9.57507 141.333 10.1458 137.583 13.1357C133.402 16.4683 131.873 21.1302 131.873 25.0207H145.28H158.688C158.688 27.8922 157.52 31.5351 154.298 34.1035C151.507 36.3292 148.844 36.3904 148.391 36.3904V22.9827ZM173.13 33.3066V46.7143C180.535 46.7143 186.538 40.7115 186.538 33.3066H173.13ZM168.84 33.3066H155.432C155.432 40.7115 161.435 46.7143 168.84 46.7143V33.3066ZM168.84 32.4754L156.12 28.2355C155.665 29.6026 155.432 31.0343 155.432 32.4754H168.84ZM169.644 30.062L182.364 34.3019C183.727 30.2132 183.041 25.7187 180.521 22.2224C178.001 18.7261 173.954 16.6543 169.644 16.6543V30.062ZM168.572 30.062V16.6543C163.039 16.6543 158.074 20.0532 156.072 25.2114L168.572 30.062ZM168.572 23.0096L156.072 27.8601C158.074 33.0184 163.039 36.4172 168.572 36.4172V23.0096ZM169.644 23.0096V36.4172C173.954 36.4172 178.001 34.3455 180.521 30.8492C183.041 27.3529 183.727 22.8583 182.364 18.7697L169.644 23.0096ZM168.84 20.5962H155.432C155.432 22.0373 155.665 23.4689 156.12 24.836L168.84 20.5962ZM168.84 13.5974V0.189701C161.435 0.189701 155.432 6.19252 155.432 13.5974H168.84ZM173.13 13.5974H186.538C186.538 6.19252 180.535 0.189701 173.13 0.189701V13.5974ZM173.13 33.3066V19.899H168.84V33.3066V46.7143H173.13V33.3066ZM168.84 33.3066H182.248V32.4754H168.84H155.432V33.3066H168.84ZM168.84 32.4754L181.559 36.7152L182.364 34.3019L169.644 30.062L156.925 25.8221L156.12 28.2355L168.84 32.4754ZM169.644 30.062V16.6543H168.572V30.062V43.4697H169.644V30.062ZM168.572 30.062L156.072 25.2114C156.175 24.9467 156.809 23.3755 158.591 21.9687C160.562 20.4131 162.498 20.1671 163.235 20.1671V33.5748V46.9825C167.325 46.9825 171.581 45.8784 175.207 43.0156C178.645 40.3015 180.271 36.9739 181.071 34.9125L168.572 30.062ZM163.235 33.5748V20.1671C164.134 20.1671 165.329 20.3629 166.591 20.9844C167.849 21.6044 168.819 22.4736 169.493 23.3576C170.751 25.0074 170.771 26.3553 170.771 26.5224H157.363H143.955C143.955 30.524 144.953 35.3981 148.169 39.6155C151.708 44.2576 157.135 46.9825 163.235 46.9825V33.5748ZM157.363 26.5224H170.771C170.771 26.6911 170.75 28.0609 169.473 29.7275C168.79 30.6185 167.814 31.4848 166.558 32.0992C165.301 32.7141 164.117 32.9044 163.235 32.9044V19.4967V6.08907C157.177 6.08907 151.748 8.77276 148.189 13.4157C144.955 17.6364 143.955 22.519 143.955 26.5224H157.363ZM163.235 19.4967V32.9044C162.498 32.9044 160.562 32.6585 158.591 31.1029C156.809 29.696 156.175 28.1249 156.072 27.8601L168.572 23.0096L181.071 18.159C180.271 16.0976 178.645 12.77 175.207 10.056C171.581 7.1931 167.325 6.08907 163.235 6.08907V19.4967ZM168.572 23.0096V36.4172H169.644V23.0096V9.60188H168.572V23.0096ZM169.644 23.0096L182.364 18.7697L181.559 16.3563L168.84 20.5962L156.12 24.836L156.925 27.2494L169.644 23.0096ZM168.84 20.5962H182.248V13.5974H168.84H155.432V20.5962H168.84ZM168.84 13.5974V27.005H173.13V13.5974V0.189701H168.84V13.5974ZM173.13 13.5974H159.723V33.3066H173.13H186.538V13.5974H173.13ZM168.84 26.5224H182.248C182.248 22.8607 181.135 17.7835 176.729 13.9347C172.676 10.3941 168.01 9.84322 165.247 9.84322V23.2509V36.6586C164.789 36.6586 161.92 36.6038 159.087 34.1291C155.901 31.3461 155.432 27.9047 155.432 26.5224H168.84ZM165.247 23.2509V9.84322C162.483 9.84322 157.817 10.3941 153.764 13.9347C149.358 17.7835 148.246 22.8607 148.246 26.5224H161.653H175.061C175.061 27.9047 174.592 31.3461 171.406 34.1291C168.574 36.6038 165.704 36.6586 165.247 36.6586V23.2509ZM161.653 26.5224H148.246C148.246 30.1806 149.354 35.2225 153.702 39.0685C157.735 42.6369 162.407 43.2283 165.247 43.2283V29.8206V16.413C165.78 16.413 168.655 16.4949 171.469 18.9839C174.596 21.7506 175.061 25.1434 175.061 26.5224H161.653ZM165.247 29.8206V43.2283C168.086 43.2283 172.758 42.6369 176.792 39.0685C181.139 35.2225 182.248 30.1806 182.248 26.5224H168.84H155.432C155.432 25.1434 155.897 21.7506 159.024 18.9839C161.838 16.4949 164.713 16.413 165.247 16.413V29.8206ZM175.301 33.3066H161.893C161.893 40.7115 167.896 46.7143 175.301 46.7143V33.3066ZM175.301 29.5525V16.1448C167.896 16.1448 161.893 22.1476 161.893 29.5525H175.301ZM179.135 29.5525V42.9602C186.54 42.9602 192.543 36.9573 192.543 29.5525H179.135ZM179.135 23.3582H192.543C192.543 19.6888 191.039 16.1799 188.382 13.6493C185.725 11.1187 182.147 9.78763 178.482 9.96641L179.135 23.3582ZM175.837 23.519H162.43C162.43 27.1883 163.933 30.6973 166.59 33.2279C169.247 35.7585 172.826 37.0896 176.49 36.9108L175.837 23.519ZM175.837 19.7649L175.132 6.37576C168.011 6.75056 162.43 12.6339 162.43 19.7649H175.837ZM180.932 19.4967L181.637 32.8859L181.649 32.8852L180.932 19.4967ZM183.265 29.5525H169.857C169.857 36.9573 175.86 42.9602 183.265 42.9602V29.5525ZM187.1 29.5525H200.507C200.507 22.1476 194.504 16.1448 187.1 16.1448V29.5525ZM187.1 33.3066V46.7143C194.504 46.7143 200.507 40.7115 200.507 33.3066H187.1ZM180.852 18.4241V5.01646C181.975 5.01646 184.823 5.26507 187.605 7.59398C190.749 10.2265 191.739 13.7611 191.739 16.2789H178.331H164.923C164.923 20.1911 166.382 24.7983 170.391 28.1548C174.038 31.2078 178.146 31.8318 180.852 31.8318V18.4241ZM178.331 16.2789H191.739C191.739 18.8735 190.71 22.3503 187.652 24.9347C184.913 27.2489 182.082 27.5413 180.852 27.5413V14.1337V0.726006C178.039 0.726006 173.948 1.40731 170.345 4.45219C166.421 7.76726 164.923 12.3167 164.923 16.2789H178.331ZM180.852 14.1337V27.5413C179.622 27.5413 176.903 27.2517 174.233 25.0635C171.209 22.5849 170.018 19.1189 170.018 16.2789H183.426H196.834C196.834 12.0713 195.147 7.53268 191.231 4.32343C187.669 1.40449 183.663 0.726006 180.852 0.726006V14.1337ZM183.426 16.2789H170.018C170.018 13.5153 171.168 9.9933 174.28 7.46614C176.993 5.2637 179.727 5.01646 180.852 5.01646V18.4241V31.8318C183.558 31.8318 187.58 31.2091 191.184 28.2827C195.188 25.0315 196.834 20.4369 196.834 16.2789H183.426ZM175.301 33.3066H188.709V29.5525H175.301H161.893V33.3066H175.301ZM175.301 29.5525V42.9602H179.135V29.5525V16.1448H175.301V29.5525ZM179.135 29.5525H192.543V23.3582H179.135H165.728V29.5525H179.135ZM179.135 23.3582L178.482 9.96641L175.184 10.1273L175.837 23.519L176.49 36.9108L179.789 36.7499L179.135 23.3582ZM175.837 23.519H189.245V19.7649H175.837H162.43V23.519H175.837ZM175.837 19.7649L176.542 33.154L181.637 32.8859L180.932 19.4967L180.227 6.1076L175.132 6.37576L175.837 19.7649ZM180.932 19.4967L181.649 32.8852C179.853 32.9815 176.34 32.5909 173.304 29.6316C170.331 26.734 169.857 23.358 169.857 21.7492H183.265H196.673C196.673 18.6388 195.784 14.0963 192.02 10.4278C188.192 6.69758 183.513 5.93158 180.215 6.10827L180.932 19.4967ZM183.265 21.7492H169.857V29.5525H183.265H196.673V21.7492H183.265ZM183.265 29.5525V42.9602H187.1V29.5525V16.1448H183.265V29.5525ZM187.1 29.5525H173.692V33.3066H187.1H200.507V29.5525H187.1ZM187.1 33.3066V19.899H175.301V33.3066V46.7143H187.1V33.3066ZM193.863 25.3425L192.026 12.0613C192.019 12.0623 192.012 12.0633 192.004 12.0643L193.863 25.3425ZM198.127 24.7525L199.965 38.0337C206.596 37.1161 211.535 31.4473 211.535 24.7525H198.127ZM192.737 24.9403V38.3479C200.142 38.3479 206.145 32.3451 206.145 24.9403H192.737ZM188.715 24.9403H175.307C175.307 32.3451 181.31 38.3479 188.715 38.3479V24.9403ZM202.417 29.5525H189.01C189.01 36.9573 195.013 42.9602 202.417 42.9602V29.5525ZM204.375 29.5525H217.783C217.783 22.1476 211.78 16.1448 204.375 16.1448V29.5525ZM204.375 33.3066V46.7143C211.78 46.7143 217.783 40.7115 217.783 33.3066H204.375ZM199.387 31.0273L187.011 25.8705C186.33 27.5045 185.98 29.2572 185.98 31.0273H199.387ZM200.058 29.4184L212.434 34.5752C214.158 30.4372 213.7 25.7112 211.214 21.9812C208.727 18.2512 204.541 16.0107 200.058 16.0107V29.4184ZM198.985 29.4184V16.0107C192.72 16.0107 187.29 20.3496 185.908 26.4605L198.985 29.4184ZM198.127 27.1659H211.535C211.535 23.2868 209.855 19.5978 206.928 17.0514C204.002 14.505 200.116 13.3508 196.274 13.8869L198.127 27.1659ZM194.668 27.6486L192.815 14.3696C192.788 14.3734 192.76 14.3773 192.733 14.3813L194.668 27.6486ZM188.447 29.6061H201.854C201.854 30.3417 201.745 31.65 201.106 33.187C200.429 34.8126 199.379 36.1608 198.19 37.1439C196.165 38.8179 194.534 38.787 195.722 38.6207L193.863 25.3425L192.004 12.0643C189.17 12.4611 184.831 13.3956 181.103 16.4773C176.511 20.274 175.039 25.3858 175.039 29.6061H188.447ZM193.863 25.3425L195.701 38.6236L199.965 38.0337L198.127 24.7525L196.289 11.4714L192.026 12.0613L193.863 25.3425ZM198.127 24.7525H211.535C211.535 20.1767 209.454 15.4116 205.038 12.3899C201.413 9.90955 197.605 9.57507 195.419 9.57507V22.9827V36.3904C195.082 36.3904 192.629 36.3911 189.896 34.5208C188.391 33.4913 186.971 31.9955 185.986 30.036C185.018 28.112 184.719 26.2416 184.719 24.7525H198.127ZM195.419 22.9827V9.57507C192.939 9.57507 189.078 10.0602 185.492 12.697C181.347 15.7446 179.329 20.3824 179.329 24.9403H192.737H206.145C206.145 28.2646 204.61 31.9237 201.377 34.3008C198.703 36.2673 196.183 36.3904 195.419 36.3904V22.9827ZM192.737 24.9403V11.5326H188.715V24.9403V38.3479H192.737V24.9403ZM188.715 24.9403H202.123C202.123 26.0296 201.879 27.3157 201.241 28.6018C200.608 29.8768 199.737 30.8517 198.858 31.5322C197.183 32.8295 195.753 32.9044 195.419 32.9044V19.4967V6.08907C191.303 6.08907 186.522 7.16952 182.44 10.3305C178.032 13.744 175.307 18.9833 175.307 24.9403H188.715ZM195.419 19.4967V32.9044C195.37 32.9044 193.855 32.9222 192.048 31.5066C191.075 30.7446 190.226 29.7099 189.665 28.4875C189.116 27.2937 189.01 26.2904 189.01 25.7447H202.417H215.825C215.825 19.856 213.456 14.2132 208.584 10.3964C204.209 6.96959 199.195 6.08907 195.419 6.08907V19.4967ZM202.417 25.7447H189.01V29.5525H202.417H215.825V25.7447H202.417ZM202.417 29.5525V42.9602H204.375V29.5525V16.1448H202.417V29.5525ZM204.375 29.5525H190.967V33.3066H204.375H217.783V29.5525H204.375ZM204.375 33.3066V19.899H201.398V33.3066V46.7143H204.375V33.3066ZM201.398 33.3066V19.899C203.223 19.899 206.541 20.4536 209.391 23.3031C212.24 26.1526 212.795 29.4711 212.795 31.2955H199.387H185.98C185.98 34.407 186.896 38.7311 190.43 42.2644C193.963 45.7977 198.287 46.7143 201.398 46.7143V33.3066ZM199.387 31.2955H212.795V31.0273H199.387H185.98V31.2955H199.387ZM199.387 31.0273L211.764 36.1841L212.434 34.5752L200.058 29.4184L187.681 24.2616L187.011 25.8705L199.387 31.0273ZM200.058 29.4184V16.0107H198.985V29.4184V42.8261H200.058V29.4184ZM198.985 29.4184L185.908 26.4605C185.991 26.0924 186.502 24.0721 188.575 22.2558C190.798 20.3083 192.992 20.1671 193.381 20.1671V33.5748V46.9825C197.55 46.9825 202.291 45.8893 206.244 42.4267C210.047 39.0954 211.47 34.997 212.062 32.3764L198.985 29.4184ZM193.381 33.5748V20.1671C194.144 20.1671 197.035 20.5204 199.477 23.3433C201.563 25.7566 201.854 28.3176 201.854 29.6061H188.447H175.039C175.039 32.289 175.692 36.8344 179.193 40.8834C183.049 45.3421 188.407 46.9825 193.381 46.9825V33.5748ZM192.737 28.8017H179.329C179.329 34.5571 182.604 39.0088 186.596 41.2698C189.724 43.0407 192.732 43.2283 194.212 43.2283V29.8206V16.413C194.968 16.413 197.239 16.4799 199.81 17.9358C201.248 18.7502 202.951 20.1073 204.266 22.2318C205.618 24.4152 206.145 26.7432 206.145 28.8017H192.737ZM194.212 29.8206V43.2283C197.032 43.2283 200.895 42.6705 204.492 40.2726C208.591 37.5395 211.535 32.845 211.535 27.1659H198.127H184.719C184.719 25.4216 185.147 23.5235 186.144 21.7402C187.124 19.9871 188.42 18.7589 189.617 17.9609C191.846 16.4747 193.752 16.413 194.212 16.413V29.8206ZM198.127 27.1659L196.274 13.8869L192.815 14.3696L194.668 27.6486L196.521 40.9276L199.98 40.4449L198.127 27.1659ZM194.668 27.6486L192.733 14.3813C192.48 14.4182 189.694 14.723 187.026 16.1125C185.327 16.9974 183.123 18.5739 181.459 21.2601C179.781 23.97 179.329 26.7152 179.329 28.8017H192.737H206.145C206.145 30.4993 205.774 32.9294 204.256 35.3795C202.754 37.806 200.791 39.178 199.413 39.8954C198.155 40.5506 197.132 40.7946 196.861 40.8575C196.539 40.9324 196.372 40.9496 196.603 40.9159L194.668 27.6486Z" fill="#003CA0" mask="url(#path-1-outside-1_483_877)"/>
</svg>
