<svg width="242" height="126" viewBox="0 0 242 126" fill="none" xmlns="http://www.w3.org/2000/svg">
<mask id="path-1-outside-1_483_886" maskUnits="userSpaceOnUse" x="-13.4064" y="-96.4349" width="264.291" height="263.121" fill="black">
<rect fill="white" x="-13.4064" y="-96.4349" width="264.291" height="263.121"/>
<path d="M18.2481 36.7241L21.9986 38.916L17.307 56.8284L18.233 57.3696L31.5601 44.5042L35.3107 46.6961L21.0487 60.2576L13.4088 55.7925L18.2481 36.7241ZM28.5931 56.6225C30.758 52.9183 34.5804 52.1706 38.2152 54.2949C41.8499 56.4192 43.1382 60.0606 41.0681 63.6028L40.3915 64.7603L31.5246 59.5781C30.7398 60.9209 31.1574 62.4384 33.2642 63.6697C34.5606 64.4274 35.8036 64.5326 36.5493 63.7882L40.2535 65.9531C39.0343 67.5078 35.5567 69.0472 31.5052 66.6793C27.0138 64.0544 26.6582 59.9331 28.5931 56.6225ZM32.7423 57.4945L38.1366 60.6471C38.6507 59.7674 38.5167 58.5088 36.4562 57.3045C34.3957 56.1003 33.2565 56.6147 32.7423 57.4945ZM51.568 66.4471C49.5539 65.2699 47.6118 65.5637 45.6905 68.8511L43.1603 73.1805L39.4561 71.0156L46.289 59.3241L49.9932 61.489L49.1679 62.9012L47.2556 64.579L48.1816 65.1202C49.8624 63.3072 52.2816 62.5158 54.782 63.9771C57.7685 65.7226 58.4107 68.769 56.2999 72.3806L52.606 78.7009L48.9018 76.536L52.2574 70.7945C53.5022 68.6646 53.3507 67.4889 51.568 66.4471ZM67.5957 87.4614L63.8914 85.2966L64.3109 84.5789L66.2232 82.9012L65.2971 82.3599C63.7886 83.5593 61.8114 84.3915 58.9175 82.7002C55.5374 80.7247 55.471 76.9588 57.4059 73.6482C59.3408 70.3375 62.6409 68.5702 66.021 70.5457C68.915 72.237 69.1603 74.3682 68.8557 76.2711L69.7817 76.8123L70.3049 74.3228L73.8364 68.2803L77.5406 70.4452L67.5957 87.4614ZM67.3147 79.4393C68.4648 77.4714 67.8541 75.9653 65.8631 74.8017C63.8721 73.6381 62.2602 73.8452 61.1101 75.8131C59.96 77.7809 60.5571 79.3101 62.5481 80.4738C64.5391 81.6374 66.1646 81.4071 67.3147 79.4393ZM72.4181 82.4219C74.7995 78.3472 78.8802 78.0611 82.5612 80.2124C86.2192 82.3503 87.9726 86.0461 85.5912 90.1208C83.1963 94.2186 79.1156 94.5047 75.4577 92.3669C71.7766 90.2155 70.0232 86.5197 72.4181 82.4219ZM76.1223 84.5868C74.9722 86.5546 75.5925 88.0974 77.352 89.1257C79.0883 90.1405 80.7369 89.9238 81.887 87.9559C83.0236 86.0112 82.4033 84.4684 80.667 83.4536C78.9075 82.4253 77.2589 82.6421 76.1223 84.5868ZM83.7918 96.9271L89.5964 86.9952C90.3406 85.7218 91.4642 85.4467 92.724 86.2141L100.279 90.8779L98.3846 94.1191L92.5158 90.5028L87.496 99.092L83.7918 96.9271ZM107.633 106.543C106.482 108.511 104.204 109.168 100.176 106.813C95.8698 104.297 95.0325 101.478 96.6291 98.7459L100.333 100.911C99.8056 101.814 99.9706 102.966 101.915 104.103C102.911 104.685 103.671 104.818 103.996 104.263C104.348 103.661 103.794 103.12 102.284 101.399C100.528 99.4092 98.2034 97.2744 99.7324 94.6583C100.95 92.5747 103.529 92.4668 106.747 94.3476C110.706 96.6613 111.176 99.5763 109.85 101.845L106.146 99.6802C106.633 98.8468 106.374 97.8564 105.1 97.1122C104.22 96.598 103.612 96.5222 103.342 96.9853C103.017 97.5409 103.972 98.5647 105.472 100.249C107.308 102.316 109.053 104.112 107.633 106.543ZM137.143 107.552L134.489 110.665L130.234 107.488C128.7 109.101 126.585 110.317 123.972 111.028C118.306 112.572 113.932 111.206 112.677 106.601C111.719 103.082 113.93 100.896 116.233 100.269C117.889 99.8176 119.166 100.22 120.24 100.9L119.958 99.8652L114.374 95.689L113.887 93.9038L128.014 90.0557L129.001 93.6778L120.566 95.9754L128.911 101.818C129.3 100.183 129.234 98.3111 128.678 96.2671L132.817 95.1395C133.733 98.5029 133.558 101.636 132.41 104.255L137.143 107.552ZM122.985 107.406C124.719 106.934 126.095 106.17 127.095 105.147L124.999 103.578C122.872 101.99 121.282 101.561 119.393 102.076C117.582 102.569 116.38 103.869 116.859 105.629C117.458 107.828 119.544 108.344 122.985 107.406ZM132.11 83.428C135.547 80.1155 138.805 78.2411 142.769 82.3534C146.752 86.485 144.759 89.6723 141.322 92.9848L139.526 94.7155L143.434 98.7699L140.345 101.747L127.226 88.1362L132.11 83.428ZM138.91 90.0958C140.744 88.3279 141.504 87.223 139.68 85.3309C137.875 83.4581 136.743 84.1769 134.909 85.9448L132.92 87.8616L136.921 92.0126L138.91 90.0958ZM149.307 87.9698C147.688 86.2901 147.743 84.3378 150.248 81.1409L152.908 77.7573C152.145 76.9657 151.062 77.0785 149.73 78.3626C148.495 79.5536 148.302 80.7448 149.158 81.6329L146.262 84.4243C143.88 81.9531 144.589 78.4766 147.311 75.8527C149.995 73.266 153.597 72.2892 156.686 75.4941L159.329 78.2356L160.738 76.8772L163.343 79.5801L161.2 81.6457C160.274 82.539 159.25 82.5202 158.357 81.5935L158.17 81.4004L157.537 79.7767L156.764 80.5211C157.961 82.4965 158.336 84.7791 155.614 87.403C152.582 90.3247 150.275 88.9737 149.307 87.9698ZM151.838 84.4131C152.377 84.973 153.086 84.6257 153.607 84.1232C155.306 82.4856 155.737 80.6919 154.583 79.4949L152.428 82.243C151.631 83.2714 151.298 83.8532 151.838 84.4131ZM164.498 78.4675L156.514 70.1849C155.491 69.123 155.531 67.9669 156.611 66.9627L163.151 60.9574L165.756 63.6604L160.683 68.3272L167.587 75.49L164.498 78.4675ZM176.116 62.4272L179.521 58.7728L182.126 61.4757L177.273 66.5259C176.248 67.588 175.074 67.5285 174.05 66.4666L168.653 60.8676L166.337 63.1008L163.731 60.3978L166.048 58.1647L164.28 56.3306L166.439 52.3877L169.137 55.1872L172.342 52.098L174.947 54.801L171.743 57.8901L176.116 62.4272ZM182.375 47.2696C180.695 48.8887 180.45 50.8375 183.093 53.5791L186.573 57.1894L183.484 60.1669L174.086 50.417L177.175 47.4395L178.31 48.6172L179.406 50.9131L180.178 50.1687C178.89 48.0589 178.785 45.5158 180.87 43.5059C183.36 41.1053 186.467 41.3142 189.37 44.326L194.45 49.5968L191.361 52.5743L186.746 47.7862C185.034 46.01 183.861 45.8367 182.375 47.2696ZM190.778 43.4898C187.801 40.4007 188.119 36.5188 191.15 33.5971C194.181 30.6754 198.035 30.4239 200.883 33.3779L201.813 34.3432L194.419 41.4706C195.498 42.5904 197.072 42.6004 198.829 40.9069C199.91 39.8648 200.349 38.6971 199.834 37.7773L202.924 34.7998C204.089 36.3953 204.627 40.1601 201.248 43.4168C197.502 47.027 193.439 46.2506 190.778 43.4898ZM192.744 39.733L197.242 35.397C196.535 34.6634 195.287 34.4508 193.569 36.107C191.851 37.7633 192.037 38.9994 192.744 39.733ZM207.58 36.9414L199.596 28.6589C198.573 27.597 198.613 26.4409 199.693 25.4367L206.233 19.4314L208.838 22.1343L203.765 26.8011L210.669 33.9639L207.58 36.9414ZM228.251 21.5795C228.893 23.7663 227.808 25.8742 223.332 27.19C218.546 28.5967 215.921 27.2721 215.029 24.2364L219.145 23.0264C219.44 24.0297 220.392 24.7002 222.553 24.065C223.659 23.7398 224.278 23.2784 224.097 22.6609C223.9 21.992 223.127 22.0237 220.839 21.9416C218.186 21.855 215.038 22.0815 214.184 19.1743C213.503 16.8589 215.194 14.9086 218.77 13.8574C223.169 12.5642 225.613 14.2216 226.354 16.7428L222.237 17.9528C221.965 17.0267 221.066 16.5362 219.651 16.9522C218.674 17.2395 218.202 17.6299 218.353 18.1444C218.534 18.7619 219.934 18.7696 222.189 18.8335C224.952 18.9157 227.457 18.8782 228.251 21.5795Z"/>
</mask>
<path d="M18.2481 36.7241L21.9986 38.916L17.307 56.8284L18.233 57.3696L31.5601 44.5042L35.3107 46.6961L21.0487 60.2576L13.4088 55.7925L18.2481 36.7241ZM28.5931 56.6225C30.758 52.9183 34.5804 52.1706 38.2152 54.2949C41.8499 56.4192 43.1382 60.0606 41.0681 63.6028L40.3915 64.7603L31.5246 59.5781C30.7398 60.9209 31.1574 62.4384 33.2642 63.6697C34.5606 64.4274 35.8036 64.5326 36.5493 63.7882L40.2535 65.9531C39.0343 67.5078 35.5567 69.0472 31.5052 66.6793C27.0138 64.0544 26.6582 59.9331 28.5931 56.6225ZM32.7423 57.4945L38.1366 60.6471C38.6507 59.7674 38.5167 58.5088 36.4562 57.3045C34.3957 56.1003 33.2565 56.6147 32.7423 57.4945ZM51.568 66.4471C49.5539 65.2699 47.6118 65.5637 45.6905 68.8511L43.1603 73.1805L39.4561 71.0156L46.289 59.3241L49.9932 61.489L49.1679 62.9012L47.2556 64.579L48.1816 65.1202C49.8624 63.3072 52.2816 62.5158 54.782 63.9771C57.7685 65.7226 58.4107 68.769 56.2999 72.3806L52.606 78.7009L48.9018 76.536L52.2574 70.7945C53.5022 68.6646 53.3507 67.4889 51.568 66.4471ZM67.5957 87.4614L63.8914 85.2966L64.3109 84.5789L66.2232 82.9012L65.2971 82.3599C63.7886 83.5593 61.8114 84.3915 58.9175 82.7002C55.5374 80.7247 55.471 76.9588 57.4059 73.6482C59.3408 70.3375 62.6409 68.5702 66.021 70.5457C68.915 72.237 69.1603 74.3682 68.8557 76.2711L69.7817 76.8123L70.3049 74.3228L73.8364 68.2803L77.5406 70.4452L67.5957 87.4614ZM67.3147 79.4393C68.4648 77.4714 67.8541 75.9653 65.8631 74.8017C63.8721 73.6381 62.2602 73.8452 61.1101 75.8131C59.96 77.7809 60.5571 79.3101 62.5481 80.4738C64.5391 81.6374 66.1646 81.4071 67.3147 79.4393ZM72.4181 82.4219C74.7995 78.3472 78.8802 78.0611 82.5612 80.2124C86.2192 82.3503 87.9726 86.0461 85.5912 90.1208C83.1963 94.2186 79.1156 94.5047 75.4577 92.3669C71.7766 90.2155 70.0232 86.5197 72.4181 82.4219ZM76.1223 84.5868C74.9722 86.5546 75.5925 88.0974 77.352 89.1257C79.0883 90.1405 80.7369 89.9238 81.887 87.9559C83.0236 86.0112 82.4033 84.4684 80.667 83.4536C78.9075 82.4253 77.2589 82.6421 76.1223 84.5868ZM83.7918 96.9271L89.5964 86.9952C90.3406 85.7218 91.4642 85.4467 92.724 86.2141L100.279 90.8779L98.3846 94.1191L92.5158 90.5028L87.496 99.092L83.7918 96.9271ZM107.633 106.543C106.482 108.511 104.204 109.168 100.176 106.813C95.8698 104.297 95.0325 101.478 96.6291 98.7459L100.333 100.911C99.8056 101.814 99.9706 102.966 101.915 104.103C102.911 104.685 103.671 104.818 103.996 104.263C104.348 103.661 103.794 103.12 102.284 101.399C100.528 99.4092 98.2034 97.2744 99.7324 94.6583C100.95 92.5747 103.529 92.4668 106.747 94.3476C110.706 96.6613 111.176 99.5763 109.85 101.845L106.146 99.6802C106.633 98.8468 106.374 97.8564 105.1 97.1122C104.22 96.598 103.612 96.5222 103.342 96.9853C103.017 97.5409 103.972 98.5647 105.472 100.249C107.308 102.316 109.053 104.112 107.633 106.543ZM137.143 107.552L134.489 110.665L130.234 107.488C128.7 109.101 126.585 110.317 123.972 111.028C118.306 112.572 113.932 111.206 112.677 106.601C111.719 103.082 113.93 100.896 116.233 100.269C117.889 99.8176 119.166 100.22 120.24 100.9L119.958 99.8652L114.374 95.689L113.887 93.9038L128.014 90.0557L129.001 93.6778L120.566 95.9754L128.911 101.818C129.3 100.183 129.234 98.3111 128.678 96.2671L132.817 95.1395C133.733 98.5029 133.558 101.636 132.41 104.255L137.143 107.552ZM122.985 107.406C124.719 106.934 126.095 106.17 127.095 105.147L124.999 103.578C122.872 101.99 121.282 101.561 119.393 102.076C117.582 102.569 116.38 103.869 116.859 105.629C117.458 107.828 119.544 108.344 122.985 107.406ZM132.11 83.428C135.547 80.1155 138.805 78.2411 142.769 82.3534C146.752 86.485 144.759 89.6723 141.322 92.9848L139.526 94.7155L143.434 98.7699L140.345 101.747L127.226 88.1362L132.11 83.428ZM138.91 90.0958C140.744 88.3279 141.504 87.223 139.68 85.3309C137.875 83.4581 136.743 84.1769 134.909 85.9448L132.92 87.8616L136.921 92.0126L138.91 90.0958ZM149.307 87.9698C147.688 86.2901 147.743 84.3378 150.248 81.1409L152.908 77.7573C152.145 76.9657 151.062 77.0785 149.73 78.3626C148.495 79.5536 148.302 80.7448 149.158 81.6329L146.262 84.4243C143.88 81.9531 144.589 78.4766 147.311 75.8527C149.995 73.266 153.597 72.2892 156.686 75.4941L159.329 78.2356L160.738 76.8772L163.343 79.5801L161.2 81.6457C160.274 82.539 159.25 82.5202 158.357 81.5935L158.17 81.4004L157.537 79.7767L156.764 80.5211C157.961 82.4965 158.336 84.7791 155.614 87.403C152.582 90.3247 150.275 88.9737 149.307 87.9698ZM151.838 84.4131C152.377 84.973 153.086 84.6257 153.607 84.1232C155.306 82.4856 155.737 80.6919 154.583 79.4949L152.428 82.243C151.631 83.2714 151.298 83.8532 151.838 84.4131ZM164.498 78.4675L156.514 70.1849C155.491 69.123 155.531 67.9669 156.611 66.9627L163.151 60.9574L165.756 63.6604L160.683 68.3272L167.587 75.49L164.498 78.4675ZM176.116 62.4272L179.521 58.7728L182.126 61.4757L177.273 66.5259C176.248 67.588 175.074 67.5285 174.05 66.4666L168.653 60.8676L166.337 63.1008L163.731 60.3978L166.048 58.1647L164.28 56.3306L166.439 52.3877L169.137 55.1872L172.342 52.098L174.947 54.801L171.743 57.8901L176.116 62.4272ZM182.375 47.2696C180.695 48.8887 180.45 50.8375 183.093 53.5791L186.573 57.1894L183.484 60.1669L174.086 50.417L177.175 47.4395L178.31 48.6172L179.406 50.9131L180.178 50.1687C178.89 48.0589 178.785 45.5158 180.87 43.5059C183.36 41.1053 186.467 41.3142 189.37 44.326L194.45 49.5968L191.361 52.5743L186.746 47.7862C185.034 46.01 183.861 45.8367 182.375 47.2696ZM190.778 43.4898C187.801 40.4007 188.119 36.5188 191.15 33.5971C194.181 30.6754 198.035 30.4239 200.883 33.3779L201.813 34.3432L194.419 41.4706C195.498 42.5904 197.072 42.6004 198.829 40.9069C199.91 39.8648 200.349 38.6971 199.834 37.7773L202.924 34.7998C204.089 36.3953 204.627 40.1601 201.248 43.4168C197.502 47.027 193.439 46.2506 190.778 43.4898ZM192.744 39.733L197.242 35.397C196.535 34.6634 195.287 34.4508 193.569 36.107C191.851 37.7633 192.037 38.9994 192.744 39.733ZM207.58 36.9414L199.596 28.6589C198.573 27.597 198.613 26.4409 199.693 25.4367L206.233 19.4314L208.838 22.1343L203.765 26.8011L210.669 33.9639L207.58 36.9414ZM228.251 21.5795C228.893 23.7663 227.808 25.8742 223.332 27.19C218.546 28.5967 215.921 27.2721 215.029 24.2364L219.145 23.0264C219.44 24.0297 220.392 24.7002 222.553 24.065C223.659 23.7398 224.278 23.2784 224.097 22.6609C223.9 21.992 223.127 22.0237 220.839 21.9416C218.186 21.855 215.038 22.0815 214.184 19.1743C213.503 16.8589 215.194 14.9086 218.77 13.8574C223.169 12.5642 225.613 14.2216 226.354 16.7428L222.237 17.9528C221.965 17.0267 221.066 16.5362 219.651 16.9522C218.674 17.2395 218.202 17.6299 218.353 18.1444C218.534 18.7619 219.934 18.7696 222.189 18.8335C224.952 18.9157 227.457 18.8782 228.251 21.5795Z" fill="#8FD37D"/>
<path d="M18.2481 36.7241L25.0134 25.1484C21.3769 23.0231 16.953 22.7302 13.068 24.3575C9.18297 25.9849 6.28854 29.3433 5.25242 33.4259L18.2481 36.7241ZM21.9986 38.916L34.9688 42.3132C36.4926 36.4955 33.9561 30.3749 28.7639 27.3404L21.9986 38.916ZM17.307 56.8284L4.33681 53.4312C2.81301 59.2489 5.34944 65.3695 10.5417 68.4041L17.307 56.8284ZM18.233 57.3696L11.4677 68.9453C16.654 71.9763 23.2233 71.188 27.5451 67.0159L18.233 57.3696ZM31.5601 44.5042L38.3254 32.9285C33.1392 29.8974 26.5699 30.6858 22.2481 34.8579L31.5601 44.5042ZM35.3107 46.6961L44.5497 56.4124C47.6043 53.5078 49.1152 49.3358 48.6288 45.1488C48.1423 40.9618 45.7152 37.2473 42.076 35.1204L35.3107 46.6961ZM21.0487 60.2576L14.2835 71.8333C19.4373 74.8454 25.9618 74.0874 30.2878 69.9739L21.0487 60.2576ZM13.4088 55.7925L0.413095 52.4944C-1.05694 58.2868 1.48402 64.3528 6.6435 67.3682L13.4088 55.7925ZM18.2481 36.7241L11.4828 48.2998L15.2333 50.4917L21.9986 38.916L28.7639 27.3404L25.0134 25.1484L18.2481 36.7241ZM21.9986 38.916L9.02848 35.5188L4.33681 53.4312L17.307 56.8284L30.2771 60.2256L34.9688 42.3132L21.9986 38.916ZM17.307 56.8284L10.5417 68.4041L11.4677 68.9453L18.233 57.3696L24.9983 45.7939L24.0722 45.2527L17.307 56.8284ZM18.233 57.3696L27.5451 67.0159L40.8722 54.1504L31.5601 44.5042L22.2481 34.8579L8.92092 47.7233L18.233 57.3696ZM31.5601 44.5042L24.7949 56.0798L28.5454 58.2718L35.3107 46.6961L42.076 35.1204L38.3254 32.9285L31.5601 44.5042ZM35.3107 46.6961L26.0716 36.9799L11.8097 50.5413L21.0487 60.2576L30.2878 69.9739L44.5497 56.4124L35.3107 46.6961ZM21.0487 60.2576L27.814 48.6819L20.1741 44.2168L13.4088 55.7925L6.6435 67.3682L14.2835 71.8333L21.0487 60.2576ZM13.4088 55.7925L26.4045 59.0907L31.2438 40.0222L18.2481 36.7241L5.25242 33.4259L0.413095 52.4944L13.4088 55.7925ZM38.2152 54.2949L31.4499 65.8705L38.2152 54.2949ZM41.0681 63.6028L29.4924 56.8375L41.0681 63.6028ZM40.3915 64.7603L33.6262 76.336C36.6963 78.1303 40.3534 78.6315 43.793 77.7293C47.2326 76.8272 50.1729 74.5957 51.9672 71.5256L40.3915 64.7603ZM31.5246 59.5781L38.2898 48.0024C35.2198 46.2082 31.5627 45.707 28.1231 46.6091C24.6835 47.5112 21.7431 49.7428 19.9489 52.8128L31.5246 59.5781ZM36.5493 63.7882L43.3146 52.2125C38.0561 49.1392 31.3868 49.9965 27.0764 54.2997L36.5493 63.7882ZM40.2535 65.9531L50.8039 74.2268C53.1941 71.1789 54.1494 67.2463 53.4238 63.4416C52.6983 59.6369 50.3628 56.3318 47.0188 54.3774L40.2535 65.9531ZM32.7423 57.4945L21.1666 50.7292C17.4303 57.1223 19.5839 65.3338 25.977 69.0702L32.7423 57.4945ZM38.1366 60.6471L31.3713 72.2228C34.4413 74.0171 38.0984 74.5183 41.538 73.6161C44.9776 72.714 47.918 70.4825 49.7123 67.4124L38.1366 60.6471ZM28.5931 56.6225L40.1687 63.3878C39.6463 64.2817 38.2515 65.7921 35.8426 66.3431C33.5761 66.8615 31.9727 66.1761 31.4499 65.8705L38.2152 54.2949L44.9804 42.7192C40.8228 40.2893 35.4908 38.9156 29.8632 40.2029C24.0932 41.5227 19.7047 45.259 17.0174 49.8572L28.5931 56.6225ZM38.2152 54.2949L31.4499 65.8705C31.0282 65.6241 29.7 64.6573 29.0104 62.5011C28.2549 60.1386 28.8073 58.0096 29.4924 56.8375L41.0681 63.6028L52.6437 70.368C55.3989 65.6538 56.3423 59.933 54.5515 54.3331C52.8266 48.9396 49.0368 45.0899 44.9804 42.7192L38.2152 54.2949ZM41.0681 63.6028L29.4924 56.8375L28.8158 57.995L40.3915 64.7603L51.9672 71.5256L52.6437 70.368L41.0681 63.6028ZM40.3915 64.7603L47.1568 53.1846L38.2898 48.0024L31.5246 59.5781L24.7593 71.1538L33.6262 76.336L40.3915 64.7603ZM31.5246 59.5781L19.9489 52.8128C17.7896 56.5075 16.8708 61.4728 18.7959 66.4786C20.5358 71.0025 23.8969 73.7247 26.4989 75.2454L33.2642 63.6697L40.0294 52.094C40.5246 52.3834 42.6235 53.7311 43.8241 56.8529C45.21 60.4564 44.4748 63.9915 43.1002 66.3434L31.5246 59.5781ZM33.2642 63.6697L26.4989 75.2454C29.2224 76.8371 38.4746 80.8118 46.0221 73.2767L36.5493 63.7882L27.0764 54.2997C29.8683 51.5125 33.3123 50.7792 35.7751 50.9009C37.9781 51.0098 39.4388 51.7488 40.0294 52.094L33.2642 63.6697ZM36.5493 63.7882L29.784 75.3639L33.4882 77.5288L40.2535 65.9531L47.0188 54.3774L43.3146 52.2125L36.5493 63.7882ZM40.2535 65.9531L29.7031 57.6794C31.3151 55.6238 33.1625 54.8515 34.4984 54.604C36.2252 54.284 37.601 54.7124 38.2705 55.1037L31.5052 66.6793L24.7399 78.255C34.4707 83.9421 45.3733 81.1517 50.8039 74.2268L40.2535 65.9531ZM31.5052 66.6793L38.2705 55.1037C38.6555 55.3287 40.1478 56.4816 40.7044 58.8968C41.2094 61.0878 40.5666 62.707 40.1687 63.3878L28.5931 56.6225L17.0174 49.8572C14.6846 53.8486 13.2522 59.1837 14.5741 64.9193C15.9477 70.879 19.8635 75.4051 24.7399 78.255L31.5052 66.6793ZM32.7423 57.4945L25.977 69.0702L31.3713 72.2228L38.1366 60.6471L44.9019 49.0714L39.5076 45.9188L32.7423 57.4945ZM38.1366 60.6471L49.7123 67.4124C51.7486 63.9282 52.6733 59.0946 50.7347 54.1789C48.9956 49.7688 45.6817 47.1667 43.2215 45.7288L36.4562 57.3045L29.6909 68.8802C29.2911 68.6466 27.0745 67.2759 25.789 64.0161C24.3041 60.2507 25.0387 56.4863 26.5609 53.8818L38.1366 60.6471ZM36.4562 57.3045L43.2215 45.7288C40.7694 44.2958 36.8402 42.6605 32.0936 43.3494C26.8027 44.1173 23.1297 47.3703 21.1666 50.7292L32.7423 57.4945L44.318 64.2598C42.8691 66.7389 40.0227 69.2948 35.9452 69.8867C32.4118 70.3995 30.0825 69.1091 29.6909 68.8802L36.4562 57.3045ZM51.568 66.4471L44.8028 78.0228L51.568 66.4471ZM43.1603 73.1805L36.395 84.7561C42.7881 88.4925 50.9996 86.3388 54.736 79.9457L43.1603 73.1805ZM39.4561 71.0156L27.8804 64.2503C24.144 70.6433 26.2977 78.8549 32.6908 82.5912L39.4561 71.0156ZM46.289 59.3241L53.0543 47.7484C49.9842 45.9542 46.3271 45.453 42.8875 46.3551C39.4479 47.2572 36.5076 49.4888 34.7133 52.5588L46.289 59.3241ZM49.9932 61.489L61.5689 68.2543C63.3632 65.1842 63.8644 61.5271 62.9622 58.0875C62.0601 54.6479 59.8286 51.7076 56.7585 49.9133L49.9932 61.489ZM49.1679 62.9012L58.0101 72.9799C59.0934 72.0295 60.0164 70.9107 60.7435 69.6665L49.1679 62.9012ZM47.2556 64.5789L38.4133 54.5003C35.1736 57.3426 33.4977 61.569 33.9092 65.8591C34.3206 70.1492 36.7694 73.98 40.4903 76.1546L47.2556 64.5789ZM48.1816 65.1202L41.4163 76.6959C46.8418 79.8667 53.7417 78.8439 58.0141 74.2355L48.1816 65.1202ZM54.782 63.9771L48.0167 75.5528L54.782 63.9771ZM52.606 78.7009L45.8408 90.2766C48.9108 92.0709 52.5679 92.5721 56.0075 91.67C59.4471 90.7678 62.3875 88.5363 64.1817 85.4662L52.606 78.7009ZM48.9018 76.536L37.3261 69.7707C33.5898 76.1638 35.7435 84.3754 42.1365 88.1117L48.9018 76.536ZM51.568 66.4471L58.3333 54.8714C55.3241 53.1127 50.1712 51.2477 44.2217 53.3003C38.8529 55.1526 35.7767 59.2423 34.1148 62.0859L45.6905 68.8511L57.2662 75.6164C57.5256 75.1725 56.3811 77.4716 52.9672 78.6494C48.9726 80.0276 45.7978 78.6043 44.8028 78.0228L51.568 66.4471ZM45.6905 68.8511L34.1148 62.0859L31.5846 66.4152L43.1603 73.1805L54.736 79.9457L57.2662 75.6164L45.6905 68.8511ZM43.1603 73.1805L49.9256 61.6048L46.2214 59.4399L39.4561 71.0156L32.6908 82.5912L36.395 84.7561L43.1603 73.1805ZM39.4561 71.0156L51.0318 77.7808L57.8647 66.0894L46.289 59.3241L34.7133 52.5588L27.8804 64.2503L39.4561 71.0156ZM46.289 59.3241L39.5237 70.8998L43.2279 73.0647L49.9932 61.489L56.7585 49.9133L53.0543 47.7484L46.289 59.3241ZM49.9932 61.489L38.4175 54.7237L37.5922 56.136L49.1679 62.9012L60.7435 69.6665L61.5689 68.2543L49.9932 61.489ZM49.1679 62.9012L40.3256 52.8226L38.4133 54.5003L47.2556 64.5789L56.0979 74.6576L58.0101 72.9799L49.1679 62.9012ZM47.2556 64.5789L40.4903 76.1546L41.4163 76.6959L48.1816 65.1202L54.9469 53.5445L54.0209 53.0033L47.2556 64.5789ZM48.1816 65.1202L58.0141 74.2355C57.3867 74.9122 56.0845 75.9803 53.986 76.4304C51.6589 76.9294 49.49 76.4139 48.0167 75.5528L54.782 63.9771L61.5472 52.4015C57.5736 50.0791 52.9449 49.2286 48.3629 50.2112C44.0095 51.1449 40.6573 53.5152 38.3492 56.0049L48.1816 65.1202ZM54.782 63.9771L48.0167 75.5528C46.801 74.8423 44.8544 73.0242 44.2772 69.9647C44.0251 68.6288 44.1376 67.5143 44.3108 66.7662C44.4782 66.043 44.7004 65.656 44.7242 65.6153L56.2999 72.3806L67.8756 79.1459C69.9798 75.5455 71.6806 70.5749 70.6277 64.9934C69.5104 59.0714 65.7495 54.8574 61.5472 52.4015L54.782 63.9771ZM56.2999 72.3806L44.7242 65.6153L41.0304 71.9356L52.606 78.7009L64.1817 85.4662L67.8756 79.1459L56.2999 72.3806ZM52.606 78.7009L59.3713 67.1252L55.6671 64.9603L48.9018 76.536L42.1365 88.1117L45.8408 90.2766L52.606 78.7009ZM48.9018 76.536L60.4775 83.3013L63.8331 77.5598L52.2574 70.7945L40.6817 64.0292L37.3261 69.7707L48.9018 76.536ZM52.2574 70.7945L63.8331 77.5598C64.7438 76.0015 67.1416 71.7033 66.3029 66.1947C65.3084 59.6623 60.7121 56.2616 58.3333 54.8714L51.568 66.4471L44.8028 78.0228C44.2067 77.6744 40.5774 75.3824 39.7931 70.2308C39.4583 68.032 39.8366 66.2981 40.127 65.3677C40.2746 64.8951 40.4239 64.5495 40.5169 64.3509C40.611 64.1502 40.6765 64.0381 40.6817 64.0292L52.2574 70.7945ZM67.5957 87.4614L60.8304 99.0371C63.9004 100.831 67.5575 101.333 70.9971 100.43C74.4367 99.5283 77.3771 97.2968 79.1713 94.2267L67.5957 87.4614ZM63.8914 85.2965L52.3158 78.5313C48.5794 84.9243 50.7331 93.1359 57.1261 96.8722L63.8914 85.2965ZM64.3109 84.5789L55.4686 74.5002C54.3853 75.4506 53.4623 76.5694 52.7352 77.8136L64.3109 84.5789ZM66.2232 82.9012L75.0655 92.9798C78.3052 90.1375 79.9811 85.9111 79.5696 81.621C79.1581 77.3309 76.7094 73.5001 72.9885 71.3255L66.2232 82.9012ZM65.2971 82.3599L72.0624 70.7842C67.2854 67.9924 61.284 68.4217 56.953 71.8651L65.2971 82.3599ZM68.8557 76.2711L55.6165 74.1519C54.742 79.6153 57.3134 85.0549 62.0904 87.8468L68.8557 76.2711ZM69.7817 76.8123L63.0164 88.388C66.7374 90.5627 71.2768 90.8161 75.2167 89.0691C79.1565 87.322 82.0163 83.7876 82.9027 79.5699L69.7817 76.8123ZM70.3049 74.3228L58.7292 67.5575C58.0021 68.8017 57.4803 70.155 57.1839 71.5652L70.3049 74.3228ZM73.8364 68.2803L80.6017 56.7046C77.5316 54.9103 73.8745 54.4091 70.4349 55.3113C66.9953 56.2134 64.055 58.4449 62.2607 61.515L73.8364 68.2803ZM77.5406 70.4452L89.1163 77.2105C92.8527 70.8174 90.699 62.6059 84.3059 58.8695L77.5406 70.4452ZM65.8631 74.8017L59.0978 86.3774L65.8631 74.8017ZM67.5957 87.4614L74.3609 75.8858L70.6567 73.7209L63.8914 85.2965L57.1261 96.8722L60.8304 99.0371L67.5957 87.4614ZM63.8914 85.2965L75.4671 92.0618L75.8866 91.3441L64.3109 84.5789L52.7352 77.8136L52.3158 78.5313L63.8914 85.2965ZM64.3109 84.5789L73.1532 94.6575L75.0655 92.9798L66.2232 82.9012L57.3809 72.8225L55.4686 74.5002L64.3109 84.5789ZM66.2232 82.9012L72.9885 71.3255L72.0624 70.7842L65.2971 82.3599L58.5318 93.9356L59.4579 94.4768L66.2232 82.9012ZM65.2971 82.3599L56.953 71.8651C57.1753 71.6883 58.5157 70.6519 60.764 70.3364C63.2502 69.9876 65.0457 70.7522 65.6828 71.1245L58.9175 82.7002L52.1522 94.2759C55.6832 96.3395 59.9143 97.5336 64.4897 96.8917C68.8272 96.2831 71.9104 94.2309 73.6412 92.8548L65.2971 82.3599ZM58.9175 82.7002L65.6828 71.1245C66.4585 71.5778 67.3916 72.35 68.1673 73.5232C68.9411 74.6935 69.34 75.9334 69.4758 77.0366C69.7293 79.0958 69.0659 80.2692 68.9816 80.4135L57.4059 73.6482L45.8302 66.8829C43.811 70.3378 42.2134 75.0495 42.8614 80.3131C43.5746 86.1066 46.8854 91.1977 52.1522 94.2759L58.9175 82.7002ZM57.4059 73.6482L68.9816 80.4135C68.8964 80.5592 68.1875 81.7314 66.2439 82.5258C65.2047 82.9505 63.9248 83.2059 62.5302 83.1025C61.1347 82.9991 60.0165 82.566 59.2558 82.1214L66.021 70.5457L72.7863 58.97C67.5557 55.913 61.514 55.4905 56.0991 57.7035C51.1767 59.7153 47.8502 63.4265 45.8302 66.8829L57.4059 73.6482ZM66.021 70.5457L59.2558 82.1214C58.6187 81.7491 57.0713 80.5599 56.155 78.2225C55.3264 76.1088 55.5717 74.4323 55.6165 74.1519L68.8557 76.2711L82.0948 78.3904C82.4443 76.207 82.7192 72.5134 81.1206 68.4356C79.4343 64.1341 76.3173 61.0337 72.7863 58.97L66.021 70.5457ZM68.8557 76.2711L62.0904 87.8468L63.0164 88.388L69.7817 76.8123L76.547 65.2367L75.6209 64.6954L68.8557 76.2711ZM69.7817 76.8123L82.9027 79.5699L83.426 77.0804L70.3049 74.3228L57.1839 71.5652L56.6607 74.0548L69.7817 76.8123ZM70.3049 74.3228L81.8806 81.0881L85.4121 75.0456L73.8364 68.2803L62.2607 61.515L58.7292 67.5575L70.3049 74.3228ZM73.8364 68.2803L67.0711 79.856L70.7753 82.0209L77.5406 70.4452L84.3059 58.8695L80.6017 56.7046L73.8364 68.2803ZM77.5406 70.4452L65.9649 63.6799L56.02 80.6962L67.5957 87.4614L79.1713 94.2267L89.1163 77.2105L77.5406 70.4452ZM67.3147 79.4393L78.8904 86.2045C80.738 83.0432 82.3391 78.0983 80.4775 72.5524C78.765 67.4506 75.0141 64.6203 72.6284 63.226L65.8631 74.8017L59.0978 86.3774C58.7031 86.1467 56.253 84.6513 55.0561 81.0854C53.7101 77.0754 55.0415 73.8674 55.739 72.674L67.3147 79.4393ZM65.8631 74.8017L72.6284 63.226C70.2427 61.8317 65.9358 59.9527 60.6503 60.9645C54.9046 62.0645 51.382 65.8865 49.5344 69.0478L61.1101 75.8131L72.6858 82.5783C71.9883 83.7718 69.8467 86.5063 65.6923 87.3016C61.9979 88.0088 59.4926 86.6081 59.0978 86.3774L65.8631 74.8017ZM61.1101 75.8131L49.5344 69.0478C47.6885 72.2062 46.1013 77.1184 47.9143 82.6327C49.5964 87.7488 53.3311 90.6166 55.7828 92.0495L62.5481 80.4738L69.3134 68.8981C69.7741 69.1674 72.2148 70.6887 73.3881 74.2574C74.6923 78.2241 73.3816 81.3878 72.6858 82.5783L61.1101 75.8131ZM62.5481 80.4738L55.7828 92.0495C58.2346 93.4823 62.5662 95.3289 67.8493 94.2835C73.5436 93.1567 77.0445 89.3629 78.8904 86.2045L67.3147 79.4393L55.739 72.674C56.4348 71.4834 58.5479 68.7887 62.6442 67.9782C66.3293 67.249 68.8527 68.6288 69.3134 68.8981L62.5481 80.4738ZM80.667 83.4536L73.9017 95.0293L80.667 83.4536ZM72.4181 82.4219L83.9938 89.1872C83.7752 89.5611 83.2878 90.2322 82.3997 90.8811C81.4916 91.5446 80.4207 91.9951 79.3193 92.1884C77.1831 92.5632 75.9126 91.8563 75.796 91.7881L82.5612 80.2124L89.3265 68.6368C85.5288 66.4172 80.3775 64.7777 74.6853 65.7765C68.5854 66.8467 63.786 70.6201 60.8424 75.6566L72.4181 82.4219ZM82.5612 80.2124L75.796 91.7881C75.6522 91.7041 74.4113 90.9324 73.6924 88.8877C73.3221 87.8346 73.1906 86.6835 73.323 85.5706C73.4525 84.4818 73.7969 83.7296 74.0155 83.3555L85.5912 90.1208L97.1669 96.8861C100.11 91.8507 101.04 85.8239 98.9895 79.9929C97.0747 74.5471 93.1282 70.8586 89.3265 68.6368L82.5612 80.2124ZM85.5912 90.1208L74.0155 83.3555C74.2257 82.9958 74.7032 82.3346 75.5809 81.6907C76.479 81.0318 77.5438 80.5788 78.6465 80.3824C80.7897 80.0005 82.0791 80.7071 82.223 80.7912L75.4577 92.3669L68.6924 103.943C72.4942 106.165 77.6529 107.797 83.3497 106.782C89.446 105.696 94.2295 101.912 97.1669 96.8861L85.5912 90.1208ZM75.4577 92.3669L82.223 80.7912C82.3398 80.8595 83.5868 81.6244 84.3089 83.6796C84.6808 84.7381 84.8103 85.8913 84.677 87.0011C84.5467 88.0853 84.2039 88.8276 83.9938 89.1872L72.4181 82.4219L60.8424 75.6566C57.9043 80.6838 56.9531 86.7154 59.0099 92.569C60.9303 98.0345 64.8945 101.723 68.6924 103.943L75.4577 92.3669ZM76.1223 84.5868L64.5466 77.8215C62.6661 81.0392 61.2055 85.807 62.8187 91.1104C64.3585 96.1726 67.9306 99.1491 70.5867 100.701L77.352 89.1257L84.1172 77.55C85.0139 78.074 87.3961 79.7649 88.4734 83.3068C89.6241 87.0897 88.4284 90.1023 87.698 91.3521L76.1223 84.5868ZM77.352 89.1257L70.5867 100.701C73.2666 102.268 77.618 103.898 82.7729 102.742C88.1564 101.535 91.5826 97.9381 93.4627 94.7212L81.887 87.9559L70.3113 81.1906C71.0413 79.9415 73.0682 77.437 76.9057 76.5765C80.5147 75.7672 83.1737 76.9986 84.1172 77.55L77.352 89.1257ZM81.887 87.9559L93.4627 94.7212C95.3589 91.4767 96.7843 86.7185 95.1808 81.4512C93.6503 76.4239 90.1119 73.444 87.4322 71.8779L80.667 83.4536L73.9017 95.0293C72.9584 94.478 70.5983 92.7769 69.5279 89.2608C68.3844 85.5049 69.5517 82.4904 70.3113 81.1906L81.887 87.9559ZM80.667 83.4536L87.4322 71.8779C84.7762 70.3257 80.4484 68.6843 75.3057 69.8052C69.9006 70.9833 66.4433 74.5761 64.5466 77.8215L76.1223 84.5868L87.698 91.3521C86.9378 92.6527 84.8731 95.1648 81.0164 96.0054C77.422 96.7889 74.7982 95.5533 73.9017 95.0293L80.667 83.4536ZM83.7918 96.9271L72.2161 90.1618C68.4797 96.5549 70.6334 104.766 77.0265 108.503L83.7918 96.9271ZM92.724 86.2141L99.767 74.8052C99.7442 74.7912 99.7214 74.7772 99.6986 74.7633L92.724 86.2141ZM100.279 90.8779L111.855 97.6432C115.527 91.3591 113.515 83.2925 107.322 79.4691L100.279 90.8779ZM98.3846 94.1191L91.3509 105.534C94.4245 107.428 98.1319 108.002 101.634 107.127C105.137 106.252 108.139 104.001 109.96 100.884L98.3846 94.1191ZM92.5158 90.5028L99.5495 79.0882C96.4759 77.1943 92.7685 76.6199 89.266 77.495C85.7634 78.3701 82.7618 80.6206 80.9402 83.7375L92.5158 90.5028ZM87.496 99.092L80.7307 110.668C87.1238 114.404 95.3353 112.25 99.0717 105.857L87.496 99.092ZM83.7918 96.9271L95.3675 103.692L101.172 93.7604L89.5964 86.9952L78.0207 80.2299L72.2161 90.1618L83.7918 96.9271ZM89.5964 86.9952L101.172 93.7604C100.301 95.2501 98.1584 97.8679 94.1996 98.8515C90.2638 99.8293 87.176 98.5338 85.7494 97.6649L92.724 86.2141L99.6986 74.7633C97.0121 73.127 92.7327 71.5854 87.7341 72.8273C82.7125 74.0748 79.6355 77.4669 78.0207 80.2299L89.5964 86.9952ZM92.724 86.2141L85.681 97.6229L93.2358 102.287L100.279 90.8779L107.322 79.4691L99.767 74.8052L92.724 86.2141ZM100.279 90.8779L88.7032 84.1126L86.8089 87.3538L98.3846 94.1191L109.96 100.884L111.855 97.6432L100.279 90.8779ZM98.3846 94.1191L105.418 82.7045L99.5495 79.0882L92.5158 90.5028L85.4822 101.917L91.3509 105.534L98.3846 94.1191ZM92.5158 90.5028L80.9402 83.7375L75.9203 92.3267L87.496 99.092L99.0717 105.857L104.092 97.2681L92.5158 90.5028ZM87.496 99.092L94.2613 87.5163L90.5571 85.3514L83.7918 96.9271L77.0265 108.503L80.7307 110.668L87.496 99.092ZM96.6291 98.7459L103.394 87.1702C97.0013 83.4338 88.7898 85.5875 85.0534 91.9806L96.6291 98.7459ZM100.333 100.911L111.909 107.676C113.703 104.606 114.204 100.949 113.302 97.5093C112.4 94.0697 110.169 91.1294 107.099 89.3351L100.333 100.911ZM101.915 104.103L95.1501 115.678L101.915 104.103ZM103.996 104.263L92.4203 97.4974L103.996 104.263ZM102.284 101.399L112.363 92.5565C112.354 92.5458 112.344 92.5351 112.335 92.5244L102.284 101.399ZM106.747 94.3476L99.9817 105.923L106.747 94.3476ZM109.85 101.845L103.085 113.421C109.478 117.157 117.69 115.003 121.426 108.61L109.85 101.845ZM106.146 99.6802L94.5705 92.9149C92.7762 95.985 92.275 99.6421 93.1771 103.082C94.0793 106.521 96.3108 109.462 99.3809 111.256L106.146 99.6802ZM105.1 97.1122L111.865 85.5365L105.1 97.1122ZM103.342 96.9853L91.7662 90.22L103.342 96.9853ZM105.472 100.249L115.496 91.3451C115.492 91.3405 115.488 91.3359 115.484 91.3313L105.472 100.249ZM107.633 106.543L96.0569 99.7781C96.5783 98.8859 97.4857 97.7077 98.9499 96.7004C100.47 95.6549 102.148 95.1007 103.714 94.9517C106.515 94.6852 107.86 95.7746 106.941 95.2375L100.176 106.813L93.4107 118.389C96.5201 120.206 101.019 122.145 106.253 121.647C112.425 121.059 116.815 117.404 119.208 113.309L107.633 106.543ZM100.176 106.813L106.941 95.2375C106.063 94.7245 107.611 95.3314 108.626 97.8515C109.177 99.2202 109.403 100.778 109.225 102.33C109.055 103.813 108.566 104.893 108.205 105.511L96.6291 98.7459L85.0534 91.9806C82.5913 96.1933 81.3629 101.937 83.752 107.869C85.863 113.111 89.9823 116.385 93.4107 118.389L100.176 106.813ZM96.6291 98.7459L89.8638 110.322L93.568 112.486L100.333 100.911L107.099 89.3351L103.394 87.1702L96.6291 98.7459ZM100.333 100.911L88.7576 94.1455C86.8033 97.4893 85.7189 102.352 87.7577 107.422C89.5342 111.839 92.8868 114.356 95.1501 115.678L101.915 104.103L108.681 92.527C108.999 92.7132 111.297 94.0853 112.637 97.4166C114.239 101.4 113.336 105.235 111.909 107.676L100.333 100.911ZM101.915 104.103L95.1501 115.678C96.1968 116.29 98.6187 117.614 101.828 117.946C103.598 118.129 106.166 118.067 108.933 116.887C111.881 115.63 114.132 113.491 115.572 111.028L103.996 104.263L92.4203 97.4974C93.6976 95.3119 95.7314 93.3649 98.4151 92.2206C100.917 91.154 103.172 91.1264 104.586 91.2727C107.085 91.5311 108.629 92.4971 108.681 92.527L101.915 104.103ZM103.996 104.263L115.572 111.028C117.05 108.498 117.898 105.236 117.328 101.681C116.856 98.7394 115.564 96.6704 115.001 95.8239C114.382 94.8923 113.731 94.1279 113.422 93.7669C113.096 93.3855 112.635 92.8671 112.363 92.5565L102.284 101.399L92.2057 110.241C92.6882 110.791 92.8634 110.986 93.0543 111.209C93.2627 111.452 93.0119 111.183 92.6754 110.677C92.3953 110.256 91.2703 108.543 90.8507 105.926C90.3327 102.695 91.1174 99.7267 92.4203 97.4974L103.996 104.263ZM102.284 101.399L112.335 92.5244C111.483 91.5599 111.537 91.6537 111.161 91.2093C110.954 90.9643 111.203 91.217 111.527 91.8075C111.874 92.4395 112.528 93.8517 112.63 95.8575C112.74 98.0353 112.152 99.9795 111.308 101.424L99.7324 94.6583L88.1567 87.893C86.5482 90.6452 85.6776 93.8373 85.8485 97.2133C86.0107 100.417 87.0685 102.978 88.0252 104.72C89.5729 107.536 92.2016 110.237 92.234 110.273L102.284 101.399ZM99.7324 94.6583L111.308 101.424C110.567 102.691 109.388 104.018 107.71 105.01C106.049 105.991 104.391 106.354 103.074 106.411C100.714 106.514 99.5565 105.675 99.9817 105.923L106.747 94.3476L113.512 82.7719C110.719 81.1396 106.663 79.4137 101.905 79.6214C96.3401 79.8642 91.1573 82.7588 88.1567 87.893L99.7324 94.6583ZM106.747 94.3476L99.9817 105.923C100.154 106.024 98.5088 105.116 97.599 102.466C96.6043 99.5677 97.258 96.8195 98.2747 95.0798L109.85 101.845L121.426 108.61C123.769 104.602 124.85 99.2618 122.962 93.7605C121.159 88.5067 117.299 84.985 113.512 82.7719L106.747 94.3476ZM109.85 101.845L116.616 90.2694L112.911 88.1045L106.146 99.6802L99.3809 111.256L103.085 113.421L109.85 101.845ZM106.146 99.6802L117.722 106.446C119.777 102.93 120.547 98.3137 118.87 93.744C117.316 89.5084 114.271 86.9422 111.865 85.5365L105.1 97.1122L98.3349 108.688C97.2031 108.026 94.9241 106.327 93.6963 102.981C92.3459 99.3013 93.0028 95.5973 94.5705 92.9149L106.146 99.6802ZM105.1 97.1122L111.865 85.5365C110.881 84.9614 108.429 83.6055 105.137 83.3235C103.293 83.1656 100.725 83.307 98.0105 84.5537C95.1659 85.8603 93.0876 87.959 91.7662 90.22L103.342 96.9853L114.918 103.751C113.731 105.78 111.831 107.715 109.204 108.921C106.707 110.068 104.396 110.174 102.848 110.041C100.148 109.81 98.4392 108.749 98.3349 108.688L105.1 97.1122ZM103.342 96.9853L91.7662 90.22C89.024 94.912 89.8484 99.4721 90.6159 101.759C91.3257 103.874 92.3913 105.402 92.839 106.024C93.7467 107.286 95.0067 108.658 95.4602 109.167L105.472 100.249L115.484 91.3313C114.437 90.156 114.47 90.1739 114.606 90.3636C114.668 90.45 115.462 91.5127 116.038 93.2267C116.671 95.1126 117.497 99.3364 114.918 103.751L103.342 96.9853ZM105.472 100.249L95.4478 109.153C96.0549 109.836 96.2005 109.997 96.3343 110.163C96.4412 110.296 96.0854 109.889 95.6992 109.089C95.2695 108.198 94.7184 106.651 94.7461 104.64C94.7746 102.57 95.404 100.895 96.0569 99.7781L107.633 106.543L119.208 113.309C120.572 110.976 121.515 108.165 121.559 105.01C121.602 101.914 120.766 99.3323 119.848 97.4308C118.347 94.3217 115.828 91.7183 115.496 91.3451L105.472 100.249ZM137.143 107.552L147.347 116.25C149.801 113.371 150.925 109.589 150.441 105.836C149.957 102.084 147.91 98.7112 144.806 96.5491L137.143 107.552ZM134.489 110.665L126.47 121.41C132.134 125.637 140.108 124.741 144.693 119.363L134.489 110.665ZM130.234 107.488L138.253 96.7433C132.813 92.683 125.196 93.3295 120.518 98.2486L130.234 107.488ZM120.24 100.9L113.071 112.23C117.745 115.188 123.757 114.971 128.207 111.684C132.657 108.397 134.63 102.714 133.176 97.3762L120.24 100.9ZM119.958 99.8652L132.895 96.3413C132.109 93.4571 130.382 90.9182 127.988 89.1279L119.958 99.8652ZM114.374 95.689L101.437 99.2129C102.223 102.097 103.95 104.636 106.344 106.426L114.374 95.689ZM113.888 93.9038L110.364 80.9675C103.219 82.9137 99.005 90.2831 100.951 97.4277L113.888 93.9038ZM128.014 90.0557L140.95 86.5318C139.004 79.3873 131.635 75.1732 124.49 77.1194L128.014 90.0557ZM129.001 93.6778L132.525 106.614C135.955 105.68 138.875 103.42 140.64 100.333C142.405 97.2465 142.872 93.5849 141.937 90.1539L129.001 93.6778ZM120.566 95.9754L117.042 83.0391C112.024 84.406 108.25 88.5515 107.357 93.6752C106.465 98.7988 108.616 103.976 112.877 106.959L120.566 95.9754ZM128.911 101.818L121.222 112.801C124.86 115.348 129.524 115.928 133.676 114.35C137.827 112.772 140.928 109.24 141.955 104.919L128.911 101.818ZM128.678 96.2671L125.154 83.3308C118.009 85.277 113.795 92.6465 115.741 99.791L128.678 96.2671ZM132.817 95.1395L145.754 91.6156C144.819 88.1847 142.56 85.2656 139.473 83.5004C136.386 81.7352 132.724 81.2686 129.293 82.2032L132.817 95.1395ZM132.41 104.255L120.131 98.8717C117.56 104.735 119.494 111.599 124.748 115.258L132.41 104.255ZM122.985 107.406L126.509 120.342V120.342L122.985 107.406ZM127.095 105.147L136.682 114.52C139.381 111.759 140.759 107.967 140.463 104.117C140.166 100.267 138.223 96.7315 135.133 94.4164L127.095 105.147ZM124.999 103.578L133.038 92.847C133.031 92.8423 133.025 92.8376 133.019 92.8329L124.999 103.578ZM116.859 105.629L103.923 109.153L116.859 105.629ZM137.143 107.552L126.94 98.8534L124.286 101.966L134.489 110.665L144.693 119.363L147.347 116.25L137.143 107.552ZM134.489 110.665L142.509 99.9196L138.253 96.7433L130.234 107.488L122.214 118.233L126.47 121.41L134.489 110.665ZM130.234 107.488L120.518 98.2486C120.616 98.1454 120.704 98.0696 120.771 98.0175C120.838 97.9658 120.88 97.941 120.888 97.9365C120.903 97.9278 120.775 98.0029 120.448 98.092L123.972 111.028L127.496 123.965C132.064 122.72 136.459 120.398 139.949 116.728L130.234 107.488ZM123.972 111.028L120.448 98.092C119.165 98.4415 119.729 97.9569 121.319 98.5447C122.222 98.8784 123.259 99.5021 124.149 100.493C125.03 101.474 125.443 102.452 125.613 103.077L112.677 106.601L99.7409 110.125C101.456 116.42 105.823 121.405 112.021 123.696C117.528 125.732 123.112 125.159 127.496 123.965L123.972 111.028ZM112.677 106.601L125.613 103.077C126.094 104.842 125.945 107.489 124.335 109.867C122.977 111.873 121.176 112.818 119.757 113.205L116.233 100.269L112.709 87.3323C108.987 88.3463 104.929 90.6986 102.129 94.8345C99.0776 99.3422 98.3016 104.841 99.7409 110.125L112.677 106.601ZM116.233 100.269L119.757 113.205C118.675 113.5 117.321 113.6 115.88 113.318C114.511 113.05 113.55 112.533 113.071 112.23L120.24 100.9L127.41 89.5704C123.919 87.3613 118.786 85.6768 112.709 87.3323L116.233 100.269ZM120.24 100.9L133.176 97.3762L132.895 96.3413L119.958 99.8652L107.022 103.389L107.304 104.424L120.24 100.9ZM119.958 99.8652L127.988 89.1279L122.404 84.9517L114.374 95.689L106.344 106.426L111.928 110.602L119.958 99.8652ZM114.374 95.689L127.31 92.1651L126.824 90.3799L113.888 93.9038L100.951 97.4277L101.437 99.2129L114.374 95.689ZM113.888 93.9038L117.411 106.84L131.538 102.992L128.014 90.0557L124.49 77.1194L110.364 80.9675L113.888 93.9038ZM128.014 90.0557L115.078 93.5796L116.064 97.2017L129.001 93.6778L141.937 90.1539L140.95 86.5318L128.014 90.0557ZM129.001 93.6778L125.477 80.7415L117.042 83.0391L120.566 95.9754L124.09 108.912L132.525 106.614L129.001 93.6778ZM120.566 95.9754L112.877 106.959L121.222 112.801L128.911 101.818L136.601 90.834L128.256 84.9919L120.566 95.9754ZM128.911 101.818L141.955 104.919C142.96 100.692 142.639 96.5052 141.614 92.7432L128.678 96.2671L115.741 99.791C115.83 100.117 115.639 99.6745 115.867 98.7166L128.911 101.818ZM128.678 96.2671L132.202 109.203L136.341 108.076L132.817 95.1395L129.293 82.2032L125.154 83.3308L128.678 96.2671ZM132.817 95.1395L119.881 98.6634C120.005 99.1202 119.995 99.3388 119.995 99.3396C119.995 99.3403 119.998 99.2932 120.017 99.2067C120.037 99.1195 120.072 99.0045 120.131 98.8717L132.41 104.255L144.689 109.639C147.26 103.776 147.34 97.4407 145.754 91.6156L132.817 95.1395ZM132.41 104.255L124.748 115.258L129.481 118.554L137.143 107.552L144.806 96.5491L140.072 93.2527L132.41 104.255ZM122.985 107.406L126.509 120.342C130.025 119.385 133.674 117.597 136.682 114.52L127.095 105.147L117.507 95.7746C118.515 94.7432 119.412 94.4832 119.461 94.4699L122.985 107.406ZM127.095 105.147L135.133 94.4164L133.038 92.847L124.999 103.578L116.961 114.309L119.056 115.878L127.095 105.147ZM124.999 103.578L133.019 92.8329C131.226 91.4952 128.742 89.9369 125.581 89.0887C122.136 88.1644 118.838 88.3309 115.869 89.1395L119.393 102.076L122.917 115.012C122.463 115.136 121.802 115.263 120.987 115.276C120.156 115.29 119.356 115.182 118.632 114.988C117.27 114.623 116.645 114.073 116.98 114.323L124.999 103.578ZM119.393 102.076L115.869 89.1395C112.998 89.9217 109.369 91.6576 106.643 95.1985C103.59 99.165 102.592 104.268 103.923 109.153L116.859 105.629L129.795 102.105C130.647 105.23 130.011 108.803 127.891 111.556C126.099 113.884 123.978 114.723 122.917 115.012L119.393 102.076ZM116.859 105.629L103.923 109.153C105.404 114.592 109.468 118.993 115.25 120.607C119.756 121.865 123.962 121.036 126.509 120.342L122.985 107.406L119.461 94.4699C118.567 94.7133 120.01 94.0952 122.462 94.78C123.925 95.1883 125.67 96.0485 127.196 97.6179C128.703 99.1673 129.453 100.848 129.795 102.105L116.859 105.629ZM139.526 94.7155L130.222 85.0621C124.89 90.201 124.734 98.6888 129.873 104.02L139.526 94.7155ZM143.434 98.7699L152.739 108.423C158.071 103.284 158.227 94.7966 153.088 89.4652L143.434 98.7699ZM140.345 101.747L130.692 111.052C135.831 116.384 144.319 116.54 149.65 111.401L140.345 101.747ZM127.226 88.1362L117.921 78.4828C112.59 83.6217 112.434 92.1095 117.572 97.4409L127.226 88.1362ZM132.92 87.8616L123.615 78.2083C118.284 83.3471 118.128 91.835 123.267 97.1664L132.92 87.8616ZM136.921 92.0126L127.268 101.317C132.407 106.649 140.894 106.805 146.226 101.666L136.921 92.0126ZM132.11 83.428L141.415 93.0814C142.023 92.4953 142.248 92.3442 142.197 92.3786C142.148 92.4121 141.388 92.9333 140.021 93.2228C138.453 93.5552 136.704 93.4479 135.122 92.8424C133.715 92.3037 133.074 91.6146 133.116 91.6581L142.769 82.3534L152.423 73.0486C148.255 68.7248 142.003 65.3922 134.463 66.99C128.672 68.217 124.61 72.035 122.806 73.7746L132.11 83.428ZM142.769 82.3534L133.116 91.6581C133.168 91.7119 132.509 91.0566 132.024 89.6413C131.477 88.0481 131.428 86.2988 131.817 84.7373C132.156 83.3767 132.707 82.6314 132.745 82.5799C132.783 82.5279 132.626 82.7451 132.017 83.3315L141.322 92.9848L150.627 102.638C152.43 100.9 156.405 96.9741 157.838 91.2152C159.702 83.728 156.581 77.3633 152.423 73.0486L142.769 82.3534ZM141.322 92.9848L132.017 83.3315L130.222 85.0621L139.526 94.7155L148.831 104.369L150.627 102.638L141.322 92.9848ZM139.526 94.7155L129.873 104.02L133.781 108.075L143.434 98.7699L153.088 89.4652L149.18 85.4108L139.526 94.7155ZM143.434 98.7699L134.13 89.1166L131.041 92.0941L140.345 101.747L149.65 111.401L152.739 108.423L143.434 98.7699ZM140.345 101.747L149.999 92.4427L136.879 78.8315L127.226 88.1362L117.572 97.4409L130.692 111.052L140.345 101.747ZM127.226 88.1362L136.53 97.7896L141.415 93.0814L132.11 83.428L122.806 73.7746L117.921 78.4828L127.226 88.1362ZM138.91 90.0958L148.214 99.7491C148.753 99.2305 149.697 98.3058 150.593 97.1673C151.482 96.0391 152.896 93.9996 153.641 91.1423C155.56 83.7793 151.611 78.3893 149.333 76.0262L139.68 85.3309L130.027 94.6356C129.807 94.4075 128.836 93.3742 128.113 91.5407C127.263 89.3826 127.048 86.8497 127.693 84.3775C128.246 82.2539 129.24 80.9404 129.527 80.5757C129.823 80.2008 129.984 80.0771 129.605 80.4424L138.91 90.0958ZM139.68 85.3309L149.333 76.0262C147.028 73.6341 141.771 69.5195 134.353 71.1941C131.489 71.8405 129.414 73.1738 128.262 74.0155C127.098 74.8665 126.143 75.7718 125.604 76.2915L134.909 85.9448L144.213 95.5982C144.591 95.234 144.466 95.3864 144.086 95.6639C143.719 95.9322 142.383 96.8713 140.258 97.3512C137.78 97.9106 135.251 97.6222 133.102 96.6912C131.273 95.8992 130.26 94.8774 130.027 94.6356L139.68 85.3309ZM134.909 85.9448L125.604 76.2915L123.615 78.2083L132.92 87.8616L142.225 97.515L144.213 95.5982L134.909 85.9448ZM132.92 87.8616L123.267 97.1664L127.268 101.317L136.921 92.0126L146.575 82.7078L142.573 78.5569L132.92 87.8616ZM136.921 92.0126L146.226 101.666L148.214 99.7491L138.91 90.0958L129.605 80.4424L127.616 82.3592L136.921 92.0126ZM150.248 81.1409L139.708 72.8539C139.704 72.8596 139.699 72.8652 139.695 72.8709L150.248 81.1409ZM152.908 77.7573L163.448 86.0442C167.586 80.7813 167.208 73.2727 162.562 68.4525L152.908 77.7573ZM149.158 81.6329L158.463 91.2863C163.794 86.1474 163.95 77.6596 158.811 72.3282L149.158 81.6329ZM146.262 84.4243L136.609 93.7291C141.748 99.0605 150.235 99.2166 155.567 94.0777L146.262 84.4243ZM159.329 78.2356L149.675 87.5404C154.814 92.8718 163.302 93.0279 168.633 87.889L159.329 78.2356ZM160.738 76.8771L170.391 67.5724C165.252 62.241 156.765 62.0849 151.433 67.2238L160.738 76.8771ZM163.343 79.5801L172.648 89.2335C177.979 84.0946 178.136 75.6068 172.997 70.2754L163.343 79.5801ZM158.17 81.4004L145.681 86.2765C146.325 87.9255 147.289 89.4306 148.517 90.7051L158.17 81.4004ZM157.537 79.7767L170.026 74.9006C168.396 70.7247 164.786 67.6399 160.407 66.68C156.028 65.7202 151.459 67.0123 148.232 70.1234L157.537 79.7767ZM156.764 80.5211L147.46 70.8678C142.949 75.2157 142.05 82.1079 145.296 87.4669L156.764 80.5211ZM154.583 79.4949L164.237 70.1901C161.545 67.3972 157.775 65.9071 153.901 66.1046C150.027 66.3021 146.428 68.1678 144.034 71.22L154.583 79.4949ZM152.428 82.243L141.878 73.9681C141.861 73.9899 141.844 74.0116 141.827 74.0334L152.428 82.243ZM149.307 87.9698L158.96 78.6651C159.471 79.1946 160.3 80.2122 160.906 81.7628C161.547 83.4028 161.727 85.1022 161.553 86.6352C161.257 89.2455 160.061 90.3552 160.801 89.411L150.248 81.1409L139.695 72.8709C137.93 75.1235 135.454 78.8077 134.909 83.6133C134.237 89.5339 136.725 94.236 139.654 97.2745L149.307 87.9698ZM150.248 81.1409L160.788 89.4279L163.448 86.0442L152.908 77.7573L142.368 69.4703L139.708 72.8539L150.248 81.1409ZM152.908 77.7573L162.562 68.4525C159.386 65.158 154.581 63.171 149.305 64.0603C144.973 64.7903 142 67.1916 140.425 68.7092L149.73 78.3626L159.035 88.0159C158.793 88.2495 157.027 89.9524 153.761 90.5028C151.963 90.8058 149.903 90.7141 147.833 89.9871C145.802 89.2734 144.288 88.1341 143.255 87.062L152.908 77.7573ZM149.73 78.3626L140.425 68.7092C138.64 70.4304 136.197 73.4589 135.445 77.8461C134.576 82.9167 136.342 87.656 139.505 90.9376L149.158 81.6329L158.811 72.3282C161.118 74.7217 162.553 78.4214 161.875 82.3765C161.314 85.6484 159.585 87.4857 159.035 88.0159L149.73 78.3626ZM149.158 81.6329L139.853 71.9795L136.957 74.771L146.262 84.4243L155.567 94.0777L158.463 91.2863L149.158 81.6329ZM146.262 84.4243L155.915 75.1196C156.671 75.9039 157.389 76.9989 157.822 78.3678C158.251 79.7249 158.3 81.0315 158.14 82.1313C157.834 84.228 156.857 85.2738 156.616 85.5061L147.311 75.8527L138.006 66.1993C135.043 69.0555 132.35 73.1515 131.605 78.2602C130.8 83.7771 132.475 89.4401 136.609 93.7291L146.262 84.4243ZM147.311 75.8527L156.616 85.5061C156.58 85.54 155.503 86.6038 153.219 86.8388C151.99 86.9653 150.66 86.8097 149.408 86.3193C148.184 85.8403 147.411 85.1917 147.033 84.7988L156.686 75.4941L166.339 66.1894C162.253 61.9495 156.631 59.5307 150.474 60.1643C144.946 60.7331 140.725 63.5786 138.006 66.1993L147.311 75.8527ZM156.686 75.4941L147.033 84.7988L149.675 87.5404L159.329 78.2356L168.982 68.9309L166.339 66.1894L156.686 75.4941ZM159.329 78.2356L168.633 87.889L170.043 86.5305L160.738 76.8771L151.433 67.2238L150.024 68.5823L159.329 78.2356ZM160.738 76.8771L151.085 86.1819L153.69 88.8848L163.343 79.5801L172.997 70.2754L170.391 67.5724L160.738 76.8771ZM163.343 79.5801L154.039 69.9267L151.896 71.9924L161.2 81.6457L170.505 91.2991L172.648 89.2335L163.343 79.5801ZM161.2 81.6457L151.896 71.9924C153.209 70.7263 155.983 68.8226 160.012 68.8967C164.042 68.9708 166.744 70.9752 168.01 72.2887L158.357 81.5935L148.703 90.8982C150.863 93.1384 154.523 95.6156 159.519 95.7075C164.515 95.7994 168.265 93.4584 170.505 91.2991L161.2 81.6457ZM158.357 81.5935L168.01 72.2887L167.824 72.0957L158.17 81.4004L148.517 90.7051L148.703 90.8982L158.357 81.5935ZM158.17 81.4004L170.66 76.5242L170.026 74.9006L157.537 79.7767L145.047 84.6529L145.681 86.2765L158.17 81.4004ZM157.537 79.7767L148.232 70.1234L147.46 70.8678L156.764 80.5211L166.069 90.1745L166.841 89.4301L157.537 79.7767ZM156.764 80.5211L145.296 87.4669C145.1 87.1441 144.066 85.3351 144.299 82.5885C144.548 79.6434 146.029 78.0192 146.309 77.7497L155.614 87.403L164.918 97.0564C167.92 94.1629 170.575 90.0855 171.018 84.8492C171.445 79.8115 169.624 75.8735 168.233 73.5753L156.764 80.5211ZM155.614 87.403L146.309 77.7497C146.859 77.2198 149.185 75.4677 152.902 75.8061C156.079 76.0953 158.066 77.7374 158.96 78.6651L149.307 87.9698L139.654 97.2745C141.516 99.2062 145.14 102.026 150.471 102.511C156.341 103.045 161.338 100.508 164.918 97.0564L155.614 87.403ZM151.838 84.4131L142.184 93.7178C146.179 97.8616 151.626 98.7945 156.069 97.6515C159.55 96.7562 161.846 94.8036 162.912 93.7766L153.607 84.1232L144.302 74.4698C144.846 73.9453 146.528 72.4176 149.389 71.6815C150.99 71.2698 153.158 71.0652 155.579 71.6821C158.067 72.3161 160.063 73.6262 161.491 75.1083L151.838 84.4131ZM153.607 84.1232L162.912 93.7766C164.942 91.8198 167.336 88.7372 168.262 84.5145C169.317 79.7017 168.178 74.279 164.237 70.1901L154.583 79.4949L144.93 88.7996C143.719 87.5437 142.71 85.8803 142.19 83.9046C141.679 81.9623 141.76 80.1784 142.068 78.7731C142.642 76.1559 143.971 74.7889 144.302 74.4698L153.607 84.1232ZM154.583 79.4949L144.034 71.22L141.878 73.9681L152.428 82.243L162.977 90.5179L165.133 87.7697L154.583 79.4949ZM152.428 82.243L141.827 74.0334C141.671 74.2358 139.876 76.3884 138.92 79.2402C138.311 81.0565 137.818 83.7213 138.484 86.8099C139.156 89.9258 140.736 92.2156 142.184 93.7178L151.838 84.4131L161.491 75.1083C162.669 76.3306 164.089 78.3377 164.696 81.1549C165.298 83.9448 164.837 86.295 164.343 87.7673C163.892 89.112 163.325 89.9981 163.174 90.2311C162.994 90.5083 162.885 90.6371 163.028 90.4526L152.428 82.243ZM164.498 78.4675L154.844 87.7722C159.983 93.1036 168.471 93.2597 173.802 88.1208L164.498 78.4675ZM156.611 66.9627L147.543 57.0873C147.523 57.1054 147.503 57.1236 147.484 57.1418L156.611 66.9627ZM163.151 60.9574L172.804 51.6527C167.753 46.4121 159.443 46.1589 154.082 51.0821L163.151 60.9574ZM165.756 63.6604L174.833 73.5283C177.49 71.0842 179.049 67.6719 179.158 64.0633C179.266 60.4548 177.915 56.9549 175.409 54.3556L165.756 63.6604ZM160.683 68.3272L151.606 58.4592C148.949 60.9033 147.389 64.3156 147.281 67.9242C147.172 71.5328 148.524 75.0326 151.029 77.6319L160.683 68.3272ZM167.587 75.49L176.891 85.1433C182.223 80.0045 182.379 71.5166 177.24 66.1852L167.587 75.49ZM164.498 78.4675L174.151 69.1627L166.168 60.8801L156.514 70.1849L146.861 79.4896L154.844 87.7722L164.498 78.4675ZM156.514 70.1849L166.168 60.8801C167.365 62.1224 169.303 64.8956 169.175 68.9727C169.048 73.0262 166.963 75.6464 165.739 76.7836L156.611 66.9627L147.484 57.1418C145.18 59.2832 142.534 62.9836 142.373 68.1316C142.21 73.3033 144.64 77.1855 146.861 79.4896L156.514 70.1849ZM156.611 66.9627L165.68 76.8381L172.22 70.8328L163.151 60.9574L154.082 51.0821L147.543 57.0873L156.611 66.9627ZM163.151 60.9574L153.497 70.2622L156.103 72.9651L165.756 63.6604L175.409 54.3556L172.804 51.6527L163.151 60.9574ZM165.756 63.6604L156.679 53.7925L151.606 58.4592L160.683 68.3272L169.759 78.1951L174.833 73.5283L165.756 63.6604ZM160.683 68.3272L151.029 77.6319L157.933 84.7947L167.587 75.49L177.24 66.1852L170.336 59.0224L160.683 68.3272ZM167.587 75.49L158.282 65.8366L155.193 68.8141L164.498 78.4675L173.802 88.1208L176.891 85.1433L167.587 75.49ZM176.116 62.4272L166.462 71.7319C169.017 74.3821 172.549 75.8656 176.229 75.8344C179.91 75.8032 183.416 74.2602 185.925 71.5671L176.116 62.4272ZM179.521 58.7728L189.174 49.468C186.62 46.8178 183.088 45.3344 179.407 45.3656C175.726 45.3968 172.22 46.9398 169.711 49.6329L179.521 58.7728ZM182.126 61.4757L191.794 70.7658C196.786 65.5706 196.78 57.3586 191.779 52.171L182.126 61.4757ZM177.273 66.5259L186.922 75.8347C186.928 75.8285 186.935 75.8222 186.941 75.8159L177.273 66.5259ZM168.653 60.8676L178.307 51.5629C173.168 46.2315 164.68 46.0754 159.349 51.2143L168.653 60.8676ZM166.337 63.1008L156.683 72.4055C161.822 77.7369 170.31 77.893 175.641 72.7541L166.337 63.1008ZM163.731 60.3978L154.427 50.7445C149.095 55.8833 148.939 64.3712 154.078 69.7026L163.731 60.3978ZM166.048 58.1647L175.353 67.8181C180.684 62.6792 180.84 54.1914 175.701 48.86L166.048 58.1647ZM164.28 56.3306L152.52 49.892C149.704 55.0359 150.557 61.4131 154.627 65.6353L164.28 56.3306ZM166.439 52.3877L176.092 43.083C173.132 40.0121 168.888 38.5327 164.66 39.0985C160.433 39.6644 156.726 42.2079 154.678 45.9491L166.439 52.3877ZM169.137 55.1872L159.484 64.4919C164.623 69.8233 173.111 69.9794 178.442 64.8405L169.137 55.1872ZM172.342 52.098L181.995 42.7933C176.857 37.4619 168.369 37.3058 163.037 42.4446L172.342 52.098ZM174.947 54.801L184.252 64.4543C189.584 59.3155 189.74 50.8276 184.601 45.4962L174.947 54.801ZM171.743 57.8901L162.438 48.2368C157.106 53.3756 156.95 61.8635 162.089 67.1949L171.743 57.8901ZM176.116 62.4272L185.925 71.5671L189.33 67.9127L179.521 58.7728L169.711 49.6329L166.306 53.2873L176.116 62.4272ZM179.521 58.7728L169.867 68.0775L172.473 70.7805L182.126 61.4757L191.779 52.171L189.174 49.468L179.521 58.7728ZM182.126 61.4757L172.459 52.1857L167.606 57.2358L177.273 66.5259L186.941 75.8159L191.794 70.7658L182.126 61.4757ZM177.273 66.5259L167.624 57.217C168.983 55.8084 171.858 53.7774 176.023 53.8899C180.027 53.9981 182.606 56.0232 183.704 57.1619L174.05 66.4666L164.397 75.7713C166.518 77.9719 170.196 80.5577 175.299 80.6955C180.564 80.8377 184.539 78.3055 186.922 75.8347L177.273 66.5259ZM174.05 66.4666L183.704 57.1619L178.307 51.5629L168.653 60.8676L159 70.1724L164.397 75.7713L174.05 66.4666ZM168.653 60.8676L159.349 51.2143L157.032 53.4474L166.337 63.1008L175.641 72.7541L177.958 70.521L168.653 60.8676ZM166.337 63.1008L175.99 53.796L173.385 51.0931L163.731 60.3978L154.078 69.7026L156.683 72.4055L166.337 63.1008ZM163.731 60.3978L173.036 70.0512L175.353 67.8181L166.048 58.1647L156.743 48.5113L154.427 50.7445L163.731 60.3978ZM166.048 58.1647L175.701 48.86L173.934 47.0258L164.28 56.3306L154.627 65.6353L156.395 67.4694L166.048 58.1647ZM164.28 56.3306L176.041 62.7691L178.199 58.8263L166.439 52.3877L154.678 45.9491L152.52 49.892L164.28 56.3306ZM166.439 52.3877L156.785 61.6924L159.484 64.4919L169.137 55.1872L178.791 45.8824L176.092 43.083L166.439 52.3877ZM169.137 55.1872L178.442 64.8405L181.647 61.7514L172.342 52.098L163.037 42.4446L159.832 45.5338L169.137 55.1872ZM172.342 52.098L162.689 61.4027L165.294 64.1057L174.947 54.801L184.601 45.4962L181.995 42.7933L172.342 52.098ZM174.947 54.801L165.643 45.1476L162.438 48.2368L171.743 57.8901L181.047 67.5435L184.252 64.4543L174.947 54.801ZM171.743 57.8901L162.089 67.1949L166.462 71.7319L176.116 62.4272L185.769 53.1225L181.396 48.5854L171.743 57.8901ZM186.573 57.1894L195.878 66.8428C201.209 61.7039 201.365 53.2161 196.226 47.8847L186.573 57.1894ZM183.484 60.1669L173.83 69.4717C178.969 74.8031 187.457 74.9592 192.789 69.8203L183.484 60.1669ZM174.086 50.417L164.781 40.7637C159.45 45.9025 159.294 54.3904 164.433 59.7218L174.086 50.417ZM177.175 47.4395L186.828 38.1348C181.69 32.8034 173.202 32.6473 167.87 37.7862L177.175 47.4395ZM178.31 48.6172L190.411 42.8426C189.79 41.5421 188.964 40.3501 187.964 39.3125L178.31 48.6172ZM179.406 50.9131L167.306 56.6877C169.162 60.5773 172.775 63.3375 177.015 64.1059C181.256 64.8744 185.608 63.5574 188.711 60.5665L179.406 50.9131ZM180.178 50.1687L189.483 59.8221C194.007 55.461 194.896 48.5425 191.62 43.1797L180.178 50.1687ZM194.45 49.5968L203.755 59.2501C209.086 54.1112 209.242 45.6234 204.103 40.292L194.45 49.5968ZM191.361 52.5743L181.708 61.879C186.846 67.2104 195.334 67.3665 200.666 62.2276L191.361 52.5743ZM182.375 47.2696L173.07 37.6163C170.56 40.0351 167.367 44.4884 167.727 50.7716C168.053 56.4416 171.154 60.5124 173.44 62.8838L183.093 53.5791L192.746 44.2743C192.389 43.9041 194.292 45.6297 194.499 49.2352C194.741 53.4538 192.509 56.1232 191.679 56.923L182.375 47.2696ZM183.093 53.5791L173.44 62.8838L176.92 66.4942L186.573 57.1894L196.226 47.8847L192.746 44.2743L183.093 53.5791ZM186.573 57.1894L177.268 47.5361L174.179 50.5136L183.484 60.1669L192.789 69.8203L195.878 66.8428L186.573 57.1894ZM183.484 60.1669L193.137 50.8622L183.739 41.1123L174.086 50.417L164.433 59.7218L173.83 69.4717L183.484 60.1669ZM174.086 50.417L183.391 60.0704L186.48 57.0929L177.175 47.4395L167.87 37.7862L164.781 40.7637L174.086 50.417ZM177.175 47.4395L167.522 56.7443L168.657 57.922L178.31 48.6172L187.964 39.3125L186.828 38.1348L177.175 47.4395ZM178.31 48.6172L166.21 54.3918L167.306 56.6877L179.406 50.9131L191.506 45.1385L190.411 42.8426L178.31 48.6172ZM179.406 50.9131L188.711 60.5665L189.483 59.8221L180.178 50.1687L170.873 40.5154L170.101 41.2598L179.406 50.9131ZM180.178 50.1687L191.62 43.1797C192.101 43.9671 192.776 45.5104 192.639 47.6523C192.488 50.0275 191.403 51.975 190.174 53.1593L180.87 43.5059L171.565 33.8526C168.251 37.0467 166.176 41.2707 165.878 45.9474C165.595 50.3908 166.967 54.2605 168.736 57.1578L180.178 50.1687ZM180.87 43.5059L190.174 53.1593C189.161 54.1365 186.882 55.5165 183.781 55.2416C182.427 55.1215 181.385 54.7108 180.712 54.341C180.061 53.9836 179.749 53.6647 179.716 53.6308L189.37 44.326L199.023 35.0213C196.129 32.0188 191.807 29.0326 186.149 28.531C180.146 27.9988 175.069 30.4748 171.565 33.8526L180.87 43.5059ZM189.37 44.326L179.716 53.6308L184.797 58.9015L194.45 49.5968L204.103 40.292L199.023 35.0213L189.37 44.326ZM194.45 49.5968L185.145 39.9434L182.056 42.9209L191.361 52.5743L200.666 62.2276L203.755 59.2501L194.45 49.5968ZM191.361 52.5743L201.014 43.2695L196.399 38.4815L186.746 47.7862L177.092 57.0909L181.708 61.879L191.361 52.5743ZM186.746 47.7862L196.399 38.4815C195.147 37.1819 191.661 33.7075 186.131 33.0194C179.574 32.2035 175.053 35.7042 173.07 37.6163L182.375 47.2696L191.679 56.923C191.182 57.4021 187.991 60.273 182.82 59.6295C180.613 59.3549 179.047 58.5202 178.23 57.9881C177.815 57.7178 177.523 57.4803 177.357 57.3369C177.19 57.1919 177.1 57.0983 177.092 57.0909L186.746 47.7862ZM201.813 34.3432L211.118 43.9966C216.449 38.8577 216.605 30.3699 211.466 25.0385L201.813 34.3432ZM194.419 41.4706L185.114 31.8173C179.782 36.9561 179.626 45.444 184.765 50.7754L194.419 41.4706ZM199.834 37.7773L190.53 28.124C186.145 32.3508 185.159 39.0024 188.131 44.319L199.834 37.7773ZM202.924 34.7998L213.75 26.8913C211.466 23.7636 207.94 21.7767 204.081 21.4422C200.222 21.1078 196.408 22.4584 193.619 25.1464L202.924 34.7998ZM192.744 39.733L183.09 49.0378C188.229 54.3692 196.717 54.5253 202.048 49.3864L192.744 39.733ZM197.242 35.397L206.547 45.0504C211.878 39.9115 212.034 31.4237 206.896 26.0923L197.242 35.397ZM190.778 43.4898L200.432 34.185C201.15 34.9305 202.225 36.683 202.102 39.151C201.985 41.4731 200.891 42.8302 200.454 43.2505L191.15 33.5971L181.845 23.9438C178.378 27.2857 175.608 32.0447 175.32 37.8104C175.024 43.722 177.429 48.9599 181.125 52.7945L190.778 43.4898ZM191.15 33.5971L200.454 43.2505C200.103 43.5894 198.812 44.6054 196.549 44.6838C194.07 44.7697 192.171 43.6601 191.229 42.6826L200.883 33.3779L210.536 24.0731C206.747 20.1417 201.497 17.6809 195.621 17.8845C189.962 18.0806 185.228 20.6832 181.845 23.9438L191.15 33.5971ZM200.883 33.3779L191.229 42.6826L192.16 43.6479L201.813 34.3432L211.466 25.0385L210.536 24.0731L200.883 33.3779ZM201.813 34.3432L192.508 24.6898L185.114 31.8173L194.419 41.4706L203.723 51.124L211.118 43.9966L201.813 34.3432ZM194.419 41.4706L184.765 50.7754C187.735 53.8565 192.265 56.0885 197.605 55.5944C202.431 55.1478 205.964 52.6518 208.133 50.5603L198.829 40.9069L189.524 31.2536C189.937 30.8556 191.804 29.2013 195.134 28.8931C198.979 28.5374 202.181 30.2046 204.072 32.1659L194.419 41.4706ZM198.829 40.9069L208.133 50.5603C210.405 48.3711 216.742 40.5452 211.538 31.2357L199.834 37.7773L188.131 44.319C186.206 40.8754 186.435 37.3617 187.221 35.0244C187.924 32.9336 189.031 31.7283 189.524 31.2536L198.829 40.9069ZM199.834 37.7773L209.139 47.4307L212.228 44.4532L202.924 34.7998L193.619 25.1464L190.53 28.124L199.834 37.7773ZM202.924 34.7998L192.097 42.7083C190.556 40.5989 190.314 38.6112 190.438 37.2583C190.599 35.5094 191.385 34.3016 191.943 33.7634L201.248 43.4168L210.553 53.0702C218.668 45.2484 218.941 33.9977 213.75 26.8913L202.924 34.7998ZM201.248 43.4168L191.943 33.7634C192.264 33.4539 193.779 32.3306 196.255 32.4505C198.5 32.5592 199.884 33.6173 200.432 34.185L190.778 43.4898L181.125 52.7945C184.333 56.1231 189.079 58.9499 194.958 59.2344C201.067 59.5301 206.486 56.9899 210.553 53.0702L201.248 43.4168ZM192.744 39.733L202.048 49.3864L206.547 45.0504L197.242 35.397L187.937 25.7436L183.439 30.0797L192.744 39.733ZM197.242 35.397L206.896 26.0923C204.095 23.1867 199.694 20.9847 194.436 21.5161C189.72 21.9929 186.316 24.4761 184.264 26.4537L193.569 36.107L202.874 45.7604C202.54 46.0817 200.619 47.8431 197.133 48.1955C193.106 48.6025 189.682 46.8737 187.589 44.7017L197.242 35.397ZM193.569 36.107L184.264 26.4537C182.219 28.4247 179.579 31.7624 178.954 36.5179C178.257 41.8185 180.39 46.2366 183.09 49.0378L192.744 39.733L202.397 30.4283C204.39 32.4957 206.077 35.929 205.54 40.0141C205.075 43.554 203.2 45.4456 202.874 45.7604L193.569 36.107ZM207.58 36.9414L197.926 46.2462C203.065 51.5776 211.553 51.7337 216.884 46.5948L207.58 36.9414ZM199.693 25.4367L190.624 15.5613C190.605 15.5794 190.585 15.5975 190.566 15.6158L199.693 25.4367ZM206.233 19.4314L215.886 10.1267C210.835 4.88612 202.525 4.63285 197.164 9.55603L206.233 19.4314ZM208.838 22.1343L217.915 32.0022C220.572 29.5582 222.131 26.1458 222.24 22.5373C222.348 18.9287 220.997 15.4289 218.491 12.8296L208.838 22.1343ZM203.764 26.8011L194.688 16.9332C192.031 19.3773 190.471 22.7896 190.363 26.3982C190.254 30.0067 191.606 33.5066 194.111 36.1059L203.764 26.8011ZM210.669 33.9639L219.973 43.6173C225.305 38.4784 225.461 29.9906 220.322 24.6592L210.669 33.9639ZM207.58 36.9414L217.233 27.6367L209.249 19.3541L199.596 28.6588L189.943 37.9636L197.926 46.2462L207.58 36.9414ZM199.596 28.6588L209.249 19.3541C210.447 20.5964 212.385 23.3696 212.257 27.4467C212.13 31.5002 210.045 34.1204 208.821 35.2576L199.693 25.4367L190.566 15.6158C188.261 17.7572 185.616 21.4575 185.455 26.6056C185.292 31.7773 187.722 35.6595 189.943 37.9636L199.596 28.6588ZM199.693 25.4367L208.762 35.312L215.301 29.3068L206.233 19.4314L197.164 9.55603L190.624 15.5613L199.693 25.4367ZM206.233 19.4314L196.579 28.7361L199.185 31.4391L208.838 22.1343L218.491 12.8296L215.886 10.1267L206.233 19.4314ZM208.838 22.1343L199.761 12.2664L194.688 16.9332L203.764 26.8011L212.841 36.669L217.915 32.0022L208.838 22.1343ZM203.764 26.8011L194.111 36.1059L201.015 43.2687L210.669 33.9639L220.322 24.6592L213.418 17.4964L203.764 26.8011ZM210.669 33.9639L201.364 24.3106L198.275 27.2881L207.58 36.9414L216.884 46.5948L219.973 43.6173L210.669 33.9639ZM228.251 21.5795L215.387 25.3608L228.251 21.5795ZM215.029 24.2364L211.247 11.3729C204.143 13.4613 200.077 20.9133 202.165 28.0176L215.029 24.2364ZM219.145 23.0264L232.008 19.2451C231.006 15.8335 228.689 12.9601 225.567 11.2568C222.446 9.55357 218.775 9.16009 215.364 10.163L219.145 23.0264ZM222.553 24.065L226.334 36.9284L222.553 24.065ZM224.097 22.6609L211.233 26.4422L224.097 22.6609ZM220.839 21.9416L221.319 8.54256C221.305 8.54204 221.291 8.54155 221.276 8.54109L220.839 21.9416ZM226.354 16.7428L230.135 29.6062C237.239 27.5179 241.305 20.0659 239.217 12.9616L226.354 16.7428ZM222.237 17.9528L209.374 21.7341C210.377 25.1457 212.694 28.0192 215.815 29.7224C218.937 31.4256 222.607 31.8191 226.019 30.8163L222.237 17.9528ZM218.353 18.1444L205.489 21.9257L218.353 18.1444ZM222.189 18.8335L222.587 5.43179C222.581 5.43162 222.575 5.43143 222.569 5.43125L222.189 18.8335ZM228.251 21.5795L215.387 25.3608C215.096 24.3694 214.861 22.9009 215.133 21.1445C215.414 19.3216 216.162 17.7204 217.128 16.4788C218.856 14.2581 220.572 14.0264 219.55 14.3266L223.332 27.19L227.113 40.0535C230.568 39.0378 235.065 37.0942 238.293 32.9439C242.1 28.0508 242.452 22.3495 241.114 17.7983L228.251 21.5795ZM223.332 27.19L219.55 14.3266C218.575 14.6134 220.078 13.9037 222.608 14.8941C223.982 15.4319 225.27 16.3363 226.277 17.5307C227.24 18.6719 227.69 19.7685 227.892 20.4551L215.029 24.2364L202.165 28.0176C203.541 32.699 206.877 37.5328 212.833 39.8642C218.095 41.9241 223.303 41.1733 227.113 40.0535L223.332 27.19ZM215.029 24.2364L218.81 37.0998L222.926 35.8898L219.145 23.0264L215.364 10.163L211.247 11.3729L215.029 24.2364ZM219.145 23.0264L206.282 26.8076C207.374 30.5235 210.168 34.6483 215.255 36.6428C219.688 38.3806 223.819 37.6677 226.334 36.9284L222.553 24.065L218.772 11.2016C219.125 11.0975 221.7 10.367 225.043 11.6775C229.04 13.2448 231.211 16.5326 232.008 19.2451L219.145 23.0264ZM222.553 24.065L226.334 36.9284C227.497 36.5865 230.122 35.7325 232.565 33.6251C233.912 32.4628 235.629 30.5519 236.669 27.7296C237.777 24.7216 237.765 21.6171 236.96 18.8797L224.097 22.6609L211.233 26.4422C210.519 24.0135 210.498 21.1981 211.506 18.4605C212.446 15.9086 213.973 14.2491 215.05 13.32C216.953 11.679 218.715 11.2183 218.772 11.2016L222.553 24.065ZM224.097 22.6609L236.96 18.8797C236.133 16.0679 234.342 13.2138 231.364 11.1895C228.9 9.51488 226.509 9.03539 225.506 8.86443C224.403 8.6763 223.401 8.62495 222.926 8.60223C222.425 8.57822 221.732 8.55736 221.319 8.54256L220.839 21.9416L220.358 35.3407C221.089 35.3669 221.351 35.3729 221.644 35.3869C221.964 35.4022 221.596 35.4001 220.997 35.298C220.499 35.213 218.481 34.8561 216.289 33.3663C213.583 31.5267 211.961 28.9195 211.233 26.4422L224.097 22.6609ZM220.839 21.9416L221.276 8.54109C219.99 8.49909 220.096 8.52391 219.514 8.49287C219.194 8.47576 219.549 8.46782 220.201 8.63686C220.899 8.8178 222.375 9.31098 223.904 10.6132C225.564 12.027 226.575 13.7883 227.047 15.3931L214.184 19.1743L201.32 22.9556C202.219 26.0139 203.944 28.8372 206.518 31.0288C208.961 33.1088 211.549 34.0959 213.473 34.5944C216.584 35.4008 220.352 35.3405 220.401 35.3421L220.839 21.9416ZM214.184 19.1743L227.047 15.3931C227.461 16.8016 227.617 18.5702 227.188 20.471C226.762 22.3533 225.889 23.8082 225.027 24.8056C223.483 26.5932 222.078 26.8597 222.551 26.7208L218.77 13.8574L214.988 0.993944C211.885 1.90623 207.846 3.67353 204.733 7.27798C201.092 11.4936 199.643 17.2502 201.32 22.9556L214.184 19.1743ZM218.77 13.8574L222.551 26.7208C222.742 26.6646 220.953 27.239 218.401 26.0826C215.61 24.8182 214.059 22.4572 213.49 20.5241L226.354 16.7428L239.217 12.9616C237.908 8.50719 234.764 4.05694 229.466 1.65682C224.407 -0.63534 219.196 -0.243024 214.988 0.993944L218.77 13.8574ZM226.354 16.7428L222.572 3.8794L218.456 5.0894L222.237 17.9528L226.019 30.8163L230.135 29.6062L226.354 16.7428ZM222.237 17.9528L235.101 14.1716C233.952 10.2647 231.122 6.53738 226.647 4.62253C222.499 2.84766 218.543 3.30308 215.87 4.08872L219.651 16.9522L223.433 29.8156C222.175 30.1853 219.375 30.678 216.099 29.2759C212.495 27.7338 210.25 24.7148 209.374 21.7341L222.237 17.9528ZM219.651 16.9522L215.87 4.08872C214.777 4.41018 212.108 5.26431 209.644 7.46623C208.265 8.69919 206.605 10.6652 205.65 13.4952C204.65 16.4613 204.751 19.4132 205.489 21.9257L218.353 18.1444L231.216 14.3632C231.879 16.6184 231.983 19.3286 231.058 22.0677C230.18 24.6709 228.672 26.4249 227.513 27.46C225.492 29.2662 223.549 29.7815 223.433 29.8156L219.651 16.9522ZM218.353 18.1444L205.489 21.9257C207.022 27.1396 210.905 29.6681 213.096 30.6785C215.121 31.6128 216.964 31.8859 217.724 31.987C219.265 32.1921 221.128 32.2165 221.809 32.2358L222.189 18.8335L222.569 5.43125C220.995 5.38667 221.031 5.37528 221.262 5.40611C221.368 5.42015 222.686 5.57148 224.328 6.32872C226.134 7.16195 229.774 9.45793 231.216 14.3632L218.353 18.1444ZM222.189 18.8335L221.79 32.2353C222.704 32.2624 222.921 32.2665 223.134 32.2834C223.304 32.2968 222.763 32.276 221.916 32.0082C220.974 31.7102 219.47 31.0498 218.026 29.65C216.539 28.2093 215.752 26.6022 215.387 25.3608L228.251 21.5795L241.114 17.7983C240.352 15.2062 238.954 12.5908 236.688 10.3948C234.465 8.23976 232.014 7.07706 230 6.4405C226.708 5.39966 223.086 5.44663 222.587 5.43179L222.189 18.8335Z" fill="#003D0A" mask="url(#path-1-outside-1_483_886)"/>
</svg>
