<svg width="21" height="22" viewBox="0 0 21 22" fill="none" xmlns="http://www.w3.org/2000/svg">
<path d="M18.2027 7.1747L14.0754 3.04744C13.8344 2.80789 13.5087 2.67295 13.1689 2.67188H7.33119C6.99139 2.67295 6.6657 2.80789 6.4247 3.04744L2.29744 7.1747C2.05789 7.4157 1.92295 7.74139 1.92188 8.08119V13.9189C1.92295 14.2587 2.05789 14.5844 2.29744 14.8254L6.4247 18.9527C6.6657 19.1922 6.99139 19.3272 7.33119 19.3282H13.1689C13.5087 19.3272 13.8344 19.1922 14.0754 18.9527L18.2027 14.8254C18.4422 14.5844 18.5772 14.2587 18.5782 13.9189V8.08119C18.5772 7.74139 18.4422 7.4157 18.2027 7.1747ZM9.60943 7.15628C9.60943 6.98637 9.67692 6.82343 9.79706 6.70329C9.9172 6.58315 10.0802 6.51565 10.2501 6.51565C10.42 6.51565 10.5829 6.58315 10.7031 6.70329C10.8232 6.82343 10.8907 6.98637 10.8907 7.15628V11.6407C10.8907 11.8106 10.8232 11.9735 10.7031 12.0937C10.5829 12.2138 10.42 12.2813 10.2501 12.2813C10.0802 12.2813 9.9172 12.2138 9.79706 12.0937C9.67692 11.9735 9.60943 11.8106 9.60943 11.6407V7.15628ZM10.2501 15.4845C10.06 15.4845 9.87421 15.4281 9.71618 15.3225C9.55816 15.2169 9.43499 15.0668 9.36226 14.8913C9.28953 14.7157 9.2705 14.5225 9.30758 14.336C9.34465 14.1496 9.43618 13.9784 9.57057 13.844C9.70496 13.7096 9.87618 13.6181 10.0626 13.581C10.249 13.544 10.4422 13.563 10.6178 13.6357C10.7934 13.7085 10.9435 13.8316 11.0491 13.9896C11.1546 14.1477 11.211 14.3335 11.211 14.5235C11.211 14.7784 11.1098 15.0228 10.9295 15.203C10.7493 15.3832 10.5049 15.4845 10.2501 15.4845Z" fill="#FD6807"/>
</svg>
